<svg xmlns="http://www.w3.org/2000/svg" width="42" height="42" viewBox="0 0 42 42"><g transform="translate(-300 -598)"><g transform="translate(300.465 606)"><path d="M36.95,4.729H33.568a.518.518,0,0,1-.518-.518h0V1.506A.518.518,0,0,1,33.568,1H36.95a.523.523,0,0,1,.518.518V4.223a.518.518,0,0,1-.518.518" transform="translate(-13.611 -0.412)" fill="#f2c62f"/><path d="M36.317,36.65H30.483A1.959,1.959,0,0,1,28.53,34.7V20.182a3.529,3.529,0,0,1,1.559-2.941,2.488,2.488,0,0,0,1.106-2.07V9.348a.512.512,0,0,1,.518-.518h3.376a.512.512,0,0,1,.518.518h0v5.835a2.5,2.5,0,0,0,1.1,2.07,3.529,3.529,0,0,1,1.565,2.941V34.7a1.953,1.953,0,0,1-1.953,1.947m-6.752-5.194h7.646V23.534H29.565Z" transform="translate(-11.75 -3.636)" fill="#f2c62f"/><path d="M30.426,55.405H.518a.518.518,0,0,1,0-1.035H30.426a.518.518,0,0,1,0,1.035" transform="translate(0 -22.391)" fill="#f2c62f"/><path d="M16.449,6.758H8.021a.465.465,0,0,1-.471-.465V6.252L7.973.435A.471.471,0,0,1,8.444,0h7.605a.471.471,0,0,1,.471.435l.429,5.817a.471.471,0,0,1-.435.506h-.035" transform="translate(-3.109 0)" fill="#f2c62f"/><path d="M16.6,13.279a.476.476,0,0,0-.471-.459H7.593a.476.476,0,0,0-.471.459L6.64,37.523h0a.471.471,0,0,0,.471.471h9.5a.465.465,0,0,0,.459-.476Zm-2.2,20.88H9.3a.471.471,0,0,1-.471-.471h0l.247-14.163a1.764,1.764,0,0,1,0-.247,2.94,2.94,0,0,1,.029-.394h0a.506.506,0,0,1,0-.159,2.788,2.788,0,0,1,5.464,0,.441.441,0,0,1,.029.153v.059a2.153,2.153,0,0,1,0,.335v.306l.247,14.116a.465.465,0,0,1-.459.476h0" transform="translate(-2.735 -5.28)" fill="#f2c62f"/></g><rect width="42" height="42" transform="translate(300 598)" fill="none" opacity="0.5"/></g></svg>