<svg xmlns="http://www.w3.org/2000/svg" width="42.001" height="42" viewBox="0 0 42.001 42"><g transform="translate(-299.999 -412)"><g transform="translate(300 420.407)"><g transform="translate(0 0)"><rect width="33" height="33" transform="translate(-0.001 -0.407)" fill="none"/></g><g transform="translate(1.635 6.305)"><path d="M28.512,5.188A16.238,16.238,0,0,0,23.7,4.5a12.793,12.793,0,0,0-7.566,2.063A12.793,12.793,0,0,0,8.566,4.5,12.793,12.793,0,0,0,1,6.563V26.716a.74.74,0,0,0,.688.688c.138,0,.206-.069.344-.069a16.79,16.79,0,0,1,6.534-1.513,12.793,12.793,0,0,1,7.566,2.063A16.569,16.569,0,0,1,23.7,25.821a14,14,0,0,1,6.534,1.444.62.62,0,0,0,.344.069.74.74,0,0,0,.688-.688V6.563A9.382,9.382,0,0,0,28.512,5.188Zm0,18.57A15.985,15.985,0,0,0,23.7,23.07a16.569,16.569,0,0,0-7.566,2.063V9.315A16.569,16.569,0,0,1,23.7,7.251a15.985,15.985,0,0,1,4.815.688Z" transform="translate(-1 -4.5)" fill="#f2a246"/><g transform="translate(16.507 6.19)"><path d="M19.19,11.063a16.086,16.086,0,0,1,3.439.358V9.33A18.575,18.575,0,0,0,19.19,9,15.829,15.829,0,0,0,13,10.142v2.283A12.77,12.77,0,0,1,19.19,11.063Z" transform="translate(-13 -9)" fill="#f2a246"/><path d="M13,12.8v2.283a12.77,12.77,0,0,1,6.19-1.362,16.086,16.086,0,0,1,3.439.358V11.99a18.575,18.575,0,0,0-3.439-.33A16.082,16.082,0,0,0,13,12.8Z" transform="translate(-13 -8.001)" fill="#f2a246"/><path d="M19.19,14.33A15.829,15.829,0,0,0,13,15.472v2.283a12.77,12.77,0,0,1,6.19-1.362,16.086,16.086,0,0,1,3.439.358V14.66A17.466,17.466,0,0,0,19.19,14.33Z" transform="translate(-13 -6.998)" fill="#f2a246"/></g></g></g><path d="M0,0H42V42H0Z" transform="translate(300 412)" fill="none" opacity="0.5"/></g></svg>