<svg xmlns="http://www.w3.org/2000/svg" width="42" height="42" viewBox="0 0 42 42"><g transform="translate(-300 -1963)"><path d="M18.177,16.824a20.032,20.032,0,0,1-8.811-1.657Q6,13.509,6,11.412,6,9.281,9.366,7.64A20.211,20.211,0,0,1,18.177,6a20.211,20.211,0,0,1,8.811,1.64q3.366,1.64,3.366,3.771,0,2.1-3.366,3.755A20.032,20.032,0,0,1,18.177,16.824Zm0,6.765A22.424,22.424,0,0,1,9.619,22.1Q6,20.612,6,18.515V15.133a2.814,2.814,0,0,0,1.268,2.283,10.814,10.814,0,0,0,3.146,1.59,21.952,21.952,0,0,0,3.991.913,28.308,28.308,0,0,0,3.771.288,28.139,28.139,0,0,0,3.788-.288,22.976,22.976,0,0,0,3.974-.9,10.526,10.526,0,0,0,3.146-1.573,2.841,2.841,0,0,0,1.268-2.317v3.382q0,2.1-3.619,3.585A22.424,22.424,0,0,1,18.177,23.589Zm0,6.765a22.424,22.424,0,0,1-8.558-1.488Q6,27.377,6,25.28V21.9a2.814,2.814,0,0,0,1.268,2.283,10.813,10.813,0,0,0,3.146,1.59,21.952,21.952,0,0,0,3.991.913,28.308,28.308,0,0,0,3.771.288,28.139,28.139,0,0,0,3.788-.288,22.975,22.975,0,0,0,3.974-.9,10.526,10.526,0,0,0,3.146-1.573A2.841,2.841,0,0,0,30.354,21.9V25.28q0,2.1-3.619,3.585A22.424,22.424,0,0,1,18.177,30.354Z" transform="translate(296.999 1970)" fill="#969696"/><rect width="42" height="42" transform="translate(300 1963)" fill="none" opacity="0.5"/></g></svg>