<svg xmlns="http://www.w3.org/2000/svg" width="42" height="42" viewBox="0 0 42 42"><g transform="translate(-299.332 -1095)"><path d="M0,0H33.014V33.014H0Z" transform="translate(299.332 1103)" fill="none"/><path d="M26.76,4H4.751A2.747,2.747,0,0,0,2.014,6.751L2,23.258a2.759,2.759,0,0,0,2.751,2.751H26.76a2.759,2.759,0,0,0,2.751-2.751V6.751A2.759,2.759,0,0,0,26.76,4ZM19.883,23.258H4.751v-5.5H19.883Zm0-6.878H4.751v-5.5H19.883Zm6.878,6.878h-5.5V10.878h5.5Z" transform="translate(300.083 1107.502)" fill="#edde57"/><rect width="41.332" height="42" transform="translate(300 1095)" fill="none" opacity="0.5"/></g></svg>