<svg xmlns="http://www.w3.org/2000/svg" width="42" height="42" viewBox="0 0 42 42"><g transform="translate(-300 -1884)"><path d="M0,0H32.014V32.014H0Z" transform="translate(300 1887)" fill="none"/><path d="M8.934,23.157A2.645,2.645,0,1,0,11.578,25.8,2.641,2.641,0,0,0,8.934,23.157ZM1,2V4.645H3.645L8.4,14.681,6.62,17.921a2.557,2.557,0,0,0-.331,1.269,2.652,2.652,0,0,0,2.645,2.645H24.8V19.19H9.489a.327.327,0,0,1-.331-.331L9.2,18.7l1.19-2.155H20.24a2.632,2.632,0,0,0,2.314-1.362L27.287,6.6a1.292,1.292,0,0,0,.159-.635,1.326,1.326,0,0,0-1.322-1.322H6.567L5.324,2H1ZM22.157,23.157A2.645,2.645,0,1,0,24.8,25.8,2.641,2.641,0,0,0,22.157,23.157Z" transform="translate(300.392 1893.784)" fill="#e84f3a"/><rect width="42" height="42" transform="translate(300 1884)" fill="none" opacity="0.5"/></g></svg>