<svg xmlns="http://www.w3.org/2000/svg" width="42" height="42" viewBox="0 0 42 42"><g transform="translate(-299.379 -334)"><g transform="translate(299.379 342)"><path d="M0,0H32.715V32.715H0Z" fill="none"/><ellipse cx="3.525" cy="3.525" rx="3.525" ry="3.525" transform="translate(2.961 9.589)" fill="#e84f3a"/><ellipse cx="3.408" cy="3.408" rx="3.408" ry="3.408" transform="translate(8.86 4.089)" fill="#e84f3a"/><ellipse cx="3.408" cy="3.408" rx="3.408" ry="3.408" transform="translate(17.039 4.089)" fill="#e84f3a"/><ellipse cx="3.525" cy="3.525" rx="3.525" ry="3.525" transform="translate(22.703 9.589)" fill="#e84f3a"/><path d="M22.186,16.443c-1.186-1.39-2.181-2.576-3.381-3.967a5.783,5.783,0,0,0-2.385-1.8,2.76,2.76,0,0,0-.45-.123,6.86,6.86,0,0,0-1.063-.055,5.718,5.718,0,0,0-1.077.068,2.76,2.76,0,0,0-.45.123A5.872,5.872,0,0,0,11,12.49c-1.186,1.39-2.181,2.576-3.381,3.967-1.786,1.786-3.98,3.762-3.571,6.529a4.28,4.28,0,0,0,3.176,3.162c1,.2,4.171-.6,7.552-.6h.245c3.381,0,6.557.791,7.552.6a4.3,4.3,0,0,0,3.176-3.162c.423-2.781-1.772-4.757-3.558-6.543Z" transform="translate(1.45 3.813)" fill="#e84f3a"/></g><rect width="41.379" height="42" transform="translate(300 334)" fill="none" opacity="0.5"/></g></svg>