<svg xmlns="http://www.w3.org/2000/svg" width="180" height="180" viewBox="0 0 180 180"><g transform="translate(836.961 17283.088)"><path d="M178.039,90.194A87.845,87.845,0,1,1,90.194,2.347a87.847,87.847,0,0,1,87.846,87.847" transform="translate(-837.156 -17283.281)" fill="#fff"/><path d="M55.993,16.1c.214-.115.214-.437.547-.437a.42.42,0,0,1,.1-.329c.317,0,.1-.218.317-.327,0-.225.111-.437-.1-.551-.319-.107-.543.223-.866.326-.315.333-.531.767-.861,1.2a.6.6,0,0,0,.217.436c.21-.107.426-.217.644-.321" transform="translate(-783.022 -17284.283)" fill="#00593f"/><path d="M63.048,37.5l-.1-.111a.47.47,0,0,0-.225-.762c-.534.435-.208,1.2-.315,1.752a2.291,2.291,0,0,1,.434.872c.106.652-.327,1.2,0,1.856,0,.108.106.108.21.108.111-.108.437-.108.321-.325.762-.876.212-2.19-.425-2.956,0-.1-.106-.321.1-.435" transform="translate(-776.322 -17245.918)" fill="#00593f"/><path d="M60.185,20.443a2.535,2.535,0,0,0,1.179.659c.216.108.216.333.315.443a.549.549,0,0,0,.434-.223c.107-.112-.1-.328.107-.328a.4.4,0,0,0,.647-.116c0-.106,0-.217-.111-.217.222-.324.533-.217.756-.324.105-.549-.435-.986-.106-1.427.321.227.212.548.434.771.526.222.643-.33.526-.771,0-.105.116-.105.222-.105.214.218.329.333.528.547,0,.219,0,.552-.2.658,0,.1-.116.217-.22.328h-.215a11.3,11.3,0,0,1-2.37,1.641,3.6,3.6,0,0,0-1.079.111v.327a.6.6,0,0,1,.329.547c.1.108.216.217.315.326v.217a12.541,12.541,0,0,0,1.727,1.646,1.856,1.856,0,0,0,1.077,0v-.329c-.217-.217-.643-.664-.332-.985.547.547,1.511,1.314,2.162.768-.114-.113-.114-.335-.324-.447h-.216c-.207-.21-.323-.321-.541-.542,0-.111,0-.219.108-.219.322.324.756.219.973.551a3.142,3.142,0,0,0,.968.1c.1,0,.1-.1.1-.212-.318-.549-.859-.767-1.289-1.209a.406.406,0,0,1,.327-.1c.643.547,1.28,1.092,1.929,1.634,0,.226-.218.226-.218.334s0,.222.109.222h.21a3.018,3.018,0,0,0,.764-.877,1.951,1.951,0,0,1,.216-.767c0-.108,0-.223-.113-.223l.113-.112a3,3,0,0,1-.216-.978c-1.188-1.533-2.589-2.849-3.767-4.376a5.022,5.022,0,0,0-2.693-3.058c-.644,0-1.393-.329-2.04,0-.532.106-.862.659-1.3.985a.6.6,0,0,1-.317.549c-.325,1.523-.434,3.385.75,4.477.105-.111.218.222.33.106" transform="translate(-771.999 -17267.326)" fill="#00593f"/><path d="M59.7,41.87c.544.442.709-.558.862-.981a3.181,3.181,0,0,0-.227-2.624c.115-.436-.092-.878,0-1.313-.092-.326-.316-.442-.636-.217,0,.109,0,.217-.113.217a4.982,4.982,0,0,0,.432,2.182A4.061,4.061,0,0,0,59.7,41.87" transform="translate(-779.199 -17245.531)" fill="#00593f"/><path d="M63.98,30.854a.407.407,0,0,0,.1-.327l-.1-.1c-.111-.327.2-.55-.111-.665v-.212c-.434-.222-.861-.654-1.293-.871-.652,0-.967-.546-1.4-.984a4.181,4.181,0,0,0-1.614-2.63c0,.112-.106.112-.2.112a.4.4,0,0,1-.116.335c0,.109,0,.217.116.217l-.116.1a7.291,7.291,0,0,1,1.394,2.736,1.108,1.108,0,0,0,.431.544h.216c.112.106.112.106.214.216.429,0,.647.326,1.081.326a1.042,1.042,0,0,0,.432.553v.22c.1,0,.215,0,.215.1.1.327,0,.769.213,1.1l-.116.114c.328.545-.212,1.644.661,1.854.1-.113.1-.113.2-.211a6.915,6.915,0,0,1,0-1.432c-.311-.326.115-.762-.2-1.094" transform="translate(-776.564 -17256.225)" fill="#00593f"/><path d="M52.72,45.927a.907.907,0,0,0-.757.219.759.759,0,0,0,.434.873c.118-.222.428-.108.428-.328a.544.544,0,0,0-.105-.764" transform="translate(-786.708 -17238.594)" fill="#00593f"/><path d="M53.132,48.786c-.216.216,0,.544-.108.766a.454.454,0,0,0,.537.219c.538-.113.325-.659.209-.985Z" transform="translate(-785.736 -17235.883)" fill="#00593f"/><path d="M61.62,37.517l-.1-.111.1-.108c-.1-.219-.1-.545-.527-.437-.334.325-.12.769-.334,1.09a6.481,6.481,0,0,0,.43,1.536c0,.218.108.432-.1.544l.1.108c-.1.224,0,.44-.216.651l.12.116-.12.109c.216.437.216,1.2.861.763v-.326a6.885,6.885,0,0,0,.215-2.08c-.428-.436-.314-1.09-.53-1.637,0-.106,0-.22.1-.22" transform="translate(-777.955 -17245.457)" fill="#00593f"/><path d="M50.866,20.705c.216-.112.325-.328.431-.435a.584.584,0,0,0,.533-.333,3.223,3.223,0,0,1,2.254-.218c.118-.215.333-.107.428-.107a.9.9,0,0,0,.552.213,25.653,25.653,0,0,1,2.689,2.087c.1.325.642.325.642.758.316.113.855.222.855-.325a6.8,6.8,0,0,0-1.61-1.867c-.325-.1-.532-.43-.865-.541H56.56c-.1,0-.1-.113-.1-.218h-.218a4,4,0,0,0-2.9-1.09c0,.217-.319,0-.319.217A4.615,4.615,0,0,0,51.3,19.5h-.215c-.323.215-.756.544-.756.974.107.227.326.227.539.227" transform="translate(-782.724 -17264.299)" fill="#00593f"/><path d="M55.584,33.161A7.065,7.065,0,0,0,54.5,32.5c-.427-.659-1.079-1.088-1.508-1.746-.217-.109-.526-.109-.753-.323a1.207,1.207,0,0,0-.859.323v.216a5.3,5.3,0,0,1,2.251,1.867c.537.322,1.517,1.083,1.949.322" transform="translate(-785.096 -17252.834)" fill="#00593f"/><path d="M50.327,28.9c.1,0,.217,0,.217.1,1.612-.549,2.583,1.211,3.657,2.075a.641.641,0,0,1,.547.332h.209a1.528,1.528,0,0,0,.216.213h.216a1.277,1.277,0,0,0,1.4.224v-.224c-.116-.1-.221-.213-.332-.324a8.922,8.922,0,0,1-3.868-3.058.549.549,0,0,0-.428-.221c-.968-.435-1.83,0-2.795.107-.111.114-.219.226-.331.326,0,.219.22.335.331.446.32-.111.646.218.965,0" transform="translate(-784.989 -17255.014)" fill="#00593f"/><path d="M54.944,47.118a.9.9,0,0,0-.864.325c.22.331.22.874.744.652a.607.607,0,0,0,.12-.977" transform="translate(-784.6 -17237.479)" fill="#00593f"/><path d="M51.762,32.4c-.534-.547-1.291-.444-1.935-.547,0,.219-.324,0-.324.219V32.3c.544.437,1.189.437,1.827.756.113,0,.113.117.113.225a1.822,1.822,0,0,0,.753.108c.208-.108.117-.333.117-.544-.226-.107-.333-.332-.551-.438" transform="translate(-787.902 -17252.045)" fill="#00593f"/><path d="M50.67,78.693a.287.287,0,0,0-.121-.122.231.231,0,0,0,.121.122" transform="translate(-788.609 -17194.033)" fill="#00593f"/><path d="M26.728,31.217a10.207,10.207,0,0,0-1.179-.551c-.753-.107-1.293.325-2.044.325a2.878,2.878,0,0,0-.215.227c-.322-.114-.538.1-.758.216,0,.216,0,.545.32.429.437-.429,1.08-.324,1.616-.545.54.116,1.182-.214,1.725.221.216,0,.534.111.75-.105a.43.43,0,0,0-.1-.329Z" transform="translate(-814.152 -17253.338)" fill="#00593f"/><path d="M50.915,80.113l.111-.1c-.078,0-.088.043-.111.1" transform="translate(-788.265 -17194.152)" fill="#00593f"/><path d="M54.891,50.2v.545c.12.222.438.222.648.222.118-.109.216-.222.335-.324v-.227a.574.574,0,0,0-.983-.216" transform="translate(-783.866 -17234.723)" fill="#00593f"/><path d="M50.1,86.58l.1.1a.093.093,0,0,0-.1-.1" transform="translate(-789.048 -17194.697)" fill="#00593f"/><path d="M51.02,86.079l-.1-.1c0,.072.032.093.1.1" transform="translate(-788.269 -17194.646)" fill="#00593f"/><path d="M44.819,86.918l.092-.094a.2.2,0,0,0-.092.094" transform="translate(-794.106 -17194.717)" fill="#00593f"/><path d="M24.852,34.561c-.315,0-.529-.223-.75-.336-.325,0-.546-.326-.86,0l-.115-.1-.1.1-.109-.1c-.321.211-.75,0-.973.318,0,.116,0,.216.116.216a.352.352,0,0,1,.312.116l.11-.116c.758.227,1.839.227,2.263,1.1a1.9,1.9,0,0,0,.643,1.637c.11,0,.212,0,.212-.115l.112.115c.534-.661-.435-1.422-.324-2.192a2.974,2.974,0,0,1-.538-.65" transform="translate(-814.889 -17249.09)" fill="#00593f"/><path d="M50.907,79.777c-.073,0-.091.05-.091.11a.1.1,0,0,0,.091-.11" transform="translate(-788.372 -17194.133)" fill="#00593f"/><path d="M45.669,27.428a2.529,2.529,0,0,0-1.935.654c-.216-.107-.328.114-.429.114-.432.43-1.18.761-1.18,1.529.1,0,.212,0,.212.1a24.211,24.211,0,0,0,2.153-1.3,1.539,1.539,0,0,0,.638-.217h2.255c.229-.226,0-.55.116-.88a2.154,2.154,0,0,0-1.83,0" transform="translate(-793.759 -17256.188)" fill="#00593f"/><path d="M34.289,24.7a.548.548,0,0,1,.428-.227c.323-.324.75-.433,1.074-.758v-.226c0-.213-.324,0-.324-.213l-.108.1-.109-.1c-.1,0-.21,0-.21.1-.323-.1-.323.108-.436.22H34.4c-.327.331-.761.439-1.079.768-.437.1-.862,0-1.182.221l-.105-.116a.374.374,0,0,0-.323.116c-.648-.332-1.293-.44-1.935-.767-.111,0-.323-.108-.431.109.32.769,1.184.869,1.832,1.312l.106-.108a2.406,2.406,0,0,0,2.684-.114c0-.221.327-.112.327-.322" transform="translate(-806.422 -17260.199)" fill="#00593f"/><path d="M42.213,24.732l.1.1a1.588,1.588,0,0,0,1.732-.869,4.711,4.711,0,0,0-3.015,0,.372.372,0,0,1-.316-.109l-.115.109c-.107,0-.214,0-.214-.109-.32.326-.751,0-1.082-.222l-.1.114-.115-.114-.1.114-.117-.114c-.1,0-.208,0-.208.114a1.952,1.952,0,0,0-1.833.654c-.426,0-.643.542-.861.876-.422.434-.856.766-1.284,1.2h-.221a.52.52,0,0,0-.107.879,1.317,1.317,0,0,0,.644-.11c.436-.657,1.085-.988,1.4-1.637a6.188,6.188,0,0,1,5.7-.773Z" transform="translate(-799.634 -17259.381)" fill="#00593f"/><path d="M39.089,31.377c0,.116-.107.116-.218.116s-.213-.116-.322-.116c-.106.116-.106.442-.322.332-.1.437-.541.987,0,1.306.108,0,.216,0,.216-.1l.106.1c.215-.211.54-.211.759-.544.1-.434.311-.873-.219-1.094" transform="translate(-800.006 -17252.475)" fill="#00593f"/><path d="M28.447,25.974a1.063,1.063,0,0,1-1.182-.43c-.326,0-.535-.113-.869.109-.092.545.334.758.769.978a1.426,1.426,0,0,1,1.5.552c.1-.114.215.216.319.1a.6.6,0,0,0,.54.328c.107.112.207.218.324.325.429,0,.964.326,1.293-.106v-.218a.986.986,0,0,0-.76-.328,19.806,19.806,0,0,1-1.935-1.313" transform="translate(-810.128 -17257.891)" fill="#00593f"/><path d="M27.412,30.272c.537-.338.215-.988-.106-1.314-.424-.111-.859-.445-1.285-.445a3.171,3.171,0,0,0-2.159.663h-.22a2.509,2.509,0,0,1-.216.215h-.214c-.1.329-.424.543-.1.881,1.073,0,1.931-1.21,3.116-.774a2.791,2.791,0,0,0,1.293.881,2.2,2.2,0,0,0,.214,1.853v.225c.211.222.534.651.859.436-.113-.987-.113-2.3-1.185-2.62" transform="translate(-813.32 -17254.225)" fill="#00593f"/><path d="M54.358,63.605c.216.223.535.223.862.331,0-.108.1-.108.217-.108v-.223c-1.079-.762-2.373-.981-3.34-1.854-.107.112-.211-.222-.326-.115-.747-.548-1.291-1.309-2.147-1.528a1.908,1.908,0,0,0,.106.767c1.076,1.535,2.9,2.191,4.627,2.73" transform="translate(-785.759 -17222.711)" fill="#00593f"/><path d="M21.609,65.34l.1-.106a.1.1,0,0,0-.1.106" transform="translate(-816.297 -17220.691)" fill="#00593f"/><path d="M84.567,53.2a.115.115,0,0,0-.06.071.309.309,0,0,1,.071-.05.219.219,0,0,0-.011-.021" transform="translate(-748.404 -17232.23)" fill="#00593f"/><path d="M75.783,60.949l.1.1c0-.062-.042-.088-.1-.1" transform="translate(-747.681 -17224.799)" fill="#00593f"/><path d="M37.437,64.871a1.132,1.132,0,0,0,.855.983c.323-.109.213-.221.213-.328-.213-.329-.645-.982-1.068-.655" transform="translate(-800.701 -17220.344)" fill="#00593f"/><path d="M39.581,65.412c-.212-.218-.431-.434-.648-.658-.108,0-.213,0-.213.115-.11.544.43.875.861,1.091.216.109.216-.216.313-.328.329.112.425.545.869.545.106,0,.106-.107.214-.107v-.326c-.43-.331-.753-.875-1.3-.875,0,.225.116.435-.1.544" transform="translate(-798.886 -17220.084)" fill="#00593f"/><path d="M69.429,51.659a.915.915,0,0,0-.078.092c.053-.012.069-.044.078-.092" transform="translate(-770.661 -17233.686)" fill="#00593f"/><path d="M71.3,62.608l-.1-.108c.015.061.04.108.1.108" transform="translate(-768.874 -17223.307)" fill="#00593f"/><path d="M44.691,56.705c.309.326.635.326.96.543a.6.6,0,0,0,.208-.439c-.326-.216-.426-.649-.859-.756a8.615,8.615,0,0,0-4.51-3.615c-.22-.325-.646-.217-.976-.437,0,.219-.316,0-.216.219.118.111.118.328.33.439.1-.111.216.224.313.111.116.113.224.214.328.327a4.653,4.653,0,0,1,1.939.982c.86.873,1.615,1.744,2.482,2.625" transform="translate(-796.002 -17229.842)" fill="#00593f"/><path d="M74.717,64.392l-.115-.1a.1.1,0,0,0,.115.1" transform="translate(-747.583 -17221.6)" fill="#00593f"/><path d="M72.492,62.852c.012.061.026.107.1.107-.008-.061-.027-.107-.1-.107" transform="translate(-767.636 -17222.967)" fill="#00593f"/><path d="M73.366,63.806a.236.236,0,0,0-.139.034.265.265,0,0,0-.021.132v.058l.1.105a.407.407,0,0,0,.106-.325.21.21,0,0,0-.049,0" transform="translate(-766.858 -17221.885)" fill="#00593f"/><path d="M72.266,63.207a.109.109,0,0,0,.1.115c0-.066-.034-.11-.1-.115" transform="translate(-767.857 -17222.623)" fill="#00593f"/><path d="M72.482,61.657l.113.1c-.013-.063-.034-.1-.113-.1" transform="translate(-767.636 -17224.117)" fill="#00593f"/><path d="M56.735,38.417c.439.322.333.757.333,1.2,0,.115-.116.115-.222.115a6.78,6.78,0,0,0,0,3.282,29.415,29.415,0,0,1-.427,5.246c.217.219,0,.548.1.769.216.21.216.548.327.763,1.083,1.637,3.224,2.839,3.337,4.919-.325.54-.325,1.2-.861,1.639-.111.762-.75,1.855,0,2.3a6.588,6.588,0,0,0,.33-1.535c.092-.22.206-.433.318-.652a2.82,2.82,0,0,0,.962-2.518c-.1-.106-.1-.106-.215-.218V53.5c-.108-.1-.108-.331-.314-.435v-.221a2,2,0,0,1-.221-.22v-.215c-.113,0-.113,0-.213-.107-.759-1.1-1.607-1.867-2.372-2.845-.752-1.533-.106-3.171,0-4.706.114-.327-.106-.766.114-1.09.1-1.312-.114-2.518-.114-3.829a1.647,1.647,0,0,0,.218-1.418c-.1-.112-.1-.112-.218-.225-.106-.434-.53-1.092-.962-1.092a14.758,14.758,0,0,0-1.181,1.639c-.767.55-1.077,1.315-1.732,1.864-.424.436-.856.651-1.283,1.1.322.754,1.188-.224,1.724-.335,0-.111,0-.219.1-.219.649-.216.868-.76,1.293-1.2v-.215c0-.115.118-.115.217-.115V39.4c.323-.318.547-.77.965-.98" transform="translate(-780.755 -17234.463)" fill="#00593f"/><path d="M72.022,63.449l.106.1c-.01-.063-.029-.1-.106-.1" transform="translate(-768.082 -17222.404)" fill="#00593f"/><path d="M71.781,64.034l-.1-.1a.1.1,0,0,0,.1.1" transform="translate(-768.414 -17221.941)" fill="#00593f"/><path d="M73.065,64.512V64.4h-.1Z" transform="translate(-767.186 -17221.488)" fill="#00593f"/><path d="M25.332,58.2a.481.481,0,0,0,.111.873c.32,0,.32-.328.32-.549-.11-.1-.221-.324-.431-.324" transform="translate(-812.782 -17226.859)" fill="#00593f"/><path d="M24.162,58.674c-.315.221,0,.555,0,.762h.431c.116-.1.116-.32.116-.541-.116-.221-.328-.221-.547-.221" transform="translate(-813.815 -17226.488)" fill="#00593f"/><path d="M26.056,58.191a1.513,1.513,0,0,0,.1.652c.123,0,.215,0,.215.109l.118-.109c.1,0,.1-.107.216-.107,0-.326-.216-.987-.647-.545" transform="translate(-811.868 -17226.99)" fill="#00593f"/><path d="M52.4,54.534h.537c0-.324.108-.545-.109-.867a.54.54,0,0,0-.861.322.839.839,0,0,0,.218.545Z" transform="translate(-786.686 -17231.283)" fill="#00593f"/><path d="M22.273,48.551l-.1.1c-.046,0-.08,0-.108,0v0a1.337,1.337,0,0,0-.115.656c.325.222.537.328.858,0,.115-.435-.206-.656-.533-.759" transform="translate(-815.76 -17236.131)" fill="#00593f"/><path d="M27.223,57.957c-.227.225-.117.444-.117.657,0,.113.117.113.216.113a.4.4,0,0,0,.325-.113c0-.108,0-.213.106-.213,0-.329-.221-.548-.53-.444" transform="translate(-810.873 -17227.178)" fill="#00593f"/><path d="M50.378,52.864c.1,0,.1-.113.217-.113a.727.727,0,0,0-.326-.987.646.646,0,0,0-.537.987,1.3,1.3,0,0,0,.645.113" transform="translate(-788.905 -17232.934)" fill="#00593f"/><path d="M31.572,58.184a1.5,1.5,0,0,0,.213.652l.106-.107.106.107c.321-.22.106-.544.106-.877-.213,0-.431,0-.532.225" transform="translate(-806.573 -17227.096)" fill="#00593f"/><path d="M28.7,57.841c-.323-.112-.431.1-.534.33s.211.324.211.544A.382.382,0,0,0,28.7,58.6c0-.107,0-.213.111-.213,0-.111,0-.218-.111-.218l.111-.11c-.111,0-.111-.116-.111-.22" transform="translate(-809.851 -17227.219)" fill="#00593f"/><path d="M34.214,58.2a.806.806,0,0,0-.539.219c0,.213,0,.433.216.542H34.1c.112,0,.112-.216.325-.216,0-.221,0-.437-.213-.545" transform="translate(-804.486 -17226.945)" fill="#00593f"/><path d="M35.306,58.321c-.217.216-.1.437-.1.654a.378.378,0,0,0,.323.112c.318,0,.318-.329.318-.55-.109-.216-.318-.216-.537-.216" transform="translate(-803.078 -17226.826)" fill="#00593f"/><path d="M32.846,58.082c-.219.217-.113.434-.113.655,0,.107.113.107.213.107a.415.415,0,0,0,.332-.107c0-.327,0-.769-.432-.655" transform="translate(-805.493 -17227.064)" fill="#00593f"/><path d="M36.689,64.629c-.107,0-.217,0-.217-.108-.539.438.11.982.316,1.419h.431a2.067,2.067,0,0,0-.53-1.09Z" transform="translate(-801.897 -17220.314)" fill="#00593f"/><path d="M29.77,57.844h-.211c-.22.1-.22.33-.22.548.108.105.112.267.32.213.435-.107.111-.324.319-.431-.208,0,0-.33-.208-.33" transform="translate(-808.709 -17227.285)" fill="#00593f"/><path d="M30.619,57.842a.533.533,0,0,0,.1.761.42.42,0,0,0,.329-.107c0-.324,0-.766-.432-.654" transform="translate(-807.622 -17227.297)" fill="#00593f"/><path d="M90,0a90,90,0,1,0,90,90A90,90,0,0,0,90,0M86.924,169.268l.235.229H86.7Zm-.442.229v-.473l.217.244Zm.913,0c.229,0,.463,0,.463.227.2-.063.5.121.686-.227,0-1.4-2.063-1.4-2.759-2.327-.459,0-.235.682-.7.682l.465.463c0,.239-.225.239-.465.239l-2.047-2.1c-.684-.923-.925-2.084-1.609-3.015,0-1.4-.673-2.792-.673-4.43.442-1.386.442-2.8.913-4.2l.444-.459c-.235-.221.454-.465.24-.7a1.286,1.286,0,0,0,.684-1.154,39.351,39.351,0,0,1,3.443-3.279h.442a1.117,1.117,0,0,1,1.621-.223c0,.688.442,1.156,0,1.869a13.515,13.515,0,0,0-3.893,3.488v.459c-.7.712-.7,1.636-1.165,2.34,0,.231,0,.477.231.477-.678.463.233,1.386-.448,1.852l.217.229-.217.233c.217.461.217,1.169.9,1.169,0-.237.235-.237.487-.237a.8.8,0,0,0-.252-.692l.252-.24a6.471,6.471,0,0,1,1.593-5.351c.237,0,.237.221.237.459-.7.473-.463,1.4-1.155,2.1-.456,1.863,0,3.5.459,5.349.233.233.233.7.7.944a.871.871,0,0,1-.237.7c-.694-.477-.694-1.648-1.374-2.1H84.4l-.45.456c.7,1.171,1.136,2.569,2.068,3.508.227,0,.463-.471.905-.229,0-.242.235-.71-.225-.952,0-.221.225-.221.459-.221.465.931,1.6.931,2.3,1.629a3.039,3.039,0,0,1,1.363.463c1.846-.239,3.922.479,5.277-.919h.469c2.52-2.108,4.112-5.6,2.978-8.871v-.25l-.227-.211a.538.538,0,0,1,.031-.229l-.262-.233c0-.229.231-.229.231-.463l.227.235v.229c0,.233.235.233.235.461l.227.219h.673a.862.862,0,0,0-.217-1.384V154.8c-.225-.459-.682-1.161-1.374-.925-.241,0-.241.244-.241.465,0,.239.241.459.241.7v.473l-.241-.24c-.454-.471-.678-.931-1.144-1.4l.24-.237c.334,0,.63-.119.888-.022a2.937,2.937,0,0,1,.016-.9c-.678-.944-1.824-1.179-2.516-2.094a.853.853,0,0,0-.233-.708l.233-.242-.233-.221c1.152-1.635,2.989.688,4.139,1.4-.458.233-.458.684-.692.919a21.408,21.408,0,0,1,2.055,2.808c0,.459,0,.933.465,1.167a16.667,16.667,0,0,1,0,6.743,6.6,6.6,0,0,0-.905,1.875c-2.072,3.484-6.207,5.819-10.338,4.9-.237,0-.442,0-.442.229-.252.69.205.921.673,1.161-1.138.463-2.5-.24-3.425-.7-.229,0-.229-.233-.465-.233Zm-1.376-.721h-.233v.248l-.235-.248h.235v-.221Zm-6.424-49.166a3.193,3.193,0,0,0,.461,3.5v.467c.7.7,1.144,1.636,1.824,2.334a2.547,2.547,0,0,0,.927,2.094c0,1.167.233,2.8-1.376,2.8l-.459.473c-2.065,0-4.135.913-6.19.239a13.024,13.024,0,0,1-4.133-2.573c-.9-.233-2.065-1.171-3.208-.471-.227,0-.454,0-.454-.231l-.239.231c-.911-.467-1.588.239-2.508,0a13.581,13.581,0,0,1-3.912-2.325c-1.607-2.327-2.968-4.89-4.807-7.226-.229,0-.684.231-.905-.231l-.239.231a3.505,3.505,0,0,0,.915,2.1v.461c0,.465.688,0,.688.465a16.47,16.47,0,0,0,4.825,7c0,.229,0,.461-.244.461a2.4,2.4,0,0,1-2.518,0c-2.287-2.078-3.206-5.355-5.046-7.924-.444.242-.444-.461-.676-.708-2.516-1.167-5.281-2.315-7.8-3.5-1.611-1.157-.919-2.792.7-3.482h.665c2.764-1.4,5.726-1.621,8.733-2.338l.221.241a.8.8,0,0,0,.684-.241c1.84.241,3.666-.469,5.5.241a45.411,45.411,0,0,1,9.875,1.863,29.073,29.073,0,0,1,7.306,4.425c.919,0,.919-.935.919-1.644-1.83-3.248-3.656-7.439-7.107-9.064l-.44-.483c-.929,0-1.384-.692-2.305-.692-.223,0-.223-.231-.223-.469a1.687,1.687,0,0,1-1.138-.458l-.237.233c0-.461-.688,0-.688-.461a74.961,74.961,0,0,0-9.859-2.112c-.682-.461-1.607,0-2.512-.235-.708-.463-1.367-.692-1.619-1.4v-.469l-.444-.459v-.463c-.473-.471-.694-.931-1.4-.69-.207,1.844-.446,3.478-2.047,4.426h-.456c0,.217,0,.459-.217.459h-.454l-.473.463c-1.163,0-2.076,1.161-2.981,1.631h-.467c-.671.692-1.82,1.4-2.289,2.329a41.217,41.217,0,0,0-.682,4.886,31.07,31.07,0,0,1,.463,6.532c-.223.7-.463,1.633-.688,2.329a2.4,2.4,0,0,1-2.063,1.173c-.475-.7-1.38-1.173-1.605-2.092-.239,0-.469,0-.469-.239a9.871,9.871,0,0,1-1.376-5.6,9.715,9.715,0,0,1-2.293-4.884c.448-1.179.448-2.332,1.144-3.257v-.95a79.848,79.848,0,0,1,5.06-7.2c.215.459.69.69.909.921.457,0,.919,0,1.159-.461,0-.459.223-.942-.24-1.4-.461,0-.919.223-1.138-.225a18.424,18.424,0,0,0,2.745-3.032h.221a24.379,24.379,0,0,1,2.516-2.11c1.384-.239,2.549.237,3.906.237.919.469,1.152,1.4,1.816,1.873.459.221.71-.469,1.171-.244,1.588-1.388,3.435-2.327,5.04-3.5.467,0,.917-.469,1.361-.235.927-.688,2.3-.454,3.22-1.156a32.092,32.092,0,0,1,9.4.921,2.764,2.764,0,0,0,2.983-.219h.457c1.144-1.644,2.968-.7,4.342,0,.252,0,.252.219.252.454a10.925,10.925,0,0,1,3.895,1.173,41.523,41.523,0,0,1,4.354,4.661h.459a5.156,5.156,0,0,0,1.828,1.173c2.3,1.857,3.441,4.419,5.267,6.751.68.469,1.15,1.4,2.068,1.165v-.463l-.682-.7c-.469-.7-.706-1.635-1.386-2.106-.229-.933-1.126-1.865-.907-3.019.225-.459.678-.24,1.144-.24a3.582,3.582,0,0,0,2.057.7l.469.477c3.216,0,6.868,1.148,8.258,4.186a6.015,6.015,0,0,0,.2,2.794c1.386,1.169,1.169,2.806,1.642,4.419a4.36,4.36,0,0,1-2.786,2.567c-.2-.459-.9-.459-1.126-.925a5.313,5.313,0,0,1-1.84-1.169h-.45l-.684-.694a8.985,8.985,0,0,1-2.313-1.631c-.9,0-1.6-.938-2.516-.712a8.5,8.5,0,0,0-2.057-.925v.925c2.293,2.1,5.271,2.563,7.57,4.671h.45c.481.69,1.374.69,1.605,1.631h.457c.456.463,1.148.937,1.374,1.621h.471c.456.708,1.37.708,1.844,1.414h.448c-.448-.706-.24-1.414-.7-2.1.7-.7.911-1.636,1.836-2.108.456-.69.244-1.392.688-2.094a8.768,8.768,0,0,0-2.268-5.347l.207-.25c.448-2.323-.935-4.421-2.749-5.828h-.446a8.733,8.733,0,0,0-3.677-1.384c-.221,0-.221-.24-.221-.459.221-.241.221-.942.684-.719-.684-2.088-.244-4.426-1.607-6.051a4.9,4.9,0,0,0-1.613-3.036,7.949,7.949,0,0,1-2.763-1.382h-.68c0-.485-.682,0-.682-.485h-.684c0-.459-.7,0-.7-.459a2.539,2.539,0,0,1-1.824-.7c-.907,0-1.828-.7-2.739-.7l-.461-.463c-.225.219-.459-.475-.688-.233a1.271,1.271,0,0,0-1.15-.708c-.227,0-.227-.244-.227-.459h-.467a1.242,1.242,0,0,0-1.152-.706c-.682-.686-1.361-1.163-2.045-1.865A25.414,25.414,0,0,0,80.512,78.6V78.14l-.456-.467V77.2c.227-.45.7-.246.915-.246.7.716,2.068,1.183,2.516,2.106h.463a20.289,20.289,0,0,0,5.73,4.2l.231-.233c.213.473.671.473.907.706,2.076,0,3.677.925,5.746.694.907-.479,2.28,0,2.978-.927v-.473c0-.469-.7,0-.7-.469a21.919,21.919,0,0,1-5.492.469c-2.3-.686-5.025-1.636-6.653-3.727,0-.239.225-.239.459-.239,2.053,1.636,4.809,1.636,7.113,2.329,1.388,0,2.749.237,3.894-.692,0-.246,0-.461.225-.461.231-.471-.225-.7-.225-.937-.919-.239-1.838-.467-2.506.239l-.244-.239-.237.239A.826.826,0,0,1,94.5,79.3c-1.832.937-4.119,0-5.951-.935.213-.473.667-.227,1.136-.227,4.131.923,8.26-1.386,11.236-4.2,1.374.237,3.214,1.4,4.34.237v-.461h-.667a6.99,6.99,0,0,0-2.068-.71c-.459-.469-1.144-.7-1.605-1.163.68-.933,1.855-1.617,2.516-2.567h.463c.694-.454.457-.919.457-1.619-.457-.246-.688.465-1.144.215-1.148.95-2.053,1.869-3.433,2.115a6.69,6.69,0,0,1-1.386-1.165,1.261,1.261,0,0,1-1.144-.7,4.625,4.625,0,0,1-1.832-.94,4.588,4.588,0,0,1-1.6-.45l-.248.209c-2.514-1.394-5.019,0-7.545.469a14.192,14.192,0,0,0-4.589,3.738c-.231,0-.459,0-.459-.239a6.656,6.656,0,0,1,1.384-3.728,7.535,7.535,0,0,0,2.3-.24,16.629,16.629,0,0,1,3.676-3.488c2.049-.467,3.881,0,5.943-.467l.469-.477c-.688-1.857-3.234-1.161-4.616-.454l-.213-.237a21.855,21.855,0,0,0-7.343,3.728c-1.138-.915,0-2.319.7-3.038,0-.454,0-.915-.463-1.161-1.607,1.161-3.431,2.567-3.9,4.665l.217.235c0,.485.252.935-.217,1.163.469.461,0,1.177.217,1.633-.442.7-.442,1.642-1.124,2.106v.461c-.706.7-1.378,1.627-2.074,2.331-2.52.237-4.811,1.4-7.341.237l-.223.221c-.225-.458-.921,0-1.148-.458l-.227.237-.471-.461c2.757-2.106,5.971-3.975,8.055-6.984a3.771,3.771,0,0,0-.246-1.644c-.919,0-1.6-.456-2.059.459v.465c0,.235-.248.235-.459.235v.485c-1.846,2.311-3.445,5.111-6.426,5.574l-.219-.231c-.45,0-.706.461-1.161.231-.225.461-.682.231-1.142.7-.225,0-.454,0-.454-.239-.913.7-1.6-.231-2.52,0a23.882,23.882,0,0,1-3.22-5.111l.24-.246a1.384,1.384,0,0,0-1.832-.229c-.237,2.094.907,4.428,2.055,6.055,0,.235,0,.479-.223.479-2.289,0-3.222-2.806-4.143-4.44a.855.855,0,0,1-.682-.233c-.471.475-1.138.7-.931,1.4.931,1.4,1.613,3.03,3,3.957-.244.467-.692.467-.9.708L53,74.865l-.235.24c-.682-.467-1.82-1.39-2.51-.467a44.11,44.11,0,0,1-3.441-3.275,1.2,1.2,0,0,1-1.14-.678,8.343,8.343,0,0,1-2.516-.7l-.244.239-.221-.239c-1.144-.246-2.293,1.161-3.22.239a13.645,13.645,0,0,1,1.152-6.067,19.147,19.147,0,0,0,2.068-2.34c-.684-1.167-.925-2.563-1.607-3.494,0-.473.24-.929-.225-1.159l.225-.242-.225-.221c.465-.7.225-1.4.688-2.1l-.223-.237a20.05,20.05,0,0,1,2.731-6.992c0-.233.244-.233.467-.233v-.463l.905-.942c.244-1.152,1.384-1.619,1.838-2.546a21.761,21.761,0,0,0,3.677-4.215c0-.454-.457-.927-.457-1.392-3.445.465-5.5,4.2-7.574,6.534a5.82,5.82,0,0,0-2.966,3.257l.219.231a104.8,104.8,0,0,0-1.6,11.9c-.456,0,0,.688-.456.688l.211.239c0,1.165-1.369.919-2.049,1.39l-.239-.225c-1.363.915-2.739-.942-2.981-2.092.448-3.963,1.386-7.93,1.619-11.9.461,0,0-.694.461-.694l-.248-.233c.694-1.165.925-2.561,1.605-3.967.7-.461.7-1.388,1.157-2.1a6.776,6.776,0,0,1,1.824-1.638h.475a12.868,12.868,0,0,1,2.745-2.086c.221-.461.913-.694.913-1.169a17.977,17.977,0,0,0,2.987-2.792c.45,0,.675-.475,1.138-.475l.456-.463c1.15,0,2.3-.465,3.228.463.2.475.909.714,1.142,1.169.444-.215.7.229.907.229a17.592,17.592,0,0,1,2.749,3.038c0,.229-.229.694.237.919.682.24.682,0,1.382,0a38.571,38.571,0,0,0,3.9-4.4,14,14,0,0,0,2.729-2.344c1.842-.7,3.681-.471,5.505-1.394a9.53,9.53,0,0,1,5.054,1.167,4.827,4.827,0,0,0,3.441-1.167l.227.237a16.187,16.187,0,0,1,8.243-.7c.471,0,.935.231,1.159-.248l.244.248c2.049-.471,4.1-.248,6.168-.944l.244.244a.76.76,0,0,1,.674-.244,9.446,9.446,0,0,0,2.526.7,6.561,6.561,0,0,0,2.293.946,4.092,4.092,0,0,0,4.575.459l.246.227c.9-.458,1.345-1.384,2.26-2.084,2.1-1.414,4.151-2.088,6.2-3.506h.7c2.97-1.644,7.1-2.327,10.084-.227,2.041,1.855,4.1,3.961,6.884,5.13a29.855,29.855,0,0,1,2.729,3.023c0,.923.917,1.408.694,2.338.456.454.223.929.688,1.384a11.748,11.748,0,0,0,2.065,5.6l5.5,5.592a3.116,3.116,0,0,0,.475,1.394c-.475.242-.248.714-.248,1.177a3.141,3.141,0,0,1-2.284,1.159c-1.155,1.155-2.987,1.155-3.9,2.565-.678.229-1.142.692-1.836.465-1.15.7-.9,1.863,0,2.794v.456a14.683,14.683,0,0,0,5.283,3.967c0,.237,0,.471-.244.471-1.37-.471-2.741-1.4-4.344-1.861v.463c1.142.927,1.844,2.094,3.222,2.561a12.292,12.292,0,0,1,2.274,2.559c0,.475,0,1.169-.676.929-1.846-.929-3.437-2.1-5.281-3.027-.233.475.461.718.461,1.173.674.459,1.142,1.4,2.057,1.644,2.074,1.855,4.372,3.709,4.594,6.739,0,.244-.223.244-.467.244-1.365-1.64-3.672-1.873-4.581-3.975-.221-.465-.688-.465-.929-.7-.432.233-.211.7-.211,1.183,0,.215.211.215.452.215.227.708.929,1.169,1.142,1.865,2.074,1.635,3.212,4.2,4.827,6.29,0,.239.217.706-.233.944-.467-.477-.925-.239-1.155-.706h-.452a1.263,1.263,0,0,0-1.155-.694,28.285,28.285,0,0,1-2.747-2.573c-.467.223-.227.7-.227,1.187,1.142,1.613,2.307,3.946,4.354,4.409.675.931,2.307,2.1,1.615,3.5a14.607,14.607,0,0,0-2.753-1.157c-.694-.71-1.374-1.636-2.074-2.338a.825.825,0,0,0-.675.229,10.168,10.168,0,0,0,1.374,2.8c1.132,1.159,2.512,1.857,3.427,3.257a1.282,1.282,0,0,0,.7,1.167v.469c0,.231-.233.231-.456.231a5.267,5.267,0,0,0-1.84-1.161c-1.152-.937-1.832-2.338-2.985-3.255a.82.82,0,0,1-.688-.242,23.235,23.235,0,0,0-.673-6.765c0-.221,0-.461.221-.461-.463-3.034-1.613-6.069-1.844-9.076-.463,0,0-.7-.463-.7a19.583,19.583,0,0,0-.9-5.148l.221-.219c-.452-.471-.221-.942-.452-1.4-.919-.24-.454.7-.919,1.163.229,1.173-.242,2.577.229,3.719a33.527,33.527,0,0,0,1.142,6.532.88.88,0,0,0-.221.7c.688.465.221,1.392.688,2.1l-.237.239c.45.686,0,1.613.7,2.329l-.246.221c.694.7-.213,1.873.463,2.559a.9.9,0,0,1-.217.71c.448,1.4,0,2.786.217,4.19-.217.465-.217.94-.463,1.177l.246.242c0,.219-.246.219-.459.219a11.534,11.534,0,0,1-1.372,3.506c-.708-1.179-.237-2.34-.927-3.506-.217,0-.452,0-.452.229-.242.716-.242,1.167-.463,1.867,0,.231,0,.465.221.465-.68,1.163,0,2.571-.221,3.74a43.3,43.3,0,0,1,.463,13.285l.235.219c-.235.25-.235.706-.7.936a10.911,10.911,0,0,1-3.212,5.124h-.473a21.1,21.1,0,0,1-1.363-3.034,7.19,7.19,0,0,1,.477-3.246c-.237-1.629.426-3.5.215-5.371-.452-.684-1.15-.239-1.376.463a30.048,30.048,0,0,0-.911,9.086c.663,1.165.457,2.563.457,3.732a11.641,11.641,0,0,1-.931,2.565c-.917.935-1.84,2.1-2.753,3.04-.456-.242-.688.458-1.124.239-.925,1.394-3,2.1-3.683,3.721,0,.231-.225.231-.469.231a17.571,17.571,0,0,1-2.272,4.663l-1.4,1.4c-.211-.237-.461.461-.674.225-1.38,1.173-3.216,1.623-5.044,2.321l-.457.485c-1.836.461-3.439.223-5.267.69-1.15-.229-2.534.237-3.67-.229-.237,0-.469,0-.469.229l-.237-.229-.2.229c-1.607-.69-3.691.237-5.283-.935l-.252.244a1.2,1.2,0,0,0-1.138-.708,17.353,17.353,0,0,1-2.063-1.861c-1.6-2.332-2.759-5.126-4.569-7.455-.684-.923-.925-2.092-1.6-3.021-.246-.239-.919-.239-.7-.723Zm-32.556,9.567a12.543,12.543,0,0,1-2.518-2.327.88.88,0,0,1,.217-.7,19.363,19.363,0,0,1,3.238,2.8c0,.229,0,.461-.248.461a.835.835,0,0,0-.688-.233m.688,2.106a2.112,2.112,0,0,1-2.989-1.171v-.471l.244.244a3.925,3.925,0,0,1,2.745,1.4m-2.745-8.4c0-.237,0-.456.235-.456.209,0,.209.219.209.456Zm2.745,3.5-.225-.231-.463-.469-1.157-1.167c0-.231.244-.231.457-.231.471.467,1.163.694,1.388,1.4,0,.233,0,.469-.225.469h.473l-.248.231h.456l-.207.223Zm-2.057-2.329c0-.229,0-.473.211-.473.244,0,.244.244.244.473Zm1.832-.94h.473l-.248.241Zm.473.712c0-.244.207-.244.207-.471l.246.227c0,.244,0,.473-.246.473Zm1.126,6.059c.231-.708-.6-1.638.231-1.638.235,0,.235-.237.471-.237.448.237.448.938.448,1.4a1.753,1.753,0,0,0-.448,1.163c-.471.237-.7.71-.925.948-.45-.239,0-.712-.45-.948-.246-.461.45-.225.673-.688m-6.868-2.108L42,127.545l-.24-.215-.219-.246H42l-.24.246h.469l-.229.215h.456a2.361,2.361,0,0,1,.923,1.169l-.229.233a.5.5,0,0,1-.465-.233c-.229-.239-.229-.469-.456-.706a1.4,1.4,0,0,1,.014-.239Zm.921-16.316a2.048,2.048,0,0,1,.448-1.636c1.136.246,1.615,1.4,2.28,2.354-.211.217-.665.217-1.144.448-.684-.231-1.355-.448-1.584-1.165m2.727-3.255a3.8,3.8,0,0,1,.929-1.627c1.165-.248,1.836.925,2.291,1.627v.467c.465.233.465.686.7.929v.469c-.471.239-.471.686-.7.921-.456,0-.673.469-1.126.469l-.473-.469c-1.376,0-1.163-1.39-1.621-2.319l.244-.239Zm7.8.229a.867.867,0,0,1-.223.7l.223.227-.434.465c-.487.485-.7.485-.929.485l-.712-.708a1.252,1.252,0,0,0-.667-1.167l.207-.229a1.951,1.951,0,0,1,.262-2.794c1.351-.233,1.838,1.386,2.272,2.555l-.223.239Zm2.3.471c-.225-.471-.225-.938-.459-1.171,0-.231,0-.454.235-.454a1.8,1.8,0,0,1,.909-2.571c.7.241.925.927,1.378,1.621.235,1.173.678,2.8-.454,3.74l-.229-.246-.233.246c-.223,0-.463-.246-.682-.469v-.469c-.237,0-.465,0-.465-.227m4.825-3.031a1.818,1.818,0,0,1,2.053.923v.483a1.861,1.861,0,0,1,.459,2.544c-1.591.933-2.512-.919-2.989-2.09l.233-.231c-.233-.706-.233-1.173.244-1.629m4.8,1.406a9.044,9.044,0,0,1,1.609.925c.461.7.227,1.4.7,2.1-.237.682-.7.682-1.4.913l-.219-.231c-.459-1.167-1.842-2.557-.692-3.711m3.668,1.625a.865.865,0,0,1,.688-.233c1.153.686,2.057,1.636,1.846,3.029-.692.477-.465-.241-.907,0a18.875,18.875,0,0,1-1.627-2.8M40.62,86.991c1.384-1.394,2.534-2.8,3.677-4.2-.244-.7.44-1.163.684-1.629V80.7a4.7,4.7,0,0,1,1.357-.933,29.228,29.228,0,0,1,9.64-3.736c0-.463.684,0,.684-.463a32.138,32.138,0,0,1,6.653-.223A79.82,79.82,0,0,0,73.4,76.754c1.165.45,2.063.919,3.216,1.386a10,10,0,0,0,2.285,2.1c.469.694,1.376.925,1.605,1.855.459.465,1.159.7,1.6,1.167,0,.24,0,.473.24.473,1.363.459,2.516,1.4,3.891,1.863a18.1,18.1,0,0,0,3.21,2.559c2.512-.221,4.815,1.161,7.326,1.867.919.692,1.84,1.871,1.609,3.029.454,0,0,.706.454.706l-.223.221c.463,1.167,1.838,2.565.694,3.979a5.116,5.116,0,0,1-3.656.225,6.873,6.873,0,0,0-3.691-.7,22.541,22.541,0,0,0-2.512-1.4,42.118,42.118,0,0,0-3.21-3.267v-.461a2.375,2.375,0,0,0-.919-1.169c.225-.235-.456-.469-.24-.688a1.341,1.341,0,0,1-.686-1.179c-.45-.465-.913-.7-.913-1.382-.217-.24-.919-.24-.68-.716-2.524-1.4-5.513-.927-8.026-2.086a16.38,16.38,0,0,1-2.764-2.792h-.9c0,.217,0,.45-.215.45.215.237.215.71.442,1.157.237.479.925.479,1.146,1.185.706.684,1.838.917,2.528,1.638a12.253,12.253,0,0,1,6.417,2.08c-.673.465-1.591,0-2.524.235,0-.469-.7,0-.7-.469a1.908,1.908,0,0,1-1.584-.461c-.229,0-.465,0-.465.231l-.231-.231a4.659,4.659,0,0,0-1.832.931c-.688,0-.9.465-1.607.465-.469-.235-.221-.7-.221-.935-1.842-1.846-2.993-4.19-5.052-6.059h-.465A44.471,44.471,0,0,0,62.4,79.54a7.567,7.567,0,0,1-3.218-.477c-2.741.477-5.726.477-8.483,1.39l-.219-.215a12.988,12.988,0,0,0-3.895,2.321c0,.7-.708.942-.708,1.635-2.063,1.857-4.559,5.124-2.727,7.93l-2.072,2.082c-1.613.94-2.763,2.812-4.362,3.752-.45,0,0-.714-.45-.714.217-3.951,2.524-6.982,4.35-10.253m0-13.985c.461-.239.925-.931,1.613-.7.921,1.165.227,2.559-.469,3.725L40.62,77.2c-.913-1.173-.457-2.806,0-4.2m5.505,1.633c0-.24.213-.24.463-.24a2.481,2.481,0,0,1,.913,1.169v.463c-.239.235-.239.473-.692.473h-.471a5.611,5.611,0,0,1-.213-1.865m6.194,10.02c-.24.475-.24.938-.461,1.159a54.762,54.762,0,0,1-.71,5.832c-.207-.465-.9-.225-1.134-.7a9.31,9.31,0,0,0,1.134-5.132l-.665-1.39c-.469,0-1.152.231-1.605-.235,1.372-1.4,3.441-.692,5.028-1.4.469-.45,1.165,0,1.613-.45.235.45.688.217.925.217.915-.465,2.063,0,2.991-.217,0,.45.667,0,.667.45-.219.469-.667.469-.917.71a6.926,6.926,0,0,0-5.938,2.317C52.761,85.6,53,85.133,53,84.658Zm8.008.938c.233-.244.276-.614.7-.463a1.3,1.3,0,0,1,.917,1.638c-.676.448-1.613,1.384-2.5.678a4.7,4.7,0,0,0,.891-1.854M48.879,89.318c0,.235,0,.477-.233.477-.919.229-1.382-.708-.671-1.408.207,0,.278.066.454.231.217.235.217.469.45.7M86.246,70.44c.454-.215.454-.215.678-.7.471,0,.935-.465,1.4-.223a2.2,2.2,0,0,1,.659,1.631c-.442,0,0,.694-.442.694a5.769,5.769,0,0,1-.921,2.555c-.465.467-.925,0-1.378-.221v-.461c-1.374-.71-.459-2.106,0-3.275m9.414,4.2a9.242,9.242,0,0,0,.669-4.2c0-.215.237-.215.454-.215.69.684,1.84,1.138,2.3,2.08a9.434,9.434,0,0,1-3.226,2.8.3.3,0,0,1-.2-.467M144.7,66.487l-.235.244c.694,2.09.235,4.178.907,6.274v4.426c.719,1.163-.213,2.571.475,3.73,0,1.865-.475,3.971,0,5.828-.688.7.244,1.627-.475,2.327l.25.235-.25.242.25.229c-.694.927.225,2.331-.463,3.269l.213.229c-.673,1.4,0,3.023-.673,4.436a.848.848,0,0,0,.229.684,13.762,13.762,0,0,0-.913,4.432,69.8,69.8,0,0,0-2.072,7.234c-.458.229-.458.682-.688.913a7.317,7.317,0,0,1-1.365,3.044c.213,1.155-.909,1.635-1.157,2.788,0,.227-.217.227-.461.227v.481c0,.227-.219.227-.456.227-.213.473-.213.937-.454,1.167-.688.454-.929,1.4-1.6,1.867.242.239-.461.461-.246.7a19.15,19.15,0,0,1-2.956,3.251c-1.153,1.627-2.757,3.03-3.91,4.661a1.156,1.156,0,0,1-.915.471,35.556,35.556,0,0,1-9.842,7.684l-.7.71h-.457c-.673.937-1.836,1.159-2.753,1.863-1.6.467-2.979,1.64-4.825,2.1a8.032,8.032,0,0,1-3.2,1.4c0,.456-.7,0-.7.456-.9,0-1.591.706-2.485.706-.481-.469-.931-.919-.25-1.4h.444c.244-.225.7-.225.931-.694,1.832-.235,3.214-1.392,5.052-1.865.209-.448.674-.448.919-.694h.444a4.62,4.62,0,0,1,1.83-.927,83.123,83.123,0,0,0,20.421-16.328c3.666-4.651,7.333-9.793,8.7-15.61.448,0,0-.706.448-.706.708-2.088.94-4.194,1.632-6.274,0-.244,0-.477-.248-.477.475-.7.248-1.64.7-2.334,0-.225,0-.467-.223-.467,2.061-12.816.688-26.1-1.859-38.685.485-.473.94-.937,1.384-.235a16.165,16.165,0,0,0,.7,3.023c0,.246,0,.471-.223.471.9,1.41.223,3.269,1.138,4.669m.229-4.2a5.257,5.257,0,0,1,1.374-1.155h.465a.516.516,0,0,1,.911-.483l.233-.223c.688.706,1.613-.239,2.287.463-.225,0-.225.242-.225.456h.469a5.469,5.469,0,0,1,4.111,1.638c0,.242.225.694-.227.929l-.223-.235a.841.841,0,0,0-.7.235.929.929,0,0,0,.219.718l-.219.207c-.456.248-.456-.45-.68-.68-1.144-.706-2.993-1.173-4.123-.244h-.457a9.44,9.44,0,0,0-1.615,2.332,4.739,4.739,0,0,0,2.3,4.663,4.512,4.512,0,0,0,3.445-.225c.225,0,.456,0,.456.225l-.456.454a3.268,3.268,0,0,0-1.376.479v.463a5.7,5.7,0,0,0,3.664-1.865v-.454c.461-.246.461-.712.686-.944.692,1.4.471,3.263.919,4.673l-.227.225c.227,1.627.923,3.492.227,5.123-.448-.7-.692-1.39-1.605-1.39a1.2,1.2,0,0,1-.45.923,4.433,4.433,0,0,0-5.046-.229,4.818,4.818,0,0,0-1.148,4.894,7.036,7.036,0,0,0,2.532,2.092H152.5l1.376-.694c.459-.231.237-.925.911-.925a3.541,3.541,0,0,0,0-3.967c0-.227,0-.465.237-.465.452.239.452.937.917,1.4l-.221.233c.913,1.41-.471,2.569-.933,3.727a7.075,7.075,0,0,1-2.968,1.392v.479c2.057.69,3.9-1.177,4.575-3.029.7.448-.227,1.4.469,1.852l-.231.244a.877.877,0,0,0,.231.7c-.469,3.5,0,6.759-.7,10.251l-.227-.227c-.221,0-.692-.235-.917.227-.911-1.159-1.394-2.565-2.749-3.023a5.039,5.039,0,0,0-4.125.935,4,4,0,0,0,5.48,5.822c.246,0,.246.244.246.459-1.376.933-2.753,1.638-4.344.933a.856.856,0,0,0-.24.706c2.528.935,5.044-.465,6.428-2.792l.221.231c-.465,2.1-.221,4.2-1.153,6.29l.237.225c-.688,1.636-.688,3.74-1.613,5.13v.935c-.68.7-.456,1.635-1.136,2.325v.7c-.456.239-.456.7-.688.923-.231-.444-.688-.684-1.136-.221l-.244-.223c0-.241,0-.479.244-.479a8.03,8.03,0,0,0-1.621-3.027h-.463c-.217,0-.217-.217-.217-.473-1.136-.461-2.051,0-3.214,0a1.239,1.239,0,0,1-1.144.7,4.135,4.135,0,0,0,.465,6.3c1.122.684,2.518.231,3.662.684l-.233-.237.233-.217a1.863,1.863,0,0,1,.244.012l.444-.473c.223,0,.223.231.223.461-.223,0-.223.217-.463.217-.217,0-.217.237-.448.237-.905.723-1.82,0-2.753.242-.459-.242-.909-.242-1.144-.7a2.485,2.485,0,0,0-2.53,0c-.457,0,0-.694-.457-.694-.225,0-.45,0-.45.233-.231-.706-.688-.706-1.169-.933,1.846-2.34,2.534-5.367,3.926-7.938v-.692c.45,0,0-.7.45-.7a13.007,13.007,0,0,1,1.144-4.2l1.374-9.092-.211-.221c.676-1.633,0-3.275.676-4.9.239-5.123-.24-10.02-.24-15.158-.68-.467.24-1.394-.436-1.859l.211-.239c-.456-3.249-.68-6.755-1.374-10.012l.231-.246Zm4.356-4.667c0-.227.24-.227.446-.227l1.619,1.615-.233.244a.792.792,0,0,1-.673.246,3.259,3.259,0,0,1-1.159-1.879m1.369,11.42v1.183a2.783,2.783,0,0,1-3.191-1.638c0-.716-.694-1.177,0-1.855l-.252-.244c.7-1.648,2.52-2.808,4.139-2.1.231,0,.231.242.231.45a3.326,3.326,0,0,0-.927,4.2m.7-2.1c.463.469,1.374.469,1.832,1.181v.465a2.276,2.276,0,0,0-.913,1.154c-.233,0-.233-.223-.233-.465-.686-.454-.456-1.4-1.144-2.094,0-.24.225-.24.458-.24m6.876,3.285-.223.215a94.982,94.982,0,0,1,.905,24.24c0,.465-.231.937.229,1.167-.667.469.254,1.4-.459,1.863l.231.246c-.438.225,0,.684-.438.927.207.931-.244,2.084,0,3.027-.721,3.267-1.165,6.761-2.309,9.79v.694c-.227.925-.919,1.871-.919,2.8a67.272,67.272,0,0,1-4.589,9.324c-1.128,1.167-1.593,2.569-2.741,3.73v.469c-7.809,10.01-17.65,18.175-29.342,23.061l-.485.467a9.006,9.006,0,0,0-2.5.923c-.444-.217-.925-.217-1.153-.676a4.053,4.053,0,0,1,2.057-1.4,3.488,3.488,0,0,1,2.08-.946c1.832-1.39,4.581-1.625,5.938-3.486h.475l.458-.473h.477a86.532,86.532,0,0,1,7.785-5.349c1.81-1.64,3.66-3.488,5.494-4.9,1.152-1.4,2.506-2.559,3.891-3.967,1.163-1.623,2.285-3.023,3.441-4.425a21.788,21.788,0,0,1,3.2-4.659c0-.456.714-.937.469-1.4,1.38-1.152,1.613-2.79,2.524-4.2V116.6c.458-.252.458-.7.68-.937.219-1.394,1.152-2.8,1.152-4.2.461,0,0-.7.461-.7.225-2.084,1.144-4.178,1.144-6.282.465,0,0-.706.465-.706a141.494,141.494,0,0,0-1.846-44.988l.461-.456h.471c.448.235.448.686.674.931a43.184,43.184,0,0,0,1.361,7.232l-.211.244c.465,1.14.211,2.311.688,3.494m.244-7a5.229,5.229,0,0,1,6.168-1.41c2.07,3.269,2.3,7.457,3.445,11.187.463,3.259.931,6.761,1.374,10.022-.227.921.225,1.873-.227,2.79a19.612,19.612,0,0,1-3.21-3.027c-.231-.7-1.15-1.163-.927-1.859l-.456-.479V80l-.444-.463v-.477c-.242-.229-.242-.7-.7-.923-.456-.246-.456.456-.676.694a.911.911,0,0,0,.221.706c0,.227,0,.463-.221.463a1.981,1.981,0,0,1,.452,1.625c.469.465.469,1.163.682,1.633l3.451,4.19a4.553,4.553,0,0,1,2.055,2.1c-.227.71.225,1.4-.227,1.873-.915-.929-1.613-1.873-2.522-2.808h-.688v1.406c1.382,1.627,2.3,3.5,3.437,5.122-.444,1.171,0,2.565-.68,3.738a7.39,7.39,0,0,1-1.374-3.738c-.463,0,0-.69-.463-.69a2.731,2.731,0,0,0-.688-1.879v-.682c-.461-.71-.231-1.633-.913-2.1.229-1.177-.467-1.859-.467-3.023-.233-.242-.233-.721-.676-.954v-.465c-1.155-1.159-1.155-2.794-2.068-4.19v-.71a6.172,6.172,0,0,0-.913-1.619,19.5,19.5,0,0,0-.931-3.49.833.833,0,0,1,.244-.706,15.685,15.685,0,0,1,2.512,3.034h.456c.457-.716,0-1.408.244-2.106-.469-.461-.469-1.169-.7-1.627-1.382-1.635-2.289-3.5-3.9-4.665,0-.454-.459-.688-.667-1.154.207-1.181-.244-2.575-.244-3.732.452-.231.244-.71.244-1.161m8.7,46.372c-.233,0-.233.223-.463.223-.919-1.39-.919-3.027-1.615-4.413,0-.432-.166-.829.119-1.251-.575-1.085-.575-2.248-1.261-3.422,0-.215-.213-.692.242-.923.676.708.444,1.631,1.144,2.325,0,.463-.244.935.229,1.171.137.458-.01.635-.2.743,1.107,1.394,1.128,2.993,2.039,4.38,0,.471-.463.7-.231,1.167M113.29,144.789c.229-.235.692-.235.933-.684,4.352-1.871,8.01-4.665,11.914-7.473h.456c.921.921,2.059,2.092,1.814,3.49a6.8,6.8,0,0,0-1.814,1.64h-.456c-.215.244-.315.168-.452.471-.24.458-.925.458-1.173.925h-.452c-.448.946-1.386.946-2.057,1.631h-.467c0,.235,0,.463-.213.463-2.08.931-3.908,1.865-5.732,2.808-.925.221-1.153-.942-1.832-1.4.223-.7-.469-1.167-.469-1.867m26.124-16.781c0,.237,0,.467-.213.467h-1.144c0,.239-.237.471-.45.7,0-.229-.24-.229-.461-.229a.828.828,0,0,1-.24.692c-.227,0-.467,0-.467-.231a9.336,9.336,0,0,0-2.272.938l-.246-.237a3.666,3.666,0,0,1,2.086-3.506,3.382,3.382,0,0,1,3.408,1.4m-2.735-4.428c0-.227,0-.467.227-.467s.24.241.24.467Zm.929-.694-.24-.237v.463l-.221-.227.221-.237.24-.219Zm.213.938v.459l-.213-.231Zm7.807,0v.459l-.25-.231Zm-.25-2.1c0-.242.25-.242.475-.242a.858.858,0,0,1-.225.7c-.25,0-.25-.231-.25-.454m.475,3.955v-.229l.68-.7.24.227a.839.839,0,0,1-.24.7c-.225,0-.436,0-.436.233s-.244.467-.469.69c-.25,0-.25-.223-.25-.454Zm-.919-.931.231-.237.213.237Zm.231-1.865-.231-.237.231-.219Zm-1.824.938c-.475.229-.332.334-.692.69l-.456.463c-.244,0-.244-.227-.244-.463.467-.461.7-1.161,1.392-1.629a5.535,5.535,0,0,1,1.365-2.11c.229,0,.229.246.229.485a9.36,9.36,0,0,0-1.593,2.563m1.365,1.392.229.237h-.463Zm-.45-1.392h.215v-.244l.235.244h-.235v.229Zm-.465,1.154-.45.475c-.158,0-.211-.1-.217-.225l-.031-.25a.183.183,0,0,1,.076-.154.179.179,0,0,1,.172-.072h.227c.119.023.223.08.223.227m-.7.937-.227.237-.217.231-.233-.231.233-.237.217-.233v.233Zm-.227-3.965c-.217,0-.45.231-.45-.223.45-.242.45-.95.925-1.175.227,0,.227.225.227.471-.227.239-.227.7-.7.927m-.673-1.4c-.244,0-.244-.219-.244-.458l.467-.485c.233,0,.233.242.233.485Zm0,1.629c.223,0,.223.25.223.469l-.467.463v.241l-.458.471v.229c-.231,0-.231.231-.457.231v.231l-.68.7h-.457l.213-.239v-.227l.7-.7.452-.473v-.227l.448-.467v-.237Zm-.244,2.571v.465c0,.237-.24.237-.24.465l-.217-.229v.461l-.231-.233v.469l-.227-.237.227-.233.231-.229c0-.237,0-.475.217-.475Zm0-3.979v.25h-.458c.217,0,.217.239.217.461a6.892,6.892,0,0,1-1.6,2.1c-.213,0-.456.244-.456-.227.7-.7,1.155-1.627,1.838-2.331,0-.246,0-.471.217-.471l.24-.219Zm-2.053,9.111c0,.227-.242.227-.242.463-.238-.237-.667-.237-.915-.708.248-.463.676-.231.915-.231s.242.231.242.475m0-8.622c0-.239,0-.485.213-.485.244,0,.244.246.244.485Zm.457-.7.231.211a.222.222,0,0,1-.231-.211m0-.061v-.172l.456-.481a1.346,1.346,0,0,0-.456.653m0-1.58-.244-.231.244-.233Zm0,.231h-.457v.454l-.242-.237.242-.217.213-.231Zm-.457,2.794-.481.481h-.428l.215-.25v-.231l.452-.465c0,.242.242.242.242.465m-.694,2.334v.467l-.215-.237Zm-.463-3.261v.239l-.217-.239h.217v-.246l.248.246Zm0,2.09c0,.241-.217.467-.461.712-.219,0-.219-.244-.219-.471l.463-.467Zm-2.731,7.7c0,.473-.135.937-.489.937-.215,0-.215.225-.448.225l-.456-.45.9-.948c.246,0,.489,0,.489.237m11.005-6.524v-.231h.456c-.045-.127-.109-.229-.252-.229l.252-.244v.528a.559.559,0,0,1-.131.176h.131c-.045.129-.109.231-.252.231s-.192-.084-.2-.207v-.014l.2.221c0-.109.072-.166.121-.231Zm.673-3.023h-.469l.252-.239.217-.246Zm.233,1.625c0-.237,0-.456.231-.456,0,.219.217.219.217.456l-.217.227-.231-.227v.467l-.233-.241Zm.448-.937.24-.223v.454Zm.24-.465.223-.223v.465Zm-.24-6.294c.463.231.925-.231,1.165.231.205.479,0,.7-.24,1.175,0,.217-.225.217-.461.217-.68-.69-1.613-.69-2.055-1.392.442-.461,1.144,0,1.591-.231m-1.832.231-.225-.231a1.151,1.151,0,0,1-.456.933c-.225.69,0,1.638-.688,2.108-1.144,0-1.374-1.177-1.824-2.108a4,4,0,0,1,2.512-3.728,2.74,2.74,0,0,1,2.976,1.4,7.666,7.666,0,0,1-2.055.921.835.835,0,0,1-.24.7m2.532,3.04.225-.231.24-.242.205.242h-.446v.463l-.225-.233v.463l-.237-.231Zm.915.694c.225,0,.469,0,.469.217l-.469.479-.244-.242c0-.237,0-.454.244-.454m-.244-1.637c0-.238,0-.465.244-.465l.225.227c0,.238-.225.238-.225.481Zm-.205,2.575v.458l-.24-.219Zm-.24.458v.471l-.225-.246Zm1.159-2.09h.448l-.238.233ZM152.04,80c0,.235,0,.45-.223.45,0,.479-.233.938.223,1.175-.223.931.913,1.873.233,2.8-.456,0-.919-.235-1.152.231-.225-.465-.673-.231-1.142-.231A3.365,3.365,0,0,1,148.827,80c.461-.463.7-1.169,1.376-1.408.692,0,1.836-.7,2.293.239l-.68.706c0,.227,0,.463.223.463m.233.235c0-.235,0-.471.225-.471.456.237.688-.465,1.13-.227.246.227.246.7.706.913a.887.887,0,0,1-.223.71c0-.231-.237-.231-.483-.231-.442-.233-.9-.233-1.355-.694m-1.152,18.646c0,.241.233.7-.225.931l.225.231c-.463.692-1.142-.231-1.832,0a3.5,3.5,0,0,1-1.372-3.5,3.847,3.847,0,0,1,2.287-2.338,9.962,9.962,0,0,1,.692,2.338h.458c.463-.7,0-1.4.231-2.088,0-.25.233-.25.456-.25a4.842,4.842,0,0,1,1.834,1.877c0,.7.459,1.4-.246,1.875-.674-.471-1.355-.471-2.043-.94-.688.469-.463,1.165-.463,1.867M103.21,162.726a.9.9,0,0,1,.223.712c-.223.463-.223.931-.661,1.161l-.25-.231a3.4,3.4,0,0,1,.688-1.642m-.244-7.211.244-.24v.475Zm.244,6.978.223-.221v.454Zm0-6.053h.456l-.233.219Zm.686.935c0,.246-.231.246-.231.461l-.233-.215a.9.9,0,0,1,.233-.719c.231,0,.231.242.231.473m0,4.426-.231.237-.233-.237Zm-.231-1.627h.465l-.235.221Zm.688-12.114c.7-.24,1.148-.24,1.605.221,0,1.173.7,1.861.7,3.038,0,.221-.254.221-.456.221a.873.873,0,0,1-1.39-.221,7.9,7.9,0,0,0-.678-2.11c0-.457-.235-.929.223-1.15m29.117-40.094c0-.233.237-.233.45-.233,0,.233.246.7-.213.938.459.459,0,1.152.213,1.636,0,.448.246,1.152-.213,1.613a3.941,3.941,0,0,1,0-3.249.861.861,0,0,1-.237-.706m2.047-14.208a21.949,21.949,0,0,0,2.3,4.425c.237.7.917,1.4.237,2.1l-.911-.935c-.919-1.857-1.629-3.727-2.98-5.138.9-.684.671-1.629,1.136-2.555.461.7,0,1.4.215,2.108m2.3-6.307v.485a5.766,5.766,0,0,1,2.287,3.015c.244,0,.475,0,.475.235v.465c.676.473.676,1.165,1.124,1.642,0,.229,0,.465-.217.465-1.382-1.635-3.214-3.042-4.344-4.905h-.467a.841.841,0,0,0-.24.7c.708,1.873,2.082,3.5,2.976,5.128l-.213.244c.213.459.694,1.392.213,1.859-1.357-1.4-2.976-3.027-3.187-5.134a.926.926,0,0,1-.71-.225c.489-1.631.71-3.49,1.161-5.375.227,0,.467,0,.467.242s.461.479.221.927c.24,0,.454,0,.454.231m-2.983,17.5-.223-.241a.871.871,0,0,1,.223-.7.847.847,0,0,1,.233.7c.448.241.448.927.936,1.165v.456c.673.467.432.718.432,1.173,0,.231-.211.231-.432.231-.489-.936-1.392-2.1-.936-3.025Zm0-5.824-.223-.241h.456Zm.68,1.154-.215.244-.233-.244Zm.921,2.8c-.407-.416-1.167-1.206-.852-1.875-.283.008-.283-.231-.283-.461h.461a1.944,1.944,0,0,1-.012.264,1.185,1.185,0,0,1,.686,1.138,4.489,4.489,0,0,1,.929,1.412l-.221.217c-.467.242-.467-.458-.708-.694m-1.6-4.892c0,.223,0,.459-.223.459-.694-.684-1.374-1.857-.694-2.794.694.469.463,1.638.917,2.334m-33.68,53.593v.467l-.24-.233Zm-4.829.944c-.233,0-.469,0-.469-.231.237,0,.237-.246.469-.246l.237.246Zm.692,0,.227.229-.227.217c-.239,0-.456,0-.456-.217.217,0,.217-.229.456-.229m-3.457-5.355h-.456a7.688,7.688,0,0,0-.68,3.261c-.459.231-.459.694-.459,1.15.7.714,1.6,0,2.084-.686.688.452-.24,1.154-.489,1.631-.211,0-.211.229-.456.229l-.213-.229-.231.229a2.356,2.356,0,0,1-1.157-.938v-.469c-.688-.452-.457-1.4-.925-2.086l.237-.244c-.694-.929.231-2.092.94-2.786,1.136,0,2.293,0,2.981.94,0,.456.209.917-.244,1.388l-.444-.471v-.461Zm-5.939,10.01a1.313,1.313,0,0,0,.7-1.163c.659-.7,1.128-1.408,2.049-1.629a13.139,13.139,0,0,0,1.591,2.319,9.16,9.16,0,0,1-.684,2.571,3.823,3.823,0,0,0,2.528,2.084c-.248,1.169.929,2.108.24,3.042a.858.858,0,0,0-.7.221c0-.221-.244-.221-.457-.221,0,.221-.231.221-.467.221,0-.221-.219-.258-.459-.221-1.844.221-2.981-1.4-4.11-2.561a8.979,8.979,0,0,1-.463-3.492c.463-.239.229-.71.229-1.171m14.217,8.853-.463.463c-.221,0-.221-.239-.221-.463l.44-.456c.244,0,.244.229.244.456m-.684.7c0,.244-.24.244-.24.465-.24,0-.457,0-.457-.221l.457-.479Zm-.923.927c0,.24-.231.24-.231.463h-.688l.227-.223.461-.461Zm-1.39,1.171-.223.244c-.231,0-.231.229-.456.229-.225.459-.694.459-.919.69-1.832.471-3.894,1.408-5.74.706,0-.235,0-.475.252-.475l.209.24.24-.24a5.123,5.123,0,0,0,4.119-.694,3.246,3.246,0,0,0,1.372-.456,2.246,2.246,0,0,1,.258.01l.432-.5c.231,0,.454,0,.454.248M7.21,90a82.792,82.792,0,0,1,158.468-33.58l-2.635.5c0,.229,0,.473-.221.473-.467,0-1.161-.231-1.605.227-.237,0-.463,0-.463-.227a4.2,4.2,0,0,0-1.613.456l-.229-.229-.231.229-.207-.229c-.467.463-1.165.229-1.613.463-.231-.463-.7-.463-.923-.69-.917-.231-1.605.456-2.065,1.163h-1.146a26.448,26.448,0,0,0-3.664-3.5.872.872,0,0,1-.7-.229c-1.15,1.173-2.057,2.567-3.2,3.73-.459,0-.909.452-1.144-.235v-.473c-.68-.929-1.605-1.635-2.761-.929-.227,0-.227-.221-.227-.458a20.927,20.927,0,0,1,2.534-2.1h.454l.45-.463c1.627-.459,3.447-.933,4.135-2.788,0-.25,0-.481-.24-.481l.24-.221c0-.231,0-.463-.24-.463l.24-.24a1.75,1.75,0,0,1-.457-1.4L146.773,46.2c-3.433-3.725-7.359-7.684-8.252-12.8-.463-.24-.463-.714-.7-.954v-.463a23.513,23.513,0,0,1-2.057-2.782,21.1,21.1,0,0,1-2.293-2.354,8.528,8.528,0,0,1-2.514-1.609h-.463c-.227-.469-.688-.938-1.13-.938a8.465,8.465,0,0,0-2.77-2.806c-2.08-.454-4.133-2.094-6.186-1.378l-.239-.258-.233.258-.231-.258c-1.13.258-2.289,0-3.437.465l-.205-.207a14.655,14.655,0,0,0-3.447,1.378,2.516,2.516,0,0,0-2.072.935h-.465l-.456.479a2.061,2.061,0,0,0-1.58.694h-.473c-.254.223-.692.223-.915.7H106.2l-2.766,2.114h-.467c-.194-.242-.675-.242-.9-.714a11.108,11.108,0,0,1-3.441-1.4l-.231.229c-.919-.7-1.826-.229-2.731-.7-.481,0-1.163-.223-1.607.25l-.24-.25a4.055,4.055,0,0,1-2.305.475c-.457.469-1.13.229-1.6.7l-.231-.227L89.456,25l-.244-.227L88.987,25c-.659-.7-1.591.242-2.287-.467a.813.813,0,0,0-.68.24c-.692-.694-1.853.227-2.532-.469-.448,0-.919-.225-1.132.229l-.24-.229-.235.229-.209-.229c-.471.229-.913,0-1.388.469l-.227-.24c-2.057.467-3.9,1.408-5.963,1.642a4.035,4.035,0,0,0-2.287-.471c-.907-.461-2.057,0-2.981-.242a23.438,23.438,0,0,1-3.922.956c-2.5.915-4.575,3.249-6.626,4.886-2.3-.714-4.37-2.569-6.2-3.971-1.138-.481-2.276,0-3.433.227-3.908,1.646-6.882,4.428-10.082,7.236-.244-.244-.456.469-.688.223a3.86,3.86,0,0,1-2.068,1.175A37.269,37.269,0,0,0,30.994,46.91a.838.838,0,0,0,.237.694c-.708.944.211,1.873-.475,2.808l.239.221c-.682.481,0,1.163-.471,1.631l.233.239c-.444,1.863-.233,3.715-.905,5.584l.229.239a12.027,12.027,0,0,0-.694,2.81,6.778,6.778,0,0,0,2.528,3.705c1.586.248,2.97.935,4.575.248.233,0,.463,0,.463.231a.861.861,0,0,1-.231.694l.231.235c-.463.935,0,2.11-.463,3.029-.68.712-1.357,1.165-1.605,2.088.461.479,1.15.712,1.388,1.4h.45c.231.469.925.469,1.155.948a36.217,36.217,0,0,0-.231,5.119A12.874,12.874,0,0,0,39.019,80.7v.692c-1.144,1.167-2.068,2.557-3.212,3.742V85.6l-.463.454c.233,2.8-1.846,4.665-2.972,7a3.306,3.306,0,0,1-.459,1.4,10.55,10.55,0,0,0,1.138,5.822c-.456.459-.456,1.167-1.138,1.633v.692c-1.39,1.408-1.6,3.271-2.3,5.13l.237.233c-.694,2.571-.927,6.063,1.144,8.157a7.835,7.835,0,0,1,.237,2.338c.469,1.148.919,2.561,1.365,3.719.9,1.173,1.374,2.334,2.287,3.5a10.243,10.243,0,0,1,2.307,2.094l-.239.233c.694.938.694,1.875,1.613,2.563-.244.237.456.465.231.71a16.7,16.7,0,0,0,3.439,1.852c.676.706,1.369,1.636,2.065,2.336,1.372.467,2.512.467,3.885.937.7-.469,1.621-.235,2.3-.469.457-.239.927-.7,1.374-.938.221-1.159.694-2.106.9-3.253,0-.225.235-.225.487-.225,1.367,1.15,3.2,1.613,4.794,2.319l.235-.239.231.239c1.14-.461,2.516-.461,3.672-.946a12.368,12.368,0,0,0,2.981,0c.676.24,1.355.708,2.053.485l.461.461a16.922,16.922,0,0,1,5.052,2.333c.465,0,.9-.235,1.367.235l.231-.235c.69.7,1.6-.235,2.3.461a11.044,11.044,0,0,0,3.891-.227c2.3,3.257,3.654,7.215,6.413,10.251a13.582,13.582,0,0,1-2.974,2.1c-.233.235-.463.235-.463.7-1.132.688-1.607,1.865-2.516,2.788v.477c-1.132,1.625-1.132,3.721-1.848,5.588,0,.239,0,.456.252.456l-.252.244c.252,1.167,0,2.549.716,3.719l-.244.233c1.163,3.042,3.154,6.46,6.135,8.089a29.981,29.981,0,0,0,3.329,1.728A82.784,82.784,0,0,1,7.21,90" transform="translate(-836.961 -17283.088)" fill="#00593f"/><rect width="180" height="180" transform="translate(-836.961 -17283.088)" fill="none"/></g></svg>