<svg xmlns="http://www.w3.org/2000/svg" width="603.621" height="182.197" viewBox="0 0 603.621 182.197"><g transform="translate(-162 -603)"><g transform="translate(162 603.333)"><path d="M90.766,0A90.766,90.766,0,1,1,0,90.766,90.766,90.766,0,0,1,90.766,0Z" transform="translate(0 0)" fill="#00593f"/><path d="M-19.958-16.932a1.407,1.407,0,0,0,1.564-1.394,1.461,1.461,0,0,0-1.6-1.428l-9.384.068a25.729,25.729,0,0,0,.782-2.89,41.017,41.017,0,0,0,5.916-.884,1.539,1.539,0,0,0,1.292-1.53,1.545,1.545,0,0,0-1.6-1.564,1.783,1.783,0,0,0-.578.068c-4.624,1.258-9.248,1.19-13.43,1.258a1.408,1.408,0,0,0-1.428,1.5,1.525,1.525,0,0,0,1.6,1.564h.1c1.394-.068,3.128-.1,5.032-.2a18.788,18.788,0,0,1-.816,2.686l-6.052-.068a1.41,1.41,0,0,0-1.5,1.428,1.356,1.356,0,0,0,1.462,1.394h.034L-33.864-17a16.05,16.05,0,0,1-5.678,5.508,1.472,1.472,0,0,0-.816,1.258,1.641,1.641,0,0,0,1.6,1.6c1.326,0,5.95-3.808,8.262-8.4h2.482c2.992,4.9,7.548,8.16,9.112,8.16a1.822,1.822,0,0,0,1.768-1.768A1.411,1.411,0,0,0-18.156-12a13.985,13.985,0,0,1-6.494-5l4.658.068Zm1.122,15.538A1.651,1.651,0,0,0-17.272-3.06c0-1.5-3.6-6.052-5.236-6.052A1.433,1.433,0,0,0-24-7.888a1.165,1.165,0,0,0,.442.85A17.4,17.4,0,0,1-20.2-2.38,1.516,1.516,0,0,0-18.836-1.394Zm-22.3-19.312a1.861,1.861,0,0,0,1.7-1.87c0-1.972-4.522-3.808-5.168-3.808a1.675,1.675,0,0,0-1.666,1.564,1.236,1.236,0,0,0,.68,1.088,12.362,12.362,0,0,1,3.366,2.482A1.467,1.467,0,0,0-41.14-20.706ZM-24.99-1.122a1.633,1.633,0,0,0,1.6-1.666c0-1.258-1.938-4.794-2.822-5.61a1.582,1.582,0,0,0-1.054-.408,1.263,1.263,0,0,0-1.36,1.122,1.2,1.2,0,0,0,.238.714,15,15,0,0,1,2.04,4.624A1.417,1.417,0,0,0-24.99-1.122Zm-7.276-11.254c.068,4.454.068,9.486.068,9.486,0,1.5-.476,1.87-1.258,1.87a9.924,9.924,0,0,1-1.734-.272,1.4,1.4,0,0,0-.374-.034A1.438,1.438,0,0,0-36.992.2c0,1.122.646,1.836,3.4,1.836,3.332,0,4.522-1.972,4.522-4.08v-.17c-.034-1.19-.1-2.516-.1-3.06,0-1.5.034-2.618.034-4.25,0-.782,0-1.7-.034-2.856a1.487,1.487,0,0,0-1.564-1.53,1.452,1.452,0,0,0-1.53,1.5ZM-42.7-13.532A1.8,1.8,0,0,0-41.14-15.4a1.737,1.737,0,0,0-.714-1.428,11.593,11.593,0,0,0-4.726-1.836,1.676,1.676,0,0,0-1.632,1.632,1.13,1.13,0,0,0,.85,1.122,11.435,11.435,0,0,1,3.706,2.006A1.418,1.418,0,0,0-42.7-13.532Zm3.468,12.41c2.21,0,5.032-4.556,5.032-6.324a1.366,1.366,0,0,0-1.428-1.292,1.455,1.455,0,0,0-1.394,1.054A7.766,7.766,0,0,1-39.95-3.842a1.622,1.622,0,0,0-.85,1.326A1.488,1.488,0,0,0-39.236-1.122ZM-44.268.442A34.188,34.188,0,0,0-40.562-9.01a1.545,1.545,0,0,0-1.632-1.53,1.437,1.437,0,0,0-1.462,1.054,32.722,32.722,0,0,1-3.808,8.5,1.568,1.568,0,0,0-.272.884A1.731,1.731,0,0,0-45.968,1.53,1.934,1.934,0,0,0-44.268.442ZM13.5-2.992c.1-2.482.136-5.2.136-7.922S13.6-16.32,13.5-18.7A3.878,3.878,0,0,0,9.69-22.3c-.714-.034-1.394-.068-2.074-.068s-1.36.034-2.108.068a3.715,3.715,0,0,0-3.74,3.536c-.068,2.482-.1,5.2-.1,7.922s.034,5.44.1,7.956C1.87.714,4.9.782,7.582.782c.68,0,1.36-.034,2.074-.068A3.881,3.881,0,0,0,13.5-2.992ZM-6.528-17.85c.51,0,1.02.034,1.564.034,1.292,0,1.326.816,1.326,2.958,0,11.39-1.53,12.444-3.4,12.444a3.646,3.646,0,0,1-1.326-.238,2.286,2.286,0,0,0-.612-.1A1.4,1.4,0,0,0-10.3-1.224,1.648,1.648,0,0,0-9.112.408,9.323,9.323,0,0,0-6.664.782c2.822,0,4.9-1.7,5.542-5.61a85.173,85.173,0,0,0,.68-11.424c0-1.258,0-4.488-3.57-4.556H-6.426c.068-1.36.1-2.72.1-4.012V-25.7a1.606,1.606,0,0,0-1.734-1.5A1.485,1.485,0,0,0-9.69-25.772v.068c.034.748.034,1.564.034,2.414,0,.816,0,1.666-.034,2.516-1.156.034-2.278.034-3.468.068a1.461,1.461,0,0,0-1.462,1.53,1.381,1.381,0,0,0,1.428,1.462h.034c1.122,0,2.244-.034,3.366-.068l-.034.272c-.238,4.488-.816,11.764-5.95,16.66a1.421,1.421,0,0,0-.51,1.088A1.692,1.692,0,0,0-14.552,1.8a2.049,2.049,0,0,0,1.36-.612c5.406-5.372,6.426-13.736,6.63-18.632Zm16.8,13.974c-.034,1.394-.748,1.6-2.652,1.6-2.38,0-2.618-.34-2.652-1.5-.1-2.176-.136-4.828-.136-7.48,0-2.414.034-4.794.136-6.732.034-1.054.578-1.394,1.5-1.5.374-.034.748-.068,1.122-.068s.748.034,1.122.068c.952.1,1.53.272,1.564,1.5.068,1.972.1,4.454.1,6.97S10.336-5.984,10.268-3.876ZM39.3-19.176C38.93-13.838,37.23-6.664,29.648-2.108a1.349,1.349,0,0,0-.68,1.19,1.6,1.6,0,0,0,1.6,1.632,2.226,2.226,0,0,0,1.122-.34c7.99-4.624,10.1-13.192,10.676-19.482.952.238,1.02.748,1.02,5.44,0,12.138-3.332,12.308-4.76,12.308a9.583,9.583,0,0,1-2.04-.306,2.667,2.667,0,0,0-.476-.068,1.408,1.408,0,0,0-1.428,1.5A1.626,1.626,0,0,0,35.9,1.394a12.127,12.127,0,0,0,2.788.374c6.9,0,7.956-7.684,7.956-15.2,0-1.768-.034-3.434-.1-4.828a3.5,3.5,0,0,0-3.74-3.672h-2.38c-2.074,0-4.454,0-6.052.034a25.64,25.64,0,0,0,1.5-4.488,1.592,1.592,0,0,0-1.7-1.428,1.352,1.352,0,0,0-1.428,1.054,30.35,30.35,0,0,1-4.284,9.928,1.619,1.619,0,0,0-.34.918,1.43,1.43,0,0,0,1.564,1.292c1.088,0,1.6-.408,3.536-4.522l1.428-.034c-.85,4.488-2.516,8.092-6.426,10.982A1.76,1.76,0,0,0,27.4-6.8a1.515,1.515,0,0,0,1.564,1.428,2.345,2.345,0,0,0,1.394-.544c4.216-3.264,6.358-8.262,7.344-13.26ZM23.12.986a1.491,1.491,0,0,0,1.632,1.462A1.491,1.491,0,0,0,26.384.986l.034-10.472c1.088-.51,2.108-.952,2.992-1.428a1.554,1.554,0,0,0,.952-1.394A1.332,1.332,0,0,0,29.1-13.7a1.3,1.3,0,0,0-.578.136c-.646.34-1.36.68-2.108.986l.034-5.134h1.394a1.436,1.436,0,0,0,1.462-1.5,1.444,1.444,0,0,0-1.5-1.5h-1.36l.034-5.644a1.524,1.524,0,0,0-1.632-1.53,1.524,1.524,0,0,0-1.632,1.53v5.644h-1.36c0-.1.272-2.176.272-2.788a1.368,1.368,0,0,0-1.53-1.258c-.782,0-1.53.408-1.53,1.258a25.359,25.359,0,0,1-1.768,9.384,1.816,1.816,0,0,0-.17.68,1.284,1.284,0,0,0,1.428,1.156c1.36,0,1.972-.646,2.822-5.372l1.8-.068v6.392c-1.428.51-2.958.986-4.624,1.5a1.488,1.488,0,0,0-1.122,1.462,1.553,1.553,0,0,0,1.6,1.6c.51,0,1.02-.17,4.114-1.36ZM-20.06,37.03a1.986,1.986,0,0,0,1.87-2.006,2.374,2.374,0,0,0-.476-1.394c-1.666-2.244-7.378-6.7-8.976-6.7a1.6,1.6,0,0,0-1.666,1.5,1.569,1.569,0,0,0,.816,1.326,27.909,27.909,0,0,1,6.868,6.392A1.9,1.9,0,0,0-20.06,37.03Zm-14.314,7.514a1.574,1.574,0,0,0,1.734,1.53,1.592,1.592,0,0,0,1.734-1.53l-.034-17.85a1.475,1.475,0,0,0-1.292-1.462c.68-1.088,1.36-2.244,1.972-3.4l9.826.136h.034A1.468,1.468,0,0,0-18.87,20.4a1.477,1.477,0,0,0-1.564-1.564H-44.812a1.533,1.533,0,0,0-1.6,1.6,1.488,1.488,0,0,0,1.564,1.53h.034l10.88-.136c-2.89,5.236-7.31,10.472-12.75,13.26a1.662,1.662,0,0,0-1.02,1.462,1.878,1.878,0,0,0,1.9,1.768c1.564,0,6.9-3.774,11.458-9.962ZM13.362,23.26a1.445,1.445,0,1,0,0-2.89H6.086c0-.816-.034-1.632-.034-2.482a1.592,1.592,0,0,0-1.6-1.6,1.478,1.478,0,0,0-1.462,1.632v.034l.034,2.414H-3.638A1.4,1.4,0,0,0-5.1,21.8,1.409,1.409,0,0,0-3.638,23.26H3.026v2.074c-1.53,0-2.992.034-4.182.068a3.012,3.012,0,0,0-3.2,2.618c-.034.476-.034,1.088-.034,1.734,0,.612,0,1.258.034,1.8a2.972,2.972,0,0,0,3.2,2.754c1.19.034,2.584.1,4.08.1a11.592,11.592,0,0,1-1.054,3.57,12.219,12.219,0,0,1-1.5-1.836.845.845,0,0,0,.034-.272A1.166,1.166,0,0,0-.884,34.82a1.238,1.238,0,0,0-1.088.544A7.88,7.88,0,0,1-4.9,38.084a1.412,1.412,0,0,0-.85,1.258,1.594,1.594,0,0,0,1.564,1.5c.374,0,1.122-.136,2.754-2.448A16.468,16.468,0,0,0,.2,40.26a11.528,11.528,0,0,1-5.882,2.924A1.491,1.491,0,0,0-6.97,44.612a1.624,1.624,0,0,0,1.6,1.632,15.978,15.978,0,0,0,7.888-4.012,20.726,20.726,0,0,0,11.016,3.706A1.8,1.8,0,0,0,15.538,44.2a1.489,1.489,0,0,0-1.564-1.53,18.233,18.233,0,0,1-9.758-2.788,14.838,14.838,0,0,0,1.666-5.474c1.53,0,2.992-.034,4.25-.1,2.074-.1,3.366-1.19,3.5-2.788.034-.544.068-1.292.068-2.074a12.833,12.833,0,0,0-.068-1.632c-.136-1.428-1.6-2.346-3.332-2.414-1.224-.068-2.686-.1-4.216-.1V23.26Zm-24.31,21.692a1.47,1.47,0,0,0,1.6,1.5,1.571,1.571,0,0,0,1.666-1.53l.408-20.91c1.36-2.414,2.72-5.338,2.72-6.052a1.8,1.8,0,0,0-1.87-1.632,1.5,1.5,0,0,0-1.5,1.122,30.92,30.92,0,0,1-7.514,12.41,1.729,1.729,0,0,0-.544,1.19,1.517,1.517,0,0,0,1.53,1.5c.646,0,1.394-.17,3.876-3.468l-.374,15.844ZM6.086,27.918c4.59,0,4.624,0,4.624,1.9,0,1.972,0,2.04-4.658,2.04.034-1.122.034-2.244.034-3.3Zm-3.06.476c0,.85.1,2.074.1,3.468-3.876,0-4.454-.1-4.522-.952-.034-.306-.034-.714-.034-1.088,0-1.292.2-1.8,1.156-1.836s2.074-.068,3.3-.068ZM41.99,40.906c0,1.156-.51,1.87-2.244,1.87a11.058,11.058,0,0,1-2.142-.238,1.276,1.276,0,0,0-.34-.034A1.454,1.454,0,0,0,35.8,44.068c0,1.734,1.734,2.006,3.978,2.006,4.114,0,5.542-2.176,5.542-4.556V41.45l-.068-4.658c-.068-3.74,0-10.506-.1-15.5a3.93,3.93,0,0,0-4.046-3.774c-2.686-.068-5.1-.1-7.48-.1-2.72,0-5.406.034-8.33.1-3.094.068-4.42,1.326-4.42,4.148v.1c.034,1.87.1,4.114.1,6.528,0,5.508-.442,11.73-3.094,15.3a1.725,1.725,0,0,0-.34.986,1.667,1.667,0,0,0,1.734,1.564c2.72,0,4.216-6.086,4.658-10.574H31.11V44a1.65,1.65,0,0,0,3.3,0V35.568H41.99ZM34.374,25.13V20.336c1.836,0,3.672,0,5.508.068a1.822,1.822,0,0,1,1.972,1.972c.034.816.034,1.768.068,2.754Zm7.616,7.548H34.408l-.034-4.658H41.99ZM31.144,25.13H24.208V22.07A1.478,1.478,0,0,1,25.84,20.4c1.8-.034,3.57-.068,5.3-.068Zm-.034,7.548H24.14c.068-1.564.1-3.162.1-4.658h6.9Z" transform="translate(89.318 80.658)" fill="#fff"/></g><g transform="translate(373.045 603)"><path d="M91.1,0A91.1,91.1,0,1,1,0,91.1,91.1,91.1,0,0,1,91.1,0Z" transform="translate(0)" fill="#d38d46"/><path d="M-2.7-18.91a1.267,1.267,0,0,0,1.333-1.333,1.259,1.259,0,0,0-1.333-1.3H-9.331c0-.744-.031-1.488-.031-2.263a1.452,1.452,0,0,0-1.457-1.457,1.348,1.348,0,0,0-1.333,1.488v.031l.031,2.2H-18.2a1.277,1.277,0,0,0-1.333,1.3A1.284,1.284,0,0,0-18.2-18.91h6.076v1.891c-1.395,0-2.728.031-3.813.062a2.746,2.746,0,0,0-2.914,2.387c-.031.434-.031.992-.031,1.581,0,.558,0,1.147.031,1.643a2.71,2.71,0,0,0,2.914,2.511c1.085.031,2.356.093,3.72.093a10.569,10.569,0,0,1-.961,3.255,11.141,11.141,0,0,1-1.364-1.674.77.77,0,0,0,.031-.248,1.063,1.063,0,0,0-1.178-.961,1.129,1.129,0,0,0-.992.5,7.185,7.185,0,0,1-2.666,2.48,1.288,1.288,0,0,0-.775,1.147,1.454,1.454,0,0,0,1.426,1.364c.341,0,1.023-.124,2.511-2.232A15.015,15.015,0,0,0-14.694-3.41,10.511,10.511,0,0,1-20.057-.744a1.36,1.36,0,0,0-1.178,1.3,1.481,1.481,0,0,0,1.457,1.488,14.568,14.568,0,0,0,7.192-3.658A18.9,18.9,0,0,0-2.542,1.767,1.639,1.639,0,0,0-.713.186,1.358,1.358,0,0,0-2.139-1.209a16.624,16.624,0,0,1-8.9-2.542A13.529,13.529,0,0,0-9.517-8.742c1.4,0,2.728-.031,3.875-.093,1.891-.093,3.069-1.085,3.193-2.542.031-.5.062-1.178.062-1.891a11.7,11.7,0,0,0-.062-1.488c-.124-1.3-1.457-2.139-3.038-2.2-1.116-.062-2.449-.093-3.844-.093v-1.86ZM-24.862.868a1.34,1.34,0,0,0,1.457,1.364A1.432,1.432,0,0,0-21.886.837l.372-19.065c1.24-2.2,2.48-4.867,2.48-5.518a1.643,1.643,0,0,0-1.705-1.488A1.367,1.367,0,0,0-22.1-24.211,28.191,28.191,0,0,1-28.954-12.9a1.577,1.577,0,0,0-.5,1.085,1.383,1.383,0,0,0,1.4,1.364c.589,0,1.271-.155,3.534-3.162L-24.862.837ZM-9.331-14.663c4.185,0,4.216,0,4.216,1.736,0,1.8,0,1.86-4.247,1.86.031-1.023.031-2.046.031-3.007Zm-2.79.434c0,.775.093,1.891.093,3.162-3.534,0-4.061-.093-4.123-.868-.031-.279-.031-.651-.031-.992,0-1.178.186-1.643,1.054-1.674s1.891-.062,3.007-.062ZM23.4-2.821c0,1.054-.465,1.7-2.046,1.7a10.083,10.083,0,0,1-1.953-.217,1.163,1.163,0,0,0-.31-.031A1.326,1.326,0,0,0,17.763.062c0,1.581,1.581,1.829,3.627,1.829,3.751,0,5.053-1.984,5.053-4.154v-.062l-.062-4.247c-.062-3.41,0-9.579-.093-14.136A3.583,3.583,0,0,0,22.6-24.149c-2.449-.062-4.65-.093-6.82-.093-2.48,0-4.929.031-7.6.093-2.821.062-4.03,1.209-4.03,3.782v.093c.031,1.7.093,3.751.093,5.952,0,5.022-.4,10.7-2.821,13.95a1.573,1.573,0,0,0-.31.9A1.52,1.52,0,0,0,2.7,1.953c2.48,0,3.844-5.549,4.247-9.641h6.541V0A1.43,1.43,0,0,0,15,1.457,1.422,1.422,0,0,0,16.492,0V-7.688H23.4ZM16.461-17.2v-4.371c1.674,0,3.348,0,5.022.062a1.661,1.661,0,0,1,1.8,1.8c.031.744.031,1.612.062,2.511ZM23.4-10.323H16.492l-.031-4.247H23.4ZM13.516-17.2H7.192v-2.79A1.348,1.348,0,0,1,8.68-21.514c1.643-.031,3.255-.062,4.836-.062Zm-.031,6.882H7.13c.062-1.426.093-2.883.093-4.247h6.293Z" transform="translate(110.104 119.751)" fill="#fff"/><path d="M17.343-7.144a1.933,1.933,0,0,0,1.974-2.021,1.946,1.946,0,0,0-1.974-2.068H9.917V-16.45h6.956a1.933,1.933,0,0,0,1.974-2.021,1.946,1.946,0,0,0-1.974-2.068H9.917v-5.076h9.118a1.933,1.933,0,0,0,1.974-2.021A1.946,1.946,0,0,0,19.035-29.7H5.828a45.354,45.354,0,0,0,1.457-6.11,2.127,2.127,0,0,0-2.256-2.068A1.93,1.93,0,0,0,3.008-36.19C2.3-31.96.94-26.884-1.5-23.03l-.047.094L-1.6-25.145a3.8,3.8,0,0,0-3.478-3.431c-.564-.047-1.175-.047-1.833-.094.047-1.363.094-2.726.141-4.136h4.559A1.774,1.774,0,0,0-.376-34.639a1.749,1.749,0,0,0-1.833-1.833H-18.142a1.857,1.857,0,0,0-2.021,1.833,1.884,1.884,0,0,0,2.021,1.833h3.995c0,1.316,0,2.726.047,4.136-3.995,0-5.076,2.115-5.076,3.9-.047,4.136-.094,9.353-.094,14.335,0,2.914,0,5.734.094,8.272a4.061,4.061,0,0,0,4,4.23c1.222.094,2.773.141,4.324.141,1.739,0,3.572-.047,5.17-.188A4.379,4.379,0,0,0-1.551-2.35c.047-4.136.047-8.695.047-12.972v-5.217a2.1,2.1,0,0,0,1.645.752c.893,0,1.927-.094,4.23-5.828H5.64V.987a2.144,2.144,0,1,0,4.277,0V-7.144ZM-9.635-28.717h-1.551v-4.089h1.6Zm3.2,3.525c.752,0,1.175.141,1.222,1.175.047,1.974.141,4.23.141,6.815a3.8,3.8,0,0,1-.752.047h-.235c-1.128-.141-1.128-1.034-1.128-8.084ZM-5.358-9.729H-15.51v-2.4c3.431-2.491,4.136-7.755,4.277-13.113h1.551c0,1.222-.047,2.444-.047,3.619s.047,2.3.047,3.431c.094,2.632.7,4.183,3.431,4.183a5.4,5.4,0,0,0,.893-.047Zm-8.46-15.463c-.047,3.854-.517,7.52-1.927,9.588,0-3.055.047-5.875.141-8.319.047-.987.611-1.222,1.41-1.269ZM-5.405-6.2c0,1.034-.047,2.068-.094,3.055,0,1.363-.8,1.5-4.559,1.5-4.465,0-5.217-.094-5.311-1.5-.047-.987-.094-2.021-.094-3.055Z" transform="translate(56.403 119.952)" fill="#fff"/><path d="M-44.122-13.312c2.106.442,2.678-2.236.494-2.7a27.6,27.6,0,0,0-8.294-.078c-2.314.338-1.976,3.094.078,2.7A19.767,19.767,0,0,1-44.122-13.312ZM-41.574-.65c2.106-.65,1.482-3.458-.676-2.86-3.926,1.118-8.138,1.3-10.348-.962a1.371,1.371,0,0,0-2.158,1.69C-52.962-.26-46.722.962-41.574-.65ZM-13.78-17.628c.884.988,2.366-.624,1.326-1.664A8.383,8.383,0,0,0-15.08-20.8c-1.222-.39-2.158,1.2-.832,1.716A9.369,9.369,0,0,1-13.78-17.628Zm-2.366,2.366c.858,1.014,2.392-.572,1.378-1.664a8.043,8.043,0,0,0-2.574-1.56c-1.2-.442-2.236,1.144-.91,1.69A8.946,8.946,0,0,1-16.146-15.262Zm.156,4.758c1.638.546,2.34-1.742.6-2.366a9.651,9.651,0,0,0-6.24-.13c-1.716.6-.91,2.73.442,2.236A9.143,9.143,0,0,1-15.99-10.5Zm0,10.53a1.35,1.35,0,1,0-.338-2.678c-3.042.26-4.628.39-5.954-.962-1.352-1.378-2.964.676-1.846,1.924C-22.984-.416-19.76.78-15.99.026Zm-9.7-13.624a16.745,16.745,0,0,0,2.626-1.04,1.241,1.241,0,1,0-1.014-2.236c-.312.182-.624.364-.988.546a7.912,7.912,0,0,0-.026-2.08c-.26-1.43-2.7-1.352-2.6.13a11.331,11.331,0,0,1,.026,2.808,6.95,6.95,0,0,1-3.588-.156c-1.95-.7-2.21,1.664-.884,2.236a7.583,7.583,0,0,0,3.8.364A80.481,80.481,0,0,1-32.89-1.742C-33.982.468-31.226,1.222-30.446-.52A102.271,102.271,0,0,0-25.688-13.6Zm20.1,9.49A26.209,26.209,0,0,0-5.564-.26C-5.46.858-4.706,1.274-4,1.17a1.4,1.4,0,0,0,1.2-1.664,32.83,32.83,0,0,1-.208-6.188A15.586,15.586,0,0,1,.26-8.866c3.588-1.846,6.292-1.482,7.462-.286,1.144,1.2.832,3.224-1.924,5.07A13.256,13.256,0,0,1,3.042-2.808,1.4,1.4,0,1,0,3.874-.156a15.927,15.927,0,0,0,3.692-1.9c3.926-2.834,4.368-6.344,2.47-8.476C8.164-12.662,4.03-13.52-.6-11.05A17.609,17.609,0,0,0-2.834-9.62v-.13c.52-.936.91-1.664,1.04-1.846,1.17-1.664.468-2.912-.546-2.938.182-1.508.364-2.782.494-3.718.234-1.534-2.392-1.9-2.548-.078-.1,1.118-.26,2.756-.442,4.654-1.326.546-2.73,1.222-3.692,1.664-1.482.7-.624,3.3,1.248,2.132A16.943,16.943,0,0,1-5.408-11a.429.429,0,0,1,.338-.052l-.052.624A39.271,39.271,0,0,1-8.58-4.082a10.549,10.549,0,0,0-.78,1.04C-10.5-1.326-8.034.13-6.968-1.742c.468-.806.858-1.508,1.222-2.106Zm29.328,5.46a14.2,14.2,0,0,0,5.148-16.588c-1.066-2.938-4.446-4-6.344-1.56-.26.338-.52.676-.182-.026a7.8,7.8,0,0,0,.676-2.418,1.309,1.309,0,0,0-2.6-.234c-.208,1.586-.7,3.3-.988,4.628a23.124,23.124,0,0,0-.6,6.006c.156,1.872,2.964,1.9,2.834-.624-.13-2.262-.078-3.328.676-4.914.754-1.612,3.224-2.574,4.082.026A11.974,11.974,0,0,1,21.918-.676C19.734.754,21.632,2.912,23.738,1.352Zm25.35-15.938a6.744,6.744,0,0,1,3.224,1.04c2.574,1.638,3.276,5.044,1.43,7.956a8.055,8.055,0,0,1-4.836,2.912c-2.236.52-1.43,3.146.858,2.548a10.869,10.869,0,0,0,6.344-4.29c2.262-3.718,1.612-8.5-2.418-10.92a10.863,10.863,0,0,0-11.232.6c-3.484,2.418-5.226,7.254-3.588,10.478,1.144,2.236,3.328,3.25,5.33,1.4a20.479,20.479,0,0,0,5.252-10.53A1.3,1.3,0,0,0,49.088-14.586Zm-2.054.13a1.839,1.839,0,0,0-.234.806c-.26,2.808-2.08,6.942-4.03,8.658-.65.572-1.326.182-1.716-.572-1.092-2,.208-5.46,2.626-7.332A8.615,8.615,0,0,1,47.034-14.456Z" transform="translate(89.11 70.848)" fill="#fff"/></g><g transform="translate(584.09 603.333)"><circle cx="90.766" cy="90.766" r="90.766" transform="translate(0)" fill="#d14434"/><path d="M-38.262,1.218-38.388-7.1c3.4-.378,6.636-.8,9.366-1.218a18.186,18.186,0,0,1,1.134,1.554,1.771,1.771,0,0,0,1.47.882,2.075,2.075,0,0,0,1.89-2.1c0-2.1-5.334-6.174-6.8-6.174A1.717,1.717,0,0,0-33.1-12.6a1.544,1.544,0,0,0,.8,1.26,5.588,5.588,0,0,1,.8.588c-2.31.252-4.746.5-7.224.672a37.44,37.44,0,0,0,5.754-5.166,2.043,2.043,0,0,0,.546-1.3A2.078,2.078,0,0,0-34.566-18.4a1.766,1.766,0,0,0-1.386.672,35.444,35.444,0,0,1-5.5,5.754l-.126-.126c-.546-.462-1.218-.966-1.932-1.47.084-.084,2.772-2.772,2.772-3.906a1.458,1.458,0,0,0-.546-1.092h1.05l15.624.042a1.5,1.5,0,0,0,1.6-1.512,1.5,1.5,0,0,0-1.6-1.512l-13.734.042v-1.89l9.534.042a1.42,1.42,0,0,0,1.512-1.47,1.443,1.443,0,0,0-1.512-1.47l-9.492.042v-1.806l11.886.042a1.464,1.464,0,0,0,1.554-1.512,1.474,1.474,0,0,0-1.554-1.554l-11.886.042V-32.97a1.886,1.886,0,0,0-2.1-1.764,1.824,1.824,0,0,0-2.058,1.764v1.932l-11.76-.042a1.5,1.5,0,0,0-1.6,1.512,1.509,1.509,0,0,0,1.6,1.554l11.76-.042v1.806l-9.366-.042a1.433,1.433,0,0,0-1.554,1.47,1.455,1.455,0,0,0,1.554,1.47l9.408-.042v1.89l-13.524-.042a1.551,1.551,0,0,0-1.68,1.512,1.551,1.551,0,0,0,1.68,1.512h11.76c-.042.084-.126.126-.168.21a12.68,12.68,0,0,1-1.974,2.94c-2.058-1.176-2.94-1.428-3.36-1.428A2.129,2.129,0,0,0-51.7-14.826a1.16,1.16,0,0,0,.84,1.134A20.057,20.057,0,0,1-44.52-9.786l-.126.042c-2.856.126-5.67.21-8.358.21h-1.722A1.684,1.684,0,0,0-56.448-7.77a1.738,1.738,0,0,0,1.806,1.806c3.654,0,9.282-.42,12.558-.756l-.126,7.938V1.26a1.792,1.792,0,0,0,1.974,1.722A1.792,1.792,0,0,0-38.262,1.26Zm11.676.378A2.261,2.261,0,0,0-24.4-.63c0-3.024-9.24-5.208-9.576-5.208a2.011,2.011,0,0,0-2.058,1.932,1.471,1.471,0,0,0,1.218,1.428,18.549,18.549,0,0,1,6.8,3.528A2.264,2.264,0,0,0-26.586,1.6ZM-45.318-2.1a1.765,1.765,0,0,0,.84-1.47,1.983,1.983,0,0,0-1.89-1.974,1.827,1.827,0,0,0-.966.294,25.8,25.8,0,0,1-8.274,3.528A1.759,1.759,0,0,0-57.12,0a2.09,2.09,0,0,0,2.184,2.058C-53.424,2.058-48.384-.042-45.318-2.1ZM9.072-3.906A2.249,2.249,0,0,1,6.51-1.344a11.069,11.069,0,0,1-2.688-.42,1.883,1.883,0,0,0-.462-.042A1.756,1.756,0,0,0,1.722.084c0,1.26.63,2.436,4.914,2.436,5,0,6.552-3.192,6.552-5.544v-.168L13.02-9.156l-.168-12.39,3.612.042a1.863,1.863,0,0,0,2.058-1.806,1.9,1.9,0,0,0-2.058-1.89l-3.654.042-.084-6.93a1.926,1.926,0,0,0-2.016-1.974A1.883,1.883,0,0,0,8.736-32.13v.042l.084,6.93L1.806-25.2A1.883,1.883,0,0,0-.168-23.268,1.781,1.781,0,0,0,1.806-21.5l6.132-.042A36.71,36.71,0,0,1-2.562-8.4,1.947,1.947,0,0,0-3.4-6.888,2.079,2.079,0,0,0-1.3-4.956,2.461,2.461,0,0,0,.168-5.5a36.212,36.212,0,0,0,8.988-11ZM-6.678,1.008s-.168-10-.21-16.506a23.128,23.128,0,0,1,2.94,2.772,1.6,1.6,0,0,0,1.26.63A2.059,2.059,0,0,0-.756-14.112a1.932,1.932,0,0,0-.5-1.26c-.8-.882-3.906-3.36-5.04-3.36a1.649,1.649,0,0,0-.588.126V-21.63l3.822.084h.042a1.749,1.749,0,0,0,1.806-1.848,1.749,1.749,0,0,0-1.806-1.848l-3.822.042c.042-3.78.168-7.14.168-7.14v-.042a1.924,1.924,0,0,0-2.1-1.848,1.85,1.85,0,0,0-2.016,1.848v.042l.126,7.14-4.83-.042A1.873,1.873,0,0,0-17.43-23.31a1.731,1.731,0,0,0,1.89,1.764h.042l4.872-.084v.168a42.725,42.725,0,0,1-7.812,11.214,1.756,1.756,0,0,0-.63,1.344,2.089,2.089,0,0,0,2.142,1.932,2.111,2.111,0,0,0,1.638-.8,49.843,49.843,0,0,0,4.662-6.678l-.168,15.456V1.05c0,1.176,1.008,1.722,2.058,1.722A1.867,1.867,0,0,0-6.678,1.05ZM41.5-21.336a1.442,1.442,0,0,0,1.47-1.512,1.432,1.432,0,0,0-1.47-1.47H32.382a1.512,1.512,0,0,0-1.512,1.554,1.411,1.411,0,0,0,1.512,1.428Zm13.86-5.124a1.6,1.6,0,0,0,1.638-1.68,1.563,1.563,0,0,0-1.638-1.638H53.34a2.007,2.007,0,0,0,.42-1.176c0-1.89-3.7-3.234-4.368-3.234A1.809,1.809,0,0,0,47.67-32.55a1,1,0,0,0,.63.924,9.637,9.637,0,0,1,2.688,1.848c-1.512,0-3.066-.042-4.578-.042-.084-.84-.126-1.68-.168-2.52a2.008,2.008,0,0,0-2.016-2.016,1.73,1.73,0,0,0-1.764,1.806v.336c.084.8.21,1.6.294,2.394-4.284,0-8.442,0-12.222.042-2.856.042-4.452,1.89-4.452,4.032v.168c.042.966.084,2.184.084,3.528,0,3.7-.462,8.484-3.486,11.718a2,2,0,0,0-.588,1.344,2.129,2.129,0,0,0,2.184,1.932,2.466,2.466,0,0,0,1.932-1.008c3.444-4.41,3.906-10.962,3.906-14.868,0-.714-.042-1.3-.042-1.806a1.562,1.562,0,0,1,1.764-1.722c3.528-.042,7.35-.084,11.34-.084A42.277,42.277,0,0,0,46.2-15.12a14.9,14.9,0,0,1-4.746,3.7A1.5,1.5,0,0,0,40.53-10v.126a2.924,2.924,0,0,0-1.344-.378A1.983,1.983,0,0,0,37.17-8.484a1.483,1.483,0,0,0,.8,1.218,16.32,16.32,0,0,1,4.074,3.36,1.748,1.748,0,0,0,1.386.714,2.156,2.156,0,0,0,2.058-2.1c0-.588-.252-1.512-2.478-3.024.042,0,.084-.042.126-.084a18,18,0,0,0,4.83-3.57c2.226,3.192,4.452,3.486,5.418,3.486,3.7,0,5.082-4.7,5.082-6.342a1.978,1.978,0,0,0-2.058-1.932,1.587,1.587,0,0,0-1.638,1.47c-.336,2.058-.882,2.856-1.6,2.856-.924,0-2.058-1.26-2.856-2.394a22.573,22.573,0,0,0,3.654-7.812,1.9,1.9,0,0,0-1.932-1.806,1.54,1.54,0,0,0-1.554,1.176,23.619,23.619,0,0,1-2.016,4.83,39.3,39.3,0,0,1-1.722-8.106c2.856,0,5.712.042,8.568.084ZM56.406.588A2.252,2.252,0,0,0,58.59-1.6c0-2.184-5.418-6.048-6.93-6.048a1.921,1.921,0,0,0-2.016,1.722,1.688,1.688,0,0,0,.84,1.386,15.586,15.586,0,0,1,4.326,4.2A1.819,1.819,0,0,0,56.406.588ZM42.588-15.162c0-3.444-.126-4.41-4.788-4.41-1.008,0-2.058.042-3.024.042-3.024,0-3.4,1.47-3.4,4.032,0,3.7.588,4.284,5.754,4.284S42.588-12.264,42.588-15.162ZM50.022-3.108c0-1.008-1.134-1.638-2.226-1.638-.966,0-1.848.462-1.848,1.554,0,1.932-1.428,2.268-5.418,2.268-3.4,0-4.284-.336-4.368-1.806,0-.462.042-3.36.042-4.536a1.894,1.894,0,0,0-2.016-1.806,1.917,1.917,0,0,0-2.016,1.848c0,.336-.042.756-.042,4.914,0,3.528,1.764,4.788,8.274,4.788C47.418,2.478,50.022,1.512,50.022-3.108ZM31.122-5.04a2.1,2.1,0,0,0-2.1-1.89,1.71,1.71,0,0,0-1.638,1.092,10.783,10.783,0,0,1-3.99,3.822A2.065,2.065,0,0,0,21.924-.21,2.144,2.144,0,0,0,24.15,1.722C26.376,1.722,31.122-2.982,31.122-5.04Zm3.4-11.172c.042-.546.5-.63,2.436-.63,2.478,0,2.52,0,2.52,1.386,0,1.3-.21,1.428-2.184,1.428-2.52,0-2.772-.168-2.772-.714Z" transform="translate(89.574 88.634)" fill="#fff"/><path d="M-37.375-16.175c.9.9,2.225-.725,1.175-1.675a8.305,8.305,0,0,0-2.625-1.3c-1.2-.325-2,1.275-.7,1.7A8.728,8.728,0,0,1-37.375-16.175ZM-39.55-13.85c.875.925,2.225-.65,1.2-1.625a8.011,8.011,0,0,0-2.55-1.4c-1.175-.375-2.075,1.175-.775,1.65A8.609,8.609,0,0,1-39.55-13.85Zm2.45,5.125a10.364,10.364,0,0,0-4.45-4.75c-1.55-.9-2.65.975-1.425,1.65a8.977,8.977,0,0,1,3.575,4.3C-38.725-5.975-36.475-7.075-37.1-8.725Zm-12.325-4.35A32.94,32.94,0,0,0-48.7-16.6c.2-1.675-2.35-1.825-2.525-.2A26.69,26.69,0,0,1-52-12.825l-1.25.125c-.9.075-1.675.05-2.45.125a1.2,1.2,0,1,0,.075,2.4,16.961,16.961,0,0,0,2.7-.35l.3-.05A24.121,24.121,0,0,1-57.05-2.45c-1.625,1.825.975,3.275,2.175,1.575a36.837,36.837,0,0,0,4.85-10.05c.4-.05.775-.1,1.15-.125,1.15-.1,1.675.625,1.675,2.15A11.159,11.159,0,0,1-48-4.575c-.7,1.475-1.75,1.7-3.175,1.35C-52.7-3.6-53.5-1.3-51.525-.725a4.846,4.846,0,0,0,5.875-3A14.89,14.89,0,0,0-44.8-9.3c-.1-2.8-1.7-4.025-3.8-3.85ZM-14.4-16.35a1.208,1.208,0,0,0,.475-.925,1.24,1.24,0,0,0-1.175-1.25,1.237,1.237,0,0,0-.825.375,11.769,11.769,0,0,1-2.75,1.925.834.834,0,0,0-.525.775,1.148,1.148,0,0,0,1.1,1.125C-17.175-14.325-14.4-16.35-14.4-16.35Zm-.325,7.2a1.2,1.2,0,0,0,1.15-1.225,1.422,1.422,0,0,0-.575-1.1c-.375-.275-2.525-1.675-3.675-1.675A1.119,1.119,0,0,0-19-12.125a.943.943,0,0,0,.7.875A10.425,10.425,0,0,1-15.575-9.5,1.351,1.351,0,0,0-14.725-9.15Zm-8.325-8.775a5.555,5.555,0,0,0,.4-1.45,1.179,1.179,0,0,0-1.275-1.05,1.129,1.129,0,0,0-1.175.95c-.075.475-.2,1.1-.325,1.575-.325,0-.6.025-.8.025a1.9,1.9,0,0,0-2,1.875c-.025.6-.025,1.525-.025,2.475,0,.925,0,1.875.025,2.5.075,1.95,1.95,1.975,3.75,1.975,1.025,0,2.175-.05,2.725-.1a2.014,2.014,0,0,0,2-2c.025-.475.05-1.075.05-1.725,0-1.1-.05-2.3-.075-3.2C-19.825-17.925-21.825-17.925-23.05-17.925ZM-30.2-14.5a1.223,1.223,0,0,0,1.125-1.275,1.279,1.279,0,0,0-.425-.95s-2.275-1.825-3.325-1.825a1.248,1.248,0,0,0-1.2,1.175.859.859,0,0,0,.525.775,14.953,14.953,0,0,1,2.525,1.775A1.167,1.167,0,0,0-30.2-14.5Zm15.725,9.375a1.009,1.009,0,0,0,1.05-1.05A1.015,1.015,0,0,0-14.5-7.225h-8.35v-.75a1.071,1.071,0,0,0-1.175-1.05,1.058,1.058,0,0,0-1.175,1.1l.025.7h-8.25A1.015,1.015,0,0,0-34.5-6.175a1.009,1.009,0,0,0,1.05,1.05h.025l7.075-.15a25.04,25.04,0,0,1-7.7,4.45,1.123,1.123,0,0,0-.825,1A1.2,1.2,0,0,0-33.625,1.3c.875,0,5.575-2.425,8.475-5L-25.2.9V.925c0,.625.575.95,1.175.95A1.056,1.056,0,0,0-22.85.925V.9l-.05-4.65c3.2,2.7,7.425,4.875,8.325,4.875A1.476,1.476,0,0,0-13.1-.225a1.026,1.026,0,0,0-.775-.975A28.4,28.4,0,0,1-21.8-5.275l7.3.15Zm-14.9-5.85a1.094,1.094,0,0,0,.475-.9,1.029,1.029,0,0,0-.95-1.075,1.036,1.036,0,0,0-.5.15,12,12,0,0,1-3.625,1.6,1.07,1.07,0,0,0-.775,1.025,1.156,1.156,0,0,0,1.15,1.2A12.173,12.173,0,0,0-29.375-10.975Zm3.15-3.475c0-1.425,0-1.775.775-1.825.25-.025.875-.025,1.5-.025,2.075,0,2.1.075,2.125.65,0,.325.025.75.025,1.2Zm4.425,1.725c0,1.45,0,1.9-.675,1.95-.25.025-.85.025-1.475.025-1.625,0-2.2,0-2.25-.675-.025-.3-.025-.75-.025-1.3ZM7.85-2.3A1.39,1.39,0,1,0,6.125-4.475C1.775-1.05-2.675-.8-2.825-4.45a69.33,69.33,0,0,1,.45-7.35c.125-1.675.3-4.05.35-5.625.05-1.65-2.775-1.8-2.725.05.05,1.55-.125,4-.2,5.625-.125,2.65-.4,4.775-.3,7.4C-5.025,2.4,2.975,1.675,7.85-2.3Zm15.4-2.725c.075.05.125.075.2.125a1.2,1.2,0,0,0,1.65-.25,1.071,1.071,0,0,0-.175-1.55,3.675,3.675,0,0,1-.325-.25A28.179,28.179,0,0,0,27.15-12c.1-.25.175-.5.25-.725a4.411,4.411,0,0,1,3.225,3.35C31.225-7,30.25-4.125,25.9-2.8c-2.175.65-.95,3.025.95,2.325,4.325-1.55,7.4-5,6.1-9.625a6.365,6.365,0,0,0-5.025-4.525,17.162,17.162,0,0,0,.35-2.65c.1-1.825-2.5-2.025-2.475-.275a15.324,15.324,0,0,1-.325,2.7A10.268,10.268,0,0,0,21.2-13.8a4.958,4.958,0,0,0-.5.275,4.354,4.354,0,0,1-.125-.55,17.856,17.856,0,0,1-.25-2.075c-.1-1.775-2.925-1.8-2.5.275.1.525.35,1.675.475,2.175.125.55.3,1.1.475,1.625C16.7-10.1,15.5-7.35,16.025-4.95c.675,3.15,3.3,4.25,6.25,1.075C22.6-4.225,22.925-4.6,23.25-5.025Zm1.75-7.9c-.025.125-.075.25-.1.35a19.858,19.858,0,0,1-1.95,4.05,11.006,11.006,0,0,1-1.7-3.05,4.37,4.37,0,0,1,.725-.45A8.047,8.047,0,0,1,25-12.925Zm-3.4,6.4A15.478,15.478,0,0,1,20.4-5.1c-.7.725-1.875,1.275-2.25-.675a5.505,5.505,0,0,1,1.4-4.2A13.843,13.843,0,0,0,21.6-6.525ZM50.25-1.85A3.547,3.547,0,0,0,46.3-5.225c-2.95.1-4.125,3.2-1.475,4.925,1.9,1.25,5.8,1.15,8.275-.625,2.625-1.9,3.8-6.3.2-8.45a7.66,7.66,0,0,0-7.025.075c.9-.875,1.9-1.775,2.9-2.7s2-1.9,2.8-2.8c1.25-1.4-.4-3.175-2.4-2.6a38.656,38.656,0,0,1-5.5,1.225c-1.7.2-1.325,2.675.65,2.25a20.028,20.028,0,0,0,4.2-1.275c.2-.1.45-.2.175.15a88.565,88.565,0,0,1-7.55,8.075C40-5.45,42.5-3.975,43.4-5.3a5.5,5.5,0,0,1,2.1-1.875c2.525-1.475,5.225-1.3,6.525-.425,1.425.95,1.5,3.325-.325,4.95A3.369,3.369,0,0,1,50.25-1.85Zm-2.125.375a4.5,4.5,0,0,1-2.1-.375c-.8-.425-.75-1.45.35-1.55S48.15-2.625,48.125-1.475Z" transform="translate(87.251 122.786)" fill="#fff"/></g><path d="M33.18,11.262H21.833a.655.655,0,0,0-.656.656V13.3a.656.656,0,0,0,.544.647c2.643.456,3.006,1.394,3.006,2.343,0,.911-.714,2.845-2.673,5.65A27.6,27.6,0,0,0,16.2,14.749c3.486-2.226,5.251-4.793,5.251-7.639C21.449,2.922,18.17,0,13.474,0,8.251,0,4.46,3.538,4.46,8.409c0,2.336.9,4.325,2.983,6.535C2.369,18.088,0,21.449,0,25.472c0,5.51,4.378,9.664,10.183,9.664,3.248,0,6.547-1.447,10.066-4.421,2.077,3.716,4.851,4.421,9.381,4.421.946,0,2.017,0,3.209-.088a.655.655,0,0,0,.608-.655v-3.2a.657.657,0,0,0-.656-.656c-.235,0-.466.012-.694.023-.194.01-.384.02-.562.02-4.063,0-5.627-.924-7.3-4.437a52.388,52.388,0,0,0,4.069-7.3A23.209,23.209,0,0,1,29.448,16.6a5.386,5.386,0,0,1,3.877-2.657.653.653,0,0,0,.511-.64V11.918a.654.654,0,0,0-.656-.656M13.215,4.084c2.111,0,3.373,1.163,3.373,3.113,0,1.82-1.264,3.486-3.753,4.954-2.362-1.47-3.512-2.98-3.512-4.606,0-2.071,1.565-3.461,3.892-3.461m-2.733,13.5a25.659,25.659,0,0,1,7.607,9.2c-2.124,2.145-4.149,3.187-6.173,3.187a5.777,5.777,0,0,1-5.8-5.882c0-2.653,1.465-4.835,4.363-6.5" transform="translate(342.463 725.116)" fill="#02805b"/><path d="M33.18,11.262H21.833a.655.655,0,0,0-.656.656V13.3a.656.656,0,0,0,.544.647c2.643.456,3.006,1.394,3.006,2.343,0,.911-.714,2.845-2.673,5.65A27.6,27.6,0,0,0,16.2,14.749c3.486-2.226,5.251-4.793,5.251-7.639C21.449,2.922,18.17,0,13.474,0,8.251,0,4.46,3.538,4.46,8.409c0,2.336.9,4.325,2.983,6.535C2.369,18.088,0,21.449,0,25.472c0,5.51,4.378,9.664,10.183,9.664,3.248,0,6.547-1.447,10.066-4.421,2.077,3.716,4.851,4.421,9.381,4.421.946,0,2.017,0,3.209-.088a.655.655,0,0,0,.608-.655v-3.2a.657.657,0,0,0-.656-.656c-.235,0-.466.012-.694.023-.194.01-.384.02-.562.02-4.063,0-5.627-.924-7.3-4.437a52.388,52.388,0,0,0,4.069-7.3A23.209,23.209,0,0,1,29.448,16.6a5.386,5.386,0,0,1,3.877-2.657.653.653,0,0,0,.511-.64V11.918a.654.654,0,0,0-.656-.656M13.215,4.084c2.111,0,3.373,1.163,3.373,3.113,0,1.82-1.264,3.486-3.753,4.954-2.362-1.47-3.512-2.98-3.512-4.606,0-2.071,1.565-3.461,3.892-3.461m-2.733,13.5a25.659,25.659,0,0,1,7.607,9.2c-2.124,2.145-4.149,3.187-6.173,3.187a5.777,5.777,0,0,1-5.8-5.882c0-2.653,1.465-4.835,4.363-6.5" transform="translate(553.724 725.116)" fill="#02805b"/></g></svg>