<svg xmlns="http://www.w3.org/2000/svg" width="39.287" height="39.287" viewBox="0 0 39.287 39.287"><path d="M0,0H39.287V39.287H0Z" fill="none"/><path d="M10.736,27.963a3.245,3.245,0,1,0,3.245,3.245A3.241,3.241,0,0,0,10.736,27.963ZM1,2V5.245H4.245l5.842,12.316L7.9,21.537A3.137,3.137,0,0,0,7.491,23.1a3.255,3.255,0,0,0,3.245,3.245H30.209V23.1H11.418a.4.4,0,0,1-.406-.406l.049-.195,1.46-2.645H24.61a3.23,3.23,0,0,0,2.84-1.671L33.259,7.647a1.585,1.585,0,0,0,.195-.779,1.627,1.627,0,0,0-1.623-1.623h-24L6.306,2H1ZM26.963,27.963a3.245,3.245,0,1,0,3.245,3.245A3.241,3.241,0,0,0,26.963,27.963Z" transform="translate(-1 1.416)" fill="#00593f"/></svg>