<svg xmlns="http://www.w3.org/2000/svg" width="26" height="26" viewBox="0 0 26 26"><g transform="translate(0 -0.154)"><g transform="translate(0 -0.138)"><circle cx="13" cy="13" r="13" transform="translate(0 0.292)" fill="#1b9df0"/></g><g transform="translate(5.877 7.448)"><path d="M94.529,127.014a8.928,8.928,0,0,0,8.989-8.989c0-.138,0-.275-.007-.406a6.472,6.472,0,0,0,1.579-1.638,6.412,6.412,0,0,1-1.815.5,3.157,3.157,0,0,0,1.389-1.749,6.4,6.4,0,0,1-2,.767,3.161,3.161,0,0,0-5.464,2.162,2.9,2.9,0,0,0,.085.721,8.962,8.962,0,0,1-6.512-3.3,3.158,3.158,0,0,0,.983,4.213,3.1,3.1,0,0,1-1.428-.393v.039a3.163,3.163,0,0,0,2.536,3.1,3.15,3.15,0,0,1-.832.111,3.016,3.016,0,0,1-.6-.059,3.154,3.154,0,0,0,2.948,2.195,6.351,6.351,0,0,1-3.925,1.35,5.744,5.744,0,0,1-.753-.046,8.8,8.8,0,0,0,4.829,1.428" transform="translate(-89.7 -114.5)" fill="#fff"/></g></g></svg>