<svg xmlns="http://www.w3.org/2000/svg" width="170.351" height="164.784" viewBox="0 0 170.351 164.784"><g transform="translate(0 0)"><path d="M120.315,61.33A58.983,58.983,0,1,1,61.332,2.347,58.983,58.983,0,0,1,120.315,61.33" transform="translate(23.843 0.822)" fill="#fff"/><path d="M56.4,16.884c.315-.169.315-.644.8-.644a.619.619,0,0,1,.149-.485c.467,0,.147-.321.467-.481,0-.331.163-.643-.146-.811-.47-.158-.8.328-1.275.481-.464.49-.782,1.129-1.268,1.771a.889.889,0,0,0,.32.641c.309-.158.628-.32.948-.473" transform="translate(42.327 5.055)" fill="#00593f"/><path d="M63.353,37.911l-.153-.163a.692.692,0,0,0-.331-1.122c-.786.64-.306,1.773-.464,2.579a3.372,3.372,0,0,1,.639,1.284c.157.96-.481,1.769,0,2.733,0,.159.157.159.309.159.163-.159.643-.159.473-.478,1.122-1.289.312-3.224-.625-4.352,0-.153-.157-.473.153-.64" transform="translate(44.873 12.827)" fill="#00593f"/><path d="M60.8,23.4a3.732,3.732,0,0,0,1.735.969c.319.159.319.49.464.652a.809.809,0,0,0,.639-.328c.158-.165-.151-.483.158-.483a.6.6,0,0,0,.953-.17c0-.157,0-.32-.163-.32.327-.477.784-.32,1.113-.477.155-.809-.64-1.451-.157-2.1.473.335.312.806.639,1.136.775.327.946-.486.775-1.136,0-.155.171-.155.327-.155.315.321.485.49.778.8,0,.323,0,.813-.293.968,0,.15-.17.32-.324.483h-.316c-.946,1.126-2.378,1.616-3.489,2.415a5.3,5.3,0,0,0-1.588.163v.482a.876.876,0,0,1,.485.8c.15.159.319.32.464.479v.32a18.463,18.463,0,0,0,2.542,2.424,2.732,2.732,0,0,0,1.585,0v-.485c-.32-.32-.946-.978-.489-1.45.8.8,2.224,1.935,3.182,1.13-.167-.166-.167-.493-.477-.658h-.319c-.305-.309-.475-.473-.8-.8,0-.163,0-.323.159-.323.474.477,1.113.323,1.433.811a4.626,4.626,0,0,0,1.424.149c.153,0,.153-.149.153-.312-.468-.809-1.265-1.129-1.9-1.78a.6.6,0,0,1,.482-.154c.947.8,1.885,1.608,2.839,2.406,0,.332-.321.332-.321.491s0,.327.161.327h.309A4.443,4.443,0,0,0,74.093,28.4a2.872,2.872,0,0,1,.319-1.129c0-.159,0-.328-.166-.328l.166-.165a4.412,4.412,0,0,1-.319-1.439c-1.748-2.256-3.812-4.194-5.545-6.442a7.394,7.394,0,0,0-3.964-4.5c-.948,0-2.051-.485-3,0-.783.157-1.269.969-1.906,1.45a.883.883,0,0,1-.467.809c-.478,2.243-.639,4.984,1.1,6.592.155-.163.321.327.486.157" transform="translate(43.642 4.966)" fill="#00593f"/><path d="M59.759,44.351c.8.651,1.044-.821,1.269-1.445a4.684,4.684,0,0,0-.333-3.863c.169-.641-.135-1.292,0-1.934-.135-.481-.466-.651-.936-.32,0,.161,0,.32-.166.32a7.334,7.334,0,0,0,.636,3.212,5.979,5.979,0,0,0-.47,4.029" transform="translate(43.88 12.824)" fill="#00593f"/><path d="M66.218,33.589a.6.6,0,0,0,.149-.481l-.149-.154c-.163-.482.294-.81-.163-.979v-.312c-.639-.327-1.268-.963-1.9-1.283-.96,0-1.423-.8-2.067-1.449a6.156,6.156,0,0,0-2.376-3.872c0,.165-.157.165-.3.165a.589.589,0,0,1-.17.493c0,.161,0,.32.17.32l-.17.153a10.734,10.734,0,0,1,2.052,4.028,1.631,1.631,0,0,0,.635.8h.319c.165.157.165.157.315.319.632,0,.953.479,1.592.479a1.534,1.534,0,0,0,.636.814v.324c.146,0,.316,0,.316.154.142.481,0,1.131.313,1.612l-.171.167c.483.8-.312,2.42.973,2.73.149-.166.149-.166.294-.311a10.18,10.18,0,0,1,0-2.108c-.458-.479.169-1.122-.294-1.611" transform="translate(43.765 8.776)" fill="#00593f"/><path d="M53.09,45.927a1.335,1.335,0,0,0-1.114.323,1.117,1.117,0,0,0,.639,1.285c.174-.327.631-.159.631-.483a.8.8,0,0,0-.155-1.125" transform="translate(41.208 16.084)" fill="#00593f"/><path d="M53.183,48.786c-.319.319,0,.8-.159,1.127a.668.668,0,0,0,.791.323c.793-.166.478-.969.308-1.45Z" transform="translate(41.589 17.085)" fill="#00593f"/><path d="M62.027,37.837l-.15-.163.15-.159c-.15-.323-.15-.8-.776-.643-.491.478-.177,1.133-.491,1.605a9.541,9.541,0,0,0,.633,2.262c0,.321.159.636-.142.8l.142.159c-.142.329,0,.648-.319.959l.177.171-.177.161c.319.644.319,1.773,1.268,1.123v-.479a10.137,10.137,0,0,0,.316-3.062c-.631-.641-.462-1.605-.78-2.41,0-.157,0-.324.15-.324" transform="translate(44.298 12.902)" fill="#00593f"/><path d="M51.121,21.685c.319-.165.478-.483.635-.64a.86.86,0,0,0,.784-.49,4.746,4.746,0,0,1,3.319-.321c.174-.316.49-.158.631-.158a1.33,1.33,0,0,0,.813.313c1.256,1.131,2.848,1.773,3.959,3.073.147.478.945.478.945,1.117.466.166,1.258.327,1.258-.478a10.016,10.016,0,0,0-2.37-2.749c-.478-.15-.783-.633-1.273-.8H59.5c-.146,0-.146-.166-.146-.321h-.321a5.893,5.893,0,0,0-4.276-1.6c0,.32-.47,0-.47.32a6.794,6.794,0,0,0-2.534.968H51.44c-.475.316-1.113.8-1.113,1.434.158.333.479.333.794.333" transform="translate(40.644 6.525)" fill="#00593f"/><path d="M57.567,34.448a10.4,10.4,0,0,0-1.589-.969c-.629-.971-1.589-1.6-2.22-2.571-.32-.161-.775-.161-1.108-.475a1.777,1.777,0,0,0-1.265.475v.317A7.808,7.808,0,0,1,54.7,33.975c.79.474,2.233,1.595,2.869.474" transform="translate(41.014 10.658)" fill="#00593f"/><path d="M50.939,29.408c.154,0,.32,0,.32.153,2.374-.809,3.8,1.782,5.383,3.055a.943.943,0,0,1,.8.489h.308a2.249,2.249,0,0,0,.317.313h.319a1.88,1.88,0,0,0,2.055.329v-.329c-.17-.151-.325-.313-.489-.477a13.134,13.134,0,0,1-5.694-4.5.808.808,0,0,0-.631-.325c-1.424-.64-2.694,0-4.114.158-.163.167-.323.332-.487.479,0,.323.324.493.487.656.471-.163.951.321,1.42,0" transform="translate(40.19 9.748)" fill="#00593f"/><path d="M55.352,47.118a1.321,1.321,0,0,0-1.272.478c.324.487.324,1.287,1.1.96a.894.894,0,0,0,.177-1.438" transform="translate(41.959 16.501)" fill="#00593f"/><path d="M52.829,32.663c-.786-.8-1.9-.653-2.849-.8,0,.323-.477,0-.477.323v.325c.8.644,1.75.644,2.69,1.113.166,0,.166.173.166.331a2.683,2.683,0,0,0,1.109.159c.306-.159.173-.49.173-.8-.332-.158-.49-.489-.811-.645" transform="translate(40.356 11.157)" fill="#00593f"/><path d="M50.727,78.751a.422.422,0,0,0-.178-.18.34.34,0,0,0,.178.18" transform="translate(40.722 27.516)" fill="#00593f"/><path d="M28.709,31.485a15.027,15.027,0,0,0-1.735-.811c-1.109-.158-1.9.478-3.01.478a4.238,4.238,0,0,0-.316.333c-.474-.167-.793.147-1.115.317,0,.319,0,.8.471.632.644-.632,1.591-.477,2.379-.8.8.17,1.74-.315,2.54.325.317,0,.786.163,1.1-.155a.633.633,0,0,0-.146-.485Z" transform="translate(30.911 10.733)" fill="#00593f"/><path d="M50.915,80.16l.163-.146c-.115,0-.13.063-.163.146" transform="translate(40.85 28.021)" fill="#00593f"/><path d="M54.891,50.289v.8c.177.327.645.327.955.327.174-.161.317-.327.493-.477v-.335a.845.845,0,0,0-1.447-.317" transform="translate(42.243 17.513)" fill="#00593f"/><path d="M50.1,86.58l.143.15a.137.137,0,0,0-.143-.15" transform="translate(40.567 30.32)" fill="#00593f"/><path d="M51.069,86.128l-.154-.154c0,.107.047.136.154.154" transform="translate(40.85 30.108)" fill="#00593f"/><path d="M44.819,86.963l.135-.139a.3.3,0,0,0-.135.139" transform="translate(38.715 30.406)" fill="#00593f"/><path d="M26.224,34.787c-.464,0-.779-.328-1.1-.494-.478,0-.8-.479-1.266,0l-.169-.144-.144.144-.161-.144c-.473.311-1.1,0-1.433.469,0,.17,0,.319.17.319a.519.519,0,0,1,.459.171l.162-.171c1.115.335,2.707.335,3.332,1.626a2.8,2.8,0,0,0,.946,2.41c.162,0,.312,0,.312-.169l.165.169c.786-.973-.64-2.093-.477-3.227a4.378,4.378,0,0,1-.793-.957" transform="translate(30.706 11.935)" fill="#00593f"/><path d="M50.95,79.777c-.108,0-.134.073-.134.162a.154.154,0,0,0,.134-.162" transform="translate(40.816 27.938)" fill="#00593f"/><path d="M47.343,27.526a3.723,3.723,0,0,0-2.849.963c-.317-.158-.483.167-.632.167-.636.633-1.738,1.121-1.738,2.251.147,0,.312,0,.312.153A35.643,35.643,0,0,0,45.6,29.14a2.266,2.266,0,0,0,.94-.32h3.32c.338-.332,0-.81.171-1.295a3.171,3.171,0,0,0-2.694,0" transform="translate(37.772 9.534)" fill="#00593f"/><path d="M36.626,25.375a.807.807,0,0,1,.631-.335c.475-.477,1.1-.637,1.581-1.117v-.332c0-.313-.477,0-.477-.313l-.159.154-.161-.154c-.146,0-.309,0-.309.154-.475-.154-.475.159-.641.324h-.308c-.482.487-1.121.647-1.589,1.13-.644.154-1.269,0-1.74.325L33.3,25.04a.551.551,0,0,0-.475.171c-.953-.489-1.9-.648-2.849-1.129-.163,0-.475-.159-.635.161.471,1.131,1.743,1.28,2.7,1.932l.157-.159a3.542,3.542,0,0,0,3.952-.167c0-.325.482-.165.482-.474" transform="translate(33.294 8.152)" fill="#00593f"/><path d="M46.014,25.251l.149.149a2.337,2.337,0,0,0,2.549-1.28,6.936,6.936,0,0,0-4.438,0,.548.548,0,0,1-.466-.161l-.169.161c-.158,0-.315,0-.315-.161-.471.481-1.106,0-1.593-.327l-.146.167-.169-.167-.143.167-.173-.167c-.15,0-.306,0-.306.167a2.873,2.873,0,0,0-2.7.963c-.626,0-.946.8-1.268,1.289-.621.639-1.26,1.127-1.89,1.765h-.325a.765.765,0,0,0-.158,1.293,1.938,1.938,0,0,0,.948-.162c.641-.967,1.6-1.454,2.067-2.41C39.842,24.6,43.005,24.6,45.853,25.4Z" transform="translate(34.984 8.276)" fill="#00593f"/><path d="M39.621,31.377c0,.17-.158.17-.321.17s-.313-.17-.474-.17c-.157.17-.157.651-.474.489-.146.643-.8,1.453,0,1.923.159,0,.317,0,.317-.143l.157.143c.316-.311.8-.311,1.118-.8.142-.639.458-1.285-.323-1.611" transform="translate(36.315 10.989)" fill="#00593f"/><path d="M29.421,26.19a1.565,1.565,0,0,1-1.74-.633c-.481,0-.787-.166-1.279.161-.135.8.491,1.115,1.133,1.439a2.1,2.1,0,0,1,2.209.813c.15-.167.316.319.47.154a.877.877,0,0,0,.8.483c.158.165.305.321.477.478.632,0,1.419.479,1.9-.157v-.321a1.452,1.452,0,0,0-1.119-.483,29.158,29.158,0,0,1-2.849-1.933" transform="translate(32.259 8.936)" fill="#00593f"/><path d="M29.508,31.112c.79-.5.316-1.454-.157-1.935-.624-.163-1.265-.655-1.892-.655a4.668,4.668,0,0,0-3.178.976h-.324a3.693,3.693,0,0,1-.317.316h-.315c-.144.485-.624.8-.144,1.3,1.58,0,2.844-1.781,4.588-1.14a4.109,4.109,0,0,0,1.9,1.3A3.238,3.238,0,0,0,29.987,34v.331c.311.327.786.959,1.265.641-.166-1.453-.166-3.382-1.744-3.858" transform="translate(31.065 9.979)" fill="#00593f"/><path d="M56.593,65.256c.317.328.787.328,1.269.487,0-.159.144-.159.32-.159v-.328c-1.589-1.122-3.493-1.445-4.917-2.73-.158.165-.311-.327-.479-.169-1.1-.807-1.9-1.927-3.161-2.249a2.809,2.809,0,0,0,.157,1.129c1.584,2.26,4.272,3.226,6.812,4.02" transform="translate(40.398 21.05)" fill="#00593f"/><path d="M21.609,65.391l.147-.157a.144.144,0,0,0-.147.157" transform="translate(30.587 22.845)" fill="#00593f"/><path d="M84.595,53.2a.169.169,0,0,0-.088.1.455.455,0,0,1,.1-.073.319.319,0,0,0-.016-.031" transform="translate(52.614 18.63)" fill="#00593f"/><path d="M75.783,60.949l.14.143c0-.092-.062-.13-.14-.143" transform="translate(49.559 21.345)" fill="#00593f"/><path d="M37.437,64.913A1.667,1.667,0,0,0,38.7,66.361c.475-.161.313-.325.313-.483-.313-.485-.949-1.446-1.572-.964" transform="translate(36.13 22.687)" fill="#00593f"/><path d="M39.994,65.723c-.312-.321-.635-.639-.955-.969-.159,0-.313,0-.313.169-.162.8.633,1.288,1.268,1.607.317.161.317-.319.46-.483.485.165.625.8,1.279.8.157,0,.157-.158.315-.158v-.479c-.633-.487-1.109-1.288-1.908-1.288,0,.331.171.64-.146.8" transform="translate(36.574 22.677)" fill="#00593f"/><path d="M69.466,51.659a1.346,1.346,0,0,0-.115.135c.078-.018.1-.065.115-.135" transform="translate(47.306 18.091)" fill="#00593f"/><path d="M71.347,62.659,71.2,62.5c.022.089.059.159.147.159" transform="translate(47.954 21.888)" fill="#00593f"/><path d="M47.246,58.926c.455.481.934.481,1.414.8a.878.878,0,0,0,.306-.647c-.479-.319-.627-.956-1.265-1.113a12.683,12.683,0,0,0-6.639-5.322c-.324-.478-.951-.32-1.437-.643,0,.323-.466,0-.317.323.174.163.174.483.486.647.146-.163.317.329.46.163.171.166.329.315.483.482a6.85,6.85,0,0,1,2.854,1.446c1.266,1.285,2.378,2.568,3.654,3.864" transform="translate(36.775 18.211)" fill="#00593f"/><path d="M74.771,64.441l-.169-.154a.151.151,0,0,0,.169.154" transform="translate(49.145 22.513)" fill="#00593f"/><path d="M72.492,62.852c.018.089.038.158.151.158-.012-.09-.039-.158-.151-.158" transform="translate(48.406 22.011)" fill="#00593f"/><path d="M73.441,63.806a.347.347,0,0,0-.2.05.39.39,0,0,0-.031.194v.085l.15.155a.6.6,0,0,0,.157-.478.309.309,0,0,0-.072-.007" transform="translate(48.656 22.345)" fill="#00593f"/><path d="M72.266,63.207a.161.161,0,0,0,.143.169c-.005-.1-.05-.162-.143-.169" transform="translate(48.327 22.135)" fill="#00593f"/><path d="M72.482,61.657l.166.154c-.019-.093-.05-.154-.166-.154" transform="translate(48.403 21.592)" fill="#00593f"/><path d="M58.763,39.039c.647.474.49,1.114.49,1.761,0,.169-.171.169-.327.169a9.981,9.981,0,0,0,0,4.831,43.3,43.3,0,0,1-.629,7.723c.32.323,0,.806.147,1.133.319.309.319.806.482,1.123,1.595,2.41,4.746,4.179,4.912,7.241-.478.8-.478,1.765-1.268,2.413-.163,1.122-1.1,2.731,0,3.382a9.7,9.7,0,0,0,.486-2.26c.135-.324.3-.637.469-.96a4.151,4.151,0,0,0,1.416-3.706c-.151-.157-.151-.157-.316-.321v-.32c-.159-.154-.159-.487-.462-.64v-.325a2.95,2.95,0,0,1-.325-.324v-.316c-.166,0-.166,0-.313-.158-1.118-1.62-2.366-2.749-3.492-4.188-1.107-2.256-.157-4.669,0-6.928.167-.482-.157-1.127.167-1.6.154-1.931-.167-3.708-.167-5.637a2.425,2.425,0,0,0,.321-2.087c-.154-.165-.154-.165-.321-.331-.157-.639-.78-1.608-1.416-1.608a21.727,21.727,0,0,0-1.739,2.413c-1.129.81-1.585,1.936-2.549,2.744-.624.641-1.26.959-1.889,1.615.474,1.11,1.749-.329,2.538-.493,0-.163,0-.323.14-.323.956-.319,1.277-1.119,1.9-1.771v-.316c0-.169.174-.169.32-.169v-.319c.475-.469.8-1.134,1.42-1.442" transform="translate(41.384 12.993)" fill="#00593f"/><path d="M72.022,63.449l.157.154c-.015-.093-.043-.154-.157-.154" transform="translate(48.242 22.22)" fill="#00593f"/><path d="M71.829,64.082l-.15-.151a.145.145,0,0,0,.15.151" transform="translate(48.122 22.389)" fill="#00593f"/><path d="M73.113,64.564V64.4h-.15Z" transform="translate(48.572 22.553)" fill="#00593f"/><path d="M25.441,58.2a.708.708,0,0,0,.163,1.285c.471,0,.471-.483.471-.809-.162-.154-.325-.477-.635-.477" transform="translate(31.811 20.383)" fill="#00593f"/><path d="M24.229,58.674c-.464.325,0,.817,0,1.122h.635c.17-.153.17-.471.17-.8-.17-.325-.483-.325-.8-.325" transform="translate(31.432 20.548)" fill="#00593f"/><path d="M26.056,58.26a2.228,2.228,0,0,0,.144.96c.181,0,.316,0,.316.161l.174-.161c.151,0,.151-.158.317-.158,0-.479-.317-1.453-.952-.8" transform="translate(32.145 20.327)" fill="#00593f"/><path d="M52.6,55h.79c0-.477.159-.8-.161-1.276a.8.8,0,0,0-1.268.474,1.235,1.235,0,0,0,.321.8Z" transform="translate(41.218 18.755)" fill="#00593f"/><path d="M22.426,48.551l-.15.153c-.068,0-.117,0-.159,0v0a1.969,1.969,0,0,0-.169.965c.478.327.79.483,1.262,0,.169-.64-.3-.965-.784-1.118" transform="translate(30.706 17.003)" fill="#00593f"/><path d="M27.291,57.969c-.335.331-.173.653-.173.967,0,.166.173.166.319.166a.585.585,0,0,0,.478-.166c0-.159,0-.313.157-.313,0-.485-.325-.807-.78-.653" transform="translate(32.503 20.287)" fill="#00593f"/><path d="M50.722,53.383c.154,0,.154-.166.32-.166a1.07,1.07,0,0,0-.479-1.453.951.951,0,0,0-.79,1.453,1.919,1.919,0,0,0,.949.166" transform="translate(40.407 18.128)" fill="#00593f"/><path d="M31.572,58.29a2.2,2.2,0,0,0,.313.96l.157-.158.157.158c.473-.324.157-.8.157-1.291-.313,0-.635,0-.783.331" transform="translate(34.076 20.297)" fill="#00593f"/><path d="M28.963,57.856c-.475-.165-.635.154-.786.486s.311.477.311.8a.562.562,0,0,0,.475-.166c0-.158,0-.313.163-.313,0-.163,0-.321-.163-.321l.163-.162c-.163,0-.163-.17-.163-.324" transform="translate(32.875 20.246)" fill="#00593f"/><path d="M34.469,58.2a1.186,1.186,0,0,0-.794.323c0,.313,0,.637.317.8H34.3c.165,0,.165-.319.478-.319,0-.325,0-.643-.313-.8" transform="translate(34.813 20.383)" fill="#00593f"/><path d="M35.369,58.321c-.32.317-.154.643-.154.963a.556.556,0,0,0,.475.165c.469,0,.469-.485.469-.81-.161-.317-.469-.317-.79-.317" transform="translate(35.337 20.424)" fill="#00593f"/><path d="M32.912,58.091c-.323.32-.166.639-.166.964,0,.158.166.158.313.158a.611.611,0,0,0,.489-.158c0-.481,0-1.133-.636-.964" transform="translate(34.474 20.334)" fill="#00593f"/><path d="M36.891,64.68c-.158,0-.32,0-.32-.159-.794.645.162,1.446.466,2.089h.635A3.044,3.044,0,0,0,36.891,65Z" transform="translate(35.719 22.595)" fill="#00593f"/><path d="M29.974,57.844h-.311c-.324.154-.324.486-.324.807.159.155.165.393.471.313.64-.158.163-.477.47-.635-.307,0,0-.486-.307-.486" transform="translate(33.294 20.257)" fill="#00593f"/><path d="M30.674,57.851a.784.784,0,0,0,.151,1.121.618.618,0,0,0,.485-.158c0-.477,0-1.127-.636-.963" transform="translate(33.702 20.25)" fill="#00593f"/><path d="M62.154,0A62.152,62.152,0,1,0,124.31,62.151,62.155,62.155,0,0,0,62.154,0M60.031,116.893l.162.158h-.317Zm-.305.158v-.327l.15.169Zm.631,0c.158,0,.32,0,.32.157.136-.043.344.084.474-.157,0-.969-1.424-.969-1.905-1.607-.317,0-.162.471-.483.471l.321.32c0,.165-.155.165-.321.165l-1.414-1.451c-.473-.637-.639-1.439-1.111-2.082,0-.967-.464-1.928-.464-3.06.305-.957.305-1.931.631-2.9l.306-.317c-.162-.153.313-.321.166-.485a.888.888,0,0,0,.473-.8,27.178,27.178,0,0,1,2.378-2.264h.305a.771.771,0,0,1,1.119-.154c0,.475.305.8,0,1.291a9.333,9.333,0,0,0-2.688,2.409v.317c-.485.491-.485,1.13-.8,1.616,0,.159,0,.329.159.329-.469.32.161.957-.309,1.279l.15.158-.15.161c.15.319.15.807.618.807,0-.163.162-.163.336-.163a.554.554,0,0,0-.174-.478l.174-.166a4.469,4.469,0,0,1,1.1-3.7c.163,0,.163.153.163.317-.481.327-.32.965-.8,1.451a7.385,7.385,0,0,0,.317,3.694c.161.161.161.486.481.652a.6.6,0,0,1-.163.486c-.479-.329-.479-1.138-.949-1.453h-.325l-.311.315a12.082,12.082,0,0,0,1.429,2.422c.157,0,.32-.325.625-.158,0-.167.162-.49-.155-.658,0-.153.155-.153.317-.153.321.643,1.1.643,1.586,1.125a2.1,2.1,0,0,1,.941.32c1.275-.165,2.708.331,3.644-.635h.324a5.752,5.752,0,0,0,2.056-6.126v-.173l-.157-.146a.371.371,0,0,1,.022-.158l-.181-.161c0-.158.159-.158.159-.32l.157.162v.158c0,.161.162.161.162.319l.157.151h.464a.6.6,0,0,0-.15-.956V106.9c-.155-.317-.471-.8-.949-.639-.166,0-.166.169-.166.321s.166.317.166.482v.327l-.166-.166c-.313-.325-.469-.643-.79-.964l.166-.163c.231,0,.435-.082.613-.015a2.028,2.028,0,0,1,.011-.622c-.469-.652-1.26-.814-1.738-1.446a.589.589,0,0,0-.161-.489l.161-.167-.161-.153c.8-1.129,2.064.475,2.858.968-.316.161-.316.473-.478.635a14.785,14.785,0,0,1,1.419,1.939c0,.317,0,.644.321.806a11.51,11.51,0,0,1,0,4.657,4.556,4.556,0,0,0-.625,1.295,6.829,6.829,0,0,1-7.14,3.384c-.163,0-.305,0-.305.158-.174.477.142.636.464.8a3.087,3.087,0,0,1-2.366-.485c-.158,0-.158-.161-.321-.161Zm-.951-.5h-.161v.171l-.162-.171h.162V116.4ZM54.969,82.6a2.2,2.2,0,0,0,.319,2.42v.323c.485.486.79,1.13,1.26,1.612a1.759,1.759,0,0,0,.64,1.446c0,.806.161,1.933-.951,1.933l-.317.327c-1.426,0-2.856.631-4.275.165a8.995,8.995,0,0,1-2.854-1.777c-.621-.161-1.426-.809-2.216-.325-.157,0-.313,0-.313-.159l-.165.159c-.629-.323-1.1.165-1.732,0a9.379,9.379,0,0,1-2.7-1.605c-1.11-1.607-2.05-3.377-3.32-4.99-.158,0-.473.159-.625-.159l-.165.159a2.421,2.421,0,0,0,.632,1.449v.319c0,.321.475,0,.475.321a11.374,11.374,0,0,0,3.332,4.832c0,.158,0,.319-.169.319a1.659,1.659,0,0,1-1.739,0c-1.58-1.435-2.214-3.7-3.485-5.472-.307.167-.307-.319-.467-.489-1.738-.806-3.647-1.6-5.386-2.414-1.113-.8-.635-1.928.481-2.4h.459c1.909-.969,3.955-1.119,6.031-1.615l.153.166a.555.555,0,0,0,.473-.166c1.271.166,2.532-.324,3.8.166a31.363,31.363,0,0,1,6.82,1.287,20.078,20.078,0,0,1,5.046,3.055c.635,0,.635-.645.635-1.136-1.264-2.243-2.525-5.137-4.908-6.26l-.3-.333c-.641,0-.956-.478-1.592-.478-.154,0-.154-.159-.154-.324a1.165,1.165,0,0,1-.786-.316l-.163.161c0-.319-.475,0-.475-.319a51.773,51.773,0,0,0-6.809-1.458c-.471-.319-1.11,0-1.735-.162-.489-.32-.944-.478-1.118-.964v-.324l-.307-.317v-.32c-.327-.325-.479-.643-.969-.477-.143,1.273-.308,2.4-1.414,3.057H33.6c0,.15,0,.317-.15.317h-.313l-.327.32c-.8,0-1.434.8-2.059,1.126h-.323c-.463.478-1.257.965-1.581,1.608a28.462,28.462,0,0,0-.471,3.374,21.455,21.455,0,0,1,.32,4.511c-.154.483-.32,1.127-.475,1.608a1.657,1.657,0,0,1-1.424.81c-.328-.486-.953-.81-1.109-1.445-.165,0-.324,0-.324-.165a6.816,6.816,0,0,1-.951-3.868,6.709,6.709,0,0,1-1.584-3.373,8.645,8.645,0,0,1,.79-2.249v-.656a55.141,55.141,0,0,1,3.494-4.975c.149.317.477.477.628.636.316,0,.635,0,.8-.319,0-.317.154-.651-.166-.968-.319,0-.635.154-.786-.155a12.723,12.723,0,0,0,1.9-2.094h.153A16.836,16.836,0,0,1,31.372,64.1a14.737,14.737,0,0,1,2.7.163c.635.324.8.969,1.254,1.293.317.153.49-.324.809-.169,1.1-.959,2.372-1.607,3.481-2.414.323,0,.633-.324.94-.162.64-.475,1.591-.313,2.224-.8a22.164,22.164,0,0,1,6.492.636,1.909,1.909,0,0,0,2.06-.151h.316c.79-1.136,2.05-.485,3,0,.174,0,.174.151.174.313a7.545,7.545,0,0,1,2.69.81,28.678,28.678,0,0,1,3.007,3.219h.317a3.561,3.561,0,0,0,1.262.81c1.586,1.283,2.376,3.051,3.637,4.662.47.324.794.964,1.429.8v-.32l-.471-.485c-.324-.482-.487-1.129-.957-1.454-.158-.644-.778-1.288-.626-2.085.155-.317.469-.166.79-.166a2.474,2.474,0,0,0,1.42.485l.324.329c2.221,0,4.743.793,5.7,2.891a4.154,4.154,0,0,0,.139,1.929c.957.807.807,1.938,1.134,3.051a3.011,3.011,0,0,1-1.924,1.773c-.139-.317-.624-.317-.778-.639a3.669,3.669,0,0,1-1.271-.807h-.311l-.473-.479a6.2,6.2,0,0,1-1.6-1.126c-.624,0-1.1-.648-1.738-.491a5.87,5.87,0,0,0-1.42-.639v.639c1.584,1.451,3.64,1.77,5.228,3.226h.311c.332.477.949.477,1.109,1.126h.316c.315.32.793.647.949,1.119h.325c.315.489.946.489,1.273.976h.309c-.309-.487-.166-.976-.486-1.449.486-.481.629-1.13,1.268-1.456.315-.477.169-.961.475-1.446a6.055,6.055,0,0,0-1.566-3.693l.143-.173a4.238,4.238,0,0,0-1.9-4.025h-.308a6.031,6.031,0,0,0-2.54-.956c-.153,0-.153-.166-.153-.317.153-.166.153-.651.473-.5-.473-1.442-.169-3.057-1.11-4.179a3.384,3.384,0,0,0-1.114-2.1,5.49,5.49,0,0,1-1.908-.955h-.47c0-.335-.471,0-.471-.335h-.473c0-.317-.486,0-.486-.317a1.754,1.754,0,0,1-1.26-.482c-.626,0-1.262-.481-1.892-.481l-.319-.32c-.155.151-.317-.328-.475-.161a.878.878,0,0,0-.794-.489c-.157,0-.157-.169-.157-.317h-.323a.858.858,0,0,0-.8-.487c-.471-.474-.94-.8-1.412-1.288A17.551,17.551,0,0,0,55.6,54.276v-.315l-.315-.323v-.324c.157-.311.485-.17.632-.17.483.494,1.429.817,1.738,1.454h.32a14.012,14.012,0,0,0,3.957,2.9l.159-.161c.147.327.463.327.626.487,1.434,0,2.54.639,3.968.479.626-.331,1.574,0,2.056-.64v-.327c0-.324-.482,0-.482-.324a15.139,15.139,0,0,1-3.793.324,8.813,8.813,0,0,1-4.595-2.573c0-.165.155-.165.317-.165,1.418,1.13,3.321,1.13,4.912,1.608.959,0,1.9.163,2.69-.478,0-.17,0-.319.155-.319.159-.325-.155-.482-.155-.647-.635-.165-1.269-.323-1.731.165l-.169-.165-.163.165a.571.571,0,0,1-.471-.165c-1.265.647-2.845,0-4.11-.645.147-.327.46-.157.784-.157,2.853.637,5.7-.957,7.76-2.9.949.163,2.22.969,3,.163v-.319h-.46a4.828,4.828,0,0,0-1.428-.49c-.317-.324-.79-.483-1.109-.8.47-.644,1.281-1.117,1.738-1.773h.32c.479-.313.316-.635.316-1.118-.316-.17-.475.321-.79.149a5.278,5.278,0,0,1-2.371,1.461,4.62,4.62,0,0,1-.957-.8.871.871,0,0,1-.79-.483,3.2,3.2,0,0,1-1.265-.649,3.169,3.169,0,0,1-1.107-.311l-.171.144c-1.736-.963-3.466,0-5.21.324a9.8,9.8,0,0,0-3.169,2.582c-.159,0-.317,0-.317-.165a4.6,4.6,0,0,1,.956-2.575,5.2,5.2,0,0,0,1.586-.166A11.484,11.484,0,0,1,61,43.819c1.415-.323,2.68,0,4.1-.323l.324-.329c-.475-1.283-2.233-.8-3.188-.313l-.147-.163a15.093,15.093,0,0,0-5.071,2.575c-.786-.632,0-1.6.485-2.1,0-.313,0-.632-.32-.8-1.11.8-2.37,1.773-2.694,3.222l.15.162c0,.335.174.645-.15.8.324.319,0,.813.15,1.127-.305.482-.305,1.134-.776,1.454v.319c-.487.481-.952,1.123-1.433,1.609-1.74.163-3.323.969-5.07.163l-.154.153c-.155-.316-.636,0-.793-.316l-.157.163-.325-.319c1.9-1.454,4.123-2.745,5.563-4.823a2.6,2.6,0,0,0-.17-1.136c-.635,0-1.1-.315-1.422.317v.321c0,.162-.171.162-.317.162v.335c-1.275,1.6-2.379,3.529-4.438,3.849L45,49.774c-.311,0-.487.319-.8.159-.155.319-.471.159-.789.483-.155,0-.313,0-.313-.165-.631.486-1.1-.159-1.74,0a16.492,16.492,0,0,1-2.224-3.529l.166-.17a.956.956,0,0,0-1.265-.158,6.631,6.631,0,0,0,1.419,4.182c0,.162,0,.331-.154.331-1.581,0-2.225-1.938-2.861-3.066a.59.59,0,0,1-.471-.161c-.325.328-.786.482-.643.965A8.779,8.779,0,0,0,37.4,51.378c-.169.323-.478.323-.624.489L36.6,51.7l-.162.166c-.471-.323-1.257-.96-1.734-.323a30.461,30.461,0,0,1-2.376-2.262.831.831,0,0,1-.787-.469,5.762,5.762,0,0,1-1.738-.482l-.169.165-.153-.165c-.79-.17-1.584.8-2.224.165a9.423,9.423,0,0,1,.8-4.19,13.223,13.223,0,0,0,1.429-1.616c-.473-.806-.639-1.77-1.11-2.413,0-.327.166-.641-.155-.8l.155-.167-.155-.153c.321-.483.155-.968.475-1.45l-.154-.163a13.846,13.846,0,0,1,1.886-4.828c0-.161.169-.161.323-.161v-.32l.625-.651c.169-.8.956-1.118,1.269-1.758a15.028,15.028,0,0,0,2.54-2.911c0-.313-.316-.64-.316-.961-2.379.321-3.8,2.9-5.231,4.512a4.019,4.019,0,0,0-2.048,2.249l.151.159a72.371,72.371,0,0,0-1.1,8.216c-.315,0,0,.475-.315.475l.146.165c0,.8-.945.635-1.415.96l-.165-.155c-.941.632-1.892-.651-2.059-1.445.309-2.737.957-5.476,1.118-8.216.319,0,0-.479.319-.479l-.171-.161c.479-.8.639-1.769,1.109-2.74.485-.319.485-.959.8-1.449a4.68,4.68,0,0,1,1.26-1.131h.328a8.887,8.887,0,0,1,1.9-1.441c.153-.319.631-.479.631-.807a12.415,12.415,0,0,0,2.063-1.928c.311,0,.466-.328.786-.328l.315-.32c.794,0,1.589-.321,2.229.32.136.328.628.493.789.807.307-.149.481.158.626.158a12.148,12.148,0,0,1,1.9,2.1c0,.158-.158.479.163.635.471.166.471,0,.955,0a26.636,26.636,0,0,0,2.692-3.039,9.669,9.669,0,0,0,1.885-1.619c1.272-.482,2.542-.325,3.8-.963a6.582,6.582,0,0,1,3.49.806,3.334,3.334,0,0,0,2.376-.806l.157.163a11.179,11.179,0,0,1,5.692-.482c.325,0,.645.159.8-.171l.169.171c1.415-.325,2.831-.171,4.26-.652l.169.169a.525.525,0,0,1,.466-.169A6.524,6.524,0,0,0,67.639,20a4.531,4.531,0,0,0,1.584.653,2.826,2.826,0,0,0,3.159.317l.17.157c.624-.316.929-.956,1.561-1.439,1.447-.976,2.866-1.442,4.284-2.421h.486c2.051-1.136,4.9-1.607,6.964-.157A17.191,17.191,0,0,0,90.6,20.651a20.619,20.619,0,0,1,1.885,2.087c0,.637.633.972.479,1.615.315.313.154.641.475.956a8.112,8.112,0,0,0,1.426,3.867l3.8,3.862a2.152,2.152,0,0,0,.328.963c-.328.167-.171.493-.171.813a2.169,2.169,0,0,1-1.577.8c-.8.8-2.063.8-2.695,1.771-.469.158-.788.478-1.268.321-.794.482-.624,1.287,0,1.929v.315a10.14,10.14,0,0,0,3.648,2.74c0,.163,0,.325-.169.325-.946-.325-1.893-.965-3-1.285v.32c.788.64,1.273,1.446,2.225,1.769a8.489,8.489,0,0,1,1.57,1.767c0,.328,0,.807-.467.641-1.275-.641-2.374-1.451-3.647-2.09-.161.328.319.5.319.81.466.317.788.967,1.42,1.136,1.433,1.281,3.019,2.561,3.173,4.654,0,.169-.154.169-.323.169-.942-1.133-2.536-1.293-3.163-2.745-.153-.321-.475-.321-.641-.482-.3.161-.146.482-.146.817,0,.149.146.149.312.149.157.489.641.807.789,1.288,1.433,1.129,2.218,2.9,3.334,4.344,0,.165.15.487-.161.652-.323-.329-.639-.165-.8-.487h-.312a.872.872,0,0,0-.8-.479,19.536,19.536,0,0,1-1.9-1.777c-.323.154-.157.482-.157.82.789,1.114,1.593,2.725,3.007,3.045.466.643,1.593,1.449,1.115,2.414a10.088,10.088,0,0,0-1.9-.8c-.479-.49-.949-1.13-1.433-1.615a.57.57,0,0,0-.466.158,7.021,7.021,0,0,0,.949,1.935,15.935,15.935,0,0,1,2.367,2.249.885.885,0,0,0,.483.806v.324c0,.159-.161.159-.315.159a3.638,3.638,0,0,0-1.271-.8c-.8-.647-1.265-1.615-2.062-2.248a.566.566,0,0,1-.475-.167,16.045,16.045,0,0,0-.464-4.672c0-.153,0-.319.153-.319-.32-2.1-1.114-4.191-1.273-6.268-.32,0,0-.483-.32-.483a13.523,13.523,0,0,0-.622-3.555l.153-.151c-.312-.325-.153-.651-.312-.965-.635-.166-.313.485-.635.8.158.81-.167,1.78.158,2.568a23.153,23.153,0,0,0,.788,4.511.608.608,0,0,0-.153.483c.475.321.153.961.475,1.45l-.163.165c.311.474,0,1.114.481,1.608l-.17.153c.479.485-.147,1.293.32,1.767a.624.624,0,0,1-.15.49c.309.964,0,1.924.15,2.893-.15.321-.15.649-.32.813l.17.167c0,.151-.17.151-.317.151a7.965,7.965,0,0,1-.948,2.421c-.489-.814-.163-1.616-.64-2.421-.15,0-.312,0-.312.158-.167.494-.167.806-.32,1.289,0,.159,0,.321.153.321-.47.8,0,1.776-.153,2.583a29.9,29.9,0,0,1,.32,9.175l.162.151c-.162.173-.162.487-.482.647A7.535,7.535,0,0,1,87.9,77.937h-.327a14.573,14.573,0,0,1-.941-2.1,4.965,4.965,0,0,1,.329-2.241c-.163-1.125.294-2.42.149-3.709-.312-.473-.794-.165-.951.32a20.75,20.75,0,0,0-.629,6.274,5.028,5.028,0,0,1,.316,2.578,8.038,8.038,0,0,1-.643,1.771c-.633.645-1.271,1.451-1.9,2.1-.315-.167-.475.316-.776.165-.639.963-2.075,1.449-2.544,2.569,0,.159-.155.159-.324.159a12.134,12.134,0,0,1-1.569,3.22l-.965.967c-.146-.163-.319.319-.466.155a11.542,11.542,0,0,1-3.484,1.6l-.316.335c-1.268.319-2.375.154-3.637.477-.794-.158-1.75.163-2.534-.158-.163,0-.324,0-.324.158l-.163-.158-.138.158c-1.11-.477-2.549.163-3.648-.645l-.174.169a.826.826,0,0,0-.786-.489,11.983,11.983,0,0,1-1.424-1.285c-1.1-1.611-1.905-3.54-3.155-5.148-.473-.637-.639-1.445-1.1-2.086-.17-.165-.635-.165-.485-.5ZM32.486,89.206A8.662,8.662,0,0,1,30.747,87.6a.608.608,0,0,1,.15-.482,13.372,13.372,0,0,1,2.236,1.931c0,.158,0,.319-.171.319a.577.577,0,0,0-.475-.161m.475,1.454a1.459,1.459,0,0,1-2.064-.809v-.325l.169.169a2.711,2.711,0,0,1,1.9.965m-1.9-5.8c0-.163,0-.315.162-.315.144,0,.144.151.144.315Zm1.9,2.414-.155-.159-.32-.324-.8-.806c0-.159.169-.159.316-.159.325.323.8.479.959.965,0,.161,0,.324-.155.324h.327l-.171.159h.315l-.143.154Zm-1.42-1.608c0-.158,0-.327.146-.327.169,0,.169.169.169.327Zm1.265-.649h.327l-.171.166Zm.327.491c0-.169.143-.169.143-.325l.17.157c0,.169,0,.327-.17.327Zm.778,4.184c.159-.489-.412-1.131.159-1.131.162,0,.162-.163.325-.163.309.163.309.648.309.967a1.21,1.21,0,0,0-.309.8c-.325.163-.485.49-.639.655-.311-.165,0-.491-.311-.655-.17-.319.311-.155.464-.475m-4.743-1.456-.158-.159-.166-.149-.151-.17h.317l-.166.17h.324l-.158.149h.315a1.631,1.631,0,0,1,.637.807l-.158.161a.345.345,0,0,1-.321-.161c-.158-.165-.158-.324-.315-.487a.964.964,0,0,1,.009-.165ZM29.8,76.972a1.415,1.415,0,0,1,.309-1.13c.784.17,1.115.965,1.574,1.626-.146.15-.459.15-.79.309-.473-.159-.936-.309-1.094-.8m1.884-2.248a2.623,2.623,0,0,1,.641-1.123c.8-.171,1.268.639,1.582,1.123v.323c.321.161.321.474.485.641v.324c-.325.165-.325.474-.485.636-.315,0-.464.324-.778.324l-.327-.324c-.951,0-.8-.96-1.119-1.6l.169-.165Zm5.387.158a.6.6,0,0,1-.154.482l.154.157-.3.321c-.336.335-.481.335-.641.335l-.491-.489a.864.864,0,0,0-.46-.806l.143-.158a1.348,1.348,0,0,1,.181-1.929c.933-.161,1.269.957,1.569,1.765l-.154.165Zm1.586.325c-.155-.325-.155-.648-.317-.809,0-.159,0-.313.162-.313a1.246,1.246,0,0,1,.628-1.776c.481.166.639.64.952,1.119.162.81.469,1.935-.313,2.583l-.158-.17-.161.17c-.154,0-.32-.17-.471-.324v-.324c-.163,0-.321,0-.321-.157m3.332-2.093a1.255,1.255,0,0,1,1.418.637v.333a1.285,1.285,0,0,1,.317,1.757c-1.1.644-1.735-.635-2.064-1.443l.161-.159c-.161-.487-.161-.81.169-1.125m3.315.971a6.245,6.245,0,0,1,1.111.639c.319.483.157.964.482,1.453-.163.471-.482.471-.964.631l-.151-.159c-.317-.806-1.272-1.766-.478-2.563m2.533,1.122a.6.6,0,0,1,.475-.161,2.087,2.087,0,0,1,1.275,2.091c-.478.329-.321-.166-.626,0a13.035,13.035,0,0,1-1.123-1.931M28.053,60.074c.956-.963,1.75-1.932,2.54-2.9-.169-.482.3-.8.473-1.125v-.32A3.249,3.249,0,0,1,32,55.085,20.186,20.186,0,0,1,38.66,52.5c0-.32.473,0,.473-.32a22.2,22.2,0,0,1,4.595-.154A55.128,55.128,0,0,0,50.694,53c.8.311,1.424.635,2.221.957a6.9,6.9,0,0,0,1.578,1.449c.324.479.951.639,1.109,1.281.317.321.8.482,1.107.806,0,.166,0,.327.166.327.941.317,1.738.967,2.687,1.287a12.5,12.5,0,0,0,2.217,1.767c1.735-.153,3.326.8,5.059,1.289A2.353,2.353,0,0,1,67.95,64.26c.313,0,0,.487.313.487l-.154.153c.32.806,1.269,1.771.479,2.748a3.533,3.533,0,0,1-2.525.155,4.747,4.747,0,0,0-2.549-.481,15.571,15.571,0,0,0-1.735-.969A29.09,29.09,0,0,0,59.563,64.1v-.319a1.64,1.64,0,0,0-.635-.807c.155-.162-.315-.324-.166-.475a.926.926,0,0,1-.474-.814c-.311-.321-.631-.483-.631-.955-.15-.166-.635-.166-.47-.494-1.743-.968-3.808-.64-5.543-1.441a11.312,11.312,0,0,1-1.909-1.928h-.624c0,.15,0,.311-.149.311.149.163.149.49.305.8.163.331.639.331.791.818.487.473,1.269.633,1.746,1.131a8.463,8.463,0,0,1,4.431,1.437c-.464.321-1.1,0-1.743.162,0-.324-.485,0-.485-.324a1.318,1.318,0,0,1-1.094-.319c-.158,0-.321,0-.321.159l-.159-.159a3.217,3.217,0,0,0-1.265.643c-.475,0-.622.321-1.11.321-.324-.162-.153-.483-.153-.645-1.272-1.275-2.067-2.893-3.489-4.184H46.1a30.714,30.714,0,0,0-3-2.085,5.226,5.226,0,0,1-2.222-.329,39.827,39.827,0,0,0-5.858.96l-.151-.149a8.97,8.97,0,0,0-2.69,1.6c0,.485-.489.651-.489,1.129-1.424,1.283-3.149,3.539-1.884,5.476l-1.431,1.438c-1.114.649-1.908,1.942-3.012,2.591-.311,0,0-.493-.311-.493.15-2.729,1.743-4.822,3-7.08m0-9.658c.319-.165.639-.643,1.114-.483.636.8.157,1.767-.324,2.572l-.79.81c-.631-.81-.316-1.938,0-2.9m3.8,1.127c0-.166.147-.166.32-.166a1.713,1.713,0,0,1,.631.807v.32c-.165.162-.165.327-.478.327H32a3.875,3.875,0,0,1-.147-1.288m4.277,6.92c-.166.328-.166.648-.319.8a37.816,37.816,0,0,1-.49,4.028c-.143-.321-.62-.155-.783-.483a6.429,6.429,0,0,0,.783-3.544l-.459-.96c-.324,0-.8.159-1.109-.162.948-.968,2.376-.478,3.473-.968.324-.311.8,0,1.114-.311.162.311.475.15.639.15.632-.321,1.424,0,2.066-.15,0,.311.46,0,.46.311-.151.324-.46.324-.633.49a4.784,4.784,0,0,0-4.1,1.6c-.336-.153-.174-.473-.174-.8Zm5.53.648c.161-.169.19-.424.481-.32a.9.9,0,0,1,.633,1.131c-.467.309-1.114.956-1.73.469a3.243,3.243,0,0,0,.616-1.28m-7.907,2.569c0,.162,0,.329-.161.329-.635.158-.955-.489-.463-.972.143,0,.192.046.313.159.15.162.15.324.311.483M59.563,48.645c.313-.149.313-.149.469-.483.325,0,.645-.321.969-.154a1.521,1.521,0,0,1,.455,1.126c-.305,0,0,.479-.305.479a3.984,3.984,0,0,1-.636,1.765c-.321.323-.639,0-.952-.153v-.319c-.949-.49-.317-1.454,0-2.262m6.5,2.9a6.382,6.382,0,0,0,.462-2.9c0-.149.163-.149.313-.149.477.473,1.271.786,1.591,1.437A6.515,6.515,0,0,1,66.2,51.866a.2.2,0,0,1-.138-.323m33.871-5.629-.162.169c.479,1.443.162,2.885.627,4.333v3.057c.5.8-.147,1.776.328,2.576a16.521,16.521,0,0,0,0,4.025c-.475.486.169,1.123-.328,1.607l.173.162-.173.167.173.158c-.479.64.155,1.609-.32,2.258l.147.158c-.464.969,0,2.087-.464,3.064a.586.586,0,0,0,.158.473,9.5,9.5,0,0,0-.631,3.061,48.2,48.2,0,0,0-1.431,5c-.316.158-.316.471-.475.631a5.053,5.053,0,0,1-.942,2.1c.147.8-.628,1.129-.8,1.925,0,.157-.15.157-.319.157v.332c0,.157-.151.157-.315.157-.147.327-.147.647-.313.806-.475.313-.641.964-1.107,1.289.167.165-.319.319-.17.486a13.226,13.226,0,0,1-2.041,2.245c-.8,1.123-1.9,2.093-2.7,3.219a.8.8,0,0,1-.632.325,24.556,24.556,0,0,1-6.8,5.306l-.485.49h-.316c-.464.647-1.268.8-1.9,1.287-1.1.323-2.058,1.133-3.332,1.449a5.547,5.547,0,0,1-2.209.965c0,.315-.485,0-.485.315-.624,0-1.1.487-1.716.487-.332-.324-.643-.635-.173-.969h.307c.169-.155.483-.155.643-.479,1.265-.162,2.22-.961,3.489-1.288.144-.309.466-.309.635-.479h.307a3.191,3.191,0,0,1,1.264-.64,57.405,57.405,0,0,0,14.1-11.275c2.532-3.212,5.065-6.763,6.007-10.78.309,0,0-.487.309-.487.489-1.442.649-2.9,1.127-4.333,0-.169,0-.329-.171-.329.328-.485.171-1.133.482-1.612,0-.155,0-.323-.154-.323,1.423-8.851.475-18.021-1.284-26.715.335-.327.649-.647.956-.162a11.163,11.163,0,0,0,.482,2.087c0,.17,0,.325-.154.325.624.973.154,2.258.786,3.224m.158-2.9a3.631,3.631,0,0,1,.949-.8h.321a.356.356,0,0,1,.629-.334l.161-.154c.475.487,1.114-.165,1.58.32-.155,0-.155.167-.155.315h.324a3.777,3.777,0,0,1,2.839,1.131c0,.167.155.479-.157.641l-.154-.162a.581.581,0,0,0-.485.162.642.642,0,0,0,.151.5l-.151.143c-.315.171-.315-.311-.47-.47a2.619,2.619,0,0,0-2.848-.169h-.316a6.519,6.519,0,0,0-1.115,1.611,3.273,3.273,0,0,0,1.585,3.22,3.116,3.116,0,0,0,2.379-.155c.155,0,.315,0,.315.155l-.315.313a2.257,2.257,0,0,0-.951.331v.32a3.933,3.933,0,0,0,2.53-1.288v-.313c.319-.17.319-.491.474-.652.478.965.325,2.253.635,3.227l-.157.155c.157,1.123.637,2.411.157,3.538-.309-.481-.478-.96-1.109-.96a.83.83,0,0,1-.311.637,3.062,3.062,0,0,0-3.485-.158,3.327,3.327,0,0,0-.793,3.38,4.859,4.859,0,0,0,1.748,1.445h1.415l.951-.479c.317-.159.163-.639.629-.639a2.445,2.445,0,0,0,0-2.74c0-.157,0-.321.163-.321.312.165.312.647.633.965l-.153.161c.631.973-.325,1.774-.644,2.573a4.886,4.886,0,0,1-2.05.961v.331c1.42.477,2.694-.813,3.159-2.091.482.309-.157.967.324,1.279l-.159.169a.606.606,0,0,0,.159.481c-.324,2.418,0,4.668-.481,7.079l-.157-.157c-.153,0-.478-.162-.633.157-.629-.8-.963-1.771-1.9-2.087a3.48,3.48,0,0,0-2.849.645A2.764,2.764,0,0,0,106.1,69.25c.17,0,.17.169.17.317-.951.644-1.9,1.131-3,.644a.591.591,0,0,0-.166.487,3.725,3.725,0,0,0,4.439-1.928l.153.159c-.321,1.447-.153,2.9-.8,4.344l.163.155c-.475,1.13-.475,2.583-1.114,3.543v.645c-.47.485-.315,1.129-.784,1.605v.485c-.315.165-.315.485-.475.637-.159-.306-.475-.473-.784-.153l-.169-.154c0-.166,0-.331.169-.331a5.545,5.545,0,0,0-1.119-2.09h-.32c-.15,0-.15-.15-.15-.327-.784-.319-1.416,0-2.22,0a.856.856,0,0,1-.79.486,2.855,2.855,0,0,0,.321,4.35c.775.473,1.739.159,2.529.473l-.161-.163.161-.15a1.286,1.286,0,0,1,.169.008l.306-.327c.154,0,.154.159.154.319-.154,0-.154.15-.32.15-.15,0-.15.163-.309.163-.625.5-1.257,0-1.9.167-.317-.167-.628-.167-.79-.481a1.716,1.716,0,0,0-1.747,0c-.316,0,0-.479-.316-.479-.155,0-.311,0-.311.161-.159-.487-.475-.487-.807-.644,1.275-1.616,1.75-3.706,2.711-5.482v-.478c.311,0,0-.482.311-.482a8.982,8.982,0,0,1,.79-2.9l.949-6.278-.146-.153c.467-1.127,0-2.262.467-3.385.165-3.538-.166-6.92-.166-10.468-.47-.323.166-.963-.3-1.284l.146-.165c-.315-2.244-.47-4.665-.949-6.914l.159-.17Zm3.008-3.223c0-.157.166-.157.308-.157l1.118,1.115-.161.169a.547.547,0,0,1-.464.17,2.25,2.25,0,0,1-.8-1.3m.945,7.886V48.5a1.922,1.922,0,0,1-2.2-1.131c0-.494-.479-.813,0-1.281l-.174-.169a2.292,2.292,0,0,1,2.858-1.449c.159,0,.159.167.159.311a2.3,2.3,0,0,0-.64,2.9m.481-1.451c.32.324.949.324,1.265.816v.321a1.572,1.572,0,0,0-.631.8c-.161,0-.161-.154-.161-.321-.474-.313-.315-.969-.79-1.446,0-.166.155-.166.316-.166m4.749,2.268-.154.149a65.589,65.589,0,0,1,.625,16.74c0,.321-.159.647.158.806-.46.324.176.964-.317,1.287l.159.17c-.3.155,0,.473-.3.64.143.643-.169,1.439,0,2.09a50.053,50.053,0,0,1-1.595,6.76v.479a9.278,9.278,0,0,0-.635,1.931,46.456,46.456,0,0,1-3.169,6.439c-.779.806-1.1,1.774-1.893,2.576v.324a50.708,50.708,0,0,1-20.264,15.926l-.335.323a6.219,6.219,0,0,0-1.726.637c-.307-.15-.639-.15-.8-.467a2.8,2.8,0,0,1,1.42-.967,2.409,2.409,0,0,1,1.437-.654c1.265-.96,3.164-1.122,4.1-2.407h.328l.316-.327h.329a59.766,59.766,0,0,1,5.376-3.694c1.25-1.133,2.528-2.409,3.794-3.382.8-.968,1.731-1.767,2.687-2.74.8-1.121,1.578-2.087,2.376-3.055a15.046,15.046,0,0,1,2.212-3.218c0-.315.493-.647.324-.968.953-.8,1.114-1.927,1.743-2.9v-.473c.316-.174.316-.481.47-.647.151-.963.8-1.935.8-2.9.319,0,0-.486.319-.486.155-1.439.79-2.885.79-4.338.321,0,0-.487.321-.487A97.708,97.708,0,0,0,106.9,40.592l.319-.315h.325c.309.162.309.474.466.643a29.821,29.821,0,0,0,.94,4.994l-.146.169c.321.787.146,1.6.475,2.413m.169-4.832a3.611,3.611,0,0,1,4.26-.973c1.43,2.258,1.589,5.15,2.379,7.726.32,2.251.643,4.669.949,6.921-.157.636.155,1.293-.157,1.927a13.545,13.545,0,0,1-2.217-2.09c-.159-.482-.794-.8-.64-1.284l-.315-.331v-.311l-.306-.32V54.6c-.167-.158-.167-.481-.483-.637s-.315.315-.467.479a.629.629,0,0,0,.153.487c0,.157,0,.32-.153.32a1.368,1.368,0,0,1,.312,1.122c.324.321.324.8.471,1.127l2.383,2.893a3.145,3.145,0,0,1,1.419,1.451c-.157.49.155.965-.157,1.293-.632-.641-1.114-1.293-1.742-1.939h-.475v.971c.955,1.123,1.585,2.415,2.374,3.537-.307.809,0,1.771-.47,2.582a5.1,5.1,0,0,1-.949-2.582c-.32,0,0-.477-.32-.477a1.886,1.886,0,0,0-.475-1.3V63.46c-.319-.49-.159-1.127-.631-1.45.158-.813-.323-1.284-.323-2.087-.161-.167-.161-.5-.467-.659v-.321c-.8-.8-.8-1.929-1.428-2.893v-.49a4.262,4.262,0,0,0-.631-1.118,13.468,13.468,0,0,0-.643-2.41.575.575,0,0,1,.169-.487,10.833,10.833,0,0,1,1.735,2.1h.315c.316-.494,0-.972.169-1.454-.324-.319-.324-.807-.483-1.123-.955-1.129-1.581-2.417-2.695-3.222,0-.313-.317-.475-.46-.8a15.485,15.485,0,0,0-.169-2.578c.312-.159.169-.49.169-.8m6.01,32.024c-.161,0-.161.154-.32.154-.635-.96-.635-2.09-1.115-3.047,0-.3-.115-.572.082-.864-.4-.749-.4-1.553-.871-2.363,0-.149-.147-.478.167-.637.467.489.306,1.126.79,1.605,0,.32-.169.645.158.809.094.316-.007.439-.14.513.764.963.779,2.067,1.408,3.024,0,.325-.32.482-.159.806M78.24,99.989c.158-.162.478-.162.644-.473a44.284,44.284,0,0,0,8.228-5.16h.315c.636.636,1.422,1.445,1.253,2.41A4.7,4.7,0,0,0,87.427,97.9h-.315c-.149.169-.217.116-.312.325-.166.316-.639.316-.81.639h-.312c-.309.653-.957.653-1.42,1.126h-.323c0,.162,0,.32-.147.32-1.437.643-2.7,1.288-3.959,1.939-.639.153-.8-.651-1.265-.969.154-.483-.324-.806-.324-1.289M96.281,88.4c0,.163,0,.323-.147.323h-.79c0,.165-.163.325-.311.483,0-.158-.166-.158-.319-.158a.572.572,0,0,1-.166.478c-.157,0-.323,0-.323-.159a6.447,6.447,0,0,0-1.569.648l-.17-.163a2.531,2.531,0,0,1,1.441-2.421,2.335,2.335,0,0,1,2.353.969m-1.889-3.058c0-.157,0-.323.157-.323s.166.166.166.323Zm.641-.479-.166-.163v.32l-.153-.157.153-.163.166-.151Zm.147.648v.317l-.147-.159Zm5.391,0v.317l-.173-.159Zm-.173-1.449c0-.167.173-.167.328-.167a.592.592,0,0,1-.155.481c-.173,0-.173-.159-.173-.313m.328,2.731v-.158l.47-.485.166.157a.579.579,0,0,1-.166.486c-.155,0-.3,0-.3.161s-.169.323-.324.477c-.173,0-.173-.154-.173-.313Zm-.635-.643.159-.163.147.163Zm.159-1.288-.159-.163.159-.151Zm-1.26.648c-.328.158-.23.231-.478.477l-.315.32c-.169,0-.169-.157-.169-.32.323-.319.483-.8.961-1.125a3.823,3.823,0,0,1,.942-1.457c.158,0,.158.17.158.335a6.464,6.464,0,0,0-1.1,1.77m.942.961.158.163h-.32Zm-.311-.961h.148v-.169l.162.169h-.162v.158Zm-.321.8-.311.328c-.109,0-.146-.069-.15-.155l-.022-.173a.126.126,0,0,1,.053-.107.124.124,0,0,1,.119-.05h.157c.082.016.154.055.154.157m-.482.647-.157.163-.15.159-.161-.159.161-.163.15-.161v.161Zm-.157-2.738c-.15,0-.311.159-.311-.154.311-.167.311-.656.639-.811.157,0,.157.155.157.325-.157.165-.157.486-.485.64M98.2,83.25c-.169,0-.169-.151-.169-.316l.323-.335c.161,0,.161.167.161.335Zm0,1.125c.154,0,.154.173.154.324l-.323.32v.166l-.316.325v.158c-.159,0-.159.159-.316.159v.159l-.47.485h-.316l.147-.165V86.15l.483-.482.312-.327v-.157l.309-.323V84.7Zm-.169,1.776v.321c0,.163-.166.163-.166.321l-.15-.158v.319l-.159-.161v.324l-.157-.163.157-.161.159-.158c0-.163,0-.328.15-.328Zm0-2.748v.173h-.316c.15,0,.15.165.15.319a4.76,4.76,0,0,1-1.1,1.447c-.147,0-.315.169-.315-.157.483-.486.8-1.123,1.269-1.609,0-.17,0-.325.15-.325l.166-.151Zm-1.418,6.292c0,.157-.167.157-.167.32-.165-.163-.46-.163-.632-.489.171-.32.467-.159.632-.159s.167.159.167.328m0-5.954c0-.165,0-.335.147-.335.169,0,.169.17.169.335Zm.316-.481.159.146a.153.153,0,0,1-.159-.146m0-.042V83.1l.315-.332a.929.929,0,0,0-.315.451m0-1.091-.169-.159.169-.161Zm0,.159h-.316V82.6l-.167-.163.167-.15.147-.159Zm-.316,1.929-.332.332h-.3l.149-.173v-.159l.312-.321c0,.167.167.167.167.321m-.479,1.612v.323l-.149-.163Zm-.32-2.252v.165l-.15-.165h.15v-.17l.171.17Zm0,1.443c0,.166-.15.323-.319.491-.151,0-.151-.169-.151-.325l.32-.323Zm-1.886,5.314c0,.327-.093.647-.338.647-.149,0-.149.155-.309.155l-.315-.311.624-.655c.17,0,.338,0,.338.163m7.6-4.506v-.159h.315c-.031-.088-.076-.158-.174-.158l.174-.169v.365a.386.386,0,0,1-.09.122h.09c-.031.089-.076.159-.174.159s-.132-.058-.14-.143v-.009l.14.153c0-.076.05-.115.084-.159Zm.464-2.087h-.324l.174-.165.15-.17Zm.161,1.122c0-.163,0-.315.159-.315,0,.151.15.151.15.315l-.15.157-.159-.157v.323l-.161-.166Zm.309-.647.166-.154v.313Zm.166-.321.154-.154v.321Zm-.166-4.346c.32.159.639-.159.8.159.142.331,0,.485-.166.811,0,.15-.155.15-.319.15-.47-.477-1.114-.477-1.419-.961.305-.319.79,0,1.1-.159m-1.265.159-.155-.159a.8.8,0,0,1-.315.644c-.155.477,0,1.131-.475,1.455-.79,0-.949-.813-1.26-1.455a2.759,2.759,0,0,1,1.735-2.575,1.892,1.892,0,0,1,2.055.969,5.294,5.294,0,0,1-1.419.636.577.577,0,0,1-.166.485m1.749,2.1.155-.159.166-.167.142.167H103.1v.32l-.155-.161v.32l-.163-.159Zm.632.479c.155,0,.324,0,.324.15l-.324.331-.169-.167c0-.163,0-.313.169-.313m-.169-1.13c0-.165,0-.321.169-.321l.155.157c0,.165-.155.165-.155.332Zm-.142,1.778v.316L103.1,83.1Zm-.166.316v.325l-.155-.17Zm.8-1.443h.309l-.165.161ZM105,55.249c0,.162,0,.311-.154.311,0,.331-.161.648.154.811-.154.643.631,1.293.161,1.933-.315,0-.635-.162-.8.159-.155-.321-.464-.159-.789-.159a2.324,2.324,0,0,1-.8-3.055c.319-.32.485-.807.951-.972.478,0,1.268-.485,1.584.165l-.47.487c0,.157,0,.32.154.32m.161.162c0-.162,0-.325.155-.325.315.163.475-.321.78-.157.17.157.17.482.487.631a.613.613,0,0,1-.154.49c0-.159-.163-.159-.333-.159-.305-.161-.621-.161-.936-.479m-.8,12.877c0,.166.161.483-.155.643l.155.159c-.32.478-.789-.159-1.265,0a2.42,2.42,0,0,1-.948-2.418,2.657,2.657,0,0,1,1.58-1.615,6.879,6.879,0,0,1,.478,1.615h.316c.32-.481,0-.965.159-1.442,0-.173.161-.173.315-.173a3.344,3.344,0,0,1,1.266,1.3c0,.485.317.969-.17,1.295-.466-.325-.936-.325-1.411-.649-.475.324-.32.8-.32,1.289M71.278,112.375a.621.621,0,0,1,.154.491c-.154.32-.154.643-.456.8l-.173-.159a2.35,2.35,0,0,1,.475-1.134m-.169-4.98.169-.166v.328Zm.169,4.819.154-.153v.313Zm0-4.18h.315l-.161.151Zm.474.645c0,.17-.159.17-.159.319l-.161-.149a.618.618,0,0,1,.161-.5c.159,0,.159.167.159.327m0,3.057-.159.163-.161-.163Zm-.159-1.123h.321l-.162.153Zm.475-8.366c.485-.166.793-.166,1.108.153,0,.81.481,1.285.481,2.1,0,.153-.176.153-.315.153a.6.6,0,0,1-.96-.153,5.457,5.457,0,0,0-.469-1.457c0-.316-.162-.641.154-.794M92.176,74.559c0-.161.163-.161.311-.161,0,.161.17.483-.147.648.317.317,0,.8.147,1.13,0,.309.17.8-.147,1.114a2.722,2.722,0,0,1,0-2.244.6.6,0,0,1-.163-.487m1.414-9.812A15.156,15.156,0,0,0,95.181,67.8c.163.485.633.968.163,1.447l-.629-.645a13.665,13.665,0,0,0-2.058-3.548c.624-.473.463-1.125.784-1.765.319.486,0,.968.149,1.456m1.591-4.356v.335a3.982,3.982,0,0,1,1.58,2.082c.169,0,.328,0,.328.162v.321c.467.327.467.8.776,1.134,0,.158,0,.321-.15.321a29.075,29.075,0,0,1-3-3.388h-.323a.581.581,0,0,0-.166.483,28.593,28.593,0,0,0,2.055,3.542l-.147.169c.147.317.479.961.147,1.284-.937-.967-2.055-2.09-2.2-3.546a.639.639,0,0,1-.49-.155c.338-1.126.49-2.41.8-3.712.157,0,.323,0,.323.167s.319.331.153.64c.166,0,.313,0,.313.159M93.12,72.476l-.154-.166a.6.6,0,0,1,.154-.482.585.585,0,0,1,.161.482c.309.166.309.64.647.8v.315c.464.323.3.5.3.81,0,.159-.146.159-.3.159-.338-.647-.961-1.449-.647-2.089Zm0-4.022-.154-.166h.315Zm.47.8-.149.169-.161-.169Zm.636,1.931c-.281-.288-.806-.833-.589-1.295-.2.005-.2-.159-.2-.319h.319a1.34,1.34,0,0,1-.008.182.819.819,0,0,1,.474.786,3.1,3.1,0,0,1,.641.975l-.153.15c-.323.167-.323-.316-.489-.479M93.12,67.8c0,.154,0,.317-.154.317-.479-.473-.949-1.283-.479-1.929.479.324.32,1.131.633,1.612m-23.26,37.01v.323l-.166-.161Zm-3.335.652c-.161,0-.324,0-.324-.159.163,0,.163-.17.324-.17l.163.17Zm.478,0,.157.158-.157.15c-.165,0-.315,0-.315-.15.15,0,.15-.158.315-.158m-2.387-3.7H64.3a5.309,5.309,0,0,0-.47,2.252c-.317.159-.317.479-.317.794.481.493,1.1,0,1.439-.474.475.312-.166.8-.338,1.126-.146,0-.146.158-.315.158l-.147-.158-.159.158a1.627,1.627,0,0,1-.8-.648v-.324c-.475-.312-.316-.965-.639-1.441l.163-.169c-.479-.641.159-1.445.649-1.924.784,0,1.584,0,2.059.649,0,.315.144.633-.169.959l-.307-.325v-.319Zm-4.1,6.913a.907.907,0,0,0,.486-.8c.455-.481.779-.972,1.415-1.125a9.073,9.073,0,0,0,1.1,1.6,6.325,6.325,0,0,1-.473,1.776,2.64,2.64,0,0,0,1.746,1.439c-.171.807.641,1.456.166,2.1a.593.593,0,0,0-.483.153c0-.153-.169-.153-.316-.153,0,.153-.159.153-.323.153,0-.153-.151-.178-.317-.153-1.273.153-2.059-.968-2.838-1.769a6.2,6.2,0,0,1-.32-2.411c.32-.165.158-.49.158-.809m9.819,6.114-.32.32c-.153,0-.153-.165-.153-.32l.3-.315c.169,0,.169.158.169.315m-.473.482c0,.169-.166.169-.166.321-.166,0-.316,0-.316-.153l.316-.331Zm-.637.64c0,.166-.159.166-.159.32h-.475l.157-.154.319-.319Zm-.96.809-.154.169c-.159,0-.159.158-.315.158-.155.317-.479.317-.635.477-1.265.325-2.69.972-3.964.487,0-.162,0-.328.174-.328l.144.166.166-.166a3.538,3.538,0,0,0,2.845-.479,2.242,2.242,0,0,0,.948-.315,1.551,1.551,0,0,1,.178.007l.3-.347c.159,0,.313,0,.313.171M4.98,62.151a57.178,57.178,0,0,1,109.44-23.19l-1.82.348c0,.158,0,.327-.153.327-.323,0-.8-.159-1.109.157-.163,0-.32,0-.32-.157a2.9,2.9,0,0,0-1.114.315l-.158-.158-.159.158-.143-.158c-.323.32-.8.158-1.114.32-.159-.32-.481-.32-.637-.477-.633-.159-1.108.315-1.426.8h-.791a18.265,18.265,0,0,0-2.53-2.418.6.6,0,0,1-.483-.158c-.794.81-1.42,1.773-2.21,2.576-.317,0-.628.312-.79-.162v-.327c-.47-.641-1.108-1.129-1.906-.641-.157,0-.157-.153-.157-.316a14.453,14.453,0,0,1,1.75-1.45h.313l.311-.32c1.123-.317,2.38-.644,2.856-1.925,0-.173,0-.332-.166-.332l.166-.153c0-.159,0-.32-.166-.32l.166-.166a1.209,1.209,0,0,1-.316-.964l-.949-1.456c-2.371-2.572-5.082-5.306-5.7-8.838-.32-.166-.32-.493-.483-.659v-.32a16.236,16.236,0,0,1-1.42-1.921,14.569,14.569,0,0,1-1.584-1.626,5.89,5.89,0,0,1-1.736-1.111h-.32c-.157-.324-.475-.648-.78-.648a5.846,5.846,0,0,0-1.913-1.938c-1.437-.313-2.854-1.446-4.272-.952l-.165-.178-.161.178-.159-.178a13.667,13.667,0,0,0-2.374.321l-.142-.143a10.121,10.121,0,0,0-2.38.952,1.738,1.738,0,0,0-1.431.645h-.321l-.315.331a1.423,1.423,0,0,0-1.091.479h-.327c-.176.154-.478.154-.632.482h-.315l-1.911,1.46h-.323c-.134-.167-.466-.167-.624-.493a7.672,7.672,0,0,1-2.376-.967l-.159.158c-.635-.486-1.261-.158-1.886-.486-.332,0-.8-.154-1.11.173l-.166-.173a2.8,2.8,0,0,1-1.592.328c-.316.324-.78.158-1.1.481l-.159-.157-.155.157-.169-.157-.155.157c-.455-.481-1.1.167-1.58-.323a.561.561,0,0,0-.47.166c-.478-.479-1.28.157-1.749-.324-.309,0-.635-.155-.782.158l-.166-.158-.162.158-.144-.158c-.325.158-.631,0-.959.324l-.157-.166a39.017,39.017,0,0,1-4.118,1.134,2.787,2.787,0,0,0-1.58-.325c-.626-.319-1.42,0-2.059-.167a16.187,16.187,0,0,1-2.708.66c-1.726.632-3.159,2.244-4.576,3.374a15.087,15.087,0,0,1-4.28-2.742,3.956,3.956,0,0,0-2.371.157c-2.7,1.137-4.753,3.058-6.963,5-.169-.169-.315.324-.475.154a2.666,2.666,0,0,1-1.429.811A25.736,25.736,0,0,0,21.4,32.4a.579.579,0,0,0,.163.479c-.489.652.146,1.293-.328,1.939l.165.153c-.471.332,0,.8-.325,1.126l.161.165c-.306,1.287-.161,2.565-.625,3.856l.158.165a8.306,8.306,0,0,0-.479,1.94,4.681,4.681,0,0,0,1.746,2.559c1.1.171,2.051.645,3.159.171.161,0,.32,0,.32.159a.6.6,0,0,1-.159.479l.159.162c-.32.645,0,1.457-.32,2.091-.47.491-.937.8-1.109,1.442.319.331.794.491.959.969h.311c.159.324.639.324.8.655A25.009,25.009,0,0,0,26,54.441a8.89,8.89,0,0,0,.949,1.288v.478c-.79.806-1.429,1.766-2.218,2.584v.32l-.32.313c.161,1.935-1.275,3.222-2.052,4.835a2.283,2.283,0,0,1-.317.969,7.285,7.285,0,0,0,.786,4.021c-.315.317-.315.806-.786,1.127v.478c-.96.972-1.106,2.259-1.588,3.543l.163.161c-.479,1.775-.64,4.187.79,5.633a5.41,5.41,0,0,1,.163,1.615c.324.793.635,1.769.942,2.568.624.81.949,1.612,1.58,2.418a7.074,7.074,0,0,1,1.593,1.446l-.165.161c.479.648.479,1.295,1.114,1.77-.169.163.315.321.159.49a11.531,11.531,0,0,0,2.375,1.279c.467.487.945,1.13,1.426,1.613.948.323,1.735.323,2.683.647.481-.324,1.119-.162,1.589-.324.316-.165.64-.482.949-.648.153-.8.479-1.454.624-2.247,0-.155.162-.155.336-.155a13.121,13.121,0,0,0,3.311,1.6l.162-.165.159.165c.787-.319,1.738-.319,2.536-.653a8.541,8.541,0,0,0,2.059,0c.467.166.936.489,1.418.335l.319.319a11.687,11.687,0,0,1,3.489,1.611c.321,0,.624-.162.944.162l.159-.162c.477.482,1.106-.162,1.586.319A7.628,7.628,0,0,0,55.6,94.2c1.585,2.249,2.524,4.982,4.429,7.079a9.379,9.379,0,0,1-2.054,1.447c-.161.162-.32.162-.32.485-.782.475-1.11,1.288-1.738,1.925v.329c-.782,1.122-.782,2.569-1.276,3.859,0,.165,0,.315.174.315l-.174.169a7.317,7.317,0,0,0,.494,2.568l-.169.161c.8,2.1,2.178,4.461,4.237,5.586a20.705,20.705,0,0,0,2.3,1.194A57.17,57.17,0,0,1,4.98,62.151" transform="translate(23.02 0.001)" fill="#00593f"/><rect width="124.311" height="124.304" transform="translate(23.02 0)" fill="none"/><path d="M27.092,9.2H17.827a.535.535,0,0,0-.536.536v1.13a.536.536,0,0,0,.445.529c2.158.372,2.455,1.139,2.455,1.913,0,.744-.583,2.323-2.183,4.614a22.537,22.537,0,0,0-4.782-5.874c2.846-1.817,4.287-3.914,4.287-6.237C17.514,2.386,14.837,0,11,0c-4.265,0-7.36,2.889-7.36,6.866A7.468,7.468,0,0,0,6.077,12.2C1.934,14.769,0,17.513,0,20.8c0,4.5,3.574,7.891,8.315,7.891,2.652,0,5.346-1.181,8.219-3.61,1.7,3.034,3.961,3.61,7.66,3.61.772,0,1.647,0,2.62-.072a.535.535,0,0,0,.5-.534V25.466a.537.537,0,0,0-.536-.536c-.192,0-.381.009-.566.019-.158.008-.313.017-.459.017-3.318,0-4.595-.754-5.963-3.623a42.776,42.776,0,0,0,3.323-5.963,18.951,18.951,0,0,1,.936-1.827,4.4,4.4,0,0,1,3.165-2.17.533.533,0,0,0,.417-.523V9.731a.534.534,0,0,0-.536-.536M10.79,3.334a2.438,2.438,0,0,1,2.754,2.542c0,1.486-1.032,2.846-3.065,4.045C8.551,8.721,7.612,7.488,7.612,6.16c0-1.691,1.278-2.826,3.178-2.826M8.559,14.36a20.951,20.951,0,0,1,6.211,7.508c-1.735,1.751-3.388,2.6-5.041,2.6A4.717,4.717,0,0,1,5,19.668c0-2.166,1.2-3.948,3.563-5.308" transform="translate(0 128.755)" fill="#00593f"/><path d="M48.548,16.057a5.368,5.368,0,0,0,3.195-5.12c0-2.047-.844-6.809-8.655-6.809h-11.9a.751.751,0,0,0-.751.752V5.894a.753.753,0,0,0,.675.748c2.323.231,2.492.6,2.492,2.82V23.025c0,2.216-.169,2.588-2.492,2.82a.749.749,0,0,0-.675.746v1.076a.749.749,0,0,0,.751.75H43.55c5.885,0,8.869-2.145,8.869-6.375a6.625,6.625,0,0,0-3.871-5.984M42.688,14.4H38.179V8.078c0-.779,0-.88,2.357-.88h.43c2.069,0,3.4.05,4.442.734A3.334,3.334,0,0,1,46.8,10.877c0,2.912-2.236,3.525-4.109,3.525M38.179,17.87h4.508c2.982,0,4.7,1.419,4.7,3.894,0,3.079-2.468,3.494-4.879,3.494H40.32c-2.14,0-2.14-.153-2.14-.88Z" transform="translate(5.551 129.508)" fill="#00593f"/><path d="M67.129,24.7c-1.445-.083-1.445-.322-1.445-1.036V11.642a.75.75,0,0,0-.751-.75h-.769a.737.737,0,0,0-.228.035l-3.753,1.2a.753.753,0,0,0-.523.715v.922a.751.751,0,0,0,.752.751c1.068,0,1.3.105,1.343.148a1.037,1.037,0,0,1,.059.485V23.03a7.34,7.34,0,0,1-3.955,1.3c-.975,0-1.4-.171-1.4-1.8V11.642a.749.749,0,0,0-.751-.75h-.769a.754.754,0,0,0-.228.035l-3.752,1.2a.751.751,0,0,0-.521.715v.922a.751.751,0,0,0,.737.751,3.655,3.655,0,0,1,1.356.149,1.036,1.036,0,0,1,.06.484v6.89c0,2.526.518,5.425,4.563,5.425a8.879,8.879,0,0,0,4.662-1.425v.675a.75.75,0,0,0,.75.75.293.293,0,0,0,.046,0l4.521-.277a.751.751,0,0,0,.7-.748v-.984a.75.75,0,0,0-.708-.75" transform="translate(9.199 130.742)" fill="#00593f"/><path d="M74.955,25.974c-1.447-.22-1.548-.387-1.548-2.549V4.88a.748.748,0,0,0-.748-.751h-.83a.748.748,0,0,0-.4.114L67.71,6.548a.752.752,0,0,0-.355.638v.86a.75.75,0,0,0,.752.75h.336c.816,0,1,.078,1.035.11.008.012.091.131.091.771V23.424c0,2.244-.121,2.436-1.607,2.542a.752.752,0,0,0-.7.748v.953a.751.751,0,0,0,.751.75h6.828a.749.749,0,0,0,.75-.75v-.953a.748.748,0,0,0-.636-.741" transform="translate(12.268 129.508)" fill="#00593f"/><path d="M83.538,25.974c-1.447-.22-1.548-.387-1.548-2.549V4.88a.749.749,0,0,0-.747-.751H80.41a.748.748,0,0,0-.4.114L76.292,6.548a.75.75,0,0,0-.354.638v.86a.75.75,0,0,0,.751.75h.337c.817,0,1,.078,1.033.11.011.012.095.131.095.771V23.424c0,2.244-.123,2.436-1.612,2.542a.751.751,0,0,0-.7.748v.953a.75.75,0,0,0,.75.75h6.829a.749.749,0,0,0,.75-.75v-.953a.749.749,0,0,0-.636-.741" transform="translate(13.833 129.508)" fill="#00593f"/><path d="M89.231,13.233H85.387a.75.75,0,0,0-.751.75v2.122a.752.752,0,0,0,.751.751h3.844a.753.753,0,0,0,.751-.751V13.983a.751.751,0,0,0-.751-.75" transform="translate(15.436 131.169)" fill="#00593f"/><path d="M109.14,5.725c-2.725-1.476-5.482-1.6-8.54-1.6H90.914a.75.75,0,0,0-.751.751V5.894a.752.752,0,0,0,.676.747c2.323.231,2.491.6,2.491,2.82V23.024c0,2.216-.168,2.588-2.491,2.82a.751.751,0,0,0-.676.747v1.076a.75.75,0,0,0,.751.751h9.411c4.392,0,7.737-.215,10.807-2.993a12.486,12.486,0,0,0,3.968-9.136A11.576,11.576,0,0,0,109.14,5.725M106.3,24.254c-1.628.785-3.572.848-5.947.848-2.449,0-2.449-.116-2.449-.88V8.231c0-.711,0-.88,2.449-.88h1.6c5.357,0,8.076,3.007,8.076,8.938,0,3.891-1.39,6.868-3.728,7.966" transform="translate(16.445 129.508)" fill="#00593f"/><path d="M121.185,10.891a8.017,8.017,0,0,0-8.318,8.44c0,5.046,3.344,8.437,8.318,8.437a8.029,8.029,0,0,0,8.345-8.437c0-5.049-3.354-8.44-8.345-8.44m3.985,8.563c0,3.367-1.526,5.46-3.985,5.46-3.47,0-3.986-3.594-3.986-5.739,0-2.062.541-5.523,4.17-5.523,2.38,0,3.8,2.17,3.8,5.8" transform="translate(20.585 130.741)" fill="#00593f"/><path d="M144.338,11.327a6.407,6.407,0,0,0-3.723,1.686,6.13,6.13,0,0,0-4.949-2.148c-3.682,0-6.255,2.445-6.255,5.947a5.334,5.334,0,0,0,1.424,3.94c-1.91,1.156-2.347,2.445-2.347,3.38a2.683,2.683,0,0,0,1.551,2.393,4.019,4.019,0,0,0-1.982,3.266c0,2.664,2.845,4.255,7.609,4.255,5.4,0,8.624-1.934,8.624-5.178,0-1.55-.718-3.576-4.145-4.421-1.114-.261-2.671-.485-4.591-.75a12.724,12.724,0,0,1-2.907-.618,1.415,1.415,0,0,1,1.022-.688,3.279,3.279,0,0,1,.519.092,7.389,7.389,0,0,0,1.665.215,5.77,5.77,0,0,0,6.04-5.887,8.1,8.1,0,0,0-.105-1.018c-.01-.07-.02-.143-.03-.218.639-.463.908-.5.978-.5a2.428,2.428,0,0,1,.487.219,3.273,3.273,0,0,0,1.549.49A2.2,2.2,0,0,0,147,13.614a2.384,2.384,0,0,0-2.657-2.287m-11,5.485c0-1.917.888-3.155,2.263-3.155.575,0,2.325,0,2.325,3.034,0,1.956-.857,3.123-2.3,3.123-1.894,0-2.293-1.632-2.293-3m.059,10.626c.7.093,1.344.174,1.944.249,4.025.5,5.046.744,5.046,1.8,0,1.821-3.09,2.016-4.417,2.016-2.623,0-4.384-.785-4.384-1.956,0-.571.494-1.154,1.811-2.107" transform="translate(23.356 130.737)" fill="#00593f"/><rect width="170.351" height="36.028" transform="translate(0 128.755)" fill="none"/></g></svg>