<svg xmlns="http://www.w3.org/2000/svg" xmlns:xlink="http://www.w3.org/1999/xlink" width="152.084" height="61.854" viewBox="0 0 152.084 61.854"><defs><clipPath id="a"><rect width="152.084" height="61.854" fill="none"/></clipPath></defs><g transform="translate(0 0)"><g transform="translate(0 0)" clip-path="url(#a)"><path d="M24.435,9.541a71.641,71.641,0,0,1-2.976,6.7l4.57-.425a1.3,1.3,0,0,1,1.488,1.594c0,.85-.638,1.382-1.594,1.488l-7.865.744L17.527,24.1l6.7-.638a1.337,1.337,0,0,1,1.594,1.488,1.732,1.732,0,0,1-1.7,1.594l-7.014.638L16.89,29.2c5.526,3.188,6.27,3.826,6.164,5A2.244,2.244,0,0,1,21.141,36c-.744,0-1.063-.213-1.913-1.063a20.687,20.687,0,0,0-2.657-2.657L15.189,43.019a1.949,1.949,0,0,1-1.913,1.594,1.45,1.45,0,0,1-1.594-1.594l1.382-11.053A63.363,63.363,0,0,1,4.88,39.724c-1.169.85-1.382,1.063-1.913,1.063A1.228,1.228,0,0,1,1.8,39.405c0-.638.213-.744,1.7-2.019a62.127,62.127,0,0,0,9.246-9.778l-7.227.638a1.3,1.3,0,0,1-1.594-1.488,1.808,1.808,0,0,1,1.594-1.594l8.5-.744.531-4.357-9.246.85a1.337,1.337,0,0,1-1.594-1.488,1.732,1.732,0,0,1,1.7-1.594l5.845-.531c-.425-2.338-.956-4.889-1.382-6.27l-1.488.213A1.335,1.335,0,0,1,6.793,9.647a1.727,1.727,0,0,1,1.7-1.488l7.546-.744.531-5.1A2.069,2.069,0,0,1,18.59.72a1.535,1.535,0,0,1,1.7,1.594L19.653,6.99l6.377-.638a1.3,1.3,0,0,1,1.488,1.594,1.7,1.7,0,0,1-1.594,1.488ZM13.17,10.71a32.8,32.8,0,0,1,1.275,6.27l3.826-.425c.531-1.169,2.019-4.676,2.657-6.589ZM32.406,21.657c-1.275,8.183-3.507,14.135-7.121,18.7-1.275,1.7-2.019,2.232-2.763,2.232a1.1,1.1,0,0,1-1.169-1.275c.106-.531.106-.638,1.063-1.913A33.472,33.472,0,0,0,27.624,27.4a87.489,87.489,0,0,0,1.807-11.159,11.834,11.834,0,0,0,.213-1.807,30.157,30.157,0,0,1,.319-3.4A2.092,2.092,0,0,1,32.087,8.8a2.229,2.229,0,0,1,1.169.425,67.908,67.908,0,0,0,10.1-5c1.488-.957,1.7-1.063,2.338-1.063a1.622,1.622,0,0,1,1.594,1.807c-.106.744-.638,1.382-2.126,2.126a91.694,91.694,0,0,1-11.584,4.783L33.15,15.6l-.106,1.063-.106.957,15.2-1.382a1.483,1.483,0,0,1,1.807,1.594,1.874,1.874,0,0,1-1.913,1.7l-5.633.425L39.421,44.081a1.893,1.893,0,0,1-2.019,1.7,1.443,1.443,0,0,1-1.594-1.7l2.87-23.806-6.164.531-.106.425Z" transform="translate(-0.204 -0.082)" fill="#e60013"/><path d="M71.982,5.7c-1.063.106-1.913-.638-1.7-1.594a1.714,1.714,0,0,1,1.594-1.594l9.884-.957A1.951,1.951,0,0,1,84.2,3.575c-.319,2.338-5.1,8.077-10.521,12.435-4.57,3.826-11.265,7.971-12.753,7.971a1.276,1.276,0,0,1-1.169-1.275c.106-.85.106-.85,2.657-2.126,6.7-3.613,14.348-10.628,17.43-15.835ZM88.03,26.213l9.352-.638a1.415,1.415,0,0,1,1.488,1.7,1.714,1.714,0,0,1-1.594,1.594l-9.671.638-1.275,8.609c-.213,2.019.531,2.551,4.464,2.551s5.314-.319,6.058-1.382a13.686,13.686,0,0,0,1.382-4.676c.106-1.063.531-1.488,1.275-1.488s1.063.425,1.169,1.275a45.317,45.317,0,0,1-.213,5.314c-.425,3.613-2.338,4.464-9.778,4.464-7.333,0-8.715-.956-8.183-5.314l1.275-9.034-6.7.425a18.573,18.573,0,0,1-8.821,11.265c-2.338,1.382-6.164,2.976-7.121,2.976A1.222,1.222,0,0,1,59.973,43c.106-.744.213-.85,2.87-1.913,5.42-2.444,8.927-6.058,10.309-10.628l-9.459.744a1.415,1.415,0,0,1-1.488-1.7,1.732,1.732,0,0,1,1.7-1.594l9.99-.638.744-6.483-2.338.213a1.377,1.377,0,0,1-1.488-1.594,1.726,1.726,0,0,1,1.7-1.594l19.343-1.594a1.337,1.337,0,0,1,1.488,1.594,1.632,1.632,0,0,1-1.594,1.594l-2.763.213ZM68.581,8.783c2.444,1.7,3.295,2.657,3.188,3.613A2.36,2.36,0,0,1,69.75,14.2c-.85,0-.85,0-2.444-2.126a30.593,30.593,0,0,0-2.444-2.551,1.089,1.089,0,0,1-.638-1.063A1.6,1.6,0,0,1,65.605,7.3a8.853,8.853,0,0,1,2.976,1.488m9.884,11.691-.744,6.483,6.483-.425.957-6.589ZM92.706,10.7a33.11,33.11,0,0,0,2.869,2.763,43.482,43.482,0,0,0,5-4.676,3.346,3.346,0,0,1,1.807-.957,1.506,1.506,0,0,1,1.488,1.7c-.106,1.275-2.338,3.188-6.377,5.739.213.106.319.319.638.425a29.8,29.8,0,0,0,5.952,3.826c1.382.638,2.019,1.169,2.019,1.594-.106.744-2.338,1.488-4.039,1.488-.957,0-1.488-.213-3.188-1.594A71.505,71.505,0,0,1,85.479,6.339a2.264,2.264,0,0,1-.425-1.275,1.716,1.716,0,0,1,1.594-1.275c.744,0,.744,0,2.019,1.913.85,1.063,1.382,1.807,2.444,3.082a41.832,41.832,0,0,0,4.782-4.464c.85-.957,1.488-1.275,2.126-1.275a1.513,1.513,0,0,1,1.488,1.7c-.106,1.063-1.594,2.338-6.27,5.633Z" transform="translate(-6.834 -0.175)" fill="#e60013"/><path d="M121.044,24.869c-.744,4.676-1.913,6.7-3.613,6.7a1.514,1.514,0,0,1-1.7-1.7,2.534,2.534,0,0,1,.425-1.275,27.008,27.008,0,0,0,2.444-7.014,1.79,1.79,0,0,1,1.594-1.488c.957.106,1.275.531,1.169,1.7l34.222-2.232h.425c1.382,0,2.232.638,2.019,1.7-.106,1.169-1.275,2.976-3.507,5.208-1.594,1.7-2.232,2.126-2.87,2.126-.85,0-1.275-.425-1.169-1.063,0-.319.106-.425.531-1.063.638-1.063,1.7-2.87,1.807-3.188,0-.213-.213-.319-.531-.319h-.638Zm11.691,4.039a23.651,23.651,0,0,1-2.976,6.377,22.7,22.7,0,0,1-11.478,9.034,9.357,9.357,0,0,1-2.019.531,1.121,1.121,0,0,1-1.063-1.275c.106-.85.213-.957,2.444-1.913a22.59,22.59,0,0,0,11.265-13.072,2.006,2.006,0,0,1,2.019-1.488,1.625,1.625,0,0,1,1.807,1.807m7.652-15.517,10.947-.638a1.3,1.3,0,0,1,1.594,1.488,1.538,1.538,0,0,1-1.594,1.488l-25.719,1.594c-1.169.106-1.807-.425-1.7-1.488a1.57,1.57,0,0,1,1.7-1.488L136.56,13.6l.425-4.145-13.178.85c-1.169.106-1.807-.531-1.7-1.594a1.82,1.82,0,0,1,1.7-1.594l13.6-.85.531-4.464A2.117,2.117,0,0,1,140.174,0a1.6,1.6,0,0,1,1.7,1.807l-.531,4.251,13.5-.85c1.063,0,1.7.638,1.594,1.594A1.714,1.714,0,0,1,154.84,8.4l-13.922.85Zm-.106,25.4V39l.106.106c0,1.7.106,1.7,4.782,1.7a57.492,57.492,0,0,0,6.7-.319c1.7-.213,2.232-1.063,2.763-5.1.213-1.169.638-1.807,1.488-1.807s1.169.531,1.275,1.594a46.015,46.015,0,0,1,0,5.42,3.48,3.48,0,0,1-2.763,3.082c-1.382.425-5.314.638-9.778.638-5,0-6.589-.106-7.439-.638a3.072,3.072,0,0,1-1.169-3.295v-.425l1.807-12.966a2.013,2.013,0,0,1,2.126-1.913c1.275,0,1.913.638,1.7,1.913Z" transform="translate(-13.171)" fill="#e60013"/><path d="M30.821,56.971c-.956.425-2.126-.213-3.082-.213l.425.319-.957-.213v.425c-1.488,0-3.295.638-3.932-.106l.213.744L21.893,57.5l.957.425c-1.807.213-4.57-.106-5,0l.213.213c-.319.213-.531,0-.85,0l.213.319c-2.657.213-3.295,1.169-6.377,1.063-.85.106.425,0,.531.213-.425.425-1.488.213-1.807,0,.319.638,1.594.319.638.957-.638-.213.531.531-.638.531l-.531-.744c-.744.213-.106.638-1.169.638C6.8,60.9,9.459,60.053,7.546,60.16c-1.063.106-1.913,2.019-3.826,1.807-1.594.638.957,1.169-1.275,1.169l1.488.425c-.319.213-.106.638-1.063.531a2.3,2.3,0,0,0-1.488-.531c2.126.319-1.807,1.063.213,1.594l-.744.106c.106,0,.213.106.106.106L0,65.58c.638.106,2.019,0,1.488.638l-1.382.319c.425.425-.106.638,0,1.063l4.251.425c-.213-.319-.85-.425-.638-.744,1.063-.319.957.425,1.913,0l-.425-.319c.106.106.213.106,0,.213-.319.213-.531,0-.531-.213.319-.531,1.382-.319,1.7,0,1.382-.213.213-.85.531-1.063.744.744,2.232-.213,3.082,0l-.638-.425a3.081,3.081,0,0,1,2.551-.106l-.213-.425c1.382-.106,2.019-1.488,3.188-.106l-.213-.319a2.975,2.975,0,0,1,2.126-.213.4.4,0,0,1,.319-.425c.319.531.85.106,1.7-.106-.531-.106-.425-.85-1.063-.956,1.275-.85,1.275.638,2.444.531.638-.425-.638-.319-.85-.531,1.807.213,3.4-2.019,4.676-.638l-.744.531c.744.213,1.063.213.957.106-.213,0-.319-.106-.319-.213,1.913-.957,3.295.744,5.314.319-.106-.319-.425-.319-.531-.531.957-.425,1.063,1.275,2.657.638l-.425-.319a.759.759,0,0,1,.957.319c-.106-1.275,3.295-.213,4.251-1.913.744.638,2.976.956,3.613.531.957-.744-.85-.744-.531-1.382.744-.106,1.169.531,2.232.319.106.638-2.126,1.488,0,1.7l.319-.319c-.213,0-.531.213-.85.106-.638-.319.319-.531.531-.638H43.68c.213.744-1.169.638-1.275.85,1.807-.319,3.826-1.488,5.526-1.063l-.106-.319c2.126.531,1.063-1.382,2.869-.319.85-.213-.319-.744.957-.85.425,0,.213.213.106.319,1.7.213.744-.744,2.232-.106L53.67,59.2c1.807.425,3.826,1.594,5.42,1.169-.213-.531-1.169-.425-1.594-.85,2.232.956,5.208-.106,7.121.319-.531.531,1.063,1.169-.213,1.594-.319-.744-.957-.213-1.594-.213,1.169,1.594,4.464-1.063,4.889.425l.319-.638c.213.106,1.063.531.531.744l2.126-.531c-.744-.425-2.444-1.382-2.87-.744-.638-.531.85-.425.319-1.063,1.488.85.85-.531,2.338-.319-.638.85,1.594,1.063,1.488,1.488a4.313,4.313,0,0,1,2.019.425c.85.106,2.87-.638,4.251-.425-.531-.213-1.382-.531-1.275-1.063.638.213,1.382.213,1.488-.425-2.444-1.063-.744,1.488-2.976.85-.531-.744-1.169-.85-2.338-1.063.531-.425.319-.638.531-1.063,1.382,1.382,3.613,0,5.42.638.85.425.213,1.382,2.019,1.488l-1.488.531c1.594-.425.425.425,1.7.638l-.531-.531a1.818,1.818,0,0,1,1.594.319l-.744-.744c.531-.106,1.275-.213,1.382.213a.8.8,0,0,0,.106-.425c.106.106.319.213.85.106-.319-.106-.531,0-.531-.213,1.913.106.425-.85,1.594-.85-.106-.106.213-.319.638-.425,0,1.169,2.444,1.275,3.082,1.913l1.7.425c-.319-.106,0-.425.531-.531h-.106c.531-.213-.638-1.275.956-.957l.85.319c-.213-.106-.106-.213,0-.319l.85.319c1.382-1.169,2.551.531,4.039,0-.425.106-1.063,0-.85-.319.319-.213.744,0,1.063.106l-.106-.106,2.976.744c-.319-.425-1.913-.425-1.169-.957.425-.531,1.275.106,1.807.106-.106.319-1.063.638-.106.744.106-.106,1.063-.425.638-.744a18.082,18.082,0,0,1,3.4,1.063c.319-.106-.213-.213-.319-.213h-.106c-.638-.106-.106-.744-1.275-.425-.106-1.063,1.7-.319,2.763-.425l-1.7-.744c2.869-1.488,6.7.106,9.459.106-.85.319-1.488.106-1.382.85a16.408,16.408,0,0,0,3.188.425l-.106-.106c.85-.425,2.019.425,2.657-.319-.425-.425-1.275.425-1.275-.425h2.126c-.638-.531-2.126,0-2.976-.213-.638.106,1.169.213.957.744a4.205,4.205,0,0,1-3.507-1.488c-.638-.638.85-.638,1.275-.638a6.968,6.968,0,0,0,5.208,1.063l1.063-.744c1.063.638.531,1.913,2.338,1.7l-.531-.425c.425-.213.744-.319.85-.213-.744-.425-1.594-.85-2.232-1.275,1.063-1.063,2.87.531,4.464.85-.106-.213-.638-.213-.744-.531,2.232-.213,4.57,1.063,6.27,1.275.744-.425-1.382-.319-1.063-.956.957.319,1.913-.319,2.232.319-.425-.85,2.019,0,.319-.85a20.538,20.538,0,0,1,5.1.213q2.71.478,5.1.957a.678.678,0,0,1,0-.638c-1.063,0-2.763-.319-3.295-.957.744-.425,1.7.638,1.913.425-.425-.319-1.169-.319-1.169-.744,1.063-.531,1.594.213,2.232.319l-.425.213c2.126.744,1.169,1.7,3.4,1.488.85-.531,0-.425,0-1.169.531.319,2.232-.319,2.763.425h-1.275a13.982,13.982,0,0,1,2.444.531c-.106-.213-.106-.319-.319-.425.744.213,1.7.213,2.126.744l.213-.744c-.425.319-1.807.319-2.019-.106.106-.638,1.488-.213,2.126-.213-2.657-.319-2.657-1.488-4.889-1.063l.319.213c-1.382.531-2.763-.425-3.932-.425.319-.106.425-.425.213-.531-2.657.425-5.314-.106-8.4.213l-.956-.744-.106.531c-1.488.213-.213-.744-1.275-.744.425,0,.319.106.425.213-1.7-.638-.956.531-1.913.319.425.638,1.807.319,1.382,1.063-1.7-.638-4.464-.425-4.676-1.7-3.295.425-7.227-.425-9.99-.531-.319.213.213.106.106.319-1.063-.744-3.613.531-3.613-.106-.531.106-.744.638-.85.85a9.191,9.191,0,0,0-2.444-.638l.638.213-.106.106-.85-.319c-2.126-.213-4.676,0-6.7-.744,1.169.425-.213.85.319,1.063-1.063-1.063-3.507-1.063-5.42-.956,0,.213-.106.425.106.638l-1.169-.425.213.213c-2.126.213-4.357-.956-5.633-.425.85.106.85.319.957.744a23.09,23.09,0,0,1-4.57-.319c.106.106.106.106.106.213A3.139,3.139,0,0,1,88,55.058l-.106.531c-.85-.213-1.913,0-2.976-.319-.425.531-2.551-.531-3.72-.213-.531-.106.956.531-.319.531-.213-1.169-1.594,0-1.807-1.169l-1.063.425-.319-.638c-.85,1.275-1.382-.425-2.869,0,.106.106.319.106.213.213-.425-.106-1.488-.106-.744-.425-.744,0-3.295-.213-2.126.425-.106-.319.956-.106,1.382,0,0,.531-1.169.425-1.382.956-.106,0-.213-.106-.319-.213l-.213.319c-1.382-.531-2.869,0-3.932-.744,0,.106-.213.319-.744.319v-.744l-1.594.106.744.956c-1.594.319-2.763-.744-4.145-.85-.319,1.063-2.763-.319-3.826.744l1.063.213c-2.232-.106-2.551.638-4.783.319a16.757,16.757,0,0,0,4.357-1.275c-2.551.638-4.57-.425-6.908.425.213.213.85.319.213.638-.531-.531-2.232.213-1.913-.531-.744.319-.85.957-1.275,1.063l-2.551-.744.106.213c-4.145,1.807-8.077-.531-12.328.425l.106.319-1.063-.425c.85.319-.319.531-.425.85l-2.763-.638c0,.319.213,1.063.85.85m36.028-1.807h.638c.213-.106.319-.106.425,0h-.425c-.319.106-.531.319-.638,0m59.834.531c.319.319-.425.106-.638.106l1.063.106c.106-.213-.319-.213-.425-.213M67.061,59.522l-.319.425-.425-.319Zm-9.14.425.957.213-.106.106-.85-.213ZM47.506,56.865l.213.106-.213-.106c-.638-.319-.957.531-1.488-.213.638-.744,1.063,0,1.488.213m16.154-.85a.9.9,0,0,0,.744,0c-.213-.213-.85-.638-.425-.744.425.319,1.382.319,1.488.85-.956-.425-1.594.85-1.807-.106m21.681-.425h-.213l.85.319Zm3.932.319c.531.638,1.7.425,2.551.531.213-.425-.638-1.063-1.594-.957-1.169-.425-.425.744-.957.425M56.646,57.184l.319.425-.213.106.85.213c-1.169.531-2.019-.425-2.657-.531.531,0,2.019.85,1.7-.213m41.023-1.063c.85.319,2.338.744,2.232,1.169,0-.85-1.169-1.169-1.594-1.169-.213.106-.319,0-.638,0m0,1.382c-1.275-.319-1.275-.638-2.232-1.382,1.169-.319,1.488.638,1.382,1.063.85.319.638-.106,1.063-.213Zm-1.275-2.126-.531.106c-.531.319-.638,1.169-1.488.319l1.488-.319a.8.8,0,0,1,.531-.106m10.2,0-.531-.319c.531,0,.531.213.531.319l.425.213c-1.063.213-.531,0-.425-.213m-7.758.213H97.351c.106.319.957.106,1.488,0m7.439.425a7.344,7.344,0,0,1-2.019.106c.213-.425,1.594-.319,2.019-.106M137.949,57.5l-.956-.106.425-.531Zm-10.628.106.213-.213h.531Zm-9.778,0c0-.213,0-.319-.106-.425s-.213-.106-.319-.213c.106,0,.319.106.319.213a2.392,2.392,0,0,0,1.275-.106c-.106-.319-.744-.213-.956-.425.85-.638,2.869,1.382,2.338-.531.319.213,1.594.744,1.169,1.063a8.559,8.559,0,0,0-3.72.425c0,.106-.106.106-.319.106.106,0,.213-.106.319-.106m-13.178.319a3.757,3.757,0,0,1-.638-.106c-.319-.213-.531-.319-.425-.638.744.213.319.425.425.638.213,0,.425.106.638.106m-2.338.106,1.275.425-.638-.425,1.807.744a2.2,2.2,0,0,1-2.444-.744m-.425.425-.213-.425.319.425H101.6l.106.106-2.019-.319Zm-20.83-.531c-.638,1.488,1.913,1.063,2.232,1.7.106-.425.85-1.275-1.169-1.169,1.807-.638,1.169.957,2.126-.425a3.945,3.945,0,0,1-1.913-.213L83,57.715c-.638-.957-1.488.531-2.232.213m-10.415.531-1.275.106H70.25ZM38.9,60.585c.106.425-1.488,1.169-1.913.531.85-.213,1.7-.213,1.913-.531m-13.5.957,1.488.213c-.213.85-1.275.106-1.913.319-.319-.425.213-.213.425-.531m-9.246.85-.531-.106.531.744Zm.638,1.063c-.213.319.744.425,1.063.319ZM8.609,64.942l.531-.106L8.5,64.2Zm.85-.957c.106.531.213,1.169,1.488.744,0-.531-.319-.531.106-1.169a1.449,1.449,0,0,0-1.063.213c.319,0,.638-.213.744.106a1.386,1.386,0,0,1-1.275.106.83.83,0,0,0-.425-.425.83.83,0,0,0,.425.425m4.889-1.063c.106-.106.319-.106.319-.213l.106.106a.263.263,0,0,1-.425.106l-.638.319c-.106.425.85.638,1.063.85-.425-.106-.85-.425-1.382-.106.106.106,0,.213.319.106l-.744.213c-1.063-.531-.106-.85.744-1.063,0-.106,0-.213.213-.425.106,0,.213.106.425.106m-6.7-.319h.425a.447.447,0,0,1,.213.531c-.531,0-1.169-.213-.638-.531M34.54,60.053c-.319.106.425.638,1.169.425l-.319.744c-.106-.425-1.382-.319-1.594-.319-.319-.638.319-.425.744-.85M65.892,58.14c.319.85,2.019.319,2.338.531-.85.213-2.87.531-2.338-.531m2.976-.425c.425,0,.638-.106.531.319.213.213.638-.106.85.106-.85.425-.85-.319-1.382-.425h-.425c.213-.106.319,0,.425,0m-18.386.85-.638-.638-.956.106ZM39.961,58.14c.106.319-.957.425-1.275.213.106.531.85.425,1.488.425h0c-.213-.106-.106-.319-.106-.531l.319-.213h-.85ZM21.468,59.1c-.638.425-.744.213-1.169.106a1.889,1.889,0,0,1,1.169-.106M45.487,57.29c-1.063.319.638.744-.106,1.063l.531-.106c-.85.531-.638-.531-1.382-.319l.531-.106c.319-.531-.744-.319-.85-.638.531-.213,1.7,0,1.275.106M20.405,58.884c-1.063.531-.957-.425-1.594-.531.85-.425.744.425,1.594.531M38.26,56.44l.106-.106-.956-.213v.106Z" transform="translate(0 -6.171)" fill="#e60013"/></g></g></svg>