<svg xmlns="http://www.w3.org/2000/svg" width="487.807" height="138.146" viewBox="0 0 487.807 138.146"><g transform="translate(-26.75 -19893.094)"><path d="M25.306,8.589H16.652a.5.5,0,0,0-.5.5v1.056a.5.5,0,0,0,.415.494c2.016.348,2.293,1.064,2.293,1.787,0,.695-.544,2.17-2.039,4.309a21.051,21.051,0,0,0-4.466-5.487c2.658-1.7,4-3.656,4-5.826,0-3.194-2.5-5.423-6.082-5.423C6.293,0,3.4,2.7,3.4,6.413A6.976,6.976,0,0,0,5.677,11.4C1.807,13.8,0,16.359,0,19.427c0,4.2,3.339,7.371,7.766,7.371,2.477,0,4.993-1.1,7.677-3.372,1.584,2.834,3.7,3.372,7.155,3.372.721,0,1.538,0,2.447-.067a.5.5,0,0,0,.464-.5V23.787a.5.5,0,0,0-.5-.5c-.179,0-.356.009-.529.018-.148.008-.293.015-.429.015-3.1,0-4.292-.7-5.57-3.384a39.955,39.955,0,0,0,3.1-5.57,17.7,17.7,0,0,1,.875-1.706,4.108,4.108,0,0,1,2.957-2.027.5.5,0,0,0,.39-.488V9.089a.5.5,0,0,0-.5-.5M10.079,3.114a2.277,2.277,0,0,1,2.572,2.375c0,1.388-.964,2.658-2.863,3.778C7.987,8.146,7.11,6.994,7.11,5.754a2.668,2.668,0,0,1,2.969-2.64m-2.084,10.3a19.57,19.57,0,0,1,5.8,7.013c-1.62,1.636-3.164,2.431-4.708,2.431a4.406,4.406,0,0,1-4.421-4.486c0-2.023,1.118-3.688,3.328-4.958" transform="translate(169.672 19951.824)" fill="#02805b"/><path d="M25.306,8.589H16.652a.5.5,0,0,0-.5.5v1.056a.5.5,0,0,0,.415.494c2.016.348,2.293,1.064,2.293,1.787,0,.695-.544,2.17-2.039,4.309a21.051,21.051,0,0,0-4.466-5.487c2.658-1.7,4-3.656,4-5.826,0-3.194-2.5-5.423-6.082-5.423C6.293,0,3.4,2.7,3.4,6.413A6.976,6.976,0,0,0,5.677,11.4C1.807,13.8,0,16.359,0,19.427c0,4.2,3.339,7.371,7.766,7.371,2.477,0,4.993-1.1,7.677-3.372,1.584,2.834,3.7,3.372,7.155,3.372.721,0,1.538,0,2.447-.067a.5.5,0,0,0,.464-.5V23.787a.5.5,0,0,0-.5-.5c-.179,0-.356.009-.529.018-.148.008-.293.015-.429.015-3.1,0-4.292-.7-5.57-3.384a39.955,39.955,0,0,0,3.1-5.57,17.7,17.7,0,0,1,.875-1.706,4.108,4.108,0,0,1,2.957-2.027.5.5,0,0,0,.39-.488V9.089a.5.5,0,0,0-.5-.5M10.079,3.114a2.277,2.277,0,0,1,2.572,2.375c0,1.388-.964,2.658-2.863,3.778C7.987,8.146,7.11,6.994,7.11,5.754a2.668,2.668,0,0,1,2.969-2.64m-2.084,10.3a19.57,19.57,0,0,1,5.8,7.013c-1.62,1.636-3.164,2.431-4.708,2.431a4.406,4.406,0,0,1-4.421-4.486c0-2.023,1.118-3.688,3.328-4.958" transform="translate(345.016 19951.824)" fill="#02805b"/><path d="M69.073,0A69.073,69.073,0,1,1,0,69.073,69.073,69.073,0,0,1,69.073,0Z" transform="translate(26.75 19893.094)" fill="#b3b400"/><path d="M69.073,0A69.073,69.073,0,1,1,0,69.073,69.073,69.073,0,0,1,69.073,0Z" transform="translate(201.066 19893.094)" fill="#b3b400"/><path d="M69.073,0A69.073,69.073,0,1,1,0,69.073,69.073,69.073,0,0,1,69.073,0Z" transform="translate(376.41 19893.094)" fill="#b3b400"/><path d="M-25.408-3.008c0,1.5-.672,1.92-1.7,1.92a7.952,7.952,0,0,1-1.632-.224,1.089,1.089,0,0,0-.32-.032A1.294,1.294,0,0,0-30.272.1c0,1.6,1.376,1.824,3.2,1.824,3.616,0,4.608-2.336,4.608-4.16V-2.3l-.064-4.512v-6.048c2.4,0,2.88,0,2.88.512a11.092,11.092,0,0,1-1.5,2.88,1.208,1.208,0,0,0-.256.736A1.38,1.38,0,0,0-19.9-7.52a2,2,0,0,0,1.6-.832c.064-.064,1.856-2.976,1.856-4.544a2.478,2.478,0,0,0-2.752-2.5c-.992,0-2.176-.032-3.424-.032a1.72,1.72,0,0,0,.768-1.312,1.261,1.261,0,0,0-.352-.864c-.032-.064-.1-.1-.16-.16,3.936-3.136,4.256-4.32,4.256-4.992,0-1.088-.96-1.984-2.592-1.984h-2.112c-1.952,0-3.936.032-5.7.064A1.342,1.342,0,0,0-29.888-23.3a1.291,1.291,0,0,0,1.344,1.344h.064c2.112-.064,4.384-.224,6.208-.224.16,0,.224.064.224.16a15.637,15.637,0,0,1-2.464,2.656,4.866,4.866,0,0,0-1.952-.8A1.537,1.537,0,0,0-28-18.784a.95.95,0,0,0,.608.864,8.426,8.426,0,0,1,3.04,2.208,1.162,1.162,0,0,0,.256.288c-1.76,0-3.552,0-5.248.032a1.318,1.318,0,0,0-1.376,1.344,1.26,1.26,0,0,0,1.344,1.28h.032c1.216,0,2.592-.032,3.936-.064ZM-32-6.88a1.226,1.226,0,0,0,1.216-1.28,1.167,1.167,0,0,0-1.184-1.216H-32l-4.064.032V-11.9c.672-.032,1.344-.064,1.92-.1,1.952-.16,2.976-1.056,3.1-2.656.1-1.184.128-2.368.128-3.584,0-1.44-.064-2.88-.16-4.384a2.7,2.7,0,0,0-2.816-2.432c-1.12-.064-2.272-.064-3.424-.064s-2.272,0-3.424.064A2.918,2.918,0,0,0-43.9-22.048c-.032,1.152-.064,2.464-.064,3.776,0,1.28.032,2.528.064,3.616.1,1.664,1.28,2.528,2.976,2.656.64.032,1.376.064,2.112.1v2.592l-4.1.032A1.216,1.216,0,0,0-44.16-8a1.174,1.174,0,0,0,1.216,1.216h.032l4.064-.032v3.424c-1.568.288-3.2.544-4.864.7a1.305,1.305,0,0,0-1.216,1.376A1.412,1.412,0,0,0-43.52.16,66.979,66.979,0,0,0-31.136-2.72,1.365,1.365,0,0,0-30.208-4a1.184,1.184,0,0,0-1.12-1.248,1.606,1.606,0,0,0-.384.064c-1.312.416-2.784.832-4.352,1.184V-6.848Zm-4.128-12.832V-22.72c1.92,0,2.4,0,2.464.992.032.608.1,1.28.1,2.016Zm-2.624,0h-2.56c0-3.008,0-3.008,2.56-3.008Zm5.184,2.336c0,3.136-.032,3.136-2.56,3.136v-3.136Zm-5.184,3.136c-1.888,0-2.432-.16-2.5-.992-.032-.672-.064-1.408-.064-2.144h2.56ZM12.1-21.152A1.365,1.365,0,0,0,13.568-22.5,1.324,1.324,0,0,0,12.1-23.808L5.5-23.776v-1.28a1.394,1.394,0,0,0-1.536-1.312A1.4,1.4,0,0,0,2.4-25.056v1.28H-2.464v-1.28A1.394,1.394,0,0,0-4-26.368a1.4,1.4,0,0,0-1.568,1.312v1.28l-6.5-.032A1.341,1.341,0,0,0-13.536-22.5a1.347,1.347,0,0,0,1.472,1.344l6.5-.032v.96A1.33,1.33,0,0,0-4.1-18.944a1.494,1.494,0,0,0,1.632-1.408v-.832H2.4v.416a1.33,1.33,0,0,0,1.472,1.28A1.494,1.494,0,0,0,5.5-20.9v-.288ZM5.6-10.144c1.184-1.184,3.2-4,3.2-4.864a1.638,1.638,0,0,0-1.664-1.44,1.111,1.111,0,0,0-1.056.64,18.044,18.044,0,0,1-2.624,4.1,1.247,1.247,0,0,0-.352.832A1.349,1.349,0,0,0,4.512-9.664,1.537,1.537,0,0,0,5.6-10.144Zm3.264-6.848a1.207,1.207,0,0,0,1.088-1.216,1.4,1.4,0,0,0-1.536-1.344,1.558,1.558,0,0,0-.384.032,133.914,133.914,0,0,1-18.048,1.312c-1.024,0-1.5.608-1.5,1.248a1.492,1.492,0,0,0,1.664,1.376C-9.152-15.584,2.272-16.1,8.864-16.992ZM1.408-12.48c0-.416-.768-3.328-2.336-3.328a1.357,1.357,0,0,0-1.44,1.152,1.02,1.02,0,0,0,.192.544A5.085,5.085,0,0,1-1.216-12a1.1,1.1,0,0,0,1.12.864A1.449,1.449,0,0,0,1.408-12.48Zm-5.92.96c0-.736-1.632-3.648-3.1-3.648a1.408,1.408,0,0,0-1.44,1.216,1.047,1.047,0,0,0,.416.8,5.442,5.442,0,0,1,1.5,2.176,1.2,1.2,0,0,0,1.152.832A1.449,1.449,0,0,0-4.512-11.52ZM11.872-6.272a1.291,1.291,0,0,0,1.344-1.344A1.3,1.3,0,0,0,11.84-8.96H1.472v-.7a1.371,1.371,0,0,0-1.5-1.344A1.381,1.381,0,0,0-1.536-9.6v.64H-11.744A1.343,1.343,0,0,0-13.12-7.584a1.267,1.267,0,0,0,1.344,1.312h.032L-3.008-6.4a28.737,28.737,0,0,1-9.408,4.992c-.768.288-1.12.768-1.12,1.28A1.547,1.547,0,0,0-11.9,1.312c.9,0,6.528-2.4,10.432-5.7l-.064,5.536v.032c0,.832.736,1.216,1.5,1.216a1.352,1.352,0,0,0,1.5-1.216V1.152l-.064-5.6C5.376-1.28,10.976,1.184,11.84,1.184a1.783,1.783,0,0,0,1.7-1.76,1.288,1.288,0,0,0-.992-1.248C8.864-3.04,5.952-4.064,2.752-6.4l9.088.128Zm20.384-11.68a8.3,8.3,0,0,1,3.968,1.28c3.168,2.016,4.032,6.208,1.76,9.792-1.056,1.664-3.52,3.04-5.952,3.584-2.752.64-1.76,3.872,1.056,3.136,3.168-.832,6.3-2.816,7.808-5.28C43.68-10.016,42.88-15.9,37.92-18.88c-4.032-2.432-9.888-1.984-13.824.736-4.288,2.976-6.432,8.928-4.416,12.9,1.408,2.752,4.1,4,6.56,1.728,3.072-2.848,5.952-8.9,6.464-12.96A1.6,1.6,0,0,0,32.256-17.952Zm-2.528.16a2.263,2.263,0,0,0-.288.992c-.32,3.456-2.56,8.544-4.96,10.656-.8.7-1.632.224-2.112-.7-1.344-2.464.256-6.72,3.232-9.024A10.6,10.6,0,0,1,29.728-17.792Zm-52.064,41.92c.1-1.44.128-3.264.128-5.12s-.032-3.744-.128-5.248c-.064-1.408-1.28-2.656-3.456-2.72-1.5-.064-3.1-.064-4.736-.064s-3.264,0-4.864.064c-2.464.064-3.424,1.44-3.456,2.752-.032,1.536-.064,3.456-.064,5.312s.032,3.648.064,5.056c.064,1.632,1.152,2.752,3.424,2.88,1.536.064,3.168.128,4.8.128s3.264-.064,4.832-.128C-23.744,26.912-22.4,25.664-22.336,24.128Zm3.04,14.016a1.732,1.732,0,0,0,1.76-1.76,1.389,1.389,0,0,0-1.312-1.408,19.663,19.663,0,0,1-7.392-2.784,1.569,1.569,0,0,0-.8-.256,1.58,1.58,0,0,0-1.5,1.568,1.334,1.334,0,0,0,.608,1.088A23.514,23.514,0,0,0-19.3,38.144Zm1.056-6.784a1.309,1.309,0,0,0,1.312-1.376,1.292,1.292,0,0,0-1.312-1.376l-12.416.032-12.384-.032a1.307,1.307,0,0,0-1.376,1.376A1.324,1.324,0,0,0-43.04,31.36l12.384-.064Zm-15.328,3.392a1.259,1.259,0,0,0,.576-1.088A1.7,1.7,0,0,0-34.56,32a1.364,1.364,0,0,0-.8.288,15.965,15.965,0,0,1-7.2,2.976A1.49,1.49,0,0,0-44,36.736a1.6,1.6,0,0,0,1.664,1.6A22.918,22.918,0,0,0-33.568,34.752ZM-35.936,15.52c0-.32.032-.608.032-.9a1.256,1.256,0,0,1,1.376-1.184c1.408-.032,3.072-.064,4.736-.064,3.84,0,4.416,0,4.48,1.216,0,.288.032.608.032.928Zm10.688,4.512h-10.72V17.888h10.72Zm-.032,2.336c0,.384-.032.768-.032,1.12C-25.344,24.7-25.76,24.8-31.04,24.8c-3.712,0-4.8-.064-4.864-1.28,0-.352-.032-.768-.032-1.152ZM6.912,33.024A1.714,1.714,0,0,1,4.96,34.976a8.433,8.433,0,0,1-2.048-.32,1.435,1.435,0,0,0-.352-.032,1.338,1.338,0,0,0-1.248,1.44c0,.96.48,1.856,3.744,1.856,3.808,0,4.992-2.432,4.992-4.224v-.128L9.92,29.024l-.128-9.44,2.752.032a1.419,1.419,0,0,0,1.568-1.376,1.448,1.448,0,0,0-1.568-1.44l-2.784.032L9.7,11.552a1.468,1.468,0,0,0-1.536-1.5,1.435,1.435,0,0,0-1.5,1.472v.032l.064,5.28L1.376,16.8a1.435,1.435,0,0,0-1.5,1.472,1.357,1.357,0,0,0,1.5,1.344l4.672-.032a27.97,27.97,0,0,1-8,10.016,1.483,1.483,0,0,0-.64,1.152,1.584,1.584,0,0,0,1.6,1.472,1.875,1.875,0,0,0,1.12-.416,27.59,27.59,0,0,0,6.848-8.384Zm-12,3.744s-.128-7.616-.16-12.576A17.621,17.621,0,0,1-3.008,26.3a1.22,1.22,0,0,0,.96.48A1.569,1.569,0,0,0-.576,25.248a1.472,1.472,0,0,0-.384-.96c-.608-.672-2.976-2.56-3.84-2.56a1.256,1.256,0,0,0-.448.1v-2.3l2.912.064H-2.3A1.332,1.332,0,0,0-.928,18.176,1.332,1.332,0,0,0-2.3,16.768l-2.912.032c.032-2.88.128-5.44.128-5.44v-.032a1.466,1.466,0,0,0-1.6-1.408,1.409,1.409,0,0,0-1.536,1.408v.032l.1,5.44-3.68-.032A1.427,1.427,0,0,0-13.28,18.24a1.319,1.319,0,0,0,1.44,1.344h.032L-8.1,19.52v.128a32.552,32.552,0,0,1-5.952,8.544,1.338,1.338,0,0,0-.48,1.024A1.592,1.592,0,0,0-12.9,30.688a1.608,1.608,0,0,0,1.248-.608A37.976,37.976,0,0,0-8.1,24.992l-.128,11.776V36.8c0,.9.768,1.312,1.568,1.312A1.422,1.422,0,0,0-5.088,36.8Zm36.7-17.024a1.136,1.136,0,0,0,0-2.272H24.672a1.152,1.152,0,0,0-1.152,1.184,1.075,1.075,0,0,0,1.152,1.088Zm10.56-3.9a1.216,1.216,0,0,0,1.248-1.28,1.191,1.191,0,0,0-1.248-1.248H40.64a1.529,1.529,0,0,0,.32-.9c0-1.44-2.816-2.464-3.328-2.464A1.378,1.378,0,0,0,36.32,11.2a.76.76,0,0,0,.48.7,7.343,7.343,0,0,1,2.048,1.408c-1.152,0-2.336-.032-3.488-.032-.064-.64-.1-1.28-.128-1.92A1.53,1.53,0,0,0,33.7,9.824,1.318,1.318,0,0,0,32.352,11.2v.256c.064.608.16,1.216.224,1.824-3.264,0-6.432,0-9.312.032a3.12,3.12,0,0,0-3.392,3.072v.128c.032.736.064,1.664.064,2.688,0,2.816-.352,6.464-2.656,8.928a1.523,1.523,0,0,0-.448,1.024A1.622,1.622,0,0,0,18.5,30.624a1.878,1.878,0,0,0,1.472-.768c2.624-3.36,2.976-8.352,2.976-11.328,0-.544-.032-.992-.032-1.376a1.19,1.19,0,0,1,1.344-1.312c2.688-.032,5.6-.064,8.64-.064a32.211,32.211,0,0,0,2.3,8.7A11.349,11.349,0,0,1,31.584,27.3a1.144,1.144,0,0,0-.7,1.088v.1a2.228,2.228,0,0,0-1.024-.288,1.511,1.511,0,0,0-1.536,1.344,1.13,1.13,0,0,0,.608.928,12.434,12.434,0,0,1,3.1,2.56,1.332,1.332,0,0,0,1.056.544,1.643,1.643,0,0,0,1.568-1.6c0-.448-.192-1.152-1.888-2.3.032,0,.064-.032.1-.064a13.717,13.717,0,0,0,3.68-2.72c1.7,2.432,3.392,2.656,4.128,2.656,2.816,0,3.872-3.584,3.872-4.832a1.507,1.507,0,0,0-1.568-1.472,1.209,1.209,0,0,0-1.248,1.12c-.256,1.568-.672,2.176-1.216,2.176-.7,0-1.568-.96-2.176-1.824a17.2,17.2,0,0,0,2.784-5.952,1.447,1.447,0,0,0-1.472-1.376,1.173,1.173,0,0,0-1.184.9,18,18,0,0,1-1.536,3.68,29.942,29.942,0,0,1-1.312-6.176c2.176,0,4.352.032,6.528.064Zm.8,20.608a1.716,1.716,0,0,0,1.664-1.664c0-1.664-4.128-4.608-5.28-4.608a1.464,1.464,0,0,0-1.536,1.312,1.286,1.286,0,0,0,.64,1.056,11.875,11.875,0,0,1,3.3,3.2A1.386,1.386,0,0,0,42.976,36.448Zm-10.528-12c0-2.624-.1-3.36-3.648-3.36-.768,0-1.568.032-2.3.032-2.3,0-2.592,1.12-2.592,3.072,0,2.816.448,3.264,4.384,3.264S32.448,26.656,32.448,24.448Zm5.664,9.184c0-.768-.864-1.248-1.7-1.248-.736,0-1.408.352-1.408,1.184,0,1.472-1.088,1.728-4.128,1.728-2.592,0-3.264-.256-3.328-1.376,0-.352.032-2.56.032-3.456a1.443,1.443,0,0,0-1.536-1.376A1.461,1.461,0,0,0,24.512,30.5c0,.256-.032.576-.032,3.744,0,2.688,1.344,3.648,6.3,3.648C36.128,37.888,38.112,37.152,38.112,33.632Zm-14.4-1.472a1.6,1.6,0,0,0-1.6-1.44,1.3,1.3,0,0,0-1.248.832,8.215,8.215,0,0,1-3.04,2.912A1.574,1.574,0,0,0,16.7,35.84a1.634,1.634,0,0,0,1.7,1.472C20.1,37.312,23.712,33.728,23.712,32.16ZM26.3,23.648c.032-.416.384-.48,1.856-.48,1.888,0,1.92,0,1.92,1.056,0,.992-.16,1.088-1.664,1.088-1.92,0-2.112-.128-2.112-.544Z" transform="translate(95.823 19956.168)" fill="#faf6df"/><path d="M-33.12-6.528c-.768-2.944-4.352-7.072-7.136-9.536-1.92-1.7-4.064.608-2.528,1.92,2.08,1.792,5.216,5.824,6.176,8.9C-35.84-2.752-32.48-4.064-33.12-6.528Zm-23.2,2.816a24.429,24.429,0,0,0,8-10.144,1.743,1.743,0,1,0-3.232-1.28,17.951,17.951,0,0,1-6.784,8.544A1.768,1.768,0,1,0-56.32-3.712ZM-4.576-10.56a1.545,1.545,0,0,0,1.632-1.568,1.552,1.552,0,0,0-1.632-1.6h-20.1a1.632,1.632,0,0,0-1.7,1.632,1.541,1.541,0,0,0,1.7,1.536ZM27.616-22.752c1.088,1.216,2.912-.8,1.632-2.08a10.213,10.213,0,0,0-3.232-1.824c-1.5-.48-2.688,1.44-1.056,2.08A11.851,11.851,0,0,1,27.616-22.752ZM24.672-19.9c1.056,1.248,2.944-.7,1.7-2.048a9.9,9.9,0,0,0-3.168-1.92c-1.472-.544-2.752,1.376-1.12,2.048A11.127,11.127,0,0,1,24.672-19.9ZM8.9.48C17.856-2.944,21.76-9.152,24-15.552c.928-2.624-.9-4.576-3.488-4.608-4.064-.064-10.048-.032-14.272.16A1.585,1.585,0,1,0,6.3-16.832c4.608-.16,9.664-.352,12.8-.256,1.184.032,1.28.832,1.024,1.7A19.8,19.8,0,0,1,7.424-2.624C4.992-1.856,6.176,1.5,8.9.48Zm38.08-18.432a8.3,8.3,0,0,1,3.968,1.28c3.168,2.016,4.032,6.208,1.76,9.792-1.056,1.664-3.52,3.04-5.952,3.584C44-2.656,44.992.576,47.808-.16c3.168-.832,6.3-2.816,7.808-5.28C58.4-10.016,57.6-15.9,52.64-18.88c-4.032-2.432-9.888-1.984-13.824.736-4.288,2.976-6.432,8.928-4.416,12.9,1.408,2.752,4.1,4,6.56,1.728,3.072-2.848,5.952-8.9,6.464-12.96A1.6,1.6,0,0,0,46.976-17.952Zm-2.528.16a2.263,2.263,0,0,0-.288.992c-.32,3.456-2.56,8.544-4.96,10.656-.8.7-1.632.224-2.112-.7-1.344-2.464.256-6.72,3.232-9.024A10.6,10.6,0,0,1,44.448-17.792ZM-3.424,19.072a1.232,1.232,0,0,0,1.28-1.312,1.256,1.256,0,0,0-1.312-1.312l-10.5.032.064-2.528c2.464-.192,4.832-.48,6.56-.8A1.164,1.164,0,0,0-6.4,11.968,1.413,1.413,0,0,0-7.872,10.56a1.558,1.558,0,0,0-.384.032,77.4,77.4,0,0,1-13.6,1.184c-.8,0-1.632,0-2.432-.032h-.064a1.257,1.257,0,0,0-1.408,1.248,1.413,1.413,0,0,0,1.5,1.344h1.408c1.76,0,3.84-.032,5.984-.16l.032,2.3-10.4-.032a1.293,1.293,0,0,0-1.376,1.312,1.267,1.267,0,0,0,1.344,1.312h.032l8.7-.1a33.13,33.13,0,0,1-10.112,5.76,1.436,1.436,0,0,0-1.088,1.312,1.547,1.547,0,0,0,1.632,1.44c1.12,0,7.328-3.1,11.264-6.592L-16.9,24v.032a1.352,1.352,0,0,0,1.5,1.216c.768,0,1.5-.416,1.5-1.216V24l-.064-3.2C-9.6,24.416-3.84,27.072-2.88,27.072a1.858,1.858,0,0,0,1.856-1.728A1.31,1.31,0,0,0-2.048,24.1a34.977,34.977,0,0,1-10.4-5.12l8.992.1ZM-6.528,34.5c.064-.9.1-1.92.1-2.944,0-1.056-.032-2.112-.1-3.072-.064-1.216-1.408-2.432-3.3-2.5-1.952-.064-4.064-.064-6.08-.064-1.632,0-3.232,0-4.64.032-2.464.064-3.392,1.44-3.456,2.72-.064,1.056-.128,2.24-.128,3.36,0,.9.032,1.728.1,2.464.1,1.6,1.28,2.752,3.52,2.848,1.728.064,3.648.1,5.568.1,1.7,0,3.392-.032,4.96-.064A3.31,3.31,0,0,0-6.528,34.5Zm-14.688-4.032c0-1.184,0-2.112,1.568-2.176.96-.032,2.08-.032,3.2-.032,1.856,0,3.808.032,5.472.064,1.568.032,1.568.768,1.568,2.176ZM-9.408,32.64c0,1.5,0,2.272-1.536,2.336-1.184.032-2.464.064-3.712.064-6.048,0-6.464,0-6.56-1.28-.032-.32-.032-.7-.032-1.12Zm24.544,5.024a17.475,17.475,0,0,0,6.336-20.416C20.16,13.632,16,12.32,13.664,15.328c-.32.416-.64.832-.224-.032a9.6,9.6,0,0,0,.832-2.976,1.612,1.612,0,0,0-3.2-.288c-.256,1.952-.864,4.064-1.216,5.7A28.46,28.46,0,0,0,9.12,25.12c.192,2.3,3.648,2.336,3.488-.768-.16-2.784-.1-4.1.832-6.048.928-1.984,3.968-3.168,5.024.032A14.737,14.737,0,0,1,12.9,35.168C10.208,36.928,12.544,39.584,15.136,37.664Z" transform="translate(270.139 19959.223)" fill="#faf6df"/><path d="M-42.966-20.8a15.384,15.384,0,0,0,.93-3.224c0-.868-.961-1.4-1.86-1.4a1.457,1.457,0,0,0-1.612,1.271,21.753,21.753,0,0,1-.682,3.379c-1.054.031-2.046.062-2.914.093-2.387.093-3.968,1.364-4.03,3.286-.062,2.015-.093,4.619-.093,7.161,0,2.883.031,5.7.093,7.657.093,2.232,1.488,3.5,4.278,3.627,1.581.062,3.441.093,5.332.093,2.139,0,4.371-.031,6.386-.093a3.877,3.877,0,0,0,4-3.72c.062-1.612.093-4.464.093-7.378,0-2.635-.031-5.27-.093-7.13a3.837,3.837,0,0,0-3.906-3.5C-38.626-20.739-40.765-20.8-42.966-20.8Zm-7.285,8.866c0-1.55.062-2.976.093-4.123.093-2.139.558-2.139,7.037-2.139,6.417,0,6.882,0,6.975,2.139.031,1.147.062,2.573.062,4.123Zm14.2,2.666c0,2.015-.031,3.937-.093,5.425-.093,2.232-1.147,2.232-7.006,2.232-6.293,0-6.944-.093-7.006-2.139-.062-1.395-.093-3.41-.093-5.518ZM-18.166.992C-9.641-1.457-5.239-8-4.743-14.787c.279-3.6-.837-4.774-4.433-4.805-3.5-.031-7.161.031-9.7.093-3.472.062-4.309,1.457-4.4,3.131-.062.93-.093,4.123,0,5.425.155,2.263,3.472,1.829,3.317-.248-.093-1.054-.155-3.224-.124-4.03a1.618,1.618,0,0,1,1.674-1.488c1.519-.062,6.448-.155,8.649-.031,1.209.062,1.674.589,1.612,1.829A13.871,13.871,0,0,1-19.065-2.2c-1.426.31-1.8,1.333-1.519,2.139A1.908,1.908,0,0,0-18.166.992Zm31.93-12.555c-.031,3.627-.155,8.68-.186,11.16A1.64,1.64,0,1,0,16.833-.5c-.093-3.1-.031-11.222.062-14.384,1.333-1.55,2.666-3.224,4.061-5.084A1.615,1.615,0,1,0,18.2-21.607C14.694-16.089,8.773-10.385,3.069-7.6.961-6.572,2.573-3.41,5.425-5.146A45.32,45.32,0,0,0,13.764-11.563ZM54.591-15.9c1.364-2.449-1.829-3.751-2.821-1.829C48.639-11.656,42.377-5.239,36.146-3.658A1.774,1.774,0,1,0,37.2-.31C44.33-2.573,50.747-8.928,54.591-15.9ZM41.664-13.392a1.833,1.833,0,0,0-.4-2.573,19.661,19.661,0,0,0-5.456-2.356c-2.356-.651-3.131,2.48-1.271,2.914a11.442,11.442,0,0,1,4.588,2.294A1.642,1.642,0,0,0,41.664-13.392Zm-80.527,24.73c1.054,1.178,2.79-.775,1.55-2.015a9.894,9.894,0,0,0-3.131-1.767c-1.457-.465-2.573,1.4-.992,2.015A11.481,11.481,0,0,1-38.863,11.338ZM-41.715,14.1c1.023,1.209,2.821-.682,1.612-1.984a9.689,9.689,0,0,0-3.069-1.891c-1.426-.527-2.666,1.364-1.085,2.015A10.961,10.961,0,0,1-41.715,14.1Zm-13.609,6.324a60.108,60.108,0,0,0,11-2.821,1.68,1.68,0,1,0-1.147-3.1,60.7,60.7,0,0,1-9.765,2.883c.062-2.294.124-4.619.155-6.293.031-1.829-3.162-2.263-3.162-.093-.031,3.689-.248,10.6-.217,13.7a4.585,4.585,0,0,0,4.4,4.65,33.55,33.55,0,0,0,10.788-.434c3.038-.806,1.705-4.154-.651-3.348a28.016,28.016,0,0,1-9.021.837c-1.86-.248-2.542-.992-2.48-2.511C-55.386,23.025-55.355,21.785-55.324,20.421ZM-18.093,9.54a1.432,1.432,0,0,0-.341-2.015c-1.519-1.147-4.433-1.581-6.138-1.7-1.953-.124-2.139,2.449-.5,2.542a13.252,13.252,0,0,1,5.084,1.612A1.29,1.29,0,0,0-18.093,9.54Zm7.316,15.066a1.581,1.581,0,0,0,0-2.17c-1.178-1.3-3.782-2.542-5.642-3.224-1.922-.682-2.852,1.7-1.3,2.232a14.487,14.487,0,0,1,4.9,3.224A1.353,1.353,0,0,0-10.777,24.606Zm-9.269-6.076c.93-.9,1.8-1.829,2.573-2.7,1.643-1.86,1.085-4.185-1.953-4.092-2.325.062-7.1.093-9.207.248-2.232.186-2.139,3.007.155,2.883,1.984-.093,5.828-.31,7.471-.341.713-.031.651.248.248.713-2.077,2.356-6.913,6.634-11.687,8.432-2.294.868-.868,3.658,1.178,2.79a35.04,35.04,0,0,0,8.525-5.456c.031,2.542-.248,5.952-.372,8.742a1.483,1.483,0,0,0,1.643,1.612A1.611,1.611,0,0,0-19.953,29.6c-.093-2.883,0-6.7.062-8.99A7.015,7.015,0,0,0-20.046,18.53ZM18.27,10.842c1.054,1.178,2.79-.744,1.55-1.984a10,10,0,0,0-3.131-1.8c-1.457-.465-2.573,1.426-.992,2.046A11.363,11.363,0,0,1,18.27,10.842ZM15.418,13.6c1.023,1.209,2.821-.651,1.612-1.953a9.689,9.689,0,0,0-3.069-1.891c-1.426-.527-2.666,1.364-1.085,2.015A10.848,10.848,0,0,1,15.418,13.6ZM3.111,16.143C1.9,21.072-.7,25.784-4.949,28.078c-2.48,1.333-.527,3.906,1.457,2.821C2.026,27.892,5,21.754,6.3,16.112c1.24,0,2.418-.031,3.379,0a1.674,1.674,0,0,1,1.705,1.829c-.031,1.612-.5,5.89-1.705,7.688C8.6,27.21,7.017,27.768,5.343,26.5a1.613,1.613,0,1,0-1.984,2.542,5.948,5.948,0,0,0,9.145-1.86c1.3-2.325,1.891-6.82,1.984-9.951.062-2.511-1.674-3.782-4.092-3.844-1.085-.031-2.294-.031-3.565-.031a26.071,26.071,0,0,0,.31-3.937c.031-2.232-3.286-2.48-3.255-.124a31.139,31.139,0,0,1-.248,4.092c-2.232.031-4.4.093-6.169.155-2.077.093-2.263,2.914.217,2.79C-.764,16.267,1.158,16.174,3.111,16.143ZM44.5,19.77a1.535,1.535,0,1,0,0-3.069H25.028a1.581,1.581,0,0,0-1.643,1.581,1.493,1.493,0,0,0,1.643,1.488ZM59.086,7.758a1.736,1.736,0,0,0-3.472,0,1.736,1.736,0,0,0,3.472,0Zm5.37,5.37a1.76,1.76,0,0,0-1.736-1.736,1.736,1.736,0,0,0,0,3.472A1.76,1.76,0,0,0,64.456,13.129Zm-1.031,6.654a.606.606,0,0,0,.561-.579.453.453,0,0,0-.145-.325c-1.32-1.266-3.436-3.363-5.606-5.533a.35.35,0,0,1-.108-.235.276.276,0,0,1,.072-.181c2.188-2.188,4.322-4.3,5.642-5.551a.416.416,0,0,0,.145-.325.622.622,0,0,0-.579-.579.416.416,0,0,0-.325.145c-1.248,1.3-3.309,3.436-5.479,5.606a.357.357,0,0,1-.253.108.349.349,0,0,1-.271-.127c-2.152-2.17-4.231-4.3-5.461-5.587a.416.416,0,0,0-.325-.145.622.622,0,0,0-.579.579.393.393,0,0,0,.145.325c1.3,1.23,3.418,3.309,5.569,5.479a.377.377,0,0,1,.127.271.318.318,0,0,1-.108.235c-2.17,2.152-4.267,4.249-5.587,5.515a.453.453,0,0,0-.145.325.606.606,0,0,0,.561.579.442.442,0,0,0,.325-.145c1.266-1.3,3.4-3.436,5.551-5.606a.313.313,0,0,1,.217-.108c.163,0,.289.127,5.732,5.714A.442.442,0,0,0,63.426,19.783ZM51.98,14.865a1.736,1.736,0,1,0-1.718-1.736A1.733,1.733,0,0,0,51.98,14.865ZM59.086,18.5a1.736,1.736,0,1,0-1.736,1.718A1.733,1.733,0,0,0,59.086,18.5Z" transform="translate(445.484 19961.223)" fill="#faf6df"/></g></svg>