<svg xmlns="http://www.w3.org/2000/svg" width="395.699" height="175.058" viewBox="0 0 395.699 175.058"><g transform="translate(-534 -2260)"><path d="M32.067,10.884H21.1a.633.633,0,0,0-.634.634v1.338a.634.634,0,0,0,.526.626c2.554.441,2.905,1.348,2.905,2.264,0,.88-.69,2.75-2.584,5.461a26.675,26.675,0,0,0-5.66-6.953C19.024,12.1,20.73,9.622,20.73,6.872,20.73,2.824,17.561,0,13.023,0,7.974,0,4.311,3.419,4.311,8.127c0,2.257.869,4.18,2.883,6.316C2.29,17.481,0,20.73,0,24.618c0,5.325,4.231,9.34,9.841,9.34,3.139,0,6.327-1.4,9.728-4.273,2.007,3.591,4.688,4.273,9.066,4.273.914,0,1.95,0,3.1-.085a.633.633,0,0,0,.588-.633v-3.1a.635.635,0,0,0-.634-.634c-.227,0-.451.011-.67.022-.188.01-.371.02-.543.02-3.927,0-5.439-.893-7.058-4.288A50.631,50.631,0,0,0,27.352,18.2a22.431,22.431,0,0,1,1.108-2.162,5.205,5.205,0,0,1,3.747-2.568.631.631,0,0,0,.494-.619V11.518a.633.633,0,0,0-.634-.634m-19.3-6.937c2.04,0,3.259,1.124,3.259,3.009,0,1.759-1.222,3.369-3.628,4.788C10.121,10.323,9.01,8.863,9.01,7.291c0-2,1.513-3.345,3.762-3.345M10.131,17a24.8,24.8,0,0,1,7.352,8.887c-2.053,2.073-4.01,3.08-5.966,3.08a5.583,5.583,0,0,1-5.6-5.685c0-2.564,1.416-4.673,4.217-6.282" transform="translate(715.777 2334.423)" fill="#02805b"/><circle cx="87.529" cy="87.529" r="87.529" transform="translate(534 2260)" fill="#bc6229"/><path d="M87.529,0A87.529,87.529,0,1,1,0,87.529,87.529,87.529,0,0,1,87.529,0Z" transform="translate(754.642 2260)" fill="#bc6229"/><path d="M-2.38-15.26A1.916,1.916,0,0,0-.56-17.15c0-1.575-4.235-6.09-5.635-6.09a1.607,1.607,0,0,0-1.61,1.47,1.208,1.208,0,0,0,.49.945,15.062,15.062,0,0,1,3.64,4.655A1.4,1.4,0,0,0-2.38-15.26Zm-9.835-11.83c.07,4.585.07,13.93.07,13.93,0,1.54-.455,1.925-1.225,1.925a10.216,10.216,0,0,1-1.785-.28,1.436,1.436,0,0,0-.385-.035,1.5,1.5,0,0,0-1.47,1.575c0,1.5,1.435,1.89,3.5,1.89,3.395,0,4.62-2.03,4.62-4.2v-.175C-8.925-13.685-9-16.1-9-16.66c0-1.54.035-4.095.035-6.685,0-1.26,0-2.555-.035-3.745a1.559,1.559,0,0,0-1.645-1.575,1.5,1.5,0,0,0-1.575,1.54Zm-6.9,13.58c2.73,0,5.18-7.595,5.18-8.05a1.653,1.653,0,0,0-1.68-1.54,1.393,1.393,0,0,0-1.365,1.015,15.916,15.916,0,0,1-3.08,5.635,2,2,0,0,0-.665,1.435A1.541,1.541,0,0,0-19.11-13.51Zm16.45,1.085a1.36,1.36,0,0,0,.07-.525A1.827,1.827,0,0,0-4.515-14.6a1.416,1.416,0,0,0-1.47,1.085C-8.19-5.215-12.74-2.275-20.23-1.085a1.613,1.613,0,0,0-1.5,1.61,1.7,1.7,0,0,0,1.75,1.715,1.191,1.191,0,0,0,.35-.035C-10.57.805-5.355-3.99-2.66-12.425Zm-22.085,5.04a15.365,15.365,0,0,1,2.975,3.5,1.393,1.393,0,0,0,1.26.84A1.8,1.8,0,0,0-18.865-4.83c0-1.54-2.975-4.025-5.18-5.39a50.154,50.154,0,0,0,.84-6.51c1.12-.28,4.585-3.185,4.585-4.445a1.851,1.851,0,0,0-1.785-1.68,1.3,1.3,0,0,0-1.12.665,15,15,0,0,1-1.54,2.065c.035-1.3.07-2.59.07-3.78,0-.875-.035-1.68-.035-2.485a1.622,1.622,0,0,0-1.75-1.645,1.569,1.569,0,0,0-1.68,1.575v.07c.1,2.485.245,5.11.245,7.7,0,6.37-.875,12.67-5.5,17.115a1.761,1.761,0,0,0-.595,1.26A1.607,1.607,0,0,0-30.66,1.26C-28.77,1.26-26.04-2.94-24.745-7.385Zm-5.53-4.76c2.52,0,2.52-5.6,2.52-6.055,0-1.96-.21-3.22-1.645-3.22a1.377,1.377,0,0,0-1.47,1.4v.21a11.9,11.9,0,0,1,.1,1.575,7.867,7.867,0,0,1-.77,3.675,2.106,2.106,0,0,0-.245.945A1.485,1.485,0,0,0-30.275-12.145ZM15.4-7.035c.1.07.175.105.28.175a1.68,1.68,0,0,0,2.31-.35,1.5,1.5,0,0,0-.245-2.17,5.145,5.145,0,0,1-.455-.35,39.451,39.451,0,0,0,3.57-7.07c.14-.35.245-.7.35-1.015a6.176,6.176,0,0,1,4.515,4.69c.84,3.325-.525,7.35-6.615,9.2-3.045.91-1.33,4.235,1.33,3.255,6.055-2.17,10.36-7,8.54-13.475a8.911,8.911,0,0,0-7.035-6.335,24.027,24.027,0,0,0,.49-3.71c.14-2.555-3.5-2.835-3.465-.385a21.453,21.453,0,0,1-.455,3.78,14.376,14.376,0,0,0-5.985,1.47,6.941,6.941,0,0,0-.7.385,6.1,6.1,0,0,1-.175-.77,25,25,0,0,1-.35-2.905c-.14-2.485-4.095-2.52-3.5.385.14.735.49,2.345.665,3.045.175.77.42,1.54.665,2.275C6.23-14.14,4.55-10.29,5.285-6.93c.945,4.41,4.62,5.95,8.75,1.5C14.49-5.915,14.945-6.44,15.4-7.035ZM17.85-18.1c-.035.175-.105.35-.14.49a27.8,27.8,0,0,1-2.73,5.67A15.408,15.408,0,0,1,12.6-16.2a6.119,6.119,0,0,1,1.015-.63A11.266,11.266,0,0,1,17.85-18.1Zm-4.76,8.96a21.669,21.669,0,0,1-1.68,2c-.98,1.015-2.625,1.785-3.15-.945-.35-1.855.49-4.025,1.96-5.88A19.381,19.381,0,0,0,13.09-9.135ZM-36.12,32.8A1.837,1.837,0,0,0-34.4,30.98c0-1.995-4.83-4.55-5.985-4.55a1.467,1.467,0,0,0-1.54,1.435,1.348,1.348,0,0,0,.84,1.225,11.991,11.991,0,0,1,3.85,3.115A1.4,1.4,0,0,0-36.12,32.8Zm3.745,5.215a1.476,1.476,0,0,0,1.575-1.54,1.559,1.559,0,0,0-1.575-1.645H-44.1V25.38h7.84a1.543,1.543,0,0,0,1.645-1.575A1.562,1.562,0,0,0-36.26,22.23H-44.1V14.46h9.835a1.562,1.562,0,0,0,1.645-1.575,1.57,1.57,0,0,0-1.645-1.61H-57.54a1.532,1.532,0,0,0-1.61,1.575,1.54,1.54,0,0,0,1.61,1.61h9.87v7.77h-7.875a1.543,1.543,0,0,0-1.645,1.575,1.562,1.562,0,0,0,1.645,1.575h7.875v9.45H-59.325a1.553,1.553,0,0,0-1.61,1.575,1.56,1.56,0,0,0,1.61,1.61Zm12.6-14.735a66.561,66.561,0,0,1-4.375,8.155l-.735,1.155c-.315.525-.595.945-.91,1.4-1.715,2.66,1.785,3.885,3.045,1.5.805-1.5,1.47-3.465,2.415-5.32a37.311,37.311,0,0,0,0,6.615,1.81,1.81,0,1,0,3.57-.42,41.537,41.537,0,0,1-.14-10.36c4.27-5.495,10.815-8.995,12.11-2.8A15.373,15.373,0,0,1-5,30.77a10.255,10.255,0,0,0-7.035-.56c-4.06,1.33-4.13,5.565-.49,7.035A8.061,8.061,0,0,0-3.885,35.32c.455.42.945.84,1.4,1.33,1.645,1.715,4.41-.945,2.345-2.8-.56-.49-1.19-.945-1.82-1.4a18.372,18.372,0,0,0,.42-10.115c-1.68-6.755-8.015-6.72-13.58-1.715a1.624,1.624,0,0,0-1.015-2.24c.28-2.52.56-4.655.63-6.055.105-1.96-3.325-2.485-3.36-.14,0,1.47-.21,3.955-.49,6.825-1.645.56-3.22,1.155-4.76,1.82-1.89.84-.875,4.235,1.54,2.765a11.643,11.643,0,0,1,2.73-1.3,1.516,1.516,0,0,0,.175-.035Zm13.3,10.15a4.774,4.774,0,0,1-5.005,1.155c-.945-.35-1.155-1.5.175-1.925A6.061,6.061,0,0,1-6.475,33.43Zm40.88-21.875A11.376,11.376,0,0,0,31.255,9c-1.54-.805-3.15,1.05-1.505,2.03a12.157,12.157,0,0,1,2.555,2.45C33.25,14.985,35.56,13.2,34.405,11.555Zm-3.64,2.555a11.7,11.7,0,0,0-3.08-2.7c-1.505-.875-3.185.98-1.575,2.03A12.262,12.262,0,0,1,28.6,16C29.505,17.54,31.85,15.79,30.765,14.11ZM25.55,23.84a22.067,22.067,0,0,0,2.765-1.155c1.96-.98.455-4.2-2-2.8a18.338,18.338,0,0,1-2.625,1.12,29.03,29.03,0,0,1-1.5-2.94,22.4,22.4,0,0,0,2.8-1.085c1.855-.875.525-3.955-1.785-2.73a13.414,13.414,0,0,1-2.2.945A30.2,30.2,0,0,0,18.48,9.91c-1.26-1.715-4.97-.385-3.01,1.82a18.068,18.068,0,0,1,2.52,4.235,19.416,19.416,0,0,1-4.34.21c-2.8-.21-2.1,3.185.175,3.185a27.49,27.49,0,0,0,5.565-.56c.56,1.085,1.12,2.1,1.645,3.01a17.048,17.048,0,0,1-6.02.49c-2.975-.385-2.66,3.185-.245,3.36a25.244,25.244,0,0,0,8.05-.945c.245.385.525.7.77,1.05,2.03,2.73,1.47,3.255-.42,3.01-2.31-.28-6.615-.56-9.205.77-3.92,2-2.94,6.895,1.19,8.645a14.429,14.429,0,0,0,6.93,1.19c3.15-.28,2.94-4.165-.175-3.57a9.663,9.663,0,0,1-5.67-.525c-1.61-.665-2.345-2.52-.525-3.4,2.45-1.19,7.42-.49,9.275.6,1.575.91,3.255.6,3.6-1.225.385-2-1.015-4.8-2.275-6.405C26.075,24.505,25.8,24.19,25.55,23.84Zm25.144-2.548a7.263,7.263,0,0,1,3.472,1.12c2.772,1.764,3.528,5.432,1.54,8.568A8.675,8.675,0,0,1,50.5,34.116c-2.408.56-1.54,3.388.924,2.744a11.705,11.705,0,0,0,6.832-4.62c2.436-4,1.736-9.156-2.6-11.76-3.528-2.128-8.652-1.736-12.1.644-3.752,2.6-5.628,7.812-3.864,11.284,1.232,2.408,3.584,3.5,5.74,1.512,2.688-2.492,5.208-7.784,5.656-11.34A1.4,1.4,0,0,0,50.694,21.292Zm-2.212.14a1.98,1.98,0,0,0-.252.868c-.28,3.024-2.24,7.476-4.34,9.324-.7.616-1.428.2-1.848-.616-1.176-2.156.224-5.88,2.828-7.9A9.278,9.278,0,0,1,48.482,21.432ZM-3.08,55.625A1.491,1.491,0,0,0-1.435,54.12,1.611,1.611,0,0,0-3.08,52.51H-8.435V48.065a1.683,1.683,0,0,0-1.82-1.645A1.609,1.609,0,0,0-12,48c0,.945,0,2.59.035,4.515h-9.905c.035-1.96.035-3.6.035-4.55a1.756,1.756,0,0,0-1.855-1.645,1.549,1.549,0,0,0-1.645,1.61V52.51h-5.18a1.513,1.513,0,0,0-1.61,1.575,1.505,1.505,0,0,0,1.61,1.54h5.18c-.035,4.515-.07,9.765-.07,12.95v1.89c.035,2.94,1.575,4.48,4.445,4.62,1.19.07,2.835.105,4.375.105,1.19,0,2.38-.035,3.255-.105,2.555-.21,4.76-1.68,4.865-4.69.07-1.365.07-3.675.07-6.37,0-2.66,0-5.705-.035-8.4Zm-8.855,0c.035,1.89.035,3.885.035,5.81H-21.98c.035-1.925.035-3.92.07-5.81Zm.07,8.89c0,2.275-.035,4.2-.07,5.25-.105,1.855-1.19,2.24-4.69,2.24-4.41,0-5.285-.14-5.39-2.345-.035-.7-.035-1.855-.035-3.255v-1.89Zm27.51-3.5c1.26-2.625,2.66-5.46,4.13-7.91,1.575-2.555.175-4.62-3.01-3.99a46.179,46.179,0,0,1-5.04.875c-2.1.14-2.2,3.4.105,3.325a18.412,18.412,0,0,0,4.13-.84c.525-.14.42.14.21.63-.98,2.205-2.59,5.39-3.815,8.015a19.893,19.893,0,0,0-5.74,1.505C2.59,64.41,1.295,68.05,3.08,70.29c1.5,1.855,4.585,1.645,6.685,0,1.995-1.54,3.185-3.71,4.48-6.4a21.859,21.859,0,0,1,8.155,1.75,14.957,14.957,0,0,1-5.53,5.915c-2.275,1.4-.525,4.13,1.925,2.695a17.092,17.092,0,0,0,6.65-7.105,23.987,23.987,0,0,1,3.815,2.835c1.995,1.82,4.375-1.4,2.17-3.115a27.7,27.7,0,0,0-4.83-2.975,8.544,8.544,0,0,0-.35-5.81c-1.155-2.17-4.3-.84-3.325.8a5.657,5.657,0,0,1,.49,3.675,26.173,26.173,0,0,0-7.595-1.54Zm-4.8,3.15A12.182,12.182,0,0,1,7.945,67.91c-.63.49-1.89.7-2.31.1-.595-.875,1.05-2.345,1.96-2.8A11.123,11.123,0,0,1,10.85,64.165Z" transform="translate(621.529 2320.984)" fill="#faf6df"/><path d="M-12.2-2.28c.114-3,.19-5.852.19-8.664,0-3.306-.076-6.536-.19-9.728-.114-3.61-3.762-3.686-7.144-3.686a19.607,19.607,0,0,0,1.368-4.56c0-1.026-1.1-1.672-2.128-1.672a1.779,1.779,0,0,0-1.938,1.6,27.81,27.81,0,0,1-.988,4.674c-3.116,0-5.244.8-5.282,3.42q-.114,4.446-.114,9.12,0,4.617.114,9.348c.114,4.142,3.8,4.18,7.866,4.18C-15.806,1.748-12.386,1.444-12.2-2.28Zm-19.266-18.7c.076-.114,2.546-3.458,2.546-4.484a1.82,1.82,0,0,0-1.824-1.634,1.232,1.232,0,0,0-1.216.836A28.828,28.828,0,0,1-33.97-22.5a1.326,1.326,0,0,0-.228.684,1.556,1.556,0,0,0,1.634,1.33A1.369,1.369,0,0,0-31.462-20.976Zm-8.588.608a1.841,1.841,0,0,0,1.786-1.824c0-.988-1.862-4.75-3.5-4.75-.836,0-1.748.57-1.748,1.368a1.394,1.394,0,0,0,.3.76,14.693,14.693,0,0,1,1.862,3.458A1.342,1.342,0,0,0-40.05-20.368ZM-34.236,1.1s-.152-6.688-.19-12.2a15.035,15.035,0,0,1,2.28,2.546,1.452,1.452,0,0,0,1.178.646A1.892,1.892,0,0,0-29.22-9.728c0-1.672-3.8-3.99-4.484-3.99a1.7,1.7,0,0,0-.722.19v-2.166l3.724.076h.038a1.547,1.547,0,0,0,1.52-1.634,1.524,1.524,0,0,0-1.558-1.6h-3.686c.038-4.94.152-10.222.152-10.222v-.038A1.7,1.7,0,0,0-36.06-30.78a1.7,1.7,0,0,0-1.824,1.672v.038l.114,10.222h-4.256a1.644,1.644,0,0,0-1.672,1.71,1.486,1.486,0,0,0,1.634,1.52h.038l4.294-.076v.114a32.31,32.31,0,0,1-6.384,8.322,1.639,1.639,0,0,0-.608,1.216,1.868,1.868,0,0,0,1.862,1.71c.532,0,1.786-.152,5.13-5.852L-37.884,1.1V1.14A1.655,1.655,0,0,0-36.06,2.7,1.655,1.655,0,0,0-34.236,1.14Zm9.158-14.934q.057-3.078.114-5.814c.076-1.558.57-1.634,4.712-1.634,4.218,0,4.56.076,4.6,1.634.038,1.748.114,3.724.152,5.814Zm9.576,3.154c0,2.508-.038,5.016-.152,7.448-.076,1.71-.912,1.748-4.446,1.748-4.56,0-4.826-.228-4.864-1.786-.076-2.432-.114-4.94-.114-7.41Zm38.608,4.9A1.563,1.563,0,0,0,24.7-7.41a1.573,1.573,0,0,0-1.6-1.672h-6V-13.3h5.624a1.563,1.563,0,0,0,1.6-1.634,1.573,1.573,0,0,0-1.6-1.672H17.1v-4.1h7.372a1.563,1.563,0,0,0,1.6-1.634,1.573,1.573,0,0,0-1.6-1.672H13.8a36.669,36.669,0,0,0,1.178-4.94,1.72,1.72,0,0,0-1.824-1.672,1.56,1.56,0,0,0-1.634,1.368A29.785,29.785,0,0,1,7.868-18.62l-.038.076L7.792-20.33A3.072,3.072,0,0,0,4.98-23.1c-.456-.038-.95-.038-1.482-.076.038-1.1.076-2.2.114-3.344H7.3A1.434,1.434,0,0,0,8.78-28.006,1.414,1.414,0,0,0,7.3-29.488H-5.584a1.5,1.5,0,0,0-1.634,1.482,1.523,1.523,0,0,0,1.634,1.482h3.23c0,1.064,0,2.2.038,3.344-3.23,0-4.1,1.71-4.1,3.154-.038,3.344-.076,7.562-.076,11.59,0,2.356,0,4.636.076,6.688a3.283,3.283,0,0,0,3.23,3.42c.988.076,2.242.114,3.5.114,1.406,0,2.888-.038,4.18-.152A3.541,3.541,0,0,0,7.83-1.9c.038-3.344.038-7.03.038-10.488v-4.218A1.7,1.7,0,0,0,9.2-16c.722,0,1.558-.076,3.42-4.712h1.026V.8A1.734,1.734,0,1,0,17.1.8V-5.776ZM1.294-23.218H.04v-3.306H1.332Zm2.584,2.85c.608,0,.95.114.988.95.038,1.6.114,3.42.114,5.51a3.072,3.072,0,0,1-.608.038h-.19c-.912-.114-.912-.836-.912-6.536Zm.874,12.5H-3.456V-9.8C-.682-11.818-.112-16.074,0-20.406H1.256c0,.988-.038,1.976-.038,2.926s.038,1.862.038,2.774c.076,2.128.57,3.382,2.774,3.382a4.364,4.364,0,0,0,.722-.038Zm-6.84-12.5c-.038,3.116-.418,6.08-1.558,7.752,0-2.47.038-4.75.114-6.726.038-.8.494-.988,1.14-1.026Zm6.8,15.352c0,.836-.038,1.672-.076,2.47,0,1.1-.646,1.216-3.686,1.216-3.61,0-4.218-.076-4.294-1.216-.038-.8-.076-1.634-.076-2.47Zm33.67-19.41a1.93,1.93,0,0,0-1.9-1.9,1.93,1.93,0,0,0-1.9,1.9,1.9,1.9,0,0,0,1.9,1.884A1.9,1.9,0,0,0,38.384-24.426Zm5.89,5.89a1.93,1.93,0,0,0-1.9-1.9,1.9,1.9,0,0,0-1.884,1.9,1.9,1.9,0,0,0,1.884,1.9A1.93,1.93,0,0,0,44.274-18.536Zm-1.13,7.3a.664.664,0,0,0,.615-.635.5.5,0,0,0-.159-.357c-1.448-1.388-3.768-3.689-6.148-6.069a.384.384,0,0,1-.119-.258.3.3,0,0,1,.079-.2c2.4-2.4,4.74-4.72,6.188-6.088a.456.456,0,0,0,.159-.357.682.682,0,0,0-.635-.635.456.456,0,0,0-.357.159c-1.368,1.428-3.629,3.768-6.009,6.148a.392.392,0,0,1-.278.119.383.383,0,0,1-.3-.139c-2.36-2.38-4.641-4.72-5.989-6.128a.456.456,0,0,0-.357-.159.682.682,0,0,0-.635.635.431.431,0,0,0,.159.357c1.428,1.349,3.748,3.629,6.108,6.009a.413.413,0,0,1,.139.3.349.349,0,0,1-.119.258c-2.38,2.36-4.68,4.661-6.128,6.049a.5.5,0,0,0-.159.357.664.664,0,0,0,.615.635.485.485,0,0,0,.357-.159c1.388-1.428,3.728-3.768,6.088-6.148a.343.343,0,0,1,.238-.119c.178,0,.317.139,6.287,6.267A.485.485,0,0,0,43.144-11.238ZM30.59-16.632a1.9,1.9,0,0,0,1.884-1.9,1.9,1.9,0,0,0-1.884-1.9,1.913,1.913,0,0,0-1.884,1.9A1.913,1.913,0,0,0,30.59-16.632Zm7.794,3.986a1.9,1.9,0,0,0-1.9-1.884,1.9,1.9,0,0,0-1.9,1.884,1.913,1.913,0,0,0,1.9,1.884A1.913,1.913,0,0,0,38.384-12.646Z" transform="translate(844.019 2361.164)" fill="#faf6df"/></g></svg>