<svg xmlns="http://www.w3.org/2000/svg" width="487.807" height="138.146" viewBox="0 0 487.807 138.146"><g transform="translate(-4.5 -4612.203)"><g transform="translate(4.5 4612.203)"><path d="M25.306,8.589H16.652a.5.5,0,0,0-.5.5v1.056a.5.5,0,0,0,.415.494c2.016.348,2.293,1.064,2.293,1.787,0,.695-.544,2.17-2.039,4.309a21.051,21.051,0,0,0-4.466-5.487c2.658-1.7,4-3.656,4-5.826,0-3.194-2.5-5.423-6.082-5.423C6.293,0,3.4,2.7,3.4,6.413A6.976,6.976,0,0,0,5.677,11.4C1.807,13.8,0,16.359,0,19.427c0,4.2,3.339,7.371,7.766,7.371,2.477,0,4.993-1.1,7.677-3.372,1.584,2.834,3.7,3.372,7.155,3.372.721,0,1.538,0,2.447-.067a.5.5,0,0,0,.464-.5V23.787a.5.5,0,0,0-.5-.5c-.179,0-.356.009-.529.018-.148.008-.293.015-.429.015-3.1,0-4.292-.7-5.57-3.384a39.955,39.955,0,0,0,3.1-5.57,17.7,17.7,0,0,1,.875-1.706,4.108,4.108,0,0,1,2.957-2.027.5.5,0,0,0,.39-.488V9.089a.5.5,0,0,0-.5-.5M10.079,3.114a2.277,2.277,0,0,1,2.572,2.375c0,1.388-.964,2.658-2.863,3.778C7.987,8.146,7.11,6.994,7.11,5.754a2.668,2.668,0,0,1,2.969-2.64m-2.084,10.3a19.57,19.57,0,0,1,5.8,7.013c-1.62,1.636-3.164,2.431-4.708,2.431a4.406,4.406,0,0,1-4.421-4.486c0-2.023,1.118-3.688,3.328-4.958" transform="translate(142.922 58.731)" fill="#02805b"/><path d="M25.306,8.589H16.652a.5.5,0,0,0-.5.5v1.056a.5.5,0,0,0,.415.494c2.016.348,2.293,1.064,2.293,1.787,0,.695-.544,2.17-2.039,4.309a21.051,21.051,0,0,0-4.466-5.487c2.658-1.7,4-3.656,4-5.826,0-3.194-2.5-5.423-6.082-5.423C6.293,0,3.4,2.7,3.4,6.413A6.976,6.976,0,0,0,5.677,11.4C1.807,13.8,0,16.359,0,19.427c0,4.2,3.339,7.371,7.766,7.371,2.477,0,4.993-1.1,7.677-3.372,1.584,2.834,3.7,3.372,7.155,3.372.721,0,1.538,0,2.447-.067a.5.5,0,0,0,.464-.5V23.787a.5.5,0,0,0-.5-.5c-.179,0-.356.009-.529.018-.148.008-.293.015-.429.015-3.1,0-4.292-.7-5.57-3.384a39.955,39.955,0,0,0,3.1-5.57,17.7,17.7,0,0,1,.875-1.706,4.108,4.108,0,0,1,2.957-2.027.5.5,0,0,0,.39-.488V9.089a.5.5,0,0,0-.5-.5M10.079,3.114a2.277,2.277,0,0,1,2.572,2.375c0,1.388-.964,2.658-2.863,3.778C7.987,8.146,7.11,6.994,7.11,5.754a2.668,2.668,0,0,1,2.969-2.64m-2.084,10.3a19.57,19.57,0,0,1,5.8,7.013c-1.62,1.636-3.164,2.431-4.708,2.431a4.406,4.406,0,0,1-4.421-4.486c0-2.023,1.118-3.688,3.328-4.958" transform="translate(318.266 58.731)" fill="#02805b"/><path d="M69.073,0A69.073,69.073,0,1,1,0,69.073,69.073,69.073,0,0,1,69.073,0Z" fill="#411b00"/><path d="M69.073,0A69.073,69.073,0,1,1,0,69.073,69.073,69.073,0,0,1,69.073,0Z" transform="translate(174.316)" fill="#411b00"/><path d="M69.073,0A69.073,69.073,0,1,1,0,69.073,69.073,69.073,0,0,1,69.073,0Z" transform="translate(349.66)" fill="#411b00"/><path d="M-20.65-23.8c1.015,1.47,3.22-.455,1.995-2.03a11.251,11.251,0,0,0-3.255-2.415c-1.575-.735-3.15,1.26-1.435,2.17A12.074,12.074,0,0,1-20.65-23.8Zm-2.03.35a11.236,11.236,0,0,0-3.185-2.485c-1.54-.805-3.15,1.12-1.47,2.065a12.2,12.2,0,0,1,2.59,2.415C-23.765-19.95-21.49-21.84-22.68-23.45Zm-6.09,5.53c2.835.595,3.6-3.01.665-3.64a37.158,37.158,0,0,0-11.165-.105c-3.115.455-2.66,4.165.1,3.64A26.61,26.61,0,0,1-28.77-17.92ZM-25.34-.875c2.835-.875,1.995-4.655-.91-3.85C-31.535-3.22-37.2-2.975-40.18-6.02a1.845,1.845,0,0,0-2.9,2.275C-40.67-.35-32.27,1.3-25.34-.875ZM-.1-18.655c.035,1.365.1,2.73.175,4.06a14.915,14.915,0,0,1-5.46.315c-2.8-.6-3.22,3.01-.735,3.36a19.03,19.03,0,0,0,6.37-.385C.315-10.22.385-9.24.455-8.4c.07.8.14,1.54.175,2.275a11.827,11.827,0,0,0-6.685.595C-9.87-3.92-9.66,0-6.335,1.645a7.139,7.139,0,0,0,9.8-3.185A16.115,16.115,0,0,1,6.02.35c2.2,2.03,4.48-1.155,2.135-3.08a16.277,16.277,0,0,0-4.34-2.485c-.07-1.26-.175-2.52-.28-3.465-.1-1.015-.175-2.1-.245-3.29,1.015-.245,2.135-.56,3.36-.91,3.115-.875,1.785-4.1-.805-3.255-.945.315-1.82.56-2.66.805-.035-1.3-.035-2.59-.035-3.885.805-.14,1.68-.315,2.625-.455,3.045-.49,2.1-3.745-.21-3.22-.84.175-1.645.385-2.38.525.035-1.4.1-2.8.21-4.06.14-2.03-3.5-2.66-3.57.035-.035,1.12-.035,2.765,0,4.62a20.131,20.131,0,0,1-5.425.245c-3.185-.385-3.045,3.255-.35,3.325a31.489,31.489,0,0,0,5.495-.42Zm.42,15.68C-.21-1.015-2.94.035-5.075-1.015a1.058,1.058,0,0,1,.105-2A7.621,7.621,0,0,1,.315-2.975ZM35.28-19.635a9.078,9.078,0,0,1,4.34,1.4c3.465,2.2,4.41,6.79,1.925,10.71-1.155,1.82-3.85,3.325-6.51,3.92C32.025-2.9,33.11.63,36.19-.175c3.465-.91,6.9-3.08,8.54-5.775,3.045-5,2.17-11.445-3.255-14.7-4.41-2.66-10.815-2.17-15.12.805-4.69,3.255-7.035,9.765-4.83,14.1C23.065-2.73,26-1.365,28.7-3.85c3.36-3.115,6.51-9.73,7.07-14.175A1.751,1.751,0,0,0,35.28-19.635Zm-2.765.175a2.476,2.476,0,0,0-.315,1.085C31.85-14.6,29.4-9.03,26.775-6.72c-.875.77-1.785.245-2.31-.77-1.47-2.7.28-7.35,3.535-9.87A11.6,11.6,0,0,1,32.515-19.46ZM-6.9,29.755c.07-3.115.035-6.825.035-8.96,0-2.345-1.225-4.41-4.69-4.48-3.5-.07-9.8,0-13.65.175-2.695.1-2.555,3.535.175,3.4,3.64-.175,9.17-.385,12.25-.28,1.33.035,2.17.665,2.2,1.82.07,1.82.07,5.39-.035,7.49a1.99,1.99,0,0,1-2.03,1.96c-2.59.175-8.96.175-12.705.035a1.825,1.825,0,1,0,.035,3.64c3.605,0,9.38-.035,13.09-.245C-9.555,34.165-6.965,33.115-6.9,29.755ZM18.76,14.565C20.4,12.22,16.905,10.54,15.75,12.5c-1.61,2.765-6.16,9.2-9.52,11.27-2.38,1.47-.315,4.48,2.03,2.9,2.415-1.645,5.495-5.32,7.875-8.47,1.575-.175,4.13-.42,5.6-.455.84-.035,1.12.63.84,1.3-2.59,5.95-8.365,12.95-16.135,15.645-2.9,1.015-1.47,4.445,1.5,3.29C17.78,34.1,22.61,26.99,26.88,18.835c1.3-2.485-1.05-4.375-3.745-4.235-1.4.07-3.115.21-4.62.315Z" transform="translate(68.637 67.124)" fill="#faf6df"/><path d="M-33.056-20.96a1.691,1.691,0,0,0,.352-.96,1.906,1.906,0,0,0-1.824-1.792,1.305,1.305,0,0,0-1.184.7,23.679,23.679,0,0,1-3.328,4.1,1.5,1.5,0,0,0-.544,1.12,1.519,1.519,0,0,0,1.536,1.44C-37.376-16.352-36.224-16.864-33.056-20.96ZM-48.7-16.384a1.821,1.821,0,0,0,1.728-1.792,1.806,1.806,0,0,0-.256-.96c-.288-.48-3.1-3.968-4.64-3.968a1.657,1.657,0,0,0-1.664,1.568,1.209,1.209,0,0,0,.608,1.056,11.591,11.591,0,0,1,2.944,3.264A1.46,1.46,0,0,0-48.7-16.384Zm17.728,3.968a1.3,1.3,0,0,0,1.28-1.44,1.355,1.355,0,0,0-1.312-1.472l-10.752.064.128-9.376v-.032a1.466,1.466,0,0,0-1.632-1.344,1.437,1.437,0,0,0-1.6,1.344v.032l.128,9.376-10.624-.064a1.393,1.393,0,0,0-1.408,1.472,1.341,1.341,0,0,0,1.376,1.44h.032l9.408-.128A30.81,30.81,0,0,1-56.48-3.392a1.588,1.588,0,0,0-.992,1.408,1.661,1.661,0,0,0,1.664,1.6A1.93,1.93,0,0,0-54.752-.7a35.884,35.884,0,0,0,9.984-8.928L-44.864.8c0,.864.8,1.28,1.6,1.28s1.6-.416,1.6-1.28l-.064-10.72c3.712,4.608,9.376,9.248,10.976,9.248A1.889,1.889,0,0,0-28.9-2.464a1.584,1.584,0,0,0-.928-1.376,33.944,33.944,0,0,1-10.88-8.7l9.7.128ZM-.864-22.752c1.088,1.216,2.912-.8,1.632-2.08a10.213,10.213,0,0,0-3.232-1.824c-1.5-.48-2.688,1.44-1.056,2.08A11.851,11.851,0,0,1-.864-22.752ZM-3.808-19.9c1.056,1.248,2.944-.7,1.7-2.048a9.9,9.9,0,0,0-3.168-1.92c-1.472-.544-2.752,1.376-1.12,2.048A11.127,11.127,0,0,1-3.808-19.9ZM-19.584.48c8.96-3.424,12.864-9.632,15.1-16.032.928-2.624-.9-4.576-3.488-4.608-4.064-.064-10.048-.032-14.272.16a1.585,1.585,0,1,0,.064,3.168c4.608-.16,9.664-.352,12.8-.256,1.184.032,1.28.832,1.024,1.7a19.8,19.8,0,0,1-12.7,12.768C-23.488-1.856-22.3,1.5-19.584.48ZM20.768-20.864a1.562,1.562,0,0,0-1.728-1.472c-3.232.032-7.712.032-10.784,0-2.464-.032-2.336,2.912-.224,2.976,3.456.1,7.872,0,10.88,0C20.224-19.36,20.768-20.1,20.768-20.864Zm2.048,9.408c1.312-3.136-.256-4.928-3.456-4.96-4.352-.032-9.728,0-13.856.1-2.464.064-2.176,3.1.1,3.008,3.424-.128,9.376-.224,12.64-.16,1.216.032,1.376.544,1.056,1.408C17.856-8,13.792-4.128,7.488-2.432c-2.56.672-1.376,3.84,1.248,3.04C16.672-1.824,20.576-6.112,22.816-11.456Zm32.1-4.96C56.32-18.944,53.024-20.288,52-18.3c-3.232,6.272-9.7,12.9-16.128,14.528C33.216-3.1,34.24.544,36.96-.32,44.32-2.656,50.944-9.216,54.912-16.416ZM41.568-13.824a1.892,1.892,0,0,0-.416-2.656,20.3,20.3,0,0,0-5.632-2.432c-2.432-.672-3.232,2.56-1.312,3.008a11.811,11.811,0,0,1,4.736,2.368A1.7,1.7,0,0,0,41.568-13.824Z" transform="translate(241.25 57.032)" fill="#faf6df"/><path d="M1.344-15.708a7.263,7.263,0,0,1,3.472,1.12c2.772,1.764,3.528,5.432,1.54,8.568A8.675,8.675,0,0,1,1.148-2.884C-1.26-2.324-.392.5,2.072-.14A11.705,11.705,0,0,0,8.9-4.76c2.436-4,1.736-9.156-2.6-11.76-3.528-2.128-8.652-1.736-12.1.644-3.752,2.6-5.628,7.812-3.864,11.284,1.232,2.408,3.584,3.5,5.74,1.512,2.688-2.492,5.208-7.784,5.656-11.34A1.4,1.4,0,0,0,1.344-15.708Zm-2.212.14a1.98,1.98,0,0,0-.252.868c-.28,3.024-2.24,7.476-4.34,9.324-.7.616-1.428.2-1.848-.616-1.176-2.156.224-5.88,2.828-7.9A9.278,9.278,0,0,1-.868-15.568ZM-29.876,13.188a1.078,1.078,0,0,0,1.12-1.148A1.1,1.1,0,0,0-29.9,10.892l-9.184.028.056-2.212c2.156-.168,4.228-.42,5.74-.7a1.018,1.018,0,0,0,.812-1.036A1.236,1.236,0,0,0-33.768,5.74a1.363,1.363,0,0,0-.336.028A67.722,67.722,0,0,1-46,6.8c-.7,0-1.428,0-2.128-.028h-.056A1.1,1.1,0,0,0-49.42,7.868,1.236,1.236,0,0,0-48.1,9.044h1.232c1.54,0,3.36-.028,5.236-.14l.028,2.016-9.1-.028a1.131,1.131,0,0,0-1.2,1.148,1.108,1.108,0,0,0,1.176,1.148h.028l7.616-.084a28.989,28.989,0,0,1-8.848,5.04,1.256,1.256,0,0,0-.952,1.148,1.353,1.353,0,0,0,1.428,1.26c.98,0,6.412-2.716,9.856-5.768l-.056,2.716v.028a1.183,1.183,0,0,0,1.316,1.064c.672,0,1.316-.364,1.316-1.064V17.5l-.056-2.8c3.808,3.164,8.848,5.488,9.688,5.488a1.626,1.626,0,0,0,1.624-1.512,1.146,1.146,0,0,0-.9-1.092,30.6,30.6,0,0,1-9.1-4.48l7.868.084Zm-2.716,13.5c.056-.784.084-1.68.084-2.576,0-.924-.028-1.848-.084-2.688a2.765,2.765,0,0,0-2.884-2.184c-1.708-.056-3.556-.056-5.32-.056-1.428,0-2.828,0-4.06.028-2.156.056-2.968,1.26-3.024,2.38-.056.924-.112,1.96-.112,2.94,0,.784.028,1.512.084,2.156.084,1.4,1.12,2.408,3.08,2.492,1.512.056,3.192.084,4.872.084,1.484,0,2.968-.028,4.34-.056A2.9,2.9,0,0,0-32.592,26.684Zm-12.852-3.528c0-1.036,0-1.848,1.372-1.9.84-.028,1.82-.028,2.8-.028,1.624,0,3.332.028,4.788.056,1.372.028,1.372.672,1.372,1.9Zm10.332,1.9c0,1.316,0,1.988-1.344,2.044-1.036.028-2.156.056-3.248.056-5.292,0-5.656,0-5.74-1.12-.028-.28-.028-.616-.028-.98ZM-1.176,7.9C-.252,8.9,1.232,7.224.168,6.16A8.467,8.467,0,0,0-2.548,4.648c-1.26-.42-2.212,1.2-.84,1.736A9.373,9.373,0,0,1-1.176,7.9ZM-6.328,25.76a12.9,12.9,0,0,1,1.736,1.456c1.4,1.484,3.388-.952,1.792-2.408a13.369,13.369,0,0,0-3.164-2.044c-.028-.9-.14-1.82-.168-2.52-.056-1.372-.14-3.556-.168-5.74.672-.14,1.344-.308,2.016-.476,2.408-.588,1.2-3.136-.616-2.576-.448.14-.952.252-1.428.392,0-1.372.028-2.548.084-3.332v-.2a1.465,1.465,0,0,0,.5.364,9.416,9.416,0,0,1,2.184,1.568c.868,1.036,2.408-.588,1.372-1.68a8.616,8.616,0,0,0-2.632-1.6,1.122,1.122,0,0,0-1.568.9,1.4,1.4,0,0,0-2.548.7c-.028.868,0,2.3.028,3.864a11.757,11.757,0,0,1-3.948.084c-2.156-.364-2.492,2.492-.56,2.66a19.24,19.24,0,0,0,4.592-.2c.084,2.212.14,4.368.224,5.516.028.532.084.952.084,1.4a7.962,7.962,0,0,0-4.928.336c-2.912,1.288-2.856,4.48-.42,5.88A5.561,5.561,0,0,0-6.328,25.76ZM-20.1,28.476c.7-.672.336-1.456.56-2.24.112-.448.28-1.064.5-1.764a17.133,17.133,0,0,1,.868-2.212c1.008-2.1-1.12-3.052-1.764-1.708-.056.14-.252.644-.336.812-.28.56-.308.476-.364-.028a31.168,31.168,0,0,1,.532-5.852c.364-2.38.84-4.816,1.036-6.076A1.418,1.418,0,1,0-21.9,9.352c-.14,1.82-.756,4.956-1.12,8.344s-.448,7,.448,9.828C-22.092,29.036-20.832,29.148-20.1,28.476Zm11.368-4.032c-.448,1.652-2.716,2.24-4.06,1.484a.935.935,0,0,1,.168-1.652,5.053,5.053,0,0,1,3.864.168Zm30.968.98A1.557,1.557,0,1,0,20.3,22.988c-4.872,3.836-9.856,4.116-10.024.028a77.65,77.65,0,0,1,.5-8.232c.14-1.876.336-4.536.392-6.3.056-1.848-3.108-2.016-3.052.056.056,1.736-.14,4.48-.224,6.3-.14,2.968-.448,5.348-.336,8.288C7.812,30.688,16.772,29.876,22.232,25.424ZM43.9,13.916a21.549,21.549,0,0,0,2.324-1.008c1.708-.868.728-3.584-1.54-2.436a9.391,9.391,0,0,1-1.036.56c-.42.14-.812.28-1.2.42a16.119,16.119,0,0,1-1.456-3c-.56-2.016-3.7-1.372-2.66.9a28.268,28.268,0,0,0,1.624,2.856,7.365,7.365,0,0,1-5.432-.364c-2.016-.98-2.884,1.568-1.148,2.464,1.932,1.008,4.368,1.176,7.588.476a4.549,4.549,0,0,0,.532-.112c.672,1.064,1.344,2.072,1.848,2.94a6.958,6.958,0,0,1,.7,1.568c.112.364,0,.5-.42.476a27.139,27.139,0,0,0-7.112.2c-4.48.9-4.872,5.432-1.6,7.448a14.215,14.215,0,0,0,7,1.652c2.66.084,2.828-3.024.252-2.912a11.064,11.064,0,0,1-5.8-1.008c-1.484-.868-1.008-2.3.56-2.772a16.984,16.984,0,0,1,6.916.084A3.133,3.133,0,0,1,45,22.82c1.456,1.008,3.108.532,2.884-1.456a14.3,14.3,0,0,0-2.072-4.508C45.22,15.932,44.548,14.924,43.9,13.916Z" transform="translate(241.25 82.032)" fill="#faf6df"/></g><path d="M-12.568-5.032A1.247,1.247,0,0,0-11.31-6.358a1.229,1.229,0,0,0-1.258-1.326l-11.458.034V-9.724l8.942.034a1.275,1.275,0,0,0,1.292-1.326,1.256,1.256,0,0,0-1.292-1.326l-8.942.034v-1.87c1.7,0,3.4-.034,5.1-.068,4.216-.1,4.216-2.992,4.216-5.712,0-1.156-.068-2.38-.1-3.468-.068-1.632-1.36-3.026-3.74-3.094-1.9-.034-4.046-.068-6.188-.068-2.618,0-5.236.034-7.582.068-2.618.034-3.706,1.36-3.808,3.128-.034.952-.068,1.972-.068,2.958,0,1.02.034,2.04.068,2.992.1,1.9,1.258,3.094,3.774,3.2,1.632.068,3.434.068,5.3.068v1.87l-8.738-.034a1.293,1.293,0,0,0-1.36,1.326A1.312,1.312,0,0,0-35.79-9.69l8.738-.034V-7.65l-11.322-.034A1.265,1.265,0,0,0-39.7-6.358a1.283,1.283,0,0,0,1.326,1.326ZM-11,.578c0-1.5-3.264-4.692-4.828-4.692-.884,0-1.7.612-1.7,1.292a1.059,1.059,0,0,0,.476.85A10.688,10.688,0,0,1-14.234,1.36a1.517,1.517,0,0,0,1.428.918A1.793,1.793,0,0,0-11,.578Zm-8.262.238c0-.884-1.36-4.9-3.366-4.9a1.4,1.4,0,0,0-1.53,1.19,1.3,1.3,0,0,0,.2.646A8.936,8.936,0,0,1-22.5,1.19,1.482,1.482,0,0,0-21,2.482,1.7,1.7,0,0,0-19.266.816Zm-7.48-.034a8.229,8.229,0,0,0-1.088-4.25,1.614,1.614,0,0,0-1.36-.612c-.748,0-1.462.374-1.462,1.088a1.335,1.335,0,0,0,.1.476A9.045,9.045,0,0,1-29.976.748v.306a1.389,1.389,0,0,0,1.462,1.462A1.723,1.723,0,0,0-26.746.782Zm-11.22,1.9c1.9,0,4.658-3.434,4.658-5.372A1.525,1.525,0,0,0-34.94-4.08,1.407,1.407,0,0,0-36.4-2.992,6.084,6.084,0,0,1-38.816-.136a1.69,1.69,0,0,0-.918,1.36A1.649,1.649,0,0,0-37.966,2.686Zm13.94-24.344V-24.14c1.632,0,3.23.034,4.59.068,1.564.034,1.632.85,1.632,2.414Zm6.222,2.414c0,1.19-.1,2.414-1.734,2.482q-2.244.1-4.488.1v-2.584Zm-9.248-2.414H-33.24c0-1.326.2-2.38,1.6-2.414,1.36-.034,2.958-.068,4.59-.068Zm0,5q-2.346-.051-4.488-.1c-1.7-.068-1.7-1.19-1.7-2.482h6.188ZM19.63-5.168A1.4,1.4,0,0,0,21.058-6.63a1.408,1.408,0,0,0-1.428-1.5H14.258V-11.9H19.29a1.4,1.4,0,0,0,1.428-1.462,1.408,1.408,0,0,0-1.428-1.5H14.258V-18.53h6.6a1.4,1.4,0,0,0,1.428-1.462,1.408,1.408,0,0,0-1.428-1.5H11.3a32.809,32.809,0,0,0,1.054-4.42,1.539,1.539,0,0,0-1.632-1.5A1.4,1.4,0,0,0,9.26-26.18,26.649,26.649,0,0,1,6-16.66l-.034.068-.034-1.6a2.749,2.749,0,0,0-2.516-2.482c-.408-.034-.85-.034-1.326-.068.034-.986.068-1.972.1-2.992h3.3a1.283,1.283,0,0,0,1.326-1.326,1.265,1.265,0,0,0-1.326-1.326H-6.04A1.343,1.343,0,0,0-7.5-25.058,1.363,1.363,0,0,0-6.04-23.732h2.89c0,.952,0,1.972.034,2.992-2.89,0-3.672,1.53-3.672,2.822-.034,2.992-.068,6.766-.068,10.37,0,2.108,0,4.148.068,5.984A2.938,2.938,0,0,0-3.9,1.5c.884.068,2.006.1,3.128.1,1.258,0,2.584-.034,3.74-.136A3.168,3.168,0,0,0,5.962-1.7C6-4.692,6-7.99,6-11.084v-3.774a1.521,1.521,0,0,0,1.19.544c.646,0,1.394-.068,3.06-4.216h.918V.714a1.551,1.551,0,1,0,3.094,0V-5.168ZM.114-20.774H-1.008v-2.958H.148Zm2.312,2.55c.544,0,.85.1.884.85.034,1.428.1,3.06.1,4.93a2.748,2.748,0,0,1-.544.034H2.7c-.816-.1-.816-.748-.816-5.848ZM3.208-7.038H-4.136V-8.772c2.482-1.8,2.992-5.61,3.094-9.486H.08c0,.884-.034,1.768-.034,2.618S.08-13.974.08-13.158c.068,1.9.51,3.026,2.482,3.026a3.9,3.9,0,0,0,.646-.034Zm-6.12-11.186c-.034,2.788-.374,5.44-1.394,6.936,0-2.21.034-4.25.1-6.018.034-.714.442-.884,1.02-.918ZM3.174-4.488c0,.748-.034,1.5-.068,2.21,0,.986-.578,1.088-3.3,1.088-3.23,0-3.774-.068-3.842-1.088C-4.068-2.992-4.1-3.74-4.1-4.488Zm31.37-19.938a1.93,1.93,0,0,0-1.9-1.9,1.93,1.93,0,0,0-1.9,1.9,1.9,1.9,0,0,0,1.9,1.884A1.9,1.9,0,0,0,34.544-24.426Zm5.89,5.89a1.93,1.93,0,0,0-1.9-1.9,1.9,1.9,0,0,0-1.884,1.9,1.9,1.9,0,0,0,1.884,1.9A1.93,1.93,0,0,0,40.434-18.536Zm-1.13,7.3a.664.664,0,0,0,.615-.635.5.5,0,0,0-.159-.357c-1.448-1.388-3.768-3.689-6.148-6.069a.384.384,0,0,1-.119-.258.3.3,0,0,1,.079-.2c2.4-2.4,4.74-4.72,6.188-6.088a.456.456,0,0,0,.159-.357.682.682,0,0,0-.635-.635.456.456,0,0,0-.357.159c-1.368,1.428-3.629,3.768-6.009,6.148a.392.392,0,0,1-.278.119.383.383,0,0,1-.3-.139c-2.36-2.38-4.641-4.72-5.989-6.128A.456.456,0,0,0,26-25.834a.682.682,0,0,0-.635.635.431.431,0,0,0,.159.357c1.428,1.349,3.748,3.629,6.108,6.009a.413.413,0,0,1,.139.3.349.349,0,0,1-.119.258c-2.38,2.36-4.68,4.661-6.128,6.049a.5.5,0,0,0-.159.357.664.664,0,0,0,.615.635.485.485,0,0,0,.357-.159c1.388-1.428,3.728-3.768,6.088-6.148a.343.343,0,0,1,.238-.119c.178,0,.317.139,6.287,6.267A.485.485,0,0,0,39.3-11.238ZM26.75-16.632a1.9,1.9,0,0,0,1.884-1.9,1.9,1.9,0,0,0-1.884-1.9,1.913,1.913,0,0,0-1.884,1.9A1.913,1.913,0,0,0,26.75-16.632Zm7.794,3.986a1.9,1.9,0,0,0-1.9-1.884,1.9,1.9,0,0,0-1.9,1.884,1.913,1.913,0,0,0,1.9,1.884A1.913,1.913,0,0,0,34.544-12.646Z" transform="translate(429.364 4693.787)" fill="#faf6df"/></g></svg>