<svg xmlns="http://www.w3.org/2000/svg" width="385.327" height="171.307" viewBox="0 0 385.327 171.307"><g transform="translate(-534 -2260)"><path d="M31.38,10.651H20.648a.62.62,0,0,0-.62.62V12.58a.621.621,0,0,0,.515.612c2.5.431,2.843,1.319,2.843,2.216,0,.861-.675,2.691-2.528,5.344a26.1,26.1,0,0,0-5.538-6.8c3.3-2.1,4.966-4.533,4.966-7.224,0-3.961-3.1-6.724-7.542-6.724C7.8,0,4.218,3.346,4.218,7.953c0,2.209.85,4.091,2.821,6.181C2.241,17.107,0,20.285,0,24.09c0,5.211,4.14,9.14,9.631,9.14,3.072,0,6.192-1.368,9.52-4.181,1.964,3.514,4.588,4.181,8.872,4.181.894,0,1.908,0,3.035-.084a.62.62,0,0,0,.575-.619V29.5a.622.622,0,0,0-.62-.62c-.222,0-.441.011-.656.022-.184.01-.363.019-.531.019-3.843,0-5.322-.874-6.907-4.2a49.546,49.546,0,0,0,3.848-6.907A21.95,21.95,0,0,1,27.851,15.7a5.094,5.094,0,0,1,3.666-2.513A.618.618,0,0,0,32,12.58V11.271a.619.619,0,0,0-.62-.62M12.5,3.862c2,0,3.19,1.1,3.19,2.944,0,1.721-1.2,3.3-3.55,4.685C9.9,10.1,8.817,8.673,8.817,7.135c0-1.958,1.48-3.273,3.681-3.273M9.914,16.633a24.268,24.268,0,0,1,7.194,8.7c-2.009,2.028-3.924,3.014-5.838,3.014a5.464,5.464,0,0,1-5.482-5.563c0-2.509,1.386-4.573,4.126-6.148" transform="translate(710.31 2332.828)" fill="#02805b"/><path d="M85.653,0A85.653,85.653,0,1,1,0,85.653,85.653,85.653,0,0,1,85.653,0Z" transform="translate(534 2260)" fill="#e4321e"/><circle cx="85.653" cy="85.653" r="85.653" transform="translate(748.02 2260)" fill="#e4321e"/><path d="M-27.79-3.29c0,1.645-.735,2.1-1.855,2.1a8.7,8.7,0,0,1-1.785-.245,1.191,1.191,0,0,0-.35-.035A1.415,1.415,0,0,0-33.11.105c0,1.75,1.505,1.995,3.5,1.995,3.955,0,5.04-2.555,5.04-4.55v-.07l-.07-4.935V-14.07c2.625,0,3.15,0,3.15.56a12.132,12.132,0,0,1-1.645,3.15,1.321,1.321,0,0,0-.28.805,1.509,1.509,0,0,0,1.645,1.33,2.189,2.189,0,0,0,1.75-.91c.07-.07,2.03-3.255,2.03-4.97,0-1.61-1.12-2.695-3.01-2.73-1.085,0-2.38-.035-3.745-.035a1.881,1.881,0,0,0,.84-1.435,1.38,1.38,0,0,0-.385-.945c-.035-.07-.1-.1-.175-.175,4.305-3.43,4.655-4.725,4.655-5.46,0-1.19-1.05-2.17-2.835-2.17h-2.31c-2.135,0-4.3.035-6.23.07A1.467,1.467,0,0,0-32.69-25.48a1.412,1.412,0,0,0,1.47,1.47h.07c2.31-.07,4.8-.245,6.79-.245.175,0,.245.07.245.175a17.1,17.1,0,0,1-2.695,2.9,5.322,5.322,0,0,0-2.135-.875,1.681,1.681,0,0,0-1.68,1.5,1.039,1.039,0,0,0,.665.945,9.216,9.216,0,0,1,3.325,2.415,1.271,1.271,0,0,0,.28.315c-1.925,0-3.885,0-5.74.035a1.442,1.442,0,0,0-1.5,1.47,1.378,1.378,0,0,0,1.47,1.4h.035c1.33,0,2.835-.035,4.305-.07ZM-35-7.525a1.341,1.341,0,0,0,1.33-1.4,1.276,1.276,0,0,0-1.295-1.33H-35l-4.445.035v-2.8c.735-.035,1.47-.07,2.1-.1,2.135-.175,3.255-1.155,3.4-2.905.1-1.3.14-2.59.14-3.92,0-1.575-.07-3.15-.175-4.8a2.952,2.952,0,0,0-3.08-2.66c-1.225-.07-2.485-.07-3.745-.07s-2.485,0-3.745.07c-2.625.1-3.395,1.715-3.465,3.29-.035,1.26-.07,2.695-.07,4.13,0,1.4.035,2.765.07,3.955.1,1.82,1.4,2.765,3.255,2.905.7.035,1.505.07,2.31.1v2.835l-4.48.035A1.329,1.329,0,0,0-48.3-8.75a1.285,1.285,0,0,0,1.33,1.33h.035l4.445-.035V-3.71c-1.715.315-3.5.6-5.32.77a1.427,1.427,0,0,0-1.33,1.5A1.545,1.545,0,0,0-47.6.175a73.258,73.258,0,0,0,13.545-3.15,1.493,1.493,0,0,0,1.015-1.4A1.3,1.3,0,0,0-34.265-5.74a1.757,1.757,0,0,0-.42.07c-1.435.455-3.045.91-4.76,1.3V-7.49ZM-39.515-21.56v-3.29c2.1,0,2.625,0,2.695,1.085.035.665.105,1.4.105,2.205Zm-2.87,0h-2.8c0-3.29,0-3.29,2.8-3.29ZM-36.715-19c0,3.43-.035,3.43-2.8,3.43V-19Zm-5.67,3.43c-2.065,0-2.66-.175-2.73-1.085-.035-.735-.07-1.54-.07-2.345h2.8Zm55.615-7.56a1.493,1.493,0,0,0,1.61-1.47,1.448,1.448,0,0,0-1.61-1.435L6.02-26v-1.4A1.524,1.524,0,0,0,4.34-28.84,1.537,1.537,0,0,0,2.625-27.4V-26h-5.32v-1.4a1.524,1.524,0,0,0-1.68-1.435A1.537,1.537,0,0,0-6.09-27.4V-26l-7.1-.035a1.467,1.467,0,0,0-1.61,1.435,1.473,1.473,0,0,0,1.61,1.47l7.1-.035v1.05a1.455,1.455,0,0,0,1.61,1.4,1.634,1.634,0,0,0,1.785-1.54v-.91h5.32v.455a1.455,1.455,0,0,0,1.61,1.4,1.634,1.634,0,0,0,1.785-1.54v-.315ZM6.125-11.1c1.3-1.3,3.5-4.375,3.5-5.32a1.792,1.792,0,0,0-1.82-1.575,1.215,1.215,0,0,0-1.155.7,19.735,19.735,0,0,1-2.87,4.48,1.364,1.364,0,0,0-.385.91,1.476,1.476,0,0,0,1.54,1.33A1.681,1.681,0,0,0,6.125-11.1Zm3.57-7.49a1.32,1.32,0,0,0,1.19-1.33,1.536,1.536,0,0,0-1.68-1.47,1.7,1.7,0,0,0-.42.035,146.468,146.468,0,0,1-19.74,1.435c-1.12,0-1.645.665-1.645,1.365a1.632,1.632,0,0,0,1.82,1.5C-10.01-17.045,2.485-17.605,9.695-18.585ZM1.54-13.65c0-.455-.84-3.64-2.555-3.64A1.484,1.484,0,0,0-2.59-16.03a1.116,1.116,0,0,0,.21.6,5.562,5.562,0,0,1,1.05,2.31A1.2,1.2,0,0,0-.1-12.18,1.585,1.585,0,0,0,1.54-13.65ZM-4.935-12.6c0-.8-1.785-3.99-3.395-3.99a1.54,1.54,0,0,0-1.575,1.33,1.145,1.145,0,0,0,.455.875A5.952,5.952,0,0,1-7.8-12.005a1.316,1.316,0,0,0,1.26.91A1.585,1.585,0,0,0-4.935-12.6Zm17.92,5.74a1.412,1.412,0,0,0,1.47-1.47,1.422,1.422,0,0,0-1.5-1.47H1.61v-.77A1.5,1.5,0,0,0-.035-12.04,1.51,1.51,0,0,0-1.68-10.5v.7H-12.845A1.469,1.469,0,0,0-14.35-8.3,1.385,1.385,0,0,0-12.88-6.86h.035L-3.29-7A31.432,31.432,0,0,1-13.58-1.54c-.84.315-1.225.84-1.225,1.4A1.692,1.692,0,0,0-13.02,1.435c.98,0,7.14-2.625,11.41-6.23L-1.68,1.26V1.3c0,.91.805,1.33,1.645,1.33A1.479,1.479,0,0,0,1.61,1.3V1.26L1.54-4.865C5.88-1.4,12,1.3,12.95,1.3A1.95,1.95,0,0,0,14.805-.63,1.409,1.409,0,0,0,13.72-2C9.695-3.325,6.51-4.445,3.01-7l9.94.14ZM35.28-19.635a9.078,9.078,0,0,1,4.34,1.4c3.465,2.2,4.41,6.79,1.925,10.71-1.155,1.82-3.85,3.325-6.51,3.92C32.025-2.9,33.11.63,36.19-.175c3.465-.91,6.9-3.08,8.54-5.775,3.045-5,2.17-11.445-3.255-14.7-4.41-2.66-10.815-2.17-15.12.805-4.69,3.255-7.035,9.765-4.83,14.1C23.065-2.73,26-1.365,28.7-3.85c3.36-3.115,6.51-9.73,7.07-14.175A1.751,1.751,0,0,0,35.28-19.635Zm-2.765.175a2.476,2.476,0,0,0-.315,1.085C31.85-14.6,29.4-9.03,26.775-6.72c-.875.77-1.785.245-2.31-.77-1.47-2.7.28-7.35,3.535-9.87A11.6,11.6,0,0,1,32.515-19.46ZM-6.9,29.755c.07-3.115.035-6.825.035-8.96,0-2.345-1.225-4.41-4.69-4.48-3.5-.07-9.8,0-13.65.175-2.695.1-2.555,3.535.175,3.4,3.64-.175,9.17-.385,12.25-.28,1.33.035,2.17.665,2.2,1.82.07,1.82.07,5.39-.035,7.49a1.99,1.99,0,0,1-2.03,1.96c-2.59.175-8.96.175-12.705.035a1.825,1.825,0,1,0,.035,3.64c3.605,0,9.38-.035,13.09-.245C-9.555,34.165-6.965,33.115-6.9,29.755ZM18.76,14.565C20.4,12.22,16.905,10.54,15.75,12.5c-1.61,2.765-6.16,9.2-9.52,11.27-2.38,1.47-.315,4.48,2.03,2.9,2.415-1.645,5.495-5.32,7.875-8.47,1.575-.175,4.13-.42,5.6-.455.84-.035,1.12.63.84,1.3-2.59,5.95-8.365,12.95-16.135,15.645-2.9,1.015-1.47,4.445,1.5,3.29C17.78,34.1,22.61,26.99,26.88,18.835c1.3-2.485-1.05-4.375-3.745-4.235-1.4.07-3.115.21-4.62.315Z" transform="translate(617.776 2343.317)" fill="#faf6df"/><path d="M-56.42,1.82a19.114,19.114,0,0,0,6.93-22.33c-1.435-3.955-5.985-5.39-8.54-2.1-.35.455-.7.91-.245-.035a10.5,10.5,0,0,0,.91-3.255c.175-2.1-3.22-2.52-3.5-.315-.28,2.135-.945,4.445-1.33,6.23A31.129,31.129,0,0,0-63-11.9c.21,2.52,3.99,2.555,3.815-.84-.175-3.045-.1-4.48.91-6.615,1.015-2.17,4.34-3.465,5.495.035A16.119,16.119,0,0,1-58.869-.91C-61.81,1.015-59.255,3.92-56.42,1.82Zm41.755-3.57a16.984,16.984,0,0,0,4.41-5.81c1.33-2.625-2.345-4.41-3.36-1.82A11.863,11.863,0,0,1-16.8-4.48c-2.065,1.855-5.075,2.24-5.075-.875,0-1.3.28-2.485.175-3.85-.49-5.915-6.545-4.27-7.805-3.15-.245.21-.35.28-.1-.07.77-1.155,1.47-2.275,2.38-3.57a50.382,50.382,0,0,1,3.71-4.655c.385-.455.735-.84,1.015-1.19a9.3,9.3,0,0,0,.805-1.225c1.155-2.205-2.1-3.955-3.255-1.89-.385.7-1.33,1.925-1.925,2.905-1.715,2.73-3.535,5.7-5.565,8.855a61.689,61.689,0,0,0-5.6,10.6,1.848,1.848,0,0,0,2.065,2.7c.7-.105,1.47-.28,2.1-2.975a18.4,18.4,0,0,1,2.2-4.76c.98-1.75,6.3-5.04,6.475-1.155.07,1.575-.175,2.555-.175,4.165C-25.444,2-18.444,1.225-14.664-1.75ZM20.826-23.8c1.015,1.47,3.22-.455,1.995-2.03a11.251,11.251,0,0,0-3.255-2.415c-1.575-.735-3.15,1.26-1.435,2.17A12.074,12.074,0,0,1,20.826-23.8Zm-2.03.35a11.236,11.236,0,0,0-3.185-2.485c-1.54-.805-3.15,1.12-1.47,2.065a12.2,12.2,0,0,1,2.59,2.415C17.711-19.95,19.986-21.84,18.8-23.45Zm-6.09,5.53c2.835.595,3.6-3.01.665-3.64a37.158,37.158,0,0,0-11.165-.105c-3.115.455-2.66,4.165.1,3.64A26.61,26.61,0,0,1,12.706-17.92ZM16.136-.875c2.835-.875,1.995-4.655-.91-3.85C9.941-3.22,4.271-2.975,1.3-6.02a1.845,1.845,0,0,0-2.9,2.275C.806-.35,9.206,1.3,16.136-.875ZM53.69-5.32a1.44,1.44,0,0,0,1.47-1.505,1.449,1.449,0,0,0-1.47-1.54H48.16V-12.25h5.18a1.44,1.44,0,0,0,1.47-1.505,1.449,1.449,0,0,0-1.47-1.54H48.16v-3.78h6.79a1.44,1.44,0,0,0,1.47-1.5,1.449,1.449,0,0,0-1.47-1.54H45.115A33.774,33.774,0,0,0,46.2-26.67a1.584,1.584,0,0,0-1.68-1.54,1.437,1.437,0,0,0-1.505,1.26,27.433,27.433,0,0,1-3.36,9.8l-.035.07-.035-1.645A2.83,2.83,0,0,0,37-21.28c-.42-.035-.875-.035-1.365-.07.035-1.015.07-2.03.1-3.08h3.4A1.321,1.321,0,0,0,40.5-25.8,1.3,1.3,0,0,0,39.13-27.16H27.265a1.383,1.383,0,0,0-1.5,1.365,1.4,1.4,0,0,0,1.5,1.365H30.24c0,.98,0,2.03.035,3.08-2.975,0-3.78,1.575-3.78,2.905-.035,3.08-.07,6.965-.07,10.675,0,2.17,0,4.27.07,6.16A3.024,3.024,0,0,0,29.47,1.54c.91.07,2.065.105,3.22.105,1.295,0,2.66-.035,3.85-.14A3.261,3.261,0,0,0,39.62-1.75c.035-3.08.035-6.475.035-9.66V-15.3a1.566,1.566,0,0,0,1.225.56c.665,0,1.435-.07,3.15-4.34h.945V.735a1.6,1.6,0,1,0,3.185,0V-5.32ZM33.6-21.385H32.445V-24.43h1.19Zm2.38,2.625c.56,0,.875.105.91.875.035,1.47.105,3.15.105,5.075a2.829,2.829,0,0,1-.56.035H36.26c-.84-.1-.84-.77-.84-6.02Zm.805,11.515h-7.56V-9.03c2.555-1.855,3.08-5.775,3.185-9.765h1.155c0,.91-.035,1.82-.035,2.695s.035,1.715.035,2.555c.07,1.96.525,3.115,2.555,3.115a4.019,4.019,0,0,0,.665-.035Zm-6.3-11.515c-.035,2.87-.385,5.6-1.435,7.14,0-2.275.035-4.375.105-6.2.035-.735.455-.91,1.05-.945ZM36.75-4.62c0,.77-.035,1.54-.07,2.275,0,1.015-.6,1.12-3.395,1.12-3.325,0-3.885-.07-3.955-1.12-.035-.735-.07-1.5-.07-2.275ZM66.6-21.847a1.7,1.7,0,0,0-1.68-1.68,1.7,1.7,0,0,0-1.68,1.68,1.677,1.677,0,0,0,1.68,1.662A1.677,1.677,0,0,0,66.6-21.847Zm5.2,5.2a1.7,1.7,0,0,0-1.68-1.68,1.677,1.677,0,0,0-1.662,1.68,1.677,1.677,0,0,0,1.662,1.68A1.7,1.7,0,0,0,71.8-16.65Zm-1,6.44a.586.586,0,0,0,.542-.56.438.438,0,0,0-.14-.315c-1.277-1.225-3.325-3.255-5.425-5.355a.339.339,0,0,1-.1-.227.267.267,0,0,1,.07-.175c2.117-2.117,4.182-4.165,5.46-5.372a.4.4,0,0,0,.14-.315.6.6,0,0,0-.56-.56.4.4,0,0,0-.315.14c-1.207,1.26-3.2,3.325-5.3,5.425a.345.345,0,0,1-.245.1.338.338,0,0,1-.262-.122c-2.082-2.1-4.095-4.165-5.285-5.407a.4.4,0,0,0-.315-.14.6.6,0,0,0-.56.56.38.38,0,0,0,.14.315c1.26,1.19,3.307,3.2,5.39,5.3a.365.365,0,0,1,.122.262.308.308,0,0,1-.1.227c-2.1,2.082-4.13,4.112-5.407,5.337a.438.438,0,0,0-.14.315.586.586,0,0,0,.542.56.428.428,0,0,0,.315-.14c1.225-1.26,3.29-3.325,5.372-5.425a.3.3,0,0,1,.21-.1c.157,0,.28.122,5.547,5.53A.427.427,0,0,0,70.8-10.21ZM59.728-14.97a1.677,1.677,0,0,0,1.662-1.68,1.677,1.677,0,0,0-1.662-1.68,1.688,1.688,0,0,0-1.662,1.68A1.688,1.688,0,0,0,59.728-14.97ZM66.6-11.452a1.677,1.677,0,0,0-1.68-1.662,1.677,1.677,0,0,0-1.68,1.662,1.688,1.688,0,0,0,1.68,1.662A1.688,1.688,0,0,0,66.6-11.452Z" transform="translate(832.296 2358.653)" fill="#faf6df"/></g></svg>