<svg xmlns="http://www.w3.org/2000/svg" xmlns:xlink="http://www.w3.org/1999/xlink" width="231.478" height="67.987" viewBox="0 0 231.478 67.987"><defs><clipPath id="a"><rect width="231.478" height="67.987" transform="translate(0 0)" fill="none"/></clipPath></defs><g transform="translate(0 0)" clip-path="url(#a)"><path d="M33.994,67.987A33.994,33.994,0,1,1,67.987,33.994,34.032,34.032,0,0,1,33.994,67.987" transform="translate(0 0)" fill="#fff"/><path d="M1.417,33.793A32.375,32.375,0,1,1,33.792,66.167,32.375,32.375,0,0,1,1.417,33.793m32.24,30.98A31.057,31.057,0,1,0,2.6,33.716,31.058,31.058,0,0,0,33.657,64.773" transform="translate(0.201 0.202)" fill="#ab0029"/><path d="M3.892,33.472a29.595,29.595,0,1,1,29.6,29.6,29.6,29.6,0,0,1-29.6-29.6M33.364,61.794A28.392,28.392,0,1,0,4.971,33.4a28.391,28.391,0,0,0,28.393,28.39" transform="translate(0.553 0.551)" fill="#ab0029"/><path d="M13.889,24.731c-1.928.214-2.859-.5-2.428-2.215,0,0,.429-3.429.356-3.857a13.66,13.66,0,0,1,1.144-3.07c.284-.643,1-.93,1.713-1.573s3.785-3.643,5.143-1.929a6.24,6.24,0,0,0,1.428.858,5.856,5.856,0,0,1,5.929-1.927,11.1,11.1,0,0,1,5.215-.429c.427.143,1.071-1.071,4.571.357.286.142,5.427-4.216,8.928-1.072a4.33,4.33,0,0,0,1,.929,6.119,6.119,0,0,1,2.572,3.071,8.893,8.893,0,0,0,2.783,3.785,1.536,1.536,0,0,1-1,2.787,3.9,3.9,0,0,0-1,.785c.5,0,.5-.071.859.357s.427.786,1-.143,1.071-.785,1.714-.142.786.857,1.285.284c0,0,.144-.072.787.143l3.57-.427c8,21.783-7.427,41.425-28.283,41.068L31.1,60.942c-3.713-2.428-1.856-7.714.644-8.358a19.906,19.906,0,0,1-1.93-2.855.745.745,0,0,0-1.07-.571,5.526,5.526,0,0,1-2.928-.571,4.3,4.3,0,0,0-3-.645c-1.214.288-1.857.572-3.142-.5.143,1.214-1.57,2.858-3.571.787a.807.807,0,0,0-.5-.288,2.371,2.371,0,0,1-1.356-1.5s-.359-.715-.644-.858a5.726,5.726,0,0,1-1.642-3.214s-.144-.286-.356-.643a5.506,5.506,0,0,1,.642-4.213c.286-.357.643-.644.071-1.572a2.739,2.739,0,0,1,.644-2.643,1.716,1.716,0,0,0,.5-1.5s1.07-1.214,1.357-1.643c-.571-.284-.857-1.428-.571-2.427l-1.072-1a2.716,2.716,0,0,0,.714-1.214Zm-1.214-2.714s-.5,1.356.5,1.5,1.428.143,1.357-1.428l.429-3.073s-.287-.284,1.07-1.641L17.46,15.8c.572-.855,1.929-.785.715.429s-3.287,4.142-2.787,6.142c.287.715.715,1.214,0,1.714s-.642,2.213-.57,2.428.286.144.5,0a2.124,2.124,0,0,1,2.285.572s.783.786,1.214.714,0-.071.428.143a.617.617,0,0,0,.714-.071l-.786-1.143c-.356-.356-.143-1,.5-.215a4.225,4.225,0,0,0,.5.714c.359.5,1.216.644.644-.284a2.956,2.956,0,0,1-.57-.929c-.074-.357.357-1.429.713-.143.572,1.428,1.215,1.57,2.145,1.428a1.556,1.556,0,0,1,1.213-.284s1.643-1,1.855-2.073c.146-.715,1.287-.5.787.071,0,0-1.213,1.786-2.284,2.144s.143.786.571.572c2.428.071,3.5-.216,3.357-3.143,1.285-1.642,1.643-1.357,1.142-.643,0,0-.428,1.285.642.357a5.652,5.652,0,0,1,2.788-1.071c.214-.072.783,0,.642.356a1.69,1.69,0,0,1-.785.216,2.11,2.11,0,0,0-1.93.57l-.5.715h-.715a1.011,1.011,0,0,0-.355.713c-.287.5-.571,1.287.428.216,1.213-1,3.071-1.573,5.5-.287.288.287.288.714,1,.071s1.425-.713.785-.071-1.358,1.144-.357,1.358c1.143.5,1,.714.072.427a1.151,1.151,0,0,0-1.358.429,4.217,4.217,0,0,1-4.142.786,3.1,3.1,0,0,0,2.928.571c.644-.143,1.5.071.857.428s-1.928.573-4-.643a3.435,3.435,0,0,0,3.786,1.43c.642-.287.927.212.427.356a5.319,5.319,0,0,1-5.072-1.641c-2.213-2.215-1.07.785-.286,1a7.57,7.57,0,0,0,3.573,1.785A2.843,2.843,0,0,1,36.387,34.8s.786,1.286-.143,1.286c.571.14.715.5,1.144.428a2.281,2.281,0,0,1,1.569,2.571s1.214,1.071.5,2.143-.927.786-.429,1.5a6.271,6.271,0,0,1-1.856-1.356,4.07,4.07,0,0,0-2-1.072c-2.428-1.214-.357-.857.215-.5s1.286.785,1.785,1.142c.573.5,1.214.785,1.643-.215a1.782,1.782,0,0,0-.5-1.857c.072-.287.143-2-2.284-2.285a3.374,3.374,0,0,1-1.142-.215c-.5-.215-1-.714-.786.357.713.858,2.141,2.928-.072.715a4.27,4.27,0,0,0-1.713-1.856,8.134,8.134,0,0,1-2.144-1.858c-.214-.359-1.072-.359-1.072-.359a2.96,2.96,0,0,1-.785-.356c-.286-.215-.858-.072-1.214.143a1.569,1.569,0,0,1-1.857-.071,6.192,6.192,0,0,0-5.428,1.285c-.284.286-.786.858-1.215.072,0,0-.5-.714-1.928-.072,0,0-5.715,4.857-3.213,7.5a3.432,3.432,0,0,0,.855,2.357c.927.93,1.714.857,1.286-2.571-.143-1.5-.071-2.5,1.714-3.285s1.714-1.144,1.714-1.5.143-.927.571.072c0,0,.072.858,1.572.644,1.5.284,5.355.643,6.857,3.142s.714,2.143-.5,1.215-7.215-2.358-10.071-.715c-.857.215-1.928,1.285-.071,1.642,1.285.428,3,1.286,3.215,2.856,0,0,.57,1.142,1.284,1.142s1.143-.14-.071-1.071l-.858-1.142a2.322,2.322,0,0,0-.428-.926c-.284-.287-.284-.93.357-.216s1,1.929,1.572,2.213a3.074,3.074,0,0,0,2.144.643c1.069-.14,1.213.143,2,.787a2.994,2.994,0,0,0,2.358.143c.5,0,2.071,0,.427-2.357-.5-.786-.643-2.786.356-.715,0,0,1.072,1.5,1.287,1.785a2.861,2.861,0,0,0,3,2.144c2.643.143,6.356.072,7.356-3.072,0,0,.927-1.428,1.5-1.57a2.838,2.838,0,0,0,1.643-3.43,6.577,6.577,0,0,1,.142-2.784s.643-1.5.5,0-.356,2.215-.072,2.784.572,1.288,1.287-.427c.5-.786,1-2,.5-4.356s0-4.859.286-2.5c0,0,.5.857.715-1.07a26.529,26.529,0,0,0-.715-7.5c-.286-1.07,0-2.212.428-.07,0,0,.357,1.714.643,2.858s1.286,4.855-.356,7.284a3.665,3.665,0,0,1,1,1.642s.857.927.428-.215a4.564,4.564,0,0,1-.786-1.428c-.215-.571-.071-1.572.5-.071.786,1.285,1.287,1,.643-.072A3.5,3.5,0,0,0,49.1,33.3c-.428-.5-.5-1.357.357-.286,0,0,.284.286.57.642s.858.573.143-.5l-.927-1.07s-.858-1.5.428-.287l.57.572s1.43,1,.428-.429a6.005,6.005,0,0,0-.783-.857,1.49,1.49,0,0,1-.643-.785c-.215-.573-.215-.5.5.07a1.949,1.949,0,0,0,.643.5c.429.215,1.07-.215.144-.929a7.609,7.609,0,0,1-1.359-1.286c-.57-.571-.713-.927.288-.212s2,1.356,1.212.071a10.338,10.338,0,0,0-1.285-1.786c-1.071-.857-1-1.642.216-.287s1.57.644.57-.714c-2.141-1.642-3.142-2.571.145-.857,0,0,.57,0-.5-1s-1.714-1.215-.214-.786c0,0,1.285.571-.287-.5-.857-.14-1.141-1-1.285-1.284s-.215-.428.356-.643a2.153,2.153,0,0,0,.785-.5c.215-.286,0-.215.5-.215s.428-.286.428-.286a1.214,1.214,0,0,0,.57-.144,1.03,1.03,0,0,0-.14-1.714,6.121,6.121,0,0,1-2.286-2.926,3.452,3.452,0,0,0-2.285-3.143c-1.071-1.143-2.927-3.715-8.286.642a2.1,2.1,0,0,1-2.071-.287c-.857-.785-2.715-.142-2.856-.142,0,0-4-.214-5.214.714a1.232,1.232,0,0,1-.929-.286c-.357-.356-3.714.214-4.212,1.357,0,0-1.646,2.5-1.931,1,0,0-.571-1-1.213-1.072,0,0-.572-1.213-2.286.072A9.014,9.014,0,0,1,15.1,15.445a4.8,4.8,0,0,0-2.072,3.642,24.036,24.036,0,0,1-.357,2.929m1.214,14.071,2.285-2.144c-.571-.786.357-2.213.929-2.643,0,0,.215-1.285,2.572-1.643,0,0,.857-.07,1.214-.142s2.286-.215,2.928.572a5.135,5.135,0,0,0,.714.5c.287.142,2.355,2.356,1.714,2.356,0,0,.284.215.714-.214s1-.144,1.5-.071,2.215.284.215-.429a2.155,2.155,0,0,0-1.358-.286,3.655,3.655,0,0,1-1.215-1c-.57-.715.217-.572.428-.357s-.071.714,1.215.927,2.143.073,3.072,1.714,2,2.429,3,2.36c1.715.64,2.644.284,2.071-.787a1.824,1.824,0,0,1-.428-.93c0-.427,0-.785-1.5-1.142,0,0-1.071-.572-1.64-.356a3.113,3.113,0,0,1-.644-.572,3.554,3.554,0,0,0-1.287-.714A10.955,10.955,0,0,1,28.1,29.158c-.5-.571-3.144-1-4.5-1.071,0,0-2.072-.5-5.858,1.214a2.371,2.371,0,0,0-1.286,1.357A5.044,5.044,0,0,1,15.175,32.3c-.356.215-1.929,3.643-1.286,3.787m1.143-7.928s-.071,1.142.643.214a1.226,1.226,0,0,1,.284-.428c.215-.214,0-1.285-.641-.643l-.287.858m2.144-.143s-.073,1.142.428.214c0,0-.428-.715-.428-.214m13.784-.858s.571,1.429,1-.071c.284-.5.428-1.572-.573-.929a1.013,1.013,0,0,0-.427,1m3.713-1.071a3.191,3.191,0,0,1-.356,1.929s.572.143,1.357-1.215c0,0-.359-.286-1-.714M25.961,40.444c.786.356.14-.642.14-.642-1.069-.787-.428.283-.428.283Zm-1.5-.073c.786.288.215-1,.215-1-.93-.927-.715.215-.715.215a1.281,1.281,0,0,0,.5.785m-1.429-.356s1-.212.073-1.142-.86.429-.86.429c.286.713.787.713.787.713m-2.072-.071c.359.357,1.072-.071.5-1.142s-1.071-.216-.857.356a1.931,1.931,0,0,0,.355.786m-1.713.071c1.07.715.571-1.071.571-1.071-.715-1.214-.929.144-.929.144a1.612,1.612,0,0,0,.357.927m-.93.356c.644-.212-.142-1.213-.142-1.213-.858-.858-.929.428-.929.428,0,.858.428,1,1.07.785m-1.642.573c.715.142.392-.075.071-.714-.355-.715-.5.356-.5.356.145.5.429.357.429.357m2.286-8.714a11.784,11.784,0,0,0-.287,1.286c.715,1.071.357-.428.572-1.572s.571-.214.571-.214c.214-.572,1.572-.858,1.572-.858,1.786-.356-.144-.356-.144-.356s-1.072-.214-1.428.142a1.363,1.363,0,0,1-1.071.215c-1.215.5-.144.428-.144.428.287-.072.572.143.359.929m33.281.429A17.843,17.843,0,0,1,50.029,42.3a6.635,6.635,0,0,0,1.714.715c2.215,1.07,3.143-3.214,3.143-3.214,1.57-5.144.642-12.643-.143-16.429-2.714-1.857-3.142-.284-3.142-.284.787,2.786.641,9.571.641,9.571m-.786.356a20.581,20.581,0,0,1-1.14,6.356c-.858,3.358-4.145,6.214-4.145,6.214C43.244,48.943,39.6,50.3,37.389,51.3c-1.573,1,.642.288.642.288a21.124,21.124,0,0,0,8.57-5.644A13.631,13.631,0,0,0,50.742,39.8a17.758,17.758,0,0,0,1.144-6.071A59.6,59.6,0,0,0,51.1,22.446c-.072-1.072-.785-.931-.571.14.642,1.642,1,6.071.926,10.429m4.573-2.786A25.827,25.827,0,0,1,54.958,40.8c-2.787,6.429-4.929,7.5-4.929,7.5-2.213,2.858-6.284,4.787-7.927,5.5-1.643,1-.215.926.214.5a22.031,22.031,0,0,0,8.142-5.5,15.734,15.734,0,0,0,5-7.786C57.17,37.515,56.6,30.3,56.6,30.3c.215-1.144-.286-4.358-1-7.857-.144-1-.5-.859-.5,0a46.112,46.112,0,0,1,.93,7.783m1.357-3.786c1.142,1.358.786,1.715.786,1.715,0,1.714,2,3.142,2,3.142.572-2.143-1.573-8.284-1.573-8.284a5.679,5.679,0,0,0-1.5-.072c-1.428.5-.858,2.143.287,3.5m.428,3.786a4.758,4.758,0,0,1,.785,1.429,13.284,13.284,0,0,0,1.144,3.427c.857,1.929.355.072.355.072a.835.835,0,0,0-.14-1.214L59.1,32.73c-.143-.642.144-.572.644,0,1.213,1.142.215-.572.215-.572a4.779,4.779,0,0,1-1.929-2.5c-.428-.715.357-1.141-.428-1.784-.929-1.072-.431.214-.431.214.145.715.644,2.143.644,2.143m-16.5,22.429c.427.5.571.14.571.14,1-.14,3.857-2.5,3.857-2.5.858-.428.144-1,0-1.214a.5.5,0,0,0-.786,0,39.1,39.1,0,0,1-3.785,2.572c-.428.212-.286.5-.286.5Zm-3.357,1.5h.572l-.216-1.216h-.643Zm-8.426,2.855a4.071,4.071,0,0,0,8.14-.214,4.052,4.052,0,0,0-2.641-3.713l-.287,1.356A2.152,2.152,0,0,1,36.1,56.729c0,1.785-.714,2.57-2.571,2.57A2.425,2.425,0,0,1,31.1,56.87a2.657,2.657,0,0,1,1.431-2.284l-.288-1.429c-1.213,0-2.712,1.785-2.712,3.856m3.928-2.427c1,.927,1-1.572,1-1.572-1.07-1.357-1.572.143-1.572.143a2.455,2.455,0,0,0,.573,1.429m-15.57-22-.215.572.571-.071a.426.426,0,0,1-.356-.5m4-.286c1.071-.212,1-.5.429-.857ZM34.175,58.656l-.072-.929c-1-.284-.929-1.069-.715-1.642l-.572-.786a1.817,1.817,0,0,0,1.359,3.357m14.837-11A1.116,1.116,0,1,0,47.9,46.542a1.118,1.118,0,0,0,1.117,1.116M47.967,35.676c.67.455.241-.134.241-.134l-.134-.376c-.162-.83-.241.054-.241.054.214.777.134.456.134.456m.883,1.794c.162.161.457.187.241-.134a2.062,2.062,0,0,1-.428-.669c-.214-.483-.348-.187-.214.134a3.535,3.535,0,0,0,.4.669m-.456,1.154c.188.48.589.267.4-.03a2.078,2.078,0,0,1-.348-.7c-.187-.508-.4-.135-.241.134a2.452,2.452,0,0,0,.186.592M47.7,40.337c.106.641.347.026.347.026a6.192,6.192,0,0,0,.027-1.313c-.081-.4-.375-.242-.375,0a4.448,4.448,0,0,0,0,1.287m-32.222,5.2a3.78,3.78,0,0,0,.724,1.125,1.324,1.324,0,0,1,.455.135Zm1.395,1.42a1.03,1.03,0,0,1,.32.453c.081.268.669.135.669.135V47.3s-.159-.321-.989-.348m-.161-1.392a1.832,1.832,0,0,1,.241.588l.483.428.533.16c0-.267-.456-.83-1.257-1.176m.054-1.474.482,1.1.722.563c-.159-.429-.188-.589-.562-.75Zm1.608,2.3A.439.439,0,0,1,18.13,47l.107.59a1.34,1.34,0,0,0,.4-1.715c.054.268,0,.375-.266.509m40.245-8.928s.2.661.519,1.625.517.232.426-.089a4.374,4.374,0,0,0-.677-1.518,2.286,2.286,0,0,0-.249-1.16c-.306-.554-.429-.107-.233.161M53.815,22.089l-.714-.715c.142.786.428,1.072.714.715M52.441,43.657c-.163.267-.027.442.08.281a.786.786,0,0,0,.347-.495c.121-.389-.226-.067-.226-.067Zm-1.513,1.434c-.188.279.12.212.12.212a12.211,12.211,0,0,0,1.178-1.541c.175-.387-.066-.361-.226-.12a6.6,6.6,0,0,1-1.071,1.448m-.428-.11c-.2.336.146.2.146.2A10.154,10.154,0,0,0,51.758,43.7c.266-.535-.095-.306-.2-.107A8.237,8.237,0,0,1,50.5,44.982m-.41-.187c-.2.335.147.2.147.2a10.207,10.207,0,0,0,1.112-1.486c.267-.537-.095-.308-.2-.108A8.379,8.379,0,0,1,50.089,44.8m-.388-.2c-.2.336.147.2.147.2A17.1,17.1,0,0,0,51.075,43c.106-.219-.095-.308-.2-.107a11.45,11.45,0,0,1-1.172,1.7m-.394-.26c-.2.335.146.2.146.2a14.532,14.532,0,0,0,1.246-1.68c.106-.208-.095-.308-.2-.107a10.784,10.784,0,0,1-1.192,1.586m-.41-.12c-.2.335.147.2.147.2a15.7,15.7,0,0,0,1.267-1.707c.139-.268-.095-.31-.2-.107A11.167,11.167,0,0,1,48.9,44.214m3.061.837c-.537.643.25.249.25.249a8.874,8.874,0,0,0,1.357-2.213c.536-1.286-.322,0-.322,0a7.386,7.386,0,0,1-1.285,1.964" transform="translate(1.614 1.241)" fill="#ab0029"/><path d="M31.016,47.418a1.113,1.113,0,0,1-.268,1.34s.055.536.536.029a1.188,1.188,0,0,0,.187-1.206c0-.054-.294-.535-.455-.162" transform="translate(4.369 6.718)" fill="#ab0029"/><path d="M50.136,31.942c-.035-.393.322-.464.322-.035a1.892,1.892,0,0,1-1.894,2c-.75,0-.643-.25.072-.25s1.358-.214,1.5-1.714" transform="translate(6.828 4.493)" fill="#ab0029"/><path d="M49.728,26.3s-.251-.429.25-.143.786,2.606-.644,2.82c0,0-.749.072-.25-.178a1.485,1.485,0,0,0,.644-2.5" transform="translate(6.951 3.703)" fill="#ab0029"/><path d="M49.405,22.015s-.394-.356.105-.143,1.072,2.893-.82,2.928c0,0-.107-.108.178-.144.919-.114,1.251-1.462.537-2.642" transform="translate(6.916 3.098)" fill="#ab0029"/><path d="M47.07,23.151a1.313,1.313,0,1,1,1.313,1.313,1.312,1.312,0,0,1-1.313-1.313m1.313,1.1a1.116,1.116,0,1,0-1.118-1.115,1.116,1.116,0,0,0,1.118,1.115" transform="translate(6.689 3.104)" fill="#ab0029"/><path d="M47.526,27.357a1.313,1.313,0,1,1,1.315,1.312,1.315,1.315,0,0,1-1.315-1.312m1.315,1.1a1.116,1.116,0,1,0-1.117-1.117,1.116,1.116,0,0,0,1.117,1.117" transform="translate(6.754 3.701)" fill="#ab0029"/><path d="M47.386,32.159A1.313,1.313,0,1,1,48.7,33.471a1.313,1.313,0,0,1-1.313-1.311m1.313,1.1a1.116,1.116,0,1,0-1.116-1.117A1.115,1.115,0,0,0,48.7,33.255" transform="translate(6.734 4.383)" fill="#ab0029"/><path d="M46.086,37.674A1.312,1.312,0,1,1,47.4,38.988a1.311,1.311,0,0,1-1.311-1.313m1.311,1.1a1.116,1.116,0,1,0-1.116-1.118A1.117,1.117,0,0,0,47.4,38.772" transform="translate(6.549 5.167)" fill="#ab0029"/><path d="M32.63,49.185c.109.187.483.135.242-.24s-.8-.537-.939-.7l-.107.455a5.036,5.036,0,0,1,.8.482" transform="translate(4.523 6.856)" fill="#ab0029"/><path d="M32.918,49.529s.08.216.158.428.458.323.349-.132a1.561,1.561,0,0,0-.214-.511c-.136-.16-.563-.187-.294.215" transform="translate(4.665 6.992)" fill="#ab0029"/><path d="M29.973,48.364A3.233,3.233,0,0,0,28.1,51.391s.294,1.019.322-.027a2.893,2.893,0,0,1,1.659-2.7Z" transform="translate(3.993 6.873)" fill="#ab0029"/><path d="M28.359,52.056c-.105-.131.162-.482.322-.106a1.121,1.121,0,0,0,.482.643c.267.187.242.563-.054.429a1.79,1.79,0,0,1-.75-.966" transform="translate(4.027 7.358)" fill="#ab0029"/><path d="M28.791,53.637c-.243-.16,0-.509.294-.267a1.62,1.62,0,0,0,.617.376c.187.053.295.4-.186.32a1.156,1.156,0,0,1-.724-.428" transform="translate(4.077 7.572)" fill="#ab0029"/><path d="M33.5,48.687c-.214-.216.161-.4.322-.295,1.767,1.955,1.5,6.641-3.214,6.641-.482-.053-.617-.321.079-.321,2.625.456,5.275-3.186,2.813-6.026" transform="translate(4.293 6.872)" fill="#ab0029"/><path d="M26.675,34.333c-1-.5-1.071-.929.216-.571a12.228,12.228,0,0,1,2,1.214c.427.428,1.142,1.357,1.359,1.5s1.142,1.071-.073.572a7.762,7.762,0,0,1-1.286-1.216,3.878,3.878,0,0,0-2.215-1.5" transform="translate(3.684 4.779)" fill="#ab0029"/><path d="M32.358,38.951c-.308-.465-.283-.929.359-.356a7.84,7.84,0,0,0,2.642,1.57c.714.144,2.143,1.428,0,.5a5.608,5.608,0,0,1-3-1.713" transform="translate(4.571 5.447)" fill="#ab0029"/><path d="M33.956,35.258A.455.455,0,1,0,33.5,34.8a.455.455,0,0,0,.456.456" transform="translate(4.76 4.881)" fill="#ab0029"/><path d="M33.83,30.754a.454.454,0,1,0-.453-.455.456.456,0,0,0,.453.455" transform="translate(4.743 4.241)" fill="#ab0029"/><path d="M35.142,31.38a.455.455,0,1,0-.453-.455.455.455,0,0,0,.453.455" transform="translate(4.929 4.33)" fill="#ab0029"/><path d="M34.469,32.383a.455.455,0,1,0-.453-.455.454.454,0,0,0,.453.455" transform="translate(4.834 4.472)" fill="#ab0029"/><path d="M35.595,33.071a.455.455,0,1,0-.455-.455.454.454,0,0,0,.455.455" transform="translate(4.994 4.57)" fill="#ab0029"/><path d="M15.8,32.338a.328.328,0,1,0-.329-.328.327.327,0,0,0,.329.328" transform="translate(2.199 4.502)" fill="#ab0029"/><path d="M14.8,33.406a.369.369,0,0,0,0-.728.37.37,0,0,0,0,.728" transform="translate(2.06 4.644)" fill="#ab0029"/><path d="M37.465,14.467s-.356-3.643,2.215-3.357c0,0,1.642-.143,2.714,2.428,1.143,1.428,4.429,3.713,2.073,5.214,0,0,.356-.571-1.144-1.429-.428-.214-.786-.143-.143.286s1.071.859.072.643c-.571-.286-1.286-.427-.715,0s.93.572-.214.572c-.643-.787-1.5-.858-.715.143,0,0,0,.571-.929.071A3.44,3.44,0,0,1,39.323,17.4s-.858-.715.5-.644c0,0,1.928-.857,2.143-1.357s.215-.286-.071-.786-.287-.143-.357.215-.215.356-.5,0-.428-.429-.14.5c0,0,.14.642-.5.355,0,0,.286.786-.5.357,0,0,.429.643-.785.072s-1.572-1.214-1.643-1.643" transform="translate(5.322 1.577)" fill="#ab0029"/><path d="M35.35,12.158c-.215.5-.072.785.5.284l.5-.57c.429-.359.286-1-.571-.287Z" transform="translate(5.01 1.601)" fill="#ab0029"/><path d="M32.608,14.644c-.287.427-.287.785.357.427a3.1,3.1,0,0,1,4.07.287l1,.858c.5.642,1.286.857.428-.572l-1.142-.785a3.574,3.574,0,0,0-4.715-.215" transform="translate(4.608 1.97)" fill="#ab0029"/><path d="M37.867,18.4c-.714-.855.429-1.143.643-.356s.929,2.427,2,2.213a1.423,1.423,0,0,1,.786,1.429l.143,1.215c.143.783-.429,1.284-.714,0,.144-.93.072-1.931-1-2.288s-1.071-.642-1.142-1.142a2.414,2.414,0,0,0-.715-1.071" transform="translate(5.348 2.499)" fill="#ab0029"/><path d="M32.149,20.014c-1-.071-.287-.5.212-.715h1.43c.571,0,1.857,1.858,2.784,2.145s1.215,1,.072.642-2.571-2.072-3.215-2.143Z" transform="translate(4.497 2.742)" fill="#ab0029"/><path d="M27.88,20.076c-.572.429-.5.858.284.429a4.722,4.722,0,0,1,2.716-.859c.927.144,1-.785-.143-.785a5.262,5.262,0,0,0-2.858,1.214" transform="translate(3.908 2.68)" fill="#ab0029"/><path d="M33.533,21.447c-.929-.287-.644-.786.284-.643s.785,1.287,1.713,1.572.715.786-.212.428-.786-1.143-1.785-1.357" transform="translate(4.684 2.953)" fill="#ab0029"/><path d="M32.543,21.616c-.929-.072-.786.214-.215.428a5.069,5.069,0,0,1,1.071.5c.359.215.715,0,.359-.5a1.512,1.512,0,0,0-1.215-.428" transform="translate(4.529 3.07)" fill="#ab0029"/><path d="M23.2,18.865c-.572.287-.787,1.43.284.359s1.357-1.929,5.356-1.714c1.359.215,1.715-.786,0-.643s-1.517.4-2.213.072c-1.213-.572-2.927,1.214-3.427,1.927" transform="translate(3.23 2.391)" fill="#ab0029"/><path d="M20.392,17.167c-.571-.286-.786.072,0,.5s1.714,1.212,3.714-.429c0,0,1.213-.787-.357-.428a2.566,2.566,0,0,1-3.357.356" transform="translate(2.825 2.376)" fill="#ab0029"/><path d="M19,18.335c-.858-.714-1.286.072-.427.428a1.5,1.5,0,0,1,1.141.357,2.577,2.577,0,0,0,1.072.642c.571.288,1.429-.212.071-.57-.5-.286-1.143-.858-1.5-.858Z" transform="translate(2.573 2.564)" fill="#ab0029"/><path d="M16.6,21.017c-.787.286-1-.14-.216-.57s1.857-1,2.858-.431c.359.359.5,1.786-.572.643,0,0-.5-.643-2.069.357" transform="translate(2.258 2.81)" fill="#ab0029"/><path d="M16.411,21.471c-.642.143-1.143.643,0,.356a5.4,5.4,0,0,1,2-.286c.215.072,1.142.5.071-.356,0,0-.428-.287-2.071.286" transform="translate(2.235 3)" fill="#ab0029"/><path d="M16.1,23.181c-.786,0-1.072.5,0,.357a1.365,1.365,0,0,1,1.5,1c0,.858.571,1.5.855.643a2.1,2.1,0,0,1-.5-1.285c0-.5-1.286-.858-1.857-.715" transform="translate(2.188 3.29)" fill="#ab0029"/><path d="M34.34,27.449c-.715.573-.786,1.215.286.429a4.672,4.672,0,0,0,1.785-1.857c.287-.642.714-.787.643.356a3.019,3.019,0,0,0-.144,2.215,10.5,10.5,0,0,1-.142,3.643,2.8,2.8,0,0,0,.857,2.356c.572.572,2.571,2.286,1.5,3.857a1.7,1.7,0,0,0-.357,1.215c.144.571,0,1,.357-.144s.357-.927.715-1.284.714-1.573-1.072-3.216a3.942,3.942,0,0,1-1.214-4.713l.072-3.857c.214-1,0-.927-.357-1.5s-1.143.429-1.143.429-1.213,1.928-1.784,2.069" transform="translate(4.805 3.52)" fill="#ab0029"/><path d="M37.9,24.936c-.143-.715.855-.785.57,0a4.436,4.436,0,0,0,.216.786c.142.356.5,1.857-.216,2.285s-.428-.072-.428-.572a5.866,5.866,0,0,0,.144-1.642,3.9,3.9,0,0,1-.286-.857" transform="translate(5.384 3.464)" fill="#ab0029"/><path d="M38.715,24.965c-.142-.715.858-.786.572,0a1.449,1.449,0,0,0,0,.823A2.049,2.049,0,0,1,39.43,28c-.329.547-.571-.038-.571-.538s.286-.749.143-1.391a8,8,0,0,1-.287-1.109" transform="translate(5.5 3.468)" fill="#ab0029"/><path d="M39.556,24.965c-.143-.715.859-.786.571,0a4.41,4.41,0,0,0,.216.785c.142.357.754,1.254.039,1.68s-.356.072-.356-.426a4.022,4.022,0,0,0-.183-1.182,3.891,3.891,0,0,1-.287-.857" transform="translate(5.619 3.468)" fill="#ab0029"/><path d="M16.827,37.845s.5-.642.428.072c0,0-.286.355-.428-.072" transform="translate(2.391 5.34)" fill="#ab0029"/><path d="M17.513,37.724s.072-.644.359-.072c0,0,0,.5-.359.072" transform="translate(2.489 5.317)" fill="#ab0029"/><path d="M18.076,37.526s.143-.431.429-.072c0,0,0,.643-.429.072" transform="translate(2.569 5.302)" fill="#ab0029"/><path d="M18.64,37.47s.214-.5.427-.143c0,0,.071.786-.427.143" transform="translate(2.649 5.286)" fill="#ab0029"/><path d="M19.39,37.332s.214-.429.428.071c0,0-.215.714-.428-.071" transform="translate(2.755 5.281)" fill="#ab0029"/><path d="M20.079,37.4s.071-.5.355,0c0,0,0,.427-.355,0" transform="translate(2.853 5.283)" fill="#ab0029"/><path d="M20.7,37.269s.286-.359.428,0-.286.355-.428,0" transform="translate(2.942 5.273)" fill="#ab0029"/><path d="M21.391,37.336s.357-.5.427.071-.355.356-.427-.071" transform="translate(3.04 5.277)" fill="#ab0029"/><path d="M22.08,37.394s.286-.428.356.072-.214.428-.356-.072" transform="translate(3.138 5.29)" fill="#ab0029"/><path d="M22.642,37.46s.287-.429.429,0-.287.356-.429,0" transform="translate(3.217 5.296)" fill="#ab0029"/><path d="M23.455,37.455s.431-.429.5.143-.214.287-.5-.143" transform="translate(3.333 5.301)" fill="#ab0029"/><path d="M24.339,41.551c-.14-.356-.14-.641.287-.143s.357.931-.287.143" transform="translate(3.447 5.846)" fill="#ab0029"/><path d="M25.094,41.556s-.357-.785.284-.283c0,0,.5,1.285-.284.283" transform="translate(3.552 5.841)" fill="#ab0029"/><path d="M25.782,41.545s-.359-.713.286-.143.356.786-.286.143" transform="translate(3.65 5.852)" fill="#ab0029"/><path d="M26.74,41.9c-.284-.428-.5-1.07.143-.5s.572,1.215-.143.5" transform="translate(3.761 5.852)" fill="#ab0029"/><path d="M25.171,21.853c-.144.286-.573.857.427.57s.359-1.642-.427-.57" transform="translate(3.546 3.048)" fill="#ab0029"/><path d="M18.957,21.544c-.143-.428.143-.643.573-.214a2.015,2.015,0,0,0,.142.786c.144.214.286,1.286-.429.428,0,0-.286-.072-.286-1" transform="translate(2.689 2.998)" fill="#ab0029"/><path d="M32.455,34.256A.453.453,0,1,0,32,33.8a.453.453,0,0,0,.455.453" transform="translate(4.547 4.739)" fill="#ab0029"/><path d="M48.79,22.051l-.57.715,1.213.571a.969.969,0,0,0-.643-1.286" transform="translate(6.852 3.134)" fill="#ab0029"/><path d="M48.22,22.678l.212,1.428s.287.287.644-.287Z" transform="translate(6.852 3.223)" fill="#ab0029"/><path d="M49.148,26.242l-.429.571.857-.143s.144-.186-.427-.428" transform="translate(6.923 3.729)" fill="#ab0029"/><path d="M49.781,26.93h-1l.286,1.286s.857.427.714-1.286" transform="translate(6.932 3.827)" fill="#ab0029"/><path d="M48.22,30.945l.356.857.356-.857s-.214-.216-.713,0" transform="translate(6.852 4.384)" fill="#ab0029"/><path d="M49.747,32.282,48.6,31.995l-.071,1.142s.855.359,1.215-.855" transform="translate(6.897 4.547)" fill="#ab0029"/><path d="M48.137,36.81l-.855.572,1.24.214s.115-.356-.385-.786" transform="translate(6.719 5.231)" fill="#ab0029"/><path d="M48.343,38.1l-1-.785-.5,1.356s.93.715,1.5-.571" transform="translate(6.657 5.302)" fill="#ab0029"/><path d="M45.413,41.187l-1.071.644,1.287-.214s.14-.074-.216-.431" transform="translate(6.301 5.853)" fill="#ab0029"/><path d="M43.217,42.037,44.5,41.75l-1,.715a.593.593,0,0,1-.286-.428" transform="translate(6.141 5.933)" fill="#ab0029"/><path d="M43.716,42.75l.715-1,1.142.286s-.286,1.643-1.857.714" transform="translate(6.212 5.933)" fill="#ab0029"/><path d="M72.692,15.715H79.68c13.045.7,10.834,13.166,4.662,13.744,10.249,1.165,7.565,14.677-2.1,15.26H71.062c-2.915,0-4.66-3.615-4.428-6.174V22a6.071,6.071,0,0,1,6.058-6.29m6.872,6.058H74.089v5.474H79.68a2.741,2.741,0,1,0-.115-5.474m.582,10.714h-5.94V38.9h6.055c4.429,0,4.308-6.412-.115-6.412" transform="translate(9.466 2.233)" fill="#ab0029"/><path d="M90.292,36.408V22.551h6.64v12.81c0,4.772,6.639,5.127,6.521-.233V22.551h6.523V43.629H103.8V41.535c-.818,2.908-11.767,5.94-13.512-5.127" transform="translate(12.831 3.205)" fill="#ab0029"/><rect width="6.873" height="29.237" transform="translate(126.767 17.716)" fill="#ab0029"/><rect width="6.87" height="29.232" transform="translate(137.075 17.659)" fill="#ab0029"/><rect width="7.222" height="6.403" transform="translate(146.801 29.366)" fill="#ab0029"/><path d="M142.273,15.512H148.8c18.517,1.862,17.472,27.723.93,29.237h-7.684c-1.983,0-4.43-.818-4.43-3.848V20.292a4.922,4.922,0,0,1,4.662-4.78m1.863,6.172V38.573h3.728c10.247-1.165,10.016-15.954-.235-16.889Z" transform="translate(19.555 2.204)" fill="#ab0029"/><path d="M161.536,33.335a11.7,11.7,0,0,1,23.388,0,11.7,11.7,0,0,1-23.388,0m11.7,5.6a5.6,5.6,0,1,0-5.6-5.6,5.6,5.6,0,0,0,5.6,5.6" transform="translate(22.955 3.132)" fill="#ab0029"/><path d="M205.328,16.956v4.773H203c2.1,4.077-1.982,9.784-7.223,9.784-4.427-.469-5.125,1.632-.932,1.862,3.521.2,10.6,1.285,10.6,7.108,0,10.362-22.249,9.549-22.249.807,0-2.09,2.1-4.653,3.03-4.653-1.978-.465-1.163-5.125,1.514-6.4-4.193-2.332-6.407-12,5.358-14.212a10.846,10.846,0,0,1,4.542.935ZM193.913,27.718a3.542,3.542,0,1,0-3.542-3.543,3.539,3.539,0,0,0,3.542,3.543m-3.145,15.325a10.638,10.638,0,0,0,6.055,0c2.564-.58,1.517-3.142.122-3.61l-6.06-.817c-1.747,1.165-1.978,3.612-.118,4.427" transform="translate(26.033 2.277)" fill="#ab0029"/></g></svg>