<svg xmlns="http://www.w3.org/2000/svg" xmlns:xlink="http://www.w3.org/1999/xlink" width="85.282" height="103.791" viewBox="0 0 85.282 103.791"><defs><clipPath id="a"><rect width="85.282" height="103.792" transform="translate(0 0)" fill="none"/></clipPath></defs><g clip-path="url(#a)"><path d="M42.641,85.282A42.641,42.641,0,1,1,85.282,42.641,42.689,42.689,0,0,1,42.641,85.282" transform="translate(0 0)" fill="#fff"/><path d="M1.417,42.029A40.61,40.61,0,1,1,42.028,82.638,40.611,40.611,0,0,1,1.417,42.029m40.442,38.86A38.958,38.958,0,1,0,2.9,41.931,38.959,38.959,0,0,0,41.859,80.889" transform="translate(0.613 0.614)" fill="#ab0029"/><path d="M3.891,41A37.124,37.124,0,1,1,41.015,78.128,37.125,37.125,0,0,1,3.891,41M40.86,76.527A35.614,35.614,0,1,0,5.245,40.915,35.612,35.612,0,0,0,40.86,76.527" transform="translate(1.683 1.677)" fill="#ab0029"/><path d="M14.533,28.8c-2.418.268-3.586-.629-3.046-2.778,0,0,.539-4.3.447-4.838s1.076-3.046,1.436-3.851,1.255-1.166,2.149-1.973,4.748-4.57,6.451-2.42a7.827,7.827,0,0,0,1.791,1.076c1.077-1.434,3.584-3.136,7.437-2.417a13.92,13.92,0,0,1,6.541-.539c.536.179,1.344-1.344,5.733.448.358.178,6.808-5.288,11.2-1.345a5.432,5.432,0,0,0,1.254,1.165,7.675,7.675,0,0,1,3.226,3.852,11.156,11.156,0,0,0,3.491,4.748c.986.718,1.526,3.228-1.254,3.5a4.9,4.9,0,0,0-1.255.984c.627,0,.627-.089,1.077.448s.536.986,1.254-.179,1.344-.984,2.15-.178.986,1.074,1.612.357c0,0,.181-.09.987.179l4.478-.536c10.034,27.325-9.316,51.963-35.478,51.515l-.09-1.792c-4.657-3.046-2.328-9.676.808-10.484a24.969,24.969,0,0,1-2.421-3.582.934.934,0,0,0-1.342-.716,6.932,6.932,0,0,1-3.673-.716,5.4,5.4,0,0,0-3.764-.809c-1.523.361-2.329.718-3.941-.626.179,1.523-1.97,3.584-4.48.987a1.013,1.013,0,0,0-.627-.361,2.974,2.974,0,0,1-1.7-1.88s-.45-.9-.808-1.076a7.183,7.183,0,0,1-2.06-4.031s-.181-.358-.447-.807a6.907,6.907,0,0,1,.805-5.285c.358-.448.807-.808.089-1.971a3.436,3.436,0,0,1,.808-3.315A2.152,2.152,0,0,0,14,37.67s1.342-1.523,1.7-2.062c-.716-.357-1.074-1.791-.716-3.044l-1.345-1.255a3.407,3.407,0,0,0,.9-1.523ZM13.01,25.4s-.627,1.7.627,1.881,1.791.179,1.7-1.791l.539-3.855s-.36-.357,1.342-2.059L19.013,17.6c.718-1.073,2.42-.984.9.539s-4.123,5.2-3.5,7.7c.36.9.9,1.523,0,2.15s-.805,2.776-.715,3.046.358.181.627,0a2.664,2.664,0,0,1,2.867.718s.983.986,1.523.9,0-.089.537.179a.774.774,0,0,0,.9-.089l-.986-1.434c-.447-.447-.179-1.256.627-.269a5.3,5.3,0,0,0,.625.9c.45.629,1.526.808.808-.358a3.7,3.7,0,0,1-.715-1.163c-.093-.448.448-1.792.894-.179.718,1.791,1.524,1.97,2.69,1.791a1.945,1.945,0,0,1,1.521-.357s2.062-1.255,2.327-2.6c.183-.9,1.615-.627.987.089,0,0-1.521,2.241-2.865,2.689s.179.986.716.718c3.046.089,4.39-.271,4.211-3.943,1.612-2.06,2.062-1.7,1.433-.807,0,0-.537,1.612.805.448a7.09,7.09,0,0,1,3.5-1.344c.268-.09.983,0,.805.447a2.12,2.12,0,0,1-.984.271,2.647,2.647,0,0,0-2.421.715l-.626.9h-.9a1.269,1.269,0,0,0-.446.894c-.36.627-.718,1.615.537.271,1.521-1.256,3.852-1.973,6.9-.361.361.361.361.9,1.256.09s1.788-.894.984-.09-1.7,1.437-.448,1.7c1.434.626,1.252.9.09.536a1.444,1.444,0,0,0-1.7.539,5.289,5.289,0,0,1-5.2.986c1.166.716,2.239,1.254,3.673.716.808-.179,1.881.089,1.074.537s-2.418.719-5.016-.807c.718,1.526,3.494,2.42,4.749,1.794.805-.36,1.163.266.536.447a6.672,6.672,0,0,1-6.362-2.059c-2.776-2.778-1.342.984-.358,1.252a9.5,9.5,0,0,0,4.481,2.239,3.566,3.566,0,0,1,3.4,3.5s.986,1.613-.179,1.613c.716.176.9.626,1.436.537s2.417,1.433,1.968,3.225c0,0,1.523,1.344.627,2.688s-1.163.986-.539,1.881a7.866,7.866,0,0,1-2.328-1.7,5.105,5.105,0,0,0-2.509-1.345c-3.046-1.523-.448-1.074.269-.626s1.613.984,2.239,1.433c.719.626,1.523.984,2.062-.269a2.235,2.235,0,0,0-.629-2.329c.09-.36.179-2.51-2.865-2.867a4.232,4.232,0,0,1-1.433-.269c-.629-.269-1.255-.9-.986.448.894,1.074,2.686,3.673-.09.9A5.357,5.357,0,0,0,37.65,42.42a10.2,10.2,0,0,1-2.689-2.331c-.268-.45-1.345-.45-1.345-.45a3.713,3.713,0,0,1-.984-.447c-.358-.269-1.076-.09-1.523.179a1.968,1.968,0,0,1-2.329-.089,7.768,7.768,0,0,0-6.809,1.612c-.357.358-.986,1.076-1.524.09,0,0-.625-.9-2.418-.09,0,0-7.169,6.093-4.03,9.407a4.305,4.305,0,0,0,1.073,2.957c1.163,1.166,2.15,1.074,1.613-3.225-.179-1.881-.089-3.136,2.15-4.12s2.15-1.436,2.15-1.884.179-1.163.716.09c0,0,.09,1.076,1.971.807,1.881.358,6.718.808,8.6,3.943s.9,2.688-.627,1.524-9.05-2.958-12.633-.9c-1.074.268-2.418,1.612-.089,2.06,1.612.537,3.764,1.613,4.033,3.583,0,0,.715,1.433,1.61,1.433S26,56.4,24.478,55.228L23.4,53.8a2.912,2.912,0,0,0-.537-1.162c-.357-.36-.357-1.166.448-.271s1.254,2.42,1.971,2.776a3.856,3.856,0,0,0,2.689.807c1.341-.176,1.521.179,2.507.987.539.536,2.239.446,2.957.179.626,0,2.6,0,.537-2.957-.629-.986-.807-3.494.447-.9,0,0,1.345,1.881,1.615,2.239s.805,2.96,3.762,2.689c3.315.179,7.973.09,9.228-3.854,0,0,1.163-1.791,1.881-1.97a3.561,3.561,0,0,0,2.062-4.3,8.25,8.25,0,0,1,.178-3.493s.807-1.881.627,0-.447,2.778-.09,3.493.718,1.616,1.615-.536c.626-.986,1.254-2.509.626-5.464s0-6.094.358-3.137c0,0,.627,1.074.9-1.342a33.278,33.278,0,0,0-.9-9.41c-.358-1.342,0-2.775.537-.087,0,0,.448,2.15.807,3.584s1.613,6.09-.447,9.137a4.6,4.6,0,0,1,1.254,2.06s1.074,1.163.537-.269a5.725,5.725,0,0,1-.986-1.791c-.269-.716-.089-1.971.627-.089.986,1.612,1.615,1.254.807-.09a4.378,4.378,0,0,0-.718-1.076c-.536-.627-.626-1.7.45-.358,0,0,.357.358.715.805s1.076.719.179-.626l-1.163-1.342s-1.076-1.882.537-.36l.715.718s1.794,1.252.537-.539a7.452,7.452,0,0,0-.983-1.074,1.869,1.869,0,0,1-.807-.984c-.269-.719-.269-.629.626.087a2.444,2.444,0,0,0,.807.627c.539.269,1.342-.269.181-1.165a9.545,9.545,0,0,1-1.7-1.613c-.715-.716-.894-1.163.361-.266s2.506,1.7,1.52.089a12.968,12.968,0,0,0-1.612-2.241c-1.344-1.074-1.254-2.06.271-.36s1.97.808.715-.9c-2.686-2.059-3.941-3.223.182-1.073,0,0,.715,0-.629-1.254s-2.15-1.524-.268-.986c0,0,1.612.716-.36-.629-1.074-.176-1.431-1.254-1.612-1.61s-.269-.537.447-.807a2.7,2.7,0,0,0,.984-.627c.269-.358,0-.269.629-.269s.537-.358.537-.358a1.522,1.522,0,0,0,.715-.181,1.292,1.292,0,0,0-.176-2.15,7.678,7.678,0,0,1-2.868-3.67A4.329,4.329,0,0,0,54.76,12.5c-1.344-1.434-3.672-4.66-10.394.805a2.633,2.633,0,0,1-2.6-.36c-1.074-.984-3.405-.178-3.583-.178,0,0-5.017-.268-6.54.9a1.545,1.545,0,0,1-1.165-.358c-.448-.447-4.659.268-5.284,1.7,0,0-2.064,3.136-2.423,1.255,0,0-.716-1.255-1.521-1.345,0,0-.718-1.521-2.868.09a11.307,11.307,0,0,1-2.328,2.15,6.019,6.019,0,0,0-2.6,4.569A30.15,30.15,0,0,1,13.01,25.4m1.523,17.65L17.4,40.357c-.716-.986.448-2.776,1.165-3.315,0,0,.269-1.612,3.226-2.062,0,0,1.074-.087,1.523-.178s2.868-.269,3.673.718a6.441,6.441,0,0,0,.9.626c.36.178,2.954,2.956,2.15,2.956,0,0,.357.269.9-.268s1.255-.181,1.882-.089,2.778.357.269-.539a2.7,2.7,0,0,0-1.7-.358A4.584,4.584,0,0,1,29.852,36.6c-.715-.9.272-.718.537-.448s-.089.9,1.524,1.163,2.688.092,3.854,2.15,2.507,3.047,3.762,2.96c2.152.8,3.317.357,2.6-.987a2.289,2.289,0,0,1-.537-1.166c0-.536,0-.984-1.882-1.433,0,0-1.344-.718-2.057-.447a3.905,3.905,0,0,1-.808-.718,4.458,4.458,0,0,0-1.615-.9,13.742,13.742,0,0,1-2.864-2.42c-.627-.716-3.944-1.254-5.645-1.344,0,0-2.6-.627-7.348,1.523a2.975,2.975,0,0,0-1.613,1.7,6.327,6.327,0,0,1-1.612,2.06c-.447.269-2.42,4.57-1.613,4.751M15.967,33.1s-.089,1.433.807.268a1.538,1.538,0,0,1,.357-.537c.269-.268,0-1.612-.8-.807l-.36,1.076m2.689-.181s-.092,1.434.537.269c0,0-.537-.9-.537-.269m17.29-1.074s.716,1.792,1.255-.089c.357-.629.537-1.971-.719-1.165a1.271,1.271,0,0,0-.536,1.254M40.6,30.5a4,4,0,0,1-.447,2.418s.718.181,1.7-1.523c0,0-.45-.358-1.255-.9M29.676,48.51c.986.447.176-.805.176-.805-1.341-.987-.537.355-.537.355Zm-1.882-.092c.986.361.269-1.254.269-1.254-1.166-1.163-.9.269-.9.269a1.607,1.607,0,0,0,.627.984M26,47.972s1.254-.266.092-1.433-1.079.539-1.079.539c.358.894.987.894.987.894m-2.6-.089c.45.448,1.345-.089.629-1.433s-1.344-.271-1.074.447a2.422,2.422,0,0,0,.446.986m-2.149.089c1.342.9.716-1.344.716-1.344-.9-1.523-1.165.181-1.165.181a2.022,2.022,0,0,0,.448,1.163m-1.166.447c.808-.266-.178-1.521-.178-1.521-1.076-1.076-1.165.537-1.165.537,0,1.076.537,1.255,1.342.984m-2.06.719c.9.178.491-.095.089-.9-.446-.9-.627.447-.627.447.182.626.539.448.539.448M20.9,38.207a14.781,14.781,0,0,0-.36,1.613c.9,1.344.448-.537.718-1.971s.716-.268.716-.268c.268-.718,1.971-1.076,1.971-1.076,2.241-.447-.181-.447-.181-.447s-1.345-.268-1.791.178a1.709,1.709,0,0,1-1.344.269c-1.524.627-.181.537-.181.537.36-.09.718.179.45,1.165m41.747.539A22.382,22.382,0,0,1,59.866,50.84a8.323,8.323,0,0,0,2.15.9c2.778,1.342,3.943-4.031,3.943-4.031,1.97-6.453.805-15.859-.179-20.608-3.4-2.329-3.941-.357-3.941-.357.987,3.494.8,12.005.8,12.005m-.986.447a25.816,25.816,0,0,1-1.43,7.973c-1.076,4.212-5.2,7.795-5.2,7.795-3.672,4.212-8.241,5.914-11.017,7.167-1.973,1.256.805.361.805.361a26.5,26.5,0,0,0,10.75-7.08c4.3-3.941,5.195-7.7,5.195-7.7A22.275,22.275,0,0,0,62.2,40.089a74.756,74.756,0,0,0-.986-14.154c-.09-1.345-.984-1.168-.716.176.805,2.06,1.252,7.616,1.162,13.081M67.393,35.7c.986,6.362-1.344,13.259-1.344,13.259-3.5,8.064-6.183,9.408-6.183,9.408-2.776,3.584-7.882,6-9.944,6.9-2.062,1.254-.269,1.162.268.626a27.635,27.635,0,0,0,10.213-6.9,19.736,19.736,0,0,0,6.272-9.766c2.149-4.39,1.434-13.437,1.434-13.437.269-1.436-.358-5.467-1.254-9.855-.181-1.256-.629-1.077-.629,0A57.842,57.842,0,0,1,67.393,35.7m1.7-4.749c1.433,1.7.986,2.152.986,2.152,0,2.15,2.509,3.941,2.509,3.941.718-2.688-1.973-10.391-1.973-10.391a7.124,7.124,0,0,0-1.881-.09c-1.791.627-1.076,2.688.36,4.388m.537,4.749a5.968,5.968,0,0,1,.984,1.792,16.663,16.663,0,0,0,1.436,4.3c1.074,2.42.446.09.446.09a1.048,1.048,0,0,0-.176-1.523l-1.077-1.523c-.179-.805.181-.718.808,0,1.521,1.433.269-.718.269-.718a5.994,5.994,0,0,1-2.42-3.136c-.537-.9.448-1.431-.537-2.238-1.165-1.345-.54.268-.54.268.182.9.808,2.688.808,2.688m-20.7,28.134c.536.626.716.176.716.176,1.255-.176,4.838-3.135,4.838-3.135,1.076-.537.181-1.255,0-1.523a.633.633,0,0,0-.986,0,49.042,49.042,0,0,1-4.748,3.226c-.537.266-.358.625-.358.625Zm-4.211,1.881h.718l-.271-1.526h-.807ZM34.156,69.3a5.107,5.107,0,0,0,10.21-.268,5.082,5.082,0,0,0-3.312-4.657l-.36,1.7a2.7,2.7,0,0,1,1.7,2.868c0,2.239-.9,3.223-3.225,3.223a3.042,3.042,0,0,1-3.047-3.046,3.333,3.333,0,0,1,1.8-2.865l-.361-1.792c-1.521,0-3.4,2.239-3.4,4.837m4.927-3.044c1.252,1.163,1.252-1.971,1.252-1.971-1.342-1.7-1.971.179-1.971.179a3.08,3.08,0,0,0,.719,1.792m-19.531-27.6-.269.718L20,39.283a.534.534,0,0,1-.447-.629m5.016-.358c1.344-.266,1.255-.626.539-1.074ZM39.98,71.355l-.09-1.165c-1.255-.357-1.165-1.341-.9-2.06l-.718-.986a2.279,2.279,0,0,0,1.7,4.211M58.591,57.56a1.4,1.4,0,1,0-1.4-1.4,1.4,1.4,0,0,0,1.4,1.4M57.28,42.531c.841.57.3-.168.3-.168l-.168-.471c-.2-1.042-.3.067-.3.067.268.974.168.572.168.572m1.107,2.251c.2.2.573.235.3-.168a2.586,2.586,0,0,1-.537-.84c-.268-.606-.437-.235-.268.168a4.435,4.435,0,0,0,.5.84m-.572,1.447c.236.6.739.335.506-.037a2.607,2.607,0,0,1-.437-.872c-.235-.638-.5-.169-.3.168a3.076,3.076,0,0,0,.234.742m-.871,2.149c.133.8.436.033.436.033a7.767,7.767,0,0,0,.034-1.648c-.1-.5-.47-.3-.47,0a5.522,5.522,0,0,0,0,1.615M16.526,54.894a4.741,4.741,0,0,0,.908,1.411,1.661,1.661,0,0,1,.57.169Zm1.749,1.781a1.293,1.293,0,0,1,.4.569c.1.337.84.169.84.169v-.3s-.2-.4-1.241-.437m-.2-1.746a2.3,2.3,0,0,1,.3.738l.606.537.669.2c0-.335-.572-1.042-1.577-1.476m.067-1.85.6,1.378.905.706c-.2-.539-.236-.739-.7-.941Zm2.017,2.89a.551.551,0,0,1-.305.772l.135.741a1.681,1.681,0,0,0,.5-2.152c.067.337,0,.47-.334.639m50.483-11.2s.248.829.65,2.039.649.291.534-.112a5.487,5.487,0,0,0-.85-1.9,2.868,2.868,0,0,0-.312-1.456c-.384-.695-.539-.135-.292.2M64.615,25.487l-.9-.9c.178.986.537,1.345.9.9M62.892,52.542c-.2.335-.034.554.1.352a.986.986,0,0,0,.436-.62c.152-.489-.284-.085-.284-.085Zm-1.9,1.8c-.236.35.15.266.15.266a15.318,15.318,0,0,0,1.477-1.933c.219-.486-.083-.453-.284-.15a8.282,8.282,0,0,1-1.344,1.817m-.537-.138c-.255.421.183.254.183.254a12.737,12.737,0,0,0,1.4-1.867c.334-.67-.119-.384-.254-.135A10.332,10.332,0,0,1,60.456,54.2m-.514-.235c-.251.42.185.254.185.254a12.8,12.8,0,0,0,1.4-1.864c.335-.673-.119-.387-.252-.136a10.511,10.511,0,0,1-1.328,1.746m-.487-.252c-.252.421.185.252.185.252a21.45,21.45,0,0,0,1.539-2.251c.133-.275-.119-.387-.254-.135a14.362,14.362,0,0,1-1.47,2.133m-.494-.327c-.251.42.183.252.183.252a18.23,18.23,0,0,0,1.563-2.107c.133-.261-.119-.387-.251-.135a13.528,13.528,0,0,1-1.5,1.99m-.514-.15c-.251.42.185.252.185.252A19.688,19.688,0,0,0,60.22,51.35c.175-.337-.119-.388-.251-.135a14.007,14.007,0,0,1-1.523,2.024m3.839,1.05c-.673.807.314.312.314.312a11.131,11.131,0,0,0,1.7-2.776c.672-1.613-.4,0-.4,0a9.265,9.265,0,0,1-1.612,2.464" transform="translate(4.914 3.778)" fill="#ab0029"/><path d="M31.085,47.454a1.4,1.4,0,0,1-.337,1.68s.069.672.672.036a1.49,1.49,0,0,0,.235-1.513c0-.067-.368-.67-.57-.2" transform="translate(13.303 20.454)" fill="#ab0029"/><path d="M50.667,32.025c-.044-.493.4-.582.4-.044A2.374,2.374,0,0,1,48.7,34.489c-.941,0-.807-.314.09-.314s1.7-.268,1.881-2.15" transform="translate(20.788 13.678)" fill="#ab0029"/><path d="M49.936,26.364s-.315-.539.312-.179.987,3.269-.807,3.537c0,0-.94.09-.314-.223a1.862,1.862,0,0,0,.808-3.135" transform="translate(21.161 11.275)" fill="#ab0029"/><path d="M49.592,22.069s-.494-.447.132-.179,1.345,3.629-1.029,3.673c0,0-.135-.136.223-.181,1.153-.143,1.569-1.834.673-3.314" transform="translate(21.057 9.433)" fill="#ab0029"/><path d="M47.07,23.485a1.648,1.648,0,1,1,1.648,1.648,1.645,1.645,0,0,1-1.648-1.648m1.648,1.377a1.4,1.4,0,1,0-1.4-1.4,1.4,1.4,0,0,0,1.4,1.4" transform="translate(20.364 9.449)" fill="#ab0029"/><path d="M47.526,27.691a1.648,1.648,0,1,1,1.649,1.646,1.649,1.649,0,0,1-1.649-1.646m1.649,1.375a1.4,1.4,0,1,0-1.4-1.4,1.4,1.4,0,0,0,1.4,1.4" transform="translate(20.561 11.267)" fill="#ab0029"/><path d="M47.386,32.494a1.647,1.647,0,1,1,1.648,1.645,1.647,1.647,0,0,1-1.648-1.645m1.648,1.374a1.4,1.4,0,1,0-1.4-1.4,1.4,1.4,0,0,0,1.4,1.4" transform="translate(20.501 13.345)" fill="#ab0029"/><path d="M46.086,38.008a1.646,1.646,0,1,1,1.645,1.648,1.645,1.645,0,0,1-1.645-1.648m1.645,1.377a1.4,1.4,0,1,0-1.4-1.4,1.4,1.4,0,0,0,1.4,1.4" transform="translate(19.938 15.732)" fill="#ab0029"/><path d="M32.835,49.423c.136.235.606.169.3-.3s-1.009-.673-1.178-.874l-.135.57a6.317,6.317,0,0,1,1.009.6" transform="translate(13.769 20.874)" fill="#ab0029"/><path d="M32.94,49.612s.1.271.2.537.574.405.438-.166a1.976,1.976,0,0,0-.266-.64c-.172-.2-.706-.235-.368.269" transform="translate(14.204 21.288)" fill="#ab0029"/><path d="M30.45,48.364a4.055,4.055,0,0,0-2.352,3.8s.368,1.278.4-.034a3.629,3.629,0,0,1,2.082-3.391Z" transform="translate(12.156 20.924)" fill="#ab0029"/><path d="M28.364,52.125c-.132-.165.2-.6.4-.132a1.406,1.406,0,0,0,.6.807c.335.235.3.706-.067.539a2.243,2.243,0,0,1-.941-1.213" transform="translate(12.258 22.402)" fill="#ab0029"/><path d="M28.817,53.726c-.305-.2,0-.639.368-.335a2.032,2.032,0,0,0,.774.471c.235.066.37.5-.234.4a1.45,1.45,0,0,1-.908-.537" transform="translate(12.413 23.054)" fill="#ab0029"/><path d="M34.342,48.769c-.268-.271.2-.5.4-.37,2.216,2.453,1.878,8.331-4.031,8.331-.6-.066-.774-.4.1-.4,3.292.572,6.617-4,3.529-7.559" transform="translate(13.07 20.923)" fill="#ab0029"/><path d="M26.866,34.512c-1.254-.626-1.344-1.165.271-.716a15.338,15.338,0,0,1,2.507,1.523c.536.537,1.433,1.7,1.7,1.881s1.433,1.344-.092.718a9.736,9.736,0,0,1-1.613-1.526,4.864,4.864,0,0,0-2.778-1.88" transform="translate(11.216 14.55)" fill="#ab0029"/><path d="M32.407,39.109c-.387-.583-.355-1.165.45-.447a9.834,9.834,0,0,0,3.314,1.97c.9.181,2.688,1.791,0,.626a7.035,7.035,0,0,1-3.764-2.149" transform="translate(13.916 16.583)" fill="#ab0029"/><path d="M34.071,35.49a.571.571,0,1,0-.572-.572.57.57,0,0,0,.572.572" transform="translate(14.493 14.86)" fill="#ab0029"/><path d="M33.946,30.985a.569.569,0,1,0-.569-.57.572.572,0,0,0,.569.57" transform="translate(14.44 12.913)" fill="#ab0029"/><path d="M35.258,31.611a.569.569,0,1,0-.569-.57.57.57,0,0,0,.569.57" transform="translate(15.008 13.183)" fill="#ab0029"/><path d="M34.585,32.615a.571.571,0,1,0-.569-.57.57.57,0,0,0,.569.57" transform="translate(14.717 13.616)" fill="#ab0029"/><path d="M35.71,33.3a.57.57,0,1,0-.57-.57.57.57,0,0,0,.57.57" transform="translate(15.203 13.914)" fill="#ab0029"/><path d="M15.887,32.5a.411.411,0,1,0-.411-.411.411.411,0,0,0,.411.411" transform="translate(6.695 13.707)" fill="#ab0029"/><path d="M14.875,33.591a.463.463,0,0,0,0-.913.464.464,0,0,0,0,.913" transform="translate(6.272 14.138)" fill="#ab0029"/><path d="M37.469,15.325s-.447-4.57,2.778-4.211c0,0,2.06-.179,3.4,3.046,1.433,1.791,5.554,4.657,2.6,6.54,0,0,.447-.716-1.435-1.792-.537-.268-.984-.179-.179.358s1.344,1.077.09.807c-.716-.358-1.612-.536-.9,0s1.165.718-.269.718c-.805-.987-1.88-1.076-.9.179,0,0,0,.716-1.165.089A4.315,4.315,0,0,1,39.8,19s-1.076-.9.626-.808c0,0,2.418-1.074,2.688-1.7s.268-.358-.09-.986-.358-.179-.447.269-.269.447-.629,0-.537-.539-.178.629c0,0,.178.805-.627.446,0,0,.358.986-.627.448,0,0,.539.807-.984.09s-1.971-1.523-2.062-2.062" transform="translate(16.201 4.8)" fill="#ab0029"/><path d="M35.373,12.386c-.269.626-.09.984.626.357l.626-.715c.539-.45.358-1.255-.716-.36Z" transform="translate(15.252 4.873)" fill="#ab0029"/><path d="M32.655,14.842c-.36.536-.36.984.448.536s2.51-1.7,5.106.36l1.255,1.076c.627.805,1.613,1.074.537-.718l-1.433-.984a4.483,4.483,0,0,0-5.914-.269" transform="translate(14.028 5.998)" fill="#ab0029"/><path d="M37.926,18.609c-.9-1.073.539-1.434.807-.447s1.165,3.044,2.509,2.776a1.785,1.785,0,0,1,.986,1.792l.179,1.524c.179.983-.539,1.61-.9,0,.181-1.166.09-2.423-1.255-2.87s-1.344-.805-1.433-1.433a3.028,3.028,0,0,0-.9-1.344" transform="translate(16.282 7.607)" fill="#ab0029"/><path d="M32.277,20.2c-1.255-.089-.36-.627.266-.9h1.794c.716,0,2.329,2.331,3.493,2.69s1.524,1.252.09.805-3.225-2.6-4.033-2.688Z" transform="translate(13.691 8.35)" fill="#ab0029"/><path d="M27.975,20.385c-.718.539-.627,1.076.357.539a5.923,5.923,0,0,1,3.407-1.077c1.163.181,1.255-.984-.179-.984a6.6,6.6,0,0,0-3.584,1.523" transform="translate(11.899 8.16)" fill="#ab0029"/><path d="M33.677,21.617c-1.165-.36-.808-.986.357-.807s.984,1.615,2.149,1.971.9.986-.266.537-.986-1.434-2.239-1.7" transform="translate(14.26 8.99)" fill="#ab0029"/><path d="M32.714,21.618c-1.165-.09-.986.268-.269.537a6.351,6.351,0,0,1,1.344.629c.45.269.9,0,.45-.629a1.9,1.9,0,0,0-1.524-.537" transform="translate(13.79 9.347)" fill="#ab0029"/><path d="M23.323,19.383c-.718.36-.987,1.794.357.45s1.7-2.42,6.719-2.15c1.7.269,2.152-.986,0-.807s-1.9.5-2.776.09c-1.521-.718-3.672,1.523-4.3,2.417" transform="translate(9.833 7.28)" fill="#ab0029"/><path d="M20.522,17.281c-.716-.358-.986.09,0,.629s2.15,1.52,4.659-.539c0,0,1.521-.987-.448-.537a3.219,3.219,0,0,1-4.211.447" transform="translate(8.601 7.232)" fill="#ab0029"/><path d="M19.229,18.409c-1.076-.9-1.613.09-.536.537a1.886,1.886,0,0,1,1.431.448,3.232,3.232,0,0,0,1.345.805c.716.361,1.792-.266.089-.715-.626-.358-1.434-1.076-1.882-1.076Z" transform="translate(7.833 7.807)" fill="#ab0029"/><path d="M16.781,21.333c-.986.358-1.256-.176-.269-.715s2.329-1.256,3.584-.539c.45.448.627,2.239-.718.805,0,0-.626-.805-2.6.448" transform="translate(6.876 8.556)" fill="#ab0029"/><path d="M16.584,21.561c-.805.179-1.434.808,0,.447a6.766,6.766,0,0,1,2.507-.358c.269.09,1.433.63.09-.447,0,0-.537-.36-2.6.358" transform="translate(6.805 9.134)" fill="#ab0029"/><path d="M16.279,23.189c-.986,0-1.345.626,0,.448a1.712,1.712,0,0,1,1.882,1.254c0,1.076.716,1.882,1.073.807a2.639,2.639,0,0,1-.626-1.612c0-.629-1.613-1.076-2.329-.9" transform="translate(6.662 10.015)" fill="#ab0029"/><path d="M34.475,28.129c-.9.719-.986,1.524.358.539a5.86,5.86,0,0,0,2.239-2.329c.36-.805.9-.987.807.447a3.786,3.786,0,0,0-.181,2.778,13.168,13.168,0,0,1-.178,4.57,3.511,3.511,0,0,0,1.074,2.956c.718.718,3.225,2.868,1.881,4.838a2.131,2.131,0,0,0-.448,1.524c.181.716,0,1.254.448-.181s.448-1.163.9-1.61.9-1.973-1.345-4.034-2.149-3.762-1.523-5.912l.09-4.838c.268-1.252,0-1.163-.448-1.881s-1.434.539-1.434.539-1.521,2.418-2.238,2.6" transform="translate(14.628 10.718)" fill="#ab0029"/><path d="M37.906,25.079c-.179-.9,1.073-.984.715,0a5.565,5.565,0,0,0,.271.986c.178.447.627,2.329-.271,2.867s-.537-.09-.537-.718a7.358,7.358,0,0,0,.181-2.06,4.894,4.894,0,0,1-.358-1.074" transform="translate(16.392 10.545)" fill="#ab0029"/><path d="M38.718,25.108c-.178-.9,1.076-.986.718,0a1.818,1.818,0,0,0,0,1.033,2.57,2.57,0,0,1,.179,2.778c-.413.686-.716-.047-.716-.675s.358-.94.179-1.745a10.033,10.033,0,0,1-.36-1.391" transform="translate(16.743 10.557)" fill="#ab0029"/><path d="M39.558,25.108c-.179-.9,1.077-.986.716,0a5.532,5.532,0,0,0,.271.984c.178.448.946,1.573.049,2.107s-.447.09-.447-.534a5.045,5.045,0,0,0-.229-1.483,4.88,4.88,0,0,1-.36-1.074" transform="translate(17.107 10.557)" fill="#ab0029"/><path d="M16.827,37.912s.627-.805.537.09c0,0-.358.446-.537-.09" transform="translate(7.28 16.258)" fill="#ab0029"/><path d="M17.513,37.8s.09-.808.45-.09c0,0,0,.627-.45.09" transform="translate(7.577 16.187)" fill="#ab0029"/><path d="M18.076,37.58s.179-.54.539-.09c0,0,0,.807-.539.09" transform="translate(7.82 16.142)" fill="#ab0029"/><path d="M18.64,37.539s.268-.627.536-.179c0,0,.089.986-.536.179" transform="translate(8.064 16.093)" fill="#ab0029"/><path d="M19.39,37.376s.268-.539.537.089c0,0-.269.9-.537-.089" transform="translate(8.389 16.077)" fill="#ab0029"/><path d="M20.079,37.457s.089-.627.446,0c0,0,0,.536-.446,0" transform="translate(8.687 16.085)" fill="#ab0029"/><path d="M20.7,37.31s.358-.45.537,0-.358.446-.537,0" transform="translate(8.957 16.055)" fill="#ab0029"/><path d="M21.391,37.388s.448-.627.536.089-.446.447-.536-.089" transform="translate(9.254 16.065)" fill="#ab0029"/><path d="M22.079,37.438s.358-.537.447.09-.268.537-.447-.09" transform="translate(9.552 16.104)" fill="#ab0029"/><path d="M22.642,37.508s.36-.539.539,0-.36.447-.539,0" transform="translate(9.796 16.124)" fill="#ab0029"/><path d="M23.454,37.495s.54-.539.627.179-.268.36-.627-.179" transform="translate(10.147 16.138)" fill="#ab0029"/><path d="M24.361,41.656c-.176-.447-.176-.8.36-.179s.448,1.168-.36.179" transform="translate(10.494 17.799)" fill="#ab0029"/><path d="M25.12,41.671s-.448-.984.357-.355c0,0,.629,1.612-.357.355" transform="translate(10.814 17.784)" fill="#ab0029"/><path d="M25.808,41.638s-.45-.894.358-.179.447.986-.358.179" transform="translate(11.111 17.817)" fill="#ab0029"/><path d="M26.811,42.088c-.357-.537-.627-1.342.179-.627s.718,1.524-.179.627" transform="translate(11.449 17.815)" fill="#ab0029"/><path d="M25.226,21.956c-.181.358-.719,1.074.536.715s.45-2.06-.536-.715" transform="translate(10.797 9.279)" fill="#ab0029"/><path d="M18.966,21.658c-.179-.537.179-.807.719-.268a2.528,2.528,0,0,0,.178.986c.181.268.358,1.613-.539.537,0,0-.358-.09-.358-1.255" transform="translate(8.185 9.127)" fill="#ab0029"/><path d="M32.569,34.487a.569.569,0,1,0-.57-.569.568.568,0,0,0,.57.569" transform="translate(13.844 14.428)" fill="#ab0029"/><path d="M48.934,22.051l-.715.9,1.521.716a1.215,1.215,0,0,0-.807-1.613" transform="translate(20.861 9.54)" fill="#ab0029"/><path d="M48.22,22.678l.266,1.791s.36.36.808-.36Z" transform="translate(20.862 9.811)" fill="#ab0029"/><path d="M49.258,26.242l-.539.716,1.074-.179s.181-.234-.536-.537" transform="translate(21.078 11.353)" fill="#ab0029"/><path d="M50.036,26.93H48.782l.358,1.613s1.074.536.9-1.613" transform="translate(21.105 11.651)" fill="#ab0029"/><path d="M48.22,30.968l.447,1.074.447-1.074s-.268-.271-.894,0" transform="translate(20.862 13.346)" fill="#ab0029"/><path d="M50.055,32.355,48.621,32l-.089,1.433s1.073.45,1.523-1.073" transform="translate(20.997 13.842)" fill="#ab0029"/><path d="M48.355,36.81l-1.073.718,1.556.268s.145-.447-.483-.986" transform="translate(20.456 15.925)" fill="#ab0029"/><path d="M48.724,38.3l-1.252-.984-.629,1.7s1.166.9,1.881-.716" transform="translate(20.266 16.143)" fill="#ab0029"/><path d="M45.686,41.187,44.342,42l1.615-.268s.176-.093-.271-.54" transform="translate(19.184 17.819)" fill="#ab0029"/><path d="M43.216,42.11l1.612-.36-1.254.9a.744.744,0,0,1-.358-.537" transform="translate(18.697 18.063)" fill="#ab0029"/><path d="M43.716,43l.9-1.254,1.433.358s-.358,2.062-2.329.9" transform="translate(18.913 18.063)" fill="#ab0029"/><path d="M8.434,62.171H11.61c5.933.318,4.927,5.987,2.119,6.249,4.663.53,3.44,6.675-.953,6.938H7.693c-1.327,0-2.119-1.643-2.014-2.807V65.031a2.761,2.761,0,0,1,2.755-2.86m3.125,2.754H9.068v2.49H11.61a1.247,1.247,0,1,0-.052-2.49m.265,4.872h-2.7v2.915h2.751a1.459,1.459,0,1,0-.05-2.915" transform="translate(2.453 26.897)" fill="#ab0029"/><path d="M14.252,70.95v-6.3h3.019v5.824a1.5,1.5,0,1,0,2.967-.1V64.649H23.2v9.584H20.4v-.953c-.372,1.322-5.351,2.7-6.145-2.331" transform="translate(6.166 27.97)" fill="#ab0029"/><rect width="3.125" height="13.295" transform="translate(31.17 88.962)" fill="#ab0029"/><rect width="3.123" height="13.292" transform="translate(35.857 88.936)" fill="#ab0029"/><rect width="3.284" height="2.911" transform="translate(40.28 94.26)" fill="#ab0029"/><path d="M33.525,62.1h2.966c8.42.847,7.945,12.606.423,13.295H33.419c-.9,0-2.014-.372-2.014-1.749V64.27a2.239,2.239,0,0,1,2.12-2.173m.847,2.807v7.68h1.695a3.858,3.858,0,0,0-.106-7.68Z" transform="translate(13.587 26.865)" fill="#ab0029"/><path d="M40.079,69.6a5.32,5.32,0,1,1,5.318,5.14,5.23,5.23,0,0,1-5.318-5.14M45.4,72.148A2.547,2.547,0,1,0,42.851,69.6,2.548,2.548,0,0,0,45.4,72.148" transform="translate(17.34 27.889)" fill="#ab0029"/><path d="M57.994,62.706v2.17H56.935c.954,1.854-.9,4.448-3.284,4.448-2.013-.213-2.329.744-.424.848,1.6.089,4.819.583,4.819,3.231,0,4.712-10.116,4.342-10.116.368,0-.951.954-2.116,1.377-2.116-.9-.211-.529-2.331.689-2.913-1.907-1.06-2.913-5.455,2.437-6.463a4.945,4.945,0,0,1,2.064.425ZM52.8,67.6a1.61,1.61,0,1,0-1.61-1.61A1.61,1.61,0,0,0,52.8,67.6m-1.43,6.968a4.827,4.827,0,0,0,2.754,0c1.166-.264.689-1.428.056-1.642l-2.756-.371c-.794.53-.9,1.642-.053,2.013" transform="translate(20.737 26.945)" fill="#ab0029"/></g></svg>