<svg xmlns="http://www.w3.org/2000/svg" width="324.66" height="27.87" viewBox="0 0 324.66 27.87"><path d="M25.17-8.85,21.99-5.97a12.033,12.033,0,0,0-6.78-1.98,7.683,7.683,0,0,0-3.24.6A2.159,2.159,0,0,0,10.5-5.37q0,2.55,6.27,2.55a54.976,54.976,0,0,0,6.99-.51L23.1,1.32a61.423,61.423,0,0,1-6.15.33Q5.46,1.65,5.46-5.04A5.9,5.9,0,0,1,7.8-9.855a9.791,9.791,0,0,1,6.3-1.875,14.688,14.688,0,0,1,3.69.45,39.8,39.8,0,0,1-2.37-3.3,18.745,18.745,0,0,1-3.36.3,18.234,18.234,0,0,1-7.38-1.59l.69-4.65a13.493,13.493,0,0,0,6.66,1.83h.81q-.99-1.68-2.73-4.56l4.77-1.41q1.32,2.7,2.55,4.86a12.445,12.445,0,0,0,4.86-3.99l2.67,4.17a18.709,18.709,0,0,1-5.16,3.63A83.253,83.253,0,0,0,25.17-8.85Zm33-.33q0,7.2-8.25,10.83L46.59-2.01q6.63-2.7,6.63-7.08a2.9,2.9,0,0,0-.87-2.13,3.509,3.509,0,0,0-2.55-.93q-2.97,0-6.36,2.79,0,2.82.03,6.18l.06,5.04H38.88Q38.94.3,39-5.43A48.236,48.236,0,0,0,34.89.09l-3-3.69q4.89-5.97,7.2-9.27v-2.19a36.961,36.961,0,0,0-4.68,2.25l-1.71-4.2q3.24-1.53,6.33-2.64-.06-2.97-.18-5.13l4.89.15q-.09,1.68-.12,3.51.48-.15,1.38-.39l.54,4.08-1.98.69-.06,2.4a13.06,13.06,0,0,1,6.99-2.31,7.438,7.438,0,0,1,5.7,2.31A7.305,7.305,0,0,1,58.17-9.18Zm29.97-5.76a6.43,6.43,0,0,1-2.67,5.31,13.319,13.319,0,0,1-5.64,2.37l-3.06-3.87a13.547,13.547,0,0,0,3.87-.96q2.46-1.02,2.46-2.61,0-1.44-1.83-1.44-2.46,0-8.49,3.42Q77.46-5.01,80.46.27l-4.62,2.4a143.186,143.186,0,0,0-7.11-13.02Q66-8.7,64.38-7.56l-2.94-3.87q1.53-.87,4.83-2.79-1.14-1.74-2.19-3.12l4.47-2.25q.72,1.14,1.89,3.06,1.29-.72,4.05-2.1a23.436,23.436,0,0,0-6.54-2.91l2.4-3.63a25.354,25.354,0,0,1,6.78,2.79L75.09-18.9a17.1,17.1,0,0,1,6.75-1.8,6.578,6.578,0,0,1,4.47,1.59A5.258,5.258,0,0,1,88.14-14.94Zm31.71,5.37-4.26,2.16a25.2,25.2,0,0,0-5.31-9.54l3.93-2.22A26.822,26.822,0,0,1,119.85-9.57Zm-9.84-2.58a38.436,38.436,0,0,1-.5,5.475A28.587,28.587,0,0,1,108.48-1.83,5.971,5.971,0,0,1,106.965.75a3.713,3.713,0,0,1-2.385.75A10.375,10.375,0,0,1,100.2.39l.06-4.71a6.381,6.381,0,0,0,2.67.93,1.4,1.4,0,0,0,1.35-1.11,23.517,23.517,0,0,0,.81-3.63,23.376,23.376,0,0,0,.33-3.39,2.984,2.984,0,0,0-.375-1.83q-.375-.42-1.815-.42-.06,0-.54.03A104.4,104.4,0,0,1,96.21,1.5L91.74-.39a67.8,67.8,0,0,0,6.15-12.63,37.9,37.9,0,0,0-4.83,1.32l-1.2-4.32q3.81-.93,7.47-1.56.99-3.63,1.53-6.81l4.77.72q-.48,1.74-1.56,5.55h.15q3.06-.03,4.38,1.23Q110.01-15.54,110.01-12.15Zm38.31-3-2.73,3.75a19.929,19.929,0,0,0-5.46-4.68l2.58-3.45A16.209,16.209,0,0,1,148.32-15.15Zm-8.97-2.25q-2.97.36-6.21,1.05a102.561,102.561,0,0,1-6.96,12.96l-4.17-2.13a67.286,67.286,0,0,0,5.79-9.45q-2.4.75-4.08,1.44l-1.44-4.2q4.02-1.29,7.74-2.19a54.111,54.111,0,0,0,1.74-5.28l4.65.93q-.57,1.47-1.29,3.27,2.1-.39,3.6-.66Zm8.73,14.7L145.5,1.5a23.362,23.362,0,0,0-3.66-3.06q-1.08,3.93-6.03,3.93a8.082,8.082,0,0,1-4.86-1.35A4.6,4.6,0,0,1,129-2.88a4.735,4.735,0,0,1,1.89-3.99,7.465,7.465,0,0,1,4.65-1.35,14.346,14.346,0,0,1,1.77.12,21.57,21.57,0,0,1,.03-3.09,4.726,4.726,0,0,1,1.26-3.18l3.54,2.04a7.967,7.967,0,0,0-.42,2.88q0,.78.21,2.64A20.589,20.589,0,0,1,148.08-2.7ZM137.55-3.99a5.436,5.436,0,0,0-1.92-.45q-2.28,0-2.28,1.47,0,1.29,2.1,1.29a2.041,2.041,0,0,0,1.68-.6A3.1,3.1,0,0,0,137.55-3.99Zm39.33-7.38a74.461,74.461,0,0,1-8.34,6.33A92.993,92.993,0,0,1,158.97.48L156-2.22q.06-1.8.06-12.39,0-5.16-.09-7.11h4.89q-.06,2.76-.12,11.28v4.56a60.332,60.332,0,0,0,14.31-10.41Zm31.05,1.17a118.569,118.569,0,0,0-12.21.72q-.06,2.85-.06,3.84a1.625,1.625,0,0,0,.57,1.44,2.885,2.885,0,0,0,1.53.3,56.575,56.575,0,0,0,8.07-.57l.3,4.62q-4.95.39-8.76.39A12.339,12.339,0,0,1,192.99,0a3.5,3.5,0,0,1-1.98-3.54q0-1.11.03-5.37-5.07.72-8.58,1.56l-.84-4.53q4.23-.72,9.45-1.35l.03-4.05q-2.46.42-5.22,1.02l-.66-4.44q4.95-.9,8.46-1.41,3.99-.6,8.73-1.14l.42,4.5q-3.57.3-6.93.75-.03,1.29-.09,4.23,6.12-.63,11.91-.9Zm15.51-7.11-3.45,3.54a33.628,33.628,0,0,0-6.09-5.4l3.24-3.48A27.188,27.188,0,0,1,223.44-17.31Zm14.07,3.84a98.257,98.257,0,0,1-8.925,7.86,107.36,107.36,0,0,1-9.765,6.84L215.55-2.7A79.185,79.185,0,0,0,225.9-9.57a78,78,0,0,0,9.12-8.34Zm30.33,1.74a11.97,11.97,0,0,1-3.39,8.7,17.252,17.252,0,0,1-8.55,4.5l-2.82-4.38a15.172,15.172,0,0,0,6.66-2.76,7.507,7.507,0,0,0,3.06-6.18,5.881,5.881,0,0,0-1.965-4.68,7.334,7.334,0,0,0-4.995-1.71,9.021,9.021,0,0,0-.99.06l3.54,2.46a65.623,65.623,0,0,1-2.76,6.33,28.5,28.5,0,0,1-3.42,5.67,5.479,5.479,0,0,1-4.29,2.1,4.934,4.934,0,0,1-3.72-1.95,8.594,8.594,0,0,1-1.95-5.79,12.181,12.181,0,0,1,4.32-9.69,14.386,14.386,0,0,1,9.75-3.48,11.937,11.937,0,0,1,8.22,2.79A10.183,10.183,0,0,1,267.84-11.73Zm-13.62-6.36A9.137,9.137,0,0,0,249-15.24a8.022,8.022,0,0,0-2.19,5.58,3.759,3.759,0,0,0,.48,1.95q.42.69.9.69.99,0,2.49-2.91A62.194,62.194,0,0,0,254.22-18.09Zm41.37.21-.72.12v1.8q0,.66.48.66h.24a.419.419,0,0,0,.48-.36q.06-.69.09-1.35l-.06.03Q295.95-17.28,295.59-17.88Zm-3.9,12.69a12.184,12.184,0,0,0,1.86-2.07h-3.36l-.24.27A9.236,9.236,0,0,0,291.69-5.19Zm-7.59-.48v4.2a19.836,19.836,0,0,0,4.41-1.59,17.742,17.742,0,0,1-1.23-1.47q-.72.57-1.56,1.11Zm0-6.57v5.1a17.958,17.958,0,0,0,5.37-5.79l2.07.45a3.731,3.731,0,0,1-.27-1.65v-3.06q-.66.12-1.95.3l1.71.96a12.818,12.818,0,0,1-2.2,3.2,11.2,11.2,0,0,1-2.955,2.355Zm-9.18-6.18v-1.71h-3.51V-24.3h13.23v3.93q.42-.03,1.23-.06a28.5,28.5,0,0,0,1.77-4.53l4.26.45q-.81,2.1-1.65,3.81,1.08-.09,3.24-.39-.69-.96-1.44-1.89l3.39-1.44a43.433,43.433,0,0,1,3.99,5.55l-2.91,1.65,2.82.9a15.765,15.765,0,0,1-.48,3.54q-.45,1.02-2.07,1.02h-3.54q-.27.54-.51.93h4.98v3.48a21.455,21.455,0,0,1-2.76,4.08,27.959,27.959,0,0,0,4.53,1.5L297.45,2.4a24.112,24.112,0,0,1-5.76-2.73,20.057,20.057,0,0,1-5.58,2.7L284.1-1.35V.87h-8.46V2.25h-3.72V-18.42Zm3.66,0v-1.71h-.78v1.71Zm5.34-1.71h-2.49v1.71h2.67v4.71a8.886,8.886,0,0,0,3.06-2.88q-1.53.18-2.4.27Zm-2.46,8.37v-2.97h-.72v2.43q0,.54.42.54Zm0,4.35V-8.43h-1.38q-.96,0-1.23-.36a3.185,3.185,0,0,1-.27-1.65v-4.29h-.78v.03a32.163,32.163,0,0,1-.66,6.87l-2.28-.84a21.031,21.031,0,0,0,.78-6.06h-.78v7.32Zm0,4.44V-4.14h-6.6v1.17Zm29.94-.18h-5.07V-.9h-4.35V-23.7h9.66V-4.26a33.407,33.407,0,0,0,5.64-6.96h-5.19v-4.02h5.94v-2.52h-5.37v-4.05h5.37V-24.9h4.38v3.09h5.52v4.05h-5.52v2.52h6.3v4.02h-5.58a34.73,34.73,0,0,0,6.21,7.5L326.97.27a35.95,35.95,0,0,1-4.56-5.82V2.13h-4.38V-5.64A35.643,35.643,0,0,1,313.41.27Zm-3.69-4.26V-19.47h-1.5V-7.41Z" transform="translate(-4.68 25.2)" fill="#fff"/></svg>