<svg xmlns="http://www.w3.org/2000/svg" xmlns:xlink="http://www.w3.org/1999/xlink" width="42.536" height="319.021" viewBox="0 0 42.536 319.021"><defs><clipPath id="a"><rect width="42.536" height="319.022" fill="#af9391"/></clipPath></defs><g transform="translate(0)"><g transform="translate(0 0)" clip-path="url(#a)"><path d="M42.134,5.365Q33,14.066,28.5,17.595l-3.095-2.562Q21.831,31.081,12.454,40.506L5.4,36.639a38.02,38.02,0,0,0,8.8-11.891,41.153,41.153,0,0,0,3.48-11.987l5.994.822-.531-.435a55.813,55.813,0,0,0,6.38-5.462q-4.642.435-13.632,1.208Q11.2,9.281,2.3,10.2L1.628,2.417Q13.229,2.175,37.059,0Z" transform="translate(0.16)" fill="#af9391"/><path d="M40,59.258A88.767,88.767,0,0,1,31.35,76.9,74.147,74.147,0,0,1,18.639,92.176l-7.01-4.157A62.824,62.824,0,0,0,23.23,75.6a51.33,51.33,0,0,0,6.429-12.084q-.868.1-8.749.822l-10,.967q.336,3.432.822,8.459l-7.3,1.063q-1.208-11.5-2.272-17.015l7.832-1.16.193,2.03Q11,58.583,16.9,58q-.051-3.432-.146-9.426H24.39q-.193,5.365-.242,8.652,4.11-.435,10.827-1.208Z" transform="translate(0.212 4.788)" fill="#af9391"/><path d="M36.275,120.857,31.2,127.045A79.184,79.184,0,0,0,18.487,118.3l.048.048q0-1.691.145,23.492H10.56q.386-15.806.387-26.972,0-9.571-.145-15.468h8.217q-.193,6.043-.483,17.353l3.964-4.785a86.512,86.512,0,0,1,13.776,8.894" transform="translate(1.041 9.797)" fill="#af9391"/><path d="M35.483,171.479l-5.075,6.187a81.787,81.787,0,0,0-12.665-8.749v.048q0-1.692.146,23.492H9.768q.386-15.806.387-26.972,0-9.571-.146-15.468h8.218q-.193,6.043-.484,17.353l3.965-4.785a86.511,86.511,0,0,1,13.776,8.894m-2.225-12.664L29.586,160.8a27.489,27.489,0,0,0-4.013-6.139l3.335-1.837a29.256,29.256,0,0,1,4.35,5.994m5.511-3.142-3.625,2.078a28.108,28.108,0,0,0-4.351-5.994l3.384-1.982a26.139,26.139,0,0,1,4.593,5.9" transform="translate(0.963 14.762)" fill="#af9391"/><path d="M42.134,207.766Q33,216.465,28.5,220l-3.095-2.562q-3.577,16.048-12.954,25.472L5.4,239.04a38.02,38.02,0,0,0,8.8-11.891,41.141,41.141,0,0,0,3.48-11.989l5.994.822-.531-.434a55.711,55.711,0,0,0,6.38-5.463q-4.642.437-13.632,1.21-4.688.387-13.582,1.3l-.677-7.782q11.6-.241,35.431-2.416Z" transform="translate(0.16 19.949)" fill="#af9391"/><path d="M40.071,260.69q-7.928.147-12.954,3.819-5.464,4.013-5.462,10.055a9.228,9.228,0,0,0,3.48,7.588q3.238,2.61,10.779,4.447L31.9,294.09q-8.121-1.934-12.858-6.187a15.914,15.914,0,0,1-5.462-12.326,16.353,16.353,0,0,1,1.788-7.4,17.838,17.838,0,0,1,4.785-5.994,123.163,123.163,0,0,0-17.788,4.06L0,258.563q8.941-1.933,20.108-3.529,9.473-1.353,19-2.078Zm-2.9,10.537-3.529,1.933a27.571,27.571,0,0,0-3.964-5.994l3.239-1.788a29.566,29.566,0,0,1,4.254,5.849m5.365-3.094-3.529,2.03a27.582,27.582,0,0,0-4.254-5.849l3.287-1.933a25.648,25.648,0,0,1,4.5,5.752" transform="translate(0 24.931)" fill="#af9391"/></g></g></svg>