<svg xmlns="http://www.w3.org/2000/svg" width="367.813" height="30.906" viewBox="0 0 367.813 30.906">
  <g id="sec04_3_cardttl01" transform="translate(-122.38 -12752.916)">
    <path id="パス_746" data-name="パス 746" d="M32.538-6.8,28.424-2.72a29.943,29.943,0,0,0-6.188-6.868l3.74-4.08A43.016,43.016,0,0,1,32.538-6.8ZM30.26-16.592q-4.93-.136-10.4.17V-2.244q0,2.414-1.326,3.264a8.043,8.043,0,0,1-3.944.68q-.442,0-1.428-.034Q12.07,1.632,11.9,1.632L10.2-3.536q1.564.136,2.414.136,1.5,0,1.768-.748a23.837,23.837,0,0,0,.17-4.046q0-5.168-.034-7.854-5.338.51-10.3,1.36L3.57-19.856q6.222-.68,10.846-1.054-.068-3.808-.17-6.46h5.746q-.068,1.632-.1,6.018,5.134-.374,10.064-.51ZM11.594-10.234A35.175,35.175,0,0,1,6.494-1.8L2.38-5.134a29.642,29.642,0,0,0,5.1-8.024Zm42.024-3.3L49.3-12.07a29.4,29.4,0,0,0-2.788-6.868l4.284-1.7A27.177,27.177,0,0,1,53.618-13.532Zm8.942-4.726A55.451,55.451,0,0,1,58-7.31,45.781,45.781,0,0,1,50.83,2.448L46,.306a41.426,41.426,0,0,0,7.616-9.588,40.116,40.116,0,0,0,4.08-10.4ZM46.988-11.22,42.7-9.418a25.086,25.086,0,0,0-3.23-6.664l4.012-1.9A26.861,26.861,0,0,1,46.988-11.22Zm49.5-1.462L92.922-8.33a55.631,55.631,0,0,0-8.942-6.154l.034.034q0-1.19.1,16.524H78.4q.272-11.118.272-18.972,0-6.732-.1-10.88h5.78q-.136,4.25-.34,12.206L86.8-18.938A60.788,60.788,0,0,1,96.492-12.682Zm37.23.51q-5.134-.136-11.186.238a20.063,20.063,0,0,1-2.176,7.956,21.24,21.24,0,0,1-6.154,6.664l-4.862-3.2a20.77,20.77,0,0,0,5.508-4.726,12.432,12.432,0,0,0,2.414-6.29A109.159,109.159,0,0,0,104.958-9.69l-.374-5.134q5.712-.816,12.716-1.53-.034-1.53-.1-3.672-3.774.952-7.174,1.5l-2.312-4.522a77.471,77.471,0,0,0,9.52-2.006,54.918,54.918,0,0,0,8.3-2.958l2.55,4.624q-3.162,1.156-5.474,1.87.068,2.72.068,4.692,5.984-.442,10.948-.442ZM167.076-10q-4.9.408-10.846,1.394.782,5.168,1.6,10.1l-5.474.816q-.306-3.434-1.224-10Q145.554-6.6,140.352-5.236l-1.02-5q3.774-.782,11.118-2.108-.17-1.258-.51-3.706-5.576.986-8.636,1.394l-1.054-4.9q3.842-.306,8.976-1.19-.68-4.284-1.156-6.63l5.61-.714q.238,3.128.68,6.392a77.832,77.832,0,0,0,7.82-1.972l1.088,4.828q-3.332.884-8.262,1.87l.2,1.224.34,2.482q6.46-1.122,10.506-1.7Zm18.156-9.622-3.91,4.012a38.111,38.111,0,0,0-6.9-6.12l3.672-3.944A30.813,30.813,0,0,1,185.232-19.618Zm15.946,4.352a111.361,111.361,0,0,1-10.115,8.908A121.675,121.675,0,0,1,180,1.394L176.29-3.06a89.743,89.743,0,0,0,11.73-7.786A88.406,88.406,0,0,0,198.356-20.3Zm32.708-4.012a126.2,126.2,0,0,1-3.162,15.759q-1.462,4.777-4.862,4.777A14.213,14.213,0,0,1,219.98-.17V-5.61a8.821,8.821,0,0,0,3.876,1.394q1.428,0,2.108-2.312a65.851,65.851,0,0,0,1.938-9.418q-2.176.2-6.7.646-3.6,10.948-9.282,17.306l-5-2.618a37.848,37.848,0,0,0,8.636-13.634l.136-.442q-3.74.442-7.242.986l-.782-5.1q3.638-.238,9.588-.85a62.372,62.372,0,0,0,1.462-7.786l5.508.68q-.816,3.774-1.564,6.528,4.386-.476,7.99-1.054Zm23.868,1.36-4.828,1.666a36.192,36.192,0,0,0-3.3-8.092l4.862-1.9A32.493,32.493,0,0,1,257.754-17.918Zm11.084-5.508A68.671,68.671,0,0,1,263.262-10.2a54.727,54.727,0,0,1-8.67,11.9L249.118-.748a49.3,49.3,0,0,0,9.418-12.07,49.7,49.7,0,0,0,4.76-12.24Zm-19.244,8.4-4.828,2.006a28.978,28.978,0,0,0-3.808-7.82l4.488-2.074A31.2,31.2,0,0,1,249.594-15.028Zm55.046-.714q-3.162-.034-7.174.136v.034q0,10.608-8.874,18.394L283.8-.136A23.539,23.539,0,0,0,290.156-6.8a17.952,17.952,0,0,0,2.142-8.5q-3.944.272-6.664.544.1,3.6.34,7.276l-5,.68q-.306-4.59-.442-7.378-4.352.51-6.562.884l-.51-5.1q3.5-.442,6.868-.782-.068-2.55-.1-6.936H285.6q-.1,3.5-.068,6.426l3.366-.306q1.122-.068,3.4-.238-.034-5.508-.136-7.684l5.406.306-.1,7.038q4.182-.238,6.868-.306Zm16.592-3.876-3.91,4.012a38.112,38.112,0,0,0-6.9-6.12l3.672-3.944A30.813,30.813,0,0,1,321.232-19.618Zm15.946,4.352a111.355,111.355,0,0,1-10.115,8.908A121.672,121.672,0,0,1,316,1.394L312.29-3.06a89.743,89.743,0,0,0,11.73-7.786A88.4,88.4,0,0,0,334.356-20.3ZM370.192-23.8l-2.55,1.462a19.749,19.749,0,0,0-3.06-4.216l2.38-1.394A18.386,18.386,0,0,1,370.192-23.8Zm-3.876,2.21L363.732-20.2a19.337,19.337,0,0,0-2.822-4.318l2.346-1.292A20.587,20.587,0,0,1,366.316-21.59Zm1.564,8.908L364.31-8.33a57.492,57.492,0,0,0-8.908-6.154v.034q0-1.19.1,16.524h-5.712q.272-11.118.272-18.972,0-6.732-.1-10.88h5.78q-.136,4.25-.34,12.206l2.788-3.366A60.787,60.787,0,0,1,367.88-12.682Z" transform="translate(120 12781)" fill="#323232"/>
  </g>
</svg>
