<svg xmlns="http://www.w3.org/2000/svg" width="504.18" height="27.66" viewBox="0 0 504.18 27.66"><path d="M-228.63-21.27a60.2,60.2,0,0,1-4.5,11.43,47.733,47.733,0,0,1-8.19,11.46l-4.5-2.58a39.373,39.373,0,0,0,8.25-10.83,47.055,47.055,0,0,0,4.08-11.31Zm-13.95,7.35-4.5,2.22a37.6,37.6,0,0,0-2.19-4.335,24.8,24.8,0,0,0-2.52-3.7l4.38-2.31A30.384,30.384,0,0,1-242.58-13.92Zm44.76,3.93q-1.74-.09-4.14-.09a176.031,176.031,0,0,0-19.89,1.02l-.3-4.95q4.35-.39,10.14-.66,8.49-.39,14.16-.3Zm30.21,5.34-3.27,3.81a49.216,49.216,0,0,0-8.25-7.47A57.064,57.064,0,0,1-188.88.12l-3.57-3.3a50.84,50.84,0,0,0,9.03-7.08,32.781,32.781,0,0,0,5.43-6.87q-3.69.36-11.07,1.14l-.3-4.59q2.1-.09,7.95-.57,4.95-.39,7.65-.75l3.03,2.37a72.006,72.006,0,0,1-5.4,7.74A69.1,69.1,0,0,1-167.61-4.65Zm30.99-9.24-2.19,1.26a17.106,17.106,0,0,0-2.64-3.63l2.04-1.2A15.907,15.907,0,0,1-136.62-13.89Zm-3.33,1.92-2.19,1.2a17.093,17.093,0,0,0-2.46-3.72l2.01-1.11A18.308,18.308,0,0,1-139.95-11.97Zm1.8-6.54a13.732,13.732,0,0,0-8.04,2.37,7.482,7.482,0,0,0-3.39,6.24,5.729,5.729,0,0,0,2.16,4.71,17.657,17.657,0,0,0,6.69,2.76l-2.49,4.65a17.946,17.946,0,0,1-7.98-3.84,9.878,9.878,0,0,1-3.39-7.65,10.145,10.145,0,0,1,1.11-4.59,11.071,11.071,0,0,1,2.97-3.72,76.424,76.424,0,0,0-11.04,2.52l-1.47-4.77q5.55-1.2,12.48-2.19,5.88-.84,11.79-1.29Zm18.54,5.43a26.436,26.436,0,0,1-2.22,3.3l-2.13-1.98a27.916,27.916,0,0,0,2.04-3.12Zm-5.73,15.15h-4.17V-6.51q-1.41,1.44-3.18,2.94l-1.83-4.29a33.926,33.926,0,0,0,7.83-8.76h-6.69V-20.7h3.78v-4.05h4.23v4.05h3.72v-2.76h14.61V-9.51a44.527,44.527,0,0,1-.45,7.77q-.45,2.31-1.8,2.91a10.453,10.453,0,0,1-3.84.45h-1.8l-1.11-4.59h1.92a3.379,3.379,0,0,0,1.905-.375,2.91,2.91,0,0,0,.675-1.9q.12-1.2.12-4.98v-8.82h-2.7a68.342,68.342,0,0,1-.69,11.4,25.115,25.115,0,0,1-4.11,9.75l-4.32-2.43a18.031,18.031,0,0,0,4.29-9.21,58.834,58.834,0,0,0,.54-9.51h-3.21v1.71a50.515,50.515,0,0,1-3.42,5.55,35.857,35.857,0,0,0,4.38,3.99l-1.71,3.81q-1.62-1.41-2.97-2.82Zm48.3-12.18A10.713,10.713,0,0,1-80.4-1.92,15.537,15.537,0,0,1-89.07,1.8l-2.16-4.14a13.416,13.416,0,0,0,6.72-2.49,6.6,6.6,0,0,0,2.61-5.43q0-3.21-3.45-4.59A49.735,49.735,0,0,1-88.5-8.4q.63.39,1.41.78l-2.67,3.21a11.18,11.18,0,0,1-1.11-.57Q-94.23-.96-97.98-.96a4.375,4.375,0,0,1-3.36-1.47,6.071,6.071,0,0,1-1.47-4.29,11.263,11.263,0,0,1,4.05-8.55,47.443,47.443,0,0,1-2.13-6.3l4.23-1.74a33.878,33.878,0,0,0,1.5,5.61,15.937,15.937,0,0,1,6.78-1.74q.66-2.31,1.23-4.95l4.62,1.59q-.63,1.95-1.32,3.96a9.968,9.968,0,0,1,4.89,3.15A8.519,8.519,0,0,1-77.04-10.11Zm-12.69-5.31a10.237,10.237,0,0,0-3.99,1.26,14.834,14.834,0,0,0,2.01,3A32.437,32.437,0,0,0-89.73-15.42Zm-4.41,7.74a21.84,21.84,0,0,1-2.73-3.87A6.51,6.51,0,0,0-98.58-7.5q0,1.86,1.2,1.86Q-95.94-5.64-94.14-7.68Zm46.29-10.83a13.732,13.732,0,0,0-8.04,2.37A7.482,7.482,0,0,0-59.28-9.9a5.729,5.729,0,0,0,2.16,4.71,17.657,17.657,0,0,0,6.69,2.76l-2.49,4.65A17.946,17.946,0,0,1-60.9-1.62a9.878,9.878,0,0,1-3.39-7.65,10.145,10.145,0,0,1,1.11-4.59,11.071,11.071,0,0,1,2.97-3.72,76.423,76.423,0,0,0-11.04,2.52l-1.47-4.77q5.55-1.2,12.48-2.19,5.88-.84,11.79-1.29ZM-30.66-8.4a10.168,10.168,0,0,0,2.07,2.43,7.668,7.668,0,0,0,.51-2.43ZM-36.48,2.16h-4.41V-10.05q-.75,1.11-1.74,2.43l-2.19-4.23a40.165,40.165,0,0,0,5.79-13.32l4.26.72q-.12.51-.45,1.74h6.96v-1.95h4.5v1.95h7.41v4.17h-7.41v1.29h6.51V-8.4h-6.48a13.057,13.057,0,0,1-1.05,4.5,43.12,43.12,0,0,0,8.85,1.74L-17.7,2.1A33.738,33.738,0,0,1-27.33-.51a14.947,14.947,0,0,1-6.03,2.76l-2.61-3.87a17.38,17.38,0,0,0,4.68-1.5,15.706,15.706,0,0,1-3.09-3.75l2.37-1.53h-2.64v-8.85h6.39v-1.29h-7.08v-3.69q-.51,1.8-1.14,3.54Zm15.12-14.01v-1.98h-2.55v1.98Zm-6.75,0v-1.98h-2.46v1.98Zm25.95-7.83H-7.02v2.67h4.86Zm9.78,2.67v-2.67H2.25v2.67ZM2.25-10.47H7.62v-2.82H2.25Zm-9.27,0h4.86v-2.82H-7.02ZM7.62-6.48H2.25V1.14H-2.16V-6.48H-7.2A23.639,23.639,0,0,1-9.51,2.49L-14.28.63a19.739,19.739,0,0,0,2.34-6.75,42.539,42.539,0,0,0,.42-6.66V-23.91h23.7V-2.79q0,3.03-1.05,3.93-.93.81-3.9.81H4.77L3.3-2.37H6.24q1.08,0,1.26-.45a2.41,2.41,0,0,0,.12-.9ZM40.17-8.85,36.99-5.97a12.033,12.033,0,0,0-6.78-1.98,7.683,7.683,0,0,0-3.24.6A2.159,2.159,0,0,0,25.5-5.37q0,2.55,6.27,2.55a54.975,54.975,0,0,0,6.99-.51L38.1,1.32a61.423,61.423,0,0,1-6.15.33q-11.49,0-11.49-6.69A5.9,5.9,0,0,1,22.8-9.855a9.791,9.791,0,0,1,6.3-1.875,14.688,14.688,0,0,1,3.69.45,39.8,39.8,0,0,1-2.37-3.3,18.745,18.745,0,0,1-3.36.3,18.234,18.234,0,0,1-7.38-1.59l.69-4.65a13.493,13.493,0,0,0,6.66,1.83h.81q-.99-1.68-2.73-4.56l4.77-1.41q1.32,2.7,2.55,4.86a12.445,12.445,0,0,0,4.86-3.99l2.67,4.17a18.709,18.709,0,0,1-5.16,3.63A83.253,83.253,0,0,0,40.17-8.85ZM74.64-3Q70.86.03,67.71.03q-4.35,0-4.35-5.91,0-1.74.165-4.335t.165-2.925q0-1.38-.81-1.38-1.38,0-4.44,3.09-.03,3.18.03,13.23H53.76L54-6.21Q52.02-2.97,49.95.6L46.41-2.64q4.89-6.78,7.62-11.25L54-14.73q-4.05.87-6.36,1.53l.27-4.8q2.73-.51,6-1.08-.06-2.79-.06-5.73l4.92.21q-.12,2.16-.24,7.86,3.75-3.15,6.48-3.15a3.286,3.286,0,0,1,2.64,1.125,4.489,4.489,0,0,1,.96,3.015q0,1.11-.225,4.215T68.16-7.71a6.91,6.91,0,0,0,.15,1.77.779.779,0,0,0,.78.69q1.59,0,4.53-2.85Zm26.97-2.97A7.228,7.228,0,0,1,98.58.21a12.058,12.058,0,0,1-7.29,2.04,9.616,9.616,0,0,1-4.77-1.08,3.892,3.892,0,0,1-2.16-3.51,3.908,3.908,0,0,1,1.515-3.18A5.919,5.919,0,0,1,89.73-6.75a5.889,5.889,0,0,1,3.6,1.065A4.75,4.75,0,0,1,95.16-2.67a3.791,3.791,0,0,0,1.62-3.15,3.117,3.117,0,0,0-1.05-2.4,5.207,5.207,0,0,0-3.6-1.11,10.644,10.644,0,0,0-4.98,1.2,19.63,19.63,0,0,0-5.94,5.46L77.73-5.88q6.21-6.57,12.66-14.04-2.76.42-7.74,1.26l-.75-4.59q2.52-.12,6.525-.615t6.135-.945l2.94,3.39q-4.8,5.16-8.25,9a11.226,11.226,0,0,1,4.35-.9,8.225,8.225,0,0,1,5.88,2.01A7,7,0,0,1,101.61-5.97ZM91.68-1.41a2.632,2.632,0,0,0-.75-1.68,2.1,2.1,0,0,0-1.5-.6q-1.2,0-1.2.96,0,1.35,2.76,1.35Q91.35-1.38,91.68-1.41Zm42.33-10.71h-2.28V2.1h-4.35V-12.12h-1.89a50.4,50.4,0,0,1-1.92,14.13L119.13.12a27.981,27.981,0,0,0,1.77-6.21,50.708,50.708,0,0,0,.42-7.44v-9.12a37.358,37.358,0,0,0,9.69-2.01l2.73,3.78a33.56,33.56,0,0,1-8.25,1.95v2.58h8.52Zm-19.14-7.02h-2.49q.36,1.17.66,2.4h1.2A20.784,20.784,0,0,0,114.87-19.14ZM111.48-3.18A27.189,27.189,0,0,1,108.12.24l-2.4-3.51a27.275,27.275,0,0,0,4.95-4.68h-3.96v-3.72h4.65v-1.38h-4.95v-3.69h2.55q-.27-1.11-.72-2.4h-1.26v-3.6h4.5v-2.04h4.41v2.04h4.23v3.6h-1.26a21.406,21.406,0,0,1-.69,2.4h2.22v3.69h-4.5v1.38h4.2v3.72h-4.11a35,35,0,0,0,4.23,3.09l-2.28,3.27q-.96-.75-2.13-1.83V2.19h-4.32Zm50.91-1.47L159.12-.84a49.216,49.216,0,0,0-8.25-7.47A57.064,57.064,0,0,1,141.12.12l-3.57-3.3a50.84,50.84,0,0,0,9.03-7.08,32.781,32.781,0,0,0,5.43-6.87q-3.69.36-11.07,1.14l-.3-4.59q2.1-.09,7.95-.57,4.95-.39,7.65-.75l3.03,2.37a72.006,72.006,0,0,1-5.4,7.74A69.1,69.1,0,0,1,162.39-4.65Zm30.69-16.53a3.174,3.174,0,0,1-.945,2.31,3.1,3.1,0,0,1-2.295.96,3.115,3.115,0,0,1-2.28-.96,3.149,3.149,0,0,1-.96-2.31,3.066,3.066,0,0,1,.96-2.265,3.139,3.139,0,0,1,2.28-.945,3.125,3.125,0,0,1,2.295.945A3.09,3.09,0,0,1,193.08-21.18Zm1.05,14.25-4.32,3.21a51.022,51.022,0,0,0-8.97-12.24l4.17-2.94A59.761,59.761,0,0,1,194.13-6.93Zm-15.21-8.88a51.132,51.132,0,0,1-9.09,13.53l-4.17-3a41.037,41.037,0,0,0,8.67-12.9Zm12.54-5.37a1.532,1.532,0,0,0-.465-1.125,1.568,1.568,0,0,0-1.155-.465,1.532,1.532,0,0,0-1.125.465,1.532,1.532,0,0,0-.465,1.125,1.619,1.619,0,0,0,.465,1.17,1.509,1.509,0,0,0,1.125.48,1.543,1.543,0,0,0,1.155-.48A1.619,1.619,0,0,0,191.46-21.18Zm27.27-1.38q-2.25,2.94-4.68,5.7,0,12.36.09,18.81h-5.01q.12-3.72.27-13.86a87.2,87.2,0,0,1-6.87,6.21l-4.11-2.7a83.759,83.759,0,0,0,9.39-8.43,63.384,63.384,0,0,0,6.63-8.1ZM252.39-4.65,249.12-.84a49.216,49.216,0,0,0-8.25-7.47A57.064,57.064,0,0,1,231.12.12l-3.57-3.3a50.84,50.84,0,0,0,9.03-7.08,32.781,32.781,0,0,0,5.43-6.87q-3.69.36-11.07,1.14l-.3-4.59q2.1-.09,7.95-.57,4.95-.39,7.65-.75l3.03,2.37a72.006,72.006,0,0,1-5.4,7.74A69.1,69.1,0,0,1,252.39-4.65Z" transform="translate(251.79 25.17)" fill="#fff"/></svg>