<svg xmlns="http://www.w3.org/2000/svg" width="157.84" height="36.2" viewBox="0 0 157.84 36.2"><path d="M-42.6,2.24h-6.08V-.72h-4.44V2.24h-5.92V-30.72H-42.6Zm-6.08-8.92V-24.76h-4.44V-6.68ZM-71.56-8.64a49.049,49.049,0,0,1-4.68,5.8l-2.64-5.68a44.482,44.482,0,0,0,7.24-9.32h-6.28v-5.32h6.36V-26q-2.08.2-5.12.4l-2.16-5.04a72.975,72.975,0,0,0,16.12-2.24l2.8,4.6a44.757,44.757,0,0,1-6,1.52v3.6h5.6v5.32h-5.6a49.7,49.7,0,0,0,6.32,7.4l-2.92,4.68q-1.88-2-3.4-3.88V2.8h-5.64Zm68.68-7A15.959,15.959,0,0,1-7.4-4.04a23,23,0,0,1-11.4,6l-3.76-5.84a20.23,20.23,0,0,0,8.88-3.68A10.009,10.009,0,0,0-9.6-15.8a7.842,7.842,0,0,0-2.62-6.24,9.778,9.778,0,0,0-6.66-2.28,12.027,12.027,0,0,0-1.32.08l4.72,3.28a87.492,87.492,0,0,1-3.68,8.44,38,38,0,0,1-4.56,7.56,7.305,7.305,0,0,1-5.72,2.8,6.579,6.579,0,0,1-4.96-2.6A11.459,11.459,0,0,1-37-12.48,16.242,16.242,0,0,1-31.24-25.4a19.181,19.181,0,0,1,13-4.64q6.76,0,10.96,3.72Q-2.88-22.4-2.88-15.64Zm-18.16-8.48A12.183,12.183,0,0,0-28-20.32a10.7,10.7,0,0,0-2.92,7.44,5.012,5.012,0,0,0,.64,2.6q.56.92,1.2.92,1.32,0,3.32-3.88A82.924,82.924,0,0,0-21.04-24.12ZM38.12-25.6q-.32,4.68-1.66,6.06t-5.7,1.38H10q-3.52,0-4.74-.98t-1.22-3.9v-9.8h6.2v2.88a184.467,184.467,0,0,0,20.8-2.72l4.08,4.6a176.687,176.687,0,0,1-23.48,3.04l-1.4.08v.4q0,.92.34,1.16a2.336,2.336,0,0,0,1.26.24H29.48q1.72,0,2.16-.76a10.015,10.015,0,0,0,.64-3.4ZM35.2,2.84H28.92V.96H11.56V2.84H5.32V-16.48H35.2ZM28.92-10.04v-1.92H11.56v1.92Zm0,6.16v-2H11.56v2Zm50.04-7.16-2.6,6.08a46.544,46.544,0,0,0-5.16-3.4,24.5,24.5,0,0,1-11,11.68L55.36-1.04A19.532,19.532,0,0,0,65.76-11a39.213,39.213,0,0,0-6.96-2.08,59.079,59.079,0,0,1-3.88,7.6q-2.6,4-6.6,4a5.705,5.705,0,0,1-4.4-2.06,7.214,7.214,0,0,1-1.84-4.98q0-6,5.72-8.96a16.389,16.389,0,0,1,7.32-1.64q.16-.36,2.96-7.12-1,.2-8.48,1.36l-1.28-5.88a64.792,64.792,0,0,0,13.48-1.8l4.16,3.04q-1.52,2.96-4.84,10.96a47.628,47.628,0,0,1,6.44,1.72A35.961,35.961,0,0,0,68.12-22l6.16.84a45.61,45.61,0,0,1-1,6.64A47.527,47.527,0,0,1,78.96-11.04Zm-26.2-2.68a6.871,6.871,0,0,0-3.68,1.2,3.9,3.9,0,0,0-1.76,3.28q0,1.64,1.28,1.64.84,0,1.92-1.68A42.289,42.289,0,0,0,52.76-13.72Z" transform="translate(78.88 32.88)" fill="#fff"/></svg>