<svg xmlns="http://www.w3.org/2000/svg" width="342" height="56.001" viewBox="0 0 342 56.001"><g transform="translate(-662 -26)"><path d="M55,56H-1L55,0H285V56ZM285,0h56L285,56Z" transform="translate(663 26)" fill="#c7af3e"/><path d="M-73.122-18.732-75.11-14.84a18.153,18.153,0,0,0-5.908,2.464L-83.2-14.644q1.064-.756,2.632-1.736a38.832,38.832,0,0,0-6.776-1.512l2.156-4A58.329,58.329,0,0,1-73.122-18.732ZM-72.03-.224A29.3,29.3,0,0,1-79.786.84,12.864,12.864,0,0,1-86.534-.672a5.737,5.737,0,0,1-2.828-5.236,2.788,2.788,0,0,1,.084-.728l4.116-2.38a3.751,3.751,0,0,0-.14,1.008,3.71,3.71,0,0,0,2.128,3.724,9.657,9.657,0,0,0,3.752.56,19.643,19.643,0,0,0,6.8-1.288ZM-40.446-19.46l-2.044,1.176a15.966,15.966,0,0,0-2.464-3.388l1.9-1.12A14.846,14.846,0,0,1-40.446-19.46Zm-3.108,1.792-2.044,1.12a15.953,15.953,0,0,0-2.3-3.472l1.876-1.036A17.087,17.087,0,0,1-43.554-17.668Zm2.184,4.4L-43.106-9.1a23.54,23.54,0,0,0-8.456-1.876l1.232-3.92q-2.408.868-4.34,1.456A144.082,144.082,0,0,1-59.99,1.792L-64.61.308A82.529,82.529,0,0,0-59.542-12.04q-.28.084-4.116,1.12l-1.148-4.256q2.968-.56,6.58-1.6.9-3.7,1.26-5.88l4.592.868q-.308,1.12-.924,3.416,1.68-.616,3.024-1.26l1.036,4.34-.616.224A21.836,21.836,0,0,1-41.37-13.272ZM-40.95.812a27.4,27.4,0,0,1-5.1.476A12.343,12.343,0,0,1-51.9.2a4.321,4.321,0,0,1-2.24-4.116,5.6,5.6,0,0,1,.2-1.4l4.2-1.232a4.667,4.667,0,0,0-.168,1.064,1.963,1.963,0,0,0,.868,1.82,5.5,5.5,0,0,0,2.688.476A23.973,23.973,0,0,0-41.4-3.808Zm28.728-9.38q0,6.72-7.7,10.108L-23.03-1.876q6.188-2.52,6.188-6.608a2.7,2.7,0,0,0-.812-1.988,3.275,3.275,0,0,0-2.38-.868q-2.772,0-5.936,2.6,0,2.632.028,5.768l.056,4.7h-4.34q.056-1.456.112-6.8A45.02,45.02,0,0,0-33.95.084l-2.8-3.444q4.564-5.572,6.72-8.652v-2.044a34.5,34.5,0,0,0-4.368,2.1l-1.6-3.92q3.024-1.428,5.908-2.464-.056-2.772-.168-4.788l4.564.14q-.084,1.568-.112,3.276.448-.14,1.288-.364l.5,3.808-1.848.644-.056,2.24A12.189,12.189,0,0,1-19.39-15.54a6.942,6.942,0,0,1,5.32,2.156A6.818,6.818,0,0,1-12.222-8.568Zm24.136-3.724a17.166,17.166,0,0,1-1.54,7.532Q8.19-.224,2.226,2.576L-1.358-.812a29.821,29.821,0,0,0,4.452-2.52A9.927,9.927,0,0,0,5.978-6.5a10.918,10.918,0,0,0,1.2-5.292,10.318,10.318,0,0,0-.392-3q-.5-1.764-1.6-1.764-1.82,0-3.22,3.192A13.594,13.594,0,0,0,.77-7.98v.5l-4.144.784a44.107,44.107,0,0,1-.616-8.2,53.544,53.544,0,0,1,.812-8.624l4.564.588A30.354,30.354,0,0,0,.35-18q-.056.728-.168,1.932A9.312,9.312,0,0,1,2.59-19.488a5.464,5.464,0,0,1,3.7-1.6,4.74,4.74,0,0,1,4.2,2.6A12.1,12.1,0,0,1,11.914-12.292ZM43.974-.84l-3.5,2.492a20.586,20.586,0,0,1-5.516-3.864L38.6-4A21.4,21.4,0,0,0,43.974-.84ZM28.742-9.1q.336.168.98.532a54.652,54.652,0,0,0,5.124-3.444h-4.62l1.512.616Q30.59-10.444,28.742-9.1Zm-.7,7.028a19.577,19.577,0,0,1-5.46,3.808L19.138-.728a21.39,21.39,0,0,0,4.956-2.716q-1.26.028-4.2.084L18.886-6.58q4.4.056,7.2,0l.14-.084A52.677,52.677,0,0,0,21.238-8.9l2.828-2.436q.476.224,1.568.728.924-.7,1.708-1.4H18.97V-14.98H29.246v-.812h-7.9v-2.436h7.9v-.784h-9.3V-21.84h9.3v-1.54h4.4v1.54H43.05v2.828H33.642v.784H41.65v2.436H33.642v.812H43.974v2.968H34.93L38.458-10.3Q35.322-8.232,32.83-6.8q1.876-.084,4.256-.252-.224-.252-1.008-.98l3.7-1.2a56.01,56.01,0,0,1,4.956,4.7L40.5-3.164q-.308-.364-.952-1.12-2.66.2-5.824.392v5.88h-4.48V-3.64q-.14,0-4.144.14ZM65.562-9.94A36.8,36.8,0,0,1,59.99-1.12l-3-2.828A38.637,38.637,0,0,0,63.77-14.9h-4.7v-3.892h6.5v-4.284h4.144v4.284H72.45V-14.9H69.706V-2.24q0,2.464-.84,3.29a4.656,4.656,0,0,1-3.22.826h-2.52L62.09-1.9h2.52q.952,0,.952-1.036ZM50.806-7.364a47.511,47.511,0,0,1-2.744,4.2L46.354-7.476A46.312,46.312,0,0,0,50.806-14.5v-.448H46.914v-3.836h3.892v-4.228h3.976v4.228H58.2v3.836H54.782v.5A36,36,0,0,0,58.506-9.66L56.854-5.824A33.053,33.053,0,0,1,54.782-8.54V2.044H50.806ZM91.686.7H77.35v-4h5.1V-16.3l-3.528,2.688-2.3-3.3L83.006-21.7H87.15V-3.3h4.536Z" transform="translate(834 65)" fill="#fff"/><path d="M56,0V56H0" transform="translate(948 26)" fill="#aa9638"/><path d="M56,0V56H0" transform="translate(718 82) rotate(180)" fill="#aa9638"/></g></svg>