<svg xmlns="http://www.w3.org/2000/svg" width="580.001" height="42" viewBox="0 0 580.001 42">
  <g id="sec02_ttlmiddle04--pc" transform="translate(-429.999 -3302)">
    <path id="パス_406" data-name="パス 406" d="M0,42,42,0V42Z" transform="translate(472 3344) rotate(-180)" fill="#aa9638"/>
    <path id="合体_3" data-name="合体 3" d="M538,42H41.968V0h538l-24,24.019V42ZM0,42,41.967,0V42Z" transform="translate(430 3302)" fill="#c7af3e"/>
    <path id="パス_759" data-name="パス 759" d="M-213.785-5.016A5.257,5.257,0,0,1-215.721-.55,7.449,7.449,0,0,1-220.407.77a7.371,7.371,0,0,1-4.708-1.364,5.356,5.356,0,0,1-1.936-4.488v-3.1h3.718v2.816q0,2.882,2.926,2.882,2.882,0,2.882-2.794V-17.226h3.74ZM-192.533-15.6a44.145,44.145,0,0,1-3.3,8.382,35,35,0,0,1-6.006,8.4l-3.3-1.892a28.874,28.874,0,0,0,6.05-7.942A34.507,34.507,0,0,0-196.1-16.94Zm-10.23,5.39-3.3,1.628a27.573,27.573,0,0,0-1.606-3.179,18.183,18.183,0,0,0-1.848-2.717l3.212-1.694A22.282,22.282,0,0,1-202.763-10.208Zm32.824,2.882q-1.276-.066-3.036-.066a129.089,129.089,0,0,0-14.586.748l-.22-3.63q3.19-.286,7.436-.484,6.226-.286,10.384-.22Zm22.154,3.916-2.4,2.794a36.093,36.093,0,0,0-6.05-5.478,41.847,41.847,0,0,1-7.15,6.182L-166-2.332a37.282,37.282,0,0,0,6.622-5.192,24.04,24.04,0,0,0,3.982-5.038q-2.706.264-8.118.836l-.22-3.366q1.54-.066,5.83-.418,3.63-.286,5.61-.55l2.222,1.738a52.8,52.8,0,0,1-3.96,5.676A50.675,50.675,0,0,1-147.785-3.41Zm22.4,1.76A4.132,4.132,0,0,1-125.9.858a3.052,3.052,0,0,1-2.332.638h-2.024l-.7-2.9h1.342a1.587,1.587,0,0,0,.638-.088q.286-.154.286-.836V-9.944h-5.632V-17.82h8.932Zm-3.278-13.068v-.748h-2.75v.748Zm0,2.64v-.792h-2.75v.792Zm-6.8,2.134h-5.588V1.518h-3.278V-17.82h8.866Zm-2.926-4.774v-.748h-2.662v.748Zm0,2.64v-.792h-2.662v.792Zm2.9,5.324v1.122h1.32V-6.754Zm-.11,3.674a7.668,7.668,0,0,1-2.112,4.4L-140.7-.33a5.207,5.207,0,0,0,2.024-2.75h-1.716V-5.632h1.87V-6.754h-1.5V-9.218H-129.7v2.464h-1.43v1.122h1.782V-3.08h-1.782V1.034h-3.036V-3.08Zm22.77-11.506a16.414,16.414,0,0,1-2.6,2.948h5.368A17.872,17.872,0,0,1-112.827-14.586Zm-.9,5.7V-7.26h1.694V-8.888Zm-.066,4.532q-.594,4.906-6.952,6.292L-123.1-.99a15.7,15.7,0,0,0,3.938-1.188A3.707,3.707,0,0,0-117.2-4.356H-122.4v-2.9h5.368V-8.888h-1.034v-.726a28.617,28.617,0,0,1-3.432,1.892l-1.87-2.684a20.988,20.988,0,0,0,3.234-1.452q-1.474-1.1-2.882-1.98l2.332-1.892q1.694,1.078,3.1,2.134a12.152,12.152,0,0,0,1.606-1.65h-3.85v-2.706h8.316a14.247,14.247,0,0,0,1.012,1.474,17.767,17.767,0,0,0,2.112-2.068l2.486,1.452a26.785,26.785,0,0,1-2.75,2.662q.528.484.88.792a18.929,18.929,0,0,0,2.574-2.442l2.552,1.452a24.567,24.567,0,0,1-2.728,2.662,24.693,24.693,0,0,0,3.1,1.584l-1.98,2.706a33.023,33.023,0,0,1-3.366-2.068v.858h-1.1V-7.26h5.39v2.9h-5.39v2.178a1.028,1.028,0,0,0,.077.528q.077.088.5.088h.9a.961.961,0,0,0,1.056-.814q.022-.132.022-1.54l3.058.858q0,3.08-.649,3.839t-3.025.759h-3.1a2.782,2.782,0,0,1-1.727-.374,2.043,2.043,0,0,1-.429-1.54V-4.356Zm32.45-3.52q-3.322-.088-7.238.154a12.982,12.982,0,0,1-1.408,5.148,13.744,13.744,0,0,1-3.982,4.312L-97.119-.33a13.439,13.439,0,0,0,3.564-3.058,8.044,8.044,0,0,0,1.562-4.07A70.633,70.633,0,0,0-99.957-6.27l-.242-3.322q3.7-.528,8.228-.99-.022-.99-.066-2.376-2.442.616-4.642.968l-1.5-2.926a50.128,50.128,0,0,0,6.16-1.3,35.535,35.535,0,0,0,5.368-1.914L-85-15.136q-2.046.748-3.542,1.21.044,1.76.044,3.036,3.872-.286,7.084-.286Zm21.406.55q-1.276-.066-3.036-.066a129.089,129.089,0,0,0-14.586.748l-.22-3.63q3.19-.286,7.436-.484,6.226-.286,10.384-.22Zm22.968,5.632L-40.205.11q-.572-1.188-1.3-2.552-2.442.572-6.6,1.43-2.684.55-7.084,1.32l-.924-3.476q1.32-.132,2.6-.308,1.5-4.312,2.354-7.084,1.364-4.4,1.87-6.4l3.674.946-2.024,5.808q-.9,2.508-2.266,6.182l.506-.088q2.97-.484,6.248-1.166a27.173,27.173,0,0,0-2.068-2.926l2.97-1.606A37.664,37.664,0,0,1-36.971-1.694Zm20.79-14.146-1.584.924A12.545,12.545,0,0,0-19.7-17.578l1.5-.88A11.543,11.543,0,0,1-16.181-15.84Zm-2.442,1.408-1.606.88a12.534,12.534,0,0,0-1.8-2.728l1.474-.814A13.425,13.425,0,0,1-18.623-14.432Zm4.488,7.744L-17.259-5.1a18.479,18.479,0,0,0-3.894-7l2.882-1.628A19.67,19.67,0,0,1-14.135-6.688ZM-21.351-8.58A29.045,29.045,0,0,1-21.7-4.565a20.473,20.473,0,0,1-.748,3.553A4.4,4.4,0,0,1-23.573.869a2.731,2.731,0,0,1-1.76.561,7.573,7.573,0,0,1-3.19-.814l.022-3.454a4.685,4.685,0,0,0,1.98.682,1.026,1.026,0,0,0,.99-.814,17.246,17.246,0,0,0,.594-2.662,18.415,18.415,0,0,0,.22-2.486,2.189,2.189,0,0,0-.275-1.342q-.275-.308-1.331-.308H-26.7a78.073,78.073,0,0,1-4.752,11.2L-34.727.044a49.719,49.719,0,0,0,4.51-9.262,26.291,26.291,0,0,0-3.564.968l-.88-3.168q2.75-.682,5.5-1.144.66-2.442,1.1-4.994l3.52.528q-.352,1.276-1.144,4.07h.11a4.417,4.417,0,0,1,3.19.9A4.71,4.71,0,0,1-21.351-8.58Zm17.16-4.774h-8.58v-2.97h2.816v-1.87h3.366v1.87h2.4Zm-.462,3.3h-7.5V-12.5h7.5Zm0,3.256h-7.5v-2.42h7.5ZM-4.411.836H-9.229v.836h-3.19V-5.9h8.008Zm-2.9-2.772V-3.344H-9.251v1.408Zm8.734-9.328-.33,1.5H3.047v-1.5Zm.792-3.718-.264,1.188H6.061v4.026H7.447v2.816H-4.213V-9.768h2.156l.33-1.5H-3.4v-2.53h2.2l.264-1.188h-2.9v-2.75H6.919v2.75Zm4.378,16.5H3.421V.594H-.253v.924H-3.421V-6.116H6.589ZM3.421-2.046V-3.564H-.253v1.518ZM27.643-4.378A5.3,5.3,0,0,1,25.421.154a8.843,8.843,0,0,1-5.346,1.5,7.052,7.052,0,0,1-3.5-.792,2.854,2.854,0,0,1-1.584-2.574A2.866,2.866,0,0,1,16.1-4.048a4.34,4.34,0,0,1,2.827-.9,4.319,4.319,0,0,1,2.64.781,3.483,3.483,0,0,1,1.342,2.211A2.78,2.78,0,0,0,24.1-4.268a2.286,2.286,0,0,0-.77-1.76,3.818,3.818,0,0,0-2.64-.814,7.806,7.806,0,0,0-3.652.88,14.4,14.4,0,0,0-4.356,4L10.131-4.312q4.554-4.818,9.284-10.3-2.024.308-5.676.924l-.55-3.366q1.848-.088,4.785-.451t4.5-.693l2.156,2.486q-3.52,3.784-6.05,6.6a8.232,8.232,0,0,1,3.19-.66,6.031,6.031,0,0,1,4.312,1.474A5.131,5.131,0,0,1,27.643-4.378ZM20.361-1.034a1.93,1.93,0,0,0-.55-1.232,1.54,1.54,0,0,0-1.1-.44q-.88,0-.88.7,0,.99,2.024.99Q20.119-1.012,20.361-1.034ZM46.937-14.718,45.375-11.66a14.263,14.263,0,0,0-4.642,1.936l-1.716-1.782q.836-.594,2.068-1.364a30.511,30.511,0,0,0-5.324-1.188L37.455-17.2A45.83,45.83,0,0,1,46.937-14.718ZM47.795-.176A23.024,23.024,0,0,1,41.7.66,10.107,10.107,0,0,1,36.4-.528a4.508,4.508,0,0,1-2.222-4.114,2.19,2.19,0,0,1,.066-.572l3.234-1.87a2.947,2.947,0,0,0-.11.792,2.915,2.915,0,0,0,1.672,2.926,7.588,7.588,0,0,0,2.948.44,15.434,15.434,0,0,0,5.346-1.012ZM72.611-15.29,71-14.366a12.545,12.545,0,0,0-1.936-2.662l1.5-.88A11.665,11.665,0,0,1,72.611-15.29Zm-2.442,1.408L68.563-13a12.534,12.534,0,0,0-1.8-2.728l1.474-.814A13.426,13.426,0,0,1,70.169-13.882Zm1.716,3.454L70.521-7.15a18.5,18.5,0,0,0-6.644-1.474l.968-3.08q-1.892.682-3.41,1.144a113.207,113.207,0,0,1-4.18,11.968L53.625.242a64.844,64.844,0,0,0,3.982-9.7q-.22.066-3.234.88l-.9-3.344q2.332-.44,5.17-1.254.7-2.9.99-4.62l3.608.682q-.242.88-.726,2.684,1.32-.484,2.376-.99l.814,3.41-.484.176A17.157,17.157,0,0,1,71.885-10.428ZM72.215.638a21.525,21.525,0,0,1-4,.374,9.7,9.7,0,0,1-4.6-.858,3.4,3.4,0,0,1-1.76-3.234,4.4,4.4,0,0,1,.154-1.1l3.3-.968a3.667,3.667,0,0,0-.132.836,1.542,1.542,0,0,0,.682,1.43,4.325,4.325,0,0,0,2.112.374,18.836,18.836,0,0,0,3.894-.484Zm22.572-7.37q0,5.28-6.05,7.942L86.295-1.474q4.862-1.98,4.862-5.192a2.124,2.124,0,0,0-.638-1.562,2.573,2.573,0,0,0-1.87-.682,7.548,7.548,0,0,0-4.664,2.046q0,2.068.022,4.532l.044,3.7h-3.41q.044-1.144.088-5.346A35.373,35.373,0,0,0,77.715.066l-2.2-2.706q3.586-4.378,5.28-6.8v-1.606a27.105,27.105,0,0,0-3.432,1.65l-1.254-3.08q2.376-1.122,4.642-1.936-.044-2.178-.132-3.762l3.586.11q-.066,1.232-.088,2.574.352-.11,1.012-.286l.4,2.992-1.452.506-.044,1.76a9.577,9.577,0,0,1,5.126-1.694,5.454,5.454,0,0,1,4.18,1.694A5.357,5.357,0,0,1,94.787-6.732Zm18.964-2.926a13.488,13.488,0,0,1-1.21,5.918,12.674,12.674,0,0,1-6.4,5.764L103.323-.638a23.43,23.43,0,0,0,3.5-1.98A7.8,7.8,0,0,0,109.087-5.1a8.578,8.578,0,0,0,.946-4.158,8.107,8.107,0,0,0-.308-2.354Q109.329-13,108.471-13q-1.43,0-2.53,2.508a10.681,10.681,0,0,0-.946,4.224v.4l-3.256.616a34.656,34.656,0,0,1-.484-6.446,42.07,42.07,0,0,1,.638-6.776l3.586.462a23.849,23.849,0,0,0-.814,3.872q-.044.572-.132,1.518a7.317,7.317,0,0,1,1.892-2.684,4.293,4.293,0,0,1,2.9-1.254,3.725,3.725,0,0,1,3.3,2.046A9.5,9.5,0,0,1,113.751-9.658Zm24.376-7.062a2.124,2.124,0,0,1-.638,1.562,2.124,2.124,0,0,1-1.562.638,2.172,2.172,0,0,1-1.562-.638,2.089,2.089,0,0,1-.66-1.562,2.1,2.1,0,0,1,.66-1.551,2.153,2.153,0,0,1,1.562-.649,2.124,2.124,0,0,1,1.562.638A2.124,2.124,0,0,1,138.127-16.72Zm.836,12.54L136.3-1.54a19.375,19.375,0,0,0-4-4.444l2.42-2.64A27.834,27.834,0,0,1,138.963-4.18Zm-1.474-6.336q-3.19-.088-6.732.11v9.174A2.322,2.322,0,0,1,129.9.88a5.2,5.2,0,0,1-2.552.44q-.286,0-.924-.022-.7-.022-.814-.022l-1.1-3.344q1.012.088,1.562.088.968,0,1.144-.484a15.424,15.424,0,0,0,.11-2.618q0-3.344-.022-5.082-3.454.33-6.666.88l-.418-3.344q4.026-.44,7.018-.682-.044-2.464-.11-4.18h3.718q-.044,1.056-.066,3.894,3.322-.242,6.512-.33ZM125.411-6.4a22.76,22.76,0,0,1-3.3,5.456L119.449-3.1a19.18,19.18,0,0,0,3.3-5.192ZM137.027-16.72a1.1,1.1,0,0,0-.319-.792,1.044,1.044,0,0,0-.781-.33,1.08,1.08,0,0,0-.792.33,1.08,1.08,0,0,0-.33.792,1.08,1.08,0,0,0,.33.792,1.08,1.08,0,0,0,.792.33,1.062,1.062,0,0,0,.781-.319A1.089,1.089,0,0,0,137.027-16.72Zm20.5.176q-1.65,2.156-3.432,4.18,0,9.064.066,13.794h-3.674q.088-2.728.2-10.164a63.947,63.947,0,0,1-5.038,4.554l-3.014-1.98a61.423,61.423,0,0,0,6.886-6.182,46.482,46.482,0,0,0,4.862-5.94Zm14.454,3.85-2.53,2.6a24.661,24.661,0,0,0-4.466-3.96l2.376-2.552A19.938,19.938,0,0,1,171.985-12.694ZM182.3-9.878a72.057,72.057,0,0,1-6.545,5.764A78.73,78.73,0,0,1,168.6.9L166.2-1.98a58.07,58.07,0,0,0,7.59-5.038,57.2,57.2,0,0,0,6.688-6.116Zm20.262,1.672-2.31,2.816a36,36,0,0,0-5.786-3.982l.022.022q0-.77.066,10.692h-3.7q.176-7.194.176-12.276,0-4.356-.066-7.04h3.74q-.088,2.75-.22,7.9l1.8-2.178A39.333,39.333,0,0,1,202.565-8.206Zm20.746-7.722L216.645-3.322,213.719-4.73l5.874-13.046ZM216.447-1.782l-1.54,3.08L211.145-.594l1.54-3.058Z" transform="translate(720 3331)" fill="#fff"/>
    <path id="パス_407" data-name="パス 407" d="M0,42,42,0V42Z" transform="translate(968 3302)" fill="#aa9638"/>
  </g>
</svg>
