<svg xmlns="http://www.w3.org/2000/svg" width="390.878" height="78.947" viewBox="0 0 390.878 78.947"><g transform="translate(-120 -9052.44)"><path d="M29.308-18.8H4.692v-8.942H29.308ZM24.276-24.14v-.85H9.724v.85Zm0,2.924v-.85H9.724v.85Zm7.82,6.868H1.938v-3.6H32.1Zm.068,16.456H1.666V-1.428H14.348v-.884H3.3V-5h11.05v-.85H4.386v-7.684h25.16v7.684H19.482V-5h11.05v2.686H19.482v.884H32.164ZM24.412-10.574v-.918h-4.93v.918Zm0,2.618V-8.84h-4.93v.884ZM14.348-10.574v-.918H9.52v.918Zm0,2.618V-8.84H9.52v.884Zm51.2-5.338a13.565,13.565,0,0,1-3.842,9.86,19.552,19.552,0,0,1-9.69,5.1L48.824-3.3a17.2,17.2,0,0,0,7.548-3.128,8.508,8.508,0,0,0,3.468-7,6.666,6.666,0,0,0-2.227-5.3,8.312,8.312,0,0,0-5.661-1.938,10.224,10.224,0,0,0-1.122.068l4.012,2.788a74.368,74.368,0,0,1-3.128,7.174,32.3,32.3,0,0,1-3.876,6.426,6.209,6.209,0,0,1-4.862,2.38,5.592,5.592,0,0,1-4.216-2.21,9.74,9.74,0,0,1-2.21-6.562,13.806,13.806,0,0,1,4.9-10.982A16.3,16.3,0,0,1,52.5-25.534a13.529,13.529,0,0,1,9.316,3.162A11.541,11.541,0,0,1,65.552-13.294ZM50.116-20.5a10.355,10.355,0,0,0-5.916,3.23,9.092,9.092,0,0,0-2.482,6.324,4.26,4.26,0,0,0,.544,2.21q.476.782,1.02.782,1.122,0,2.822-3.3A70.486,70.486,0,0,0,50.116-20.5ZM95.2-12.274H86.292v-3.74h2.55V-17.34H86.394v-3.6h2.448v-1.5H92.65v1.5h2.414v3.6H92.65v1.326H95.2ZM80.852-20.706H69.53v-4.556H72.9v-2.89h4.93v2.89h3.026Zm-.612,5.1H70.278V-19.38H80.24Zm0,5.032H70.278v-3.74H80.24Zm.2,12h-5.95V2.754H69.9V-9.18h10.54v6.936A31.259,31.259,0,0,0,81.43-8.3q.136-2.074.136-6.97v-12.1H99.994V-2.244q0,2.822-.986,3.842a4.417,4.417,0,0,1-3.2.884H93.6l-1.02-3.536H90.338V.374H86.462V-11.22H94.69v9.044h.034q.68,0,.85-.34A2.549,2.549,0,0,0,95.71-3.57V-22.95H85.782v8.772q0,5.984-.272,9.01a36.474,36.474,0,0,1-1.53,8.126L80.444.816Zm11.05-6.7V-7.48h-1.7v2.21ZM76.466-2.754V-5.236h-2.21v2.482Zm57.12-1.462q0,2.482-.731,3.23t-3.315.748h-2.346l-1.36-4.454h1.632a1.465,1.465,0,0,0,.935-.221q.255-.221.255-1.037v-8.262h-3.094V2.618h-4.9v-21.25h12.92ZM110.33-3.3q1.8-.306,3.094-.544-.306-.612-.714-1.462l3.6-1.088H110.33Zm4.862,3.57q-4.318,1.19-10.88,2.346l-1.394-4.964q1.5-.136,2.278-.238V-18.7H119V-6.392h-1.87a44.96,44.96,0,0,1,3.4,6.936l-4.59,1.734Q115.532,1.122,115.192.272Zm-.884-14.144v-1.122H110.33v1.122Zm0,4.046V-11.05H110.33v1.224Zm2.006-10.132-4.93,1.156q-.51-1.53-1.224-3.2h-.544q-1.054,1.6-2.312,3.23L102.68-20.74a35.865,35.865,0,0,0,5.032-7.752l5.2.646q-.408.884-.782,1.6H118.8v3.06a35.058,35.058,0,0,0,3.094-5.3l5.134.646q-.442.918-.782,1.6h8.126V-22h-4.012q.374.782.884,2.04l-5.134,1.122Q125.63-20.2,124.848-22h-1.02q-1.02,1.6-2.176,3.128l-4.726-1.938q.34-.408.952-1.19H115.43Q115.94-20.876,116.314-19.958ZM166.43-24.48l-2.448,1.428a19.387,19.387,0,0,0-2.992-4.114l2.312-1.36A17.839,17.839,0,0,1,166.43-24.48ZM162.656-22.3l-2.482,1.36a19.372,19.372,0,0,0-2.788-4.216l2.278-1.258A20.749,20.749,0,0,1,162.656-22.3Zm6.936,11.968-4.828,2.448A28.558,28.558,0,0,0,158.746-18.7l4.454-2.516A30.4,30.4,0,0,1,169.592-10.336ZM158.44-13.26a44.888,44.888,0,0,1-.544,6.2,31.639,31.639,0,0,1-1.156,5.491,6.8,6.8,0,0,1-1.734,2.907,4.22,4.22,0,0,1-2.72.867,11.7,11.7,0,0,1-4.93-1.258l.034-5.338a7.24,7.24,0,0,0,3.06,1.054,1.586,1.586,0,0,0,1.53-1.258A26.649,26.649,0,0,0,152.9-8.7a28.459,28.459,0,0,0,.34-3.842,3.382,3.382,0,0,0-.425-2.074q-.425-.476-2.057-.476h-.578A120.658,120.658,0,0,1,142.834,2.21L137.768.068a76.838,76.838,0,0,0,6.97-14.314,40.632,40.632,0,0,0-5.508,1.5l-1.36-4.9q4.25-1.054,8.5-1.768,1.02-3.774,1.7-7.718l5.44.816q-.544,1.972-1.768,6.29h.17q3.468-.034,4.93,1.394Q158.44-17.1,158.44-13.26Zm39.474,6.528-.442,5.95a27.572,27.572,0,0,1-5.27,1.836,27,27,0,0,1-6.834,1.02q-5.134,0-6.7-3.672-.816-1.9-.816-8.194V-27.54l5.984.442Q183.4-20.672,183.4-7.14a4.412,4.412,0,0,0,.748,2.992,2.894,2.894,0,0,0,2.21.68A21.622,21.622,0,0,0,192.2-4.522,41.054,41.054,0,0,0,197.914-6.732Zm37.978-10.2a7.288,7.288,0,0,1-3.026,6.018,15.1,15.1,0,0,1-6.392,2.686l-3.468-4.386a15.353,15.353,0,0,0,4.386-1.088q2.788-1.156,2.788-2.958,0-1.632-2.074-1.632-2.788,0-9.622,3.876,5.3,8.738,8.7,14.722l-5.236,2.72a162.279,162.279,0,0,0-8.058-14.756q-3.094,1.87-4.93,3.162l-3.332-4.386q1.734-.986,5.474-3.162-1.292-1.972-2.482-3.536l5.066-2.55q.816,1.292,2.142,3.468,1.462-.816,4.59-2.38a26.56,26.56,0,0,0-7.412-3.3l2.72-4.114a28.735,28.735,0,0,1,7.684,3.162L221.1-21.42a19.379,19.379,0,0,1,7.65-2.04,7.455,7.455,0,0,1,5.066,1.8A5.959,5.959,0,0,1,235.892-16.932Zm34.442-2.04q-2.448-.1-4.046-.1-2.482,0-5.1.17.034,3.332.1,8.092.068,10.336-10.064,14.178l-4.59-4.114q5.678-1.5,7.582-4.25a2.351,2.351,0,0,1-1.258.2,5.094,5.094,0,0,1-3.638-1.8,5.916,5.916,0,0,1-1.394-3.978,5.8,5.8,0,0,1,1.768-4.318,6.059,6.059,0,0,1,4.42-1.734,3.309,3.309,0,0,1,1.9.51l-.1-2.278A86.885,86.885,0,0,0,241.06-15.13L239.768-20.3a134.58,134.58,0,0,1,15.878-2.924q-.238-4.046-.34-5.338l5.882.2q-.034,1.088-.034,4.556,4.386-.374,8.636-.476Zm-14.076,8.534a3.088,3.088,0,0,0-.561-1.819,1.7,1.7,0,0,0-1.445-.8,1.383,1.383,0,0,0-1.207.612,2.441,2.441,0,0,0-.425,1.428,3.167,3.167,0,0,0,.527,1.87,1.706,1.706,0,0,0,1.479.748,1.4,1.4,0,0,0,1.207-.6A2.421,2.421,0,0,0,256.258-10.438Zm48.62.17-5.3,2.38a22.948,22.948,0,0,0-2.72-6.086,18.99,18.99,0,0,0-3.91-4.59l4.522-3.026A20.019,20.019,0,0,1,304.878-10.268Zm-16.932-3.4A27.376,27.376,0,0,0,286.484-5.2q0,.816.068,1.564L281.894-1.02q-7.174-8.16-7.412-20.332l5.678-.2a30.362,30.362,0,0,0,.714,6.358,19.739,19.739,0,0,0,2.04,5.712,28.575,28.575,0,0,1,1.836-6.086ZM32.4,26.01H26.214V36.89H19.142V18.972H32.4Zm-2.108-2.142V21.08h-9.01V34.748h2.788V23.868ZM65.688,22.78,63,23.732a19.339,19.339,0,0,0-2.312-4.42l2.482-.952A16.763,16.763,0,0,1,65.688,22.78Zm-4.046,1.564-2.652.884a19.035,19.035,0,0,0-2.142-4.488l2.482-.884A20.116,20.116,0,0,1,61.642,24.344ZM66.2,41.14l-4.114,4.08A29.943,29.943,0,0,0,55.9,38.352l3.74-4.08A43.015,43.015,0,0,1,66.2,41.14ZM63.92,31.348q-4.93-.136-10.4.17V45.7q0,2.414-1.326,3.264a8.043,8.043,0,0,1-3.944.68q-.442,0-1.428-.034-1.088-.034-1.258-.034L43.86,44.4q1.564.136,2.414.136,1.5,0,1.768-.748a23.837,23.837,0,0,0,.17-4.046q0-5.168-.034-7.854-5.338.51-10.3,1.36l-.646-5.168q6.222-.68,10.846-1.054-.068-3.808-.17-6.46h5.746q-.068,1.632-.1,6.018,5.134-.374,10.064-.51ZM45.254,37.706a35.175,35.175,0,0,1-5.1,8.432L36.04,42.806a29.642,29.642,0,0,0,5.1-8.024Zm51.238-2.788-3.57,4.352a55.631,55.631,0,0,0-8.942-6.154l.034.034q0-1.19.1,16.524H78.4q.272-11.118.272-18.972,0-6.732-.1-10.88h5.78q-.136,4.25-.34,12.206L86.8,28.662A60.787,60.787,0,0,1,96.492,34.918Zm38.658-.476a71.992,71.992,0,0,1-7.276,6.868,78.745,78.745,0,0,1-7.684,5.644l-3.672-2.72q.1-4.658.136-10.472.068-6.528-.1-10.472l5.44.034q-.2,3.468-.2,8.4v7.684a42.759,42.759,0,0,0,5.44-4.488,51.432,51.432,0,0,0,5.406-5.882Zm-19.38-6.256q-.884,3.468-1.156,4.352a46.136,46.136,0,0,1-1.6,4.9,53.972,53.972,0,0,1-4.9,9.86l-5.066-2.074a43.993,43.993,0,0,0,5.032-9.52,49.783,49.783,0,0,0,2.584-9.078Zm35.122,22.2H137.6V43.35h6.222V32.47h7.072Zm-2.142-2.142V34.578h-2.822V45.492H139.74v2.754Z" transform="translate(206 9081)" fill="#992113"/><g transform="translate(-214 4256.896)"><circle cx="33" cy="33" r="33" transform="translate(334 4802.104)" fill="#992113"/><path d="M19.432-5.992a6.163,6.163,0,0,1-2.52,5.376A10.7,10.7,0,0,1,10.7.952,12.368,12.368,0,0,1,5.348-.056,8.72,8.72,0,0,1,1.316-4.172l4.4-2.184Q7.56-3.108,10.388-3.108q4.256,0,4.256-3A2.3,2.3,0,0,0,13.552-8.12a6.043,6.043,0,0,0-3.36-.784H6.328v-3.864h3.7a4.78,4.78,0,0,0,3.024-.84,2.255,2.255,0,0,0,.924-1.848q0-2.436-3.36-2.436a5.876,5.876,0,0,0-5.068,2.856l-3.976-1.82q2.688-5.012,9.212-5.012a9.378,9.378,0,0,1,5.8,1.6A4.737,4.737,0,0,1,18.592-16.3a6.021,6.021,0,0,1-.854,3.248,4.474,4.474,0,0,1-2.31,1.9A5.415,5.415,0,0,1,18.172-9.52,5.141,5.141,0,0,1,19.432-5.992Z" transform="translate(357 4846.104)" fill="#fff"/></g></g></svg>