<svg xmlns="http://www.w3.org/2000/svg" xmlns:xlink="http://www.w3.org/1999/xlink" width="45.532" height="595.616" viewBox="0 0 45.532 595.616"><defs><clipPath id="a"><rect width="45.532" height="595.616" fill="#c7af3e"/></clipPath></defs><g clip-path="url(#a)"><path d="M18.183,64.478l-7.25,3.577A60.767,60.767,0,0,0,7.405,61.07,40.074,40.074,0,0,0,3.344,55.1L10.4,51.379a48.923,48.923,0,0,1,7.783,13.1M40.66,52.636a97.114,97.114,0,0,1-7.25,18.416A77.016,77.016,0,0,1,20.215,89.516l-7.252-4.157A63.43,63.43,0,0,0,26.257,67.91a75.9,75.9,0,0,0,6.573-18.223Z" transform="translate(0.33 4.897)" fill="#c7af3e"/><path d="M25.148,98.747q-.387,8.218-.388,21.606,0,11.118.194,19.431H16.544q.241-10.2.242-24.217,0-13.051-.145-16.821Z" transform="translate(1.631 9.733)" fill="#c7af3e"/><path d="M42.4,180.441l-5.269,6.139a79.331,79.331,0,0,0-13.293-12.036A91.925,91.925,0,0,1,8.128,188.126l-5.752-5.317A81.957,81.957,0,0,0,16.926,171.4a52.867,52.867,0,0,0,8.748-11.069q-5.945.58-17.836,1.837l-.482-7.4q3.381-.145,12.808-.918,7.977-.628,12.326-1.208l4.882,3.819a116.05,116.05,0,0,1-8.7,12.471,111.364,111.364,0,0,1,13.728,11.5" transform="translate(0.234 15.045)" fill="#c7af3e"/><path d="M43.167,219.723a19.287,19.287,0,0,1-5.462,14.018q-4.98,5.125-13.776,7.251l-4.545-7.057a24.437,24.437,0,0,0,10.732-4.447,12.1,12.1,0,0,0,4.93-9.957,9.478,9.478,0,0,0-3.167-7.541,11.814,11.814,0,0,0-8.047-2.755,14.7,14.7,0,0,0-1.6.1l5.7,3.964a105.375,105.375,0,0,1-4.447,10.2,46.013,46.013,0,0,1-5.509,9.136,8.826,8.826,0,0,1-6.912,3.384q-3.24,0-5.994-3.142a13.84,13.84,0,0,1-3.143-9.329A19.632,19.632,0,0,1,8.9,207.929,23.184,23.184,0,0,1,24.6,202.322q8.168,0,13.245,4.5,5.316,4.739,5.317,12.906M21.222,209.476a14.719,14.719,0,0,0-8.411,4.592,12.924,12.924,0,0,0-3.529,8.991,6.049,6.049,0,0,0,.773,3.142q.676,1.112,1.449,1.112,1.6,0,4.013-4.689a100.461,100.461,0,0,0,5.7-13.148" transform="translate(0.191 19.941)" fill="#c7af3e"/><path d="M36.652,288.974a50.618,50.618,0,0,1-13.39,1.837q-7.394,0-11.648-2.61a9.9,9.9,0,0,1-4.883-9.04,4.812,4.812,0,0,1,.145-1.256l7.107-4.109a6.457,6.457,0,0,0-.243,1.74q0,4.738,3.675,6.428a16.63,16.63,0,0,0,6.477.968,33.921,33.921,0,0,0,11.746-2.224Zm-1.885-31.951-3.432,6.718a31.339,31.339,0,0,0-10.2,4.254l-3.77-3.914q1.836-1.305,4.544-3a67.164,67.164,0,0,0-11.7-2.61l3.723-6.912a100.8,100.8,0,0,1,20.833,5.463" transform="translate(0.663 24.794)" fill="#c7af3e"/><path d="M41.778,317.185l-3,7.2a40.673,40.673,0,0,0-14.6-3.239l2.127-6.767q-4.158,1.5-7.492,2.513a248.7,248.7,0,0,1-9.184,26.3l-7.976-2.562a142.4,142.4,0,0,0,8.749-21.316q-.484.145-7.105,1.933L1.32,313.9q5.123-.966,11.36-2.755,1.546-6.379,2.174-10.151l7.927,1.5q-.532,1.933-1.6,5.9,2.9-1.063,5.22-2.175l1.79,7.492-1.065.387a37.692,37.692,0,0,1,14.646,3.094M42.5,341.5a47.359,47.359,0,0,1-8.8.822q-6.718,0-10.1-1.885-3.867-2.126-3.867-7.105a9.7,9.7,0,0,1,.338-2.417l7.252-2.127a8.014,8.014,0,0,0-.291,1.837,3.388,3.388,0,0,0,1.5,3.142,9.5,9.5,0,0,0,4.64.822,41.414,41.414,0,0,0,8.556-1.063Zm-4.5-31.9-3.529,1.933a27.572,27.572,0,0,0-3.964-5.994l3.239-1.788a29.522,29.522,0,0,1,4.254,5.849m5.365-3.094-3.529,2.03a27.581,27.581,0,0,0-4.254-5.849l3.287-1.933a25.649,25.649,0,0,1,4.5,5.752" transform="translate(0.13 29.642)" fill="#c7af3e"/><path d="M43.751,375.957q0,11.6-13.294,17.45l-5.364-5.9q10.681-4.35,10.681-11.407a4.668,4.668,0,0,0-1.4-3.432,5.659,5.659,0,0,0-4.109-1.5q-4.787,0-10.247,4.5,0,4.543.047,9.957l.1,8.119H12.67q.1-2.513.193-11.745a77.628,77.628,0,0,0-6.623,8.894l-4.833-5.945q7.877-9.618,11.6-14.936v-3.529a59.68,59.68,0,0,0-7.542,3.625l-2.754-6.767q5.22-2.465,10.2-4.254-.1-4.785-.29-8.266l7.879.242q-.145,2.707-.194,5.655.774-.241,2.225-.628l.87,6.573-3.191,1.113-.1,3.867a21.049,21.049,0,0,1,11.262-3.722,11.991,11.991,0,0,1,9.185,3.722,11.776,11.776,0,0,1,3.19,8.314" transform="translate(0.139 34.577)" fill="#c7af3e"/><path d="M36.343,420.19a29.651,29.651,0,0,1-2.659,13q-3.77,7.832-14.067,12.664l-6.186-5.849a51.43,51.43,0,0,0,7.686-4.35A17.132,17.132,0,0,0,26.1,430.2a18.844,18.844,0,0,0,2.077-9.136,17.85,17.85,0,0,0-.676-5.172q-.87-3.045-2.756-3.044-3.141,0-5.558,5.509a23.46,23.46,0,0,0-2.078,9.281v.87l-7.154,1.355a76.085,76.085,0,0,1-1.063-14.164,92.414,92.414,0,0,1,1.4-14.888l7.879,1.015a52.487,52.487,0,0,0-1.788,8.507q-.1,1.257-.291,3.336a16.084,16.084,0,0,1,4.158-5.9,9.437,9.437,0,0,1,6.38-2.754q4.543,0,7.251,4.494a20.883,20.883,0,0,1,2.465,10.682" transform="translate(0.876 39.504)" fill="#c7af3e"/><path d="M16.642,488.41a33.788,33.788,0,0,1-9.426,6.574l-5.945-4.253a36.879,36.879,0,0,0,8.556-4.69q-2.175.049-7.251.145l-1.74-5.559q7.588.1,12.423,0l.242-.144a90.987,90.987,0,0,0-8.6-3.868l4.882-4.205q.822.387,2.707,1.258,1.6-1.21,2.949-2.418H.981v-5.124h17.74v-1.4H5.09v-4.2H18.721v-1.354H2.673v-4.882H18.721v-2.658h7.589v2.658H42.551v4.882H26.309v1.354H40.134v4.2H26.309v1.4H44.146v5.124H28.533l6.09,2.949q-5.413,3.579-9.716,6.042,3.238-.145,7.347-.435-.389-.433-1.74-1.692l6.38-2.077a96.513,96.513,0,0,1,8.554,8.119l-7.3,2.37q-.532-.628-1.643-1.935-4.593.339-10.054.677v10.151H18.721V485.7q-.242,0-7.154.241Zm1.208-12.131c.387.192.95.5,1.692.917a94.216,94.216,0,0,0,8.846-5.945H20.412l2.61,1.063q-1.982,1.645-5.172,3.965m26.3,14.258-6.042,4.3a35.534,35.534,0,0,1-9.522-6.669l6.284-3.095a36.916,36.916,0,0,0,9.281,5.462" transform="translate(0.082 44.512)" fill="#c7af3e"/><path d="M7.687,529.828a82.318,82.318,0,0,1-4.738,7.25L0,529.635A79.95,79.95,0,0,0,7.687,517.5v-.773H.967v-6.622h6.72v-7.3H14.55v7.3h5.9v6.622h-5.9v.87a61.836,61.836,0,0,0,6.428,8.266l-2.852,6.622A56.976,56.976,0,0,1,14.55,527.8v18.271H7.687Zm25.472-4.447a63.46,63.46,0,0,1-9.619,15.226l-5.172-4.882a66.7,66.7,0,0,0,11.7-18.9H21.945v-6.719H33.159v-7.4h7.154v7.4H45.05v6.719H40.313v21.849q0,4.253-1.45,5.68T33.3,545.779h-4.35l-1.788-6.525h4.35q1.643,0,1.643-1.788Z" transform="translate(0 49.547)" fill="#c7af3e"/><path d="M35.3,26.827q0,6.575-4.254,9.812-3.724,2.9-10.3,2.9t-10.344-3q-4.255-3.335-4.254-9.861V19.866h8.168v6.187q0,6.333,6.43,6.332,6.333,0,6.332-6.139V0H35.3Z" transform="translate(0.607)" fill="#c7af3e"/></g></svg>