<svg xmlns="http://www.w3.org/2000/svg" xmlns:xlink="http://www.w3.org/1999/xlink" width="496.121" height="440.5" viewBox="0 0 496.121 440.5"><defs><clipPath id="a"><rect width="39.52" height="432.04" fill="#323232"/></clipPath><clipPath id="b"><rect width="38.56" height="412.801" fill="#323232"/></clipPath><clipPath id="c"><rect width="38.68" height="286.919" fill="#323232"/></clipPath><clipPath id="d"><rect width="53.881" height="370.5" fill="#992113"/></clipPath></defs><g transform="translate(6480.041 -1083)"><g transform="translate(-6023.44 1083)"><g clip-path="url(#a)"><path d="M35.8,22.8a12.014,12.014,0,0,1-2.92,8.16,9.094,9.094,0,0,1-7.12,3.36,6.605,6.605,0,0,1-5.96-3.04l2.32-5.8a4.835,4.835,0,0,0,1.38,2,2.814,2.814,0,0,0,1.819.76A3.781,3.781,0,0,0,28.08,26.8a4.765,4.765,0,0,0,1.319-3.32q0-3.881-3.639-3.88-2.76,0-7.4,2.16,0,8.081.2,12.16l-5.88,2.12A54.787,54.787,0,0,0,6.8,30.761q-.482.561-1.4,1.72L1.88,27.041A90.643,90.643,0,0,1,12.6,19.2v-5.88H12.08a17.935,17.935,0,0,1-7.521-1.68L5.88,5.2a11.266,11.266,0,0,0,6.479,2.04h.24Q12.56,2,12.479,0L19,.441q-.24,1.761-.4,5.6a19.105,19.105,0,0,0,4.161-2.36L23.84,9.8a19.772,19.772,0,0,1-5.441,2.64q0,.88-.04,3.76a22.548,22.548,0,0,1,8.721-2.36,8.336,8.336,0,0,1,6.4,2.48A9.1,9.1,0,0,1,35.8,22.8m-23.161,7.52V25.2a32.645,32.645,0,0,0-3.44,2.88ZM38.2,9.161l-3.92,4.88a12.69,12.69,0,0,0-3.659-3.42A18,18,0,0,0,25.6,8.281L28.72,3.2A17.366,17.366,0,0,1,38.2,9.161" fill="#323232"/><path d="M18.759,52.6a35.08,35.08,0,0,1-.92,6.96,29.153,29.153,0,0,1-2.64,7.48q2,1.68,4.28,3.76l-2.92,5.6q-2.44-2.4-4.68-4.44a50.43,50.43,0,0,1-6.68,6.4L.4,74.241a38.98,38.98,0,0,0,7.16-6.04q-3.2-2.719-5.8-4.6,2.28-6.159,3.4-10.36H1.239v-5.52h5.32q.521-2.36,1.12-6.08l6,.64q-.36,2.16-1.12,5.44h6.2ZM10.8,63.481a28.784,28.784,0,0,0,2.64-10.24h-2.56q-1.161,4.281-2.6,8.32.8.6,2.52,1.92m27.64-1.16h-6.96V72q0,3.561-1.32,4.68-1.119,1-4.56,1h-3.12l-1.519-5.8h3.08a1.618,1.618,0,0,0,1.179-.32,1.944,1.944,0,0,0,.3-1.28v-7.96h-6.8v-5.68h6.8v-3.4h.96A52.4,52.4,0,0,0,30,48.561H20.2v-5.48h16.72v5.4q-2.04,2.921-5.44,7v1.16h6.96Z" fill="#323232"/><path d="M38.6,105.96,36,112.04a46.825,46.825,0,0,0-5.161-3.4,24.5,24.5,0,0,1-11,11.68L15,115.96A19.53,19.53,0,0,0,25.4,106a39.217,39.217,0,0,0-6.96-2.08,58.9,58.9,0,0,1-3.88,7.6q-2.6,4-6.6,4a5.7,5.7,0,0,1-4.4-2.06,7.216,7.216,0,0,1-1.84-4.98q0-6,5.72-8.96a16.4,16.4,0,0,1,7.32-1.64q.161-.36,2.96-7.12-1,.2-8.48,1.36L7.96,86.24a64.785,64.785,0,0,0,13.479-1.8l4.16,3.04q-1.52,2.961-4.84,10.96a47.762,47.762,0,0,1,6.44,1.72,35.845,35.845,0,0,0,.56-5.16l6.161.84a45.924,45.924,0,0,1-1,6.64,47.68,47.68,0,0,1,5.679,3.48m-26.2-2.68a6.872,6.872,0,0,0-3.68,1.2,3.9,3.9,0,0,0-1.759,3.28q0,1.641,1.279,1.64.84,0,1.92-1.68a42.282,42.282,0,0,0,2.24-4.44" fill="#323232"/><path d="M5.96,132.88a87.954,87.954,0,0,1-1.681,11.8L0,142.561a66.253,66.253,0,0,0,1.88-11Zm9.92,3L15,136.92h1.88V134.6h4.88v2.319h1.32V133.6H15.319V128.48H22.68v-2.72h6v2.72H36.6V133.6H28.279v3.319h1.4V134.6H34.6v2.319h3.639v5.12h-3.76v2.121H37.72v5.08h-6.8v6.2a1.1,1.1,0,0,0,.1.621.794.794,0,0,0,.5.1h.4a.859.859,0,0,0,.939-.621,22.667,22.667,0,0,0,.181-3.939l4.92,1.4q0,5.481-.761,7-.839,1.641-3.96,1.641h-4.2a6.062,6.062,0,0,1-3.12-.52q-.88-.683-.88-3.04v-8.84h-4l3.319,1.279a18.827,18.827,0,0,1-2.639,6.76A16.37,16.37,0,0,1,16,162.32l-4.561-4.239,1.2-.6q-1.881-2.52-2.84-4.12a32.577,32.577,0,0,1-5.16,9.281L.359,158.2a26.333,26.333,0,0,0,4.8-8.921,34.813,34.813,0,0,0,1.16-9.679V125.92H11.76v7.56q1.039-1.239,2.12-2.68Zm-2.28,2.56q-.921.961-1.84,1.84v1.04a40.022,40.022,0,0,1-.321,5.04,40.564,40.564,0,0,0,4.441,6.52l-2.561,4.241a11.531,11.531,0,0,0,5.721-7.88H14.2v-5.08H16.88V142.04H13.6Zm15.48,3.6h-6.8v2.12h6.8Z" fill="#323232"/><path d="M37.159,181.08a8.575,8.575,0,0,1-3.56,7.08,17.762,17.762,0,0,1-7.519,3.16L22,186.16a18.047,18.047,0,0,0,5.159-1.28q3.281-1.359,3.28-3.48,0-1.92-2.439-1.92-3.282,0-11.32,4.56,6.24,10.28,10.24,17.32l-6.16,3.2A190.815,190.815,0,0,0,11.279,187.2q-3.641,2.2-5.8,3.72l-3.92-5.16Q3.6,184.6,8,182.04q-1.521-2.319-2.92-4.16l5.96-3q.96,1.52,2.519,4.08,1.721-.96,5.4-2.8a31.3,31.3,0,0,0-8.721-3.88l3.2-4.84a33.827,33.827,0,0,1,9.04,3.72L19.76,175.8a22.785,22.785,0,0,1,9-2.4,8.776,8.776,0,0,1,5.96,2.12,7.013,7.013,0,0,1,2.439,5.56" fill="#323232"/><path d="M7.519,235.48a59.723,59.723,0,0,1-4.32,6.039l-2.68-5.84a48,48,0,0,0,5.88-8.4H1.319v-5.321h6.2v-2.12l-4.2,1.361q-1-4.119-2.4-8.16l4.28-1.6q1.322,3.88,2.32,8.04v-9.561h5.44v9.04q1.32-3.92,2.24-7.719l4.041,1.479a66.233,66.233,0,0,1-2.761,8.24l-3.52-1.32v2.32H17.12v.481a44.833,44.833,0,0,0,4.639-12.6l5.04,1.76a53.4,53.4,0,0,1-3.2,10.24h7.28a57.136,57.136,0,0,1-3.24-10.24l5.2-1.84a50.323,50.323,0,0,0,6.68,15.321l-3.76,3.04v8q0,6.279-1.48,8.08-1.161,1.44-5,1.439h-2.64L25.12,240.16h2.759q1.56,0,1.92-.9a18.863,18.863,0,0,0,.36-4.939v-7.04h-2.4q-.76,12.081-6.2,19l-5.04-3.361a24.244,24.244,0,0,0,4.24-6.879,27.437,27.437,0,0,0,1.72-8.76h-1.6q-.24.441-.88,1.439l-2.879-2.4v.96h-3q1.44,2.158,4.839,6.319l-2.68,5.28q-1.879-2.439-3.32-4.719v11.8H7.519Z" fill="#323232"/><path d="M34.04,277.4a10.178,10.178,0,0,1-3.44,8.08,11.935,11.935,0,0,1-8.081,2.76q-5.319,0-8.259-2.861t-2.941-8.1q0-1.641.08-2.521-5.4-2.119-6.08-6.6l4.761-3.441a4.2,4.2,0,0,0,2.359,3.92q.44-1.957,1.4-5.08-4.722-.6-9.321-.76L7.04,257.16a64.865,64.865,0,0,1,8.6.8q.8-2.241,2.36-6.56l6.479,1.64a82.337,82.337,0,0,0-6.16,17.12,26.123,26.123,0,0,0,4.04-.08l.681,5.96a35.9,35.9,0,0,1-5.6.04v.479q0,5.521,4.72,5.521a4.755,4.755,0,0,0,3.881-1.64,5.907,5.907,0,0,0,1.239-3.921,11.175,11.175,0,0,0-1.04-4.46A13.471,13.471,0,0,0,23.56,268l6.719-.72A14.737,14.737,0,0,1,34.04,277.4" fill="#323232"/><path d="M36.76,311.36a15.96,15.96,0,0,1-4.52,11.6,23,23,0,0,1-11.4,6l-3.76-5.84a20.237,20.237,0,0,0,8.88-3.679,10.012,10.012,0,0,0,4.08-8.241,7.845,7.845,0,0,0-2.62-6.24,9.783,9.783,0,0,0-6.66-2.28,12.109,12.109,0,0,0-1.32.08l4.72,3.28a87.576,87.576,0,0,1-3.68,8.441,38.081,38.081,0,0,1-4.56,7.559,7.3,7.3,0,0,1-5.72,2.8,6.577,6.577,0,0,1-4.96-2.6,11.454,11.454,0,0,1-2.6-7.72A16.243,16.243,0,0,1,8.4,301.6a19.181,19.181,0,0,1,13-4.64q6.76,0,10.96,3.72,4.4,3.921,4.4,10.68M18.6,302.88a12.182,12.182,0,0,0-6.96,3.8,10.7,10.7,0,0,0-2.92,7.44,5.007,5.007,0,0,0,.64,2.6q.56.921,1.2.92,1.32,0,3.32-3.88a82.983,82.983,0,0,0,4.72-10.88" fill="#323232"/><path d="M8.2,361a50.906,50.906,0,0,1-4.88,6.4L1,361.52a50.89,50.89,0,0,0,6.319-8.4H1.72V347.8h6.6v-2.28L3.76,347.08A83.531,83.531,0,0,0,1.2,338.96l4.561-1.72a81.665,81.665,0,0,1,2.559,8.28v-9.6H13.6v8.6q1.36-3.759,2.361-7.52l4.359,1.64a61.446,61.446,0,0,1-3,8.2L13.6,345.4v2.4H19.96V351l3.16-3.04A32.238,32.238,0,0,1,28.4,353.4l-3.84,3.72a37.587,37.587,0,0,0-4.6-5v1H14.679a63.672,63.672,0,0,0,4.92,6.4v-.24l9.481-1.44V344.2l-3.761,3.6a35.994,35.994,0,0,0-5.12-5.48l3.761-3.68A30.982,30.982,0,0,1,29.08,344v-7.92H35v20.84l3.639-.56v6.08L35,363v8.84H29.08v-7.92L19.6,365.36v-4.68l-2.32,4.52a56.1,56.1,0,0,1-3.6-5.04v11.72H8.2Z" fill="#323232"/><path d="M13.64,408.32a77.069,77.069,0,0,1-11.96,2.16L1,404.84q2.4-.2,4.239-.44v-7.881H2.08V391.08H5.239v-5.96H1.76V379.6h12.6v5.52H11.08v5.96h2.76v5.439H11.08V403.4q1.8-.4,3.239-.76v5.24h8.84v-2.56H15.4v-5.04h7.76v-2.04H15.68V379H36.72v19.24H29.04v2.04h8.08v5.04H29.04v2.56H38.2v5.4H13.64ZM23.4,384.2h-2.52v2.479H23.4Zm0,6.84h-2.52v2.479H23.4Zm8.121-6.84H28.8v2.479h2.72Zm0,6.84H28.8v2.479h2.72Z" fill="#323232"/><path d="M38.479,427.44l-5.439,4.6a40.128,40.128,0,0,0-8.361-8.481l5.361-4.439a50.843,50.843,0,0,1,8.439,8.32" fill="#323232"/></g></g><g transform="translate(-6087 1083)"><g clip-path="url(#b)"><path d="M32.4,34.12a79.668,79.668,0,0,1-13.04,1.08,20.611,20.611,0,0,1-9-1.68,7.668,7.668,0,0,1-4.6-7.36q0-6.36,8.8-10.8A95.308,95.308,0,0,1,13.759,0l6.72.24q-.24,3-.239,6.72,0,3.2.2,5.96,3.321-1.159,8.08-2.44L30.6,16.6A77.519,77.519,0,0,0,19.96,19.36q-7.521,2.8-7.521,6.4,0,3.281,6.641,3.28A57.33,57.33,0,0,0,31.8,27.52Z" fill="#323232"/><path d="M37.12,65.881q-5.44,11.16-12.24,11.16A6.777,6.777,0,0,1,18,72.281q-.12-.4-.36-1.16a16.63,16.63,0,0,0-1.2-3.04,2.281,2.281,0,0,0-1.92-1.44,4.632,4.632,0,0,0-2.639,1.24A10.055,10.055,0,0,0,9.6,71.641q-.039.2-1.839,5.16l-6.64-1.88a282.38,282.38,0,0,1,14.319-32.28L22.08,44.8a164.566,164.566,0,0,0-9.2,16.88,8.047,8.047,0,0,1,4.2-1.32q3.479,0,4.96,3.96.12.321.359.92a35.046,35.046,0,0,0,1.241,3.28q.68,1.36,1.639,1.36,3.321,0,7.12-9.48Z" fill="#323232"/><path d="M25.44,100.76a51.24,51.24,0,0,1-.66,7.3,38.11,38.11,0,0,1-1.38,6.46,7.96,7.96,0,0,1-2.02,3.44,4.949,4.949,0,0,1-3.179,1,13.852,13.852,0,0,1-5.841-1.48l.08-6.28A8.5,8.5,0,0,0,16,112.44a1.865,1.865,0,0,0,1.8-1.48,31.229,31.229,0,0,0,1.08-4.84,31.212,31.212,0,0,0,.44-4.52,3.972,3.972,0,0,0-.5-2.44q-.5-.561-2.42-.56c-.054,0-.293.014-.72.04a139.26,139.26,0,0,1-8.64,20.32l-5.959-2.52A90.447,90.447,0,0,0,9.28,99.6a50.594,50.594,0,0,0-6.44,1.76l-1.6-5.76q5.077-1.239,9.96-2.08,1.32-4.839,2.04-9.08l6.359.96q-.641,2.32-2.08,7.4h.2q4.08-.039,5.84,1.64,1.88,1.8,1.88,6.32m13.12,3.44-5.68,2.88A33.584,33.584,0,0,0,25.8,94.36l5.24-2.96a35.756,35.756,0,0,1,7.52,12.8" fill="#323232"/><path d="M36.24,142.161a12.485,12.485,0,0,1-5.721,10.68q-4.839,3.4-14.16,5.12l-3.559-6.08q8.317-.96,12.4-3.36,3.879-2.28,3.88-5.8,0-4.2-5.8-4.2-3.719,0-10.56,2.28A68.225,68.225,0,0,0,3.8,144.4l-2.88-6.12a108.253,108.253,0,0,1,10.679-3.72q7.921-2.319,12.4-2.32,6.277,0,9.559,3.28a9.106,9.106,0,0,1,2.681,6.64" fill="#323232"/><path d="M36.279,181.04a8.575,8.575,0,0,1-3.56,7.08,17.761,17.761,0,0,1-7.519,3.16l-4.08-5.16a18.047,18.047,0,0,0,5.159-1.28q3.281-1.359,3.28-3.48,0-1.92-2.439-1.92-3.282,0-11.32,4.56,6.24,10.279,10.24,17.32l-6.16,3.2A190.815,190.815,0,0,0,10.4,187.16q-3.641,2.2-5.8,3.72l-3.92-5.16Q2.72,184.561,7.12,182,5.6,179.681,4.2,177.84l5.96-3q.96,1.52,2.519,4.08,1.721-.96,5.4-2.8a31.3,31.3,0,0,0-8.721-3.88l3.2-4.84a33.828,33.828,0,0,1,9.04,3.72l-2.719,4.64a22.785,22.785,0,0,1,9-2.4,8.776,8.776,0,0,1,5.96,2.12,7.013,7.013,0,0,1,2.439,5.56" fill="#323232"/><path d="M12.96,231.119q-1.36.641-3.04,1.242v8.478q0,2.842-1.021,3.9a4.477,4.477,0,0,1-3.34,1.059H2.4L.96,240.119H2.72a2.045,2.045,0,0,0,1.28-.28q.319-.277.319-1.319V234q-1.56.362-3.279.64L0,228.759q1.838-.28,4.319-.8V222.4H.8v-5.761H4.319v-6.72h5.6v6.72h3.24V222.4H9.92v4.079q1.4-.479,2.84-1.079v-.481H37.639v4.442H22.84q-.241.278-1.04,1.239H36.359v7.841q0,4.878-.84,6.159t-4.24,1.28h-2.96L27.24,242a34.936,34.936,0,0,1-3.44,4.12l-4.64-2.159a38.83,38.83,0,0,0,7.2-9.2H24.84a44.082,44.082,0,0,1-8.68,9.72L11.6,241.96a39.869,39.869,0,0,0,7.88-7.2h-1.6a45.171,45.171,0,0,1-3.561,3.04L10,235.079a45.249,45.249,0,0,0,6.84-5.718H12.96Zm22.359-7.4h-20.8V210.44h20.8Zm-5.68-9.08H20.16v1.241h9.479Zm0,4.36H20.16v1.2h9.479Zm1.561,15.76a34.294,34.294,0,0,1-3.561,6.682H29.4q1.44,0,1.761-.962a11.87,11.87,0,0,0,.119-2.28v-3.44Z" fill="#323232"/><path d="M13.2,273a25.123,25.123,0,0,0-1.921,9.8l-5.92,1.92a45.289,45.289,0,0,1-2.239-14.96A77.065,77.065,0,0,1,4.959,254l6.561,1.16A58.481,58.481,0,0,0,8.8,271.72a18.625,18.625,0,0,0,.241,3.08,20.273,20.273,0,0,1,1.719-4.12Zm22.278-7.2a43.367,43.367,0,0,0-6.438.481l.08,4.76q0,10.121-8.4,17.639L15,285.441q4.8-4.322,6.4-7.6a17.971,17.971,0,0,0,1.56-8.04q0,.162-.08-2.359a47.907,47.907,0,0,0-8.119,2.479l-.281-5.8a43.461,43.461,0,0,1,8.16-2.76q-.319-6.721-.518-8.882l6.678.321q.041,3,.121,7.32,2.679-.439,6.359-.8Zm-1.119-8.08-2.8.96a20.27,20.27,0,0,0-2.358-4.92l2.559-.96a21.551,21.551,0,0,1,2.6,4.92M38.52,256l-2.8,1.04a20.142,20.142,0,0,0-2.6-4.88l2.6-1.04a19.475,19.475,0,0,1,2.8,4.88" fill="#323232"/><path d="M33.16,319.361a10.178,10.178,0,0,1-3.44,8.08,11.935,11.935,0,0,1-8.081,2.76q-5.319,0-8.259-2.861t-2.941-8.1q0-1.641.08-2.521-5.4-2.119-6.08-6.6L9.2,306.68a4.2,4.2,0,0,0,2.359,3.92q.44-1.957,1.4-5.08-4.722-.6-9.321-.76l2.521-5.639a64.865,64.865,0,0,1,8.6.8q.8-2.241,2.36-6.56L23.6,295a82.336,82.336,0,0,0-6.16,17.12,26.123,26.123,0,0,0,4.04-.08L22.16,318a35.9,35.9,0,0,1-5.6.04v.479q0,5.521,4.72,5.521a4.755,4.755,0,0,0,3.881-1.64A5.907,5.907,0,0,0,26.4,318.48a11.175,11.175,0,0,0-1.04-4.46,13.471,13.471,0,0,0-2.679-4.059l6.719-.72a14.737,14.737,0,0,1,3.761,10.12" fill="#323232"/><path d="M35.88,353.32a15.96,15.96,0,0,1-4.52,11.6,23,23,0,0,1-11.4,6l-3.76-5.84a20.237,20.237,0,0,0,8.88-3.679,10.012,10.012,0,0,0,4.08-8.241,7.845,7.845,0,0,0-2.62-6.24,9.783,9.783,0,0,0-6.66-2.28,12.108,12.108,0,0,0-1.32.08L23.28,348a87.577,87.577,0,0,1-3.68,8.441A38.08,38.08,0,0,1,15.04,364a7.3,7.3,0,0,1-5.72,2.8,6.577,6.577,0,0,1-4.96-2.6,11.455,11.455,0,0,1-2.6-7.72,16.243,16.243,0,0,1,5.76-12.92,19.181,19.181,0,0,1,13-4.64q6.76,0,10.96,3.72,4.4,3.921,4.4,10.68m-18.16-8.48a12.182,12.182,0,0,0-6.96,3.8,10.7,10.7,0,0,0-2.92,7.44,5.007,5.007,0,0,0,.64,2.6q.56.921,1.2.92,1.32,0,3.32-3.88a82.981,82.981,0,0,0,4.72-10.88" fill="#323232"/><path d="M15.08,398.8a25.155,25.155,0,0,0-2.521,6,19.779,19.779,0,0,0-.92,6.44l-6.08,1.56a66.539,66.539,0,0,1-1.719-15.48,58.055,58.055,0,0,1,2.96-17.64l6.28,1.84a46.952,46.952,0,0,0-2.4,8.08,45.535,45.535,0,0,0-1.04,8.32,20.846,20.846,0,0,0,.121,3.12,51.164,51.164,0,0,1,2.759-5Zm20.519,6.04-2.24,6.72q-7-.12-10.68-2.04a11.2,11.2,0,0,1-5.639-7.76l5.359-4.08a10.474,10.474,0,0,0,1.96,4.36,7.529,7.529,0,0,0,4.681,2.44,42.088,42.088,0,0,0,6.559.36m-2.359-21-.841,6.28a22.031,22.031,0,0,1-2.6.12,34.886,34.886,0,0,1-6.361-.6,18.355,18.355,0,0,1-5.2-1.64l2.68-5.72q3.48,1.682,9.8,1.68,1.161,0,2.521-.12" fill="#323232"/></g></g><g transform="translate(-6405.68 1083)"><g clip-path="url(#c)"><path d="M7.16,22.319a67.723,67.723,0,0,1-4,6.161L.72,22.319a64.1,64.1,0,0,0,6.44-10.2v-.6H1.72V6.04H7.16V0h5.72V6.04H17.8v5.48H12.88V12.6a50.6,50.6,0,0,0,5.36,6.88l-2.32,5.48q-1.6-1.879-3.04-3.96V35.8H7.16Zm30,13.4h-5.8V33.48H25v2.239H19.24V.96H37.16Zm-5.8-28.96H25v3.6h6.359Zm0,8.761H25v3.36h6.359Zm0,8.52H25v3.68h6.359Z" fill="#323232"/><path d="M6.12,48.759A92.968,92.968,0,0,1,4.2,61.039L0,58.719a84.873,84.873,0,0,0,2-11.36Zm6,29.04H6.24V41.839h5.88v4.48l2.2-1.16q1.08,2.52,2.2,5.92a62.4,62.4,0,0,0,1.361-7.76l5.08,1q-.36,2.361-.68,4.08h2.079v-6.32h5.6V48.4h7.92v5.52H29.96v5.72H36.6v5.4H29.96v6.48h8.36v5.56h-23.8v-5.56H24.08v-6.48H16.72v-5.4h7.36v-5.72h-3a43.9,43.9,0,0,1-1.32,4.32l-5-1.72q.36-.92.8-2.2l-2.04,1.2q-.719-2.88-1.4-5Z" fill="#323232"/><path d="M18.4,96.2A68.139,68.139,0,0,1,6.28,114.24l-5.561-4A54.725,54.725,0,0,0,12.28,93.04Zm20.28,11.84-5.759,4.28A68.056,68.056,0,0,0,20.96,96l5.559-3.92a79.62,79.62,0,0,1,12.16,15.96M32.84,91l-2.92,1.56a22.632,22.632,0,0,0-3.281-4.92l2.681-1.48A24.456,24.456,0,0,1,32.84,91m4.44-2.561L34.4,90.12a22.849,22.849,0,0,0-3.519-4.84l2.719-1.6a21.029,21.029,0,0,1,3.681,4.759" fill="#323232"/><path d="M19.92,142.079l-5.04,2.12a29.558,29.558,0,0,0-3.8-7.84l4.72-2.24a31.623,31.623,0,0,1,4.12,7.96m18.321-8.28a65.313,65.313,0,0,1-5.361,12.88,53.843,53.843,0,0,1-8.44,11.48l-5.68-2.52a48.764,48.764,0,0,0,8.96-11.28,47.218,47.218,0,0,0,4.8-12.24Zm-10.521,5.56-5.08,1.72A34.624,34.624,0,0,0,19.36,133l5.04-2a31.987,31.987,0,0,1,3.32,8.36" fill="#323232"/><path d="M37.16,186.639q-6.041-.159-13.16.28a23.594,23.594,0,0,1-2.561,9.36,24.981,24.981,0,0,1-7.239,7.84l-5.721-3.76a24.459,24.459,0,0,0,6.481-5.56,14.64,14.64,0,0,0,2.84-7.4,128.53,128.53,0,0,0-14.48,2.16l-.44-6.04q6.719-.96,14.96-1.8-.042-1.8-.12-4.32-4.44,1.12-8.44,1.76l-2.721-5.32a90.961,90.961,0,0,0,11.2-2.36A64.556,64.556,0,0,0,27.519,168l3,5.44q-3.718,1.36-6.439,2.2.079,3.2.08,5.52,7.038-.521,12.88-.52Z" fill="#323232"/><path d="M16.04,212.839q-.281,5.4-.28,10.321,0,4.56.16,8.04l-6.28.88q-.321-4.161-.319-12.361,0-4.837.079-7.08Zm14.76,9.68a30.225,30.225,0,0,1-10.72,23.6l-5.84-3.481a31.955,31.955,0,0,0,7.6-8.88,24.8,24.8,0,0,0,2.4-11.479q0-4.881-.28-11.8H30.8Z" fill="#323232"/><path d="M36.96,269.319a15.96,15.96,0,0,1-4.52,11.6,23,23,0,0,1-11.4,6l-3.76-5.84a20.237,20.237,0,0,0,8.88-3.679,10.012,10.012,0,0,0,4.08-8.241,7.845,7.845,0,0,0-2.62-6.24,9.783,9.783,0,0,0-6.66-2.28,12.108,12.108,0,0,0-1.32.08L24.36,264a87.577,87.577,0,0,1-3.68,8.441A38.079,38.079,0,0,1,16.12,280a7.3,7.3,0,0,1-5.72,2.8,6.577,6.577,0,0,1-4.96-2.6,11.455,11.455,0,0,1-2.6-7.72,16.243,16.243,0,0,1,5.76-12.92,19.181,19.181,0,0,1,13-4.64q6.76,0,10.96,3.72,4.4,3.921,4.4,10.68m-18.16-8.48a12.182,12.182,0,0,0-6.96,3.8,10.7,10.7,0,0,0-2.92,7.44,5.007,5.007,0,0,0,.64,2.6q.559.921,1.2.92,1.32,0,3.32-3.88a82.979,82.979,0,0,0,4.72-10.88" fill="#323232"/></g></g><g transform="translate(-6480.041 1153)"><path d="M23.94,0V9.18h20.7V23.16h9.24V0Z" fill="#992113"/><g clip-path="url(#d)"><path d="M21.781,117.18l-9,4.439a75.362,75.362,0,0,0-4.38-8.67,49.754,49.754,0,0,0-5.04-7.409l8.759-4.621a60.834,60.834,0,0,1,9.661,16.261m27.9-14.7a120.476,120.476,0,0,1-9,22.86,95.454,95.454,0,0,1-16.38,22.92l-9-5.159a78.767,78.767,0,0,0,16.5-21.661A94.073,94.073,0,0,0,39.96,98.82Z" fill="#992113"/><path d="M32.04,159.72q-.48,10.2-.479,26.819,0,13.8.24,24.12H21.36q.3-12.658.3-30.059,0-16.2-.18-20.88Z" fill="#992113"/><path d="M51.721,261.72l-6.54,7.62a98.517,98.517,0,0,0-16.5-14.94,114.2,114.2,0,0,1-19.5,16.86l-7.141-6.6A101.591,101.591,0,0,0,20.1,250.5,65.555,65.555,0,0,0,30.96,236.76q-7.38.72-22.139,2.279l-.6-9.179q4.2-.18,15.9-1.14,9.9-.78,15.3-1.5l6.06,4.74a144.1,144.1,0,0,1-10.8,15.48,138.208,138.208,0,0,1,17.04,14.28" fill="#992113"/><path d="M25.08,329.16l-4.2,8.4L10.62,332.4l4.2-8.34ZM43.8,290.58,25.62,324.961l-7.979-3.841L33.66,285.54Z" fill="#992113"/><path d="M29.94,370.5H0V347.34H9.24v13.979h20.7Z" fill="#992113"/><path d="M43.666,66.373q0,8.16-5.281,12.18-4.62,3.6-12.779,3.6t-12.84-3.72q-5.28-4.14-5.28-12.24v-8.46H17.625v7.68q0,7.861,7.981,7.86,7.86,0,7.859-7.62V33.073h10.2Z" fill="#992113"/></g></g></g></svg>