<svg xmlns="http://www.w3.org/2000/svg" width="557.795" height="27.54" viewBox="0 0 557.795 27.54"><g transform="translate(6986.615 -5249.448)"><path d="M-141.525-6.84a7.169,7.169,0,0,1-2.64,6.09,10.157,10.157,0,0,1-6.39,1.8,10.052,10.052,0,0,1-6.42-1.86,7.3,7.3,0,0,1-2.64-6.12v-4.23h5.07v3.84q0,3.93,3.99,3.93,3.93,0,3.93-3.81V-23.49h5.1Zm28.98-14.43a60.2,60.2,0,0,1-4.5,11.43,47.733,47.733,0,0,1-8.19,11.46l-4.5-2.58a39.373,39.373,0,0,0,8.25-10.83,47.057,47.057,0,0,0,4.08-11.31Zm-13.95,7.35L-131-11.7a37.6,37.6,0,0,0-2.19-4.335,24.8,24.8,0,0,0-2.52-3.7l4.38-2.31A30.384,30.384,0,0,1-126.5-13.92Zm44.76,3.93q-1.74-.09-4.14-.09a176.031,176.031,0,0,0-19.89,1.02l-.3-4.95q4.35-.39,10.14-.66,8.49-.39,14.16-.3Zm30.21,5.34L-54.8-.84a49.217,49.217,0,0,0-8.25-7.47A57.064,57.064,0,0,1-72.8.12l-3.57-3.3a50.839,50.839,0,0,0,9.03-7.08,32.781,32.781,0,0,0,5.43-6.87q-3.69.36-11.07,1.14l-.3-4.59q2.1-.09,7.95-.57,4.95-.39,7.65-.75l3.03,2.37a72.006,72.006,0,0,1-5.4,7.74A69.1,69.1,0,0,1-51.525-4.65Zm28.47-15.69-.63,4.71a16.532,16.532,0,0,1-1.95.09,26.162,26.162,0,0,1-4.77-.45,13.793,13.793,0,0,1-3.9-1.23l2.01-4.29a17.288,17.288,0,0,0,7.35,1.26Q-24.075-20.25-23.055-20.34Zm1.77,15.75L-22.965.45a18.44,18.44,0,0,1-8.01-1.53,8.4,8.4,0,0,1-4.23-5.82l4.02-3.06a7.841,7.841,0,0,0,1.47,3.27,5.649,5.649,0,0,0,3.51,1.83A31.584,31.584,0,0,0-21.285-4.59Zm-15.39-4.53a18.894,18.894,0,0,0-1.89,4.5,14.827,14.827,0,0,0-.69,4.83l-4.56,1.17a49.877,49.877,0,0,1-1.29-11.61,43.554,43.554,0,0,1,2.22-13.23l4.71,1.38a35.209,35.209,0,0,0-1.8,6.06,34.037,34.037,0,0,0-.78,6.24,15.621,15.621,0,0,0,.09,2.34,38.5,38.5,0,0,1,2.07-3.75ZM9.075,2.07H4.725V.39H-.045V2.07h-4.32V-24H9.075ZM4.725-16.95v-2.7H-.045v2.7Zm0,6.39v-2.52H-.045v2.52Zm0,6.63V-6.69H-.045v2.76Zm-18.15-4.05a50.727,50.727,0,0,1-3,4.62l-1.83-4.62a48.041,48.041,0,0,0,4.83-7.65v-.45h-4.08v-4.11h4.08v-4.53h4.29v4.53h3.69v4.11h-3.69v.81a37.982,37.982,0,0,0,4.02,5.16L-6.855-6q-1.2-1.41-2.28-2.97V2.13h-4.29ZM20.295,2.13h-4.41V-24.84h4.41v3.36l1.65-.87q.81,1.89,1.65,4.44a46.915,46.915,0,0,0,1.02-5.82l3.81.75q-.27,1.77-.51,3.06h1.56v-4.74h4.2v4.74h5.94v4.14h-5.94v4.29h4.98v4.05h-4.98v4.86h6.27V1.59H22.095V-2.58h7.17V-7.44h-5.52v-4.05h5.52v-4.29h-2.25a33,33,0,0,1-.99,3.24l-3.75-1.29q.27-.69.6-1.65l-1.53.9q-.54-2.16-1.05-3.75Zm-4.5-21.78a69.567,69.567,0,0,1-1.44,9.21L11.2-12.18a63.4,63.4,0,0,0,1.5-8.52Zm53.37-1.74L67-20.13a17.107,17.107,0,0,0-2.64-3.63l2.04-1.2A15.74,15.74,0,0,1,69.165-21.39Zm-3.33,1.92-2.19,1.17a16.918,16.918,0,0,0-2.46-3.69l2.01-1.11A18.307,18.307,0,0,1,65.835-19.47Zm4.38,12.78-4.32,3.21a51.022,51.022,0,0,0-8.97-12.24l4.17-2.94A59.762,59.762,0,0,1,70.215-6.69ZM55-15.57a51.132,51.132,0,0,1-9.09,13.53l-4.17-3a41.037,41.037,0,0,0,8.67-12.9Zm33.39,3.63-3.81,1.29a25.944,25.944,0,0,0-2.46-6.06l3.78-1.5A23.98,23.98,0,0,1,88.395-11.94Zm7.89-4.17a48.927,48.927,0,0,1-4.02,9.66,40.4,40.4,0,0,1-6.33,8.61L81.675.27a36.552,36.552,0,0,0,6.72-8.46,35.4,35.4,0,0,0,3.6-9.18ZM82.545-9.9l-3.78,1.59a22.135,22.135,0,0,0-2.85-5.88l3.54-1.68A23.7,23.7,0,0,1,82.545-9.9Zm46.53-.84q-4.53-.12-9.87.21a17.7,17.7,0,0,1-1.92,7.02,18.741,18.741,0,0,1-5.43,5.88l-4.29-2.82a18.326,18.326,0,0,0,4.86-4.17,10.97,10.97,0,0,0,2.13-5.55A96.317,96.317,0,0,0,103.7-8.55l-.33-4.53q5.04-.72,11.22-1.35-.03-1.35-.09-3.24-3.33.84-6.33,1.32l-2.04-3.99a68.357,68.357,0,0,0,8.4-1.77,48.456,48.456,0,0,0,7.32-2.61l2.25,4.08q-2.79,1.02-4.83,1.65.06,2.4.06,4.14,5.28-.39,9.66-.39Zm25.23-4.59a22.667,22.667,0,0,1-8.04,17.7l-4.38-2.61a23.992,23.992,0,0,0,5.7-6.66,18.6,18.6,0,0,0,1.8-8.61q0-3.66-.21-8.85h5.13Zm-11.07-7.26q-.21,4.05-.21,7.74,0,3.42.12,6.03l-4.71.66q-.24-3.12-.24-9.27,0-3.63.06-5.31Z" transform="translate(-6827 5274.618)" fill="#c7af3e"/><path d="M-92.16-11.73a11.97,11.97,0,0,1-3.39,8.7,17.252,17.252,0,0,1-8.55,4.5l-2.82-4.38a15.172,15.172,0,0,0,6.66-2.76,7.507,7.507,0,0,0,3.06-6.18,5.881,5.881,0,0,0-1.965-4.68,7.334,7.334,0,0,0-5-1.71,9.021,9.021,0,0,0-.99.06l3.54,2.46a65.619,65.619,0,0,1-2.76,6.33,28.5,28.5,0,0,1-3.42,5.67,5.479,5.479,0,0,1-4.29,2.1,4.934,4.934,0,0,1-3.72-1.95,8.594,8.594,0,0,1-1.95-5.79,12.181,12.181,0,0,1,4.32-9.69,14.386,14.386,0,0,1,9.75-3.48,11.937,11.937,0,0,1,8.22,2.79A10.183,10.183,0,0,1-92.16-11.73Zm-13.62-6.36A9.137,9.137,0,0,0-111-15.24a8.022,8.022,0,0,0-2.19,5.58,3.759,3.759,0,0,0,.48,1.95q.42.69.9.69.99,0,2.49-2.91A62.194,62.194,0,0,0-105.78-18.09Zm42.66,6.72a74.462,74.462,0,0,1-8.34,6.33A92.994,92.994,0,0,1-81.03.48L-84-2.22q.06-1.8.06-12.39,0-5.16-.09-7.11h4.89q-.06,2.76-.12,11.28v4.56A60.332,60.332,0,0,0-64.95-16.29Zm20.01-7.41-3.42,3.09a21.381,21.381,0,0,0-4.98-4.65l3.21-3.36A23.071,23.071,0,0,1-43.11-18.78Zm11.07,6.39A87.3,87.3,0,0,1-40.65-5.1q-4.83,3.6-10.14,6.81l-3.15-4.05A79.812,79.812,0,0,0-34.35-16.53Zm-16.89-.51-3.33,3.24a31.074,31.074,0,0,0-4.95-4.29l3.12-3.33A21.5,21.5,0,0,1-48.93-12.9Zm47.34-9.06a3.174,3.174,0,0,1-.945,2.31,3.1,3.1,0,0,1-2.3.96,3.115,3.115,0,0,1-2.28-.96,3.149,3.149,0,0,1-.96-2.31,3.066,3.066,0,0,1,.96-2.265,3.139,3.139,0,0,1,2.28-.945,3.125,3.125,0,0,1,2.3.945A3.09,3.09,0,0,1-1.59-21.96ZM-4.5-.03A109.992,109.992,0,0,1-16.35.63,13.134,13.134,0,0,1-21.6-.12q-2.22-1.08-2.22-4.2l-.03-17.97h4.8q-.06,1.59-.15,8.22a55.515,55.515,0,0,0,9.75-6l3.27,3.63A83.863,83.863,0,0,1-19.26-9.33V-6.3a2.53,2.53,0,0,0,.585,1.965,3.551,3.551,0,0,0,2.2.495q1.98,0,5.67-.3,3.87-.3,6.03-.66Zm1.29-21.93a1.532,1.532,0,0,0-.465-1.125A1.568,1.568,0,0,0-4.83-23.55a1.532,1.532,0,0,0-1.125.465A1.532,1.532,0,0,0-6.42-21.96a1.619,1.619,0,0,0,.465,1.17,1.509,1.509,0,0,0,1.125.48,1.543,1.543,0,0,0,1.155-.48A1.619,1.619,0,0,0-3.21-21.96ZM25.17-9.69l-3.39,3.9a37.3,37.3,0,0,0-4.44-3.36A51.059,51.059,0,0,1,6.51,1.62L2.37-1.44A45.435,45.435,0,0,0,13.38-11.58q-2.94-1.65-5.34-2.73L11.1-18q2.4,1.02,5.04,2.46a43.126,43.126,0,0,0,3.93-8.01l4.74,1.95a73.678,73.678,0,0,1-4.65,8.4A47.986,47.986,0,0,1,25.17-9.69Zm28.08-6q-2.91.39-8.04.78-4.38.33-8.55.48l-.27-4.74q2.76,0,7.98-.36,4.59-.33,8.55-.96ZM58.14-3.27q-1.26-.03-3.36-.03A179.329,179.329,0,0,0,32.34-1.92l-.33-4.8q13.53-1.26,25.86-1.5ZM86.28-2.01q-.75-.03-.96-.03-5.16,0-10.62.33-6.09.36-10.35.87l-.3-4.08q3.48-.27,10.5-.78l1.32-.06q.69-4.17.87-5.7l-8.58.87-.3-4.08q1.74-.03,6.48-.48,3.93-.36,5.25-.57l2.1,1.47Q81.33-12.72,80.16-6q4.02-.21,5.97-.27Zm30.9-7.98q-1.74-.09-4.14-.09A176.031,176.031,0,0,0,93.15-9.06l-.3-4.95q4.35-.39,10.14-.66,8.49-.39,14.16-.3Z" transform="translate(-6546 5274.618)" fill="#fff"/></g></svg>