<svg xmlns="http://www.w3.org/2000/svg" width="294.558" height="21.098" viewBox="0 0 294.558 21.098"><path d="M18.964-12.166H3.036v-5.786H18.964ZM15.708-15.62v-.55H6.292v.55Zm0,1.892v-.55H6.292v.55Zm5.06,4.444H1.254v-2.332H20.768Zm.044,10.648H1.078V-.924H9.284V-1.5H2.134V-3.234h7.15v-.55H2.838V-8.756h16.28v4.972H12.606v.55h7.15V-1.5h-7.15v.572h8.206ZM15.8-6.842v-.594h-3.19v.594Zm0,1.694V-5.72h-3.19v.572ZM9.284-6.842v-.594H6.16v.594Zm0,1.694V-5.72H6.16v.572ZM42.416-8.6a8.778,8.778,0,0,1-2.486,6.38,12.652,12.652,0,0,1-6.27,3.3L31.592-2.134a11.126,11.126,0,0,0,4.884-2.024A5.505,5.505,0,0,0,38.72-8.69a4.313,4.313,0,0,0-1.441-3.432,5.378,5.378,0,0,0-3.663-1.254,6.615,6.615,0,0,0-.726.044l2.6,1.8a48.122,48.122,0,0,1-2.024,4.642,20.9,20.9,0,0,1-2.508,4.158,4.018,4.018,0,0,1-3.146,1.54,3.619,3.619,0,0,1-2.728-1.43,6.3,6.3,0,0,1-1.43-4.246,8.933,8.933,0,0,1,3.168-7.106,10.55,10.55,0,0,1,7.15-2.552A8.754,8.754,0,0,1,40-14.476,7.468,7.468,0,0,1,42.416-8.6Zm-9.988-4.664a6.7,6.7,0,0,0-3.828,2.09,5.883,5.883,0,0,0-1.606,4.092,2.757,2.757,0,0,0,.352,1.43q.308.506.66.506.726,0,1.826-2.134A45.608,45.608,0,0,0,32.428-13.266ZM61.6-7.942H55.836v-2.42h1.65v-.858H55.9v-2.332h1.584v-.968H59.95v.968h1.562v2.332H59.95v.858H61.6ZM52.316-13.4H44.99v-2.948h2.178v-1.87h3.19v1.87h1.958Zm-.4,3.3H45.474V-12.54H51.92Zm0,3.256H45.474v-2.42H51.92ZM52.052.924H48.2v.858h-2.97V-5.94h6.82v4.488a20.227,20.227,0,0,0,.638-3.916q.088-1.342.088-4.51V-17.71H64.7V-1.452a3.62,3.62,0,0,1-.638,2.486A2.858,2.858,0,0,1,62,1.606h-1.43l-.66-2.288H58.454V.242H55.946v-7.5H61.27v5.852h.022q.44,0,.55-.22a1.649,1.649,0,0,0,.088-.682V-14.85H55.506v5.676q0,3.872-.176,5.83a23.6,23.6,0,0,1-.99,5.258L52.052.528ZM59.2-3.41V-4.84H58.1v1.43ZM49.478-1.782V-3.388h-1.43v1.606Zm36.96-.946a3.164,3.164,0,0,1-.473,2.09,3.2,3.2,0,0,1-2.145.484H82.3l-.88-2.882h1.056a.948.948,0,0,0,.605-.143q.165-.143.165-.671V-9.2h-2V1.694H78.078v-13.75h8.36ZM71.39-2.134q1.166-.2,2-.352-.2-.4-.462-.946l2.332-.7H71.39ZM74.536.176q-2.794.77-7.04,1.518l-.9-3.212q.968-.088,1.474-.154V-12.1H77v7.964H75.79A29.092,29.092,0,0,1,77.99.352L75.02,1.474Q74.756.726,74.536.176Zm-.572-9.152V-9.7H71.39v.726Zm0,2.618V-7.15H71.39v.792Zm1.3-6.556-3.19.748q-.33-.99-.792-2.068h-.352q-.682,1.034-1.5,2.09L66.44-13.42A23.207,23.207,0,0,0,69.7-18.436l3.366.418q-.264.572-.506,1.034h4.312V-15a22.685,22.685,0,0,0,2-3.432l3.322.418q-.286.594-.506,1.034h5.258v2.75h-2.6q.242.506.572,1.32l-3.322.726q-.308-.88-.814-2.046h-.66q-.66,1.034-1.408,2.024l-3.058-1.254q.22-.264.616-.77H74.69Q75.02-13.508,75.262-12.914ZM107.69-15.84l-1.584.924a12.545,12.545,0,0,0-1.936-2.662l1.5-.88A11.543,11.543,0,0,1,107.69-15.84Zm-2.442,1.408-1.606.88a12.534,12.534,0,0,0-1.8-2.728l1.474-.814A13.425,13.425,0,0,1,105.248-14.432Zm4.488,7.744L106.612-5.1a18.479,18.479,0,0,0-3.894-7l2.882-1.628A19.67,19.67,0,0,1,109.736-6.688ZM102.52-8.58a29.044,29.044,0,0,1-.352,4.015,20.473,20.473,0,0,1-.748,3.553A4.4,4.4,0,0,1,100.3.869a2.731,2.731,0,0,1-1.76.561,7.573,7.573,0,0,1-3.19-.814l.022-3.454a4.685,4.685,0,0,0,1.98.682,1.026,1.026,0,0,0,.99-.814,17.246,17.246,0,0,0,.594-2.662,18.414,18.414,0,0,0,.22-2.486,2.189,2.189,0,0,0-.275-1.342q-.275-.308-1.331-.308h-.374a78.072,78.072,0,0,1-4.752,11.2L89.144.044a49.719,49.719,0,0,0,4.51-9.262,26.291,26.291,0,0,0-3.564.968l-.88-3.168q2.75-.682,5.5-1.144.66-2.442,1.1-4.994l3.52.528q-.352,1.276-1.144,4.07h.11a4.417,4.417,0,0,1,3.19.9A4.71,4.71,0,0,1,102.52-8.58Zm25.542,4.224-.286,3.85a17.84,17.84,0,0,1-3.41,1.188,17.469,17.469,0,0,1-4.422.66q-3.322,0-4.334-2.376a16.523,16.523,0,0,1-.528-5.3V-17.82l3.872.286q-.286,4.158-.286,12.914a2.855,2.855,0,0,0,.484,1.936,1.873,1.873,0,0,0,1.43.44,13.991,13.991,0,0,0,3.784-.682A26.565,26.565,0,0,0,128.062-4.356Zm24.574-6.6a4.716,4.716,0,0,1-1.958,3.894,9.767,9.767,0,0,1-4.136,1.738L144.3-8.162a9.935,9.935,0,0,0,2.838-.7q1.8-.748,1.8-1.914,0-1.056-1.342-1.056-1.8,0-6.226,2.508Q144.8-3.674,147,.2l-3.388,1.76A105,105,0,0,0,138.4-7.59q-2,1.21-3.19,2.046l-2.156-2.838q1.122-.638,3.542-2.046-.836-1.276-1.606-2.288l3.278-1.65q.528.836,1.386,2.244.946-.528,2.97-1.54a17.186,17.186,0,0,0-4.8-2.134l1.76-2.662a18.593,18.593,0,0,1,4.972,2.046l-1.5,2.552a12.539,12.539,0,0,1,4.95-1.32,4.824,4.824,0,0,1,3.278,1.166A3.856,3.856,0,0,1,152.636-10.956Zm22.286-1.32q-1.584-.066-2.618-.066-1.606,0-3.3.11.022,2.156.066,5.236.044,6.688-6.512,9.174l-2.97-2.662q3.674-.968,4.906-2.75a1.521,1.521,0,0,1-.814.132,3.3,3.3,0,0,1-2.354-1.166,3.828,3.828,0,0,1-.9-2.574,3.755,3.755,0,0,1,1.144-2.794,3.92,3.92,0,0,1,2.86-1.122,2.141,2.141,0,0,1,1.232.33l-.066-1.474A56.22,56.22,0,0,0,155.98-9.79l-.836-3.344a87.082,87.082,0,0,1,10.274-1.892q-.154-2.618-.22-3.454l3.806.132q-.022.7-.022,2.948,2.838-.242,5.588-.308Zm-9.108,5.522a2,2,0,0,0-.363-1.177,1.1,1.1,0,0,0-.935-.517.9.9,0,0,0-.781.4,1.579,1.579,0,0,0-.275.924,2.05,2.05,0,0,0,.341,1.21,1.1,1.1,0,0,0,.957.484.9.9,0,0,0,.781-.385A1.566,1.566,0,0,0,165.814-6.754Zm31.46.11L193.842-5.1a14.849,14.849,0,0,0-1.76-3.938,12.288,12.288,0,0,0-2.53-2.97l2.926-1.958A12.954,12.954,0,0,1,197.274-6.644Zm-10.956-2.2a17.714,17.714,0,0,0-.946,5.478q0,.528.044,1.012L182.4-.66a19.822,19.822,0,0,1-4.8-13.156l3.674-.132a19.646,19.646,0,0,0,.462,4.114,12.772,12.772,0,0,0,1.32,3.7,18.491,18.491,0,0,1,1.188-3.938Zm32.648-5.126h-4v7.04h-4.576V-18.524h8.58ZM217.6-15.356v-1.8h-5.83v8.844h1.8v-7.04Zm22.9-.7-1.738.616a12.514,12.514,0,0,0-1.5-2.86l1.606-.616A10.847,10.847,0,0,1,240.5-16.06Zm-2.618,1.012-1.716.572a12.316,12.316,0,0,0-1.386-2.9l1.606-.572A13.016,13.016,0,0,1,237.886-15.048ZM240.834-4.18l-2.662,2.64a19.375,19.375,0,0,0-4-4.444l2.42-2.64A27.834,27.834,0,0,1,240.834-4.18Zm-1.474-6.336q-3.19-.088-6.732.11v9.174A2.322,2.322,0,0,1,231.77.88a5.2,5.2,0,0,1-2.552.44q-.286,0-.924-.022-.7-.022-.814-.022l-1.1-3.344q1.012.088,1.562.088.968,0,1.144-.484a15.424,15.424,0,0,0,.11-2.618q0-3.344-.022-5.082-3.454.33-6.666.88l-.418-3.344q4.026-.44,7.018-.682-.044-2.464-.11-4.18h3.718q-.044,1.056-.066,3.894,3.322-.242,6.512-.33ZM227.282-6.4a22.76,22.76,0,0,1-3.3,5.456L221.32-3.1a19.181,19.181,0,0,0,3.3-5.192Zm33.154-1.8-2.31,2.816a36,36,0,0,0-5.786-3.982l.022.022q0-.77.066,10.692h-3.7q.176-7.194.176-12.276,0-4.356-.066-7.04h3.74q-.088,2.75-.22,7.9l1.8-2.178A39.333,39.333,0,0,1,260.436-8.206Zm25.014-.308a46.584,46.584,0,0,1-4.708,4.444A50.951,50.951,0,0,1,275.77-.418l-2.376-1.76q.066-3.014.088-6.776.044-4.224-.066-6.776l3.52.022q-.132,2.244-.132,5.434V-5.3a27.667,27.667,0,0,0,3.52-2.9,33.279,33.279,0,0,0,3.5-3.806Zm-12.54-4.048q-.572,2.244-.748,2.816a29.852,29.852,0,0,1-1.034,3.168A34.921,34.921,0,0,1,267.96-.2L264.682-1.54a28.466,28.466,0,0,0,3.256-6.16,32.211,32.211,0,0,0,1.672-5.874ZM295.636,1.8h-8.6V-2.75h4.026V-9.79h4.576ZM294.25.418V-8.426h-1.826v7.062h-4V.418Z" transform="translate(-1.078 18.92)" fill="#992113"/></svg>