<svg xmlns="http://www.w3.org/2000/svg" width="146.586" height="32.594" viewBox="0 0 146.586 32.594"><g transform="translate(-122.414 -11892.5)"><path d="M30.872-16.456,28.764-11.39A28.584,28.584,0,0,0,18.5-13.668l1.5-4.76q-2.924,1.054-5.27,1.768a174.957,174.957,0,0,1-6.46,18.5L2.652.034A100.214,100.214,0,0,0,8.806-14.96q-.34.1-5,1.36L2.414-18.768q3.6-.68,7.99-1.938,1.088-4.488,1.53-7.14l5.576,1.054q-.374,1.36-1.122,4.148,2.04-.748,3.672-1.53l1.258,5.27-.748.272A26.515,26.515,0,0,1,30.872-16.456Zm.51,17.1a33.266,33.266,0,0,1-6.188.578q-4.726,0-7.106-1.326a5.247,5.247,0,0,1-2.72-5,6.805,6.805,0,0,1,.238-1.7l5.1-1.5A5.667,5.667,0,0,0,20.5-7a2.383,2.383,0,0,0,1.054,2.21,6.684,6.684,0,0,0,3.264.578,29.111,29.111,0,0,0,6.018-.748ZM59.976-22.746,57.562-18.02a22.042,22.042,0,0,0-7.174,2.992l-2.652-2.754q1.292-.918,3.2-2.108A47.154,47.154,0,0,0,42.7-21.726l2.618-4.862A70.827,70.827,0,0,1,59.976-22.746ZM61.3-.272A35.583,35.583,0,0,1,51.884,1.02,15.62,15.62,0,0,1,43.69-.816a6.967,6.967,0,0,1-3.434-6.358,3.385,3.385,0,0,1,.1-.884l5-2.89a4.555,4.555,0,0,0-.17,1.224q0,3.332,2.584,4.522a11.726,11.726,0,0,0,4.556.68,23.852,23.852,0,0,0,8.262-1.564ZM93.024-12.614v-1.8h-5.78v1.8ZM79.866-17.476q-.782.816-1.564,1.564v.884a33.974,33.974,0,0,1-.272,4.284A34.531,34.531,0,0,0,81.8-5.2L79.628-1.6A9.8,9.8,0,0,0,84.49-8.3H80.376v-4.318h2.278v-1.8H79.866ZM81.8-19.652l-.748.884h1.6V-20.74H86.8v1.972h1.122V-21.59h-6.6v-4.352h6.256v-2.312h5.1v2.312h6.732v4.352H92.344v2.822h1.19V-20.74h4.182v1.972h3.094v4.352h-3.2v1.8h2.754V-8.3h-5.78v5.27a.932.932,0,0,0,.085.527.672.672,0,0,0,.425.085h.34a.731.731,0,0,0,.8-.527A19.323,19.323,0,0,0,96.39-6.29l4.182,1.19q0,4.658-.646,5.95-.714,1.394-3.366,1.394H92.99A5.15,5.15,0,0,1,90.338,1.8q-.748-.578-.748-2.584V-8.3h-3.4l2.822,1.088a16.03,16.03,0,0,1-2.244,5.746,13.905,13.905,0,0,1-4.862,4.284L78.03-.782l1.02-.51q-1.6-2.142-2.414-3.5A27.652,27.652,0,0,1,72.25,3.094L68.612-.68a22.38,22.38,0,0,0,4.08-7.582,29.621,29.621,0,0,0,.986-8.228V-28.118H78.3v6.426q.884-1.054,1.8-2.278ZM73.372-22.2a74.658,74.658,0,0,1-1.428,10.03l-3.638-1.8a56.222,56.222,0,0,0,1.6-9.35Z" transform="translate(120 11922)" fill="#323232"/><g transform="translate(237.12 11892.389)"><circle cx="16" cy="16" r="16" transform="translate(-0.12 0.112)" fill="#992113"/><g transform="translate(12.561 9.111)"><path d="M1.638,14.658,0,13.02,5.691,7.329,0,1.638,1.638,0,8.967,7.329Z" fill="#fff"/></g></g></g></svg>