<svg xmlns="http://www.w3.org/2000/svg" width="261.052" height="32.197" viewBox="0 0 261.052 32.197">
  <g id="sec04_3_cardttl04" transform="translate(-121.666 -14218.488)">
    <path id="パス_749" data-name="パス 749" d="M22.168-7.752q0,4.624-2.992,6.9a11.512,11.512,0,0,1-7.242,2.04A11.392,11.392,0,0,1,4.658-.918Q1.666-3.264,1.666-7.854v-4.794H7.412V-8.3q0,4.454,4.522,4.454,4.454,0,4.454-4.318V-26.622h5.78ZM56.032-25.84a3.283,3.283,0,0,1-.986,2.414,3.283,3.283,0,0,1-2.414.986,3.357,3.357,0,0,1-2.414-.986A3.228,3.228,0,0,1,49.2-25.84a3.244,3.244,0,0,1,1.02-2.4,3.328,3.328,0,0,1,2.414-1,3.283,3.283,0,0,1,2.414.986A3.283,3.283,0,0,1,56.032-25.84ZM57.324-6.46,53.21-2.38a29.943,29.943,0,0,0-6.188-6.868l3.74-4.08A43.016,43.016,0,0,1,57.324-6.46Zm-2.278-9.792q-4.93-.136-10.4.17V-1.9q0,2.414-1.326,3.264a8.043,8.043,0,0,1-3.944.68q-.442,0-1.428-.034-1.088-.034-1.258-.034L34.986-3.2q1.564.136,2.414.136,1.5,0,1.768-.748a23.837,23.837,0,0,0,.17-4.046q0-5.168-.034-7.854-5.338.51-10.3,1.36l-.646-5.168Q34.578-20.2,39.2-20.57q-.068-3.808-.17-6.46h5.746q-.068,1.632-.1,6.018,5.134-.374,10.064-.51ZM36.38-9.894a35.175,35.175,0,0,1-5.1,8.432L27.166-4.794a29.642,29.642,0,0,0,5.1-8.024ZM54.332-25.84a1.7,1.7,0,0,0-.493-1.224,1.614,1.614,0,0,0-1.207-.51,1.669,1.669,0,0,0-1.224.51,1.669,1.669,0,0,0-.51,1.224,1.669,1.669,0,0,0,.51,1.224,1.669,1.669,0,0,0,1.224.51,1.641,1.641,0,0,0,1.207-.493A1.683,1.683,0,0,0,54.332-25.84Zm35.6,14.518q-1.972-.1-4.692-.1A199.5,199.5,0,0,0,62.7-10.268l-.34-5.61q4.93-.442,11.492-.748,9.622-.442,16.048-.34ZM123.794-22.95a69.2,69.2,0,0,1-7.616,13.43A56.866,56.866,0,0,1,104.584,2.21l-4.76-3.468a50.009,50.009,0,0,0,10.438-9.248,43.039,43.039,0,0,0,6.188-9.384q-4.556.612-8.3.986l-.2.306a47.338,47.338,0,0,1-6.494,7.684l-4.59-2.618a45.935,45.935,0,0,0,6.562-7.412,41.43,41.43,0,0,0,4.08-7.038l5.2,1.326q-.612,1.19-1.428,2.686,5.78-.646,8.942-1.19Zm35.054,10.778q-5.134-.136-11.186.238a20.063,20.063,0,0,1-2.176,7.956,21.24,21.24,0,0,1-6.154,6.664L134.47-.51a20.77,20.77,0,0,0,5.508-4.726,12.432,12.432,0,0,0,2.414-6.29A109.159,109.159,0,0,0,130.084-9.69l-.374-5.134q5.712-.816,12.716-1.53-.034-1.53-.1-3.672-3.774.952-7.174,1.5l-2.312-4.522a77.472,77.472,0,0,0,9.52-2.006,54.917,54.917,0,0,0,8.3-2.958l2.55,4.624q-3.162,1.156-5.474,1.87.068,2.72.068,4.692,5.984-.442,10.948-.442ZM188.224-.51a177.994,177.994,0,0,0-19.448.884l-.238-4.454q3.774-.306,9.554-.578l3.808-.17.272-3.23q-6.664.306-11.866.85l-.238-4.114q8.534-.646,12.444-.816l.2-2.754q-4.59.306-13.362.986l-.374-4.454q2.89-.1,7.752-.408,6.018-.374,8.6-.646l2.618,1.8Q187.68-15.572,186.558-5l1.462-.034Zm26.52-13.022-4.318,1.462a29.4,29.4,0,0,0-2.788-6.868l4.284-1.7A27.177,27.177,0,0,1,214.744-13.532Zm8.942-4.726A55.452,55.452,0,0,1,219.13-7.31a45.781,45.781,0,0,1-7.174,9.758L207.128.306a41.426,41.426,0,0,0,7.616-9.588,40.115,40.115,0,0,0,4.08-10.4ZM208.114-11.22l-4.284,1.8a25.086,25.086,0,0,0-3.23-6.664l4.012-1.9A26.86,26.86,0,0,1,208.114-11.22Zm54.6-15.062a3.148,3.148,0,0,1-.952,2.312,3.148,3.148,0,0,1-2.312.952,3.165,3.165,0,0,1-2.3-.952,3.12,3.12,0,0,1-.969-2.312,3.065,3.065,0,0,1,.969-2.3,3.194,3.194,0,0,1,2.3-.935,3.177,3.177,0,0,1,2.312.935A3.092,3.092,0,0,1,262.718-26.282Zm-4.76,4.9a51.947,51.947,0,0,1-6.324,11.934,45.321,45.321,0,0,1-10.71,10.71l-4.59-3.5a45.072,45.072,0,0,0,9.962-9.044,28.517,28.517,0,0,0,4.658-8.228q-2.108.17-9.078.748l-7.718.646-.374-5.406q3.57-.068,10.37-.544,6.12-.442,10.03-.952Zm3.162-4.9a1.631,1.631,0,0,0-.476-1.173,1.586,1.586,0,0,0-1.19-.493,1.547,1.547,0,0,0-1.156.493,1.631,1.631,0,0,0-.476,1.173,1.631,1.631,0,0,0,.476,1.173,1.547,1.547,0,0,0,1.156.493,1.615,1.615,0,0,0,1.19-.476A1.615,1.615,0,0,0,261.12-26.282Z" transform="translate(120 14248)" fill="#323232"/>
  </g>
</svg>
