<svg xmlns="http://www.w3.org/2000/svg" width="411" height="148.96" viewBox="0 0 411 148.96"><g transform="translate(8729.16 -14574)"><path d="M175.4-3.92l-4.16,5a24.721,24.721,0,0,0-3.36-3.8Q166,1.52,159.96,1.52a8.956,8.956,0,0,1-5.9-1.78A5.854,5.854,0,0,1,151.92-5a6,6,0,0,1,2.32-4.96,9.326,9.326,0,0,1,5.84-1.72,22.264,22.264,0,0,1,2.68.2q-.08-3.16-.28-7.24a47.187,47.187,0,0,0-8.6,2.8l-.6-5.6a57.26,57.26,0,0,1,8.92-2.96l-.36-7.04,6.56.28q-.08,2.04-.08,5.52,2.8-.44,4.96-.6l.8,6.08a48.771,48.771,0,0,0-5.72.44q.08,3.44.24,10.12A27.825,27.825,0,0,1,175.4-3.92Zm-23.84-7.4A25.771,25.771,0,0,0,149.4-5.4,32.348,32.348,0,0,0,148.36.28l-5.44,1.24a56.969,56.969,0,0,1-1.48-13.72,131.442,131.442,0,0,1,1.88-19.4l6.64.96a76.014,76.014,0,0,0-2.76,19.08,20.665,20.665,0,0,0,.12,2.28,42.539,42.539,0,0,1,1.8-3.92ZM162.8-6.24A7.563,7.563,0,0,0,159.84-7q-2.6,0-2.6,1.56,0,1.68,2.56,1.68a3.446,3.446,0,0,0,2.22-.56A2.738,2.738,0,0,0,162.8-6.24Zm29.24,5.08-5.44,4.6a40.094,40.094,0,0,0-8.36-8.48l5.36-4.44A50.824,50.824,0,0,1,192.04-1.16ZM-166.44,44.2l-4.24,3.84a16.044,16.044,0,0,0-9.04-2.64,10.244,10.244,0,0,0-4.32.8A2.879,2.879,0,0,0-186,48.84q0,3.4,8.36,3.4a73.3,73.3,0,0,0,9.32-.68l-.88,6.2a81.9,81.9,0,0,1-8.2.44q-15.32,0-15.32-8.92a7.862,7.862,0,0,1,3.12-6.42,13.054,13.054,0,0,1,8.4-2.5,19.584,19.584,0,0,1,4.92.6,53.065,53.065,0,0,1-3.16-4.4,24.993,24.993,0,0,1-4.48.4,24.312,24.312,0,0,1-9.84-2.12l.92-6.2a17.991,17.991,0,0,0,8.88,2.44h1.08q-1.32-2.24-3.64-6.08l6.36-1.88q1.76,3.6,3.4,6.48a16.593,16.593,0,0,0,6.48-5.32l3.56,5.56a24.945,24.945,0,0,1-6.88,4.84A111.005,111.005,0,0,0-166.44,44.2Zm41.56,9.76-4.64,4.84a29.083,29.083,0,0,0-6.04-5.24q-1.68,5.2-9,5.2a12.493,12.493,0,0,1-6.64-1.6,5.6,5.6,0,0,1-2.92-5,5.583,5.583,0,0,1,2.36-4.64q2.68-2.04,7.72-2a22.734,22.734,0,0,1,3.12.2V42.96h-1.96a11.469,11.469,0,0,1-5.62-1.18,3.585,3.585,0,0,1-2.1-3.22,6.56,6.56,0,0,1,.88-2.96q-1.96.52-4.12,1.28l-1.68-5.4a113.08,113.08,0,0,1,14.24-3.16q-.12-3.04-.24-5.52l6.64.28q-.12,1.76-.2,4.44,3.88-.44,7.84-.84l1.16,5.68q-4.24.12-9.08.64v4a36.007,36.007,0,0,0,8.04-2.64l2.2,5.32a47.314,47.314,0,0,1-10.24,2.76q0,1.72.04,4.76A32.041,32.041,0,0,1-124.88,53.96Zm-16.16-16.12-.08-4.04a83.943,83.943,0,0,0-8.56,1.8l5.12.4a1.974,1.974,0,0,0-.48.92q0,1,1.96,1Q-142.12,37.92-141.04,37.84Zm.12,12.96a12.065,12.065,0,0,0-3.68-.6q-3.72,0-3.72,1.64,0,1.68,3.48,1.68Q-141.12,53.52-140.92,50.8Zm60.56-25.04L-83.2,27.4a22.491,22.491,0,0,0-3.48-4.72l2.68-1.6A20.771,20.771,0,0,1-80.36,25.76Zm-4.36,2.52-2.84,1.52a22.22,22.22,0,0,0-3.24-4.84l2.64-1.44A22.607,22.607,0,0,1-84.72,28.28Zm-2.96,16.16-4.2,3.84a15.653,15.653,0,0,0-8.88-2.64,10.134,10.134,0,0,0-4.28.8,2.874,2.874,0,0,0-1.92,2.64q0,3.4,8.24,3.4a70.993,70.993,0,0,0,9.16-.68l-.92,6.2a74.392,74.392,0,0,1-7.6.44q-15.16,0-15.16-9a7.806,7.806,0,0,1,3.02-6.34,12.575,12.575,0,0,1,8.18-2.46,18.608,18.608,0,0,1,4.68.56q-1.6-1.96-3.2-4.36a23.554,23.554,0,0,1-4.84.52,23.22,23.22,0,0,1-9.6-2.12l.92-6.36a16.922,16.922,0,0,0,8.56,2.4q.84,0,1.36-.04-.32-.52-3.6-5.96l6.36-1.92q1.48,3.04,3.32,6.24a15.96,15.96,0,0,0,5.16-4.12l3.84,5.16a24.546,24.546,0,0,1-5.8,4.2A109.771,109.771,0,0,0-87.68,44.44Zm42.8,9.52-4.64,4.84a29.084,29.084,0,0,0-6.04-5.24q-1.68,5.2-9,5.2a12.493,12.493,0,0,1-6.64-1.6,5.6,5.6,0,0,1-2.92-5,5.583,5.583,0,0,1,2.36-4.64q2.68-2.04,7.72-2a22.734,22.734,0,0,1,3.12.2V42.96h-1.96a11.469,11.469,0,0,1-5.62-1.18,3.585,3.585,0,0,1-2.1-3.22,6.56,6.56,0,0,1,.88-2.96q-1.96.52-4.12,1.28l-1.68-5.4a113.08,113.08,0,0,1,14.24-3.16q-.12-3.04-.24-5.52l6.64.28q-.12,1.76-.2,4.44,3.88-.44,7.84-.84l1.16,5.68q-4.24.12-9.08.64v4a36.007,36.007,0,0,0,8.04-2.64l2.2,5.32a47.314,47.314,0,0,1-10.24,2.76q0,1.72.04,4.76A32.042,32.042,0,0,1-44.88,53.96ZM-61.04,37.84l-.08-4.04a83.943,83.943,0,0,0-8.56,1.8l5.12.4a1.974,1.974,0,0,0-.48.92q0,1,1.96,1Q-62.12,37.92-61.04,37.84Zm.12,12.96a12.065,12.065,0,0,0-3.68-.6q-3.72,0-3.72,1.64,0,1.68,3.48,1.68Q-61.12,53.52-60.92,50.8Zm58.68-15-3.64,5a26.572,26.572,0,0,0-7.28-6.24l3.44-4.6A21.612,21.612,0,0,1-2.24,35.8Zm-11.96-3q-3.96.48-8.28,1.4a136.75,136.75,0,0,1-9.28,17.28l-5.56-2.84a89.713,89.713,0,0,0,7.72-12.6q-3.2,1-5.44,1.92l-1.92-5.6q5.36-1.72,10.32-2.92a72.151,72.151,0,0,0,2.32-7.04l6.2,1.24q-.76,1.96-1.72,4.36,2.8-.52,4.8-.88ZM-2.56,52.4-6,58a31.15,31.15,0,0,0-4.88-4.08q-1.44,5.24-8.04,5.24a10.776,10.776,0,0,1-6.48-1.8,6.127,6.127,0,0,1-2.6-5.2,6.313,6.313,0,0,1,2.52-5.32,9.954,9.954,0,0,1,6.2-1.8,19.128,19.128,0,0,1,2.36.16,28.759,28.759,0,0,1,.04-4.12q.36-3.16,1.68-4.24l4.72,2.72a10.623,10.623,0,0,0-.56,3.84q0,1.04.28,3.52A27.452,27.452,0,0,1-2.56,52.4ZM-16.6,50.68a7.248,7.248,0,0,0-2.56-.6q-3.04,0-3.04,1.96,0,1.72,2.8,1.72a2.721,2.721,0,0,0,2.24-.8A4.13,4.13,0,0,0-16.6,50.68Zm50.16-7.6-4.52,5.2a49.738,49.738,0,0,0-5.92-4.48A68.078,68.078,0,0,1,8.68,58.16L3.16,54.08A60.58,60.58,0,0,0,17.84,40.56q-3.92-2.2-7.12-3.64L14.8,32q3.2,1.36,6.72,3.28A57.5,57.5,0,0,0,26.76,24.6l6.32,2.6a98.237,98.237,0,0,1-6.2,11.2A63.981,63.981,0,0,1,33.56,43.08ZM79.64,26.4,76.88,28a22.646,22.646,0,0,0-3.4-4.64l2.6-1.52A20.346,20.346,0,0,1,79.64,26.4ZM75.4,28.88,72.6,30.4a21.376,21.376,0,0,0-3.16-4.76L72,24.24A22.338,22.338,0,0,1,75.4,28.88Zm-5.96,1.6q-4.76.64-10.2,1.12-5.96.56-9.96.8l-.32-6.04A124.892,124.892,0,0,0,69.04,24.4Zm7.12,9.96q-7.68-.16-14.36.32l-.88.08L65.2,42.4a49.178,49.178,0,0,1-4.76,8.52,45.447,45.447,0,0,1-7.32,8.4l-5.56-3.68a43.063,43.063,0,0,0,7.2-7.68,35.957,35.957,0,0,0,4.04-6.92A145.381,145.381,0,0,0,43.32,43.2l-.4-6.12q6.92-1.04,15.8-1.84,9.52-.88,17.52-.96Zm33.04-7.96q-2.32,3.04-5.2,6.32,0,14.68.08,20.44H98.64q.04-1.32.24-14.64-3.84,3.76-7.12,6.44l-4.84-3.2A93.143,93.143,0,0,0,96.94,38.9a68.194,68.194,0,0,0,7.58-9.22Zm48.04-3.08q-7.56,7.2-11.28,10.12L143.8,37.4q-2.96,13.28-10.72,21.08l-5.84-3.2a31.473,31.473,0,0,0,7.28-9.84,34.074,34.074,0,0,0,2.88-9.92l4.96.68-.44-.36a46.078,46.078,0,0,0,5.28-4.52q-3.84.36-11.28,1-3.88.32-11.24,1.08l-.56-6.44q9.6-.2,29.32-2Zm40.2,8.08-2.92,1.68a22.809,22.809,0,0,0-3.52-4.84l2.72-1.6A21.208,21.208,0,0,1,197.84,37.48Zm-4.44,2.56-2.92,1.6a22.79,22.79,0,0,0-3.28-4.96l2.68-1.48A24.409,24.409,0,0,1,193.4,40.04Zm2.4-8.72a18.309,18.309,0,0,0-10.72,3.16,9.976,9.976,0,0,0-4.52,8.32,7.639,7.639,0,0,0,2.88,6.28q2.68,2.16,8.92,3.68l-3.32,6.2a23.928,23.928,0,0,1-10.64-5.12,13.17,13.17,0,0,1-4.52-10.2,13.527,13.527,0,0,1,1.48-6.12,14.762,14.762,0,0,1,3.96-4.96,101.9,101.9,0,0,0-14.72,3.36l-1.96-6.36q7.4-1.6,16.64-2.92,7.84-1.12,15.72-1.72Zm-326.72,53.8a27.3,27.3,0,0,1-1.84,5.68H-130q1.44,0,1.8-.96a10.456,10.456,0,0,0,.28-3.12v-1.6Zm-15.68,6.56,2.96-1.2q.84,1.8,1.32,2.96a14.964,14.964,0,0,0,5.6-8.32h-4.56v-.16Q-143.48,87.88-146.6,91.68Zm-2.96,3.56q1.76-.16,3.2-.36-.28-.76-.96-2.32Zm2.92,19.88h-5.52V100.24q-3.04.28-5.76.4l-.64-5q1.6,0,2.56-.04.68-.76,2.36-2.8a71.83,71.83,0,0,0-5.12-5.16l3-5.32,1.4,1.44q1.6-2.56,3.12-5.64l4.88,2.08q-2.2,3.56-4.76,7.08l1,1.12q2.16-2.84,4.28-6.24l4.56,2.2V79.84h19.08v5.84q0,6.2-.92,8.12-1.04,2.32-4.6,2.32h-3.8l-1.4-5a18.207,18.207,0,0,1-4.8,6.2l-4.2-2.84q.68,1.76,1.68,4.48V97.84h17.44V114.6h-5.56v-1.84h-6.4v1.84h-5.48V99.08l-4.08,1.56-.44-1.36q-.64.12-1.88.32Zm18.28-7.8V103.2h-6.4v4.12Zm-12.24,2.48-4.2,1.72a89.513,89.513,0,0,1-1.68-9.68l3.96-1.24A70.476,70.476,0,0,0-140.6,109.8Zm-11.72-7.76a62.144,62.144,0,0,1-2.24,10.88l-4.28-2.52a43.043,43.043,0,0,0,2.24-9.32Zm48.84-2.2q0,10.24-8.04,15.32l-5.52-3.76a14.488,14.488,0,0,0,5.88-5.32,14.068,14.068,0,0,0,1.52-6.92v-6a50.742,50.742,0,0,1-6.04,3.92l-3.88-4.68a47.057,47.057,0,0,0,16.12-13.36h6.36A46.366,46.366,0,0,0-80.4,91.96l-3.84,4.92A46.849,46.849,0,0,1-90,93.44v21.24h-6.16V92.56h4.96a59.017,59.017,0,0,1-9-8.16,57.068,57.068,0,0,1-8.64,8.16h5.36Zm57.04.36-4.24,3.84a16.044,16.044,0,0,0-9.04-2.64,10.244,10.244,0,0,0-4.32.8A2.879,2.879,0,0,0-66,104.84q0,3.4,8.36,3.4a73.3,73.3,0,0,0,9.32-.68l-.88,6.2a81.9,81.9,0,0,1-8.2.44q-15.32,0-15.32-8.92a7.862,7.862,0,0,1,3.12-6.42,13.054,13.054,0,0,1,8.4-2.5,19.583,19.583,0,0,1,4.92.6,53.066,53.066,0,0,1-3.16-4.4,24.993,24.993,0,0,1-4.48.4,24.312,24.312,0,0,1-9.84-2.12l.92-6.2a17.991,17.991,0,0,0,8.88,2.44h1.08Q-64.2,84.84-66.52,81l6.36-1.88q1.76,3.6,3.4,6.48a16.594,16.594,0,0,0,6.48-5.32l3.56,5.56a24.945,24.945,0,0,1-6.88,4.84A111,111,0,0,0-46.44,100.2ZM-.48,108q-5.04,4.04-9.24,4.04-5.8,0-5.8-7.88,0-2.32.22-5.78t.22-3.9q0-1.84-1.08-1.84-1.84,0-5.92,4.12-.04,4.24.04,17.64h-6.28l.32-10.68q-2.64,4.32-5.4,9.08l-4.72-4.32q6.52-9.04,10.16-15L-28,92.36q-5.4,1.16-8.48,2.04l.36-6.4q3.64-.68,8-1.44-.08-3.72-.08-7.64l6.56.28q-.16,2.88-.32,10.48,5-4.2,8.64-4.2a4.382,4.382,0,0,1,3.52,1.5A5.985,5.985,0,0,1-8.52,91q0,1.48-.3,5.62t-.3,5.1a9.213,9.213,0,0,0,.2,2.36,1.039,1.039,0,0,0,1.04.92q2.12,0,6.04-3.8ZM36.2,87.32a18.309,18.309,0,0,0-10.72,3.16,9.976,9.976,0,0,0-4.52,8.32,7.639,7.639,0,0,0,2.88,6.28q2.68,2.16,8.92,3.68l-3.32,6.2a23.928,23.928,0,0,1-10.64-5.12,13.17,13.17,0,0,1-4.52-10.2,13.527,13.527,0,0,1,1.48-6.12,14.762,14.762,0,0,1,3.96-4.96A101.9,101.9,0,0,0,5,91.92L3.04,85.56q7.4-1.6,16.64-2.92,7.84-1.12,15.72-1.72Zm42.48,12.6-6.24,2.8a27,27,0,0,0-3.2-7.16,22.341,22.341,0,0,0-4.6-5.4l5.32-3.56A23.552,23.552,0,0,1,78.68,99.92Zm-19.92-4a32.208,32.208,0,0,0-1.72,9.96q0,.96.08,1.84l-5.48,3.08q-8.44-9.6-8.72-23.92l6.68-.24a35.719,35.719,0,0,0,.84,7.48,23.222,23.222,0,0,0,2.4,6.72A33.621,33.621,0,0,1,55,93.68Zm56.36,14.04-4.64,4.84a29.084,29.084,0,0,0-6.04-5.24q-1.68,5.2-9,5.2a12.493,12.493,0,0,1-6.64-1.6,5.741,5.741,0,0,1-.56-9.64q2.68-2.04,7.72-2a22.735,22.735,0,0,1,3.12.2V98.96H97.12a11.469,11.469,0,0,1-5.62-1.18,3.585,3.585,0,0,1-2.1-3.22,6.56,6.56,0,0,1,.88-2.96q-1.96.52-4.12,1.28l-1.68-5.4a113.08,113.08,0,0,1,14.24-3.16q-.12-3.04-.24-5.52l6.64.28q-.12,1.76-.2,4.44,3.88-.44,7.84-.84l1.16,5.68q-4.24.12-9.08.64v4a36.007,36.007,0,0,0,8.04-2.64l2.2,5.32a47.314,47.314,0,0,1-10.24,2.76q0,1.72.04,4.76A32.042,32.042,0,0,1,115.12,109.96ZM98.96,93.84l-.08-4.04a83.941,83.941,0,0,0-8.56,1.8l5.12.4a1.974,1.974,0,0,0-.48.92q0,1,1.96,1Q97.88,93.92,98.96,93.84Zm.12,12.96a12.065,12.065,0,0,0-3.68-.6q-3.72,0-3.72,1.64,0,1.68,3.48,1.68Q98.88,109.52,99.08,106.8Zm58.96-17.12q-2.88-.12-4.76-.12-2.92,0-6,.2.04,3.92.12,9.52.08,12.16-11.84,16.68l-5.4-4.84q6.68-1.76,8.92-5a2.766,2.766,0,0,1-1.48.24,5.993,5.993,0,0,1-4.28-2.12,6.96,6.96,0,0,1-1.64-4.68,6.827,6.827,0,0,1,2.08-5.08,7.128,7.128,0,0,1,5.2-2.04,3.892,3.892,0,0,1,2.24.6l-.12-2.68A102.216,102.216,0,0,0,123.6,94.2l-1.52-6.08a158.33,158.33,0,0,1,18.68-3.44q-.28-4.76-.4-6.28l6.92.24q-.04,1.28-.04,5.36,5.16-.44,10.16-.56ZM141.48,99.72a3.633,3.633,0,0,0-.66-2.14,2,2,0,0,0-1.7-.94,1.627,1.627,0,0,0-1.42.72,2.872,2.872,0,0,0-.5,1.68,3.726,3.726,0,0,0,.62,2.2,2.007,2.007,0,0,0,1.74.88,1.641,1.641,0,0,0,1.42-.7A2.848,2.848,0,0,0,141.48,99.72Z" transform="translate(-8516 14607)" fill="#323232"/><path d="M-148.7-9.12q0,5.44-3.52,8.12-3.08,2.4-8.52,2.4t-8.56-2.48q-3.52-2.76-3.52-8.16v-5.64h6.76v5.12q0,5.24,5.32,5.24,5.24,0,5.24-5.08V-31.32h6.8Zm38.64-19.24a80.263,80.263,0,0,1-6,15.24A63.644,63.644,0,0,1-126.98,2.16l-6-3.44a52.5,52.5,0,0,0,11-14.44,62.742,62.742,0,0,0,5.44-15.08Zm-18.6,9.8-6,2.96a50.134,50.134,0,0,0-2.92-5.78,33.059,33.059,0,0,0-3.36-4.94l5.84-3.08A40.512,40.512,0,0,1-128.66-18.56Zm59.68,5.24q-2.32-.12-5.52-.12a234.708,234.708,0,0,0-26.52,1.36l-.4-6.6q5.8-.52,13.52-.88,11.32-.52,18.88-.4ZM-28.7-6.2l-4.36,5.08a65.622,65.622,0,0,0-11-9.96A76.085,76.085,0,0,1-57.06.16l-4.76-4.4a67.786,67.786,0,0,0,12.04-9.44,43.708,43.708,0,0,0,7.24-9.16q-4.92.48-14.76,1.52l-.4-6.12q2.8-.12,10.6-.76,6.6-.52,10.2-1l4.04,3.16a96.008,96.008,0,0,1-7.2,10.32A92.138,92.138,0,0,1-28.7-6.2Zm40.6-9.44A15.959,15.959,0,0,1,7.38-4.04a23,23,0,0,1-11.4,6L-7.78-3.88A20.23,20.23,0,0,0,1.1-7.56,10.009,10.009,0,0,0,5.18-15.8a7.842,7.842,0,0,0-2.62-6.24A9.778,9.778,0,0,0-4.1-24.32a12.027,12.027,0,0,0-1.32.08L-.7-20.96a87.492,87.492,0,0,1-3.68,8.44A38,38,0,0,1-8.94-4.96a7.305,7.305,0,0,1-5.72,2.8,6.579,6.579,0,0,1-4.96-2.6,11.459,11.459,0,0,1-2.6-7.72A16.242,16.242,0,0,1-16.46-25.4a19.181,19.181,0,0,1,13-4.64q6.76,0,10.96,3.72Q11.9-22.4,11.9-15.64ZM-6.26-24.12a12.183,12.183,0,0,0-6.96,3.8,10.7,10.7,0,0,0-2.92,7.44,5.012,5.012,0,0,0,.64,2.6q.56.92,1.2.92,1.32,0,3.32-3.88A82.924,82.924,0,0,0-6.26-24.12Zm59.6.28-3.92,4.88a12.7,12.7,0,0,0-3.66-3.42,17.972,17.972,0,0,0-5.02-2.34l3.12-5.08A17.358,17.358,0,0,1,53.34-23.84ZM50.94-10.2a12.011,12.011,0,0,1-2.92,8.16A9.091,9.091,0,0,1,40.9,1.32a6.606,6.606,0,0,1-5.96-3.04l2.32-5.8a4.847,4.847,0,0,0,1.38,2,2.819,2.819,0,0,0,1.82.76A3.777,3.777,0,0,0,43.22-6.2a4.768,4.768,0,0,0,1.32-3.32q0-3.88-3.64-3.88-2.76,0-7.4,2.16,0,8.08.2,12.16L27.82,3.04a54.677,54.677,0,0,0-5.88-5.28q-.48.56-1.4,1.72L17.02-5.96A90.564,90.564,0,0,1,27.74-13.8v-5.88h-.52a17.935,17.935,0,0,1-7.52-1.68l1.32-6.44a11.271,11.271,0,0,0,6.48,2.04h.24Q27.7-31,27.62-33l6.52.44q-.24,1.76-.4,5.6a19.107,19.107,0,0,0,4.16-2.36l1.08,6.12a19.743,19.743,0,0,1-5.44,2.64q0,.88-.04,3.76a22.537,22.537,0,0,1,8.72-2.36,8.336,8.336,0,0,1,6.4,2.48A9.1,9.1,0,0,1,50.94-10.2ZM27.78-2.68V-7.8a32.646,32.646,0,0,0-3.44,2.88Zm65.68-9.4-6.24,2.8a27,27,0,0,0-3.2-7.16,22.342,22.342,0,0,0-4.6-5.4l5.32-3.56A23.552,23.552,0,0,1,93.46-12.08Zm-19.92-4a32.208,32.208,0,0,0-1.72,9.96q0,.96.08,1.84L66.42-1.2q-8.44-9.6-8.72-23.92l6.68-.24a35.719,35.719,0,0,0,.84,7.48,23.222,23.222,0,0,0,2.4,6.72,33.621,33.621,0,0,1,2.16-7.16Zm54.08,8.16-.52,7a32.437,32.437,0,0,1-6.2,2.16,31.761,31.761,0,0,1-8.04,1.2q-6.04,0-7.88-4.32-.96-2.24-.96-9.64V-32.4l7.04.52q-.52,7.56-.52,23.48,0,2.6.88,3.52a3.405,3.405,0,0,0,2.6.8,25.438,25.438,0,0,0,6.88-1.24A48.3,48.3,0,0,0,127.62-7.92Zm40.72-3.88L164.1-7.96a16.044,16.044,0,0,0-9.04-2.64,10.244,10.244,0,0,0-4.32.8,2.879,2.879,0,0,0-1.96,2.64q0,3.4,8.36,3.4a73.3,73.3,0,0,0,9.32-.68l-.88,6.2a81.9,81.9,0,0,1-8.2.44q-15.32,0-15.32-8.92a7.862,7.862,0,0,1,3.12-6.42,13.054,13.054,0,0,1,8.4-2.5,19.584,19.584,0,0,1,4.92.6,53.066,53.066,0,0,1-3.16-4.4,24.993,24.993,0,0,1-4.48.4,24.312,24.312,0,0,1-9.84-2.12l.92-6.2a17.991,17.991,0,0,0,8.88,2.44h1.08q-1.32-2.24-3.64-6.08l6.36-1.88q1.76,3.6,3.4,6.48a16.593,16.593,0,0,0,6.48-5.32l3.56,5.56a24.945,24.945,0,0,1-6.88,4.84A111.005,111.005,0,0,0,168.34-11.8Z" transform="translate(-8556.34 14607)" fill="#992113"/></g></svg>