<svg xmlns="http://www.w3.org/2000/svg" width="471.2" height="92.48" viewBox="0 0 471.2 92.48"><path d="M-204.84-28.36a80.263,80.263,0,0,1-6,15.24A63.644,63.644,0,0,1-221.76,2.16l-6-3.44a52.5,52.5,0,0,0,11-14.44,62.741,62.741,0,0,0,5.44-15.08Zm-18.6,9.8-6,2.96a50.134,50.134,0,0,0-2.92-5.78,33.059,33.059,0,0,0-3.36-4.94l5.84-3.08A40.512,40.512,0,0,1-223.44-18.56Zm59.68,5.24q-2.32-.12-5.52-.12a234.708,234.708,0,0,0-26.52,1.36l-.4-6.6q5.8-.52,13.52-.88,11.32-.52,18.88-.4Zm40.28,7.12-4.36,5.08a65.622,65.622,0,0,0-11-9.96,76.086,76.086,0,0,1-13,11.24l-4.76-4.4a67.786,67.786,0,0,0,12.04-9.44,43.708,43.708,0,0,0,7.24-9.16q-4.92.48-14.76,1.52l-.4-6.12q2.8-.12,10.6-.76,6.6-.52,10.2-1l4.04,3.16a96.007,96.007,0,0,1-7.2,10.32A92.138,92.138,0,0,1-123.48-6.2Zm41.32-12.32-2.92,1.68a22.809,22.809,0,0,0-3.52-4.84l2.72-1.6A21.208,21.208,0,0,1-82.16-18.52Zm-4.44,2.56-2.92,1.6a22.79,22.79,0,0,0-3.28-4.96l2.68-1.48A24.41,24.41,0,0,1-86.6-15.96Zm2.4-8.72a18.309,18.309,0,0,0-10.72,3.16,9.976,9.976,0,0,0-4.52,8.32,7.639,7.639,0,0,0,2.88,6.28q2.68,2.16,8.92,3.68l-3.32,6.2A23.928,23.928,0,0,1-101.6-2.16a13.17,13.17,0,0,1-4.52-10.2,13.527,13.527,0,0,1,1.48-6.12,14.762,14.762,0,0,1,3.96-4.96,101.9,101.9,0,0,0-14.72,3.36l-1.96-6.36q7.4-1.6,16.64-2.92,7.84-1.12,15.72-1.72Zm24.72,7.24a35.249,35.249,0,0,1-2.96,4.4l-2.84-2.64a37.221,37.221,0,0,0,2.72-4.16Zm-7.64,20.2h-5.56V-8.68q-1.88,1.92-4.24,3.92l-2.44-5.72A45.235,45.235,0,0,0-68.92-22.16h-8.92V-27.6h5.04V-33h5.64v5.4h4.96v-3.68h19.48v18.6a59.369,59.369,0,0,1-.6,10.36q-.6,3.08-2.4,3.88a13.937,13.937,0,0,1-5.12.6h-2.4l-1.48-6.12h2.56a4.5,4.5,0,0,0,2.54-.5A3.88,3.88,0,0,0-48.72-7q.16-1.6.16-6.64V-25.4h-3.6a91.122,91.122,0,0,1-.92,15.2,33.486,33.486,0,0,1-5.48,13L-64.32-.44A24.041,24.041,0,0,0-58.6-12.72a78.445,78.445,0,0,0,.72-12.68h-4.28v2.28a67.356,67.356,0,0,1-4.56,7.4,47.809,47.809,0,0,0,5.84,5.32l-2.28,5.08q-2.16-1.88-3.96-3.76Zm64.4-16.24A14.284,14.284,0,0,1-7.2-2.56Q-11.4,1.36-18.76,2.4l-2.88-5.52a17.888,17.888,0,0,0,8.96-3.32A8.8,8.8,0,0,0-9.2-13.68q0-4.28-4.6-6.12A66.313,66.313,0,0,1-18-11.2q.84.52,1.88,1.04l-3.56,4.28a14.906,14.906,0,0,1-1.48-.76q-4.48,5.36-9.48,5.36a5.834,5.834,0,0,1-4.48-1.96,8.1,8.1,0,0,1-1.96-5.72q0-6.48,5.4-11.4a63.258,63.258,0,0,1-2.84-8.4l5.64-2.32a45.171,45.171,0,0,0,2,7.48,21.25,21.25,0,0,1,9.04-2.32q.88-3.08,1.64-6.6l6.16,2.12q-.84,2.6-1.76,5.28a13.291,13.291,0,0,1,6.52,4.2A11.359,11.359,0,0,1-2.72-13.48Zm-16.92-7.08a13.649,13.649,0,0,0-5.32,1.68,19.779,19.779,0,0,0,2.68,4A43.249,43.249,0,0,0-19.64-20.56Zm-5.88,10.32a29.12,29.12,0,0,1-3.64-5.16A8.679,8.679,0,0,0-31.44-10q0,2.48,1.6,2.48Q-27.92-7.52-25.52-10.24ZM36.2-24.68a18.309,18.309,0,0,0-10.72,3.16,9.976,9.976,0,0,0-4.52,8.32,7.639,7.639,0,0,0,2.88,6.28q2.68,2.16,8.92,3.68l-3.32,6.2A23.928,23.928,0,0,1,18.8-2.16a13.17,13.17,0,0,1-4.52-10.2,13.527,13.527,0,0,1,1.48-6.12,14.762,14.762,0,0,1,3.96-4.96A101.9,101.9,0,0,0,5-20.08L3.04-26.44q7.4-1.6,16.64-2.92,7.84-1.12,15.72-1.72ZM59.12-11.2a13.557,13.557,0,0,0,2.76,3.24,10.224,10.224,0,0,0,.68-3.24ZM51.36,2.88H45.48V-13.4q-1,1.48-2.32,3.24L40.24-15.8a53.553,53.553,0,0,0,7.72-17.76l5.68.96q-.16.68-.6,2.32h9.28v-2.6h6v2.6H78.2v5.56H68.32V-23H77v11.8H68.36a17.409,17.409,0,0,1-1.4,6,57.494,57.494,0,0,0,11.8,2.32L76.4,2.8A44.985,44.985,0,0,1,63.56-.68,19.93,19.93,0,0,1,55.52,3L52.04-2.16a23.173,23.173,0,0,0,6.24-2,20.942,20.942,0,0,1-4.12-5l3.16-2.04H53.8V-23h8.52v-1.72H52.88v-4.92q-.68,2.4-1.52,4.72ZM71.52-15.8v-2.64h-3.4v2.64Zm-9,0v-2.64H59.24v2.64Zm34.6-10.44H90.64v3.56h6.48Zm13.04,3.56v-3.56H103v3.56ZM103-13.96h7.16v-3.76H103Zm-12.36,0h6.48v-3.76H90.64Zm19.52,5.32H103V1.52H97.12V-8.64H90.4A31.518,31.518,0,0,1,87.32,3.32L80.96.84a26.318,26.318,0,0,0,3.12-9,56.719,56.719,0,0,0,.56-8.88V-31.88h31.6V-3.72q0,4.04-1.4,5.24-1.24,1.08-5.2,1.08h-3.28L104.4-3.16h3.92q1.44,0,1.68-.6a3.214,3.214,0,0,0,.16-1.2Zm43.4-3.16-4.24,3.84a16.044,16.044,0,0,0-9.04-2.64,10.244,10.244,0,0,0-4.32.8A2.879,2.879,0,0,0,134-7.16q0,3.4,8.36,3.4a73.3,73.3,0,0,0,9.32-.68l-.88,6.2a81.9,81.9,0,0,1-8.2.44q-15.32,0-15.32-8.92a7.862,7.862,0,0,1,3.12-6.42,13.054,13.054,0,0,1,8.4-2.5,19.584,19.584,0,0,1,4.92.6,53.066,53.066,0,0,1-3.16-4.4,24.993,24.993,0,0,1-4.48.4,24.312,24.312,0,0,1-9.84-2.12l.92-6.2a17.991,17.991,0,0,0,8.88,2.44h1.08q-1.32-2.24-3.64-6.08l6.36-1.88q1.76,3.6,3.4,6.48a16.593,16.593,0,0,0,6.48-5.32l3.56,5.56a24.945,24.945,0,0,1-6.88,4.84A111.005,111.005,0,0,0,153.56-11.8ZM199.52-4Q194.48.04,190.28.04q-5.8,0-5.8-7.88,0-2.32.22-5.78t.22-3.9q0-1.84-1.08-1.84-1.84,0-5.92,4.12-.04,4.24.04,17.64h-6.28L172-8.28Q169.36-3.96,166.6.8l-4.72-4.32q6.52-9.04,10.16-15L172-19.64q-5.4,1.16-8.48,2.04l.36-6.4q3.64-.68,8-1.44-.08-3.72-.08-7.64l6.56.28q-.16,2.88-.32,10.48,5-4.2,8.64-4.2a4.382,4.382,0,0,1,3.52,1.5A5.985,5.985,0,0,1,191.48-21q0,1.48-.3,5.62t-.3,5.1a9.213,9.213,0,0,0,.2,2.36,1.039,1.039,0,0,0,1.04.92q2.12,0,6.04-3.8Zm35.96-3.96A9.637,9.637,0,0,1,231.44.28,16.078,16.078,0,0,1,221.72,3a12.821,12.821,0,0,1-6.36-1.44,5.189,5.189,0,0,1-2.88-4.68,5.211,5.211,0,0,1,2.02-4.24A7.892,7.892,0,0,1,219.64-9a7.852,7.852,0,0,1,4.8,1.42,6.333,6.333,0,0,1,2.44,4.02,5.054,5.054,0,0,0,2.16-4.2,4.156,4.156,0,0,0-1.4-3.2,6.943,6.943,0,0,0-4.8-1.48,14.192,14.192,0,0,0-6.64,1.6q-3.76,1.96-7.92,7.28l-4.64-4.28q8.28-8.76,16.88-18.72-3.68.56-10.32,1.68l-1-6.12q3.36-.16,8.7-.82t8.18-1.26L230-28.56q-6.4,6.88-11,12a14.968,14.968,0,0,1,5.8-1.2q5,0,7.84,2.68A9.33,9.33,0,0,1,235.48-7.96ZM222.24-1.88a3.51,3.51,0,0,0-1-2.24,2.8,2.8,0,0,0-2-.8q-1.6,0-1.6,1.28,0,1.8,3.68,1.8Q221.8-1.84,222.24-1.88ZM-61.32,39.84h-3.04V58.8h-5.8V39.84h-2.52a67.2,67.2,0,0,1-2.56,18.84l-5.92-2.52a37.308,37.308,0,0,0,2.36-8.28,67.61,67.61,0,0,0,.56-9.92V25.8a49.811,49.811,0,0,0,12.92-2.68l3.64,5.04a44.746,44.746,0,0,1-11,2.6V34.2h11.36Zm-25.52-9.36h-3.32q.48,1.56.88,3.2h1.6A27.711,27.711,0,0,0-86.84,30.48Zm-4.52,21.28a36.252,36.252,0,0,1-4.48,4.56l-3.2-4.68a36.366,36.366,0,0,0,6.6-6.24h-5.28V40.44h6.2V38.6h-6.6V33.68h3.4q-.36-1.48-.96-3.2h-1.68v-4.8h6V22.96h5.88v2.72h5.64v4.8h-1.68a28.539,28.539,0,0,1-.92,3.2h2.96V38.6h-6v1.84h5.6V45.4h-5.48a46.67,46.67,0,0,0,5.64,4.12l-3.04,4.36q-1.28-1-2.84-2.44v7.48h-5.76Zm67.88-1.96-4.36,5.08a65.622,65.622,0,0,0-11-9.96,76.085,76.085,0,0,1-13,11.24l-4.76-4.4a67.786,67.786,0,0,0,12.04-9.44,43.708,43.708,0,0,0,7.24-9.16q-4.92.48-14.76,1.52l-.4-6.12q2.8-.12,10.6-.76,6.6-.52,10.2-1l4.04,3.16a96.007,96.007,0,0,1-7.2,10.32A92.138,92.138,0,0,1-23.48,49.8ZM17.44,27.76a4.233,4.233,0,0,1-1.26,3.08,4.274,4.274,0,0,1-6.1,0A4.2,4.2,0,0,1,8.8,27.76a4.088,4.088,0,0,1,1.28-3.02,4.321,4.321,0,0,1,6.1,0A4.12,4.12,0,0,1,17.44,27.76Zm1.4,19-5.76,4.28A68.029,68.029,0,0,0,1.12,34.72L6.68,30.8A79.682,79.682,0,0,1,18.84,46.76ZM-1.44,34.92A68.176,68.176,0,0,1-13.56,52.96l-5.56-4A54.716,54.716,0,0,0-7.56,31.76Zm16.72-7.16a2.043,2.043,0,0,0-.62-1.5,2.091,2.091,0,0,0-1.54-.62A2.117,2.117,0,0,0,11,27.76a2.158,2.158,0,0,0,.62,1.56,2.012,2.012,0,0,0,1.5.64,2.057,2.057,0,0,0,1.54-.64A2.158,2.158,0,0,0,15.28,27.76Zm36.36-1.84q-3,3.92-6.24,7.6,0,16.48.12,25.08H38.84q.16-4.96.36-18.48a116.268,116.268,0,0,1-9.16,8.28l-5.48-3.6A111.679,111.679,0,0,0,37.08,33.56a84.513,84.513,0,0,0,8.84-10.8ZM96.52,49.8l-4.36,5.08a65.622,65.622,0,0,0-11-9.96,76.085,76.085,0,0,1-13,11.24l-4.76-4.4a67.785,67.785,0,0,0,12.04-9.44,43.708,43.708,0,0,0,7.24-9.16q-4.92.48-14.76,1.52l-.4-6.12q2.8-.12,10.6-.76,6.6-.52,10.2-1l4.04,3.16a96.008,96.008,0,0,1-7.2,10.32A92.139,92.139,0,0,1,96.52,49.8Z" transform="translate(235.72 33.56)" fill="#fff"/></svg>