<svg xmlns="http://www.w3.org/2000/svg" width="470.662" height="32.641" viewBox="0 0 470.662 32.641"><path d="M-204.272-25.126l-2.652.952a18.47,18.47,0,0,0-2.346-4.454l2.482-.918A16.763,16.763,0,0,1-204.272-25.126Zm-4.012,1.564-2.686.85a18.3,18.3,0,0,0-2.108-4.454l2.448-.884A20.385,20.385,0,0,1-208.284-23.562Zm-1.224,2.346a51.947,51.947,0,0,1-6.324,11.934,45.321,45.321,0,0,1-10.71,10.71l-4.59-3.5a45.072,45.072,0,0,0,9.962-9.044,28.517,28.517,0,0,0,4.658-8.228q-4.352.34-8.942.714l-7.854.68-.408-5.406q3.706-.068,10.472-.544,5.984-.442,9.962-.952Zm38.658,8.058a71.991,71.991,0,0,1-7.276,6.868A78.743,78.743,0,0,1-185.81-.646l-3.672-2.72q.1-4.658.136-10.472.068-6.528-.1-10.472l5.44.034q-.2,3.468-.2,8.4v7.684a42.758,42.758,0,0,0,5.44-4.488,51.431,51.431,0,0,0,5.406-5.882Zm-19.38-6.256q-.884,3.468-1.156,4.352a46.139,46.139,0,0,1-1.6,4.9,53.972,53.972,0,0,1-4.9,9.86l-5.066-2.074a43.994,43.994,0,0,0,5.032-9.52,49.782,49.782,0,0,0,2.584-9.078Zm50.422-4.386-2.55,1.462a19.749,19.749,0,0,0-3.06-4.216l2.38-1.394A18.385,18.385,0,0,1-139.808-23.8Zm-3.876,2.21-2.584,1.394a19.338,19.338,0,0,0-2.822-4.318l2.346-1.292A20.586,20.586,0,0,1-143.684-21.59Zm1.564,8.908-3.57,4.352a57.49,57.49,0,0,0-8.908-6.154v.034q0-1.19.1,16.524h-5.712q.272-11.118.272-18.972,0-6.732-.1-10.88h5.78q-.136,4.25-.34,12.206l2.788-3.366A60.787,60.787,0,0,1-142.12-12.682Zm25.738-.85L-120.7-12.07a29.4,29.4,0,0,0-2.788-6.868l4.284-1.7A27.177,27.177,0,0,1-116.382-13.532Zm8.942-4.726A55.451,55.451,0,0,1-112-7.31a45.781,45.781,0,0,1-7.174,9.758L-124,.306a41.426,41.426,0,0,0,7.616-9.588,40.116,40.116,0,0,0,4.08-10.4Zm-15.572,7.038-4.284,1.8a25.086,25.086,0,0,0-3.23-6.664l4.012-1.9A26.861,26.861,0,0,1-123.012-11.22Zm51.68-11.73A69.2,69.2,0,0,1-78.948-9.52,56.866,56.866,0,0,1-90.542,2.21L-95.3-1.258a50.009,50.009,0,0,0,10.438-9.248,43.039,43.039,0,0,0,6.188-9.384q-4.556.612-8.3.986l-.2.306a47.338,47.338,0,0,1-6.494,7.684l-4.59-2.618A45.935,45.935,0,0,0-91.7-20.944a41.43,41.43,0,0,0,4.08-7.038l5.2,1.326q-.612,1.19-1.428,2.686,5.78-.646,8.942-1.19Zm33.218-1.156a68.224,68.224,0,0,1-5.1,12.954A54.1,54.1,0,0,1-52.5,1.836l-5.1-2.924a44.623,44.623,0,0,0,9.35-12.274A53.331,53.331,0,0,0-43.622-26.18Zm-15.81,8.33-5.1,2.516a42.614,42.614,0,0,0-2.482-4.913,28.1,28.1,0,0,0-2.856-4.2L-59.4-24.99A34.435,34.435,0,0,1-53.924-15.776ZM-3.2-11.322q-1.972-.1-4.692-.1A199.5,199.5,0,0,0-30.43-10.268l-.34-5.61q4.93-.442,11.492-.748,9.622-.442,16.048-.34ZM31.042-5.27,27.336-.952a55.779,55.779,0,0,0-9.35-8.466A64.672,64.672,0,0,1,6.936.136L2.89-3.6a57.618,57.618,0,0,0,10.234-8.024,37.152,37.152,0,0,0,6.154-7.786q-4.182.408-12.546,1.292l-.34-5.2q2.38-.1,9.01-.646,5.61-.442,8.67-.85l3.434,2.686a81.607,81.607,0,0,1-6.12,8.772A78.317,78.317,0,0,1,31.042-5.27Zm22-18.394q1.428,1.088,2.686,2.142,1.258-.986,2.55-2.142ZM65.79-7.038a4.395,4.395,0,0,1-.8,3.094,4.6,4.6,0,0,1-3.145.782h-2.38L58.412-6.834h1.632a.978.978,0,0,0,.7-.17.862.862,0,0,0,.153-.578v-.68h-3.23V-4.08H53.176V-8.262H50.082v5.1h-4.76V-20.5h5.644q-.884-.68-2.346-1.7l3.638-1.462h-5.78v-3.978H64.566v3.74q-1.02.952-4.08,3.4h5.3Zm-4.9-8.568V-17h-3.23v1.394Zm0,4.352v-1.428h-3.23v1.428Zm-7.718-4.352V-17H50.082v1.394Zm0,4.352v-1.428H50.082v1.428ZM44.642-22.44,40.97-18.87a37.67,37.67,0,0,0-4.93-5.3l3.5-3.5A29.449,29.449,0,0,1,44.642-22.44ZM40.766-.306a41.064,41.064,0,0,1-4.25,3.4L35.156-2.55A34.338,34.338,0,0,0,39.2-5.406V-11.22H35.734v-4.9h8.228V-4.624q.442,2.312,4.216,2.312h18.9l-1.156,4.42H47.192Q42.636,2.108,40.766-.306ZM94.248-9.69a19.514,19.514,0,0,0,1.36-5.2H92.956A19.218,19.218,0,0,0,94.248-9.69ZM87.686-2.346A26.357,26.357,0,0,0,91.6-5.678a29.38,29.38,0,0,1-2.38-9.214H88.91A61.429,61.429,0,0,1,87.686-2.346ZM73.3-5.644l3.6,1.53,3.74-1.53Zm3.706,1.7a27.049,27.049,0,0,1-4.182,6.732L68.476.408a23.561,23.561,0,0,0,4.182-6.052h-2.04V-27.472H82.994V-5.644H81.26a18.836,18.836,0,0,0,1.734,2.856,29.348,29.348,0,0,0,1.428-6.664q.238-2.55.238-7.412V-27.3h15.674v4.93H89.42v3.026H99.858v4.25A27.678,27.678,0,0,1,96.8-5.542a19.437,19.437,0,0,0,4.318,3.5l-2.38,4.862a20.461,20.461,0,0,1-4.658-4.386,29.554,29.554,0,0,1-4.42,4.318L87.278-.714a23.291,23.291,0,0,1-1.326,3.638L83.572.85,80.784,2.21A44.448,44.448,0,0,1,77.01-3.944Zm1.5-17.136v-2.006H75.378v2.006Zm0,5.542v-1.938H75.378v1.938Zm0,5.678v-1.972H75.378V-9.86Zm56.134-5.882q-3.162-.034-7.174.136v.034q0,10.608-8.874,18.394L113.8-.136A23.539,23.539,0,0,0,120.156-6.8a17.952,17.952,0,0,0,2.142-8.5q-3.944.272-6.664.544.1,3.6.34,7.276l-5,.68q-.306-4.59-.442-7.378-4.352.51-6.562.884l-.51-5.1q3.5-.442,6.868-.782-.068-2.55-.1-6.936H115.6q-.1,3.5-.068,6.426l3.366-.306q1.122-.068,3.4-.238-.034-5.508-.136-7.684l5.406.306-.1,7.038q4.182-.238,6.868-.306Zm28.254-9.826q-2.55,3.332-5.3,6.46,0,14.008.1,21.318h-5.678q.136-4.216.306-15.708a98.829,98.829,0,0,1-7.786,7.038l-4.658-3.06a94.929,94.929,0,0,0,10.642-9.554,71.835,71.835,0,0,0,7.514-9.18Zm35.6,12.886-3.57,4.352a55.631,55.631,0,0,0-8.942-6.154l.034.034q0-1.19.1,16.524H180.4q.272-11.118.272-18.972,0-6.732-.1-10.88h5.78q-.136,4.25-.34,12.206l2.788-3.366A60.787,60.787,0,0,1,198.492-12.682ZM236.946-6.63l-3.638,5.1a147.5,147.5,0,0,1-13.26-11.594q-.578-.578-1.7-1.666a2.159,2.159,0,0,0-1.292-.748A1.433,1.433,0,0,0,216-14.96l-1.632,1.836a70.248,70.248,0,0,1-5.644,5.678l-3.57-5.066a64.676,64.676,0,0,0,9.01-8.228,4.242,4.242,0,0,1,3.23-1.428,4.533,4.533,0,0,1,3.162,1.5Q230.214-11.118,236.946-6.63Z" transform="translate(233.716 29.547)" fill="#fff"/></svg>