<svg xmlns="http://www.w3.org/2000/svg" width="352.968" height="79.934" viewBox="0 0 352.968 79.934"><g transform="translate(-120 -9355.372)"><path d="M17.136-9.452A28.568,28.568,0,0,1,4.93,2.584L1.224-1.394a27.24,27.24,0,0,0,8.67-6.562,17.319,17.319,0,0,0,3.944-7.956H2.108v-5.066h12v-6.9h5.338v6.9H32.062v5.066h-12a20.065,20.065,0,0,0,4.488,8.228,32.648,32.648,0,0,0,8.5,6.494L29.07,2.618Q20.536-2.584,17.136-9.452ZM49.164-19.38a31.151,31.151,0,0,1-9.86,6.9l-3.23-3.366a39.233,39.233,0,0,0,5.44-2.55H36.346V-25.6h11.9v-2.516h5.542V-25.6H65.654v7.208h-5.3a36.865,36.865,0,0,0,5.44,2.55l-3.264,3.366a30.645,30.645,0,0,1-9.826-6.9l4.488-1.36a17.1,17.1,0,0,0,3.162,2.346v-2.924H41.616v2.856a19.18,19.18,0,0,0,3.06-2.278ZM45.9-9.486H55.964a44.047,44.047,0,0,1-5.1-3.842A60,60,0,0,1,45.9-9.486Zm15.98,11.9H56.712V.918H45.288v1.5h-5.2V-6.12q-1.19.578-2.312,1.02L34.442-8.636a36.541,36.541,0,0,0,13.294-7.956h6.12a38.065,38.065,0,0,0,13.8,7.684L64.328-5.2q-1.122-.408-2.448-1.02ZM56.712-3.3V-5.61H45.288V-3.3Zm40.6-15.5H72.692v-8.942H97.308ZM92.276-24.14v-.85H77.724v.85Zm0,2.924v-.85H77.724v.85Zm7.82,6.868H69.938v-3.6H100.1Zm.068,16.456h-30.5V-1.428H82.348v-.884H71.3V-5h11.05v-.85H72.386v-7.684h25.16v7.684H87.482V-5h11.05v2.686H87.482v.884h12.682ZM92.412-10.574v-.918h-4.93v.918Zm0,2.618V-8.84h-4.93v.884ZM82.348-10.574v-.918H77.52v.918Zm0,2.618V-8.84H77.52v.884Zm51.2-5.338a13.565,13.565,0,0,1-3.842,9.86,19.552,19.552,0,0,1-9.69,5.1l-3.2-4.964a17.2,17.2,0,0,0,7.548-3.128,8.508,8.508,0,0,0,3.468-7,6.666,6.666,0,0,0-2.227-5.3,8.312,8.312,0,0,0-5.661-1.938,10.224,10.224,0,0,0-1.122.068l4.012,2.788a74.367,74.367,0,0,1-3.128,7.174,32.3,32.3,0,0,1-3.876,6.426,6.209,6.209,0,0,1-4.862,2.38,5.592,5.592,0,0,1-4.216-2.21,9.74,9.74,0,0,1-2.21-6.562,13.806,13.806,0,0,1,4.9-10.982,16.3,16.3,0,0,1,11.05-3.944,13.529,13.529,0,0,1,9.316,3.162A11.541,11.541,0,0,1,133.552-13.294ZM118.116-20.5a10.355,10.355,0,0,0-5.916,3.23,9.092,9.092,0,0,0-2.482,6.324,4.26,4.26,0,0,0,.544,2.21q.476.782,1.02.782,1.122,0,2.822-3.3A70.486,70.486,0,0,0,118.116-20.5ZM168.4-21.59h-6.188v10.88h-7.072V-28.628H168.4Zm-2.108-2.142V-26.52h-9.01v13.668h2.788v-10.88ZM193.732-8.058A8.512,8.512,0,0,1,190.74-1.02q-2.72,2.176-7.514,2.176a14.47,14.47,0,0,1-6.392-1.224,10.367,10.367,0,0,1-4.794-4.9l5.338-2.482q2.142,3.74,5.474,3.74a5.459,5.459,0,0,0,4.08-1.394,3.827,3.827,0,0,0,1.122-2.822,3.386,3.386,0,0,0-1.139-2.754,4.647,4.647,0,0,0-3.077-.952q-3.842,0-5.474,2.482l-5.44-.34,1.394-16.728h18.36v4.964H179.384l-.612,6.63a11.142,11.142,0,0,1,6.6-1.768,8.257,8.257,0,0,1,5.95,2.176A8.057,8.057,0,0,1,193.732-8.058Zm25.228-4.658q0,13.838-10.642,13.838-10.676,0-10.676-13.838t10.676-13.838Q218.96-26.554,218.96-12.716Zm-5.712,0q0-8.7-4.93-8.7t-4.93,8.7q0,8.7,4.93,8.7T213.248-12.716Zm31.246,0q0,13.838-10.642,13.838-10.676,0-10.676-13.838t10.676-13.838Q244.494-26.554,244.494-12.716Zm-5.712,0q0-8.7-4.93-8.7t-4.93,8.7q0,8.7,4.93,8.7T238.782-12.716ZM266.968-2.652q0,6.6-8.908,6.6a20.064,20.064,0,0,1-9.622-2.108l2.176-4.114a11.456,11.456,0,0,0,6.936,2.21q3.944,0,3.944-3.468V-4.76a6.391,6.391,0,0,1-4.93,1.87,7.818,7.818,0,0,1-5.678-2.04,7.811,7.811,0,0,1-2.244-5.984,7.858,7.858,0,0,1,2.244-5.916,7.744,7.744,0,0,1,5.678-2.108,6.391,6.391,0,0,1,4.93,1.87v-1.564h5.474Zm-5.474-7.242v-2.04a4.18,4.18,0,0,0-1.292-1.972,3.922,3.922,0,0,0-2.618-.952,3.4,3.4,0,0,0-2.516.952,4.047,4.047,0,0,0-1.054,2.992,4.047,4.047,0,0,0,1.054,2.992,3.4,3.4,0,0,0,2.516.952,3.922,3.922,0,0,0,2.618-.952A4.18,4.18,0,0,0,261.494-9.894ZM32.538,50.082,27.2,51.306a24.636,24.636,0,0,1-5.508-7.854,20.854,20.854,0,0,1,.017-17.6,24.573,24.573,0,0,1,5.491-7.8l5.338,1.19Q25.5,26.758,25.5,34.68,25.5,42.568,32.538,50.082Zm16.286-11.7v-10.3l-6.97,10.3Zm9.724,4.76H54.4v5.3H48.824v-5.3H36.006V38.522l11.9-17.272H54.4V38.386h4.148ZM83.13,40.324a7.483,7.483,0,0,1-3.06,6.528,13,13,0,0,1-7.548,1.9,15.019,15.019,0,0,1-6.494-1.224,10.589,10.589,0,0,1-4.9-5l5.338-2.652q2.244,3.944,5.678,3.944,5.168,0,5.168-3.638A2.787,2.787,0,0,0,75.99,37.74a7.338,7.338,0,0,0-4.08-.952H67.218V32.1h4.488a5.8,5.8,0,0,0,3.672-1.02A2.739,2.739,0,0,0,76.5,28.832q0-2.958-4.08-2.958a7.135,7.135,0,0,0-6.154,3.468l-4.828-2.21q3.264-6.086,11.186-6.086a11.388,11.388,0,0,1,7.038,1.938,5.752,5.752,0,0,1,2.448,4.828,7.311,7.311,0,0,1-1.037,3.944,5.433,5.433,0,0,1-2.805,2.312A6.575,6.575,0,0,1,81.6,36.04,6.242,6.242,0,0,1,83.13,40.324Zm25.364-5.44q0,13.838-10.642,13.838-10.676,0-10.676-13.838T97.852,21.046Q108.494,21.046,108.494,34.884Zm-5.712,0q0-8.7-4.93-8.7t-4.93,8.7q0,8.7,4.93,8.7T102.782,34.884Zm35.87,13.566h-5.338v-12.1a5.027,5.027,0,0,0-.272-2.006,1.618,1.618,0,0,0-1.564-.748,2.719,2.719,0,0,0-1.8.782,3.76,3.76,0,0,0-1.156,1.632V48.45h-5.338v-12.1a5.687,5.687,0,0,0-.238-2.006,1.508,1.508,0,0,0-1.5-.748,2.747,2.747,0,0,0-1.768.748,3.52,3.52,0,0,0-1.156,1.632V48.45h-5.3V28.968h5.3v2.278a6.16,6.16,0,0,1,5-2.584,4.321,4.321,0,0,1,4.25,2.618,6.918,6.918,0,0,1,5.44-2.618q5.44,0,5.44,6.222Zm14.926,0h-4.59q-2.856,0-3.961-1.088t-1.1-3.808V20.5h5.44V42.3q0,1.36.68,1.53a3.251,3.251,0,0,0,.952.1h2.584ZM168.3,34.68a21.39,21.39,0,0,1-1.938,8.772,24.636,24.636,0,0,1-5.508,7.854l-5.338-1.224q7.038-7.514,7.038-15.4,0-7.922-7.038-15.436l5.338-1.19a24.573,24.573,0,0,1,5.491,7.8A21.581,21.581,0,0,1,168.3,34.68Zm34.68,15.708H189.686V43.35h6.222V32.47h7.072Zm-2.142-2.142V34.578h-2.822V45.492h-6.188v2.754Z" transform="translate(206 9384)" fill="#992113"/><g transform="translate(-214 4559.896)"><circle cx="33" cy="33" r="33" transform="translate(334 4802.104)" fill="#992113"/><text transform="translate(357 4846.104)" fill="#fff" font-size="28" font-family="BokutohRuika-07, BokutohRuika"><tspan x="0" y="0">4</tspan></text></g></g></svg>