<svg xmlns="http://www.w3.org/2000/svg" width="533.85" height="69.72" viewBox="0 0 533.85 69.72"><g transform="translate(7015.32 -7229.25)"><path d="M-244.83-8.85l-3.18,2.88a12.033,12.033,0,0,0-6.78-1.98,7.683,7.683,0,0,0-3.24.6,2.159,2.159,0,0,0-1.47,1.98q0,2.55,6.27,2.55a54.975,54.975,0,0,0,6.99-.51l-.66,4.65a61.423,61.423,0,0,1-6.15.33q-11.49,0-11.49-6.69a5.9,5.9,0,0,1,2.34-4.815,9.791,9.791,0,0,1,6.3-1.875,14.687,14.687,0,0,1,3.69.45,39.8,39.8,0,0,1-2.37-3.3,18.745,18.745,0,0,1-3.36.3,18.234,18.234,0,0,1-7.38-1.59l.69-4.65a13.493,13.493,0,0,0,6.66,1.83h.81q-.99-1.68-2.73-4.56l4.77-1.41q1.32,2.7,2.55,4.86a12.445,12.445,0,0,0,4.86-3.99l2.67,4.17a18.709,18.709,0,0,1-5.16,3.63A83.252,83.252,0,0,0-244.83-8.85Zm31.17,7.32-3.48,3.63a21.813,21.813,0,0,0-4.53-3.93q-1.26,3.9-6.75,3.9A9.369,9.369,0,0,1-233.4.87a4.2,4.2,0,0,1-2.19-3.75,4.187,4.187,0,0,1,1.77-3.48,9.292,9.292,0,0,1,5.79-1.5,17.051,17.051,0,0,1,2.34.15V-9.78h-1.47a8.6,8.6,0,0,1-4.215-.885,2.689,2.689,0,0,1-1.575-2.415,4.92,4.92,0,0,1,.66-2.22q-1.47.39-3.09.96l-1.26-4.05a84.809,84.809,0,0,1,10.68-2.37q-.09-2.28-.18-4.14l4.98.21q-.09,1.32-.15,3.33,2.91-.33,5.88-.63l.87,4.26q-3.18.09-6.81.48v3a27.005,27.005,0,0,0,6.03-1.98l1.65,3.99a35.485,35.485,0,0,1-7.68,2.07q0,1.29.03,3.57A24.031,24.031,0,0,1-213.66-1.53Zm-12.12-12.09-.06-3.03a62.957,62.957,0,0,0-6.42,1.35l3.84.3a1.481,1.481,0,0,0-.36.69q0,.75,1.47.75Q-226.59-13.56-225.78-13.62Zm.09,9.72a9.049,9.049,0,0,0-2.76-.45q-2.79,0-2.79,1.23,0,1.26,2.61,1.26Q-225.84-1.86-225.69-3.9Zm45.42-18.78-2.13,1.23a16.868,16.868,0,0,0-2.61-3.54l2.01-1.2A15.578,15.578,0,0,1-180.27-22.68Zm-3.27,1.89-2.13,1.14a16.664,16.664,0,0,0-2.43-3.63l1.98-1.08A16.956,16.956,0,0,1-183.54-20.79Zm-2.22,12.12-3.15,2.88a11.739,11.739,0,0,0-6.66-1.98,7.6,7.6,0,0,0-3.21.6,2.156,2.156,0,0,0-1.44,1.98q0,2.55,6.18,2.55a53.245,53.245,0,0,0,6.87-.51l-.69,4.65a55.793,55.793,0,0,1-5.7.33q-11.37,0-11.37-6.75a5.855,5.855,0,0,1,2.265-4.755,9.431,9.431,0,0,1,6.135-1.845,13.956,13.956,0,0,1,3.51.42q-1.2-1.47-2.4-3.27a17.665,17.665,0,0,1-3.63.39,17.415,17.415,0,0,1-7.2-1.59l.69-4.77a12.692,12.692,0,0,0,6.42,1.8q.63,0,1.02-.03-.24-.39-2.7-4.47l4.77-1.44q1.11,2.28,2.49,4.68a11.97,11.97,0,0,0,3.87-3.09l2.88,3.87a18.409,18.409,0,0,1-4.35,3.15A82.328,82.328,0,0,0-185.76-8.67Zm32.1,7.14-3.48,3.63a21.813,21.813,0,0,0-4.53-3.93q-1.26,3.9-6.75,3.9A9.369,9.369,0,0,1-173.4.87a4.2,4.2,0,0,1-2.19-3.75,4.187,4.187,0,0,1,1.77-3.48,9.292,9.292,0,0,1,5.79-1.5,17.051,17.051,0,0,1,2.34.15V-9.78h-1.47a8.6,8.6,0,0,1-4.215-.885,2.689,2.689,0,0,1-1.575-2.415,4.92,4.92,0,0,1,.66-2.22q-1.47.39-3.09.96l-1.26-4.05a84.809,84.809,0,0,1,10.68-2.37q-.09-2.28-.18-4.14l4.98.21q-.09,1.32-.15,3.33,2.91-.33,5.88-.63l.87,4.26q-3.18.09-6.81.48v3a27.005,27.005,0,0,0,6.03-1.98l1.65,3.99a35.485,35.485,0,0,1-7.68,2.07q0,1.29.03,3.57A24.031,24.031,0,0,1-153.66-1.53Zm-12.12-12.09-.06-3.03a62.957,62.957,0,0,0-6.42,1.35l3.84.3a1.481,1.481,0,0,0-.36.69q0,.75,1.47.75Q-166.59-13.56-165.78-13.62Zm.09,9.72a9.049,9.049,0,0,0-2.76-.45q-2.79,0-2.79,1.23,0,1.26,2.61,1.26Q-165.84-1.86-165.69-3.9Zm44.01-11.25-2.73,3.75a19.929,19.929,0,0,0-5.46-4.68l2.58-3.45A16.209,16.209,0,0,1-121.68-15.15Zm-8.97-2.25q-2.97.36-6.21,1.05a102.562,102.562,0,0,1-6.96,12.96l-4.17-2.13a67.285,67.285,0,0,0,5.79-9.45q-2.4.75-4.08,1.44l-1.44-4.2q4.02-1.29,7.74-2.19a54.111,54.111,0,0,0,1.74-5.28l4.65.93q-.57,1.47-1.29,3.27,2.1-.39,3.6-.66Zm8.73,14.7-2.58,4.2a23.362,23.362,0,0,0-3.66-3.06q-1.08,3.93-6.03,3.93a8.082,8.082,0,0,1-4.86-1.35A4.6,4.6,0,0,1-141-2.88a4.735,4.735,0,0,1,1.89-3.99,7.465,7.465,0,0,1,4.65-1.35,14.346,14.346,0,0,1,1.77.12,21.57,21.57,0,0,1,.03-3.09,4.726,4.726,0,0,1,1.26-3.18l3.54,2.04a7.967,7.967,0,0,0-.42,2.88q0,.78.21,2.64A20.589,20.589,0,0,1-121.92-2.7Zm-10.53-1.29a5.436,5.436,0,0,0-1.92-.45q-2.28,0-2.28,1.47,0,1.29,2.1,1.29a2.041,2.041,0,0,0,1.68-.6A3.1,3.1,0,0,0-132.45-3.99Zm37.62-5.7-3.39,3.9a37.3,37.3,0,0,0-4.44-3.36A51.058,51.058,0,0,1-113.49,1.62l-4.14-3.06a45.435,45.435,0,0,0,11.01-10.14q-2.94-1.65-5.34-2.73L-108.9-18q2.4,1.02,5.04,2.46a43.126,43.126,0,0,0,3.93-8.01l4.74,1.95a73.679,73.679,0,0,1-4.65,8.4A47.987,47.987,0,0,1-94.83-9.69ZM-60.27-22.2-62.34-21a16.985,16.985,0,0,0-2.55-3.48l1.95-1.14A15.259,15.259,0,0,1-60.27-22.2Zm-3.18,1.86-2.1,1.14a16.032,16.032,0,0,0-2.37-3.57L-66-23.82A16.754,16.754,0,0,1-63.45-20.34Zm-4.47,1.2q-3.57.48-7.65.84-4.47.42-7.47.6l-.24-4.53A93.669,93.669,0,0,0-68.22-23.7Zm5.34,7.47q-5.76-.12-10.77.24l-.66.06,2.91,1.17a36.884,36.884,0,0,1-3.57,6.39,34.085,34.085,0,0,1-5.49,6.3L-84.33-.27a32.3,32.3,0,0,0,5.4-5.76,26.968,26.968,0,0,0,3.03-5.19A109.036,109.036,0,0,0-87.51-9.6l-.3-4.59q5.19-.78,11.85-1.38,7.14-.66,13.14-.72Zm24.78-5.97q-1.74,2.28-3.9,4.74,0,11.01.06,15.33h-4.38q.03-.99.18-10.98-2.88,2.82-5.34,4.83l-3.63-2.4a69.857,69.857,0,0,0,7.515-6.705A51.145,51.145,0,0,0-41.61-19.74Zm36.03-2.31q-5.67,5.4-8.46,7.59l-1.92-1.59q-2.22,9.96-8.04,15.81l-4.38-2.4a23.6,23.6,0,0,0,5.46-7.38,25.556,25.556,0,0,0,2.16-7.44l3.72.51-.33-.27A34.559,34.559,0,0,0-9.6-18.51q-2.88.27-8.46.75-2.91.24-8.43.81l-.42-4.83q7.2-.15,21.99-1.5Zm30.15,6.06-2.19,1.26a17.107,17.107,0,0,0-2.64-3.63l2.04-1.2A15.906,15.906,0,0,1,28.38-13.89Zm-3.33,1.92-2.19,1.2a17.093,17.093,0,0,0-2.46-3.72l2.01-1.11A18.307,18.307,0,0,1,25.05-11.97Zm1.8-6.54a13.732,13.732,0,0,0-8.04,2.37A7.482,7.482,0,0,0,15.42-9.9a5.729,5.729,0,0,0,2.16,4.71,17.657,17.657,0,0,0,6.69,2.76L21.78,2.22A17.946,17.946,0,0,1,13.8-1.62a9.877,9.877,0,0,1-3.39-7.65,10.145,10.145,0,0,1,1.11-4.59,11.071,11.071,0,0,1,2.97-3.72A76.423,76.423,0,0,0,3.45-15.06L1.98-19.83q5.55-1.2,12.48-2.19,5.88-.84,11.79-1.29Zm24.96-1.65a20.476,20.476,0,0,1-1.38,4.26H52.5q1.08,0,1.35-.72a7.842,7.842,0,0,0,.21-2.34v-1.2ZM40.05-15.24l2.22-.9q.63,1.35.99,2.22a11.223,11.223,0,0,0,4.2-6.24H44.04v-.12Q42.39-18.09,40.05-15.24Zm-2.22,2.67q1.32-.12,2.4-.27-.21-.57-.72-1.74ZM40.02,2.34H35.88V-8.82q-2.28.21-4.32.3l-.48-3.75q1.2,0,1.92-.03.51-.57,1.77-2.1a53.874,53.874,0,0,0-3.84-3.87l2.25-3.99,1.05,1.08q1.2-1.92,2.34-4.23l3.66,1.56q-1.65,2.67-3.57,5.31l.75.84q1.62-2.13,3.21-4.68l3.42,1.65v-3.39H58.35v4.38q0,4.65-.69,6.09-.78,1.74-3.45,1.74H51.36l-1.05-3.75a13.655,13.655,0,0,1-3.6,4.65l-3.15-2.13q.51,1.32,1.26,3.36v-.84H57.9V1.95H53.73V.57h-4.8V1.95H44.82V-9.69L41.76-8.52l-.33-1.02q-.48.09-1.41.24ZM53.73-3.51V-6.6h-4.8v3.09ZM44.55-1.65,41.4-.36a67.131,67.131,0,0,1-1.26-7.26l2.97-.93A52.854,52.854,0,0,0,44.55-1.65ZM35.76-7.47A46.609,46.609,0,0,1,34.08.69L30.87-1.2a32.282,32.282,0,0,0,1.68-6.99ZM72.39-9.12q0,7.68-6.03,11.49L62.22-.45a10.866,10.866,0,0,0,4.41-3.99,10.551,10.551,0,0,0,1.14-5.19v-4.5a38.057,38.057,0,0,1-4.53,2.94L60.33-14.7A35.293,35.293,0,0,0,72.42-24.72h4.77A34.775,34.775,0,0,0,89.7-15.03l-2.88,3.69a35.137,35.137,0,0,1-4.32-2.58V2.01H77.88V-14.58H81.6a44.263,44.263,0,0,1-6.75-6.12,42.8,42.8,0,0,1-6.48,6.12h4.02Zm42.78.27-3.18,2.88a12.033,12.033,0,0,0-6.78-1.98,7.683,7.683,0,0,0-3.24.6,2.159,2.159,0,0,0-1.47,1.98q0,2.55,6.27,2.55a54.975,54.975,0,0,0,6.99-.51l-.66,4.65a61.423,61.423,0,0,1-6.15.33q-11.49,0-11.49-6.69A5.9,5.9,0,0,1,97.8-9.855a9.79,9.79,0,0,1,6.3-1.875,14.688,14.688,0,0,1,3.69.45,39.8,39.8,0,0,1-2.37-3.3,18.745,18.745,0,0,1-3.36.3,18.234,18.234,0,0,1-7.38-1.59l.69-4.65a13.493,13.493,0,0,0,6.66,1.83h.81q-.99-1.68-2.73-4.56l4.77-1.41q1.32,2.7,2.55,4.86a12.445,12.445,0,0,0,4.86-3.99l2.67,4.17a18.709,18.709,0,0,1-5.16,3.63A83.253,83.253,0,0,0,115.17-8.85ZM149.64-3Q145.86.03,142.71.03q-4.35,0-4.35-5.91,0-1.74.165-4.335t.165-2.925q0-1.38-.81-1.38-1.38,0-4.44,3.09-.03,3.18.03,13.23h-4.71L129-6.21Q127.02-2.97,124.95.6l-3.54-3.24q4.89-6.78,7.62-11.25l-.03-.84q-4.05.87-6.36,1.53l.27-4.8q2.73-.51,6-1.08-.06-2.79-.06-5.73l4.92.21q-.12,2.16-.24,7.86,3.75-3.15,6.48-3.15a3.286,3.286,0,0,1,2.64,1.125,4.489,4.489,0,0,1,.96,3.015q0,1.11-.225,4.215T143.16-7.71a6.91,6.91,0,0,0,.15,1.77.779.779,0,0,0,.78.69q1.59,0,4.53-2.85Zm27.51-15.51a13.732,13.732,0,0,0-8.04,2.37,7.482,7.482,0,0,0-3.39,6.24,5.729,5.729,0,0,0,2.16,4.71,17.657,17.657,0,0,0,6.69,2.76l-2.49,4.65a17.946,17.946,0,0,1-7.98-3.84,9.878,9.878,0,0,1-3.39-7.65,10.145,10.145,0,0,1,1.11-4.59,11.071,11.071,0,0,1,2.97-3.72,76.423,76.423,0,0,0-11.04,2.52l-1.47-4.77q5.55-1.2,12.48-2.19,5.88-.84,11.79-1.29Zm31.86,9.45-4.68,2.1a20.248,20.248,0,0,0-2.4-5.37,16.756,16.756,0,0,0-3.45-4.05l3.99-2.67A17.664,17.664,0,0,1,209.01-9.06Zm-14.94-3a24.156,24.156,0,0,0-1.29,7.47q0,.72.06,1.38L188.73-.9q-6.33-7.2-6.54-17.94l5.01-.18a26.789,26.789,0,0,0,.63,5.61,17.417,17.417,0,0,0,1.8,5.04,25.215,25.215,0,0,1,1.62-5.37ZM236.34-1.53,232.86,2.1a21.813,21.813,0,0,0-4.53-3.93q-1.26,3.9-6.75,3.9A9.369,9.369,0,0,1,216.6.87a4.2,4.2,0,0,1-2.19-3.75,4.187,4.187,0,0,1,1.77-3.48,9.292,9.292,0,0,1,5.79-1.5,17.051,17.051,0,0,1,2.34.15V-9.78h-1.47a8.6,8.6,0,0,1-4.215-.885,2.689,2.689,0,0,1-1.575-2.415,4.92,4.92,0,0,1,.66-2.22q-1.47.39-3.09.96l-1.26-4.05a84.809,84.809,0,0,1,10.68-2.37q-.09-2.28-.18-4.14l4.98.21q-.09,1.32-.15,3.33,2.91-.33,5.88-.63l.87,4.26q-3.18.09-6.81.48v3a27.005,27.005,0,0,0,6.03-1.98l1.65,3.99a35.485,35.485,0,0,1-7.68,2.07q0,1.29.03,3.57A24.031,24.031,0,0,1,236.34-1.53ZM224.22-13.62l-.06-3.03a62.957,62.957,0,0,0-6.42,1.35l3.84.3a1.481,1.481,0,0,0-.36.69q0,.75,1.47.75Q223.41-13.56,224.22-13.62Zm.09,9.72a9.049,9.049,0,0,0-2.76-.45q-2.79,0-2.79,1.23,0,1.26,2.61,1.26Q224.16-1.86,224.31-3.9Zm44.22-12.84q-2.16-.09-3.57-.09-2.19,0-4.5.15.03,2.94.09,7.14.06,9.12-8.88,12.51L247.62-.66q5.01-1.32,6.69-3.75a2.074,2.074,0,0,1-1.11.18,4.5,4.5,0,0,1-3.21-1.59,5.22,5.22,0,0,1-1.23-3.51,5.12,5.12,0,0,1,1.56-3.81,5.346,5.346,0,0,1,3.9-1.53,2.919,2.919,0,0,1,1.68.45l-.09-2.01a76.663,76.663,0,0,0-13.11,2.88l-1.14-4.56a118.748,118.748,0,0,1,14.01-2.58q-.21-3.57-.3-4.71l5.19.18q-.03.96-.03,4.02,3.87-.33,7.62-.42ZM256.11-9.21a2.725,2.725,0,0,0-.495-1.605,1.5,1.5,0,0,0-1.275-.7,1.22,1.22,0,0,0-1.065.54,2.154,2.154,0,0,0-.375,1.26,2.8,2.8,0,0,0,.465,1.65,1.5,1.5,0,0,0,1.3.66,1.231,1.231,0,0,0,1.065-.525A2.136,2.136,0,0,0,256.11-9.21Z" transform="translate(-6750 7296)" fill="#323232"/><path d="M-111.525-6.84a7.169,7.169,0,0,1-2.64,6.09,10.157,10.157,0,0,1-6.39,1.8,10.052,10.052,0,0,1-6.42-1.86,7.3,7.3,0,0,1-2.64-6.12v-4.23h5.07v3.84q0,3.93,3.99,3.93,3.93,0,3.93-3.81V-23.49h5.1Zm28.98-14.43a60.2,60.2,0,0,1-4.5,11.43,47.733,47.733,0,0,1-8.19,11.46l-4.5-2.58a39.373,39.373,0,0,0,8.25-10.83A47.057,47.057,0,0,0-87.4-23.1Zm-13.95,7.35-4.5,2.22a37.6,37.6,0,0,0-2.19-4.335,24.794,24.794,0,0,0-2.52-3.7l4.38-2.31A30.384,30.384,0,0,1-96.495-13.92Zm44.76,3.93q-1.74-.09-4.14-.09a176.031,176.031,0,0,0-19.89,1.02l-.3-4.95q4.35-.39,10.14-.66,8.49-.39,14.16-.3Zm30.21,5.34-3.27,3.81a49.217,49.217,0,0,0-8.25-7.47A57.064,57.064,0,0,1-42.795.12l-3.57-3.3a50.839,50.839,0,0,0,9.03-7.08,32.781,32.781,0,0,0,5.43-6.87q-3.69.36-11.07,1.14l-.3-4.59q2.1-.09,7.95-.57,4.95-.39,7.65-.75l3.03,2.37a72.006,72.006,0,0,1-5.4,7.74A69.1,69.1,0,0,1-21.525-4.65Zm30.45-7.08a11.97,11.97,0,0,1-3.39,8.7,17.252,17.252,0,0,1-8.55,4.5l-2.82-4.38A15.172,15.172,0,0,0,.825-5.67a7.507,7.507,0,0,0,3.06-6.18A5.881,5.881,0,0,0,1.92-16.53a7.334,7.334,0,0,0-5-1.71,9.021,9.021,0,0,0-.99.06l3.54,2.46a65.62,65.62,0,0,1-2.76,6.33A28.5,28.5,0,0,1-6.7-3.72a5.479,5.479,0,0,1-4.29,2.1,4.934,4.934,0,0,1-3.72-1.95,8.594,8.594,0,0,1-1.95-5.79,12.181,12.181,0,0,1,4.32-9.69,14.386,14.386,0,0,1,9.75-3.48,11.937,11.937,0,0,1,8.22,2.79A10.183,10.183,0,0,1,8.925-11.73Zm-13.62-6.36a9.137,9.137,0,0,0-5.22,2.85A8.022,8.022,0,0,0-12.1-9.66a3.759,3.759,0,0,0,.48,1.95q.42.69.9.69.99,0,2.49-2.91A62.193,62.193,0,0,0-4.695-18.09Zm44.7.21-2.94,3.66a9.522,9.522,0,0,0-2.745-2.565,13.479,13.479,0,0,0-3.765-1.755l2.34-3.81A13.018,13.018,0,0,1,40.005-17.88Zm-1.8,10.23a9.008,9.008,0,0,1-2.19,6.12A6.818,6.818,0,0,1,30.675.99a4.955,4.955,0,0,1-4.47-2.28l1.74-4.35a3.635,3.635,0,0,0,1.035,1.5,2.115,2.115,0,0,0,1.365.57,2.833,2.833,0,0,0,2.07-1.08,3.576,3.576,0,0,0,.99-2.49q0-2.91-2.73-2.91a14.208,14.208,0,0,0-5.55,1.62q0,6.06.15,9.12l-4.41,1.59a41.008,41.008,0,0,0-4.41-3.96q-.36.42-1.05,1.29l-2.64-4.08a67.923,67.923,0,0,1,8.04-5.88v-4.41h-.39a13.451,13.451,0,0,1-5.64-1.26l.99-4.83a8.453,8.453,0,0,0,4.86,1.53h.18q-.03-3.93-.09-5.43l4.89.33q-.18,1.32-.3,4.2a14.33,14.33,0,0,0,3.12-1.77l.81,4.59a14.807,14.807,0,0,1-4.08,1.98q0,.66-.03,2.82a16.9,16.9,0,0,1,6.54-1.77,6.252,6.252,0,0,1,4.8,1.86A6.827,6.827,0,0,1,38.205-7.65ZM20.835-2.01V-5.85a24.484,24.484,0,0,0-2.58,2.16ZM70.1-9.06l-4.68,2.1a20.248,20.248,0,0,0-2.4-5.37,16.756,16.756,0,0,0-3.45-4.05l3.99-2.67A17.664,17.664,0,0,1,70.1-9.06Zm-14.94-3a24.156,24.156,0,0,0-1.29,7.47q0,.72.06,1.38L49.815-.9q-6.33-7.2-6.54-17.94l5.01-.18a26.789,26.789,0,0,0,.63,5.61,17.417,17.417,0,0,0,1.8,5.04,25.215,25.215,0,0,1,1.62-5.37Zm40.56,6.12-.39,5.25A24.328,24.328,0,0,1,90.675.93a23.821,23.821,0,0,1-6.03.9q-4.53,0-5.91-3.24-.72-1.68-.72-7.23V-24.3l5.28.39q-.39,5.67-.39,17.61a3.893,3.893,0,0,0,.66,2.64,2.554,2.554,0,0,0,1.95.6,19.078,19.078,0,0,0,5.16-.93A36.225,36.225,0,0,0,95.715-5.94Zm30.54-2.91-3.18,2.88a12.033,12.033,0,0,0-6.78-1.98,7.683,7.683,0,0,0-3.24.6,2.159,2.159,0,0,0-1.47,1.98q0,2.55,6.27,2.55a54.975,54.975,0,0,0,6.99-.51l-.66,4.65a61.423,61.423,0,0,1-6.15.33q-11.49,0-11.49-6.69a5.9,5.9,0,0,1,2.34-4.815,9.79,9.79,0,0,1,6.3-1.875,14.688,14.688,0,0,1,3.69.45,39.8,39.8,0,0,1-2.37-3.3,18.745,18.745,0,0,1-3.36.3,18.234,18.234,0,0,1-7.38-1.59l.69-4.65a13.493,13.493,0,0,0,6.66,1.83h.81q-.99-1.68-2.73-4.56l4.77-1.41q1.32,2.7,2.55,4.86a12.445,12.445,0,0,0,4.86-3.99l2.67,4.17a18.709,18.709,0,0,1-5.16,3.63A83.253,83.253,0,0,0,126.255-8.85Z" transform="translate(-6780 7254)" fill="#992113"/><path d="M-1.05-2.94-4.17.81A18.541,18.541,0,0,0-6.69-2.04Q-8.1,1.14-12.63,1.14A6.717,6.717,0,0,1-17.055-.2a4.391,4.391,0,0,1-1.6-3.555,4.5,4.5,0,0,1,1.74-3.72,6.994,6.994,0,0,1,4.38-1.29,16.7,16.7,0,0,1,2.01.15q-.06-2.37-.21-5.43a35.39,35.39,0,0,0-6.45,2.1l-.45-4.2a42.945,42.945,0,0,1,6.69-2.22l-.27-5.28,4.92.21q-.06,1.53-.06,4.14,2.1-.33,3.72-.45l.6,4.56a36.578,36.578,0,0,0-4.29.33q.06,2.58.18,7.59A20.869,20.869,0,0,1-1.05-2.94ZM-18.93-8.49a19.328,19.328,0,0,0-1.62,4.44A24.262,24.262,0,0,0-21.33.21l-4.08.93A42.726,42.726,0,0,1-26.52-9.15,98.582,98.582,0,0,1-25.11-23.7l4.98.72A57.01,57.01,0,0,0-22.2-8.67a15.5,15.5,0,0,0,.09,1.71A31.907,31.907,0,0,1-20.76-9.9Zm8.43,3.81a5.673,5.673,0,0,0-2.22-.57q-1.95,0-1.95,1.17,0,1.26,1.92,1.26a2.585,2.585,0,0,0,1.665-.42A2.053,2.053,0,0,0-10.5-4.68ZM11.43-.87,7.35,2.58A30.071,30.071,0,0,0,1.08-3.78L5.1-7.11A38.118,38.118,0,0,1,11.43-.87Z" transform="translate(-6619 7254)" fill="#323232"/></g></svg>