<svg xmlns="http://www.w3.org/2000/svg" width="432.88" height="37.16" viewBox="0 0 432.88 37.16"><path d="M-186.44-11.8l-4.24,3.84a16.044,16.044,0,0,0-9.04-2.64,10.244,10.244,0,0,0-4.32.8A2.879,2.879,0,0,0-206-7.16q0,3.4,8.36,3.4a73.3,73.3,0,0,0,9.32-.68l-.88,6.2a81.9,81.9,0,0,1-8.2.44q-15.32,0-15.32-8.92a7.862,7.862,0,0,1,3.12-6.42,13.054,13.054,0,0,1,8.4-2.5,19.584,19.584,0,0,1,4.92.6,53.066,53.066,0,0,1-3.16-4.4,24.993,24.993,0,0,1-4.48.4,24.312,24.312,0,0,1-9.84-2.12l.92-6.2a17.991,17.991,0,0,0,8.88,2.44h1.08q-1.32-2.24-3.64-6.08l6.36-1.88q1.76,3.6,3.4,6.48a16.593,16.593,0,0,0,6.48-5.32l3.56,5.56a24.945,24.945,0,0,1-6.88,4.84A111.005,111.005,0,0,0-186.44-11.8Zm44-.44q0,9.6-11,14.44l-4.44-4.88q8.84-3.6,8.84-9.44a3.862,3.862,0,0,0-1.16-2.84,4.679,4.679,0,0,0-3.4-1.24q-3.96,0-8.48,3.72,0,3.76.04,8.24l.08,6.72h-6.2q.08-2.08.16-9.72A64.313,64.313,0,0,0-173.48.12l-4-4.92q6.52-7.96,9.6-12.36v-2.92a49.281,49.281,0,0,0-6.24,3l-2.28-5.6q4.32-2.04,8.44-3.52-.08-3.96-.24-6.84l6.52.2q-.12,2.24-.16,4.68.64-.2,1.84-.52l.72,5.44-2.64.92-.08,3.2a17.413,17.413,0,0,1,9.32-3.08,9.917,9.917,0,0,1,7.6,3.08A9.741,9.741,0,0,1-142.44-12.24Zm39.96-7.68a8.574,8.574,0,0,1-3.56,7.08,17.759,17.759,0,0,1-7.52,3.16l-4.08-5.16a18.063,18.063,0,0,0,5.16-1.28q3.28-1.36,3.28-3.48,0-1.92-2.44-1.92-3.28,0-11.32,4.56Q-116.72-6.68-112.72.36l-6.16,3.2a190.915,190.915,0,0,0-9.48-17.36q-3.64,2.2-5.8,3.72l-3.92-5.16q2.04-1.16,6.44-3.72-1.52-2.32-2.92-4.16l5.96-3q.96,1.52,2.52,4.08,1.72-.96,5.4-2.8a31.248,31.248,0,0,0-8.72-3.88l3.2-4.84a33.805,33.805,0,0,1,9.04,3.72l-2.72,4.64a22.8,22.8,0,0,1,9-2.4,8.771,8.771,0,0,1,5.96,2.12A7.011,7.011,0,0,1-102.48-19.92Zm42.28,7.16-5.68,2.88A33.6,33.6,0,0,0-72.96-22.6l5.24-2.96A35.763,35.763,0,0,1-60.2-12.76ZM-73.32-16.2a51.249,51.249,0,0,1-.66,7.3,38.118,38.118,0,0,1-1.38,6.46A7.961,7.961,0,0,1-77.38,1a4.95,4.95,0,0,1-3.18,1A13.834,13.834,0,0,1-86.4.52l.08-6.28a8.508,8.508,0,0,0,3.56,1.24A1.866,1.866,0,0,0-80.96-6a31.355,31.355,0,0,0,1.08-4.84,31.169,31.169,0,0,0,.44-4.52,3.979,3.979,0,0,0-.5-2.44q-.5-.56-2.42-.56-.08,0-.72.04A139.2,139.2,0,0,1-91.72,2L-97.68-.52a90.4,90.4,0,0,0,8.2-16.84,50.529,50.529,0,0,0-6.44,1.76l-1.6-5.76q5.08-1.24,9.96-2.08,1.32-4.84,2.04-9.08l6.36.96q-.64,2.32-2.08,7.4h.2q4.08-.04,5.84,1.64Q-73.32-20.72-73.32-16.2Zm51.08-4-3.64,5a26.571,26.571,0,0,0-7.28-6.24l3.44-4.6A21.612,21.612,0,0,1-22.24-20.2Zm-11.96-3q-3.96.48-8.28,1.4A136.75,136.75,0,0,1-51.76-4.52l-5.56-2.84a89.713,89.713,0,0,0,7.72-12.6q-3.2,1-5.44,1.92l-1.92-5.6q5.36-1.72,10.32-2.92a72.151,72.151,0,0,0,2.32-7.04l6.2,1.24q-.76,1.96-1.72,4.36,2.8-.52,4.8-.88ZM-22.56-3.6-26,2a31.15,31.15,0,0,0-4.88-4.08q-1.44,5.24-8.04,5.24a10.776,10.776,0,0,1-6.48-1.8A6.127,6.127,0,0,1-48-3.84a6.313,6.313,0,0,1,2.52-5.32,9.954,9.954,0,0,1,6.2-1.8,19.128,19.128,0,0,1,2.36.16,28.759,28.759,0,0,1,.04-4.12q.36-3.16,1.68-4.24l4.72,2.72a10.623,10.623,0,0,0-.56,3.84q0,1.04.28,3.52A27.452,27.452,0,0,1-22.56-3.6ZM-36.6-5.32a7.248,7.248,0,0,0-2.56-.6q-3.04,0-3.04,1.96,0,1.72,2.8,1.72a2.721,2.721,0,0,0,2.24-.8A4.13,4.13,0,0,0-36.6-5.32Zm52.44-9.84A99.283,99.283,0,0,1,4.72-6.72,123.992,123.992,0,0,1-8.04.64L-12-2.96q.08-2.4.08-16.52,0-6.88-.12-9.48h6.52q-.08,3.68-.16,15.04v6.08A80.442,80.442,0,0,0,13.4-21.72Zm41.4,1.56a158.093,158.093,0,0,0-16.28.96q-.08,3.8-.08,5.12a2.167,2.167,0,0,0,.76,1.92,3.847,3.847,0,0,0,2.04.4,75.433,75.433,0,0,0,10.76-.76L54.84.2q-6.6.52-11.68.52A16.452,16.452,0,0,1,37.32,0q-2.64-1.2-2.64-4.72,0-1.48.04-7.16-6.76.96-11.44,2.08l-1.12-6.04q5.64-.96,12.6-1.8l.04-5.4q-3.28.56-6.96,1.36l-.88-5.92q6.6-1.2,11.28-1.88,5.32-.8,11.64-1.52l.56,6q-4.76.4-9.24,1-.04,1.72-.12,5.64,8.16-.84,15.88-1.2Zm20.68-9.48-4.6,4.72a44.837,44.837,0,0,0-8.12-7.2l4.32-4.64A36.25,36.25,0,0,1,77.92-23.08Zm18.76,5.12A131.012,131.012,0,0,1,84.78-7.48,143.145,143.145,0,0,1,71.76,1.64L67.4-3.6a105.581,105.581,0,0,0,13.8-9.16A104.005,104.005,0,0,0,93.36-23.88Zm40.44,2.32a15.959,15.959,0,0,1-4.52,11.6,23,23,0,0,1-11.4,6l-3.76-5.84a20.23,20.23,0,0,0,8.88-3.68,10.009,10.009,0,0,0,4.08-8.24,7.842,7.842,0,0,0-2.62-6.24,9.778,9.778,0,0,0-6.66-2.28,12.027,12.027,0,0,0-1.32.08l4.72,3.28a87.491,87.491,0,0,1-3.68,8.44,38,38,0,0,1-4.56,7.56,7.305,7.305,0,0,1-5.72,2.8,6.579,6.579,0,0,1-4.96-2.6,11.459,11.459,0,0,1-2.6-7.72,16.242,16.242,0,0,1,5.76-12.92,19.181,19.181,0,0,1,13-4.64q6.76,0,10.96,3.72Q137.12-22.4,137.12-15.64Zm-18.16-8.48a12.183,12.183,0,0,0-6.96,3.8,10.7,10.7,0,0,0-2.92,7.44,5.012,5.012,0,0,0,.64,2.6q.56.92,1.2.92,1.32,0,3.32-3.88A82.924,82.924,0,0,0,118.96-24.12Zm55.16.28-.96.16v2.4q0,.88.64.88h.32a.559.559,0,0,0,.64-.48q.08-.92.12-1.8l-.08.04Q174.6-23.04,174.12-23.84Zm-5.2,16.92a16.244,16.244,0,0,0,2.48-2.76h-4.48l-.32.36A12.314,12.314,0,0,0,168.92-6.92ZM158.8-7.56v5.6a26.448,26.448,0,0,0,5.88-2.12,23.661,23.661,0,0,1-1.64-1.96q-.96.76-2.08,1.48Zm0-8.76v6.8a23.943,23.943,0,0,0,7.16-7.72l2.76.6a4.975,4.975,0,0,1-.36-2.2v-4.08q-.88.16-2.6.4l2.28,1.28a17.091,17.091,0,0,1-2.94,4.26,14.938,14.938,0,0,1-3.94,3.14Zm-12.24-8.24v-2.28h-4.68V-32.4h17.64v5.24q.56-.04,1.64-.08a38,38,0,0,0,2.36-6.04l5.68.6q-1.08,2.8-2.2,5.08,1.44-.12,4.32-.52-.92-1.28-1.92-2.52l4.52-1.92a57.913,57.913,0,0,1,5.32,7.4l-3.88,2.2,3.76,1.2a21.023,21.023,0,0,1-.64,4.72q-.6,1.36-2.76,1.36H171q-.36.72-.68,1.24h6.64V-9.8a28.606,28.606,0,0,1-3.68,5.44,37.277,37.277,0,0,0,6.04,2L176.6,3.2a32.15,32.15,0,0,1-7.68-3.64,26.743,26.743,0,0,1-7.44,3.6L158.8-1.8V1.16H147.52V3h-4.96V-24.56Zm4.88,0v-2.28H150.4v2.28Zm7.12-2.28h-3.32v2.28h3.56v6.28a11.848,11.848,0,0,0,4.08-3.84q-2.04.24-3.2.36Zm-3.28,11.16v-3.96h-.96v3.24q0,.72.56.72Zm0,5.8v-1.36h-1.84q-1.28,0-1.64-.48a4.247,4.247,0,0,1-.36-2.2v-5.72H150.4v.04a42.882,42.882,0,0,1-.88,9.16l-3.04-1.12a28.042,28.042,0,0,0,1.04-8.08h-1.04v9.76Zm0,5.92V-5.52h-8.8v1.56ZM195.2-4.2h-6.76v3h-5.8V-31.6h12.88V-5.68a44.542,44.542,0,0,0,7.52-9.28h-6.92v-5.36h7.92v-3.36h-7.16v-5.4h7.16V-33.2h5.84v4.12h7.36v5.4h-7.36v3.36h8.4v5.36h-7.44a46.307,46.307,0,0,0,8.28,10L215.96.36a47.934,47.934,0,0,1-6.08-7.76V2.84h-5.84V-7.52A47.526,47.526,0,0,1,197.88.36Zm-4.92-5.68V-25.96h-2V-9.88Z" transform="translate(213.76 33.6)" fill="#fff"/></svg>