<svg xmlns="http://www.w3.org/2000/svg" width="354.158" height="79.084" viewBox="0 0 354.158 79.084"><g transform="translate(-120 -8199.304)"><path d="M25.84-16.456v-.952H22.3v.952Zm-14.416,0v-.952H8.16v.952Zm0,3.3v-.952H8.16v.952ZM21.93.17H14.79V1.36H10.1V-9.418H23.8v7.48h.51a2.458,2.458,0,0,0,1.224-.2q.306-.2.306-.952v-7.242H17.884V-20.468h5.678q-.408-.986-1.054-2.278H21.182q-.884,1.224-1.6,2.074l-4.794-1.7.34-.374h-1.8q.34.646.714,1.462L9.86-20.5h6.188v10.166H8.16V2.516H2.992V-20.5H9.078q-.544-1.326-.986-2.244H7.174q-.782,1.054-1.768,2.21L.782-22.27a33.672,33.672,0,0,0,4.794-6.358l4.93.578q-.2.408-.68,1.258H16.49v2.482a31.991,31.991,0,0,0,2.958-4.318l5.066.544q-.238.442-.714,1.292h8.432v4.046h-4.25q.408.782.714,1.428l-4.556.85h6.9v18.19q0,2.958-.748,3.808-.782.952-3.57.952H22.542ZM19.312-5.882V-6.8H14.62v.918Zm0,3.162v-.986H14.62v.986ZM25.84-13.158v-.952H22.3v.952ZM66.5-2.38H53.652v4.9H48.28v-4.9H35.53V-6.97H48.28v-1.5H37.91V-21.93h3.332a30.724,30.724,0,0,0-2.822-3.944l4.76-1.87a39.171,39.171,0,0,1,3.162,4.692L43.35-21.93H49.3a43.965,43.965,0,0,0-2.686-4.9l4.692-1.7a38.471,38.471,0,0,1,2.788,5.168L49.878-21.93h4.794a37.745,37.745,0,0,0,3.366-6.12l5.134,1.394Q61.812-24,60.486-21.93h3.638V-8.466H53.652v1.5H66.5ZM58.956-16.728v-1.394H53.618v1.394Zm0,4.556V-13.6H53.618v1.428ZM48.28-16.728v-1.394h-5.2v1.394Zm0,4.556V-13.6h-5.2v1.428Zm49.028-10.88-.714,5.338a18.736,18.736,0,0,1-2.21.1,29.65,29.65,0,0,1-5.406-.51,15.633,15.633,0,0,1-4.42-1.394l2.278-4.862a19.593,19.593,0,0,0,8.33,1.428Q96.152-22.95,97.308-23.052ZM99.314-5.2,97.41.51q-5.95-.1-9.078-1.734a9.521,9.521,0,0,1-4.794-6.6l4.556-3.468A8.887,8.887,0,0,0,89.76-7.582a6.4,6.4,0,0,0,3.978,2.074A35.8,35.8,0,0,0,99.314-5.2ZM81.872-10.336a21.413,21.413,0,0,0-2.142,5.1A16.8,16.8,0,0,0,78.948.238L73.78,1.564a56.527,56.527,0,0,1-1.462-13.158,49.361,49.361,0,0,1,2.516-14.994l5.338,1.564a39.9,39.9,0,0,0-2.04,6.868,38.576,38.576,0,0,0-.884,7.072,17.7,17.7,0,0,0,.1,2.652,43.633,43.633,0,0,1,2.346-4.25ZM133.654-2.55q0,2.992-.782,3.876-.816.986-3.6.986H126.14l-1.088-4.488h2.074a2.453,2.453,0,0,0,.986-.136q.442-.238.442-1.292V-15.368h-8.7V-27.54h13.8Zm-5.066-20.2V-23.9h-4.25v1.156Zm0,4.08V-19.89h-4.25v1.224Zm-10.506,3.3h-8.636V2.346H104.38V-27.54h13.7Zm-4.522-7.378V-23.9h-4.114v1.156Zm0,4.08V-19.89h-4.114v1.224Zm4.488,8.228V-8.7h2.04v-1.734Zm-.17,5.678a11.851,11.851,0,0,1-3.264,6.8L109.99-.51a8.047,8.047,0,0,0,3.128-4.25h-2.652V-8.7h2.89v-1.734h-2.312v-3.808H126.99v3.808h-2.21V-8.7h2.754V-4.76H124.78V1.6h-4.692V-4.76ZM154.972-18.5h7.378a30.156,30.156,0,0,1-3.774-4.93A28.548,28.548,0,0,1,154.972-18.5Zm-13.43,10.03q-1.258,2.312-2.72,4.522l-1.938-5.474a57.706,57.706,0,0,0,4.658-7.99v-.986H137.53v-4.624h4.012v-5.168h4.794v5.168H149.8v3.094a26.111,26.111,0,0,0,6.086-8.126h5.338a27.087,27.087,0,0,0,8.364,9.554l-2.38,4.522q-1.224-.986-2.278-1.938v1.8h-3.876v3.094h5.984v4.522h-5.984v3.638h7.548V1.8H148.92V-2.856h7.208V-6.494h-5.61v-4.522h5.61V-14.11h-3.74v-1.768q-1.088.986-2.278,1.9l-2.278-4.318.136-.1h-1.632v.816a47.519,47.519,0,0,0,3.876,5.474l-1.836,5q-1.054-1.36-2.04-2.89V2.516h-4.794Zm60.622-7.276-2.482,1.428a19.388,19.388,0,0,0-2.992-4.114L199-19.788A18.027,18.027,0,0,1,202.164-15.742Zm-3.774,2.176-2.482,1.36a19.372,19.372,0,0,0-2.788-4.216L195.4-17.68A20.748,20.748,0,0,1,198.39-13.566Zm2.04-7.412a15.563,15.563,0,0,0-9.112,2.686,8.48,8.48,0,0,0-3.842,7.072,6.493,6.493,0,0,0,2.448,5.338q2.278,1.836,7.582,3.128l-2.822,5.27a20.339,20.339,0,0,1-9.044-4.352,11.2,11.2,0,0,1-3.842-8.67,11.5,11.5,0,0,1,1.258-5.2,12.547,12.547,0,0,1,3.366-4.216,86.613,86.613,0,0,0-12.512,2.856l-1.666-5.406q6.29-1.36,14.144-2.482,6.664-.952,13.362-1.462Zm32.64,1.6-.238,4.76a40.8,40.8,0,0,0-5.678.238,59.947,59.947,0,0,0,4.862,6.766L227.8-4.522a20.406,20.406,0,0,0-8.16-1.87q-3.808,0-3.808,1.87,0,2.074,7.786,2.074,1.53,0,3.978-.136l-1.156,5q-2.38.136-3.5.136-12.512,0-12.512-6.9a5.392,5.392,0,0,1,2.346-4.573,9.993,9.993,0,0,1,6.052-1.717,17.88,17.88,0,0,1,5.882.952q-1.462-2.04-2.686-3.978a39.094,39.094,0,0,0-8.806,2.38L210.63-15.81a84.126,84.126,0,0,1,9.01-1.938q-.034-.034-.986-1.87a36.721,36.721,0,0,1-8.024.068l-1.462-4.964a31.7,31.7,0,0,0,7.276.476q-.816-1.768-1.734-4.148l5.474-.51q.782,2.142,1.564,3.978a12.367,12.367,0,0,0,4.93-2.04l2.822,4.25a22.365,22.365,0,0,1-5.746,2.04q.306.646.986,1.938A76.9,76.9,0,0,1,233.07-19.38ZM268.158-6.766a8.192,8.192,0,0,1-3.434,7,13.666,13.666,0,0,1-8.262,2.312,10.9,10.9,0,0,1-5.406-1.224,4.411,4.411,0,0,1-2.448-3.978,4.429,4.429,0,0,1,1.717-3.6,6.708,6.708,0,0,1,4.369-1.394,6.674,6.674,0,0,1,4.08,1.207,5.383,5.383,0,0,1,2.074,3.417,4.3,4.3,0,0,0,1.836-3.57,3.532,3.532,0,0,0-1.19-2.72,5.9,5.9,0,0,0-4.08-1.258,12.063,12.063,0,0,0-5.644,1.36,22.248,22.248,0,0,0-6.732,6.188l-3.944-3.638q7.038-7.446,14.348-15.912-3.128.476-8.772,1.428l-.85-5.2q2.856-.136,7.395-.7t6.953-1.071l3.332,3.842q-5.44,5.848-9.35,10.2a12.722,12.722,0,0,1,4.93-1.02,9.321,9.321,0,0,1,6.664,2.278A7.93,7.93,0,0,1,268.158-6.766ZM256.9-1.6a2.983,2.983,0,0,0-.85-1.9,2.38,2.38,0,0,0-1.7-.68q-1.36,0-1.36,1.088,0,1.53,3.128,1.53Q256.53-1.564,256.9-1.6ZM32.4,26.01H26.214V36.89H19.142V18.972H32.4Zm-2.108-2.142V21.08h-9.01V34.748h2.788V23.868ZM65.076,37.6Q60.18,38.012,54.23,39q.782,5.168,1.6,10.1l-5.474.816q-.306-3.434-1.224-10Q43.554,41,38.352,42.364l-1.02-5q3.774-.782,11.118-2.108-.17-1.258-.51-3.706-5.576.986-8.636,1.394l-1.054-4.9q3.842-.306,8.976-1.19-.68-4.284-1.156-6.63l5.61-.714q.238,3.128.68,6.392a77.832,77.832,0,0,0,7.82-1.972l1.088,4.828q-3.332.884-8.262,1.87l.2,1.224.34,2.482q6.46-1.122,10.506-1.7Zm32.64-7.242q-3.264,5.474-6.392,10.132l-3.91-1.87a59.118,59.118,0,0,0,3.332-5q-3.3.986-6.086,1.87,1.9,6.6,4.182,13.6L84.014,50.32q-1.224-4.76-3.842-13.4-3.468,1.122-6.018,2.108l-1.6-4.454q3.4-.918,6.358-1.8L77.146,27.3l4.93-1.156q.442,1.734,1.394,5.236,6.46-1.972,10.3-3.3Zm23.9,3.706L117.3,35.53a29.4,29.4,0,0,0-2.788-6.868l4.284-1.7A27.177,27.177,0,0,1,121.618,34.068Zm8.942-4.726A55.452,55.452,0,0,1,126,40.29a45.781,45.781,0,0,1-7.174,9.758L114,47.906a41.426,41.426,0,0,0,7.616-9.588,40.116,40.116,0,0,0,4.08-10.4ZM114.988,36.38l-4.284,1.8a25.086,25.086,0,0,0-3.23-6.664l4.012-1.9A26.861,26.861,0,0,1,114.988,36.38Zm54.6-15.062a3.264,3.264,0,0,1-6.528,0,3.065,3.065,0,0,1,.969-2.3,3.3,3.3,0,0,1,4.607,0A3.092,3.092,0,0,1,169.592,21.318Zm-4.76,4.9a51.947,51.947,0,0,1-6.324,11.934,45.321,45.321,0,0,1-10.71,10.71l-4.59-3.5a45.072,45.072,0,0,0,9.962-9.044,28.517,28.517,0,0,0,4.658-8.228q-2.108.17-9.078.748l-7.718.646-.374-5.406q3.57-.068,10.37-.544,6.12-.442,10.03-.952Zm3.162-4.9a1.631,1.631,0,0,0-.476-1.173,1.586,1.586,0,0,0-1.19-.493,1.547,1.547,0,0,0-1.156.493,1.683,1.683,0,0,0,0,2.346,1.547,1.547,0,0,0,1.156.493,1.627,1.627,0,0,0,1.666-1.666Zm16.9,29.07H171.6V43.35h6.222V32.47h7.072Zm-2.142-2.142V34.578h-2.822V45.492H173.74v2.754Z" transform="translate(206 8228)" fill="#992113"/><g transform="translate(-214 3403.897)"><circle cx="33" cy="33" r="33" transform="translate(334 4802.104)" fill="#992113"/><path d="M18.2.7H3.864v-4h5.1V-16.3L5.432-13.608l-2.3-3.3L9.52-21.7h4.144V-3.3H18.2Z" transform="translate(357 4846.104)" fill="#fff"/></g></g></svg>