<svg xmlns="http://www.w3.org/2000/svg" width="295.13" height="20.9" viewBox="0 0 295.13 20.9"><path d="M16.72-10.648v-.616H14.432v.616Zm-9.328,0v-.616H5.28v.616Zm0,2.134V-9.13H5.28v.616ZM14.19.11H9.57V.88H6.534V-6.094H15.4v4.84h.33a1.59,1.59,0,0,0,.792-.132q.2-.132.2-.616V-6.688H11.572v-6.556h3.674q-.264-.638-.682-1.474h-.858q-.572.792-1.034,1.342l-3.1-1.1.22-.242H8.624q.22.418.462.946l-2.706.506h4v6.578H5.28V1.628H1.936V-13.266H5.874q-.352-.858-.638-1.452H4.642q-.506.682-1.144,1.43L.506-14.41a21.788,21.788,0,0,0,3.1-4.114l3.19.374q-.132.264-.44.814H10.67v1.606a20.7,20.7,0,0,0,1.914-2.794l3.278.352q-.154.286-.462.836h5.456v2.618h-2.75q.264.506.462.924l-2.948.55h4.466v11.77A4.114,4.114,0,0,1,19.6.99q-.506.616-2.31.616H14.586ZM12.5-3.806V-4.4H9.46v.594Zm0,2.046V-2.4H9.46v.638ZM16.72-8.514V-9.13H14.432v.616ZM43.032-1.54H34.716V1.628H31.24V-1.54H22.99V-4.51h8.25v-.968H24.53V-14.19h2.156a19.88,19.88,0,0,0-1.826-2.552l3.08-1.21a25.346,25.346,0,0,1,2.046,3.036l-1.936.726H31.9a28.448,28.448,0,0,0-1.738-3.168l3.036-1.1A24.893,24.893,0,0,1,35-15.114l-2.728.924h3.1a24.423,24.423,0,0,0,2.178-3.96l3.322.9Q40-15.532,39.138-14.19h2.354v8.712H34.716v.968h8.316Zm-4.884-9.284v-.9H34.694v.9Zm0,2.948V-8.8H34.694v.924ZM31.24-10.824v-.9H27.874v.9Zm0,2.948V-8.8H27.874v.924Zm31.724-7.04L62.5-11.462a12.123,12.123,0,0,1-1.43.066,19.185,19.185,0,0,1-3.5-.33,10.115,10.115,0,0,1-2.86-.9l1.474-3.146a12.678,12.678,0,0,0,5.39.924Q62.216-14.85,62.964-14.916Zm1.3,11.55L63.03.33A13.523,13.523,0,0,1,57.156-.792a6.161,6.161,0,0,1-3.1-4.268L57-7.3a5.75,5.75,0,0,0,1.078,2.4,4.143,4.143,0,0,0,2.574,1.342A23.161,23.161,0,0,0,64.262-3.366ZM52.976-6.688a13.855,13.855,0,0,0-1.386,3.3A10.873,10.873,0,0,0,51.084.154l-3.344.858A36.576,36.576,0,0,1,46.794-7.5a31.94,31.94,0,0,1,1.628-9.7l3.454,1.012a25.82,25.82,0,0,0-1.32,4.444,24.96,24.96,0,0,0-.572,4.576,11.455,11.455,0,0,0,.066,1.716,28.233,28.233,0,0,1,1.518-2.75ZM86.482-1.65A4.132,4.132,0,0,1,85.976.858a3.052,3.052,0,0,1-2.332.638H81.62l-.7-2.9h1.342A1.587,1.587,0,0,0,82.9-1.5q.286-.154.286-.836V-9.944H77.55V-17.82h8.932ZM83.2-14.718v-.748h-2.75v.748Zm0,2.64v-.792h-2.75v.792Zm-6.8,2.134H70.818V1.518H67.54V-17.82h8.866ZM73.48-14.718v-.748H70.818v.748Zm0,2.64v-.792H70.818v.792Zm2.9,5.324v1.122H77.7V-6.754Zm-.11,3.674a7.668,7.668,0,0,1-2.112,4.4L71.17-.33a5.207,5.207,0,0,0,2.024-2.75H71.478V-5.632h1.87V-6.754h-1.5V-9.218H82.17v2.464H80.74v1.122h1.782V-3.08H80.74V1.034H77.7V-3.08Zm24-8.888h4.774a19.513,19.513,0,0,1-2.442-3.19A18.473,18.473,0,0,1,100.276-11.968Zm-8.69,6.49q-.814,1.5-1.76,2.926L88.572-6.094a37.338,37.338,0,0,0,3.014-5.17V-11.9h-2.6v-2.992h2.6v-3.344h3.1v3.344h2.244v2a16.9,16.9,0,0,0,3.938-5.258h3.454a17.527,17.527,0,0,0,5.412,6.182L108.2-9.042q-.792-.638-1.474-1.254V-9.13h-2.508v2h3.872V-4.2h-3.872v2.354H109.1V1.166H96.36V-1.848h4.664V-4.2h-3.63V-7.128h3.63v-2H98.6v-1.144q-.7.638-1.474,1.232l-1.474-2.794.088-.066H94.688v.528A30.746,30.746,0,0,0,97.2-7.832L96.008-4.6q-.682-.88-1.32-1.87v8.1h-3.1Zm39.226-4.708-1.606.924a12.545,12.545,0,0,0-1.936-2.662l1.5-.88A11.664,11.664,0,0,1,130.812-10.186ZM128.37-8.778l-1.606.88a12.534,12.534,0,0,0-1.8-2.728l1.474-.814A13.425,13.425,0,0,1,128.37-8.778Zm1.32-4.8a10.07,10.07,0,0,0-5.9,1.738,5.487,5.487,0,0,0-2.486,4.576,4.2,4.2,0,0,0,1.584,3.454A12.949,12.949,0,0,0,127.8-1.782l-1.826,3.41a13.16,13.16,0,0,1-5.852-2.816,7.243,7.243,0,0,1-2.486-5.61,7.44,7.44,0,0,1,.814-3.366,8.119,8.119,0,0,1,2.178-2.728,56.044,56.044,0,0,0-8.1,1.848l-1.078-3.5q4.07-.88,9.152-1.606,4.312-.616,8.646-.946Zm21.12,1.034-.154,3.08a26.4,26.4,0,0,0-3.674.154,38.791,38.791,0,0,0,3.146,4.378l-2.728,2a13.2,13.2,0,0,0-5.28-1.21q-2.464,0-2.464,1.21,0,1.342,5.038,1.342.99,0,2.574-.088l-.748,3.234q-1.54.088-2.266.088-8.1,0-8.1-4.466a3.489,3.489,0,0,1,1.518-2.959,6.466,6.466,0,0,1,3.916-1.111,11.569,11.569,0,0,1,3.806.616q-.946-1.32-1.738-2.574a25.3,25.3,0,0,0-5.7,1.54L136.29-10.23a54.436,54.436,0,0,1,5.83-1.254q-.022-.022-.638-1.21a23.761,23.761,0,0,1-5.192.044l-.946-3.212a20.512,20.512,0,0,0,4.708.308q-.528-1.144-1.122-2.684l3.542-.33q.506,1.386,1.012,2.574a8,8,0,0,0,3.19-1.32l1.826,2.75a14.471,14.471,0,0,1-3.718,1.32q.2.418.638,1.254A49.759,49.759,0,0,1,150.81-12.54Zm22.7,8.162A5.3,5.3,0,0,1,171.292.154a8.843,8.843,0,0,1-5.346,1.5,7.052,7.052,0,0,1-3.5-.792,2.854,2.854,0,0,1-1.584-2.574,2.866,2.866,0,0,1,1.111-2.332,4.34,4.34,0,0,1,2.827-.9,4.319,4.319,0,0,1,2.64.781,3.483,3.483,0,0,1,1.342,2.211,2.78,2.78,0,0,0,1.188-2.31,2.286,2.286,0,0,0-.77-1.76,3.818,3.818,0,0,0-2.64-.814,7.806,7.806,0,0,0-3.652.88,14.4,14.4,0,0,0-4.356,4L156-4.312q4.554-4.818,9.284-10.3-2.024.308-5.676.924l-.55-3.366q1.848-.088,4.785-.451t4.5-.693l2.156,2.486q-3.52,3.784-6.05,6.6a8.232,8.232,0,0,1,3.19-.66,6.031,6.031,0,0,1,4.312,1.474A5.131,5.131,0,0,1,173.514-4.378Zm-7.282,3.344a1.93,1.93,0,0,0-.55-1.232,1.54,1.54,0,0,0-1.1-.44q-.88,0-.88.7,0,.99,2.024.99Q165.99-1.012,166.232-1.034ZM196.966-13.97h-4v7.04h-4.576V-18.524h8.58ZM195.6-15.356v-1.8h-5.83v8.844h1.8v-7.04Zm22.506,8.888q-3.168.264-7.018.9.506,3.344,1.034,6.534l-3.542.528q-.2-2.222-.792-6.468-3.608.7-6.974,1.584l-.66-3.234q2.442-.506,7.194-1.364-.11-.814-.33-2.4-3.608.638-5.588.9l-.682-3.168q2.486-.2,5.808-.77-.44-2.772-.748-4.29l3.63-.462q.154,2.024.44,4.136a50.363,50.363,0,0,0,5.06-1.276l.7,3.124q-2.156.572-5.346,1.21l.132.792.22,1.606q4.18-.726,6.8-1.1Zm21.12-4.686q-2.112,3.542-4.136,6.556l-2.53-1.21a38.251,38.251,0,0,0,2.156-3.234q-2.134.638-3.938,1.21,1.232,4.268,2.706,8.8l-3.124.792q-.792-3.08-2.486-8.668-2.244.726-3.894,1.364l-1.034-2.882q2.2-.594,4.114-1.166l-1.144-3.542,3.19-.748q.286,1.122.9,3.388,4.18-1.276,6.666-2.134Zm15.466,2.4L251.9-7.81a19.025,19.025,0,0,0-1.8-4.444l2.772-1.1A17.585,17.585,0,0,1,254.694-8.756Zm5.786-3.058a35.881,35.881,0,0,1-2.948,7.084,29.623,29.623,0,0,1-4.642,6.314L249.766.2a26.805,26.805,0,0,0,4.928-6.2,25.957,25.957,0,0,0,2.64-6.732ZM250.4-7.26l-2.772,1.166a16.232,16.232,0,0,0-2.09-4.312l2.6-1.232A17.381,17.381,0,0,1,250.4-7.26Zm35.332-9.746a2.037,2.037,0,0,1-.616,1.5,2.037,2.037,0,0,1-1.5.616,2.048,2.048,0,0,1-1.485-.616,2.019,2.019,0,0,1-.627-1.5,1.983,1.983,0,0,1,.627-1.485,2.067,2.067,0,0,1,1.485-.6,2.056,2.056,0,0,1,1.5.6A2,2,0,0,1,285.736-17.006Zm-3.08,3.168a33.612,33.612,0,0,1-4.092,7.722,29.326,29.326,0,0,1-6.93,6.93l-2.97-2.266A29.164,29.164,0,0,0,275.11-7.3a18.451,18.451,0,0,0,3.014-5.324q-1.364.11-5.874.484l-4.994.418-.242-3.5q2.31-.044,6.71-.352,3.96-.286,6.49-.616Zm2.046-3.168a1.055,1.055,0,0,0-.308-.759,1.026,1.026,0,0,0-.77-.319,1,1,0,0,0-.748.319,1.055,1.055,0,0,0-.308.759,1.055,1.055,0,0,0,.308.759,1,1,0,0,0,.748.319,1.045,1.045,0,0,0,.77-.308A1.045,1.045,0,0,0,284.7-17.006ZM295.636,1.8h-8.6V-2.75h4.026V-9.79h4.576ZM294.25.418V-8.426h-1.826v7.062h-4V.418Z" transform="translate(-0.506 19.096)" fill="#992113"/></svg>