<svg xmlns="http://www.w3.org/2000/svg" width="630.216" height="190.68" viewBox="0 0 630.216 190.68"><g transform="translate(-47.496 -1415.68)"><path d="M-217.728-28.608l-4.7,5.856a15.234,15.234,0,0,0-4.392-4.1,21.566,21.566,0,0,0-6.024-2.808l3.744-6.1A20.829,20.829,0,0,1-217.728-28.608Zm-2.88,16.368a14.413,14.413,0,0,1-3.5,9.792,10.909,10.909,0,0,1-8.544,4.032,7.927,7.927,0,0,1-7.152-3.648l2.784-6.96a5.817,5.817,0,0,0,1.656,2.4,3.383,3.383,0,0,0,2.184.912,4.532,4.532,0,0,0,3.312-1.728,5.721,5.721,0,0,0,1.584-3.984q0-4.656-4.368-4.656-3.312,0-8.88,2.592,0,9.7.24,14.592l-7.056,2.544a65.613,65.613,0,0,0-7.056-6.336q-.576.672-1.68,2.064l-4.224-6.528a108.678,108.678,0,0,1,12.864-9.408v-7.056h-.624a21.522,21.522,0,0,1-9.024-2.016l1.584-7.728a13.525,13.525,0,0,0,7.776,2.448h.288q-.048-6.288-.144-8.688l7.824.528q-.288,2.112-.48,6.72a22.928,22.928,0,0,0,4.992-2.832l1.3,7.344a23.692,23.692,0,0,1-6.528,3.168q0,1.056-.048,4.512,6.336-2.832,10.464-2.832a10,10,0,0,1,7.68,2.976A10.923,10.923,0,0,1-220.608-12.24ZM-248.4-3.216V-9.36A39.174,39.174,0,0,0-252.528-5.9Zm78.96-12h-8.352V-3.6q0,4.272-1.584,5.616-1.344,1.2-5.472,1.2h-3.744l-1.824-6.96h3.7a1.948,1.948,0,0,0,1.416-.384,2.333,2.333,0,0,0,.36-1.536v-9.552h-8.16v-6.816h8.16v-4.08h1.152a62.647,62.647,0,0,0,4.224-5.616h-11.76V-38.3h20.064v6.48q-2.448,3.5-6.528,8.4v1.392h8.352Zm-33.168,1.392a34.514,34.514,0,0,0,3.168-12.288h-3.072q-1.392,5.136-3.12,9.984Q-204.672-15.408-202.608-13.824Zm9.552-13.056a42.156,42.156,0,0,1-1.1,8.352,35,35,0,0,1-3.168,8.976q2.4,2.016,5.136,4.512l-3.5,6.72q-2.928-2.88-5.616-5.328a60.466,60.466,0,0,1-8.016,7.68l-5.76-4.944A46.85,46.85,0,0,0-206.5-8.16q-3.84-3.264-6.96-5.52,2.736-7.392,4.08-12.432h-4.7v-6.624h6.384q.624-2.832,1.344-7.3l7.2.768q-.432,2.592-1.344,6.528h7.44Zm71.808,13.632-3.12,7.3a55.854,55.854,0,0,0-6.192-4.08,29.4,29.4,0,0,1-13.2,14.016l-5.808-5.232q8.928-3.984,12.48-11.952a47.056,47.056,0,0,0-8.352-2.5,70.9,70.9,0,0,1-4.656,9.12q-3.12,4.8-7.92,4.8a6.846,6.846,0,0,1-5.28-2.472,8.657,8.657,0,0,1-2.208-5.976q0-7.2,6.864-10.752a19.667,19.667,0,0,1,8.784-1.968q.192-.432,3.552-8.544-1.2.24-10.176,1.632l-1.536-7.056a77.751,77.751,0,0,0,16.176-2.16l4.992,3.648q-1.824,3.552-5.808,13.152a57.152,57.152,0,0,1,7.728,2.064,43.152,43.152,0,0,0,.672-6.192l7.392,1.008a54.733,54.733,0,0,1-1.2,7.968A57.033,57.033,0,0,1-121.248-13.248Zm-31.44-3.216a8.245,8.245,0,0,0-4.416,1.44,4.677,4.677,0,0,0-2.112,3.936q0,1.968,1.536,1.968,1.008,0,2.3-2.016A50.743,50.743,0,0,0-152.688-16.464Zm68.016-1.344v-2.544h-8.16v2.544Zm-18.576-6.864q-1.1,1.152-2.208,2.208v1.248a47.965,47.965,0,0,1-.384,6.048,48.75,48.75,0,0,0,5.328,7.824l-3.072,5.088a13.832,13.832,0,0,0,6.864-9.456h-5.808v-6.1h3.216v-2.544h-3.936Zm2.736-3.072-1.056,1.248h2.256V-29.28h5.856V-26.5h1.584V-30.48h-9.312v-6.144h8.832v-3.264h7.2v3.264h9.5v6.144h-9.984V-26.5h1.68V-29.28h5.9V-26.5h4.368v6.144h-4.512v2.544H-74.3v6.1h-8.16v7.44a1.315,1.315,0,0,0,.12.744.949.949,0,0,0,.6.12h.48a1.032,1.032,0,0,0,1.128-.744A27.278,27.278,0,0,0-79.92-8.88l5.9,1.68q0,6.576-.912,8.4-1.008,1.968-4.752,1.968h-5.04q-2.88,0-3.744-.624Q-89.52,1.728-89.52-1.1V-11.712h-4.8l3.984,1.536A22.63,22.63,0,0,1-93.5-2.064a19.631,19.631,0,0,1-6.864,6.048L-105.84-1.1l1.44-.72q-2.256-3.024-3.408-4.944A39.037,39.037,0,0,1-114,4.368L-119.136-.96a31.6,31.6,0,0,0,5.76-10.7,41.818,41.818,0,0,0,1.392-11.616V-39.7h6.528v9.072q1.248-1.488,2.544-3.216Zm-11.9-3.6a105.4,105.4,0,0,1-2.016,14.16l-5.136-2.544a79.371,79.371,0,0,0,2.256-13.2Zm85.44,7.44a10.289,10.289,0,0,1-4.272,8.5,21.311,21.311,0,0,1-9.024,3.792l-4.9-6.192a21.675,21.675,0,0,0,6.192-1.536q3.936-1.632,3.936-4.176,0-2.3-2.928-2.3-3.936,0-13.584,5.472Q-44.064-8.016-39.264.432l-7.392,3.84A229.1,229.1,0,0,0-58.032-16.56q-4.368,2.64-6.96,4.464l-4.7-6.192q2.448-1.392,7.728-4.464-1.824-2.784-3.5-4.992l7.152-3.6q1.152,1.824,3.024,4.9,2.064-1.152,6.48-3.36A37.5,37.5,0,0,0-59.28-34.464l3.84-5.808a40.567,40.567,0,0,1,10.848,4.464l-3.264,5.568q6.384-2.88,10.8-2.88A10.525,10.525,0,0,1-29.9-30.576,8.413,8.413,0,0,1-26.976-23.9Zm12.432,14.88a71.781,71.781,0,0,1-5.184,7.248l-3.216-7.008a57.616,57.616,0,0,0,7.056-10.08h-6.1v-6.384h7.44v-2.544l-5.04,1.632q-1.2-4.944-2.88-9.792l5.136-1.92q1.584,4.656,2.784,9.648V-39.7h6.528v10.848q1.584-4.7,2.688-9.264L-.48-36.336a79.485,79.485,0,0,1-3.312,9.888l-4.224-1.584v2.784h4.992v.576a53.748,53.748,0,0,0,5.568-15.12L8.592-37.68a64.156,64.156,0,0,1-3.84,12.288h8.736A68.528,68.528,0,0,1,9.6-37.68l6.24-2.208A60.4,60.4,0,0,0,23.856-21.5l-4.512,3.648v9.6q0,7.536-1.776,9.7-1.392,1.728-6,1.728H8.4L6.576-3.408H9.888q1.872,0,2.3-1.08t.432-5.928v-8.448H9.744q-.912,14.5-7.44,22.8L-3.744-.1A29.158,29.158,0,0,0,1.344-8.352,32.97,32.97,0,0,0,3.408-18.864H1.488Q1.2-18.336.432-17.136l-3.456-2.88v1.152h-3.6Q-4.9-16.272-.816-11.28L-4.032-4.944q-2.256-2.928-3.984-5.664V3.552h-6.528Zm79.824-.1a12.213,12.213,0,0,1-4.128,9.7,14.317,14.317,0,0,1-9.7,3.312q-6.384,0-9.912-3.432t-3.528-9.72q0-1.968.1-3.024-6.48-2.544-7.3-7.92l5.712-4.128a5.04,5.04,0,0,0,2.832,4.7q.528-2.352,1.68-6.1-5.664-.72-11.184-.912l3.024-6.768a77.888,77.888,0,0,1,10.32.96q.96-2.688,2.832-7.872l7.776,1.968a98.735,98.735,0,0,0-7.392,20.544,31.3,31.3,0,0,0,4.848-.1l.816,7.152a43.02,43.02,0,0,1-6.72.048v.576q0,6.624,5.664,6.624A5.707,5.707,0,0,0,55.68-5.472a7.084,7.084,0,0,0,1.488-4.7,13.419,13.419,0,0,0-1.248-5.352A16.142,16.142,0,0,0,52.7-20.4l8.064-.864A17.687,17.687,0,0,1,65.28-9.12Zm51.264-9.648a19.151,19.151,0,0,1-5.424,13.92Q106.176.24,97.44,2.352L92.928-4.656a24.276,24.276,0,0,0,10.656-4.416,12.011,12.011,0,0,0,4.9-9.888,9.41,9.41,0,0,0-3.144-7.488,11.734,11.734,0,0,0-7.992-2.736,14.433,14.433,0,0,0-1.584.1l5.664,3.936a104.991,104.991,0,0,1-4.416,10.128,45.6,45.6,0,0,1-5.472,9.072,8.766,8.766,0,0,1-6.864,3.36q-3.216,0-5.952-3.12a13.751,13.751,0,0,1-3.12-9.264,19.49,19.49,0,0,1,6.912-15.5,23.017,23.017,0,0,1,15.6-5.568q8.112,0,13.152,4.464Q116.544-26.88,116.544-18.768ZM94.752-28.944a14.619,14.619,0,0,0-8.352,4.56,12.836,12.836,0,0,0-3.5,8.928,6.014,6.014,0,0,0,.768,3.12q.672,1.1,1.44,1.1,1.584,0,3.984-4.656A99.508,99.508,0,0,0,94.752-28.944ZM130.272-9.6a61.308,61.308,0,0,1-5.856,7.68l-2.784-7.056a61,61,0,0,0,7.584-10.08H122.5V-25.44h7.92v-2.736L124.944-26.3a100.312,100.312,0,0,0-3.072-9.744l5.472-2.064a98.132,98.132,0,0,1,3.072,9.936V-39.7h6.336v10.32q1.632-4.512,2.832-9.024l5.232,1.968a73.91,73.91,0,0,1-3.6,9.84l-4.464-1.728v2.88h7.632v3.84l3.792-3.648a38.673,38.673,0,0,1,6.336,6.528L149.9-14.256a44.976,44.976,0,0,0-5.52-6v1.2h-6.336a76.365,76.365,0,0,0,5.9,7.68v-.288l11.376-1.728V-29.76l-4.512,4.32a43.134,43.134,0,0,0-6.144-6.576l4.512-4.416A37.12,37.12,0,0,1,155.328-30v-9.5h7.1V-14.5l4.368-.672v7.3l-4.368.672V3.408h-7.1V-6.1L143.952-4.368V-9.984L141.168-4.56a66.891,66.891,0,0,1-4.32-6.048V3.456h-6.576ZM184.8-3.216A92.472,92.472,0,0,1,170.448-.624l-.816-6.768q2.88-.24,5.088-.528v-9.456h-3.792V-23.9h3.792v-7.152h-4.176V-37.68h15.12v6.624h-3.936V-23.9h3.312v6.528h-3.312V-9.12q2.16-.48,3.888-.912v6.288h10.608V-6.816h-9.312v-6.048h9.312v-2.448h-8.976V-38.4H212.5v23.088H203.28v2.448h9.7v6.048h-9.7v3.072h10.992v6.48H184.8Zm21.456-25.968V-32.16h-3.264v2.976Zm0,8.208v-2.976h-3.264v2.976Zm-9.744-8.208V-32.16h-3.024v2.976Zm0,8.208v-2.976h-3.024v2.976ZM234.288-1.392l-6.528,5.52A48.113,48.113,0,0,0,217.728-6.048l6.432-5.328A60.989,60.989,0,0,1,234.288-1.392Zm-433.92,74.784a95.6,95.6,0,0,1-15.648,1.3,24.728,24.728,0,0,1-10.8-2.016,9.2,9.2,0,0,1-5.52-8.832q0-7.632,10.56-12.96A114.373,114.373,0,0,1-222,32.448l8.064.288q-.288,3.6-.288,8.064,0,3.84.24,7.152,3.984-1.392,9.7-2.928l2.5,7.344A93.021,93.021,0,0,0-214.56,55.68q-9.024,3.36-9.024,7.68,0,3.936,7.968,3.936a68.843,68.843,0,0,0,15.264-1.824ZM-145.968,61.1Q-152.5,74.5-160.656,74.5a8.132,8.132,0,0,1-8.256-5.712q-.144-.48-.432-1.392a20.031,20.031,0,0,0-1.44-3.648,2.738,2.738,0,0,0-2.3-1.728,5.553,5.553,0,0,0-3.168,1.488,12.064,12.064,0,0,0-2.736,4.512q-.048.24-2.208,6.192l-7.968-2.256a339,339,0,0,1,17.184-38.736l7.968,2.592a197.429,197.429,0,0,0-11.04,20.256,9.659,9.659,0,0,1,5.04-1.584q4.176,0,5.952,4.752.144.384.432,1.1a42.063,42.063,0,0,0,1.488,3.936q.816,1.632,1.968,1.632,3.984,0,8.544-11.376Zm49.728-4.416-6.816,3.456a40.317,40.317,0,0,0-8.5-15.264l6.288-3.552A42.916,42.916,0,0,1-96.24,56.688Zm-15.744-4.128a61.5,61.5,0,0,1-.792,8.76,45.742,45.742,0,0,1-1.656,7.752,9.553,9.553,0,0,1-2.424,4.128,5.94,5.94,0,0,1-3.816,1.2,16.6,16.6,0,0,1-7.008-1.776l.1-7.536a10.209,10.209,0,0,0,4.272,1.488,2.239,2.239,0,0,0,2.16-1.776,37.626,37.626,0,0,0,1.3-5.808,37.4,37.4,0,0,0,.528-5.424,4.775,4.775,0,0,0-.6-2.928q-.6-.672-2.9-.672-.1,0-.864.048A167.043,167.043,0,0,1-134.064,74.4l-7.152-3.024a108.477,108.477,0,0,0,9.84-20.208A60.635,60.635,0,0,0-139.1,53.28l-1.92-6.912q6.1-1.488,11.952-2.5,1.584-5.808,2.448-10.9l7.632,1.152q-.768,2.784-2.5,8.88h.24q4.9-.048,7.008,1.968Q-111.984,47.136-111.984,52.56Zm60.96-.72q0,7.968-6.864,12.816Q-63.7,68.736-74.88,70.8l-4.272-7.3q9.984-1.152,14.88-4.032,4.656-2.736,4.656-6.96,0-5.04-6.96-5.04-4.464,0-12.672,2.736a81.891,81.891,0,0,0-10.7,4.32l-3.456-7.344A130.074,130.074,0,0,1-80.592,42.72q9.5-2.784,14.88-2.784,7.536,0,11.472,3.936A10.923,10.923,0,0,1-51.024,51.84ZM-2.976,48.1a10.289,10.289,0,0,1-4.272,8.5,21.311,21.311,0,0,1-9.024,3.792l-4.9-6.192a21.675,21.675,0,0,0,6.192-1.536q3.936-1.632,3.936-4.176,0-2.3-2.928-2.3-3.936,0-13.584,5.472,7.488,12.336,12.288,20.784l-7.392,3.84A229.1,229.1,0,0,0-34.032,55.44q-4.368,2.64-6.96,4.464l-4.7-6.192q2.448-1.392,7.728-4.464-1.824-2.784-3.5-4.992l7.152-3.6q1.152,1.824,3.024,4.9,2.064-1.152,6.48-3.36A37.5,37.5,0,0,0-35.28,37.536l3.84-5.808a40.567,40.567,0,0,1,10.848,4.464l-3.264,5.568q6.384-2.88,10.8-2.88A10.525,10.525,0,0,1-5.9,41.424,8.413,8.413,0,0,1-2.976,48.1Zm46.848.816H18.912V32.976h24.96ZM37.056,39.5V38.016H25.68V39.5Zm0,5.184v-1.44H25.68v1.44ZM38.928,62.16a41.051,41.051,0,0,1-4.272,8.016h2.112q1.728,0,2.112-1.152a14.219,14.219,0,0,0,.144-2.736V62.16ZM17.04,57.792q-1.632.768-3.648,1.488V69.456q0,3.408-1.224,4.68A5.377,5.377,0,0,1,8.16,75.408H4.368L2.64,68.592H4.752a2.461,2.461,0,0,0,1.536-.336,2.207,2.207,0,0,0,.384-1.584V61.248q-1.872.432-3.936.768L1.488,54.96Q3.7,54.624,6.672,54V47.328H2.448V40.416H6.672V32.352h6.72v8.064H17.28v6.912H13.392v4.9q1.68-.576,3.408-1.3v-.576H46.656V55.68H28.9q-.288.336-1.248,1.488H45.12v9.408q0,5.856-1.008,7.392T39.024,75.5H35.472l-1.3-4.656a41.711,41.711,0,0,1-4.128,4.944L24.48,73.2a46.6,46.6,0,0,0,8.64-11.04H31.3A52.912,52.912,0,0,1,20.88,73.824L15.408,70.8a47.942,47.942,0,0,0,9.456-8.64h-1.92a54.207,54.207,0,0,1-4.272,3.648l-5.184-3.264A54.329,54.329,0,0,0,21.7,55.68H17.04ZM95.712,37.248,92.352,38.5a24.236,24.236,0,0,0-3.12-5.856l3.12-1.248A23.4,23.4,0,0,1,95.712,37.248ZM90.72,39.312l-3.36,1.152a24.219,24.219,0,0,0-2.832-5.9L87.6,33.408A25.734,25.734,0,0,1,90.72,39.312Zm1.344,9.7a52.009,52.009,0,0,0-7.728.576l.1,5.712q0,12.144-10.08,21.168l-6.864-3.888q5.76-5.184,7.68-9.12a21.585,21.585,0,0,0,1.872-9.648q0,.192-.1-2.832A57.426,57.426,0,0,0,67.2,53.952l-.336-6.96a52.278,52.278,0,0,1,9.792-3.312q-.384-8.064-.624-10.656l8.016.384q.048,3.6.144,8.784,3.216-.528,7.632-.96Zm-26.736,8.64a30.2,30.2,0,0,0-2.3,11.76l-7.1,2.3A54.345,54.345,0,0,1,53.232,53.76,92.438,92.438,0,0,1,55.44,34.848l7.872,1.392a70.156,70.156,0,0,0-3.264,19.872,22.492,22.492,0,0,0,.288,3.7A24.415,24.415,0,0,1,62.4,54.864ZM137.28,62.88a12.213,12.213,0,0,1-4.128,9.7,14.317,14.317,0,0,1-9.7,3.312q-6.384,0-9.912-3.432t-3.528-9.72q0-1.968.1-3.024-6.48-2.544-7.3-7.92l5.712-4.128a5.04,5.04,0,0,0,2.832,4.7q.528-2.352,1.68-6.1-5.664-.72-11.184-.912l3.024-6.768a77.888,77.888,0,0,1,10.32.96q.96-2.688,2.832-7.872l7.776,1.968a98.735,98.735,0,0,0-7.392,20.544,31.3,31.3,0,0,0,4.848-.1l.816,7.152a43.021,43.021,0,0,1-6.72.048v.576q0,6.624,5.664,6.624a5.707,5.707,0,0,0,4.656-1.968,7.084,7.084,0,0,0,1.488-4.7,13.419,13.419,0,0,0-1.248-5.352A16.142,16.142,0,0,0,124.7,51.6l8.064-.864A17.687,17.687,0,0,1,137.28,62.88Zm51.264-9.648a19.151,19.151,0,0,1-5.424,13.92q-4.944,5.088-13.68,7.2l-4.512-7.008a24.276,24.276,0,0,0,10.656-4.416,12.011,12.011,0,0,0,4.9-9.888,9.41,9.41,0,0,0-3.144-7.488,11.734,11.734,0,0,0-7.992-2.736,14.433,14.433,0,0,0-1.584.1l5.664,3.936a104.993,104.993,0,0,1-4.416,10.128,45.6,45.6,0,0,1-5.472,9.072,8.766,8.766,0,0,1-6.864,3.36q-3.216,0-5.952-3.12a13.751,13.751,0,0,1-3.12-9.264,19.49,19.49,0,0,1,6.912-15.5,23.017,23.017,0,0,1,15.6-5.568q8.112,0,13.152,4.464Q188.544,45.12,188.544,53.232ZM166.752,43.056a14.619,14.619,0,0,0-8.352,4.56,12.836,12.836,0,0,0-3.5,8.928,6.014,6.014,0,0,0,.768,3.12q.672,1.1,1.44,1.1,1.584,0,3.984-4.656A99.508,99.508,0,0,0,166.752,43.056Zm66.624-3.6-1.008,7.536a26.45,26.45,0,0,1-3.12.144,41.859,41.859,0,0,1-7.632-.72,22.069,22.069,0,0,1-6.24-1.968l3.216-6.864q4.176,2.016,11.76,2.016Q231.744,39.6,233.376,39.456Zm2.832,25.2L233.52,72.72q-8.4-.144-12.816-2.448-5.184-2.736-6.768-9.312l6.432-4.9A12.546,12.546,0,0,0,222.72,61.3a9.038,9.038,0,0,0,5.616,2.928A50.534,50.534,0,0,0,236.208,64.656Zm-24.624-7.248a30.23,30.23,0,0,0-3.024,7.2,23.723,23.723,0,0,0-1.1,7.728l-7.3,1.872A79.8,79.8,0,0,1,198.1,55.632a69.686,69.686,0,0,1,3.552-21.168l7.536,2.208a56.333,56.333,0,0,0-2.88,9.7,54.459,54.459,0,0,0-1.248,9.984A24.993,24.993,0,0,0,205.2,60.1a61.6,61.6,0,0,1,3.312-6Zm-495.36,89.9h-6.96v-2.688h-7.632v2.688h-6.912V105.6h21.5Zm-6.96-30.432v-4.32h-7.632v4.32Zm0,10.224v-4.032h-7.632V127.1Zm0,10.608V133.3h-7.632v4.416Zm-29.04-6.48a81.165,81.165,0,0,1-4.8,7.392l-2.928-7.392a76.865,76.865,0,0,0,7.728-12.24v-.72H-326.3V111.7h6.528v-7.248h6.864V111.7h5.9v6.576h-5.9v1.3a60.771,60.771,0,0,0,6.432,8.256l-2.784,6.576q-1.92-2.256-3.648-4.752v17.76h-6.864Zm53.952,16.176h-7.056V104.256h7.056v5.376l2.64-1.392q1.3,3.024,2.64,7.1a75.068,75.068,0,0,0,1.632-9.312l6.1,1.2q-.432,2.832-.816,4.9h2.5v-7.584h6.72v7.584h9.5v6.624h-9.5v6.864h7.968v6.48h-7.968v7.776h10.032v6.672h-28.56v-6.672h11.472V132.1H-260.3v-6.48h8.832v-6.864h-3.6a52.8,52.8,0,0,1-1.584,5.184l-6-2.064q.432-1.1.96-2.64l-2.448,1.44q-.864-3.456-1.68-6Zm-7.2-34.848a111.305,111.305,0,0,1-2.3,14.736l-5.04-2.784a101.434,101.434,0,0,0,2.4-13.632Zm85.392-2.784-3.456,2.016a27.371,27.371,0,0,0-4.224-5.808l3.264-1.92A25.185,25.185,0,0,1-187.632,109.776Zm-5.328,3.072-3.5,1.872a27.07,27.07,0,0,0-3.936-5.9l3.216-1.776A29.292,29.292,0,0,1-192.96,112.848Zm7.008,20.448-6.912,5.136a81.635,81.635,0,0,0-14.352-19.584l6.672-4.7A95.619,95.619,0,0,1-185.952,133.3Zm-24.336-14.208a81.81,81.81,0,0,1-14.544,21.648l-6.672-4.8a65.66,65.66,0,0,0,13.872-20.64Zm53.424,5.808-6.1,2.064a41.509,41.509,0,0,0-3.936-9.7l6.048-2.4A38.367,38.367,0,0,1-156.864,124.9Zm12.624-6.672a78.284,78.284,0,0,1-6.432,15.456A64.632,64.632,0,0,1-160.8,147.456l-6.816-3.024A58.485,58.485,0,0,0-156.864,130.9a56.634,56.634,0,0,0,5.76-14.688Zm-21.984,9.936-6.048,2.544a35.415,35.415,0,0,0-4.56-9.408l5.664-2.688A37.92,37.92,0,0,1-166.224,128.16Zm74.448-1.344q-7.248-.192-15.792.336a28.324,28.324,0,0,1-3.072,11.232,29.986,29.986,0,0,1-8.688,9.408l-6.864-4.512a29.322,29.322,0,0,0,7.776-6.672,17.552,17.552,0,0,0,3.408-8.88,154.1,154.1,0,0,0-17.376,2.592l-.528-7.248q8.064-1.152,17.952-2.16-.048-2.16-.144-5.184-5.328,1.344-10.128,2.112l-3.264-6.384a109.372,109.372,0,0,0,13.44-2.832,77.532,77.532,0,0,0,11.712-4.176l3.6,6.528q-4.464,1.632-7.728,2.64.1,3.84.1,6.624,8.448-.624,15.456-.624Zm40.368-7.344a36.268,36.268,0,0,1-12.864,28.32l-7.008-4.176q6.528-5.664,9.12-10.656a29.757,29.757,0,0,0,2.88-13.776q0-5.856-.336-14.16h8.208ZM-69.12,107.856q-.336,6.48-.336,12.384,0,5.472.192,9.648l-7.536,1.056q-.384-4.992-.384-14.832,0-5.808.1-8.5Zm73.1,17.376a19.151,19.151,0,0,1-5.424,13.92q-4.944,5.088-13.68,7.2l-4.512-7.008a24.276,24.276,0,0,0,10.656-4.416,12.011,12.011,0,0,0,4.9-9.888,9.41,9.41,0,0,0-3.144-7.488,11.734,11.734,0,0,0-7.992-2.736,14.432,14.432,0,0,0-1.584.1l5.664,3.936a104.99,104.99,0,0,1-4.416,10.128,45.6,45.6,0,0,1-5.472,9.072,8.766,8.766,0,0,1-6.864,3.36q-3.216,0-5.952-3.12a13.751,13.751,0,0,1-3.12-9.264,19.49,19.49,0,0,1,6.912-15.5,23.017,23.017,0,0,1,15.6-5.568q8.112,0,13.152,4.464Q3.984,117.12,3.984,125.232Zm-21.792-10.176a14.619,14.619,0,0,0-8.352,4.56,12.836,12.836,0,0,0-3.5,8.928,6.014,6.014,0,0,0,.768,3.12q.672,1.1,1.44,1.1,1.584,0,3.984-4.656A99.51,99.51,0,0,0-17.808,115.056Z" transform="translate(375 1456)" fill="#323232"/><path d="M-116.184-32.5H-127.32v16.608h-7.392V-39.84h18.528ZM-82.44-10.944q0,6.528-4.224,9.744-3.7,2.88-10.224,2.88T-107.16-1.3q-4.224-3.312-4.224-9.792v-6.768h8.112v6.144q0,6.288,6.384,6.288,6.288,0,6.288-6.1V-37.584h8.16Zm46.368-23.088a96.316,96.316,0,0,1-7.2,18.288,76.373,76.373,0,0,1-13.1,18.336l-7.2-4.128a63,63,0,0,0,13.2-17.328,75.29,75.29,0,0,0,6.528-18.1Zm-22.32,11.76-7.2,3.552a60.16,60.16,0,0,0-3.5-6.936,39.671,39.671,0,0,0-4.032-5.928l7.008-3.7A48.614,48.614,0,0,1-58.392-22.272Zm71.616,6.288q-2.784-.144-6.624-.144A281.649,281.649,0,0,0-25.224-14.5l-.48-7.92q6.96-.624,16.224-1.056Q4.1-24.1,13.176-23.952ZM61.56-7.44l-5.232,6.1A78.747,78.747,0,0,0,43.128-13.3,91.3,91.3,0,0,1,27.528.192l-5.712-5.28A81.343,81.343,0,0,0,36.264-16.416a52.45,52.45,0,0,0,8.688-10.992q-5.9.576-17.712,1.824l-.48-7.344q3.36-.144,12.72-.912,7.92-.624,12.24-1.2l4.848,3.792a115.209,115.209,0,0,1-8.64,12.384A110.566,110.566,0,0,1,61.56-7.44Zm41.664-27.312L88.68-7.248,82.3-10.32,95.112-38.784ZM88.248-3.888l-3.36,6.72L76.68-1.3l3.36-6.672ZM134.712,3.36H116.184V-4.032h11.184v-16.56h7.344Z" transform="translate(543 1603)" fill="#992113"/></g></svg>