<svg xmlns="http://www.w3.org/2000/svg" width="505.89" height="71.76" viewBox="0 0 505.89 71.76"><g transform="translate(-472.432 -59)"><path d="M-227.04-21.9l-2.37.84a17.064,17.064,0,0,0-2.04-3.9l2.19-.84A14.791,14.791,0,0,1-227.04-21.9Zm-3.57,1.38-2.34.78a16.8,16.8,0,0,0-1.89-3.96l2.19-.78A17.749,17.749,0,0,1-230.61-20.52Zm4.02,14.82-3.63,3.6a26.42,26.42,0,0,0-5.46-6.06l3.3-3.6A37.955,37.955,0,0,1-226.59-5.7Zm-2.01-8.64q-4.35-.12-9.18.15V-1.68a3.166,3.166,0,0,1-1.17,2.88,7.1,7.1,0,0,1-3.48.6q-.39,0-1.26-.03-.96-.03-1.11-.03l-1.5-4.56q1.38.12,2.13.12,1.32,0,1.56-.66a21.035,21.035,0,0,0,.15-3.57q0-4.56-.03-6.93-4.71.45-9.09,1.2l-.57-4.56q5.49-.6,9.57-.93-.06-3.36-.15-5.7h5.07q-.06,1.44-.09,5.31,4.53-.33,8.88-.45Zm-16.47,5.61a31.036,31.036,0,0,1-4.5,7.44l-3.63-2.94a26.155,26.155,0,0,0,4.5-7.08Zm45.21-2.46-3.15,3.84a49.086,49.086,0,0,0-7.89-5.43l.03.03q0-1.05.09,14.58h-5.04q.24-9.81.24-16.74,0-5.94-.09-9.6h5.1q-.12,3.75-.3,10.77l2.46-2.97A53.636,53.636,0,0,1-199.86-11.19Zm34.11-.42a63.523,63.523,0,0,1-6.42,6.06,69.481,69.481,0,0,1-6.78,4.98l-3.24-2.4q.09-4.11.12-9.24.06-5.76-.09-9.24l4.8.03q-.18,3.06-.18,7.41v6.78a37.729,37.729,0,0,0,4.8-3.96,45.382,45.382,0,0,0,4.77-5.19Zm-17.1-5.52q-.78,3.06-1.02,3.84a40.71,40.71,0,0,1-1.41,4.32,47.621,47.621,0,0,1-4.32,8.7l-4.47-1.83a38.817,38.817,0,0,0,4.44-8.4,43.925,43.925,0,0,0,2.28-8.01Zm45.69,5.4a11.97,11.97,0,0,1-3.39,8.7,17.252,17.252,0,0,1-8.55,4.5l-2.82-4.38a15.172,15.172,0,0,0,6.66-2.76,7.507,7.507,0,0,0,3.06-6.18,5.881,5.881,0,0,0-1.965-4.68,7.334,7.334,0,0,0-5-1.71,9.021,9.021,0,0,0-.99.06l3.54,2.46a65.623,65.623,0,0,1-2.76,6.33,28.5,28.5,0,0,1-3.42,5.67,5.479,5.479,0,0,1-4.29,2.1,4.934,4.934,0,0,1-3.72-1.95,8.594,8.594,0,0,1-1.95-5.79,12.181,12.181,0,0,1,4.32-9.69,14.386,14.386,0,0,1,9.75-3.48,11.938,11.938,0,0,1,8.22,2.79A10.183,10.183,0,0,1-137.16-11.73Zm-13.62-6.36A9.137,9.137,0,0,0-156-15.24a8.022,8.022,0,0,0-2.19,5.58,3.759,3.759,0,0,0,.48,1.95q.42.69.9.69.99,0,2.49-2.91A62.194,62.194,0,0,0-150.78-18.09Zm30.12,9.69a10.168,10.168,0,0,0,2.07,2.43,7.668,7.668,0,0,0,.51-2.43Zm-5.82,10.56h-4.41V-10.05q-.75,1.11-1.74,2.43l-2.19-4.23a40.165,40.165,0,0,0,5.79-13.32l4.26.72q-.12.51-.45,1.74h6.96v-1.95h4.5v1.95h7.41v4.17h-7.41v1.29h6.51V-8.4h-6.48a13.057,13.057,0,0,1-1.05,4.5,43.12,43.12,0,0,0,8.85,1.74L-107.7,2.1a33.738,33.738,0,0,1-9.63-2.61,14.947,14.947,0,0,1-6.03,2.76l-2.61-3.87a17.38,17.38,0,0,0,4.68-1.5,15.706,15.706,0,0,1-3.09-3.75l2.37-1.53h-2.64v-8.85h6.39v-1.29h-7.08v-3.69q-.51,1.8-1.14,3.54Zm15.12-14.01v-1.98h-2.55v1.98Zm-6.75,0v-1.98h-2.46v1.98Zm42.12,2.79-4.68,2.1a20.248,20.248,0,0,0-2.4-5.37,16.756,16.756,0,0,0-3.45-4.05l3.99-2.67A17.664,17.664,0,0,1-75.99-9.06Zm-14.94-3a24.156,24.156,0,0,0-1.29,7.47q0,.72.06,1.38L-96.27-.9q-6.33-7.2-6.54-17.94l5.01-.18a26.789,26.789,0,0,0,.63,5.61,17.417,17.417,0,0,0,1.8,5.04,25.216,25.216,0,0,1,1.62-5.37Zm35.94-4.5q-.15.42-.45,1.29h1.53q-.15-.6-.27-1.29Zm.54,11.34a13.739,13.739,0,0,1-1.83,3.63h1.86a1.514,1.514,0,0,0,1-.24,1.876,1.876,0,0,0,.255-1.23V-5.22Zm.99-5.34q-.09,1.11-.18,1.86h2.43a20.425,20.425,0,0,1-1.5-2.85h-4.47A29,29,0,0,1-58.95-8.7h1.77q.15-.81.24-1.86ZM-63.75-1.41a4.209,4.209,0,0,1-.63,2.745,3.009,3.009,0,0,1-2.25.675h-2.04l-.9-3.57a23.025,23.025,0,0,1-1.29,4.32L-74.4-.72A23.1,23.1,0,0,0-72.93-7.2q.18-2.1.18-6.48V-24.45h9V-8.79a20.64,20.64,0,0,0,2.52-2.76H-63.3v-3.72h4.23q.33-.75.51-1.29h-4.32v-3.51h1.62a18.948,18.948,0,0,0-1.77-3.21l3.33-1.32a20.617,20.617,0,0,1,2.01,3.42l-2.52,1.11h2.58a39.42,39.42,0,0,0,.54-4.95l4.2.42q-.51,2.58-1.02,4.53h3.33L-52.86-21a17.859,17.859,0,0,0,1.68-3.72l3.78,1.02a21.976,21.976,0,0,1-1.65,3.63h2.31v3.51h-4.08q.12.45.36,1.29h4.38v3.72h-2.67A13.687,13.687,0,0,0-45.3-7.86l-2.19,3.54a20.835,20.835,0,0,1-1.74-1.77v3.66q0,2.85-.9,3.75a4.459,4.459,0,0,1-3.09.78h-2.52l-.99-3.12a15.779,15.779,0,0,1-3.84,3.36l-2.97-3a11.239,11.239,0,0,0,5.25-4.56h-2.43V-6.39q-.99,1.17-2.04,2.25L-63.75-6Zm-5.1-16.11h1.35V-20.4h-1.35Zm0,6.81h1.35V-13.8h-1.35Zm1.35,3.84h-1.44a34.927,34.927,0,0,1-.45,4.38h1.02q.87,0,.87-.99Zm51.36.78H-27.33v3.3q0,3.06-.96,3.99-.9.81-3.78.81h-4.68L-38.1-2.31h4.38a2.012,2.012,0,0,0,1.26-.27q.3-.27.3-1.32V-6.09H-43.68v-4.23h11.52v-2.31h-9.78v-4.11h9.78v-2.28q-3.78.27-8.1.42l-2.04-4.23a114.6,114.6,0,0,0,20.7-1.8l3,4.02q-4.11.69-8.73,1.17v2.7h9.39v4.11h-9.39v2.31h11.19Zm27-14.25-.63,4.71a16.532,16.532,0,0,1-1.95.09,26.162,26.162,0,0,1-4.77-.45,13.794,13.794,0,0,1-3.9-1.23l2.01-4.29a17.288,17.288,0,0,0,7.35,1.26Q9.84-20.25,10.86-20.34ZM12.63-4.59,10.95.45A18.44,18.44,0,0,1,2.94-1.08,8.4,8.4,0,0,1-1.29-6.9L2.73-9.96A7.841,7.841,0,0,0,4.2-6.69,5.649,5.649,0,0,0,7.71-4.86,31.584,31.584,0,0,0,12.63-4.59ZM-2.76-9.12a18.893,18.893,0,0,0-1.89,4.5A14.827,14.827,0,0,0-5.34.21L-9.9,1.38a49.877,49.877,0,0,1-1.29-11.61A43.554,43.554,0,0,1-8.97-23.46l4.71,1.38a35.209,35.209,0,0,0-1.8,6.06,34.037,34.037,0,0,0-.78,6.24,15.621,15.621,0,0,0,.09,2.34,38.5,38.5,0,0,1,2.07-3.75ZM40.8-5.7A7.633,7.633,0,0,1,38.22.36a8.948,8.948,0,0,1-6.06,2.07A8.514,8.514,0,0,1,25.965.285a8.086,8.086,0,0,1-2.2-6.075q0-1.23.06-1.89-4.05-1.59-4.56-4.95l3.57-2.58a3.15,3.15,0,0,0,1.77,2.94q.33-1.47,1.05-3.81-3.54-.45-6.99-.57l1.89-4.23a48.68,48.68,0,0,1,6.45.6q.6-1.68,1.77-4.92l4.86,1.23a61.71,61.71,0,0,0-4.62,12.84,19.563,19.563,0,0,0,3.03-.06l.51,4.47a26.888,26.888,0,0,1-4.2.03v.36q0,4.14,3.54,4.14A3.567,3.567,0,0,0,34.8-3.42a4.427,4.427,0,0,0,.93-2.94A8.387,8.387,0,0,0,34.95-9.7a10.089,10.089,0,0,0-2.01-3.045l5.04-.54A11.054,11.054,0,0,1,40.8-5.7ZM67.92-20.07,65.79-15.9a19.449,19.449,0,0,0-6.33,2.64l-2.34-2.43q1.14-.81,2.82-1.86a41.606,41.606,0,0,0-7.26-1.62l2.31-4.29A62.5,62.5,0,0,1,67.92-20.07ZM69.09-.24A31.4,31.4,0,0,1,60.78.9,13.782,13.782,0,0,1,53.55-.72a6.147,6.147,0,0,1-3.03-5.61,2.987,2.987,0,0,1,.09-.78l4.41-2.55a4.019,4.019,0,0,0-.15,1.08,3.975,3.975,0,0,0,2.28,3.99,10.347,10.347,0,0,0,4.02.6,21.046,21.046,0,0,0,7.29-1.38Zm33.84-20.61-2.19,1.26a17.107,17.107,0,0,0-2.64-3.63l2.04-1.2A15.906,15.906,0,0,1,102.93-20.85ZM99.6-18.93l-2.19,1.2a17.092,17.092,0,0,0-2.46-3.72l2.01-1.11A18.307,18.307,0,0,1,99.6-18.93Zm2.34,4.71-1.86,4.47a25.221,25.221,0,0,0-9.06-2.01l1.32-4.2q-2.58.93-4.65,1.56a154.373,154.373,0,0,1-5.7,16.32L77.04.33A88.424,88.424,0,0,0,82.47-12.9q-.3.09-4.41,1.2l-1.23-4.56q3.18-.6,7.05-1.71.96-3.96,1.35-6.3l4.92.93q-.33,1.2-.99,3.66,1.8-.66,3.24-1.35l1.11,4.65-.66.24A23.4,23.4,0,0,1,101.94-14.22ZM102.39.87a29.353,29.353,0,0,1-5.46.51A13.224,13.224,0,0,1,90.66.21a4.63,4.63,0,0,1-2.4-4.41,6,6,0,0,1,.21-1.5l4.5-1.32a5,5,0,0,0-.18,1.14,2.1,2.1,0,0,0,.93,1.95,5.9,5.9,0,0,0,2.88.51,25.686,25.686,0,0,0,5.31-.66ZM133.17-9.18q0,7.2-8.25,10.83l-3.33-3.66q6.63-2.7,6.63-7.08a2.9,2.9,0,0,0-.87-2.13,3.509,3.509,0,0,0-2.55-.93q-2.97,0-6.36,2.79,0,2.82.03,6.18l.06,5.04h-4.65q.06-1.56.12-7.29A48.236,48.236,0,0,0,109.89.09l-3-3.69q4.89-5.97,7.2-9.27v-2.19a36.961,36.961,0,0,0-4.68,2.25l-1.71-4.2q3.24-1.53,6.33-2.64-.06-2.97-.18-5.13l4.89.15q-.09,1.68-.12,3.51.48-.15,1.38-.39l.54,4.08-1.98.69-.06,2.4a13.06,13.06,0,0,1,6.99-2.31,7.437,7.437,0,0,1,5.7,2.31A7.305,7.305,0,0,1,133.17-9.18Zm25.86-3.99a18.393,18.393,0,0,1-1.65,8.07q-2.34,4.86-8.73,7.86L144.81-.87a31.951,31.951,0,0,0,4.77-2.7,10.637,10.637,0,0,0,3.09-3.39,11.7,11.7,0,0,0,1.29-5.67,11.055,11.055,0,0,0-.42-3.21q-.54-1.89-1.71-1.89-1.95,0-3.45,3.42a14.565,14.565,0,0,0-1.29,5.76v.54l-4.44.84a47.259,47.259,0,0,1-.66-8.79,57.368,57.368,0,0,1,.87-9.24l4.89.63a32.524,32.524,0,0,0-1.11,5.28q-.06.78-.18,2.07a9.977,9.977,0,0,1,2.58-3.66A5.855,5.855,0,0,1,153-22.59a5.079,5.079,0,0,1,4.5,2.79A12.96,12.96,0,0,1,159.03-13.17ZM191.34-1.53,187.86,2.1a21.813,21.813,0,0,0-4.53-3.93q-1.26,3.9-6.75,3.9A9.369,9.369,0,0,1,171.6.87a4.2,4.2,0,0,1-2.19-3.75,4.187,4.187,0,0,1,1.77-3.48,9.292,9.292,0,0,1,5.79-1.5,17.051,17.051,0,0,1,2.34.15V-9.78h-1.47a8.6,8.6,0,0,1-4.215-.885,2.689,2.689,0,0,1-1.575-2.415,4.92,4.92,0,0,1,.66-2.22q-1.47.39-3.09.96l-1.26-4.05a84.809,84.809,0,0,1,10.68-2.37q-.09-2.28-.18-4.14l4.98.21q-.09,1.32-.15,3.33,2.91-.33,5.88-.63l.87,4.26q-3.18.09-6.81.48v3a27.005,27.005,0,0,0,6.03-1.98l1.65,3.99a35.485,35.485,0,0,1-7.68,2.07q0,1.29.03,3.57A24.031,24.031,0,0,1,191.34-1.53ZM179.22-13.62l-.06-3.03a62.957,62.957,0,0,0-6.42,1.35l3.84.3a1.481,1.481,0,0,0-.36.69q0,.75,1.47.75Q178.41-13.56,179.22-13.62Zm.09,9.72a9.049,9.049,0,0,0-2.76-.45q-2.79,0-2.79,1.23,0,1.26,2.61,1.26Q179.16-1.86,179.31-3.9Zm40.32-2.04-.39,5.25A24.328,24.328,0,0,1,214.59.93a23.821,23.821,0,0,1-6.03.9q-4.53,0-5.91-3.24-.72-1.68-.72-7.23V-24.3l5.28.39q-.39,5.67-.39,17.61a3.893,3.893,0,0,0,.66,2.64,2.554,2.554,0,0,0,1.95.6,19.078,19.078,0,0,0,5.16-.93A36.224,36.224,0,0,0,219.63-5.94Zm32.61-8.58-1.86,4.47a25.221,25.221,0,0,0-9.06-2.01l1.32-4.2q-2.58.93-4.65,1.56a154.373,154.373,0,0,1-5.7,16.32L227.34.03a88.424,88.424,0,0,0,5.43-13.23q-.3.09-4.41,1.2l-1.23-4.56q3.18-.6,7.05-1.71.96-3.96,1.35-6.3l4.92.93q-.33,1.2-.99,3.66,1.8-.66,3.24-1.35l1.11,4.65-.66.24A23.4,23.4,0,0,1,252.24-14.52ZM252.69.57a29.353,29.353,0,0,1-5.46.51,13.224,13.224,0,0,1-6.27-1.17,4.63,4.63,0,0,1-2.4-4.41,6,6,0,0,1,.21-1.5l4.5-1.32a5,5,0,0,0-.18,1.14,2.1,2.1,0,0,0,.93,1.95,5.9,5.9,0,0,0,2.88.51,25.686,25.686,0,0,0,5.31-.66Z" transform="translate(725.632 128)" fill="#323232"/><path d="M-99.48-3.648A3.823,3.823,0,0,1-100.888-.4,5.417,5.417,0,0,1-104.3.56a5.361,5.361,0,0,1-3.424-.992A3.9,3.9,0,0,1-109.128-3.7V-5.952h2.7V-3.9a1.867,1.867,0,0,0,2.128,2.1,1.825,1.825,0,0,0,2.1-2.032v-8.688h2.72Zm15.456-7.7a32.106,32.106,0,0,1-2.4,6.1A25.457,25.457,0,0,1-90.792.864l-2.4-1.376a21,21,0,0,0,4.4-5.776,25.1,25.1,0,0,0,2.176-6.032Zm-7.44,3.92-2.4,1.184a20.053,20.053,0,0,0-1.168-2.312,13.224,13.224,0,0,0-1.344-1.976l2.336-1.232A16.2,16.2,0,0,1-91.464-7.424Zm23.872,2.1q-.928-.048-2.208-.048a93.883,93.883,0,0,0-10.608.544l-.16-2.64q2.32-.208,5.408-.352,4.528-.208,7.552-.16ZM-51.48-2.48-53.224-.448a26.249,26.249,0,0,0-4.4-3.984,30.434,30.434,0,0,1-5.2,4.5l-1.9-1.76a27.114,27.114,0,0,0,4.816-3.776,17.483,17.483,0,0,0,2.9-3.664q-1.968.192-5.9.608l-.16-2.448q1.12-.048,4.24-.3,2.64-.208,4.08-.4l1.616,1.264a38.4,38.4,0,0,1-2.88,4.128A36.856,36.856,0,0,1-51.48-2.48Zm16.832.912-1.664,2a9.889,9.889,0,0,0-1.344-1.52q-.752,1.7-3.168,1.7A3.582,3.582,0,0,1-43.184-.1,2.342,2.342,0,0,1-44.04-2a2.4,2.4,0,0,1,.928-1.984,3.73,3.73,0,0,1,2.336-.688,8.906,8.906,0,0,1,1.072.08q-.032-1.264-.112-2.9a18.875,18.875,0,0,0-3.44,1.12l-.24-2.24a22.9,22.9,0,0,1,3.568-1.184l-.144-2.816,2.624.112q-.032.816-.032,2.208,1.12-.176,1.984-.24l.32,2.432a19.508,19.508,0,0,0-2.288.176q.032,1.376.1,4.048A11.13,11.13,0,0,1-34.648-1.568Zm-9.536-2.96a10.308,10.308,0,0,0-.864,2.368A12.939,12.939,0,0,0-45.464.112l-2.176.5a22.787,22.787,0,0,1-.592-5.488,52.578,52.578,0,0,1,.752-7.76l2.656.384a30.406,30.406,0,0,0-1.1,7.632,8.266,8.266,0,0,0,.048.912,17.017,17.017,0,0,1,.72-1.568Zm4.5,2.032a3.025,3.025,0,0,0-1.184-.3q-1.04,0-1.04.624,0,.672,1.024.672A1.378,1.378,0,0,0-40-1.728,1.1,1.1,0,0,0-39.688-2.5Zm14.816-3.3h3.36V-8.624h-3.36Zm-5.7,0h3.184V-8.624h-3.184ZM-21.512-3.5h-3.36V1.088h-2.512V-3.5h-3.184v.944h-2.4V-10.9h5.584v-2.352h2.512V-10.9h5.76V-2.56h-2.4ZM-7.064-9.456v-.7h-5.984v.7Zm0,2.176v-.64h-5.984v.64Zm-5.984,2.368q2.976-.064,5.792-.32l.192-.144v-.368h-5.984Zm2.208,1.76q-2.928.3-6.032.368l-.48-2.1h1.888v-7.184h3.728a15,15,0,0,0,.528-1.408l2.576.288q-.112.384-.4,1.12h4.384v4.4a11.125,11.125,0,0,0,.816-1.088L-2.424-6.88A23.518,23.518,0,0,1-4.648-4.752V-1.04A2.372,2.372,0,0,1-5.16.728,2.987,2.987,0,0,1-7.128,1.2H-9.4l-.688-2.16H-7.7a.781.781,0,0,0,.5-.12.707.707,0,0,0,.136-.52V-2.96A33.144,33.144,0,0,1-15.592.976l-1.7-2.08A31.163,31.163,0,0,0-10.84-3.152ZM12.808-11.12l-1.168.672a9.124,9.124,0,0,0-1.408-1.936l1.088-.64A8.483,8.483,0,0,1,12.808-11.12ZM11.032-10.1l-1.168.64A9.116,9.116,0,0,0,8.552-11.44l1.072-.592A9.764,9.764,0,0,1,11.032-10.1ZM12.28-7.584,11.288-5.2A13.451,13.451,0,0,0,6.456-6.272l.7-2.24q-1.376.5-2.48.832a82.333,82.333,0,0,1-3.04,8.7L-1,.176A47.159,47.159,0,0,0,1.9-6.88q-.16.048-2.352.64l-.656-2.432q1.7-.32,3.76-.912.512-2.112.72-3.36l2.624.5q-.176.64-.528,1.952.96-.352,1.728-.72l.592,2.48-.352.128A12.478,12.478,0,0,1,12.28-7.584ZM12.52.464A15.655,15.655,0,0,1,9.608.736,7.053,7.053,0,0,1,6.264.112,2.469,2.469,0,0,1,4.984-2.24a3.2,3.2,0,0,1,.112-.8l2.4-.7a2.667,2.667,0,0,0-.1.608A1.122,1.122,0,0,0,7.9-2.1a3.145,3.145,0,0,0,1.536.272,13.7,13.7,0,0,0,2.832-.352ZM28.936-7.792a17.268,17.268,0,0,0-2.5.192q.016.992.016,1.92a9.17,9.17,0,0,1-3.344,7.04L20.824.064a10.969,10.969,0,0,0,2.56-3.04,7.2,7.2,0,0,0,.624-3.216q0,.048-.032-.96a18.985,18.985,0,0,0-3.312,1.008l-.128-2.32a18.031,18.031,0,0,1,3.344-1.1q-.128-2.7-.208-3.552l2.672.128q.016.736.048,2.928,1.232-.192,2.48-.32Zm-8.912,2.88a10.066,10.066,0,0,0-.768,3.92l-2.368.768a18.115,18.115,0,0,1-.9-5.984,31.013,31.013,0,0,1,.752-6.3l2.608.464a23.429,23.429,0,0,0-1.088,6.64,7.541,7.541,0,0,0,.112,1.232,7.788,7.788,0,0,1,.672-1.648Zm23.248-5.44-1.2.688a9.294,9.294,0,0,0-1.44-1.984l1.12-.656A8.652,8.652,0,0,1,43.272-10.352ZM41.448-9.3l-1.2.64A9.456,9.456,0,0,0,38.9-10.672l1.1-.624A9.17,9.17,0,0,1,41.448-9.3ZM42.92-3.168l-.208,2.8A12.975,12.975,0,0,1,40.232.5a12.7,12.7,0,0,1-3.216.48Q34.6.976,33.864-.752a12.017,12.017,0,0,1-.384-3.856V-12.96l2.816.208q-.208,3.024-.208,9.392a2.076,2.076,0,0,0,.352,1.408,1.362,1.362,0,0,0,1.04.32,10.175,10.175,0,0,0,2.752-.5A19.32,19.32,0,0,0,42.92-3.168ZM59.7-6.288q0,2.64-3.648,3.424L54.568-4.688a6.6,6.6,0,0,0,1.7-.4q1.1-.416,1.1-1.088,0-.592-.72-.592A9.433,9.433,0,0,0,53.1-5.3Q55-2.16,56.408.32L54.264,1.44a60.678,60.678,0,0,0-3.072-5.6q-1.136.7-1.856,1.216l-1.392-1.84q.672-.384,2.08-1.2-.592-.88-.96-1.376l2.112-1.056.832,1.344q.56-.3,1.744-.912a11.175,11.175,0,0,0-2.624-1.1l1.152-1.728a12.054,12.054,0,0,1,3.152,1.28l-.7,1.136A6.291,6.291,0,0,1,56.9-8.864a2.933,2.933,0,0,1,1.984.7A2.349,2.349,0,0,1,59.7-6.288ZM77.016-8.08l-1.456,2a10.629,10.629,0,0,0-2.912-2.5l1.376-1.84A8.645,8.645,0,0,1,77.016-8.08Zm-4.784-1.2q-1.584.192-3.312.56a54.7,54.7,0,0,1-3.712,6.912L62.984-2.944a35.886,35.886,0,0,0,3.088-5.04q-1.28.4-2.176.768l-.768-2.24q2.144-.688,4.128-1.168a28.863,28.863,0,0,0,.928-2.816l2.48.5q-.3.784-.688,1.744,1.12-.208,1.92-.352Zm4.656,7.84L75.512.8A12.46,12.46,0,0,0,73.56-.832q-.576,2.1-3.216,2.1a4.311,4.311,0,0,1-2.592-.72,2.451,2.451,0,0,1-1.04-2.08A2.525,2.525,0,0,1,67.72-3.664a3.981,3.981,0,0,1,2.48-.72,7.651,7.651,0,0,1,.944.064,11.5,11.5,0,0,1,.016-1.648,2.521,2.521,0,0,1,.672-1.7L73.72-6.576A4.249,4.249,0,0,0,73.5-5.04q0,.416.112,1.408A10.981,10.981,0,0,1,76.888-1.44Zm-5.616-.688a2.9,2.9,0,0,0-1.024-.24q-1.216,0-1.216.784,0,.688,1.12.688a1.088,1.088,0,0,0,.9-.32A1.652,1.652,0,0,0,71.272-2.128Zm22.112-2.7-2.5,1.12a10.8,10.8,0,0,0-1.28-2.864,8.936,8.936,0,0,0-1.84-2.16L89.9-10.16A9.421,9.421,0,0,1,93.384-4.832Zm-7.968-1.6a12.883,12.883,0,0,0-.688,3.984q0,.384.032.736L82.568-.48a14.416,14.416,0,0,1-3.488-9.568l2.672-.1a14.287,14.287,0,0,0,.336,2.992,9.289,9.289,0,0,0,.96,2.688,13.448,13.448,0,0,1,.864-2.864Zm20.992-5.152L101.56-2.416,99.432-3.44l4.272-9.488ZM101.416-1.3,100.3.944,97.56-.432l1.12-2.224Z" transform="translate(725.132 78)" fill="#992113"/><path d="M0-6H5L4,23H1Z" transform="translate(588.632 66.696) rotate(-30)" fill="#992113"/><path d="M0-6H5L4,23H1Z" transform="translate(857.132 64.196) rotate(30)" fill="#992113"/></g></svg>