<svg xmlns="http://www.w3.org/2000/svg" xmlns:xlink="http://www.w3.org/1999/xlink" width="100.001" height="320.62" viewBox="0 0 100.001 320.62"><defs><clipPath id="a"><rect width="37.532" height="237.329" fill="#c7af3e"/></clipPath><clipPath id="b"><rect width="41.447" height="290.62" fill="#c7af3e"/></clipPath></defs><g transform="translate(-125.632 -321.69)"><g transform="translate(188.1 321.69)"><g clip-path="url(#a)"><path d="M14.916,62.958l-6.6,3.256a55.315,55.315,0,0,0-3.211-6.358,36.479,36.479,0,0,0-3.7-5.434l6.424-3.388a44.558,44.558,0,0,1,7.084,11.924m20.46-10.78a88.268,88.268,0,0,1-6.6,16.764A70.051,70.051,0,0,1,16.765,85.75l-6.6-3.784a57.74,57.74,0,0,0,12.1-15.884,69.052,69.052,0,0,0,5.983-16.588Z" fill="#c7af3e"/><path d="M22.44,98.554q-.353,7.48-.353,19.668,0,10.121.177,17.688H14.608q.219-9.284.22-22.044,0-11.88-.132-15.312Z" fill="#c7af3e"/><path d="M36.872,177.754l-4.8,5.588a72.213,72.213,0,0,0-12.1-10.956,83.68,83.68,0,0,1-14.3,12.364L.44,179.91a74.6,74.6,0,0,0,13.245-10.384,48.124,48.124,0,0,0,7.963-10.076q-5.412.528-16.236,1.672l-.439-6.732q3.078-.132,11.659-.836,7.261-.571,11.22-1.1L32.3,155.93a105.636,105.636,0,0,1-7.92,11.352,101.372,101.372,0,0,1,12.5,10.472" fill="#c7af3e"/><path d="M37.533,217.969a17.557,17.557,0,0,1-4.972,12.76q-4.533,4.665-12.54,6.6L15.884,230.9a22.244,22.244,0,0,0,9.769-4.048,11.009,11.009,0,0,0,4.488-9.064,8.628,8.628,0,0,0-2.883-6.864,10.754,10.754,0,0,0-7.325-2.508,13.383,13.383,0,0,0-1.452.088l5.191,3.608a95.923,95.923,0,0,1-4.048,9.284,41.886,41.886,0,0,1-5.015,8.316,8.035,8.035,0,0,1-6.292,3.08,7.235,7.235,0,0,1-5.456-2.86A12.6,12.6,0,0,1,0,221.445a17.871,17.871,0,0,1,6.336-14.212,21.1,21.1,0,0,1,14.3-5.1q7.436,0,12.057,4.092,4.839,4.314,4.84,11.748m-19.976-9.328a13.4,13.4,0,0,0-7.656,4.18,11.764,11.764,0,0,0-3.212,8.184,5.506,5.506,0,0,0,.7,2.86q.615,1.012,1.319,1.012,1.453,0,3.653-4.268a91.446,91.446,0,0,0,5.192-11.968" fill="#c7af3e"/><path d="M31,24.42q0,5.985-3.872,8.932-3.389,2.64-9.372,2.64T8.336,33.264q-3.872-3.036-3.872-8.976v-6.2H11.9v5.632q0,5.765,5.852,5.764,5.764,0,5.765-5.588V0H31Z" fill="#c7af3e"/></g></g><g transform="translate(125.632 351.69)"><g clip-path="url(#b)"><path d="M33.968,34.057a46.075,46.075,0,0,1-12.189,1.672q-6.73,0-10.6-2.376a9.015,9.015,0,0,1-4.445-8.228,4.382,4.382,0,0,1,.132-1.144l6.469-3.74a5.883,5.883,0,0,0-.221,1.584q0,4.313,3.345,5.852a15.161,15.161,0,0,0,5.9.88,30.855,30.855,0,0,0,10.692-2.024ZM32.252,4.973l-3.124,6.116a28.527,28.527,0,0,0-9.284,3.872L16.412,11.4q1.671-1.188,4.136-2.728A60.953,60.953,0,0,0,9.9,6.293L13.288,0A91.691,91.691,0,0,1,32.252,4.973" fill="#c7af3e"/><path d="M38.148,64.152,35.42,70.708A37,37,0,0,0,22.132,67.76l1.936-6.16q-3.785,1.365-6.82,2.288a226.463,226.463,0,0,1-8.36,23.936l-7.26-2.332a129.624,129.624,0,0,0,7.964-19.4q-.441.132-6.468,1.76L1.32,61.16q4.663-.879,10.341-2.508,1.407-5.808,1.979-9.24l7.216,1.364q-.484,1.76-1.452,5.368,2.64-.968,4.752-1.98l1.629,6.82-.969.352a34.329,34.329,0,0,1,13.332,2.816m.66,22.132a43.113,43.113,0,0,1-8.008.748q-6.115,0-9.2-1.716-3.521-1.935-3.52-6.468a8.827,8.827,0,0,1,.308-2.2l6.6-1.936a7.287,7.287,0,0,0-.265,1.672,3.084,3.084,0,0,0,1.364,2.86,8.644,8.644,0,0,0,4.224.748,37.627,37.627,0,0,0,7.788-.968Zm-4.092-29.04L31.5,59A25.1,25.1,0,0,0,27.9,53.548l2.948-1.628a26.874,26.874,0,0,1,3.872,5.324M39.6,54.428l-3.212,1.848a25.107,25.107,0,0,0-3.872-5.324l2.992-1.76A23.37,23.37,0,0,1,39.6,54.428" fill="#c7af3e"/><path d="M39.952,122.144q0,10.56-12.1,15.884l-4.883-5.368q9.723-3.96,9.723-10.384a4.251,4.251,0,0,0-1.275-3.124,5.151,5.151,0,0,0-3.74-1.364q-4.358,0-9.328,4.092,0,4.137.043,9.064.045,3.7.088,7.392H11.66q.087-2.287.176-10.692a70.663,70.663,0,0,0-6.029,8.1l-4.4-5.412q7.17-8.756,10.56-13.6V113.52a54.322,54.322,0,0,0-6.865,3.3L2.6,110.66q4.752-2.244,9.284-3.872-.09-4.356-.264-7.524l7.172.22q-.132,2.464-.177,5.148.7-.221,2.025-.572l.792,5.984-2.9,1.012-.088,3.52a19.152,19.152,0,0,1,10.252-3.388,10.911,10.911,0,0,1,8.361,3.388,10.721,10.721,0,0,1,2.9,7.568" fill="#c7af3e"/><path d="M33.88,166.892a26.994,26.994,0,0,1-2.42,11.836q-3.432,7.128-12.8,11.528l-5.631-5.324a46.991,46.991,0,0,0,7-3.96A15.6,15.6,0,0,0,24.552,176a17.159,17.159,0,0,0,1.891-8.316,16.244,16.244,0,0,0-.615-4.708q-.792-2.772-2.509-2.772-2.859,0-5.059,5.016a21.355,21.355,0,0,0-1.892,8.448v.792l-6.512,1.232A69.254,69.254,0,0,1,8.888,162.8a84.1,84.1,0,0,1,1.276-13.552l7.172.924a47.735,47.735,0,0,0-1.628,7.744q-.089,1.145-.265,3.036a14.646,14.646,0,0,1,3.785-5.368,8.587,8.587,0,0,1,5.808-2.508q4.135,0,6.6,4.092a19.007,19.007,0,0,1,2.244,9.724" fill="#c7af3e"/><path d="M15.224,233.552a30.755,30.755,0,0,1-8.58,5.984l-5.412-3.871A33.575,33.575,0,0,0,9.02,231.4q-1.98.045-6.6.132l-1.584-5.06q6.907.088,11.308,0l.22-.131a82.828,82.828,0,0,0-7.832-3.521l4.444-3.828q.749.353,2.464,1.145,1.452-1.1,2.684-2.2H.968v-4.664H17.116v-1.276H4.708v-3.827H17.116v-1.233H2.508v-4.444H17.116v-2.42h6.908v2.42H38.808v4.444H24.024v1.233H36.608v3.827H24.024v1.276H40.26v4.664H26.048l5.544,2.684q-4.927,3.258-8.844,5.5,2.948-.132,6.688-.4-.354-.395-1.584-1.54l5.808-1.891a87.854,87.854,0,0,1,7.787,7.391L34.8,231.837q-.485-.572-1.5-1.761-4.18.309-9.152.616v9.24h-7.04v-8.843q-.22,0-6.512.219Zm1.1-11.043c.352.175.865.455,1.54.835a85.751,85.751,0,0,0,8.052-5.412h-7.26l2.376.968q-1.8,1.5-4.708,3.609M40.26,235.488l-5.5,3.916a32.345,32.345,0,0,1-8.668-6.071l5.72-2.817a33.6,33.6,0,0,0,8.448,4.972" fill="#c7af3e"/><path d="M7,275.836a74.927,74.927,0,0,1-4.313,6.6L0,275.66a72.777,72.777,0,0,0,7-11.044v-.7H.88v-6.028H7V251.24h6.248v6.644h5.367v6.028H13.245v.792a56.283,56.283,0,0,0,5.851,7.524l-2.6,6.028a51.854,51.854,0,0,1-3.255-4.268V290.62H7Zm23.187-4.048a57.767,57.767,0,0,1-8.756,13.86L16.72,281.2A60.72,60.72,0,0,0,27.369,264H19.976v-6.116H30.184v-6.732H36.7v6.732h4.312V264H36.7v19.889q0,3.871-1.32,5.17t-5.06,1.3h-3.96l-1.628-5.94h3.96q1.5,0,1.5-1.628Z" fill="#c7af3e"/></g></g></g></svg>