<svg xmlns="http://www.w3.org/2000/svg" width="362.406" height="31.519" viewBox="0 0 362.406 31.519">
  <path id="sec04_3_btn" d="M-160.4-7.752q0,4.624-2.992,6.9a11.512,11.512,0,0,1-7.242,2.04A11.392,11.392,0,0,1-177.9-.918Q-180.9-3.264-180.9-7.854v-4.794h5.746V-8.3q0,4.454,4.522,4.454,4.454,0,4.454-4.318V-26.622h5.78Zm32.844-16.354a68.223,68.223,0,0,1-5.1,12.954,54.1,54.1,0,0,1-9.282,12.988l-5.1-2.924a44.623,44.623,0,0,0,9.35-12.274,53.331,53.331,0,0,0,4.624-12.818Zm-15.81,8.33-5.1,2.516a42.614,42.614,0,0,0-2.482-4.913,28.1,28.1,0,0,0-2.856-4.2l4.964-2.618A34.436,34.436,0,0,1-143.361-15.776Zm50.728,4.454q-1.972-.1-4.692-.1a199.5,199.5,0,0,0-22.542,1.156l-.34-5.61q4.93-.442,11.492-.748,9.622-.442,16.048-.34ZM-58.4-5.27-62.1-.952a55.779,55.779,0,0,0-9.35-8.466A64.672,64.672,0,0,1-82.5.136L-86.547-3.6a57.618,57.618,0,0,0,10.234-8.024,37.152,37.152,0,0,0,6.154-7.786q-4.182.408-12.546,1.292l-.34-5.2q2.38-.1,9.01-.646,5.61-.442,8.67-.85l3.434,2.686a81.608,81.608,0,0,1-6.12,8.772A78.318,78.318,0,0,1-58.4-5.27Zm33.422-7.616a84.39,84.39,0,0,1-9.452,7.174A105.394,105.394,0,0,1-45.271.544l-3.366-3.06q.068-2.04.068-14.042,0-5.848-.1-8.058h5.542q-.068,3.128-.136,12.784v5.168a68.376,68.376,0,0,0,16.218-11.8Zm22.678-8.4-3.876,3.5a24.232,24.232,0,0,0-5.644-5.27l3.638-3.808A26.147,26.147,0,0,1-2.295-21.284Zm12.546,7.242A98.936,98.936,0,0,1,.493-5.78Q-4.981-1.7-11,1.938l-3.57-4.59a90.454,90.454,0,0,0,22.2-16.082ZM-8.891-14.62l-3.774,3.672a35.217,35.217,0,0,0-5.61-4.862l3.536-3.774A24.363,24.363,0,0,1-8.891-14.62ZM44.761-24.888A3.6,3.6,0,0,1,43.69-22.27a3.513,3.513,0,0,1-2.6,1.088,3.53,3.53,0,0,1-2.584-1.088,3.569,3.569,0,0,1-1.088-2.618,3.475,3.475,0,0,1,1.088-2.567,3.558,3.558,0,0,1,2.584-1.071,3.541,3.541,0,0,1,2.6,1.071A3.5,3.5,0,0,1,44.761-24.888ZM41.463-.034a124.657,124.657,0,0,1-13.43.748,14.885,14.885,0,0,1-5.95-.85Q19.567-1.36,19.567-4.9l-.034-20.366h5.44q-.068,1.8-.17,9.316a62.917,62.917,0,0,0,11.05-6.8l3.706,4.114a95.044,95.044,0,0,1-14.824,8.058V-7.14A2.867,2.867,0,0,0,25.4-4.913a4.024,4.024,0,0,0,2.5.561q2.244,0,6.426-.34,4.386-.34,6.834-.748Zm1.462-24.854a1.737,1.737,0,0,0-.527-1.275,1.777,1.777,0,0,0-1.309-.527,1.737,1.737,0,0,0-1.275.527,1.737,1.737,0,0,0-.527,1.275,1.834,1.834,0,0,0,.527,1.326,1.71,1.71,0,0,0,1.275.544,1.749,1.749,0,0,0,1.309-.544A1.834,1.834,0,0,0,42.925-24.888Zm35.19,11.594a13.565,13.565,0,0,1-3.842,9.86,19.552,19.552,0,0,1-9.69,5.1L61.387-3.3a17.2,17.2,0,0,0,7.548-3.128,8.508,8.508,0,0,0,3.468-7,6.666,6.666,0,0,0-2.227-5.3,8.312,8.312,0,0,0-5.661-1.938,10.224,10.224,0,0,0-1.122.068L67.4-17.816a74.367,74.367,0,0,1-3.128,7.174A32.3,32.3,0,0,1,60.4-4.216a6.209,6.209,0,0,1-4.862,2.38,5.592,5.592,0,0,1-4.216-2.21,9.74,9.74,0,0,1-2.21-6.562,13.806,13.806,0,0,1,4.9-10.982,16.3,16.3,0,0,1,11.05-3.944,13.529,13.529,0,0,1,9.316,3.162A11.541,11.541,0,0,1,78.115-13.294ZM62.679-20.5a10.355,10.355,0,0,0-5.916,3.23,9.092,9.092,0,0,0-2.482,6.324,4.26,4.26,0,0,0,.544,2.21q.476.782,1.02.782,1.122,0,2.822-3.3A70.486,70.486,0,0,0,62.679-20.5ZM112.8-11.424H82.365v-5.542H112.8ZM134.623-15.1h-17.34V-27.54h16.83v2.958h-4.522v.884H133.6a15.659,15.659,0,0,0,2.856-4.522l4.76.952q-.238.612-.714,1.6h6.256v4.25h-8.84q-.782,1.02-1.564,1.87h9.418V-15.5H135.711V-18.87l-.068.068-1.972-1.326v1.564h-4.08v.85h5.032Zm-9.656-8.6v-.884h-2.686v.884Zm3.774,3.026v-.918h-6.46v.918Zm-3.774,2.958v-.85h-2.686v.85ZM141.9-2.992h-4.522v1.224a.611.611,0,0,0,.238.578,1.836,1.836,0,0,0,.646.068h1.8a1.9,1.9,0,0,0,1.377-.357A2.945,2.945,0,0,0,141.9-2.992Zm-11.05.51q-3.4,4.76-11.9,5.474l-3.2-3.91q3.468-.306,4.93-.578a10.311,10.311,0,0,0,4.216-1.5h-5.3V-14.28h24.038V-3.774l3.332.816q-.374,3.434-1.326,4.318-1.088,1.054-4.794,1.054h-5.134a5.994,5.994,0,0,1-2.856-.442,2.1,2.1,0,0,1-.68-1.87V-2.992h-2.992Zm7.582-8.568v-.816H124.763v.816Zm0,2.754v-.85H124.763v.85Zm0,2.788v-.85H124.763v.85ZM181.509-6.63l-3.638,5.1a147.5,147.5,0,0,1-13.26-11.594q-.578-.578-1.7-1.666a2.159,2.159,0,0,0-1.292-.748,1.433,1.433,0,0,0-1.054.578l-1.632,1.836a70.248,70.248,0,0,1-5.644,5.678l-3.57-5.066a64.676,64.676,0,0,0,9.01-8.228,4.242,4.242,0,0,1,3.23-1.428,4.533,4.533,0,0,1,3.162,1.5Q174.777-11.118,181.509-6.63Z" transform="translate(180.897 28.526)" fill="#fff"/>
</svg>
