<svg xmlns="http://www.w3.org/2000/svg" width="305.008" height="21.67" viewBox="0 0 305.008 21.67"><path d="M11.088-6.116a18.485,18.485,0,0,1-7.9,7.788L.792-.9A17.626,17.626,0,0,0,6.4-5.148,11.206,11.206,0,0,0,8.954-10.3H1.364v-3.278H9.13V-18.04h3.454v4.466h8.162V-10.3H12.98a12.983,12.983,0,0,0,2.9,5.324,21.125,21.125,0,0,0,5.5,4.2L18.81,1.694A19.625,19.625,0,0,1,11.088-6.116ZM31.812-12.54a20.157,20.157,0,0,1-6.38,4.466l-2.09-2.178a25.386,25.386,0,0,0,3.52-1.65H23.518v-4.664h7.7v-1.628H34.8v1.628h7.678V-11.9H39.05a23.854,23.854,0,0,0,3.52,1.65L40.458-8.074A19.829,19.829,0,0,1,34.1-12.54l2.9-.88A11.064,11.064,0,0,0,39.05-11.9v-1.892H26.928v1.848a12.41,12.41,0,0,0,1.98-1.474ZM29.7-6.138h6.512a28.5,28.5,0,0,1-3.3-2.486A38.821,38.821,0,0,1,29.7-6.138Zm10.34,7.7H36.7V.594H29.3v.968H25.938V-3.96q-.77.374-1.5.66L22.286-5.588a23.644,23.644,0,0,0,8.6-5.148h3.96A24.63,24.63,0,0,0,43.78-5.764l-2.156,2.4q-.726-.264-1.584-.66ZM36.7-2.134v-1.5H29.3v1.5ZM62.964-12.166H47.036v-5.786H62.964ZM59.708-15.62v-.55H50.292v.55Zm0,1.892v-.55H50.292v.55Zm5.06,4.444H45.254v-2.332H64.768Zm.044,10.648H45.078V-.924h8.206V-1.5h-7.15V-3.234h7.15v-.55H46.838V-8.756h16.28v4.972H56.606v.55h7.15V-1.5h-7.15v.572h8.206ZM59.8-6.842v-.594h-3.19v.594Zm0,1.694V-5.72h-3.19v.572ZM53.284-6.842v-.594H50.16v.594Zm0,1.694V-5.72H50.16v.572ZM86.416-8.6a8.778,8.778,0,0,1-2.486,6.38,12.652,12.652,0,0,1-6.27,3.3L75.592-2.134a11.126,11.126,0,0,0,4.884-2.024A5.505,5.505,0,0,0,82.72-8.69a4.313,4.313,0,0,0-1.441-3.432,5.378,5.378,0,0,0-3.663-1.254,6.615,6.615,0,0,0-.726.044l2.6,1.8a48.123,48.123,0,0,1-2.024,4.642,20.9,20.9,0,0,1-2.508,4.158,4.018,4.018,0,0,1-3.146,1.54,3.619,3.619,0,0,1-2.728-1.43,6.3,6.3,0,0,1-1.43-4.246,8.933,8.933,0,0,1,3.168-7.106,10.55,10.55,0,0,1,7.15-2.552A8.754,8.754,0,0,1,84-14.476,7.468,7.468,0,0,1,86.416-8.6Zm-9.988-4.664a6.7,6.7,0,0,0-3.828,2.09,5.883,5.883,0,0,0-1.606,4.092,2.757,2.757,0,0,0,.352,1.43q.308.506.66.506.726,0,1.826-2.134A45.61,45.61,0,0,0,76.428-13.266Zm32.538-.7h-4v7.04h-4.576V-18.524h8.58ZM107.6-15.356v-1.8h-5.83v8.844h1.8v-7.04ZM125.356-5.214A5.507,5.507,0,0,1,123.42-.66,7.584,7.584,0,0,1,118.558.748a9.363,9.363,0,0,1-4.136-.792,6.708,6.708,0,0,1-3.1-3.168l3.454-1.606a4.063,4.063,0,0,0,3.542,2.42,3.532,3.532,0,0,0,2.64-.9,2.476,2.476,0,0,0,.726-1.826,2.191,2.191,0,0,0-.737-1.782,3.007,3.007,0,0,0-1.991-.616,3.918,3.918,0,0,0-3.542,1.606l-3.52-.22.9-10.824h11.88v3.212h-8.6l-.4,4.29a7.209,7.209,0,0,1,4.268-1.144,5.343,5.343,0,0,1,3.85,1.408A5.214,5.214,0,0,1,125.356-5.214ZM141.68-8.228q0,8.954-6.886,8.954-6.908,0-6.908-8.954t6.908-8.954Q141.68-17.182,141.68-8.228Zm-3.7,0q0-5.632-3.19-5.632T131.6-8.228q0,5.632,3.19,5.632T137.984-8.228Zm20.218,0q0,8.954-6.886,8.954-6.908,0-6.908-8.954t6.908-8.954Q158.2-17.182,158.2-8.228Zm-3.7,0q0-5.632-3.19-5.632t-3.19,5.632q0,5.632,3.19,5.632T154.506-8.228Zm18.238,6.512q0,4.268-5.764,4.268a12.983,12.983,0,0,1-6.226-1.364l1.408-2.662a7.413,7.413,0,0,0,4.488,1.43q2.552,0,2.552-2.244V-3.08a4.135,4.135,0,0,1-3.19,1.21,5.059,5.059,0,0,1-3.674-1.32,5.054,5.054,0,0,1-1.452-3.872,5.085,5.085,0,0,1,1.452-3.828,5.011,5.011,0,0,1,3.674-1.364,4.135,4.135,0,0,1,3.19,1.21v-1.012h3.542ZM169.2-6.4v-1.32A2.7,2.7,0,0,0,168.366-9a2.538,2.538,0,0,0-1.694-.616A2.2,2.2,0,0,0,165.044-9a2.619,2.619,0,0,0-.682,1.936,2.619,2.619,0,0,0,.682,1.936,2.2,2.2,0,0,0,1.628.616,2.538,2.538,0,0,0,1.694-.616A2.7,2.7,0,0,0,169.2-6.4Zm26.312,8.008L192.06,2.4A15.941,15.941,0,0,1,188.5-2.684a13.841,13.841,0,0,1-1.254-5.676,13.964,13.964,0,0,1,1.265-5.709,15.9,15.9,0,0,1,3.553-5.049l3.454.77q-4.554,4.862-4.554,9.988Q190.96-3.256,195.514,1.606Zm10.538-7.568v-6.666l-4.51,6.666Zm6.292,3.08H209.66V.55h-3.608V-2.882h-8.294V-5.874l7.7-11.176h4.2V-5.962h2.684ZM228.25-4.708a4.842,4.842,0,0,1-1.98,4.224A8.411,8.411,0,0,1,221.386.748a9.718,9.718,0,0,1-4.2-.792,6.851,6.851,0,0,1-3.168-3.234l3.454-1.716q1.452,2.552,3.674,2.552,3.344,0,3.344-2.354a1.8,1.8,0,0,0-.858-1.584A4.748,4.748,0,0,0,220.99-7h-3.036v-3.036h2.9a3.755,3.755,0,0,0,2.376-.66,1.772,1.772,0,0,0,.726-1.452q0-1.914-2.64-1.914a4.617,4.617,0,0,0-3.982,2.244l-3.124-1.43q2.112-3.938,7.238-3.938a7.369,7.369,0,0,1,4.554,1.254A3.722,3.722,0,0,1,227.59-12.8a4.731,4.731,0,0,1-.671,2.552,3.515,3.515,0,0,1-1.815,1.5A4.255,4.255,0,0,1,227.26-7.48,4.039,4.039,0,0,1,228.25-4.708Zm16.412-3.52q0,8.954-6.886,8.954-6.908,0-6.908-8.954t6.908-8.954Q244.662-17.182,244.662-8.228Zm-3.7,0q0-5.632-3.19-5.632t-3.19,5.632q0,5.632,3.19,5.632T240.966-8.228ZM264.176.55h-3.454V-7.282a3.252,3.252,0,0,0-.176-1.3,1.047,1.047,0,0,0-1.012-.484,1.759,1.759,0,0,0-1.166.506A2.433,2.433,0,0,0,257.62-7.5V.55h-3.454V-7.282a3.679,3.679,0,0,0-.154-1.3.976.976,0,0,0-.968-.484,1.777,1.777,0,0,0-1.144.484,2.278,2.278,0,0,0-.748,1.056V.55H247.72V-12.056h3.432v1.474a3.986,3.986,0,0,1,3.234-1.672,2.8,2.8,0,0,1,2.75,1.694,4.476,4.476,0,0,1,3.52-1.694q3.52,0,3.52,4.026Zm9.658,0h-2.97a3.633,3.633,0,0,1-2.563-.7,3.4,3.4,0,0,1-.715-2.464V-17.534h3.52v14.1q0,.88.44.99a2.1,2.1,0,0,0,.616.066h1.672Zm9.526-8.91a13.84,13.84,0,0,1-1.254,5.676A15.941,15.941,0,0,1,278.542,2.4l-3.454-.792q4.554-4.862,4.554-9.966,0-5.126-4.554-9.988l3.454-.77a15.9,15.9,0,0,1,3.553,5.049A13.964,13.964,0,0,1,283.36-8.36ZM305.8,1.8h-8.6V-2.75h4.026V-9.79H305.8ZM304.414.418V-8.426h-1.826v7.062h-4V.418Z" transform="translate(-0.792 19.118)" fill="#992113"/></svg>