<svg xmlns="http://www.w3.org/2000/svg" xmlns:xlink="http://www.w3.org/1999/xlink" width="46.984" height="211.328" viewBox="0 0 46.984 211.328"><defs><clipPath id="a"><rect width="46.984" height="211.328" fill="#af9391"/></clipPath></defs><g transform="translate(0)"><g transform="translate(0)" clip-path="url(#a)"><path d="M37.224,41.086a50.562,50.562,0,0,1-13.388,1.837q-7.4,0-11.65-2.61a9.9,9.9,0,0,1-4.881-9.039,4.814,4.814,0,0,1,.145-1.257l7.1-4.109a6.46,6.46,0,0,0-.241,1.74q0,4.738,3.672,6.429a16.673,16.673,0,0,0,6.478.967,33.89,33.89,0,0,0,11.745-2.223ZM35.339,9.136l-3.432,6.719a31.372,31.372,0,0,0-10.2,4.254l-3.77-3.915q1.837-1.305,4.544-3a67.18,67.18,0,0,0-11.7-2.61l3.721-6.912A100.71,100.71,0,0,1,35.339,9.136m5.269-.29-3.529,1.885a27.27,27.27,0,0,0-3.963-5.945L36.354,3a29.522,29.522,0,0,1,4.254,5.849m5.366-3.094-3.48,2.03A27.62,27.62,0,0,0,38.24,1.933L41.526,0a25.362,25.362,0,0,1,4.448,5.752" transform="translate(0.72)" fill="#af9391"/><path d="M17.447,89.235a75.333,75.333,0,0,1-11.455,4.93L1.5,89.042A84.509,84.509,0,0,0,24.07,78.891q-.1-.386-.581-1.6A87.088,87.088,0,0,1,5.75,85.465l-3.914-4.5a86.965,86.965,0,0,0,19.818-7.734q-.244-.483-.726-1.4a77.839,77.839,0,0,1-15.178,5.9L2.124,72.994A76.517,76.517,0,0,0,16.19,68.886H7.733v-2.9H2.512V55.158H19.768V51.436h7.782v3.722H44.757V65.985h-5.22v2.9H27.6q.868,1.837,1.692,4.012,1.061,1.4,2.464,3.045A47.142,47.142,0,0,0,37.748,69.8l6.09,2.9A63.776,63.776,0,0,1,36.2,80.39a59.5,59.5,0,0,0,10.633,7.154l-5.269,5.51a53.033,53.033,0,0,1-9.426-7.734q.048.677.048,1.885,0,7.831-5.994,7.831H19.477ZM9.907,63.278H37.313V61.442H9.907Zm7.927,25.763h5.124a1.869,1.869,0,0,0,1.669-.749,5.347,5.347,0,0,0,.508-2.779v-.918q-3.82,2.562-7.3,4.447" transform="translate(0.147 5.07)" fill="#af9391"/><path d="M44.663,112.043H11.746v7.637a113.082,113.082,0,0,1-.628,13.776,43.537,43.537,0,0,1-3.576,12.713L0,142.156A30.944,30.944,0,0,0,3.819,130.6,100.334,100.334,0,0,0,4.4,117.94V105.469H19.866v-3.432H27.89v3.432H44.663Zm-18.9,16.338A26.829,26.829,0,0,1,23.2,137.9a15.461,15.461,0,0,0,6.186,1.063H45.774l-1.449,6.187H27.407a14.87,14.87,0,0,1-8.024-2.078,32.413,32.413,0,0,1-3.77,3.094l-5.269-4.979a34.618,34.618,0,0,0,4.4-2.9,28.43,28.43,0,0,1-3.142-7.105l4.109-2.755h-2.9v-4.737L17.74,119H12.954v-5.414H25.473v1.16a85.392,85.392,0,0,0,16.289-2.03l2.514,5.22q-2.8.628-5.8,1.112v3.529h6.139v5.8H38.476v3.287h5.365v5.607H26.634v-5.607h5.317V128.38Zm-7.2,5.365a13.75,13.75,0,0,0,1.208-5.317h-3.48a19.235,19.235,0,0,0,2.272,5.317m6.912-18.416v3.094L20.108,123.5h5.607v-.918h6.235v-2.755q-2.66.242-4.544.338Z" transform="translate(0 10.057)" fill="#af9391"/><path d="M42.623,162.658q-7.928.145-12.954,3.819-5.464,4.012-5.462,10.054a9.23,9.23,0,0,0,3.48,7.589q3.238,2.61,10.779,4.447l-4.012,7.492q-8.121-1.933-12.858-6.187a15.914,15.914,0,0,1-5.462-12.326,16.354,16.354,0,0,1,1.788-7.4,17.826,17.826,0,0,1,4.785-5.994,123.309,123.309,0,0,0-17.788,4.06l-2.368-7.686Q11.495,158.6,22.66,157q9.473-1.353,19-2.078Zm-2.9,10.537-3.529,1.933a27.57,27.57,0,0,0-3.964-5.994l3.239-1.788a29.567,29.567,0,0,1,4.254,5.849m5.365-3.094-3.529,2.03a27.58,27.58,0,0,0-4.254-5.849l3.287-1.933a25.674,25.674,0,0,1,4.5,5.752" transform="translate(0.252 15.269)" fill="#af9391"/></g></g></svg>