<svg xmlns="http://www.w3.org/2000/svg" width="181.096" height="32" viewBox="0 0 181.096 32"><g transform="translate(-122.904 -11243.5)"><path d="M32.776-20.264l-3.332,4.148a10.791,10.791,0,0,0-3.111-2.907,15.276,15.276,0,0,0-4.267-1.989l2.652-4.318A14.754,14.754,0,0,1,32.776-20.264ZM30.736-8.67a10.209,10.209,0,0,1-2.482,6.936A7.727,7.727,0,0,1,22.2,1.122a5.615,5.615,0,0,1-5.066-2.584l1.972-4.93a4.12,4.12,0,0,0,1.173,1.7,2.4,2.4,0,0,0,1.547.646A3.21,3.21,0,0,0,24.174-5.27,4.052,4.052,0,0,0,25.3-8.092q0-3.3-3.094-3.3a16.1,16.1,0,0,0-6.29,1.836q0,6.868.17,10.336l-5,1.8a46.476,46.476,0,0,0-5-4.488Q5.678-1.428,4.9-.442L1.9-5.066a76.98,76.98,0,0,1,9.112-6.664v-5h-.442a15.245,15.245,0,0,1-6.392-1.428L5.3-23.63A9.58,9.58,0,0,0,10.812-21.9h.2q-.034-4.454-.1-6.154l5.542.374q-.2,1.5-.34,4.76a16.241,16.241,0,0,0,3.536-2.006l.918,5.2a16.782,16.782,0,0,1-4.624,2.244q0,.748-.034,3.2a19.156,19.156,0,0,1,7.412-2.006,7.086,7.086,0,0,1,5.44,2.108A7.737,7.737,0,0,1,30.736-8.67ZM11.05-2.278V-6.63A27.749,27.749,0,0,0,8.126-4.182Zm55.93-8.5H61.064V-2.55q0,3.026-1.122,3.978-.952.85-3.876.85H53.414l-1.292-4.93H54.74a1.38,1.38,0,0,0,1-.272A1.653,1.653,0,0,0,56-4.012v-6.766h-5.78v-4.828H56V-18.5h.816a44.374,44.374,0,0,0,2.992-3.978h-8.33v-4.658H65.688v4.59q-1.734,2.482-4.624,5.95v.986H66.98Zm-23.494.986a24.448,24.448,0,0,0,2.244-8.7H43.554q-.986,3.638-2.21,7.072Q42.024-10.914,43.486-9.792Zm6.766-9.248a29.861,29.861,0,0,1-.782,5.916,24.794,24.794,0,0,1-2.244,6.358q1.7,1.428,3.638,3.2L48.382,1.19Q46.308-.85,44.4-2.584a42.829,42.829,0,0,1-5.678,5.44l-4.08-3.5A33.186,33.186,0,0,0,40.732-5.78q-2.72-2.312-4.93-3.91,1.938-5.236,2.89-8.806H35.36v-4.692h4.522q.442-2.006.952-5.168l5.1.544q-.306,1.836-.952,4.624h5.27Zm50.864,9.656-2.21,5.168a39.562,39.562,0,0,0-4.386-2.89,20.825,20.825,0,0,1-9.35,9.928L81.056-.884A16.6,16.6,0,0,0,89.9-9.35a33.331,33.331,0,0,0-5.916-1.768,50.218,50.218,0,0,1-3.3,6.46q-2.21,3.4-5.61,3.4a4.849,4.849,0,0,1-3.74-1.751,6.132,6.132,0,0,1-1.564-4.233q0-5.1,4.862-7.616a13.93,13.93,0,0,1,6.222-1.394q.136-.306,2.516-6.052-.85.17-7.208,1.156l-1.088-5a55.074,55.074,0,0,0,11.458-1.53l3.536,2.584q-1.292,2.516-4.114,9.316a40.483,40.483,0,0,1,5.474,1.462A30.567,30.567,0,0,0,91.9-18.7l5.236.714a38.77,38.77,0,0,1-.85,5.644A40.4,40.4,0,0,1,101.116-9.384Zm-22.27-2.278a5.84,5.84,0,0,0-3.128,1.02,3.313,3.313,0,0,0-1.5,2.788q0,1.394,1.088,1.394.714,0,1.632-1.428A35.946,35.946,0,0,0,78.846-11.662Zm48.178-.952v-1.8h-5.78v1.8Zm-13.158-4.862q-.782.816-1.564,1.564v.884a33.974,33.974,0,0,1-.272,4.284A34.531,34.531,0,0,0,115.8-5.2l-2.176,3.6a9.8,9.8,0,0,0,4.862-6.7h-4.114v-4.318h2.278v-1.8h-2.788Zm1.938-2.176-.748.884h1.6V-20.74H120.8v1.972h1.122V-21.59h-6.6v-4.352h6.256v-2.312h5.1v2.312h6.732v4.352h-7.072v2.822h1.19V-20.74h4.182v1.972h3.094v4.352h-3.2v1.8h2.754V-8.3h-5.78v5.27a.932.932,0,0,0,.085.527.672.672,0,0,0,.425.085h.34a.731.731,0,0,0,.8-.527,19.322,19.322,0,0,0,.153-3.349l4.182,1.19q0,4.658-.646,5.95-.714,1.394-3.366,1.394h-3.57a5.15,5.15,0,0,1-2.652-.442q-.748-.578-.748-2.584V-8.3h-3.4l2.822,1.088a16.03,16.03,0,0,1-2.244,5.746,13.905,13.905,0,0,1-4.862,4.284l-3.876-3.6,1.02-.51q-1.6-2.142-2.414-3.5a27.652,27.652,0,0,1-4.386,7.888L102.612-.68a22.38,22.38,0,0,0,4.08-7.582,29.621,29.621,0,0,0,.986-8.228V-28.118H112.3v6.426q.884-1.054,1.8-2.278Zm-8.432-2.55a74.658,74.658,0,0,1-1.428,10.03l-3.638-1.8a56.222,56.222,0,0,0,1.6-9.35Z" transform="translate(121 11272)" fill="#323232"/><g transform="translate(272.119 11243.389)"><circle cx="16" cy="16" r="16" transform="translate(-0.12 0.112)" fill="#992113"/><g transform="translate(12.561 9.111)"><path d="M1.638,14.658,0,13.02,5.691,7.329,0,1.638,1.638,0,8.967,7.329Z" fill="#fff"/></g></g></g></svg>