<svg xmlns="http://www.w3.org/2000/svg" width="229.174" height="20.746" viewBox="0 0 229.174 20.746"><path d="M13.794-7.37a12.756,12.756,0,0,0,1.672,2.244,10.414,10.414,0,0,0,1.166-1.892l-1.188.7a7.37,7.37,0,0,0-1.166-1.76L15.972-9a7.949,7.949,0,0,1,.946,1.32A11.181,11.181,0,0,0,17.4-9.262H14.96Q14.344-8.162,13.794-7.37Zm-3.41,1.738v4.378a17.2,17.2,0,0,0,3.08-1.892A14.408,14.408,0,0,1,12.1-5.17q-.286.33-.814.924Zm0-3.806v1.672a17.244,17.244,0,0,0,3.212-5.61H10.1l1.87.55A26.6,26.6,0,0,1,10.384-9.438ZM5.874-4.95a31.272,31.272,0,0,1-2.486,6.6L.462.242A27.4,27.4,0,0,0,3.278-6.71L5.434-5.456,4.6-6.446a20.5,20.5,0,0,0,4.356-6.93H6.16V-15.2L4.708-13.024a20.673,20.673,0,0,0-3.63-2.31l1.716-2.64A21.547,21.547,0,0,1,6.16-15.928v-.418H11.7v-1.892h3.278v1.892h5.962v2.97H14.52l2.068.418q-.2.638-.374,1.078h4.114v2.772a16.136,16.136,0,0,1-2.574,5.83,19.219,19.219,0,0,0,3.762,1.694L19.822,1.584A16.26,16.26,0,0,1,15.686-.88,15.129,15.129,0,0,1,12.1,1.628L10.384-.528V1.54H7.392V-4.994q-.44.528-.792.9Zm.22-5.28L4.334-7.568A20.664,20.664,0,0,0,.616-9.878l1.694-2.64A22.011,22.011,0,0,1,6.094-10.23ZM32.428-7.216a19.415,19.415,0,0,1-.407,4.345A2.6,2.6,0,0,1,30.778-1.1a6.408,6.408,0,0,1-2.464.33H27.06a2.765,2.765,0,0,1-1.9-.484,2.841,2.841,0,0,1-.495-1.98V-9.768l-2,.286V-12.65l2-.308v-5.06h3.256v4.576l3.366-.528V-17.2h11.33v10.12a35.6,35.6,0,0,1-.308,5.742A2.877,2.877,0,0,1,41.03.836a7.322,7.322,0,0,1-2.816.352H36.828l-.814-3.366H37.4a2.779,2.779,0,0,0,1.364-.22,1.984,1.984,0,0,0,.528-1.408q.088-.88.088-3.7V-13.97H37.356a48.763,48.763,0,0,1-.528,8.36,18.426,18.426,0,0,1-3.036,7.15L30.624-.286A13.566,13.566,0,0,0,33.77-6.82a41.452,41.452,0,0,0,.44-7.15H32.494v3.036l-4.576.682v5.83a.574.574,0,0,0,.066.352A.574.574,0,0,0,28.336-4h.528a.683.683,0,0,0,.715-.649A29.09,29.09,0,0,0,29.7-8.228ZM65.736-2.2A8.432,8.432,0,0,1,60.654.022q-3.19,0-3.19-4.334,0-1.276.121-3.179t.121-2.145q0-1.012-.594-1.012-1.012,0-3.256,2.266-.022,2.332.022,9.7H50.424L50.6-4.554Q49.148-2.178,47.63.44l-2.6-2.376q3.586-4.972,5.588-8.25L50.6-10.8q-2.97.638-4.664,1.122l.2-3.52q2-.374,4.4-.792-.044-2.046-.044-4.2l3.608.154q-.088,1.584-.176,5.764,2.75-2.31,4.752-2.31a2.41,2.41,0,0,1,1.936.825,3.292,3.292,0,0,1,.7,2.211q0,.814-.165,3.091t-.165,2.8a5.067,5.067,0,0,0,.11,1.3.571.571,0,0,0,.572.506q1.166,0,3.322-2.09Zm20.68-6.4a8.778,8.778,0,0,1-2.486,6.38,12.652,12.652,0,0,1-6.27,3.3L75.592-2.134a11.126,11.126,0,0,0,4.884-2.024A5.505,5.505,0,0,0,82.72-8.69a4.313,4.313,0,0,0-1.441-3.432,5.378,5.378,0,0,0-3.663-1.254,6.615,6.615,0,0,0-.726.044l2.6,1.8a48.123,48.123,0,0,1-2.024,4.642,20.9,20.9,0,0,1-2.508,4.158,4.018,4.018,0,0,1-3.146,1.54,3.619,3.619,0,0,1-2.728-1.43,6.3,6.3,0,0,1-1.43-4.246,8.933,8.933,0,0,1,3.168-7.106,10.55,10.55,0,0,1,7.15-2.552A8.754,8.754,0,0,1,84-14.476,7.468,7.468,0,0,1,86.416-8.6Zm-9.988-4.664a6.7,6.7,0,0,0-3.828,2.09,5.883,5.883,0,0,0-1.606,4.092,2.757,2.757,0,0,0,.352,1.43q.308.506.66.506.726,0,1.826-2.134A45.61,45.61,0,0,0,76.428-13.266Zm23.694,6.93a9.139,9.139,0,0,0,2,2.288A18.073,18.073,0,0,0,104.7-6.336ZM94.8-2.09a37.444,37.444,0,0,0,3.872-.88A19,19,0,0,1,96.4-6.336H94.8Zm4.62,2.024a48.563,48.563,0,0,1-9.768,1.8l-.858-3.1q1.1-.066,2.552-.242v-14.74h5.764v-1.848h3.63v1.848h6.248v10.01h-.836l1.958,1.122a22.353,22.353,0,0,1-3.256,2.772,23.4,23.4,0,0,0,4.532,1.386L107.25,1.782a16.031,16.031,0,0,1-7.832-3.916Zm4.114-12.386V-13.6H94.8v1.144Zm0,3.5v-1.188H94.8v1.188Zm27.742,2.31L127.842-5.1a14.848,14.848,0,0,0-1.76-3.938,12.288,12.288,0,0,0-2.53-2.97l2.926-1.958A12.954,12.954,0,0,1,131.274-6.644Zm-10.956-2.2a17.714,17.714,0,0,0-.946,5.478q0,.528.044,1.012L116.4-.66a19.822,19.822,0,0,1-4.8-13.156l3.674-.132a19.646,19.646,0,0,0,.462,4.114,12.772,12.772,0,0,0,1.32,3.7,18.491,18.491,0,0,1,1.188-3.938Zm32.648-5.126h-4v7.04h-4.576V-18.524h8.58ZM151.6-15.356v-1.8h-5.83v8.844h1.8v-7.04Zm19.954-.44a48.053,48.053,0,0,1-4.114,8.646A41.046,41.046,0,0,1,161.436.726l-3.5-1.782A36.443,36.443,0,0,0,164.3-8.888a38.877,38.877,0,0,0,3.652-8.228Zm25.96-.286-1.694.616a12.262,12.262,0,0,0-1.54-2.86l1.628-.616A10.63,10.63,0,0,1,197.516-16.082Zm-2.6,1.012L193.2-14.5a11.678,11.678,0,0,0-1.364-2.926l1.584-.55A13.016,13.016,0,0,1,194.92-15.07Zm.77,11.88L193.292-.4a36.092,36.092,0,0,0-6.05-5.478,41.846,41.846,0,0,1-7.15,6.182l-2.618-2.42A37.282,37.282,0,0,0,184.1-7.3a24.039,24.039,0,0,0,3.982-5.038q-2.706.264-8.118.836l-.22-3.366q1.54-.066,5.83-.418,3.63-.286,5.61-.55L193.4-14.1a52.8,52.8,0,0,1-3.96,5.676A50.675,50.675,0,0,1,195.69-3.19Zm23.76-5.324a46.582,46.582,0,0,1-4.708,4.444A50.951,50.951,0,0,1,209.77-.418l-2.376-1.76q.066-3.014.088-6.776.044-4.224-.066-6.776l3.52.022q-.132,2.244-.132,5.434V-5.3a27.667,27.667,0,0,0,3.52-2.9,33.279,33.279,0,0,0,3.5-3.806Zm-12.54-4.048q-.572,2.244-.748,2.816a29.859,29.859,0,0,1-1.034,3.168A34.923,34.923,0,0,1,201.96-.2L198.682-1.54a28.467,28.467,0,0,0,3.256-6.16,32.212,32.212,0,0,0,1.672-5.874ZM229.636,1.8h-8.6V-2.75h4.026V-9.79h4.576ZM228.25.418V-8.426h-1.826v7.062h-4V.418Z" transform="translate(-0.462 18.942)" fill="#992113"/></svg>