<svg xmlns="http://www.w3.org/2000/svg" width="487.096" height="32.628" viewBox="0 0 487.096 32.628"><g transform="translate(-121.904 -13729.5)"><path d="M32.776-20.264l-3.332,4.148a10.791,10.791,0,0,0-3.111-2.907,15.276,15.276,0,0,0-4.267-1.989l2.652-4.318A14.754,14.754,0,0,1,32.776-20.264ZM30.736-8.67a10.209,10.209,0,0,1-2.482,6.936A7.727,7.727,0,0,1,22.2,1.122a5.615,5.615,0,0,1-5.066-2.584l1.972-4.93a4.12,4.12,0,0,0,1.173,1.7,2.4,2.4,0,0,0,1.547.646A3.21,3.21,0,0,0,24.174-5.27,4.052,4.052,0,0,0,25.3-8.092q0-3.3-3.094-3.3a16.1,16.1,0,0,0-6.29,1.836q0,6.868.17,10.336l-5,1.8a46.476,46.476,0,0,0-5-4.488Q5.678-1.428,4.9-.442L1.9-5.066a76.98,76.98,0,0,1,9.112-6.664v-5h-.442a15.245,15.245,0,0,1-6.392-1.428L5.3-23.63A9.58,9.58,0,0,0,10.812-21.9h.2q-.034-4.454-.1-6.154l5.542.374q-.2,1.5-.34,4.76a16.241,16.241,0,0,0,3.536-2.006l.918,5.2a16.782,16.782,0,0,1-4.624,2.244q0,.748-.034,3.2a19.156,19.156,0,0,1,7.412-2.006,7.086,7.086,0,0,1,5.44,2.108A7.737,7.737,0,0,1,30.736-8.67ZM11.05-2.278V-6.63A27.749,27.749,0,0,0,8.126-4.182Zm55.93-8.5H61.064V-2.55q0,3.026-1.122,3.978-.952.85-3.876.85H53.414l-1.292-4.93H54.74a1.38,1.38,0,0,0,1-.272A1.653,1.653,0,0,0,56-4.012v-6.766h-5.78v-4.828H56V-18.5h.816a44.374,44.374,0,0,0,2.992-3.978h-8.33v-4.658H65.688v4.59q-1.734,2.482-4.624,5.95v.986H66.98Zm-23.494.986a24.448,24.448,0,0,0,2.244-8.7H43.554q-.986,3.638-2.21,7.072Q42.024-10.914,43.486-9.792Zm6.766-9.248a29.861,29.861,0,0,1-.782,5.916,24.794,24.794,0,0,1-2.244,6.358q1.7,1.428,3.638,3.2L48.382,1.19Q46.308-.85,44.4-2.584a42.829,42.829,0,0,1-5.678,5.44l-4.08-3.5A33.186,33.186,0,0,0,40.732-5.78q-2.72-2.312-4.93-3.91,1.938-5.236,2.89-8.806H35.36v-4.692h4.522q.442-2.006.952-5.168l5.1.544q-.306,1.836-.952,4.624h5.27Zm50.864,9.656-2.21,5.168a39.562,39.562,0,0,0-4.386-2.89,20.825,20.825,0,0,1-9.35,9.928L81.056-.884A16.6,16.6,0,0,0,89.9-9.35a33.331,33.331,0,0,0-5.916-1.768,50.218,50.218,0,0,1-3.3,6.46q-2.21,3.4-5.61,3.4a4.849,4.849,0,0,1-3.74-1.751,6.132,6.132,0,0,1-1.564-4.233q0-5.1,4.862-7.616a13.93,13.93,0,0,1,6.222-1.394q.136-.306,2.516-6.052-.85.17-7.208,1.156l-1.088-5a55.074,55.074,0,0,0,11.458-1.53l3.536,2.584q-1.292,2.516-4.114,9.316a40.483,40.483,0,0,1,5.474,1.462A30.567,30.567,0,0,0,91.9-18.7l5.236.714a38.77,38.77,0,0,1-.85,5.644A40.4,40.4,0,0,1,101.116-9.384Zm-22.27-2.278a5.84,5.84,0,0,0-3.128,1.02,3.313,3.313,0,0,0-1.5,2.788q0,1.394,1.088,1.394.714,0,1.632-1.428A35.946,35.946,0,0,0,78.846-11.662Zm36.108.85v7.14a42.4,42.4,0,0,0,9.554-9.18q-.068-.442-.238-1.292a42.2,42.2,0,0,1-7.14,6.732Zm0-7.038v6.6a36.77,36.77,0,0,0,8.194-7.208l-.306-1.02a37.146,37.146,0,0,1-5.916,5.032Zm0,16.32a4.805,4.805,0,0,1-.816,3.264,3.5,3.5,0,0,1-2.618.748h-2.278L108.154-1.7a26.614,26.614,0,0,1-1.53,4.828l-4.08-4.012a24.936,24.936,0,0,0,1.768-7.344q.238-2.482.238-7.344V-27.608h10.4v9.044a29.876,29.876,0,0,0,5.746-4.08h-4.828V-27.4h18.666v4.76h-7.684q.952,2.856,1.53,5.372a30.251,30.251,0,0,0,3.094-4.284l3.4,3.128a38.75,38.75,0,0,1-4.386,5.576,36.483,36.483,0,0,0,4.964,6.562l-2.482,5.066a44.465,44.465,0,0,1-3.026-4.488v.2q.034,4.658-1.088,6.46a3.459,3.459,0,0,1-3.162,1.5h-3.57L120.8-2.142h2.55a1.536,1.536,0,0,0,1.632-1.224,11.733,11.733,0,0,0,.136-2.312q0-.51-.034-1.5A40.6,40.6,0,0,1,117.368.748l-2.414-3.74ZM109-19.788h1.7v-3.23H109Zm0,7.684h1.7v-3.434H109Zm1.7,4.386h-1.8a37.526,37.526,0,0,1-.578,5.066h1.326a1.125,1.125,0,0,0,.833-.238,1.32,1.32,0,0,0,.221-.884Zm57.12-16.524-2.448,1.428a19.388,19.388,0,0,0-2.992-4.114l2.312-1.36A17.839,17.839,0,0,1,167.824-24.242Zm-3.774,2.176-2.482,1.326a19.174,19.174,0,0,0-2.788-4.182l2.278-1.258A20.749,20.749,0,0,1,164.05-22.066Zm4.964,14.484-4.9,3.638a57.825,57.825,0,0,0-10.166-13.872l4.726-3.332A67.73,67.73,0,0,1,169.014-7.582ZM151.776-17.646a57.949,57.949,0,0,1-10.3,15.334l-4.726-3.4a46.509,46.509,0,0,0,9.826-14.62Zm44.642-4.692q-5.27.612-9.146.85-5.678.34-8.7.408l-.34-5.066q3.808,0,8.84-.306,4.9-.306,8.84-.884Zm4.012,5.916a58.6,58.6,0,0,1-6.6,9.316,47.282,47.282,0,0,1-11.492,9.554l-4.454-3.74a42.748,42.748,0,0,0,9.146-6.392,30.47,30.47,0,0,0,5.372-6.358L175.27-12.614l-.476-5.2q3.4-.1,11.56-.646,6.018-.408,11.084-.918Zm29.988-5.916q-5.27.612-9.146.85-5.678.34-8.7.408l-.34-5.066q3.808,0,8.84-.306,4.9-.306,8.84-.884Zm4.012,5.916a58.6,58.6,0,0,1-6.6,9.316,47.282,47.282,0,0,1-11.492,9.554l-4.454-3.74a42.748,42.748,0,0,0,9.146-6.392,30.47,30.47,0,0,0,5.372-6.358L209.27-12.614l-.476-5.2q3.4-.1,11.56-.646,6.018-.408,11.084-.918Zm30.464-9.146q-2.55,3.332-5.3,6.46,0,14.008.1,21.318h-5.678q.136-4.216.306-15.708a98.829,98.829,0,0,1-7.786,7.038l-4.658-3.06a94.929,94.929,0,0,0,10.642-9.554,71.837,71.837,0,0,0,7.514-9.18Zm38.148,20.3L299.336-.952a55.779,55.779,0,0,0-9.35-8.466A64.671,64.671,0,0,1,278.936.136L274.89-3.6a57.618,57.618,0,0,0,10.234-8.024,37.152,37.152,0,0,0,6.154-7.786q-4.182.408-12.546,1.292l-.34-5.2q2.38-.1,9.01-.646,5.61-.442,8.67-.85l3.434,2.686a81.608,81.608,0,0,1-6.12,8.772A78.317,78.317,0,0,1,303.042-5.27Zm34.782-18.972-2.448,1.428a19.388,19.388,0,0,0-2.992-4.114l2.312-1.36A17.839,17.839,0,0,1,337.824-24.242Zm-3.774,2.176-2.482,1.326a19.174,19.174,0,0,0-2.788-4.182l2.278-1.258A20.747,20.747,0,0,1,334.05-22.066Zm4.964,14.484-4.9,3.638a57.825,57.825,0,0,0-10.166-13.872l4.726-3.332A67.731,67.731,0,0,1,339.014-7.582ZM321.776-17.646a57.949,57.949,0,0,1-10.3,15.334l-4.726-3.4a46.509,46.509,0,0,0,9.826-14.62ZM370.8-11.322q-1.972-.1-4.692-.1a199.5,199.5,0,0,0-22.542,1.156l-.34-5.61q4.93-.442,11.492-.748,9.622-.442,16.048-.34Zm35.87-12.954-2.618.986a17.9,17.9,0,0,0-2.38-4.454l2.516-.918A17.312,17.312,0,0,1,406.674-24.276Zm-4.012,1.564-2.652.884a19.021,19.021,0,0,0-2.108-4.488l2.448-.85A19.479,19.479,0,0,1,402.662-22.712Zm.884,3.774a126.2,126.2,0,0,1-3.162,15.759Q398.922,1.6,395.522,1.6A14.213,14.213,0,0,1,389.64.17V-5.27a8.82,8.82,0,0,0,3.876,1.394q1.428,0,2.108-2.312a65.851,65.851,0,0,0,1.938-9.418q-2.176.2-6.7.646-3.6,10.948-9.282,17.306l-5-2.618a37.849,37.849,0,0,0,8.636-13.634l.136-.442q-3.74.442-7.242.986l-.782-5.1q3.638-.238,9.588-.85a62.372,62.372,0,0,0,1.462-7.786l5.508.68q-.816,3.774-1.564,6.528,4.386-.476,7.99-1.054ZM438.8-11.322q-1.972-.1-4.692-.1a199.5,199.5,0,0,0-22.542,1.156l-.34-5.61q4.93-.442,11.492-.748,9.622-.442,16.048-.34Z" transform="translate(120 13759)" fill="#323232"/><g transform="translate(577.119 13729.389)"><circle cx="16" cy="16" r="16" transform="translate(-0.12 0.112)" fill="#992113"/><g transform="translate(12.561 9.111)"><path d="M1.638,14.658,0,13.02,5.691,7.329,0,1.638,1.638,0,8.967,7.329Z" fill="#fff"/></g></g></g></svg>