<svg xmlns="http://www.w3.org/2000/svg" width="295.48" height="95.4" viewBox="0 0 295.48 95.4"><path d="M-82.04-27.08h-9.28v13.84h-6.16V-33.2h15.44Zm41.72-2.48-3.12,1.12a21.73,21.73,0,0,0-2.76-5.24l2.92-1.08A19.721,19.721,0,0,1-40.32-29.56Zm-4.72,1.84-3.16,1a21.526,21.526,0,0,0-2.48-5.24L-47.8-33A23.983,23.983,0,0,1-45.04-27.72Zm-1.44,2.76a61.113,61.113,0,0,1-7.44,14.04,53.319,53.319,0,0,1-12.6,12.6l-5.4-4.12A53.027,53.027,0,0,0-60.2-13.08a33.55,33.55,0,0,0,5.48-9.68q-5.12.4-10.52.84l-9.24.8-.48-6.36q4.36-.08,12.32-.64,7.04-.52,11.72-1.12ZM-1-15.48A84.7,84.7,0,0,1-9.56-7.4,92.641,92.641,0,0,1-18.6-.76l-4.32-3.2q.12-5.48.16-12.32.08-7.68-.12-12.32l6.4.04q-.24,4.08-.24,9.88v9.04a50.3,50.3,0,0,0,6.4-5.28,60.509,60.509,0,0,0,6.36-6.92Zm-22.8-7.36q-1.04,4.08-1.36,5.12a54.279,54.279,0,0,1-1.88,5.76A63.5,63.5,0,0,1-32.8-.36L-38.76-2.8A51.757,51.757,0,0,0-32.84-14,58.568,58.568,0,0,0-29.8-24.68ZM35.52-28l-3,1.72a23.234,23.234,0,0,0-3.6-4.96l2.8-1.64A21.63,21.63,0,0,1,35.52-28Zm-4.56,2.6-3.04,1.64a22.75,22.75,0,0,0-3.32-5.08l2.76-1.52A24.22,24.22,0,0,1,30.96-25.4ZM32.8-14.92,28.6-9.8a67.635,67.635,0,0,0-10.48-7.24V-17q0-1.4.12,19.44H11.52q.32-13.08.32-22.32,0-7.92-.12-12.8h6.8q-.16,5-.4,14.36l3.28-3.96A71.514,71.514,0,0,1,32.8-14.92Zm30.28-1L58-14.2a34.591,34.591,0,0,0-3.28-8.08l5.04-2A31.973,31.973,0,0,1,63.08-15.92ZM73.6-21.48A65.237,65.237,0,0,1,68.24-8.6,53.86,53.86,0,0,1,59.8,2.88L54.12.36a48.737,48.737,0,0,0,8.96-11.28,47.2,47.2,0,0,0,4.8-12.24ZM55.28-13.2l-5.04,2.12a29.513,29.513,0,0,0-3.8-7.84l4.72-2.24A31.6,31.6,0,0,1,55.28-13.2ZM116.08-27a81.415,81.415,0,0,1-8.96,15.8A66.9,66.9,0,0,1,93.48,2.6l-5.6-4.08a58.833,58.833,0,0,0,12.28-10.88,50.634,50.634,0,0,0,7.28-11.04q-5.36.72-9.76,1.16l-.24.36a55.691,55.691,0,0,1-7.64,9.04l-5.4-3.08a54.041,54.041,0,0,0,7.72-8.72,48.741,48.741,0,0,0,4.8-8.28l6.12,1.56q-.72,1.4-1.68,3.16,6.8-.76,10.52-1.4ZM-133.9,46.88q0,5.44-3.52,8.12-3.08,2.4-8.52,2.4t-8.56-2.48q-3.52-2.76-3.52-8.16V41.12h6.76v5.12q0,5.24,5.32,5.24,5.24,0,5.24-5.08V24.68h6.8Zm38.64-19.24a80.263,80.263,0,0,1-6,15.24,63.644,63.644,0,0,1-10.92,15.28l-6-3.44a52.5,52.5,0,0,0,11-14.44,62.742,62.742,0,0,0,5.44-15.08Zm-18.6,9.8-6,2.96a50.132,50.132,0,0,0-2.92-5.78,33.058,33.058,0,0,0-3.36-4.94l5.84-3.08A40.512,40.512,0,0,1-113.86,37.44Zm59.68,5.24q-2.32-.12-5.52-.12a234.708,234.708,0,0,0-26.52,1.36l-.4-6.6q5.8-.52,13.52-.88,11.32-.52,18.88-.4ZM-13.9,49.8l-4.36,5.08a65.622,65.622,0,0,0-11-9.96,76.085,76.085,0,0,1-13,11.24l-4.76-4.4a67.786,67.786,0,0,0,12.04-9.44,43.708,43.708,0,0,0,7.24-9.16q-4.92.48-14.76,1.52l-.4-6.12q2.8-.12,10.6-.76,6.6-.52,10.2-1l4.04,3.16a96.007,96.007,0,0,1-7.2,10.32A92.138,92.138,0,0,1-13.9,49.8Zm44.6-3.28q0,5.44-3.52,8.28-3.2,2.56-8.84,2.56a17.023,17.023,0,0,1-7.52-1.44,12.2,12.2,0,0,1-5.64-5.76l6.28-2.92q2.52,4.4,6.44,4.4A6.422,6.422,0,0,0,22.7,50a4.5,4.5,0,0,0,1.32-3.32,3.984,3.984,0,0,0-1.34-3.24,5.467,5.467,0,0,0-3.62-1.12q-4.52,0-6.44,2.92l-6.4-.4L7.86,25.16h21.6V31H13.82l-.72,7.8a13.108,13.108,0,0,1,7.76-2.08,9.714,9.714,0,0,1,7,2.56A9.479,9.479,0,0,1,30.7,46.52Zm29.68-5.48q0,16.28-12.52,16.28-12.56,0-12.56-16.28T47.86,24.76Q60.38,24.76,60.38,41.04Zm-6.72,0q0-10.24-5.8-10.24t-5.8,10.24q0,10.24,5.8,10.24T53.66,41.04Zm36.76,0q0,16.28-12.52,16.28-12.56,0-12.56-16.28T77.9,24.76Q90.42,24.76,90.42,41.04Zm-6.72,0q0-10.24-5.8-10.24T72.1,41.04q0,10.24,5.8,10.24T83.7,41.04Zm33.16,11.84q0,7.76-10.48,7.76a23.6,23.6,0,0,1-11.32-2.48l2.56-4.84a13.478,13.478,0,0,0,8.16,2.6q4.64,0,4.64-4.08V50.4a7.518,7.518,0,0,1-5.8,2.2,8.7,8.7,0,0,1-9.32-9.44,9.245,9.245,0,0,1,2.64-6.96,9.111,9.111,0,0,1,6.68-2.48,7.518,7.518,0,0,1,5.8,2.2V34.08h6.44Zm-6.44-8.52v-2.4a4.917,4.917,0,0,0-1.52-2.32,4.615,4.615,0,0,0-3.08-1.12,4,4,0,0,0-2.96,1.12,4.761,4.761,0,0,0-1.24,3.52,4.761,4.761,0,0,0,1.24,3.52,4,4,0,0,0,2.96,1.12,4.615,4.615,0,0,0,3.08-1.12A4.917,4.917,0,0,0,110.42,44.36ZM137.46,58.8H122.02V52.64h9.32V38.84h6.12Z" transform="translate(158.02 34.76)" fill="#323232"/></svg>