<svg xmlns="http://www.w3.org/2000/svg" width="118.38" height="27.15" viewBox="0 0 118.38 27.15"><path d="M28.05,1.68H23.49V-.54H20.16V1.68H15.72V-23.04H28.05ZM23.49-5.01V-18.57H20.16V-5.01ZM6.33-6.48A36.787,36.787,0,0,1,2.82-2.13L.84-6.39a33.361,33.361,0,0,0,5.43-6.99H1.56v-3.99H6.33V-19.5q-1.56.15-3.84.3L.87-22.98a54.732,54.732,0,0,0,12.09-1.68l2.1,3.45a33.568,33.568,0,0,1-4.5,1.14v2.7h4.2v3.99h-4.2A37.274,37.274,0,0,0,15.3-7.83L13.11-4.32q-1.41-1.5-2.55-2.91V2.1H6.33Zm51.51-5.25a11.97,11.97,0,0,1-3.39,8.7,17.252,17.252,0,0,1-8.55,4.5L43.08-2.91a15.172,15.172,0,0,0,6.66-2.76,7.507,7.507,0,0,0,3.06-6.18,5.881,5.881,0,0,0-1.965-4.68,7.334,7.334,0,0,0-4.995-1.71,9.021,9.021,0,0,0-.99.06l3.54,2.46a65.62,65.62,0,0,1-2.76,6.33,28.5,28.5,0,0,1-3.42,5.67,5.479,5.479,0,0,1-4.29,2.1A4.934,4.934,0,0,1,34.2-3.57a8.594,8.594,0,0,1-1.95-5.79,12.181,12.181,0,0,1,4.32-9.69,14.386,14.386,0,0,1,9.75-3.48,11.937,11.937,0,0,1,8.22,2.79A10.183,10.183,0,0,1,57.84-11.73ZM44.22-18.09A9.137,9.137,0,0,0,39-15.24a8.022,8.022,0,0,0-2.19,5.58,3.759,3.759,0,0,0,.48,1.95q.42.69.9.69.99,0,2.49-2.91A62.194,62.194,0,0,0,44.22-18.09ZM88.59-19.2q-.24,3.51-1.245,4.545T83.07-13.62H67.5a6.032,6.032,0,0,1-3.555-.735q-.915-.735-.915-2.925v-7.35h4.65v2.16a138.351,138.351,0,0,0,15.6-2.04l3.06,3.45a132.515,132.515,0,0,1-17.61,2.28l-1.05.06v.3q0,.69.255.87a1.752,1.752,0,0,0,.945.18H82.11q1.29,0,1.62-.57a7.511,7.511,0,0,0,.48-2.55ZM86.4,2.13H81.69V.72H68.67V2.13H63.99V-12.36H86.4ZM81.69-7.53V-8.97H68.67v1.44Zm0,4.62v-1.5H68.67v1.5Zm37.53-5.37-1.95,4.56a34.908,34.908,0,0,0-3.87-2.55,18.375,18.375,0,0,1-8.25,8.76L101.52-.78a14.649,14.649,0,0,0,7.8-7.47,29.41,29.41,0,0,0-5.22-1.56,44.31,44.31,0,0,1-2.91,5.7,5.76,5.76,0,0,1-4.95,3,4.279,4.279,0,0,1-3.3-1.545A5.411,5.411,0,0,1,91.56-6.39a7.165,7.165,0,0,1,4.29-6.72,12.292,12.292,0,0,1,5.49-1.23q.12-.27,2.22-5.34-.75.15-6.36,1.02l-.96-4.41a48.594,48.594,0,0,0,10.11-1.35l3.12,2.28q-1.14,2.22-3.63,8.22a35.72,35.72,0,0,1,4.83,1.29,26.971,26.971,0,0,0,.42-3.87l4.62.63a34.208,34.208,0,0,1-.75,4.98A35.645,35.645,0,0,1,119.22-8.28ZM99.57-10.29a5.153,5.153,0,0,0-2.76.9,2.923,2.923,0,0,0-1.32,2.46q0,1.23.96,1.23.63,0,1.44-1.26A31.717,31.717,0,0,0,99.57-10.29Z" transform="translate(-0.84 24.66)" fill="#fff"/></svg>