<svg xmlns="http://www.w3.org/2000/svg" width="440.198" height="32.097" viewBox="0 0 440.198 32.097"><path d="M-214.3-6.392a50.847,50.847,0,0,1-3.672,5.134l-2.278-4.964a40.811,40.811,0,0,0,5-7.14h-4.318v-4.522h5.27v-1.8l-3.57,1.156q-.85-3.5-2.04-6.936l3.638-1.36q1.122,3.3,1.972,6.834v-8.126h4.624v7.684q1.122-3.332,1.9-6.562l3.434,1.258a56.3,56.3,0,0,1-2.346,7l-2.992-1.122v1.972h3.536v.408a38.072,38.072,0,0,0,3.944-10.71l4.284,1.5a45.443,45.443,0,0,1-2.72,8.7h6.188a48.539,48.539,0,0,1-2.754-8.7l4.42-1.564A42.787,42.787,0,0,0-187.1-15.232l-3.2,2.584v6.8q0,5.338-1.258,6.868-.986,1.224-4.25,1.224h-2.244l-1.292-4.658H-197q1.326,0,1.632-.765a16.086,16.086,0,0,0,.306-4.2v-5.984h-2.04q-.646,10.268-5.27,16.15l-4.284-2.856a20.654,20.654,0,0,0,3.6-5.848,23.354,23.354,0,0,0,1.462-7.446h-1.36q-.2.374-.748,1.224l-2.448-2.04v.816h-2.55q1.224,1.836,4.114,5.372L-206.856-3.5q-1.6-2.074-2.822-4.012V2.516H-214.3Zm56.542-.068A8.651,8.651,0,0,1-160.684.408a10.141,10.141,0,0,1-6.868,2.346A9.649,9.649,0,0,1-174.573.323a9.164,9.164,0,0,1-2.5-6.885q0-1.394.068-2.142-4.59-1.8-5.168-5.61l4.046-2.924a3.57,3.57,0,0,0,2.006,3.332q.374-1.666,1.19-4.318-4.012-.51-7.922-.646l2.142-4.794a55.17,55.17,0,0,1,7.31.68q.68-1.9,2.006-5.576l5.508,1.394a69.936,69.936,0,0,0-5.236,14.552,22.172,22.172,0,0,0,3.434-.068l.578,5.066a30.473,30.473,0,0,1-4.76.034v.408q0,4.692,4.012,4.692a4.043,4.043,0,0,0,3.3-1.394,5.018,5.018,0,0,0,1.054-3.332A9.5,9.5,0,0,0-164.39-11a11.434,11.434,0,0,0-2.278-3.451l5.712-.612A12.528,12.528,0,0,1-157.76-6.46Zm36.312-6.834a13.565,13.565,0,0,1-3.842,9.86,19.552,19.552,0,0,1-9.69,5.1l-3.2-4.964a17.2,17.2,0,0,0,7.548-3.128,8.508,8.508,0,0,0,3.468-7,6.666,6.666,0,0,0-2.227-5.3,8.312,8.312,0,0,0-5.661-1.938,10.224,10.224,0,0,0-1.122.068l4.012,2.788a74.37,74.37,0,0,1-3.128,7.174,32.3,32.3,0,0,1-3.876,6.426,6.209,6.209,0,0,1-4.862,2.38,5.592,5.592,0,0,1-4.216-2.21,9.74,9.74,0,0,1-2.21-6.562,13.806,13.806,0,0,1,4.9-10.982,16.3,16.3,0,0,1,11.05-3.944,13.529,13.529,0,0,1,9.316,3.162A11.541,11.541,0,0,1-121.448-13.294ZM-136.884-20.5a10.355,10.355,0,0,0-5.916,3.23,9.092,9.092,0,0,0-2.482,6.324,4.26,4.26,0,0,0,.544,2.21q.476.782,1.02.782,1.122,0,2.822-3.3A70.485,70.485,0,0,0-136.884-20.5Zm37.026-.782-3.876,3.5a24.231,24.231,0,0,0-5.644-5.27l3.638-3.808A26.148,26.148,0,0,1-99.858-21.284Zm12.546,7.242A98.937,98.937,0,0,1-97.07-5.78q-5.474,4.08-11.492,7.718l-3.57-4.59a90.454,90.454,0,0,0,22.2-16.082Zm-19.142-.578-3.774,3.672a35.218,35.218,0,0,0-5.61-4.862l3.536-3.774A24.363,24.363,0,0,1-106.454-14.62Zm47.77-2.754A25.69,25.69,0,0,1-67.8,2.686L-72.76-.272A27.191,27.191,0,0,0-66.3-7.82a21.078,21.078,0,0,0,2.04-9.758q0-4.148-.238-10.03h5.814ZM-71.23-25.6q-.238,4.59-.238,8.772,0,3.876.136,6.834l-5.338.748q-.272-3.536-.272-10.506,0-4.114.068-6.018ZM-20.2-11.322q-1.972-.1-4.692-.1A199.5,199.5,0,0,0-47.43-10.268l-.34-5.61q4.93-.442,11.492-.748,9.622-.442,16.048-.34ZM16.252-24.854l-2.618.952a18.951,18.951,0,0,0-2.38-4.42l2.516-.952A16.428,16.428,0,0,1,16.252-24.854ZM12.24-23.29l-2.652.884A18.049,18.049,0,0,0,7.48-26.928l2.448-.85A20.116,20.116,0,0,1,12.24-23.29ZM13.43-4.93,9.724-.612A55.779,55.779,0,0,0,.374-9.078,64.672,64.672,0,0,1-10.676.476l-4.046-3.74A57.618,57.618,0,0,0-4.488-11.288a37.152,37.152,0,0,0,6.154-7.786q-4.182.408-12.546,1.292l-.34-5.2q2.38-.1,9.01-.646,5.61-.442,8.67-.85l3.434,2.686a81.606,81.606,0,0,1-6.12,8.772A78.318,78.318,0,0,1,13.43-4.93ZM31.246-8.058q-.952.34-2.244.782V2.55H23.936v-8.4q-2.414.578-5.066,1.02l-.85-5a59.536,59.536,0,0,0,5.916-.986v-6.664H22.372q-.238,2.822-.578,4.76L18.02-13.94a77.209,77.209,0,0,0,1.054-12l3.74.374q-.034,1.054-.136,3.468h1.258v-5.984H29V-22.1h2.414v2.754h6.256v-1.938h-5.78V-25.84h5.78v-2.346h5.066v2.346H48.79v4.556H42.738v1.938h7v4.556H46.274v1.836H49.4V-8.4H46.274v6.46q0,2.584-.867,3.451a4.607,4.607,0,0,1-3.247.867H38.114l-1.5-4.522h3.5a1.244,1.244,0,0,0,.9-.238,1.32,1.32,0,0,0,.221-.884V-8.4H36.754A37.37,37.37,0,0,1,39.61-4.284L35.224-1.768A32.552,32.552,0,0,0,31.892-6.7l2.992-1.7H31.756v-4.556h9.452V-14.79H31.11v-2.686H29v5.338q1.326-.442,2.244-.816Zm35.088-12.58H52.7v-4.59h4.386v-2.89h5.2v2.89h4.046Zm8.3,13.6A12.283,12.283,0,0,0,77.044-10.4h-5A11.83,11.83,0,0,0,74.63-7.038Zm-8.806,8.4h-7.65V2.652h-4.93V-9.112h12.58v6.868A28.391,28.391,0,0,0,70.89-4.318a22.261,22.261,0,0,1-3.23-5.066l2.618-1.02H66.64v-4.284h2.04l-3.23-2.448v1.6H53.686v-3.774H65.45v1.87a10.235,10.235,0,0,0,2.822-4.726,23.846,23.846,0,0,0,.442-5.44h10.3v6.766q0,.51.476.51h.442q.51,0,.646-1.02a30.561,30.561,0,0,0,.1-3.162l3.6,1.5a22.611,22.611,0,0,1-.51,5.1,2.73,2.73,0,0,1-2.89,1.87H77.35a3.758,3.758,0,0,1-2.074-.374,2.523,2.523,0,0,1-.578-1.972v-4.692H72.964a15.913,15.913,0,0,1-.986,4.947,10.162,10.162,0,0,1-2.414,3.451H82.076v3.876a20.821,20.821,0,0,1-3.74,6.324,38.612,38.612,0,0,0,5.882,2.142L82.144,2.516A29.244,29.244,0,0,1,74.6-1.02a26.6,26.6,0,0,1-6.97,3.706l-1.8-3.434ZM61.166-2.924V-5.168H58.14v2.244Zm4.284-7.582H53.686v-3.74H65.45Zm52.19-5.236q-3.162-.034-7.174.136v.034q0,10.608-8.874,18.394L96.8-.136A23.539,23.539,0,0,0,103.156-6.8a17.952,17.952,0,0,0,2.142-8.5q-3.944.272-6.664.544.1,3.6.34,7.276l-5,.68q-.306-4.59-.442-7.378-4.352.51-6.562.884l-.51-5.1q3.5-.442,6.868-.782-.068-2.55-.1-6.936H98.6q-.1,3.5-.068,6.426l3.366-.306q1.122-.068,3.4-.238-.034-5.508-.136-7.684l5.406.306-.1,7.038q4.182-.238,6.868-.306Zm28.254-9.826q-2.55,3.332-5.3,6.46,0,14.008.1,21.318h-5.678q.136-4.216.306-15.708a98.829,98.829,0,0,1-7.786,7.038l-4.658-3.06a94.928,94.928,0,0,0,10.642-9.554,71.835,71.835,0,0,0,7.514-9.18Zm35.6,12.886-3.57,4.352a55.631,55.631,0,0,0-8.942-6.154l.034.034q0-1.19.1,16.524H163.4q.272-11.118.272-18.972,0-6.732-.1-10.88h5.78q-.136,4.25-.34,12.206l2.788-3.366A60.787,60.787,0,0,1,181.492-12.682ZM219.946-6.63l-3.638,5.1a147.5,147.5,0,0,1-13.26-11.594q-.578-.578-1.7-1.666a2.159,2.159,0,0,0-1.292-.748A1.433,1.433,0,0,0,199-14.96l-1.632,1.836a70.248,70.248,0,0,1-5.644,5.678l-3.57-5.066a64.676,64.676,0,0,0,9.01-8.228,4.242,4.242,0,0,1,3.23-1.428,4.533,4.533,0,0,1,3.162,1.5Q213.214-11.118,219.946-6.63Z" transform="translate(220.252 29.274)" fill="#fff"/></svg>