<svg xmlns="http://www.w3.org/2000/svg" xmlns:xlink="http://www.w3.org/1999/xlink" width="47.466" height="430.631" viewBox="0 0 47.466 430.631"><defs><clipPath id="a"><rect width="47.466" height="430.631" fill="#fff"/></clipPath></defs><g transform="translate(0 0)" clip-path="url(#a)"><path d="M39.816,22.331l-5.462,6.284A60.121,60.121,0,0,0,27.2,23.2,82.263,82.263,0,0,1,9.75,40.555L3.08,35.624A73.221,73.221,0,0,0,20.82,19.287q-4.738-2.658-8.6-4.4l4.93-5.945q3.864,1.645,8.119,3.964A69.417,69.417,0,0,0,31.6,0l7.637,3.142a118.649,118.649,0,0,1-7.492,13.534,77.382,77.382,0,0,1,8.073,5.654" transform="translate(0.304 0)" fill="#fff"/><path d="M43.466,70.042q-9.281-.193-17.353.387l-1.062.1,4.688,1.885a59.5,59.5,0,0,1-5.751,10.3,54.923,54.923,0,0,1-8.847,10.151L8.423,88.409a52.053,52.053,0,0,0,8.7-9.281A43.414,43.414,0,0,0,22,70.767,175.648,175.648,0,0,0,3.3,73.377l-.484-7.4q8.363-1.256,19.093-2.223,11.505-1.063,21.173-1.16Zm-8.6-12.036q-5.753.774-12.325,1.353-7.2.677-12.037.967l-.386-7.3A150.892,150.892,0,0,0,34.38,50.659Zm7.2-1.933-3.384,1.837a25.9,25.9,0,0,0-3.82-5.752l3.095-1.692a27.049,27.049,0,0,1,4.109,5.607m5.123-3-3.334,1.933A27.4,27.4,0,0,0,39.745,49.4l3.142-1.837a24.623,24.623,0,0,1,4.3,5.51" transform="translate(0.277 4.688)" fill="#fff"/><path d="M40.782,105.988q-2.8,3.673-6.284,7.637,0,17.788.1,24.748H27.538q.145-4.448.338-17.74a115.613,115.613,0,0,1-8.652,7.782L13.376,124.6a121.158,121.158,0,0,0,12.181-10.876,81.929,81.929,0,0,0,9.086-11.069Z" transform="translate(1.318 10.118)" fill="#fff"/><path d="M44.642,157.562q-9.136,8.7-13.631,12.229l-3.095-2.562Q24.339,183.278,14.962,192.7l-7.056-3.867a38.02,38.02,0,0,0,8.8-11.891,41.153,41.153,0,0,0,3.48-11.987l5.994.822-.531-.435a55.811,55.811,0,0,0,6.38-5.462q-4.642.435-13.632,1.208-4.688.387-13.582,1.305l-.677-7.782q11.6-.242,35.431-2.417Z" transform="translate(0.408 15.001)" fill="#fff"/><path d="M13.505,227.194l-.532.242v10.731q0,3.383-1.184,4.64a5.234,5.234,0,0,1-3.939,1.257H3.935L2.291,237.2H4.273a2.394,2.394,0,0,0,1.474-.314q.363-.315.363-1.571v-5.752q-1.645.387-3.625.725l-1.208-7.154q2.076-.29,4.834-.918v-6.67H2.243v-7.009H6.11v-8.072h6.864v8.072h3.141v7.009H12.973v4.737q1.933-.677,3.094-1.208v5.9a38.472,38.472,0,0,0,6.042-5.172h-4.4V201.431H43.522V219.8h-13.1q-.822,1.015-1.5,1.788H45.311v8.024q0,8.748-1.112,11.166-1.5,3.141-7.057,3.142H33.71l-.677-2.562a15.51,15.51,0,0,1-4.592.483H23.656q-2.8,0-3.819-.967t-1.016-4.012v-6.187q-.338.242-1.5,1.015Zm23.1,7.009a22.787,22.787,0,0,1-.387,2.9,1.767,1.767,0,0,0,1.788-1.233,26.748,26.748,0,0,0,.338-5.583v-3.722H23.945q-.433.387-1.256,1.112h2.465v1.74a87.246,87.246,0,0,0,9.183-2.175l2.37,4.785q-2.322.58-4.98,1.159Zm-.193-27.455H24.478v1.933H36.417Zm0,6.524H24.478v1.886H36.417ZM25.154,234.4v.822q0,1.16,1.208,1.16H28.3a2.98,2.98,0,0,0,2.128-.556,4.048,4.048,0,0,0,.58-2.489q-3.19.677-5.849,1.063" transform="translate(0.126 19.758)" fill="#fff"/><path d="M24.017,290.845H19.472v3.48H12.56v-3.48H2.071v-4.834H12.56v-1.355H4.247V272.573H12.56v-1.207H2.846v-4.64H12.56v-1.5H2.024V259.91H12.56v-1.6h-8.6V253.48h8.6v-2.416h7.057v2.416h8.218v4.835H19.617v1.6h9.62q-.194-4.883-.243-8.846h6.527q0,3.238.145,8.846h9.666v5.317H35.81q.242,5.318.678,9.329A53.3,53.3,0,0,0,39.339,266l5.075,3.866a61.957,61.957,0,0,1-6.042,13.921q.918,2.757,1.74,2.756.483,0,1.669-2.151a26.923,26.923,0,0,0,1.957-4.471l2.756,8.071q-2.95,6.575-6.574,6.575-3.675,0-5.945-4.5a56.472,56.472,0,0,1-4.4,4.833l-6.187-3.529a7.067,7.067,0,0,1,.628-.531M12.9,275.764H10.143v1.4H12.9Zm0,4.3H10.143v1.4H12.9Zm8.8-4.3H19.184v1.4H21.7Zm0,4.3H19.184v1.4H21.7Zm6.719-8.7H19.472v1.207h7.734v12.084H19.472v1.355h8.749v.87a43.973,43.973,0,0,0,3.287-4.013,120.221,120.221,0,0,1-2.029-17.642H19.472v1.5h8.943ZM45.624,257.2l-5.318,2.465a37.65,37.65,0,0,0-4.4-6.042l5.172-2.368a36.339,36.339,0,0,1,4.545,5.945" transform="translate(0.199 24.745)" fill="#fff"/><path d="M7.2,309.986a117.184,117.184,0,0,1-2.176,14.888L0,322.021a105.133,105.133,0,0,0,2.319-13.679Zm6.96,35.19H7.346v-43.5h6.817V308l1.884-.918a90.174,90.174,0,0,1,3.191,9.086h8.556v-1.3H19.335v-4.35h8.459v-1.258H18.028v-5.075h9.765v-2.61h7.249v2.61H45.05v5.075H35.043v1.258h8.6v4.35h-8.6v1.3h11.07v5.269H17.3v-2.9l-1.74.918q-.677-3.141-1.4-5.558ZM43.5,340.2a5.3,5.3,0,0,1-1.063,3.747,5.034,5.034,0,0,1-3.675,1.088h-5.7l-1.451-4.979h3.674q1.305,0,1.306-1.4v-.822H26.536v7.4H19.624V322.7H43.5ZM36.591,327H26.537v1.4H36.591Zm0,5.172H26.537v1.5H36.591Z" transform="translate(0 29.723)" fill="#fff"/><path d="M22.685,380.625H16.257v2.514h5.849v6.09H16.257v6.622H9.343v-6.622H2.576v-6.09H9.343v-2.514H2.094v-6.284H5.38q-.532-1.981-1.256-4.205H1.8v-6.09H9.343v-2.513H3.3v-5.945H9.343V352.4h6.913v3.189h5.9v5.945h-5.9v2.513H22.83v6.09H20.944q-.629,2.465-1.257,4.205h3Zm-11.021-6.284H13.55q.725-2.126,1.208-4.205H10.65q.58,2.175,1.015,4.205m35.189,16-4.3,5.558a38.588,38.588,0,0,1-4.641-4.544q-1.6,2.177-3.624,4.447l-3.964-3.094v3.19H23.941V353.122H44.919v8.361q0,3.335-1.039,4.447t-3.746,1.113h-6.09l-1.352-5.317h4.156q1.305,0,1.305-1.258V359.4H30.8v9.185H45.258v5.123a37.045,37.045,0,0,1-3.915,12.036,32.485,32.485,0,0,0,5.511,4.593m-12.762-4.4a30.744,30.744,0,0,1-3.722-11.505h-.047V390.05a31.077,31.077,0,0,0,3.769-4.108m1.548-11.505a21.362,21.362,0,0,0,1.884,5.849,24.779,24.779,0,0,0,1.885-5.849Z" transform="translate(0.178 34.732)" fill="#fff"/></g></svg>