<svg xmlns="http://www.w3.org/2000/svg" width="473.834" height="158.681" viewBox="0 0 473.834 158.681"><g transform="translate(-138 -7430)"><path d="M-162.72-29.2l-3.16,1.12a22.752,22.752,0,0,0-2.72-5.2l2.92-1.12A19.721,19.721,0,0,1-162.72-29.2Zm-4.76,1.84-3.12,1.04a22.394,22.394,0,0,0-2.52-5.28l2.92-1.04A23.666,23.666,0,0,1-167.48-27.36Zm5.36,19.76-4.84,4.8a35.227,35.227,0,0,0-7.28-8.08l4.4-4.8A50.607,50.607,0,0,1-162.12-7.6Zm-2.68-11.52q-5.8-.16-12.24.2V-2.24q0,2.84-1.56,3.84a9.462,9.462,0,0,1-4.64.8q-.52,0-1.68-.04-1.28-.04-1.48-.04l-2-6.08q1.84.16,2.84.16,1.76,0,2.08-.88a28.044,28.044,0,0,0,.2-4.76q0-6.08-.04-9.24-6.28.6-12.12,1.6l-.76-6.08q7.32-.8,12.76-1.24-.08-4.48-.2-7.6h6.76q-.08,1.92-.12,7.08,6.04-.44,11.84-.6Zm-21.96,7.48a41.382,41.382,0,0,1-6,9.92l-4.84-3.92a34.873,34.873,0,0,0,6-9.44Zm60.28-3.28-4.2,5.12a65.449,65.449,0,0,0-10.52-7.24l.04.04q0-1.4.12,19.44h-6.72q.32-13.08.32-22.32,0-7.92-.12-12.8h6.8q-.16,5-.4,14.36l3.28-3.96A71.514,71.514,0,0,1-126.48-14.92ZM-81-15.48A84.7,84.7,0,0,1-89.56-7.4,92.641,92.641,0,0,1-98.6-.76l-4.32-3.2q.12-5.48.16-12.32.08-7.68-.12-12.32l6.4.04q-.24,4.08-.24,9.88v9.04a50.3,50.3,0,0,0,6.4-5.28,60.509,60.509,0,0,0,6.36-6.92Zm-22.8-7.36q-1.04,4.08-1.36,5.12a54.278,54.278,0,0,1-1.88,5.76A63.5,63.5,0,0,1-112.8-.36l-5.96-2.44A51.757,51.757,0,0,0-112.84-14a58.568,58.568,0,0,0,3.04-10.68Zm60.92,7.2A15.959,15.959,0,0,1-47.4-4.04a23,23,0,0,1-11.4,6l-3.76-5.84a20.23,20.23,0,0,0,8.88-3.68A10.009,10.009,0,0,0-49.6-15.8a7.842,7.842,0,0,0-2.62-6.24,9.778,9.778,0,0,0-6.66-2.28,12.027,12.027,0,0,0-1.32.08l4.72,3.28a87.491,87.491,0,0,1-3.68,8.44,38,38,0,0,1-4.56,7.56,7.305,7.305,0,0,1-5.72,2.8,6.579,6.579,0,0,1-4.96-2.6A11.459,11.459,0,0,1-77-12.48,16.242,16.242,0,0,1-71.24-25.4a19.181,19.181,0,0,1,13-4.64q6.76,0,10.96,3.72Q-42.88-22.4-42.88-15.64Zm-18.16-8.48A12.183,12.183,0,0,0-68-20.32a10.7,10.7,0,0,0-2.92,7.44,5.012,5.012,0,0,0,.64,2.6q.56.92,1.2.92,1.32,0,3.32-3.88A82.923,82.923,0,0,0-61.04-24.12ZM-20.88-11.2a13.557,13.557,0,0,0,2.76,3.24,10.224,10.224,0,0,0,.68-3.24ZM-28.64,2.88h-5.88V-13.4q-1,1.48-2.32,3.24l-2.92-5.64a53.553,53.553,0,0,0,7.72-17.76l5.68.96q-.16.68-.6,2.32h9.28v-2.6h6v2.6H-1.8v5.56h-9.88V-23H-3v11.8h-8.64a17.409,17.409,0,0,1-1.4,6A57.494,57.494,0,0,0-1.24-2.88L-3.6,2.8A44.984,44.984,0,0,1-16.44-.68,19.93,19.93,0,0,1-24.48,3l-3.48-5.16a23.173,23.173,0,0,0,6.24-2,20.942,20.942,0,0,1-4.12-5l3.16-2.04H-26.2V-23h8.52v-1.72h-9.44v-4.92q-.68,2.4-1.52,4.72ZM-8.48-15.8v-2.64h-3.4v2.64Zm-9,0v-2.64h-3.28v2.64Zm56.16,3.72-6.24,2.8a27,27,0,0,0-3.2-7.16,22.341,22.341,0,0,0-4.6-5.4l5.32-3.56A23.552,23.552,0,0,1,38.68-12.08Zm-19.92-4a32.208,32.208,0,0,0-1.72,9.96q0,.96.08,1.84L11.64-1.2Q3.2-10.8,2.92-25.12l6.68-.24a35.719,35.719,0,0,0,.84,7.48,23.222,23.222,0,0,0,2.4,6.72A33.621,33.621,0,0,1,15-18.32Zm47.92-6q-.2.56-.6,1.72h2.04q-.2-.8-.36-1.72ZM67.4-6.96a18.318,18.318,0,0,1-2.44,4.84h2.48a2.019,2.019,0,0,0,1.34-.32,2.5,2.5,0,0,0,.34-1.64V-6.96Zm1.32-7.12q-.12,1.48-.24,2.48h3.24a27.233,27.233,0,0,1-2-3.8H63.76a38.66,38.66,0,0,1-2.36,3.8h2.36q.2-1.08.32-2.48ZM55-1.88q0,2.76-.84,3.66a4.013,4.013,0,0,1-3,.9H48.44l-1.2-4.76a30.7,30.7,0,0,1-1.72,5.76L40.8-.96A30.8,30.8,0,0,0,42.76-9.6q.24-2.8.24-8.64V-32.6H55v20.88a27.52,27.52,0,0,0,3.36-3.68H55.6v-4.96h5.64q.44-1,.68-1.72H56.16v-4.68h2.16a25.264,25.264,0,0,0-2.36-4.28L60.4-32.8a27.49,27.49,0,0,1,2.68,4.56l-3.36,1.48h3.44a52.561,52.561,0,0,0,.72-6.6l5.6.56q-.68,3.44-1.36,6.04h4.44L69.52-28a23.812,23.812,0,0,0,2.24-4.96L76.8-31.6a29.3,29.3,0,0,1-2.2,4.84h3.08v4.68H72.24q.16.6.48,1.72h5.84v4.96H75a18.25,18.25,0,0,0,4.6,4.92L76.68-5.76a27.78,27.78,0,0,1-2.32-2.36v4.88q0,3.8-1.2,5Q72.12,2.8,69.04,2.8H65.68L64.36-1.36a21.038,21.038,0,0,1-5.12,4.48l-3.96-4q5.08-2.48,7-6.08H59.04V-8.52q-1.32,1.56-2.72,3L55-8ZM48.2-23.36H50V-27.2H48.2Zm0,9.08H50V-18.4H48.2ZM50-9.16H48.08a46.573,46.573,0,0,1-.6,5.84h1.36Q50-3.32,50-4.64Zm68.48,1.04H103.56v4.4q0,4.08-1.28,5.32-1.2,1.08-5.04,1.08H91L89.2-3.08h5.84a2.682,2.682,0,0,0,1.68-.36q.4-.36.4-1.76V-8.12H81.76v-5.64H97.12v-3.08H84.08v-5.48H97.12v-3.04q-5.04.36-10.8.56L83.6-30.44q16.68-.2,27.6-2.4l4,5.36q-5.48.92-11.64,1.56v3.6h12.52v5.48H103.56v3.08h14.92Zm36-19-.84,6.28a22.043,22.043,0,0,1-2.6.12,34.883,34.883,0,0,1-6.36-.6,18.391,18.391,0,0,1-5.2-1.64l2.68-5.72q3.48,1.68,9.8,1.68Q153.12-27,154.48-27.12Zm2.36,21L154.6.6q-7-.12-10.68-2.04a11.2,11.2,0,0,1-5.64-7.76l5.36-4.08a10.455,10.455,0,0,0,1.96,4.36,7.532,7.532,0,0,0,4.68,2.44A42.112,42.112,0,0,0,156.84-6.12Zm-20.52-6.04a25.191,25.191,0,0,0-2.52,6,19.768,19.768,0,0,0-.92,6.44L126.8,1.84a66.5,66.5,0,0,1-1.72-15.48,58.072,58.072,0,0,1,2.96-17.64l6.28,1.84a46.945,46.945,0,0,0-2.4,8.08,45.383,45.383,0,0,0-1.04,8.32A20.826,20.826,0,0,0,131-9.92a51.336,51.336,0,0,1,2.76-5ZM194.4-7.6A10.177,10.177,0,0,1,190.96.48a11.93,11.93,0,0,1-8.08,2.76q-5.32,0-8.26-2.86t-2.94-8.1q0-1.64.08-2.52-5.4-2.12-6.08-6.6l4.76-3.44a4.2,4.2,0,0,0,2.36,3.92q.44-1.96,1.4-5.08-4.72-.6-9.32-.76l2.52-5.64a64.907,64.907,0,0,1,8.6.8q.8-2.24,2.36-6.56l6.48,1.64a82.28,82.28,0,0,0-6.16,17.12,26.085,26.085,0,0,0,4.04-.08l.68,5.96a35.85,35.85,0,0,1-5.6.04v.48q0,5.52,4.72,5.52a4.756,4.756,0,0,0,3.88-1.64,5.9,5.9,0,0,0,1.24-3.92,11.182,11.182,0,0,0-1.04-4.46A13.452,13.452,0,0,0,183.92-17l6.72-.72A14.739,14.739,0,0,1,194.4-7.6ZM-109.44,29.24l-2.84,5.56a25.932,25.932,0,0,0-8.44,3.52l-3.12-3.24q1.52-1.08,3.76-2.48a55.475,55.475,0,0,0-9.68-2.16l3.08-5.72A83.327,83.327,0,0,1-109.44,29.24Zm1.56,26.44a41.862,41.862,0,0,1-11.08,1.52q-6.12,0-9.64-2.16a8.2,8.2,0,0,1-4.04-7.48,3.982,3.982,0,0,1,.12-1.04l5.88-3.4a5.359,5.359,0,0,0-.2,1.44q0,3.92,3.04,5.32a13.8,13.8,0,0,0,5.36.8,28.061,28.061,0,0,0,9.72-1.84ZM-62.76,28.2l-2.92,1.68a22.808,22.808,0,0,0-3.52-4.84l2.72-1.6A21.208,21.208,0,0,1-62.76,28.2Zm-4.44,2.56-2.92,1.6A22.79,22.79,0,0,0-73.4,27.4l2.68-1.48A24.41,24.41,0,0,1-67.2,30.76Zm3.12,6.28L-66.56,43a33.628,33.628,0,0,0-12.08-2.68l1.76-5.6q-3.44,1.24-6.2,2.08a205.833,205.833,0,0,1-7.6,21.76l-6.6-2.12A117.9,117.9,0,0,0-90.04,38.8q-.4.12-5.88,1.6l-1.64-6.08q4.24-.8,9.4-2.28,1.28-5.28,1.8-8.4l6.56,1.24q-.44,1.6-1.32,4.88,2.4-.88,4.32-1.8l1.48,6.2-.88.32A31.194,31.194,0,0,1-64.08,37.04Zm.6,20.12a39.137,39.137,0,0,1-7.28.68q-5.56,0-8.36-1.56a6.173,6.173,0,0,1-3.2-5.88,8.006,8.006,0,0,1,.28-2l6-1.76a6.667,6.667,0,0,0-.24,1.52,2.8,2.8,0,0,0,1.24,2.6,7.864,7.864,0,0,0,3.84.68,34.248,34.248,0,0,0,7.08-.88Zm41.04-13.4q0,9.6-11,14.44l-4.44-4.88q8.84-3.6,8.84-9.44a3.862,3.862,0,0,0-1.16-2.84,4.679,4.679,0,0,0-3.4-1.24q-3.96,0-8.48,3.72,0,3.76.04,8.24l.08,6.72h-6.2q.08-2.08.16-9.72a64.314,64.314,0,0,0-5.48,7.36l-4-4.92q6.52-7.96,9.6-12.36V35.92a49.282,49.282,0,0,0-6.24,3l-2.28-5.6q4.32-2.04,8.44-3.52-.08-3.96-.24-6.84l6.52.2q-.12,2.24-.16,4.68.64-.2,1.84-.52l.72,5.44-2.64.92-.08,3.2a17.413,17.413,0,0,1,9.32-3.08,9.917,9.917,0,0,1,7.6,3.08A9.741,9.741,0,0,1-22.44,43.76Zm34.48-5.32A24.523,24.523,0,0,1,9.84,49.2Q6.72,55.68-1.8,59.68l-5.12-4.84a42.6,42.6,0,0,0,6.36-3.6,14.182,14.182,0,0,0,4.12-4.52,15.6,15.6,0,0,0,1.72-7.56,14.741,14.741,0,0,0-.56-4.28Q4,32.36,2.44,32.36q-2.6,0-4.6,4.56A19.419,19.419,0,0,0-3.88,44.6v.72L-9.8,46.44a63.011,63.011,0,0,1-.88-11.72A76.491,76.491,0,0,1-9.52,22.4l6.52.84a43.364,43.364,0,0,0-1.48,7.04q-.08,1.04-.24,2.76a13.3,13.3,0,0,1,3.44-4.88A7.806,7.806,0,0,1,4,25.88q3.76,0,6,3.72A17.28,17.28,0,0,1,12.04,38.44ZM55.12,53.96,50.48,58.8a29.084,29.084,0,0,0-6.04-5.24q-1.68,5.2-9,5.2a12.493,12.493,0,0,1-6.64-1.6,5.741,5.741,0,0,1-.56-9.64q2.68-2.04,7.72-2a22.734,22.734,0,0,1,3.12.2V42.96H37.12a11.469,11.469,0,0,1-5.62-1.18,3.585,3.585,0,0,1-2.1-3.22,6.56,6.56,0,0,1,.88-2.96q-1.96.52-4.12,1.28l-1.68-5.4a113.08,113.08,0,0,1,14.24-3.16q-.12-3.04-.24-5.52l6.64.28q-.12,1.76-.2,4.44,3.88-.44,7.84-.84l1.16,5.68q-4.24.12-9.08.64v4a36.007,36.007,0,0,0,8.04-2.64l2.2,5.32a47.314,47.314,0,0,1-10.24,2.76q0,1.72.04,4.76A32.042,32.042,0,0,1,55.12,53.96ZM38.96,37.84l-.08-4.04a83.943,83.943,0,0,0-8.56,1.8l5.12.4a1.974,1.974,0,0,0-.48.92q0,1,1.96,1Q37.88,37.92,38.96,37.84Zm.12,12.96a12.065,12.065,0,0,0-3.68-.6q-3.72,0-3.72,1.64,0,1.68,3.48,1.68Q38.88,53.52,39.08,50.8Zm53.76-2.72-.52,7a32.437,32.437,0,0,1-6.2,2.16,31.761,31.761,0,0,1-8.04,1.2q-6.04,0-7.88-4.32-.96-2.24-.96-9.64V23.6l7.04.52q-.52,7.56-.52,23.48,0,2.6.88,3.52a3.405,3.405,0,0,0,2.6.8,25.438,25.438,0,0,0,6.88-1.24A48.3,48.3,0,0,0,92.84,48.08Zm43.48-11.44-2.48,5.96a33.628,33.628,0,0,0-12.08-2.68l1.76-5.6q-3.44,1.24-6.2,2.08a205.833,205.833,0,0,1-7.6,21.76l-6.6-2.12a117.9,117.9,0,0,0,7.24-17.64q-.4.12-5.88,1.6l-1.64-6.08q4.24-.8,9.4-2.28,1.28-5.28,1.8-8.4l6.56,1.24q-.44,1.6-1.32,4.88,2.4-.88,4.32-1.8l1.48,6.2-.88.32A31.2,31.2,0,0,1,136.32,36.64Zm.6,20.12a39.137,39.137,0,0,1-7.28.68q-5.56,0-8.36-1.56a6.173,6.173,0,0,1-3.2-5.88,8.006,8.006,0,0,1,.28-2l6-1.76a6.667,6.667,0,0,0-.24,1.52,2.8,2.8,0,0,0,1.24,2.6,7.864,7.864,0,0,0,3.84.68,34.248,34.248,0,0,0,7.08-.88Z" transform="translate(375 7529)" fill="#323232"/><g transform="translate(-350.633 7339.003)"><g transform="translate(-105 31.997)"><path d="M-174.09-6.384A6.691,6.691,0,0,1-176.554-.7,9.48,9.48,0,0,1-182.518.98,9.382,9.382,0,0,1-188.51-.756a6.817,6.817,0,0,1-2.464-5.712v-3.948h4.732v3.584q0,3.668,3.724,3.668,3.668,0,3.668-3.556v-15.2h4.76Zm27.048-13.468a56.185,56.185,0,0,1-4.2,10.668,44.551,44.551,0,0,1-7.644,10.7l-4.2-2.408A36.748,36.748,0,0,0-155.386-11a43.919,43.919,0,0,0,3.808-10.556Zm-13.02,6.86-4.2,2.072a35.094,35.094,0,0,0-2.044-4.046,23.142,23.142,0,0,0-2.352-3.458l4.088-2.156A28.358,28.358,0,0,1-160.062-12.992Zm41.776,3.668q-1.624-.084-3.864-.084a164.3,164.3,0,0,0-18.564.952l-.28-4.62q4.06-.364,9.464-.616,7.924-.364,13.216-.28Zm28.2,4.984L-93.142-.784a45.936,45.936,0,0,0-7.7-6.972,53.26,53.26,0,0,1-9.1,7.868l-3.332-3.08a47.45,47.45,0,0,0,8.428-6.608,30.6,30.6,0,0,0,5.068-6.412q-3.444.336-10.332,1.064l-.28-4.284q1.96-.084,7.42-.532,4.62-.364,7.14-.7L-93-18.228A67.2,67.2,0,0,1-98.042-11,64.5,64.5,0,0,1-90.09-4.34Zm29.456,1.6-2.912,3.5A17.305,17.305,0,0,0-65.9-1.9q-1.316,2.968-5.544,2.968a6.269,6.269,0,0,1-4.13-1.246A4.1,4.1,0,0,1-77.07-3.5a4.2,4.2,0,0,1,1.624-3.472,6.528,6.528,0,0,1,4.088-1.2,15.585,15.585,0,0,1,1.876.14q-.056-2.212-.2-5.068a33.031,33.031,0,0,0-6.02,1.96l-.42-3.92a40.082,40.082,0,0,1,6.244-2.072l-.252-4.928,4.592.2Q-65.59-20.44-65.59-18q1.96-.308,3.472-.42l.56,4.256a34.14,34.14,0,0,0-4,.308q.056,2.408.168,7.084A19.478,19.478,0,0,1-60.634-2.744Zm-16.688-5.18A18.039,18.039,0,0,0-78.834-3.78,22.644,22.644,0,0,0-79.562.2l-3.808.868a39.878,39.878,0,0,1-1.036-9.6A92.011,92.011,0,0,1-83.09-22.12l4.648.672A53.209,53.209,0,0,0-80.374-8.092a14.466,14.466,0,0,0,.084,1.6A29.779,29.779,0,0,1-79.03-9.24Zm7.868,3.556A5.294,5.294,0,0,0-71.526-4.9q-1.82,0-1.82,1.092,0,1.176,1.792,1.176A2.412,2.412,0,0,0-70-3.024,1.917,1.917,0,0,0-69.454-4.368Zm25.928-5.768h5.88v-4.956h-5.88Zm-9.968,0h5.572v-4.956h-5.572Zm15.848,4h-5.88V1.9h-4.4V-6.132h-5.572V-4.48h-4.2V-19.068h9.772v-4.116h4.4v4.116h10.08V-4.48h-4.2Zm25.284-10.416V-17.78H-22.834v1.232Zm0,3.808v-1.12H-22.834v1.12ZM-22.834-8.6q5.208-.112,10.136-.56l.336-.252v-.644H-22.834Zm3.864,3.08q-5.124.532-10.556.644l-.84-3.668h3.3V-21.112h6.524a26.256,26.256,0,0,0,.924-2.464l4.508.5q-.2.672-.7,1.96h7.672v7.7a19.469,19.469,0,0,0,1.428-1.9l2.464,3.276A41.156,41.156,0,0,1-8.134-8.316v6.5a4.151,4.151,0,0,1-.9,3.094q-.9.826-3.444.826H-16.45l-1.2-3.78h4.172a1.367,1.367,0,0,0,.882-.21,1.237,1.237,0,0,0,.238-.91V-5.18A58,58,0,0,1-27.286,1.708l-2.968-3.64A54.536,54.536,0,0,0-18.97-5.516ZM22.414-19.46,20.37-18.284a15.966,15.966,0,0,0-2.464-3.388l1.9-1.12A14.846,14.846,0,0,1,22.414-19.46Zm-3.108,1.792-2.044,1.12a15.953,15.953,0,0,0-2.3-3.472l1.876-1.036A17.087,17.087,0,0,1,19.306-17.668Zm2.184,4.4L19.754-9.1A23.54,23.54,0,0,0,11.3-10.976L12.53-14.9q-2.408.868-4.34,1.456A144.082,144.082,0,0,1,2.87,1.792L-1.75.308A82.529,82.529,0,0,0,3.318-12.04q-.28.084-4.116,1.12l-1.148-4.256q2.968-.56,6.58-1.6.9-3.7,1.26-5.88l4.592.868q-.308,1.12-.924,3.416,1.68-.616,3.024-1.26l1.036,4.34-.616.224A21.836,21.836,0,0,1,21.49-13.272ZM21.91.812a27.4,27.4,0,0,1-5.1.476A12.343,12.343,0,0,1,10.962.2,4.321,4.321,0,0,1,8.722-3.92a5.6,5.6,0,0,1,.2-1.4l4.2-1.232a4.667,4.667,0,0,0-.168,1.064,1.963,1.963,0,0,0,.868,1.82,5.5,5.5,0,0,0,2.688.476,23.973,23.973,0,0,0,4.956-.616ZM50.638-13.636a30.219,30.219,0,0,0-4.368.336q.028,1.736.028,3.36,0,7.084-5.852,12.32l-4-2.268a19.2,19.2,0,0,0,4.48-5.32,12.591,12.591,0,0,0,1.092-5.628q0,.084-.056-1.68a33.224,33.224,0,0,0-5.8,1.764l-.224-4.06a31.554,31.554,0,0,1,5.852-1.932q-.224-4.732-.364-6.216l4.676.224q.028,1.288.084,5.124,2.156-.336,4.34-.56ZM35.042-8.6A17.616,17.616,0,0,0,33.7-1.736L29.554-.392a31.7,31.7,0,0,1-1.568-10.472A54.273,54.273,0,0,1,29.3-21.9l4.564.812a41,41,0,0,0-1.9,11.62,13.2,13.2,0,0,0,.2,2.156,13.629,13.629,0,0,1,1.176-2.884Zm40.684-9.52-2.1,1.2a16.264,16.264,0,0,0-2.52-3.472l1.96-1.148A15.141,15.141,0,0,1,75.726-18.116Zm-3.192,1.848-2.1,1.12a16.548,16.548,0,0,0-2.352-3.528l1.932-1.092A16.047,16.047,0,0,1,72.534-16.268ZM75.11-5.544l-.364,4.9A22.706,22.706,0,0,1,70.406.868a22.233,22.233,0,0,1-5.628.84q-4.228,0-5.516-3.024-.672-1.568-.672-6.748V-22.68l4.928.364q-.364,5.292-.364,16.436a3.633,3.633,0,0,0,.616,2.464,2.384,2.384,0,0,0,1.82.56,17.806,17.806,0,0,0,4.816-.868A33.809,33.809,0,0,0,75.11-5.544ZM104.482-11q0,4.62-6.384,5.992L95.494-8.2a11.558,11.558,0,0,0,2.968-.7q1.932-.728,1.932-1.9,0-1.036-1.26-1.036-1.68,0-6.216,2.576Q96.25-3.78,98.714.56L94.962,2.52a106.186,106.186,0,0,0-5.376-9.8Q87.6-6.048,86.338-5.152L83.9-8.372q1.176-.672,3.64-2.1-1.036-1.54-1.68-2.408l3.7-1.848,1.456,2.352q.98-.532,3.052-1.6A19.556,19.556,0,0,0,89.474-15.9l2.016-3.024a21.094,21.094,0,0,1,5.516,2.24L95.774-14.7a11.009,11.009,0,0,1,3.808-.812,5.133,5.133,0,0,1,3.472,1.232A4.111,4.111,0,0,1,104.482-11Zm30.3-3.136-2.548,3.5a18.6,18.6,0,0,0-5.1-4.368l2.408-3.22A15.128,15.128,0,0,1,134.778-14.14Zm-8.372-2.1q-2.772.336-5.8.98a95.726,95.726,0,0,1-6.5,12.1l-3.892-1.988a62.8,62.8,0,0,0,5.4-8.82q-2.24.7-3.808,1.344l-1.344-3.92q3.752-1.2,7.224-2.044a50.5,50.5,0,0,0,1.624-4.928l4.34.868q-.532,1.372-1.2,3.052,1.96-.364,3.36-.616Zm8.148,13.72L132.146,1.4a21.8,21.8,0,0,0-3.416-2.856q-1.008,3.668-5.628,3.668a7.543,7.543,0,0,1-4.536-1.26,4.289,4.289,0,0,1-1.82-3.64,4.419,4.419,0,0,1,1.764-3.724,6.967,6.967,0,0,1,4.34-1.26,13.39,13.39,0,0,1,1.652.112,20.131,20.131,0,0,1,.028-2.884,4.411,4.411,0,0,1,1.176-2.968l3.3,1.9a7.436,7.436,0,0,0-.392,2.688q0,.728.2,2.464A19.217,19.217,0,0,1,134.554-2.52Zm-9.828-1.2a5.073,5.073,0,0,0-1.792-.42q-2.128,0-2.128,1.372,0,1.2,1.96,1.2a1.9,1.9,0,0,0,1.568-.56A2.891,2.891,0,0,0,124.726-3.724Zm38.7-4.732L159.054-6.5a18.9,18.9,0,0,0-2.24-5.012,15.639,15.639,0,0,0-3.22-3.78l3.724-2.492A16.487,16.487,0,0,1,163.422-8.456Zm-13.944-2.8a22.545,22.545,0,0,0-1.2,6.972q0,.672.056,1.288L144.494-.84q-5.908-6.72-6.1-16.744l4.676-.168a25,25,0,0,0,.588,5.236,16.255,16.255,0,0,0,1.68,4.7,23.534,23.534,0,0,1,1.512-5.012Zm36.736-9.016L177.73-4.228,174.006-6.02l7.476-16.6Zm-8.736,18-1.96,3.92L170.73-.756l1.96-3.892Z" transform="translate(832.638 92.984)" fill="#992113"/><path d="M0,0H8.984l-1.8,52.107H1.8Z" transform="translate(593.632 63.492) rotate(-30)" fill="#992113"/><path d="M0,0H8.984l-1.8,52.107H1.8Z" transform="translate(1059.686 59) rotate(30)" fill="#992113"/></g></g></g></svg>