<svg xmlns="http://www.w3.org/2000/svg" width="316.79" height="32.594" viewBox="0 0 316.79 32.594"><g transform="translate(-122.21 -13240.5)"><path d="M31.892-8.33l-3.5,3.808a36.657,36.657,0,0,0-6.97-5.814l3.5-3.434A29.463,29.463,0,0,1,31.892-8.33ZM26.044-18.666q-3.026,3.128-6.562,6.222.034,3.808.238,15.062H14.348q.17-3.6.238-10.982a93.193,93.193,0,0,1-8.432,6.12L2.21-6.018a95.785,95.785,0,0,0,8.3-5.44A66.3,66.3,0,0,0,16.66-16.49q-3.536.306-10.608,1.122l-.374-5q4.216-.2,8.806-.578.884-.068,3.366-.306a34.292,34.292,0,0,0-5.814-3.4L14.96-28.8a25.915,25.915,0,0,1,6.222,3.6l-2.822,3.91q2.108-.2,4.794-.544Zm41-6.528L64.6-23.766a19.388,19.388,0,0,0-2.992-4.114l2.312-1.36A17.839,17.839,0,0,1,67.048-25.194Zm-3.774,2.176-2.482,1.36A19.371,19.371,0,0,0,58-25.874l2.278-1.258A20.748,20.748,0,0,1,63.274-23.018ZM64.736-9.656q-4.9.408-10.846,1.394.782,5.168,1.6,10.1l-5.474.816q-.306-3.434-1.224-10Q43.214-6.256,38.012-4.9l-1.02-5Q40.766-10.676,48.11-12q-.17-1.258-.51-3.706-5.576.986-8.636,1.394l-1.054-4.9q3.842-.306,8.976-1.19-.68-4.284-1.156-6.63l5.61-.714q.238,3.128.68,6.392a77.832,77.832,0,0,0,7.82-1.972L60.928-18.5q-3.332.884-8.262,1.87l.2,1.224.34,2.482q6.46-1.122,10.506-1.7Zm34.136-6.8L96.764-11.39A28.584,28.584,0,0,0,86.5-13.668l1.5-4.76q-2.924,1.054-5.27,1.768a174.958,174.958,0,0,1-6.46,18.5l-5.61-1.8A100.214,100.214,0,0,0,76.806-14.96q-.34.1-5,1.36l-1.394-5.168q3.6-.68,7.99-1.938,1.088-4.488,1.53-7.14l5.576,1.054q-.374,1.36-1.122,4.148,2.04-.748,3.672-1.53l1.258,5.27-.748.272A26.515,26.515,0,0,1,98.872-16.456Zm.51,17.1a33.266,33.266,0,0,1-6.188.578q-4.726,0-7.106-1.326a5.247,5.247,0,0,1-2.72-5,6.805,6.805,0,0,1,.238-1.7l5.1-1.5A5.667,5.667,0,0,0,88.5-7a2.383,2.383,0,0,0,1.054,2.21,6.684,6.684,0,0,0,3.264.578,29.111,29.111,0,0,0,6.018-.748Zm32.47-2.38L127.908,2.38a24.721,24.721,0,0,0-5.134-4.454q-1.428,4.42-7.65,4.42A10.619,10.619,0,0,1,109.48.986,4.756,4.756,0,0,1,107-3.264,4.745,4.745,0,0,1,109-7.208q2.278-1.734,6.562-1.7a19.324,19.324,0,0,1,2.652.17v-2.346h-1.666a9.748,9.748,0,0,1-4.777-1,3.048,3.048,0,0,1-1.785-2.737,5.576,5.576,0,0,1,.748-2.516q-1.666.442-3.5,1.088l-1.428-4.59a96.118,96.118,0,0,1,12.1-2.686q-.1-2.584-.2-4.692l5.644.238q-.1,1.5-.17,3.774,3.3-.374,6.664-.714l.986,4.828q-3.6.1-7.718.544v3.4a30.606,30.606,0,0,0,6.834-2.244l1.87,4.522a40.217,40.217,0,0,1-8.7,2.346q0,1.462.034,4.046A27.235,27.235,0,0,1,131.852-1.734Zm-13.736-13.7-.068-3.434a71.351,71.351,0,0,0-7.276,1.53l4.352.34a1.678,1.678,0,0,0-.408.782q0,.85,1.666.85Q117.2-15.368,118.116-15.436Zm.1,11.016a10.255,10.255,0,0,0-3.128-.51q-3.162,0-3.162,1.394,0,1.428,2.958,1.428Q118.048-2.108,118.218-4.42Zm50.558-15.844-3.332,4.148a10.791,10.791,0,0,0-3.111-2.907,15.276,15.276,0,0,0-4.267-1.989l2.652-4.318A14.754,14.754,0,0,1,168.776-20.264ZM166.736-8.67a10.209,10.209,0,0,1-2.482,6.936A7.727,7.727,0,0,1,158.2,1.122a5.615,5.615,0,0,1-5.066-2.584l1.972-4.93a4.12,4.12,0,0,0,1.173,1.7,2.4,2.4,0,0,0,1.547.646,3.21,3.21,0,0,0,2.346-1.224A4.052,4.052,0,0,0,161.3-8.092q0-3.3-3.094-3.3a16.1,16.1,0,0,0-6.29,1.836q0,6.868.17,10.336l-5,1.8a46.475,46.475,0,0,0-5-4.488q-.408.476-1.19,1.462L137.9-5.066a76.979,76.979,0,0,1,9.112-6.664v-5h-.442a15.245,15.245,0,0,1-6.392-1.428L141.3-23.63a9.58,9.58,0,0,0,5.508,1.734h.2q-.034-4.454-.1-6.154l5.542.374q-.2,1.5-.34,4.76a16.241,16.241,0,0,0,3.536-2.006l.918,5.2a16.782,16.782,0,0,1-4.624,2.244q0,.748-.034,3.2a19.156,19.156,0,0,1,7.412-2.006,7.086,7.086,0,0,1,5.44,2.108A7.737,7.737,0,0,1,166.736-8.67ZM147.05-2.278V-6.63a27.748,27.748,0,0,0-2.924,2.448Zm55.93-8.5h-5.916V-2.55q0,3.026-1.122,3.978-.952.85-3.876.85h-2.652l-1.292-4.93h2.618a1.379,1.379,0,0,0,1-.272A1.653,1.653,0,0,0,192-4.012v-6.766h-5.78v-4.828H192V-18.5h.816a44.377,44.377,0,0,0,2.992-3.978h-8.33v-4.658h14.212v4.59q-1.734,2.482-4.624,5.95v.986h5.916Zm-23.494.986a24.448,24.448,0,0,0,2.244-8.7h-2.176q-.986,3.638-2.21,7.072Q178.024-10.914,179.486-9.792Zm6.766-9.248a29.861,29.861,0,0,1-.782,5.916,24.8,24.8,0,0,1-2.244,6.358q1.7,1.428,3.638,3.2l-2.482,4.76Q182.308-.85,180.4-2.584a42.829,42.829,0,0,1-5.678,5.44l-4.08-3.5a33.185,33.185,0,0,0,6.086-5.134q-2.72-2.312-4.93-3.91,1.938-5.236,2.89-8.806H171.36v-4.692h4.522q.442-2.006.952-5.168l5.1.544q-.306,1.836-.952,4.624h5.27Zm50.864,9.656-2.21,5.168a39.564,39.564,0,0,0-4.386-2.89,20.825,20.825,0,0,1-9.35,9.928L217.056-.884A16.6,16.6,0,0,0,225.9-9.35a33.331,33.331,0,0,0-5.916-1.768,50.218,50.218,0,0,1-3.3,6.46q-2.21,3.4-5.61,3.4a4.849,4.849,0,0,1-3.74-1.751,6.132,6.132,0,0,1-1.564-4.233q0-5.1,4.862-7.616a13.93,13.93,0,0,1,6.222-1.394q.136-.306,2.516-6.052-.85.17-7.208,1.156l-1.088-5a55.073,55.073,0,0,0,11.458-1.53l3.536,2.584q-1.292,2.516-4.114,9.316a40.483,40.483,0,0,1,5.474,1.462A30.567,30.567,0,0,0,227.9-18.7l5.236.714a38.77,38.77,0,0,1-.85,5.644A40.4,40.4,0,0,1,237.116-9.384Zm-22.27-2.278a5.84,5.84,0,0,0-3.128,1.02,3.313,3.313,0,0,0-1.5,2.788q0,1.394,1.088,1.394.714,0,1.632-1.428A35.946,35.946,0,0,0,214.846-11.662Zm48.178-.952v-1.8h-5.78v1.8Zm-13.158-4.862q-.782.816-1.564,1.564v.884a33.974,33.974,0,0,1-.272,4.284A34.531,34.531,0,0,0,251.8-5.2l-2.176,3.6a9.8,9.8,0,0,0,4.862-6.7h-4.114v-4.318h2.278v-1.8h-2.788Zm1.938-2.176-.748.884h1.6V-20.74H256.8v1.972h1.122V-21.59h-6.6v-4.352h6.256v-2.312h5.1v2.312h6.732v4.352h-7.072v2.822h1.19V-20.74h4.182v1.972h3.094v4.352h-3.2v1.8h2.754V-8.3h-5.78v5.27a.932.932,0,0,0,.085.527.672.672,0,0,0,.425.085h.34a.731.731,0,0,0,.8-.527,19.319,19.319,0,0,0,.153-3.349l4.182,1.19q0,4.658-.646,5.95-.714,1.394-3.366,1.394h-3.57a5.15,5.15,0,0,1-2.652-.442q-.748-.578-.748-2.584V-8.3h-3.4l2.822,1.088a16.03,16.03,0,0,1-2.244,5.746,13.905,13.905,0,0,1-4.862,4.284l-3.876-3.6,1.02-.51q-1.6-2.142-2.414-3.5a27.651,27.651,0,0,1-4.386,7.888L238.612-.68a22.38,22.38,0,0,0,4.08-7.582,29.621,29.621,0,0,0,.986-8.228V-28.118H248.3v6.426q.884-1.054,1.8-2.278Zm-8.432-2.55a74.659,74.659,0,0,1-1.428,10.03l-3.638-1.8a56.22,56.22,0,0,0,1.6-9.35Z" transform="translate(120 13270)" fill="#323232"/><g transform="translate(407.119 13240.389)"><circle cx="16" cy="16" r="16" transform="translate(-0.12 0.112)" fill="#992113"/><g transform="translate(12.561 9.111)"><path d="M1.638,14.658,0,13.02,5.691,7.329,0,1.638,1.638,0,8.967,7.329Z" fill="#fff"/></g></g></g></svg>