<svg xmlns="http://www.w3.org/2000/svg" width="630" height="118" viewBox="0 0 630 118"><g transform="translate(-689 -26)"><rect width="630" height="118" transform="translate(689 26)" fill="#c7af3e"/><path d="M56,0V56H0" transform="translate(1263 88)" fill="#aa9638"/><path d="M56,0V56H0" transform="translate(745 82) rotate(180)" fill="#aa9638"/><path d="M-177.4-7.752q0,4.624-2.992,6.9a11.512,11.512,0,0,1-7.242,2.04A11.392,11.392,0,0,1-194.9-.918Q-197.9-3.264-197.9-7.854v-4.794h5.746V-8.3q0,4.454,4.522,4.454,4.454,0,4.454-4.318V-26.622h5.78Zm32.844-16.354a68.223,68.223,0,0,1-5.1,12.954,54.1,54.1,0,0,1-9.282,12.988l-5.1-2.924a44.623,44.623,0,0,0,9.35-12.274,53.331,53.331,0,0,0,4.624-12.818Zm-15.81,8.33-5.1,2.516a42.614,42.614,0,0,0-2.482-4.913,28.1,28.1,0,0,0-2.856-4.2l4.964-2.618A34.436,34.436,0,0,1-160.361-15.776Zm50.728,4.454q-1.972-.1-4.692-.1a199.5,199.5,0,0,0-22.542,1.156l-.34-5.61q4.93-.442,11.492-.748,9.622-.442,16.048-.34ZM-75.4-5.27-79.1-.952a55.779,55.779,0,0,0-9.35-8.466A64.672,64.672,0,0,1-99.5.136l-4.046-3.74a57.618,57.618,0,0,0,10.234-8.024,37.152,37.152,0,0,0,6.154-7.786q-4.182.408-12.546,1.292l-.34-5.2q2.38-.1,9.01-.646,5.61-.442,8.67-.85l3.434,2.686a81.608,81.608,0,0,1-6.12,8.772A78.318,78.318,0,0,1-75.4-5.27Zm34.612,2.72q0,2.992-.782,3.876-.816.986-3.6.986H-48.3l-1.088-4.488h2.074a2.453,2.453,0,0,0,.986-.136q.442-.238.442-1.292V-15.368h-8.7V-27.54h13.8Zm-5.066-20.2V-23.9H-50.1v1.156Zm0,4.08V-19.89H-50.1v1.224Zm-10.506,3.3h-8.636V2.346h-5.066V-27.54h13.7Zm-4.522-7.378V-23.9h-4.114v1.156Zm0,4.08V-19.89h-4.114v1.224Zm4.488,8.228V-8.7h2.04v-1.734Zm-.17,5.678a11.851,11.851,0,0,1-3.264,6.8L-64.447-.51a8.047,8.047,0,0,0,3.128-4.25h-2.652V-8.7h2.89v-1.734h-2.312v-3.808h15.946v3.808h-2.21V-8.7H-46.9V-4.76h-2.754V1.6h-4.692V-4.76Zm35.19-17.782a25.368,25.368,0,0,1-4.012,4.556h8.3A27.622,27.622,0,0,1-21.369-22.542Zm-1.394,8.806v2.516h2.618v-2.516Zm-.1,7Q-23.783.85-33.609,2.992L-37.247-1.53a24.262,24.262,0,0,0,6.086-1.836,5.729,5.729,0,0,0,3.026-3.366h-8.024V-11.22h8.3v-2.516h-1.6v-1.122a44.228,44.228,0,0,1-5.3,2.924l-2.89-4.148a32.436,32.436,0,0,0,5-2.244q-2.278-1.7-4.454-3.06l3.6-2.924q2.618,1.666,4.794,3.3a18.779,18.779,0,0,0,2.482-2.55h-5.95v-4.182h12.852a22.018,22.018,0,0,0,1.564,2.278,27.458,27.458,0,0,0,3.264-3.2l3.842,2.244a41.4,41.4,0,0,1-4.25,4.114q.816.748,1.36,1.224a29.254,29.254,0,0,0,3.978-3.774l3.944,2.244A37.967,37.967,0,0,1-9.843-18.5a38.161,38.161,0,0,0,4.794,2.448l-3.06,4.182a51.035,51.035,0,0,1-5.2-3.2v1.326h-1.7v2.516h8.33v4.488h-8.33v3.366a1.589,1.589,0,0,0,.119.816q.119.136.765.136h1.394A1.486,1.486,0,0,0-11.1-3.672q.034-.2.034-2.38l4.726,1.326q0,4.76-1,5.933T-12.019,2.38h-4.794A4.3,4.3,0,0,1-19.482,1.8a3.157,3.157,0,0,1-.663-2.38V-6.732Zm50.15-5.44q-5.134-.136-11.186.238a20.063,20.063,0,0,1-2.176,7.956A21.24,21.24,0,0,1,7.769,2.686L2.907-.51A20.77,20.77,0,0,0,8.415-5.236a12.432,12.432,0,0,0,2.414-6.29A109.159,109.159,0,0,0-1.479-9.69l-.374-5.134q5.712-.816,12.716-1.53-.034-1.53-.1-3.672-3.774.952-7.174,1.5L1.275-23.052a77.472,77.472,0,0,0,9.52-2.006,54.918,54.918,0,0,0,8.3-2.958l2.55,4.624q-3.162,1.156-5.474,1.87.068,2.72.068,4.692,5.984-.442,10.948-.442Zm33.082.85q-1.972-.1-4.692-.1a199.5,199.5,0,0,0-22.542,1.156l-.34-5.61q4.93-.442,11.492-.748,9.622-.442,16.048-.34Zm35.5,8.7-5,2.788q-.884-1.836-2.006-3.944-3.774.884-10.2,2.21-4.148.85-10.948,2.04L66.283-4.9q2.04-.2,4.012-.476,2.312-6.664,3.638-10.948,2.108-6.8,2.89-9.894L82.5-24.752l-3.128,8.976q-1.394,3.876-3.5,9.554l.782-.136q4.59-.748,9.656-1.8a41.993,41.993,0,0,0-3.2-4.522l4.59-2.482A58.208,58.208,0,0,1,95.863-2.618Zm32.13-21.862-2.448,1.428a19.387,19.387,0,0,0-2.992-4.114l2.312-1.36A17.839,17.839,0,0,1,127.993-24.48ZM124.219-22.3l-2.482,1.36a19.372,19.372,0,0,0-2.788-4.216l2.278-1.258A20.748,20.748,0,0,1,124.219-22.3Zm6.936,11.968-4.828,2.448A28.558,28.558,0,0,0,120.309-18.7l4.454-2.516A30.4,30.4,0,0,1,131.155-10.336ZM120-13.26a44.888,44.888,0,0,1-.544,6.2A31.64,31.64,0,0,1,118.3-1.564a6.8,6.8,0,0,1-1.734,2.907,4.22,4.22,0,0,1-2.72.867,11.7,11.7,0,0,1-4.93-1.258l.034-5.338a7.24,7.24,0,0,0,3.06,1.054,1.586,1.586,0,0,0,1.53-1.258,26.652,26.652,0,0,0,.918-4.114,28.459,28.459,0,0,0,.34-3.842,3.382,3.382,0,0,0-.425-2.074q-.425-.476-2.057-.476h-.578A120.659,120.659,0,0,1,104.4,2.21L99.331.068a76.838,76.838,0,0,0,6.97-14.314,40.631,40.631,0,0,0-5.508,1.5l-1.36-4.9q4.25-1.054,8.5-1.768,1.02-3.774,1.7-7.718l5.44.816q-.544,1.972-1.768,6.29h.17q3.468-.034,4.93,1.394Q120-17.1,120-13.26Zm26.52-7.378h-13.26v-4.59h4.352v-2.89h5.2v2.89h3.706Zm-.714,5.1H134.215v-3.774h11.594Zm0,5.032H134.215v-3.74h11.594Zm.374,11.8h-7.446V2.584h-4.93v-11.7h12.376ZM141.7-2.992V-5.168H138.7v2.176Zm13.5-14.416-.51,2.312h3.026v-2.312Zm1.224-5.746-.408,1.836h6.358V-15.1h2.142v4.352h-18.02V-15.1h3.332l.51-2.312h-2.584v-3.91h3.4l.408-1.836h-4.488V-27.4h16.626v4.25Zm6.766,25.5h-4.9V.918h-5.678V2.346h-4.9v-11.8h15.47Zm-4.9-5.508V-5.508h-5.678v2.346Zm37.434-3.6a8.192,8.192,0,0,1-3.434,7,13.666,13.666,0,0,1-8.262,2.312,10.9,10.9,0,0,1-5.406-1.224,4.411,4.411,0,0,1-2.448-3.978,4.429,4.429,0,0,1,1.717-3.6,6.708,6.708,0,0,1,4.369-1.394,6.674,6.674,0,0,1,4.08,1.207,5.383,5.383,0,0,1,2.074,3.417,4.3,4.3,0,0,0,1.836-3.57,3.532,3.532,0,0,0-1.19-2.72,5.9,5.9,0,0,0-4.08-1.258,12.063,12.063,0,0,0-5.644,1.36A22.248,22.248,0,0,0,172.6-3.026l-3.944-3.638q7.038-7.446,14.348-15.912-3.128.476-8.772,1.428l-.85-5.2q2.856-.136,7.395-.7t6.953-1.071l3.332,3.842q-5.44,5.848-9.35,10.2a12.723,12.723,0,0,1,4.93-1.02,9.321,9.321,0,0,1,6.664,2.278A7.93,7.93,0,0,1,195.721-6.766ZM184.467-1.6a2.983,2.983,0,0,0-.85-1.9,2.38,2.38,0,0,0-1.7-.68q-1.36,0-1.36,1.088,0,1.53,3.128,1.53Q184.093-1.564,184.467-1.6ZM-127.024,24.854l-2.414,4.726a22.042,22.042,0,0,0-7.174,2.992l-2.652-2.754q1.292-.918,3.2-2.108a47.154,47.154,0,0,0-8.228-1.836l2.618-4.862A70.828,70.828,0,0,1-127.024,24.854Zm1.326,22.474a35.583,35.583,0,0,1-9.418,1.292,15.62,15.62,0,0,1-8.194-1.836,6.967,6.967,0,0,1-3.434-6.358,3.385,3.385,0,0,1,.1-.884l5-2.89a4.555,4.555,0,0,0-.17,1.224q0,3.332,2.584,4.522a11.726,11.726,0,0,0,4.556.68,23.852,23.852,0,0,0,8.262-1.564ZM-87.346,23.97-89.828,25.4a19.388,19.388,0,0,0-2.992-4.114l2.312-1.36A18.027,18.027,0,0,1-87.346,23.97Zm-3.774,2.176-2.482,1.36A19.371,19.371,0,0,0-96.39,23.29l2.278-1.258A20.748,20.748,0,0,1-91.12,26.146Zm2.652,5.338-2.108,5.066a28.584,28.584,0,0,0-10.268-2.278l1.5-4.76q-2.924,1.054-5.27,1.768a174.956,174.956,0,0,1-6.46,18.5l-5.61-1.8a100.213,100.213,0,0,0,6.154-14.994q-.34.1-5,1.36l-1.394-5.168q3.6-.68,7.99-1.938,1.088-4.488,1.53-7.14l5.576,1.054q-.374,1.36-1.122,4.148,2.04-.748,3.672-1.53l1.258,5.27-.748.272A26.515,26.515,0,0,1-88.468,31.484Zm.51,17.1a33.266,33.266,0,0,1-6.188.578q-4.726,0-7.106-1.326a5.247,5.247,0,0,1-2.72-5,6.805,6.805,0,0,1,.238-1.7l5.1-1.5a5.667,5.667,0,0,0-.2,1.292,2.383,2.383,0,0,0,1.054,2.21,6.684,6.684,0,0,0,3.264.578,29.11,29.11,0,0,0,6.018-.748ZM-53.074,37.2q0,8.16-9.35,12.274L-66.2,45.322q7.514-3.06,7.514-8.024a3.283,3.283,0,0,0-.986-2.414,3.977,3.977,0,0,0-2.89-1.054q-3.366,0-7.208,3.162,0,3.2.034,7l.068,5.712h-5.27q.068-1.768.136-8.262A54.667,54.667,0,0,0-79.458,47.7l-3.4-4.182q5.542-6.766,8.16-10.506V30.532a41.889,41.889,0,0,0-5.3,2.55l-1.938-4.76q3.672-1.734,7.174-2.992-.068-3.366-.2-5.814l5.542.17q-.1,1.9-.136,3.978.544-.17,1.564-.442l.612,4.624-2.244.782-.068,2.72a14.8,14.8,0,0,1,7.922-2.618,8.429,8.429,0,0,1,6.46,2.618A8.28,8.28,0,0,1-53.074,37.2Zm29.308-4.522a20.845,20.845,0,0,1-1.87,9.146q-2.652,5.508-9.894,8.908l-4.352-4.114a36.211,36.211,0,0,0,5.406-3.06,12.055,12.055,0,0,0,3.5-3.842,13.258,13.258,0,0,0,1.462-6.426,12.529,12.529,0,0,0-.476-3.638q-.612-2.142-1.938-2.142-2.21,0-3.91,3.876A16.506,16.506,0,0,0-37.3,37.91v.612l-5.032.952a53.559,53.559,0,0,1-.748-9.962,65.018,65.018,0,0,1,.986-10.472l5.542.714a36.859,36.859,0,0,0-1.258,5.984q-.068.884-.2,2.346a11.307,11.307,0,0,1,2.924-4.148A6.635,6.635,0,0,1-30.6,22a5.756,5.756,0,0,1,5.1,3.162A14.688,14.688,0,0,1-23.766,32.674ZM13.906,21.76a3.367,3.367,0,0,1-3.4,3.4,3.357,3.357,0,0,1-2.414-.986,3.346,3.346,0,0,1,0-4.811,3.328,3.328,0,0,1,2.414-1,3.367,3.367,0,0,1,3.4,3.4ZM15.2,41.14l-4.114,4.08A29.943,29.943,0,0,0,4.9,38.352l3.74-4.08A43.016,43.016,0,0,1,15.2,41.14ZM12.92,31.348q-4.93-.136-10.4.17V45.7q0,2.414-1.326,3.264a8.043,8.043,0,0,1-3.944.68q-.442,0-1.428-.034-1.088-.034-1.258-.034L-7.14,44.4q1.564.136,2.414.136,1.5,0,1.768-.748a23.837,23.837,0,0,0,.17-4.046q0-5.168-.034-7.854-5.338.51-10.3,1.36l-.646-5.168q6.222-.68,10.846-1.054-.068-3.808-.17-6.46H2.652q-.068,1.632-.1,6.018,5.134-.374,10.064-.51ZM-5.746,37.706a35.175,35.175,0,0,1-5.1,8.432l-4.114-3.332a29.642,29.642,0,0,0,5.1-8.024ZM12.206,21.76a1.7,1.7,0,0,0-.493-1.224,1.614,1.614,0,0,0-1.207-.51,1.734,1.734,0,0,0,0,3.468A1.642,1.642,0,0,0,11.713,23,1.683,1.683,0,0,0,12.206,21.76Zm31.688.272q-2.55,3.332-5.3,6.46,0,14.008.1,21.318H33.014q.136-4.216.306-15.708a98.828,98.828,0,0,1-7.786,7.038l-4.658-3.06a94.928,94.928,0,0,0,10.642-9.554,71.836,71.836,0,0,0,7.514-9.18Zm22.338,5.95-3.91,4.012a38.111,38.111,0,0,0-6.9-6.12l3.672-3.944A30.812,30.812,0,0,1,66.232,27.982Zm15.946,4.352a111.359,111.359,0,0,1-10.115,8.908A121.674,121.674,0,0,1,61,48.994L57.29,44.54a89.743,89.743,0,0,0,11.73-7.786A88.4,88.4,0,0,0,79.356,27.3Zm31.314,2.584-3.57,4.352a55.631,55.631,0,0,0-8.942-6.154l.034.034q0-1.19.1,16.524H95.4q.272-11.118.272-18.972,0-6.732-.1-10.88h5.78q-.136,4.25-.34,12.206l2.788-3.366A60.787,60.787,0,0,1,113.492,34.918Zm32.062-11.934-10.3,19.482L130.73,40.29l9.078-20.162ZM134.946,44.846l-2.38,4.76-5.814-2.924,2.38-4.726Z" transform="translate(1004 74)" fill="#fff"/></g></svg>