<svg xmlns="http://www.w3.org/2000/svg" width="464.36" height="90.561" viewBox="0 0 464.36 90.561"><g transform="translate(8790.04 -10478.72)"><path d="M26.08-9.12q0,5.44-3.52,8.12-3.08,2.4-8.52,2.4T5.48-1.08Q1.96-3.84,1.96-9.24v-5.64H8.72v5.12q0,5.24,5.32,5.24,5.24,0,5.24-5.08V-31.32h6.8ZM64.72-28.36a80.263,80.263,0,0,1-6,15.24A63.644,63.644,0,0,1,47.8,2.16l-6-3.44a52.5,52.5,0,0,0,11-14.44A62.742,62.742,0,0,0,58.24-30.8Zm-18.6,9.8-6,2.96a50.134,50.134,0,0,0-2.92-5.78,33.059,33.059,0,0,0-3.36-4.94l5.84-3.08A40.512,40.512,0,0,1,46.12-18.56Zm59.68,5.24q-2.32-.12-5.52-.12a234.708,234.708,0,0,0-26.52,1.36l-.4-6.6q5.8-.52,13.52-.88,11.32-.52,18.88-.4ZM146.08-6.2l-4.36,5.08a65.622,65.622,0,0,0-11-9.96,76.085,76.085,0,0,1-13,11.24l-4.76-4.4A67.786,67.786,0,0,0,125-13.68a43.708,43.708,0,0,0,7.24-9.16q-4.92.48-14.76,1.52l-.4-6.12q2.8-.12,10.6-.76,6.6-.52,10.2-1l4.04,3.16a96.007,96.007,0,0,1-7.2,10.32A92.138,92.138,0,0,1,146.08-6.2Zm37.96-20.92-.84,6.28a22.043,22.043,0,0,1-2.6.12,34.883,34.883,0,0,1-6.36-.6,18.391,18.391,0,0,1-5.2-1.64l2.68-5.72Q175.2-27,181.52-27,182.68-27,184.04-27.12Zm2.36,21L184.16.6q-7-.12-10.68-2.04a11.2,11.2,0,0,1-5.64-7.76l5.36-4.08a10.455,10.455,0,0,0,1.96,4.36,7.532,7.532,0,0,0,4.68,2.44A42.112,42.112,0,0,0,186.4-6.12Zm-20.52-6.04a25.191,25.191,0,0,0-2.52,6,19.768,19.768,0,0,0-.92,6.44l-6.08,1.56a66.5,66.5,0,0,1-1.72-15.48,58.072,58.072,0,0,1,2.96-17.64l6.28,1.84a46.945,46.945,0,0,0-2.4,8.08,45.383,45.383,0,0,0-1.04,8.32,20.826,20.826,0,0,0,.12,3.12,51.336,51.336,0,0,1,2.76-5Zm61,14.92h-5.8V.52h-6.36V2.76h-5.76V-32h17.92Zm-5.8-25.36v-3.6h-6.36v3.6Zm0,8.52v-3.36h-6.36v3.36Zm0,8.84V-8.92h-6.36v3.68Zm-24.2-5.4a67.639,67.639,0,0,1-4,6.16l-2.44-6.16a64.057,64.057,0,0,0,6.44-10.2v-.6h-5.44v-5.48h5.44v-6.04h5.72v6.04h4.92v5.48H202.6v1.08a50.644,50.644,0,0,0,5.36,6.88L205.64-8q-1.6-1.88-3.04-3.96V2.84h-5.72ZM241.84,2.84h-5.88V-33.12h5.88v4.48l2.2-1.16q1.08,2.52,2.2,5.92a62.551,62.551,0,0,0,1.36-7.76l5.08,1q-.36,2.36-.68,4.08h2.08v-6.32h5.6v6.32h7.92v5.52h-7.92v5.72h6.64v5.4h-6.64v6.48h8.36V2.12h-23.8V-3.44h9.56V-9.92h-7.36v-5.4h7.36v-5.72h-3a44.01,44.01,0,0,1-1.32,4.32l-5-1.72q.36-.92.8-2.2l-2.04,1.2q-.72-2.88-1.4-5Zm-6-29.04a92.758,92.758,0,0,1-1.92,12.28l-4.2-2.32a84.532,84.532,0,0,0,2-11.36ZM307-28.52l-2.88,1.68a22.809,22.809,0,0,0-3.52-4.84l2.72-1.6A20.987,20.987,0,0,1,307-28.52Zm-4.44,2.56-2.92,1.56a22.556,22.556,0,0,0-3.28-4.92l2.68-1.48A24.411,24.411,0,0,1,302.56-25.96ZM308.4-8.92l-5.76,4.28a68.03,68.03,0,0,0-11.96-16.32l5.56-3.92A79.682,79.682,0,0,1,308.4-8.92ZM288.12-20.76A68.176,68.176,0,0,1,276-2.72l-5.56-4A54.717,54.717,0,0,0,282-23.92Zm44.52,4.84-5.08,1.72a34.59,34.59,0,0,0-3.28-8.08l5.04-2A31.974,31.974,0,0,1,332.64-15.92Zm10.52-5.56A65.236,65.236,0,0,1,337.8-8.6a53.86,53.86,0,0,1-8.44,11.48L323.68.36a48.738,48.738,0,0,0,8.96-11.28,47.2,47.2,0,0,0,4.8-12.24ZM324.84-13.2l-5.04,2.12a29.513,29.513,0,0,0-3.8-7.84l4.72-2.24A31.6,31.6,0,0,1,324.84-13.2Zm62.04-1.12q-6.04-.16-13.16.28a23.6,23.6,0,0,1-2.56,9.36,24.989,24.989,0,0,1-7.24,7.84L358.2-.6a24.436,24.436,0,0,0,6.48-5.56,14.626,14.626,0,0,0,2.84-7.4,128.422,128.422,0,0,0-14.48,2.16l-.44-6.04q6.72-.96,14.96-1.8-.04-1.8-.12-4.32Q363-22.44,359-21.8l-2.72-5.32a91.142,91.142,0,0,0,11.2-2.36,64.609,64.609,0,0,0,9.76-3.48l3,5.44q-3.72,1.36-6.44,2.2.08,3.2.08,5.52,7.04-.52,12.88-.52Zm33.64-6.12A30.223,30.223,0,0,1,409.8,3.16L403.96-.32a31.99,31.99,0,0,0,7.6-8.88,24.8,24.8,0,0,0,2.4-11.48q0-4.88-.28-11.8h6.84Zm-14.76-9.68q-.28,5.4-.28,10.32,0,4.56.16,8.04l-6.28.88q-.32-4.16-.32-12.36,0-4.84.08-7.08Z" transform="translate(-8792 10512)" fill="#c7af3e"/><path d="M230.32-15.64a15.959,15.959,0,0,1-4.52,11.6,23,23,0,0,1-11.4,6l-3.76-5.84a20.23,20.23,0,0,0,8.88-3.68,10.009,10.009,0,0,0,4.08-8.24,7.842,7.842,0,0,0-2.62-6.24,9.778,9.778,0,0,0-6.66-2.28,12.027,12.027,0,0,0-1.32.08l4.72,3.28a87.5,87.5,0,0,1-3.68,8.44,38,38,0,0,1-4.56,7.56,7.305,7.305,0,0,1-5.72,2.8,6.579,6.579,0,0,1-4.96-2.6,11.459,11.459,0,0,1-2.6-7.72,16.242,16.242,0,0,1,5.76-12.92,19.181,19.181,0,0,1,13-4.64q6.76,0,10.96,3.72Q230.32-22.4,230.32-15.64Zm-18.16-8.48a12.183,12.183,0,0,0-6.96,3.8,10.7,10.7,0,0,0-2.92,7.44,5.012,5.012,0,0,0,.64,2.6q.56.92,1.2.92,1.32,0,3.32-3.88A82.926,82.926,0,0,0,212.16-24.12ZM-104.16,40.84a99.283,99.283,0,0,1-11.12,8.44,123.991,123.991,0,0,1-12.76,7.36l-3.96-3.6q.08-2.4.08-16.52,0-6.88-.12-9.48h6.52q-.08,3.68-.16,15.04v6.08A80.442,80.442,0,0,0-106.6,34.28Zm26.68-9.88-4.56,4.12a28.508,28.508,0,0,0-6.64-6.2l4.28-4.48A30.762,30.762,0,0,1-77.48,30.96Zm14.76,8.52A116.4,116.4,0,0,1-74.2,49.2q-6.44,4.8-13.52,9.08l-4.2-5.4A106.416,106.416,0,0,0-65.8,33.96Zm-22.52-.68-4.44,4.32a41.433,41.433,0,0,0-6.6-5.72l4.16-4.44A28.662,28.662,0,0,1-85.24,38.8Zm63.12-12.08a4.233,4.233,0,0,1-1.26,3.08,4.133,4.133,0,0,1-3.06,1.28,4.153,4.153,0,0,1-3.04-1.28,4.2,4.2,0,0,1-1.28-3.08,4.088,4.088,0,0,1,1.28-3.02,4.186,4.186,0,0,1,3.04-1.26,4.166,4.166,0,0,1,3.06,1.26A4.12,4.12,0,0,1-22.12,26.72ZM-26,55.96a146.656,146.656,0,0,1-15.8.88q-4.92,0-7-1-2.96-1.44-2.96-5.6l-.04-23.96h6.4q-.08,2.12-.2,10.96a74.02,74.02,0,0,0,13-8l4.36,4.84a111.817,111.817,0,0,1-17.44,9.48V47.6a3.373,3.373,0,0,0,.78,2.62,4.734,4.734,0,0,0,2.94.66q2.64,0,7.56-.4,5.16-.4,8.04-.88Zm1.72-29.24a2.043,2.043,0,0,0-.62-1.5,2.091,2.091,0,0,0-1.54-.62,2.043,2.043,0,0,0-1.5.62,2.043,2.043,0,0,0-.62,1.5,2.158,2.158,0,0,0,.62,1.56,2.012,2.012,0,0,0,1.5.64,2.057,2.057,0,0,0,1.54-.64A2.158,2.158,0,0,0-24.28,26.72ZM13.56,43.08l-4.52,5.2A49.738,49.738,0,0,0,3.12,43.8,68.078,68.078,0,0,1-11.32,58.16l-5.52-4.08A60.58,60.58,0,0,0-2.16,40.56q-3.92-2.2-7.12-3.64L-5.2,32q3.2,1.36,6.72,3.28A57.5,57.5,0,0,0,6.76,24.6l6.32,2.6a98.237,98.237,0,0,1-6.2,11.2A63.981,63.981,0,0,1,13.56,43.08Zm37.44-8q-3.88.52-10.72,1.04-5.84.44-11.4.64l-.36-6.32q3.68,0,10.64-.48,6.12-.44,11.4-1.28Zm6.52,16.56q-1.68-.04-4.48-.04a239.106,239.106,0,0,0-29.92,1.84l-.44-6.4q18.04-1.68,34.48-2Zm37.52,1.68q-1-.04-1.28-.04-6.88,0-14.16.44-8.12.48-13.8,1.16l-.4-5.44q4.64-.36,14-1.04l1.76-.08q.92-5.56,1.16-7.6-4.32.44-11.44,1.16l-.4-5.44q2.32-.04,8.64-.64,5.24-.48,7-.76L88.92,37q-.48,2.04-2.04,11,5.36-.28,7.96-.36Zm41.2-10.64q-2.32-.12-5.52-.12a234.708,234.708,0,0,0-26.52,1.36l-.4-6.6q5.8-.52,13.52-.88,11.32-.52,18.88-.4Z" transform="translate(-8556 10511)" fill="#fff"/></g></svg>