<svg xmlns="http://www.w3.org/2000/svg" width="440.892" height="66" viewBox="0 0 440.892 66"><g transform="translate(-120 -8653)"><path d="M21.318-11.39A19.714,19.714,0,0,0,23.9-7.922a16.1,16.1,0,0,0,1.8-2.924L23.868-9.758a11.39,11.39,0,0,0-1.8-2.72l2.618-1.428a12.284,12.284,0,0,1,1.462,2.04,17.28,17.28,0,0,0,.748-2.448H23.12Q22.168-12.614,21.318-11.39ZM16.048-8.7v6.766a26.584,26.584,0,0,0,4.76-2.924A22.268,22.268,0,0,1,18.7-7.99q-.442.51-1.258,1.428Zm0-5.882V-12a26.649,26.649,0,0,0,4.964-8.67H15.606l2.89.85A41.1,41.1,0,0,1,16.048-14.586ZM9.078-7.65A48.329,48.329,0,0,1,5.236,2.55L.714.374A42.347,42.347,0,0,0,5.066-10.37L8.4-8.432,7.106-9.962a31.678,31.678,0,0,0,6.732-10.71H9.52v-2.822L7.276-20.128a31.95,31.95,0,0,0-5.61-3.57l2.652-4.08a33.3,33.3,0,0,1,5.2,3.162v-.646h8.568v-2.924h5.066v2.924h9.214v4.59H22.44l3.2.646q-.306.986-.578,1.666h6.358v4.284a24.937,24.937,0,0,1-3.978,9.01,29.7,29.7,0,0,0,5.814,2.618l-2.618,4.9A25.13,25.13,0,0,1,24.242-1.36,23.381,23.381,0,0,1,18.7,2.516L16.048-.816v3.2H11.424v-10.1q-.68.816-1.224,1.394Zm.34-8.16L6.7-11.7a31.936,31.936,0,0,0-5.746-3.57l2.618-4.08A34.017,34.017,0,0,1,9.418-15.81Zm40.7,4.658a30.005,30.005,0,0,1-.629,6.715A4.014,4.014,0,0,1,47.566-1.7a9.9,9.9,0,0,1-3.808.51H41.82a4.274,4.274,0,0,1-2.941-.748q-.765-.748-.765-3.06V-15.1l-3.094.442v-4.9l3.094-.476v-7.82h5.032v7.072l5.2-.816v-5h17.51v15.64a55.015,55.015,0,0,1-.476,8.874Q64.872.544,63.41,1.292a11.316,11.316,0,0,1-4.352.544H56.916l-1.258-5.2H57.8a4.3,4.3,0,0,0,2.108-.34,3.067,3.067,0,0,0,.816-2.176q.136-1.36.136-5.712v-10H57.732a75.36,75.36,0,0,1-.816,12.92A28.477,28.477,0,0,1,52.224,2.38l-4.9-2.822a20.966,20.966,0,0,0,4.862-10.1,64.062,64.062,0,0,0,.68-11.05H50.218V-16.9l-7.072,1.054v9.01a.888.888,0,0,0,.1.544.888.888,0,0,0,.544.1h.816a1.055,1.055,0,0,0,1.1-1,44.958,44.958,0,0,0,.187-5.525ZM101.592-3.4Q97.308.034,93.738.034q-4.93,0-4.93-6.7,0-1.972.187-4.913t.187-3.315q0-1.564-.918-1.564-1.564,0-5.032,3.5-.034,3.6.034,14.994H77.928L78.2-7.038Q75.956-3.366,73.61.68L69.6-2.992q5.542-7.684,8.636-12.75l-.034-.952q-4.59.986-7.208,1.734L71.3-20.4q3.094-.578,6.8-1.224-.068-3.162-.068-6.494l5.576.238q-.136,2.448-.272,8.908,4.25-3.57,7.344-3.57a3.725,3.725,0,0,1,2.992,1.275,5.087,5.087,0,0,1,1.088,3.417q0,1.258-.255,4.777t-.255,4.335a7.831,7.831,0,0,0,.17,2.006.883.883,0,0,0,.884.782q1.8,0,5.134-3.23Zm31.96-9.894a13.565,13.565,0,0,1-3.842,9.86,19.552,19.552,0,0,1-9.69,5.1l-3.2-4.964a17.2,17.2,0,0,0,7.548-3.128,8.508,8.508,0,0,0,3.468-7,6.666,6.666,0,0,0-2.227-5.3,8.312,8.312,0,0,0-5.661-1.938,10.224,10.224,0,0,0-1.122.068l4.012,2.788a74.367,74.367,0,0,1-3.128,7.174,32.3,32.3,0,0,1-3.876,6.426,6.209,6.209,0,0,1-4.862,2.38,5.592,5.592,0,0,1-4.216-2.21,9.74,9.74,0,0,1-2.21-6.562,13.806,13.806,0,0,1,4.9-10.982,16.3,16.3,0,0,1,11.05-3.944,13.529,13.529,0,0,1,9.316,3.162A11.541,11.541,0,0,1,133.552-13.294ZM118.116-20.5a10.355,10.355,0,0,0-5.916,3.23,9.092,9.092,0,0,0-2.482,6.324,4.26,4.26,0,0,0,.544,2.21q.476.782,1.02.782,1.122,0,2.822-3.3A70.486,70.486,0,0,0,118.116-20.5Zm36.618,10.71a14.125,14.125,0,0,0,3.094,3.536,27.932,27.932,0,0,0,3.978-3.536ZM146.506-3.23a57.868,57.868,0,0,0,5.984-1.36,29.366,29.366,0,0,1-3.5-5.2h-2.482ZM153.646-.1a75.052,75.052,0,0,1-15.1,2.788l-1.326-4.794q1.7-.1,3.944-.374v-22.78h8.908v-2.856h5.61v2.856h9.656v15.47H164.05l3.026,1.734a34.547,34.547,0,0,1-5.032,4.284,36.157,36.157,0,0,0,7,2.142l-3.3,4.386q-7.922-1.87-12.1-6.052ZM160-19.244v-1.768h-13.5v1.768Zm0,5.406v-1.836h-13.5v1.836Zm42.874,3.57-5.3,2.38a22.948,22.948,0,0,0-2.72-6.086,18.99,18.99,0,0,0-3.91-4.59l4.522-3.026A20.019,20.019,0,0,1,202.878-10.268Zm-16.932-3.4A27.376,27.376,0,0,0,184.484-5.2q0,.816.068,1.564L179.894-1.02q-7.174-8.16-7.412-20.332l5.678-.2a30.361,30.361,0,0,0,.714,6.358,19.739,19.739,0,0,0,2.04,5.712,28.577,28.577,0,0,1,1.836-6.086ZM236.4-21.59h-6.188v10.88h-7.072V-28.628H236.4Zm-2.108-2.142V-26.52h-9.01v13.668h2.788v-10.88Zm30.838-.68a74.263,74.263,0,0,1-6.358,13.362,63.435,63.435,0,0,1-9.282,12.172l-5.406-2.754a56.321,56.321,0,0,0,9.826-12.1,60.082,60.082,0,0,0,5.644-12.716Zm40.12-.442-2.618.952a18.951,18.951,0,0,0-2.38-4.42l2.516-.952A16.429,16.429,0,0,1,305.252-24.854ZM301.24-23.29l-2.652.884a18.05,18.05,0,0,0-2.108-4.522l2.448-.85A20.114,20.114,0,0,1,301.24-23.29Zm1.19,18.36L298.724-.612a55.779,55.779,0,0,0-9.35-8.466A64.671,64.671,0,0,1,278.324.476l-4.046-3.74a57.618,57.618,0,0,0,10.234-8.024,37.152,37.152,0,0,0,6.154-7.786q-4.182.408-12.546,1.292l-.34-5.2q2.38-.1,9.01-.646,5.61-.442,8.67-.85l3.434,2.686a81.608,81.608,0,0,1-6.12,8.772A78.317,78.317,0,0,1,302.43-4.93Zm36.72-8.228a71.993,71.993,0,0,1-7.276,6.868A78.745,78.745,0,0,1,324.19-.646l-3.672-2.72q.1-4.658.136-10.472.068-6.528-.1-10.472l5.44.034q-.2,3.468-.2,8.4v7.684a42.757,42.757,0,0,0,5.44-4.488,51.434,51.434,0,0,0,5.406-5.882Zm-19.38-6.256q-.884,3.468-1.156,4.352a46.138,46.138,0,0,1-1.6,4.9,53.972,53.972,0,0,1-4.9,9.86L307.054-2.38a43.992,43.992,0,0,0,5.032-9.52,49.783,49.783,0,0,0,2.584-9.078Zm35.122,22.2H341.6V-4.25h6.222V-15.13h7.072ZM352.75.646V-13.022h-2.822V-2.108H343.74V.646Z" transform="translate(206 8699)" fill="#992113"/><g transform="translate(-214 3850.897)"><circle cx="33" cy="33" r="33" transform="translate(334 4802.104)" fill="#992113"/><path d="M19.152.7H2.436V-1.456A12.4,12.4,0,0,1,6.16-7.532q2.492-1.988,4.97-4.032t2.478-3.892a1.928,1.928,0,0,0-.742-1.6,3.233,3.233,0,0,0-2.058-.588,4.844,4.844,0,0,0-4.592,3.192l-4.34-1.54a8.725,8.725,0,0,1,3.486-4.354,10.481,10.481,0,0,1,5.754-1.526,8.13,8.13,0,0,1,5.516,1.708,5.719,5.719,0,0,1,1.96,4.536A7.294,7.294,0,0,1,16.716-10.7a28.632,28.632,0,0,1-4.172,3.444A20.193,20.193,0,0,0,8.372-3.5h10.78Z" transform="translate(357 4846.104)" fill="#fff"/></g></g></svg>