<?xml version="1.0" encoding="UTF-8"?><svg id="b" xmlns="http://www.w3.org/2000/svg" viewBox="0 0 45.56 45.56"><defs><style>.d{fill:#fff;}.e{fill:#ab0029;}</style></defs><g id="c"><g><path class="d" d="M22.78,45.56C10.22,45.56,0,35.34,0,22.78S10.22,0,22.78,0s22.78,10.22,22.78,22.78-10.22,22.78-22.78,22.78"/><path class="e" d="M1.08,22.78C1.08,10.8,10.8,1.09,22.78,1.09s21.69,9.71,21.69,21.7-9.71,21.7-21.69,21.7S1.08,34.76,1.08,22.78m21.61,20.76c11.5,0,20.81-9.32,20.81-20.81S34.19,1.92,22.69,1.92,1.88,11.24,1.88,22.73s9.32,20.81,20.81,20.81"/><path class="e" d="M2.98,22.8C2.98,11.85,11.86,2.97,22.81,2.97s19.83,8.88,19.83,19.83-8.88,19.84-19.83,19.84S2.98,33.76,2.98,22.8m19.75,18.98c10.51,0,19.03-8.52,19.03-19.03S33.24,3.73,22.73,3.73,3.7,12.25,3.7,22.75s8.52,19.03,19.03,19.03"/><path class="e" d="M10.39,17.41c-1.29,.14-1.92-.34-1.63-1.48,0,0,.29-2.3,.24-2.59-.05-.29,.57-1.63,.77-2.06,.19-.43,.67-.62,1.15-1.05,.48-.43,2.54-2.44,3.45-1.29,0,0,.77,.57,.96,.57,.58-.77,1.91-1.68,3.97-1.29,0,0,1.44-.57,3.5-.29,.29,.1,.72-.72,3.06,.24,.19,.1,3.64-2.83,5.98-.72,0,0,.34,.43,.67,.62,.34,.19,1.25,.81,1.73,2.06,.48,1.25,1.34,2.15,1.86,2.54,.53,.38,.82,1.72-.67,1.87,0,0-.57,.34-.67,.53,.33,0,.33-.05,.58,.24,.24,.29,.29,.53,.67-.1,.38-.62,.72-.53,1.15-.09,.43,.43,.53,.57,.86,.19,0,0,.1-.05,.53,.1l2.39-.29c5.36,14.6-4.98,27.76-18.95,27.52l-.05-.96c-2.49-1.63-1.24-5.17,.43-5.6-.58-.81-1.2-1.58-1.29-1.91-.09-.34-.33-.53-.72-.38-.38,.14-1.53-.14-1.96-.38-.43-.24-1.2-.62-2.01-.43-.81,.19-1.24,.38-2.11-.33,.1,.81-1.05,1.92-2.39,.53,0,0-.1-.14-.34-.19-.24-.05-.77-.48-.91-1,0,0-.24-.48-.43-.57-.19-.1-1.05-1.24-1.1-2.15,0,0-.1-.19-.24-.43-.15-.24-.29-1.63,.43-2.82,.19-.24,.43-.43,.05-1.05,0,0-.33-.77,.43-1.77,0,0,.38-.29,.33-1.01,0,0,.72-.81,.91-1.1-.38-.19-.58-.96-.38-1.63l-.72-.67s.43-.43,.48-.81v-.53Zm-.81-1.82s-.33,.91,.33,1c.67,.1,.96,.1,.91-.96l.29-2.06s-.19-.19,.72-1.1l.96-1.05c.38-.57,1.29-.53,.48,.29-.81,.81-2.2,2.78-1.87,4.12,.19,.48,.48,.81,0,1.15-.48,.34-.43,1.48-.38,1.63,.04,.14,.19,.1,.33,0,.14-.1,.96-.24,1.53,.38,0,0,.53,.53,.81,.48,.29-.05,0-.05,.29,.1,.29,.14,.48-.05,.48-.05l-.53-.77c-.24-.24-.1-.67,.33-.14,0,0,.1,.19,.33,.48,.24,.34,.82,.43,.43-.19,0,0-.33-.38-.38-.62-.05-.24,.24-.96,.48-.1,.38,.96,.81,1.05,1.44,.96,0,0,.24-.24,.81-.19,0,0,1.1-.67,1.24-1.39,.1-.48,.86-.33,.53,.05,0,0-.81,1.2-1.53,1.44-.72,.24,.09,.53,.38,.38,1.63,.05,2.34-.14,2.25-2.11,.86-1.1,1.1-.91,.77-.43,0,0-.29,.86,.43,.24,.72-.62,1.72-.67,1.87-.72,.14-.05,.52,0,.43,.24,0,0-.24,.14-.53,.14s-.77-.14-1.29,.38l-.33,.48h-.48s-.24,.19-.24,.48c-.19,.34-.38,.86,.29,.15,.81-.67,2.06-1.05,3.68-.19,.19,.19,.19,.48,.67,.05,.48-.43,.96-.48,.53-.05-.43,.43-.91,.77-.24,.91,.76,.34,.67,.48,.05,.29-.62-.19-.91,.29-.91,.29,0,0-1.05,1.05-2.78,.53,.62,.38,1.2,.67,1.96,.38,.43-.1,1,.05,.58,.29-.43,.24-1.29,.38-2.68-.43,.38,.82,1.87,1.29,2.54,.96,.43-.19,.62,.14,.29,.24-.33,.1-1.91,.38-3.4-1.1-1.48-1.48-.72,.53-.19,.67,0,0,1.15,1.05,2.39,1.2,1.25,.14,1.82,1.05,1.82,1.87,0,0,.53,.86-.1,.86,.38,.09,.48,.33,.77,.29,.29-.05,1.29,.77,1.05,1.72,0,0,.81,.72,.34,1.44-.48,.72-.62,.53-.29,1,0,0-.81-.38-1.24-.91-.43-.53-1.34-.72-1.34-.72-1.63-.81-.24-.57,.14-.33,.38,.24,.86,.53,1.2,.77,.38,.33,.81,.53,1.1-.14,.29-.67-.34-1.24-.34-1.24,.05-.19,.1-1.34-1.53-1.53,0,0-.43,0-.77-.14-.34-.14-.67-.48-.53,.24,.48,.58,1.43,1.96-.05,.48-.19-.43-.67-1.01-1.15-1.24-.48-.24-1.29-1.01-1.44-1.25-.14-.24-.72-.24-.72-.24,0,0-.33-.1-.53-.24-.19-.14-.58-.05-.81,.1-.24,.14-.58,.33-1.25-.05-.96-.24-2.54-.14-3.64,.86-.19,.19-.53,.57-.81,.05,0,0-.33-.48-1.29-.05,0,0-3.83,3.25-2.15,5.02,0,0-.05,.96,.57,1.58,.62,.62,1.15,.57,.86-1.72-.09-1.01-.05-1.68,1.15-2.2,1.2-.53,1.15-.77,1.15-1.01s.1-.62,.38,.05c0,0,.05,.58,1.05,.43,1,.19,3.59,.43,4.6,2.11,1.01,1.68,.48,1.44-.33,.81-.81-.62-4.83-1.58-6.75-.48-.58,.14-1.29,.86-.05,1.1,.86,.29,2.01,.86,2.15,1.91,0,0,.38,.77,.86,.77s.76-.09-.05-.72l-.57-.77s-.1-.43-.29-.62c-.19-.19-.19-.62,.24-.15,.43,.48,.67,1.29,1.05,1.48,.38,.19,.72,.53,1.44,.43,.72-.09,.81,.1,1.34,.53,.29,.29,1.2,.24,1.58,.1,.33,0,1.39,0,.29-1.58-.33-.53-.43-1.87,.24-.48,0,0,.72,1.01,.86,1.2,.14,.19,.43,1.58,2.01,1.44,1.77,.1,4.26,.05,4.93-2.06,0,0,.62-.96,1-1.05,.38-.1,1.44-.86,1.1-2.3-.19-.86,.09-1.87,.09-1.87,0,0,.43-1.01,.34,0-.1,1.01-.24,1.48-.05,1.87,.19,.38,.38,.86,.86-.29,.33-.53,.67-1.34,.33-2.92-.33-1.58,0-3.26,.19-1.68,0,0,.34,.57,.48-.72,.14-1.29-.19-4.26-.48-5.03-.19-.72,0-1.48,.29-.05,0,0,.24,1.15,.43,1.92,.19,.77,.86,3.25-.24,4.88,0,0,.53,.48,.67,1.1,0,0,.58,.62,.29-.14-.43-.57-.53-.96-.53-.96-.14-.38-.05-1.05,.33-.05,.53,.86,.86,.67,.43-.05,0,0-.1-.24-.38-.57-.29-.34-.33-.91,.24-.19,0,0,.19,.19,.38,.43,.19,.24,.58,.38,.1-.33l-.62-.72s-.57-1.01,.29-.19l.38,.38s.96,.67,.29-.29c0,0-.29-.38-.53-.57,0,0-.29-.14-.43-.53-.14-.38-.14-.34,.33,.05,0,0,.14,.19,.43,.33,.29,.14,.72-.14,.1-.62-.62-.48-.91-.86-.91-.86-.38-.38-.48-.62,.19-.14,.67,.48,1.34,.91,.81,.05-.53-.86-.86-1.2-.86-1.2-.72-.57-.67-1.1,.14-.19,.81,.91,1.05,.43,.38-.48-1.44-1.1-2.11-1.72,.1-.57,0,0,.38,0-.33-.67-.72-.67-1.15-.81-.14-.53,0,0,.86,.38-.19-.34-.57-.09-.76-.67-.86-.86-.1-.19-.14-.29,.24-.43,0,0,.38-.14,.53-.34,.14-.19,0-.14,.34-.14s.29-.19,.29-.19c0,0,.24,0,.38-.1,.14-.1,.57-.72-.09-1.15-.67-.43-1.44-1.43-1.53-1.96-.1-.53-.14-1.53-1.53-2.11-.72-.77-1.96-2.49-5.55,.43,0,0-.81,.33-1.39-.19-.57-.53-1.82-.1-1.91-.1,0,0-2.68-.14-3.49,.48,0,0-.38,.05-.62-.19-.24-.24-2.49,.14-2.82,.91,0,0-1.1,1.68-1.29,.67,0,0-.38-.67-.81-.72,0,0-.38-.81-1.53,.05,0,0-.86,1.01-1.24,1.15-.38,.14-1.29,1.15-1.39,2.44-.1,1.29-.24,1.96-.24,1.96m.81,9.43l1.53-1.44c-.38-.53,.24-1.48,.62-1.77,0,0,.14-.86,1.72-1.1,0,0,.57-.05,.81-.09,.24-.05,1.53-.14,1.96,.38,0,0,.29,.24,.48,.33,.19,.1,1.58,1.58,1.15,1.58,0,0,.19,.14,.48-.14,.29-.29,.67-.1,1.01-.05,.34,.05,1.48,.19,.14-.29,0,0-.34-.24-.91-.19,0,0-.43-.19-.81-.67-.38-.48,.15-.38,.29-.24,.15,.14-.05,.48,.81,.62,.86,.14,1.44,.05,2.06,1.15,.62,1.1,1.34,1.63,2.01,1.58,1.15,.43,1.77,.19,1.39-.53,0,0-.29-.34-.29-.62s0-.53-1.01-.77c0,0-.72-.38-1.1-.24,0,0-.29-.19-.43-.38-.14-.19-.53-.33-.86-.48-.33-.14-1.2-.91-1.53-1.29-.34-.38-2.11-.67-3.02-.72,0,0-1.39-.34-3.93,.81-.48,.19-.72,.57-.86,.91-.14,.34-.62,.96-.86,1.1-.24,.14-1.29,2.44-.86,2.54m.77-5.31s-.05,.77,.43,.14c0,0,.05-.14,.19-.29,.14-.14,0-.86-.43-.43,0,0-.14,.43-.19,.57m1.44-.1s-.05,.77,.29,.14c0,0-.29-.48-.29-.14m9.24-.57s.38,.96,.67-.05c.19-.34,.29-1.05-.38-.62,0,0-.34,.19-.29,.67m2.49-.72s.1,.91-.24,1.29c0,0,.38,.1,.91-.81,0,0-.24-.19-.67-.48m-5.84,9.62c.53,.24,.09-.43,.09-.43-.72-.53-.29,.19-.29,.19l.19,.24Zm-1.01-.05c.53,.19,.14-.67,.14-.67-.62-.62-.48,.14-.48,.14,.1,.38,.33,.53,.33,.53m-.96-.24s.67-.14,.05-.77c-.62-.62-.58,.29-.58,.29,.19,.48,.53,.48,.53,.48m-1.39-.05c.24,.24,.72-.05,.33-.77-.38-.72-.72-.14-.58,.24,.05,.29,.24,.53,.24,.53m-1.15,.05c.72,.48,.38-.72,.38-.72-.48-.81-.62,.1-.62,.1,.05,.43,.24,.62,.24,.62m-.62,.24c.43-.14-.09-.81-.09-.81-.58-.58-.62,.29-.62,.29,0,.57,.29,.67,.72,.53m-1.1,.38c.48,.09,.26-.05,.05-.48-.24-.48-.34,.24-.34,.24,.1,.33,.29,.24,.29,.24m1.53-5.84c-.14,.53-.19,.86-.19,.86,.48,.72,.24-.29,.38-1.05,.14-.77,.38-.14,.38-.14,.14-.38,1.05-.58,1.05-.58,1.2-.24-.1-.24-.1-.24,0,0-.72-.14-.96,.1-.24,.24-.72,.14-.72,.14-.81,.34-.1,.29-.1,.29,.19-.05,.38,.1,.24,.62m22.3,.29c.14,2.68-.57,4.74-1.48,6.46,.29,.24,1.15,.48,1.15,.48,1.48,.72,2.11-2.15,2.11-2.15,1.05-3.45,.43-8.47-.09-11.01-1.82-1.25-2.11-.19-2.11-.19,.53,1.87,.43,6.41,.43,6.41m-.53,.24c.05,2.01-.76,4.26-.76,4.26-.57,2.25-2.78,4.16-2.78,4.16-1.96,2.25-4.4,3.16-5.89,3.83-1.05,.67,.43,.19,.43,.19,3.73-1.34,5.74-3.78,5.74-3.78,2.3-2.11,2.78-4.12,2.78-4.12,.86-2.59,.77-4.07,.77-4.07,.14-2.2-.19-5.41-.53-7.56-.05-.72-.53-.62-.38,.09,.43,1.1,.67,4.07,.62,6.99m3.06-1.87c.53,3.4-.72,7.08-.72,7.08-1.87,4.31-3.31,5.03-3.31,5.03-1.48,1.91-4.21,3.21-5.31,3.69-1.1,.67-.14,.62,.14,.34,3.4-1.29,5.46-3.69,5.46-3.69,2.78-2.44,3.35-5.22,3.35-5.22,1.15-2.34,.77-7.18,.77-7.18,.14-.77-.19-2.92-.67-5.27-.1-.67-.34-.58-.34,0,.58,2.68,.62,5.22,.62,5.22m.91-2.54c.77,.91,.53,1.15,.53,1.15,0,1.15,1.34,2.11,1.34,2.11,.38-1.44-1.05-5.55-1.05-5.55-.19-.1-1-.05-1-.05-.96,.34-.58,1.44,.19,2.34m.29,2.54s.48,.62,.53,.96c.05,.33,.19,1.01,.77,2.3,.58,1.29,.24,.05,.24,.05,.34-.53-.09-.81-.09-.81l-.58-.81c-.1-.43,.1-.38,.43,0,.81,.77,.14-.38,.14-.38-1.2-.96-1-1.2-1.29-1.68-.29-.48,.24-.76-.29-1.2-.62-.72-.29,.14-.29,.14,.1,.48,.43,1.44,.43,1.44m-11.06,15.03c.29,.33,.38,.09,.38,.09,.67-.09,2.58-1.67,2.58-1.67,.58-.29,.1-.67,0-.81-.09-.14-.38-.19-.53,0-.15,.19-2.25,1.58-2.54,1.72-.29,.14-.19,.33-.19,.33l.29,.34Zm-2.25,1.01h.38l-.15-.82h-.43l.19,.82Zm-5.65,1.91c0,1.39,1.05,2.63,2.78,2.63s2.68-1.34,2.68-2.78-1.2-2.35-1.77-2.49l-.19,.91c.19,.1,.91,.33,.91,1.53s-.48,1.72-1.72,1.72-1.58-1.05-1.63-1.63c-.05-.57,.38-1.2,.96-1.53l-.19-.96c-.81,0-1.82,1.2-1.82,2.58m2.63-1.63c.67,.62,.67-1.05,.67-1.05-.72-.91-1.05,.1-1.05,.1-.05,.43,.38,.96,.38,.96m-10.43-14.74l-.14,.38,.38-.05s-.29-.05-.24-.34m2.68-.19c.72-.14,.67-.33,.29-.57l-.29,.57Zm8.23,17.66l-.05-.62c-.67-.19-.62-.72-.48-1.1l-.38-.53c-1.48,.96-.24,2.68,.91,2.25m9.94-7.37c.41,0,.75-.34,.75-.75s-.34-.75-.75-.75-.75,.33-.75,.75,.33,.75,.75,.75m-.7-8.03c.45,.3,.16-.09,.16-.09l-.09-.25c-.11-.56-.16,.04-.16,.04,.14,.52,.09,.31,.09,.31m.59,1.2c.11,.11,.31,.13,.16-.09,0,0-.14-.13-.29-.45-.14-.32-.23-.13-.14,.09,0,0,.16,.34,.27,.45m-.31,.77c.13,.32,.4,.18,.27-.02-.12-.2-.11-.13-.23-.47-.12-.34-.27-.09-.16,.09,0,0,0,.07,.12,.4m-.46,1.15c.07,.43,.23,.02,.23,.02,0,0,.07-.61,.02-.88-.05-.27-.25-.16-.25,0,0,0-.07,.43,0,.86m-21.59,3.48s.2,.48,.49,.75c0,0,.18,.02,.3,.09l-.79-.85Zm.93,.95s.16,.12,.21,.3c.06,.18,.45,.09,.45,.09v-.16s-.11-.21-.66-.23m-.11-.93s.16,.27,.16,.39l.32,.29,.36,.11c0-.18-.31-.56-.84-.79m.04-.99l.32,.74,.48,.38c-.11-.29-.13-.4-.38-.5l-.43-.61Zm1.08,1.54s.14,.25-.16,.41l.07,.4c.29-.29,.54-.67,.27-1.15,.04,.18,0,.25-.18,.34m26.97-5.98s.13,.44,.35,1.09c.21,.65,.35,.16,.29-.06-.06-.21-.22-.74-.45-1.02,0,0,.04-.41-.17-.78-.2-.37-.29-.07-.16,.11m-3.08-9.64l-.48-.48c.1,.53,.29,.72,.48,.48m-.92,14.45c-.11,.18-.02,.3,.05,.19,0,0,.15-.07,.23-.33,.08-.26-.15-.05-.15-.05l-.14,.19Zm-1.01,.96c-.12,.19,.08,.14,.08,.14,0,0,.67-.77,.79-1.03,.12-.26-.04-.24-.15-.08-.08,.23-.49,.72-.72,.97m-.29-.07c-.14,.23,.1,.14,.1,.14,0,0,.57-.64,.75-1,.18-.36-.06-.21-.14-.07-.04,.13-.61,.86-.71,.93m-.27-.13c-.13,.22,.1,.14,.1,.14,0,0,.57-.64,.75-1,.18-.36-.06-.21-.13-.07-.04,.12-.61,.86-.71,.93m-.26-.14c-.13,.23,.1,.14,.1,.14,0,0,.65-.84,.82-1.2,.07-.15-.06-.21-.14-.07-.04,.13-.69,1.07-.78,1.14m-.26-.17c-.13,.22,.1,.13,.1,.13,0,0,.65-.77,.83-1.13,.07-.14-.06-.21-.13-.07-.04,.13-.7,.99-.8,1.06m-.27-.08c-.13,.22,.1,.14,.1,.14,0,0,.66-.79,.85-1.14,.09-.18-.06-.21-.13-.07-.04,.13-.72,1.01-.81,1.08m2.05,.56c-.36,.43,.17,.17,.17,.17,0,0,.55-.62,.91-1.48,.36-.86-.22,0-.22,0-.07,.41-.86,1.32-.86,1.32"/><path class="e" d="M23.71,36.28s.27,.58-.18,.9c0,0,.04,.36,.36,.02,.32-.34,.13-.77,.13-.81s-.2-.36-.31-.11"/><path class="e" d="M38.17,24.42c-.02-.26,.22-.31,.22-.02s-.14,1.34-1.27,1.34c-.5,0-.43-.17,.05-.17s.91-.14,1-1.15"/><path class="e" d="M37.98,20.11s-.17-.29,.17-.1c.33,.19,.53,1.75-.43,1.89,0,0-.5,.05-.17-.12,.86-.24,.88-1.17,.43-1.67"/><path class="e" d="M37.75,16.83s-.26-.24,.07-.1c.34,.14,.72,1.94-.55,1.96,0,0-.07-.07,.12-.1,.62-.08,.84-.98,.36-1.77"/><path class="e" d="M36.03,17.6c0-.49,.39-.88,.88-.88s.88,.39,.88,.88-.39,.88-.88,.88-.88-.39-.88-.88m.88,.74c.41,0,.75-.34,.75-.75s-.33-.75-.75-.75-.75,.34-.75,.75,.34,.75,.75,.75"/><path class="e" d="M36.38,20.81c0-.49,.39-.88,.88-.88s.88,.4,.88,.88-.39,.88-.88,.88-.88-.39-.88-.88m.88,.73c.41,0,.75-.33,.75-.75s-.34-.75-.75-.75-.75,.33-.75,.75,.33,.75,.75,.75"/><path class="e" d="M36.27,24.49c0-.49,.39-.88,.88-.88s.88,.39,.88,.88-.39,.88-.88,.88-.88-.39-.88-.88m.88,.73c.41,0,.75-.33,.75-.75s-.33-.75-.75-.75-.75,.34-.75,.75,.33,.75,.75,.75"/><path class="e" d="M35.27,28.71c0-.49,.39-.88,.88-.88s.88,.39,.88,.88-.4,.88-.88,.88-.88-.39-.88-.88m.88,.74c.41,0,.75-.34,.75-.75s-.33-.75-.75-.75-.75,.34-.75,.75,.34,.75,.75,.75"/><path class="e" d="M24.9,37.56c.07,.13,.32,.09,.16-.16-.16-.25-.54-.36-.63-.47l-.07,.3s.43,.22,.54,.32"/><path class="e" d="M25.19,37.88s.05,.14,.11,.29c.05,.14,.31,.22,.23-.09,0,0-.05-.23-.14-.34-.09-.11-.38-.13-.2,.14"/><path class="e" d="M22.76,37.02c-1.17,.54-1.24,1.62-1.26,2.03,0,0,.2,.68,.22-.02,.02-.7,.38-1.56,1.11-1.81l-.07-.2Z"/><path class="e" d="M21.7,39.82c-.07-.09,.11-.32,.21-.07,.11,.25,.14,.31,.32,.43,.18,.13,.16,.38-.04,.29-.2-.09-.46-.45-.5-.65"/><path class="e" d="M22.03,41.02c-.16-.11,0-.34,.2-.18,.2,.16,.29,.22,.41,.25,.13,.04,.2,.27-.12,.21-.32-.05-.49-.29-.49-.29"/><path class="e" d="M25.33,37.23c-.14-.15,.11-.27,.22-.2,1.18,1.31,1,4.45-2.15,4.45-.32-.04-.41-.21,.05-.21,1.76,.31,3.54-2.14,1.88-4.04"/><path class="e" d="M20.34,26.21c-.67-.33-.72-.62,.15-.38,0,0,1.05,.53,1.34,.81,.29,.29,.77,.91,.91,1,.14,.1,.76,.72-.05,.38,0,0-.58-.43-.86-.82-.29-.38-.86-.91-1.49-1"/><path class="e" d="M24.75,29.75c-.21-.31-.19-.62,.24-.24,.43,.38,1.29,.96,1.77,1.05,.48,.1,1.43,.96,0,.33-.53-.09-1.63-.57-2.01-1.15"/><path class="e" d="M25.95,26.9c.17,0,.3-.14,.3-.3s-.14-.31-.3-.31-.3,.14-.3,.31,.14,.3,.3,.3"/><path class="e" d="M25.85,23.45c.17,0,.3-.14,.3-.31s-.14-.3-.3-.3-.3,.14-.3,.3,.14,.31,.3,.31"/><path class="e" d="M26.86,23.93c.17,0,.3-.14,.3-.3s-.14-.3-.3-.3-.3,.14-.3,.3,.14,.3,.3,.3"/><path class="e" d="M26.34,24.7c.17,0,.3-.14,.3-.3s-.14-.31-.3-.31-.3,.14-.3,.31,.14,.3,.3,.3"/><path class="e" d="M27.2,25.23c.17,0,.3-.14,.3-.31s-.14-.3-.3-.3-.3,.14-.3,.3,.14,.31,.3,.31"/><path class="e" d="M12.07,24.69c.12,0,.22-.1,.22-.22s-.1-.22-.22-.22-.22,.1-.22,.22,.1,.22,.22,.22"/><path class="e" d="M11.3,25.5c.11,0,.2-.11,.2-.24s-.09-.24-.2-.24-.2,.11-.2,.24,.09,.24,.2,.24"/><path class="e" d="M28.67,10.75s-.24-2.44,1.48-2.25c0,0,1.1-.1,1.82,1.63,.77,.96,2.97,2.49,1.39,3.49,0,0,.24-.38-.77-.96-.29-.14-.53-.1-.1,.19,.43,.29,.72,.58,.05,.43-.38-.19-.86-.29-.48,0,.38,.29,.62,.38-.14,.38-.43-.53-1-.57-.48,.1,0,0,0,.38-.62,.05-.62-.34-.91-1.1-.91-1.1,0,0-.57-.48,.33-.43,0,0,1.29-.57,1.44-.91,.14-.33,.14-.19-.05-.53-.19-.33-.19-.1-.24,.14-.05,.24-.15,.24-.34,0-.19-.24-.29-.29-.09,.34,0,0,.09,.43-.34,.24,0,0,.19,.53-.33,.24,0,0,.29,.43-.53,.05-.82-.38-1.05-.81-1.1-1.1"/><path class="e" d="M27.05,9.22c-.14,.33-.05,.53,.33,.19l.33-.38c.29-.24,.19-.67-.38-.19l-.29,.38Z"/><path class="e" d="M24.94,11.13c-.19,.29-.19,.53,.24,.29,.43-.24,1.34-.91,2.73,.19l.67,.57c.34,.43,.86,.57,.29-.38l-.77-.53c-.72-.62-1.77-1.05-3.16-.14"/><path class="e" d="M28.96,14.01c-.48-.57,.29-.77,.43-.24,.15,.53,.62,1.63,1.34,1.48,.19,.1,.57,.38,.53,.96l.1,.81c.1,.52-.29,.86-.48,0,.1-.62,.05-1.29-.67-1.53-.72-.24-.72-.43-.77-.77-.05-.33-.48-.72-.48-.72"/><path class="e" d="M24.56,15.25c-.67-.05-.19-.34,.14-.48h.96c.38,0,1.24,1.25,1.87,1.44,.62,.19,.81,.67,.05,.43-.76-.24-1.72-1.39-2.15-1.44l-.86,.05Z"/><path class="e" d="M21.3,15.25c-.38,.29-.33,.58,.19,.29,.53-.29,1.2-.67,1.82-.58,.62,.1,.67-.53-.1-.53s-1.53,.53-1.91,.81"/><path class="e" d="M25.61,16.35c-.62-.19-.43-.53,.19-.43,.62,.1,.52,.86,1.15,1.05,.62,.19,.48,.53-.14,.29-.62-.24-.53-.77-1.2-.91"/><path class="e" d="M24.84,16.54c-.62-.05-.53,.14-.14,.29,.38,.14,.48,.19,.72,.34,.24,.14,.48,0,.24-.34-.24-.33-.81-.29-.81-.29"/><path class="e" d="M17.71,14.25c-.38,.19-.53,.96,.19,.24,.72-.72,.91-1.29,3.59-1.15,.91,.14,1.15-.53,0-.43-1.15,.1-1.02,.27-1.48,.05-.81-.38-1.96,.81-2.3,1.29"/><path class="e" d="M15.56,13.1c-.38-.19-.53,.05,0,.34,.53,.29,1.15,.81,2.49-.29,0,0,.81-.53-.24-.29-.43,.43-1.24,.86-2.25,.24"/><path class="e" d="M14.46,14.01c-.57-.48-.86,.05-.29,.29,0,0,.52-.05,.76,.24,.24,.29,.72,.43,.72,.43,.38,.19,.96-.14,.05-.38-.33-.19-.77-.57-1.01-.57h-.24Z"/><path class="e" d="M12.64,15.97c-.53,.19-.67-.09-.14-.38,.53-.29,1.24-.67,1.91-.29,.24,.24,.34,1.2-.38,.43,0,0-.33-.43-1.39,.24"/><path class="e" d="M12.5,16.4c-.43,.1-.77,.43,0,.24,.77-.19,1.2-.24,1.34-.19,.14,.05,.77,.34,.05-.24,0,0-.29-.19-1.39,.19"/><path class="e" d="M12.26,17.74c-.53,0-.72,.33,0,.24,.72-.1,1.01,.57,1.01,.67,0,.57,.38,1.01,.57,.43-.24-.38-.33-.53-.33-.86s-.86-.57-1.25-.48"/><path class="e" d="M26.23,20.75c-.48,.38-.53,.81,.19,.29,.72-.53,1-.81,1.2-1.25,.19-.43,.48-.53,.43,.24-.24,.48-.24,1.05-.1,1.48,.14,.43,.05,1.96-.09,2.44-.15,.48,.19,1.2,.57,1.58,.38,.38,1.72,1.53,1.01,2.58,0,0-.33,.43-.24,.82,.1,.38,0,.67,.24-.1,.24-.77,.24-.62,.48-.86,.24-.24,.48-1.05-.72-2.16-1.2-1.1-1.15-2.01-.81-3.16l.05-2.58c.14-.67,0-.62-.24-1-.24-.38-.76,.29-.76,.29,0,0-.81,1.29-1.2,1.39"/><path class="e" d="M29.01,19.03c-.1-.48,.57-.53,.38,0,0,0,.05,.29,.15,.53,.09,.24,.33,1.25-.15,1.53-.48,.29-.29-.05-.29-.38s.19-.67,.1-1.1c0,0-.19-.43-.19-.57"/><path class="e" d="M29.63,19.06c-.09-.48,.58-.53,.38,0,0,0-.1,.31,0,.55,.1,.24,.53,.77,.1,1.48-.22,.37-.38-.03-.38-.36s.19-.5,.1-.93c0,0-.19-.6-.19-.74"/><path class="e" d="M30.27,19.06c-.09-.48,.58-.53,.38,0,0,0,.05,.29,.15,.53,.09,.24,.5,.84,.03,1.13-.48,.29-.24,.05-.24-.29s-.03-.36-.12-.79c0,0-.19-.43-.19-.57"/><path class="e" d="M12.88,28.94s.33-.43,.29,.05c0,0-.19,.24-.29-.05"/><path class="e" d="M13.4,28.84s.05-.43,.24-.05c0,0,0,.34-.24,.05"/><path class="e" d="M13.83,28.7s.1-.29,.29-.05c0,0,0,.43-.29,.05"/><path class="e" d="M14.27,28.65s.14-.34,.29-.1c0,0,.05,.53-.29,.1"/><path class="e" d="M14.84,28.56s.14-.29,.29,.05c0,0-.15,.48-.29-.05"/><path class="e" d="M15.37,28.61s.05-.34,.24,0c0,0,0,.29-.24,0"/><path class="e" d="M15.85,28.51s.19-.24,.29,0c.09,.24-.19,.24-.29,0"/><path class="e" d="M16.37,28.56s.24-.34,.29,.05c.05,.38-.24,.24-.29-.05"/><path class="e" d="M16.9,28.61s.19-.29,.24,.05c.05,.33-.14,.29-.24-.05"/><path class="e" d="M17.33,28.65s.19-.29,.29,0c.09,.29-.19,.24-.29,0"/><path class="e" d="M17.95,28.65s.29-.29,.33,.1c.05,.38-.14,.19-.33-.1"/><path class="e" d="M18.62,31.76c-.09-.24-.09-.43,.19-.1,.29,.34,.24,.62-.19,.1"/><path class="e" d="M19.2,31.76s-.24-.53,.19-.19c0,0,.34,.86-.19,.19"/><path class="e" d="M19.72,31.76s-.24-.48,.19-.1c.43,.38,.24,.53-.19,.1"/><path class="e" d="M20.44,32c-.19-.29-.34-.72,.1-.34,.43,.38,.38,.81-.1,.34"/><path class="e" d="M19.25,16.69c-.1,.19-.38,.57,.29,.38,.67-.19,.24-1.1-.29-.38"/><path class="e" d="M14.51,16.45c-.1-.29,.09-.43,.38-.14,0,0,0,.38,.1,.53,.1,.14,.19,.86-.29,.29,0,0-.19-.05-.19-.67"/><path class="e" d="M24.8,26.13c.17,0,.3-.14,.3-.3s-.14-.3-.3-.3-.3,.14-.3,.3,.14,.3,.3,.3"/><path class="e" d="M37.29,16.88l-.38,.48,.81,.38c.14-.38-.05-.7-.43-.86"/><path class="e" d="M36.91,17.36l.14,.96s.19,.19,.43-.19l-.57-.76Z"/><path class="e" d="M37.58,20.09l-.29,.38,.57-.1s.1-.12-.29-.29"/><path class="e" d="M38.01,20.61h-.67l.19,.86s.57,.29,.48-.86"/><path class="e" d="M36.91,23.68l.24,.57,.24-.57s-.14-.15-.48,0"/><path class="e" d="M37.96,24.68l-.77-.19-.05,.77s.57,.24,.81-.57"/><path class="e" d="M36.76,28.17l-.57,.38,.83,.14s.08-.24-.26-.53"/><path class="e" d="M36.86,29.08l-.67-.53-.34,.91s.62,.48,1-.38"/><path class="e" d="M34.66,31.52l-.72,.43,.86-.14s.09-.05-.14-.29"/><path class="e" d="M33.08,32.15l.86-.19-.67,.48s-.17-.09-.19-.29"/><path class="e" d="M33.46,32.63l.48-.67,.77,.19s-.19,1.1-1.25,.48"/></g></g></svg>