<svg xmlns="http://www.w3.org/2000/svg" width="27.519" height="24.767" viewBox="0 0 27.519 24.767"><path d="M23.883,12.6V8.064H11.637V12.6H9.573V6H25.947v6.6ZM6.064,14.669h0Zm20.605,3.268a1.058,1.058,0,1,0-.722-.31A.99.99,0,0,0,26.669,17.937ZM23.883,28.7V22.1H11.637v6.6Zm2.064,2.064H9.573V24.713H4V16.251A3.584,3.584,0,0,1,7.646,12.6H27.873a3.584,3.584,0,0,1,3.646,3.646v8.462H25.947Zm3.509-8.118v-6.4a1.53,1.53,0,0,0-1.582-1.582H7.646a1.53,1.53,0,0,0-1.582,1.582v6.4H9.573V20.035H25.947v2.614Z" transform="translate(-4 -6)" fill="#e84f3a"/></svg>