<svg xmlns="http://www.w3.org/2000/svg" width="16.755" height="16.755" viewBox="0 0 16.755 16.755"><path d="M10.369,2a8.378,8.378,0,1,0,8.386,8.378A8.374,8.374,0,0,0,10.369,2Zm5.806,5.027H13.7a13.11,13.11,0,0,0-1.156-2.982A6.727,6.727,0,0,1,16.175,7.027Zm-5.8-3.318a11.8,11.8,0,0,1,1.6,3.318h-3.2A11.8,11.8,0,0,1,10.378,3.709ZM3.893,12.053a6.553,6.553,0,0,1,0-3.351H6.725a13.836,13.836,0,0,0-.117,1.676,13.836,13.836,0,0,0,.117,1.676Zm.687,1.676H7.052a13.11,13.11,0,0,0,1.156,2.982A6.691,6.691,0,0,1,4.58,13.729Zm2.471-6.7H4.58A6.691,6.691,0,0,1,8.208,4.044,13.11,13.11,0,0,0,7.052,7.027Zm3.326,10.02a11.8,11.8,0,0,1-1.6-3.318h3.2A11.8,11.8,0,0,1,10.378,17.046Zm1.96-4.993H8.417a12.326,12.326,0,0,1-.134-1.676A12.219,12.219,0,0,1,8.417,8.7h3.921a12.219,12.219,0,0,1,.134,1.676A12.326,12.326,0,0,1,12.338,12.053Zm.209,4.658A13.11,13.11,0,0,0,13.7,13.729h2.471A6.727,6.727,0,0,1,12.547,16.711Zm1.483-4.658a13.836,13.836,0,0,0,.117-1.676A13.836,13.836,0,0,0,14.03,8.7h2.832a6.553,6.553,0,0,1,0,3.351Z" transform="translate(-2 -2)" fill="#505050"/></svg>