<svg xmlns="http://www.w3.org/2000/svg" width="21" height="21" viewBox="0 0 21 21"><g transform="translate(-330 -1741)"><rect width="21" height="21" transform="translate(330 1741)" fill="none"/><path d="M14.1,3.212a3.761,3.761,0,0,1-.671-.231q-.583-.231-.781-.3Q11.088,2.046,4.994-.352a5.673,5.673,0,0,1-2.981-2.64A9.727,9.727,0,0,1,.99-7.7a8.461,8.461,0,0,1,1.826-5.841,6.67,6.67,0,0,1,5.236-2.035,6.635,6.635,0,0,1,5.225,2.035A8.5,8.5,0,0,1,15.092-7.7,9.723,9.723,0,0,1,14.2-3.322a5.771,5.771,0,0,1-2.563,2.64v.088L15,.616q.308.11.308.352a3.148,3.148,0,0,1-.176.781,4.553,4.553,0,0,1-.451,1.012Q14.41,3.212,14.1,3.212Zm-6.05-5.83a3.033,3.033,0,0,0,2.662-1.3,6.614,6.614,0,0,0,.9-3.784,6.358,6.358,0,0,0-.9-3.707,3.06,3.06,0,0,0-2.662-1.265,3.088,3.088,0,0,0-2.673,1.265A6.3,6.3,0,0,0,4.466-7.7a6.552,6.552,0,0,0,.913,3.784A3.061,3.061,0,0,0,8.052-2.618ZM17.886.044q-1.32,0-1.32-.7V-2.684q0-.7,1.32-.7h.7q1.32,0,1.32.7V-.66q0,.7-1.32.7Z" transform="translate(330 1758)" fill="#bfbfbf"/></g></svg>