<svg xmlns="http://www.w3.org/2000/svg" width="27" height="27" viewBox="0 0 27 27"><g transform="translate(-643 -1038)"><path d="M16.607,17.726ZM4.059,29.049a.924.924,0,0,1-.839-.484.879.879,0,0,1,0-.968L15.736,5.984a.969.969,0,0,1,1.677,0L29.93,27.6a.879.879,0,0,1,0,.968.924.924,0,0,1-.839.484ZM16.7,14.468a.938.938,0,0,0-.968.968v5.29a.968.968,0,1,0,1.936,0v-5.29a.938.938,0,0,0-.968-.968Zm0,10.807A.938.938,0,1,0,16.011,25,.94.94,0,0,0,16.7,25.274ZM5.736,27.113H27.414L16.575,8.4Z" transform="translate(639.925 1034.5)" fill="#e84f3a"/><rect width="27" height="27" transform="translate(643 1038)" fill="none" opacity="0.4"/></g></svg>