<svg xmlns="http://www.w3.org/2000/svg" xmlns:xlink="http://www.w3.org/1999/xlink" width="338.962" height="39" viewBox="0 0 338.962 39"><defs><clipPath id="a"><rect width="68.163" height="39" fill="none"/></clipPath></defs><g transform="translate(-517.838 -487)"><path d="M-118.128.368a9.048,9.048,0,0,1-5.842-1.955,12.286,12.286,0,0,1-3.749-5.658A26.612,26.612,0,0,1-129.03-16.1a26.612,26.612,0,0,1,1.311-8.855,12.286,12.286,0,0,1,3.749-5.658,9.048,9.048,0,0,1,5.842-1.955,9.048,9.048,0,0,1,5.842,1.955,12.286,12.286,0,0,1,3.749,5.658,26.612,26.612,0,0,1,1.311,8.855,26.612,26.612,0,0,1-1.311,8.855,12.286,12.286,0,0,1-3.749,5.658A9.048,9.048,0,0,1-118.128.368Zm0-5.382q1.932,0,2.967-2.806a25.232,25.232,0,0,0,1.035-8.28,25.232,25.232,0,0,0-1.035-8.28q-1.035-2.806-2.967-2.806T-121.1-24.38a25.231,25.231,0,0,0-1.035,8.28A25.232,25.232,0,0,0-121.1-7.82Q-120.06-5.014-118.128-5.014ZM-102.488,0a1.129,1.129,0,0,1-1.058-.552,3.607,3.607,0,0,1-.322-1.748v-.782a3.607,3.607,0,0,1,.322-1.748,1.129,1.129,0,0,1,1.058-.552h6.118V-26.036l-6.256.92q-.782,0-1.127-1.265a9.833,9.833,0,0,1-.345-2.6q0-1.058,1.2-1.288l11.454-2.116a2.628,2.628,0,0,1,1.242.345q.644.345.644.759v25.9h4.922a1.129,1.129,0,0,1,1.058.552,3.607,3.607,0,0,1,.322,1.748V-2.3a3.607,3.607,0,0,1-.322,1.748A1.129,1.129,0,0,1-84.64,0Zm24.1,0q-.46,0-.874-1.449a9.572,9.572,0,0,1-.414-2.6,1.222,1.222,0,0,1,.138-.69L-67.9-19a6.983,6.983,0,0,0,1.748-4.416,3.343,3.343,0,0,0-1.2-2.76,4.75,4.75,0,0,0-3.082-.966,5.8,5.8,0,0,0-2.231.391,14.75,14.75,0,0,0-2,1.035,2.452,2.452,0,0,1-1.15.552,2.265,2.265,0,0,1-1.817-1.1,3.58,3.58,0,0,1-.805-2.07q0-1.932,2.806-3.082a16.611,16.611,0,0,1,6.348-1.15q4.738,0,7.383,2.484a8.544,8.544,0,0,1,2.645,6.532,11.641,11.641,0,0,1-2.806,7.5L-70.7-5.382h10.626a1.129,1.129,0,0,1,1.058.552A3.607,3.607,0,0,1-58.7-3.082V-2.3a3.607,3.607,0,0,1-.322,1.748A1.129,1.129,0,0,1-60.076,0ZM-44.3.368A9.048,9.048,0,0,1-50.14-1.587a12.286,12.286,0,0,1-3.749-5.658A26.612,26.612,0,0,1-55.2-16.1a26.612,26.612,0,0,1,1.311-8.855,12.286,12.286,0,0,1,3.749-5.658A9.048,9.048,0,0,1-44.3-32.568a9.048,9.048,0,0,1,5.842,1.955,12.286,12.286,0,0,1,3.749,5.658A26.612,26.612,0,0,1-33.4-16.1a26.612,26.612,0,0,1-1.311,8.855,12.286,12.286,0,0,1-3.749,5.658A9.048,9.048,0,0,1-44.3.368Zm0-5.382q1.932,0,2.967-2.806A25.232,25.232,0,0,0-40.3-16.1a25.232,25.232,0,0,0-1.035-8.28q-1.035-2.806-2.967-2.806t-2.967,2.806A25.232,25.232,0,0,0-48.3-16.1a25.232,25.232,0,0,0,1.035,8.28Q-46.23-5.014-44.3-5.014Zm15-4.738A1.129,1.129,0,0,1-30.36-10.3a3.607,3.607,0,0,1-.322-1.748v-.322a3.607,3.607,0,0,1,.322-1.748,1.129,1.129,0,0,1,1.058-.552h9.384a1.129,1.129,0,0,1,1.058.552,3.607,3.607,0,0,1,.322,1.748v.322A3.607,3.607,0,0,1-18.86-10.3a1.129,1.129,0,0,1-1.058.552ZM-10.534.23a1.487,1.487,0,0,1-1.242-.713,5.556,5.556,0,0,1-.782-1.633,5.434,5.434,0,0,1-.276-1.472,1.426,1.426,0,0,1,.115-.69.762.762,0,0,1,.483-.276,16.63,16.63,0,0,0,6.187-3.4,12.735,12.735,0,0,0,3.8-5.658,9.479,9.479,0,0,1-4.6,1.15,9.532,9.532,0,0,1-4.048-.966,8.741,8.741,0,0,1-3.542-3.151,9.893,9.893,0,0,1-1.472-5.635,10.17,10.17,0,0,1,1.564-5.842,9.364,9.364,0,0,1,4-3.381,12.79,12.79,0,0,1,5.244-1.081A11.706,11.706,0,0,1,.161-31.3a9.567,9.567,0,0,1,4.025,3.91A13.547,13.547,0,0,1,5.75-20.516q0,7.866-3.519,12.489a20.376,20.376,0,0,1-7.475,6.44Q-9.2.23-10.534.23Zm5.658-18.078a7.562,7.562,0,0,0,3.634-1.1q.046-.69.046-2.116a7.794,7.794,0,0,0-1.081-4.646A3.429,3.429,0,0,0-5.152-27.14a3.5,3.5,0,0,0-2.783,1.334,5.093,5.093,0,0,0-1.127,3.4,4.784,4.784,0,0,0,1.1,3.335A3.946,3.946,0,0,0-4.876-17.848ZM10.166,0q-.46,0-.874-1.449a9.572,9.572,0,0,1-.414-2.6,1.222,1.222,0,0,1,.138-.69L20.654-19A6.983,6.983,0,0,0,22.4-23.414a3.343,3.343,0,0,0-1.2-2.76,4.75,4.75,0,0,0-3.082-.966,5.8,5.8,0,0,0-2.231.391,14.751,14.751,0,0,0-2,1.035,2.452,2.452,0,0,1-1.15.552,2.265,2.265,0,0,1-1.817-1.1,3.58,3.58,0,0,1-.805-2.07q0-1.932,2.806-3.082a16.611,16.611,0,0,1,6.348-1.15q4.738,0,7.383,2.484A8.544,8.544,0,0,1,29.3-23.552a11.641,11.641,0,0,1-2.806,7.5L17.848-5.382H28.474a1.129,1.129,0,0,1,1.058.552,3.607,3.607,0,0,1,.322,1.748V-2.3a3.607,3.607,0,0,1-.322,1.748A1.129,1.129,0,0,1,28.474,0ZM35.282,0a1.129,1.129,0,0,1-1.058-.552A3.607,3.607,0,0,1,33.9-2.3v-.782a3.607,3.607,0,0,1,.322-1.748,1.129,1.129,0,0,1,1.058-.552H41.4V-26.036l-6.256.92q-.782,0-1.127-1.265a9.833,9.833,0,0,1-.345-2.6q0-1.058,1.2-1.288l11.454-2.116a2.628,2.628,0,0,1,1.242.345q.644.345.644.759v25.9H53.13a1.129,1.129,0,0,1,1.058.552,3.607,3.607,0,0,1,.322,1.748V-2.3a3.607,3.607,0,0,1-.322,1.748A1.129,1.129,0,0,1,53.13,0Zm24.61,0a1.129,1.129,0,0,1-1.058-.552A3.607,3.607,0,0,1,58.512-2.3v-.782a3.607,3.607,0,0,1,.322-1.748,1.129,1.129,0,0,1,1.058-.552H66.01V-26.036l-6.256.92q-.782,0-1.127-1.265a9.833,9.833,0,0,1-.345-2.6q0-1.058,1.2-1.288l11.454-2.116a2.628,2.628,0,0,1,1.242.345q.644.345.644.759v25.9H77.74A1.129,1.129,0,0,1,78.8-4.83a3.607,3.607,0,0,1,.322,1.748V-2.3A3.607,3.607,0,0,1,78.8-.552,1.129,1.129,0,0,1,77.74,0Zm33.58.368A9.048,9.048,0,0,1,87.63-1.587a12.286,12.286,0,0,1-3.749-5.658A26.612,26.612,0,0,1,82.57-16.1a26.612,26.612,0,0,1,1.311-8.855,12.286,12.286,0,0,1,3.749-5.658,9.048,9.048,0,0,1,5.842-1.955,9.048,9.048,0,0,1,5.842,1.955,12.286,12.286,0,0,1,3.749,5.658,26.612,26.612,0,0,1,1.311,8.855,26.612,26.612,0,0,1-1.311,8.855,12.286,12.286,0,0,1-3.749,5.658A9.048,9.048,0,0,1,93.472.368Zm0-5.382q1.932,0,2.967-2.806a25.232,25.232,0,0,0,1.035-8.28,25.232,25.232,0,0,0-1.035-8.28q-1.035-2.806-2.967-2.806T90.505-24.38A25.231,25.231,0,0,0,89.47-16.1a25.232,25.232,0,0,0,1.035,8.28Q91.54-5.014,93.472-5.014ZM112.516.23a1.487,1.487,0,0,1-1.242-.713,5.556,5.556,0,0,1-.782-1.633,5.434,5.434,0,0,1-.276-1.472,1.426,1.426,0,0,1,.115-.69.762.762,0,0,1,.483-.276A16.63,16.63,0,0,0,117-7.958a12.735,12.735,0,0,0,3.795-5.658,9.48,9.48,0,0,1-4.6,1.15,9.532,9.532,0,0,1-4.048-.966,8.741,8.741,0,0,1-3.542-3.151,9.893,9.893,0,0,1-1.472-5.635A10.17,10.17,0,0,1,108.7-28.06a9.364,9.364,0,0,1,4-3.381,12.79,12.79,0,0,1,5.244-1.081,11.706,11.706,0,0,1,5.267,1.219,9.567,9.567,0,0,1,4.025,3.91,13.547,13.547,0,0,1,1.564,6.877q0,7.866-3.519,12.489a20.376,20.376,0,0,1-7.475,6.44Q113.85.23,112.516.23Zm5.658-18.078a7.562,7.562,0,0,0,3.634-1.1q.046-.69.046-2.116a7.794,7.794,0,0,0-1.081-4.646A3.429,3.429,0,0,0,117.9-27.14a3.5,3.5,0,0,0-2.783,1.334,5.092,5.092,0,0,0-1.127,3.4,4.784,4.784,0,0,0,1.1,3.335A3.946,3.946,0,0,0,118.174-17.848Z" transform="translate(728 523)" fill="#323232"/><g transform="translate(517.838 487)"><rect width="59.016" height="38.516" transform="translate(0 0)" fill="#00a73c"/><g transform="translate(0 0)"><g clip-path="url(#a)"><path d="M124.379,68.393a3.688,3.688,0,1,0,3.686-3.686,3.691,3.691,0,0,0-3.686,3.686m.427,0a3.26,3.26,0,1,1,3.259,3.258,3.264,3.264,0,0,1-3.259-3.258" transform="translate(-63.592 -33.083)" fill="#231815"/><path d="M132.107,72.037H131.4l-1.431-2.215h-.628v2.215h-.567V67.164h1.38a1.653,1.653,0,0,1,1.1.336,1.153,1.153,0,0,1,.4.938,1.2,1.2,0,0,1-.293.794,1.509,1.509,0,0,1-.809.471Zm-2.767-2.707h.715a1.077,1.077,0,0,0,.731-.244.785.785,0,0,0,.279-.614q0-.816-1-.815h-.73Z" transform="translate(-65.838 -34.339)" fill="#231815"/><path d="M14.831,36.145a7.307,7.307,0,0,1-7.257-7.58c0-3.962,3.924-7.127,7.257-9.02,3.331,1.893,7.255,5.058,7.255,9.02a7.305,7.305,0,0,1-7.255,7.58M37.066,28.48c0-3.963,3.922-7.129,7.255-9.022,3.333,1.892,7.254,5.059,7.254,9.022a7.261,7.261,0,1,1-14.509,0M59.01,12.264a33.257,33.257,0,0,0-14.919,3.371A31.767,31.767,0,0,0,29.5,12.264a31.762,31.762,0,0,0-14.589,3.371A33.217,33.217,0,0,0,0,12.264v3.372a29.812,29.812,0,0,1,11.221,2.129C7.579,20.2,3.971,23.9,3.971,28.563A11.03,11.03,0,0,0,14.913,39.436,10.813,10.813,0,0,0,25.6,28.563c0-4.664-3.351-8.359-7-10.8a28.209,28.209,0,0,1,10.9-2.129,28.2,28.2,0,0,1,10.9,2.129c-3.646,2.439-7,6.133-7,10.8A10.814,10.814,0,0,0,44.091,39.436,10.961,10.961,0,0,0,54.951,28.563c0-4.664-3.526-8.359-7.173-10.8A29.862,29.862,0,0,1,59.01,15.636Z" transform="translate(-0.002 -6.27)" fill="#fff"/></g></g></g></g></svg>