<svg xmlns="http://www.w3.org/2000/svg" width="45" height="45" viewBox="0 0 45 45"><g transform="translate(-1242 -28)"><circle cx="22.5" cy="22.5" r="22.5" transform="translate(1242 28)" fill="#ebebeb"/><path d="M-8777.312-17375.977a.7.7,0,0,1-.7-.7v-8.037h-8.037a.7.7,0,0,1-.7-.7v-1.125a.7.7,0,0,1,.7-.7h8.037v-8.033a.7.7,0,0,1,.7-.7h1.126a.7.7,0,0,1,.7.7v8.033h8.038a.7.7,0,0,1,.7.7v1.125a.7.7,0,0,1-.7.7h-8.038v8.037a.7.7,0,0,1-.7.7Z" transform="translate(-4822.999 18550.484) rotate(45)" fill="#505050"/></g></svg>