<?xml version="1.0" encoding="UTF-8"?><svg id="b" xmlns="http://www.w3.org/2000/svg" viewBox="0 0 42.4 40.2"><defs><style>.d{fill:#e84f3a;}</style></defs><g id="c"><path class="d" d="M4.7,18.4c-1.3,0-2.41-.47-3.32-1.4-.92-.93-1.38-2.05-1.38-3.35s.46-2.45,1.38-3.35c.92-.9,2.03-1.35,3.32-1.35s2.45,.45,3.35,1.35c.9,.9,1.35,2.02,1.35,3.35s-.45,2.46-1.35,3.38c-.9,.92-2.02,1.38-3.35,1.38ZM14.55,9.4c-1.3,0-2.4-.46-3.3-1.38-.9-.92-1.35-2.02-1.35-3.32s.45-2.37,1.35-3.3c.9-.93,2-1.4,3.3-1.4s2.46,.45,3.38,1.35c.92,.9,1.38,2.02,1.38,3.35s-.47,2.41-1.4,3.32c-.93,.92-2.05,1.37-3.35,1.38Zm13.3,0c-1.3,0-2.42-.46-3.35-1.38-.93-.92-1.4-2.02-1.4-3.32s.46-2.45,1.38-3.35C25.39,.45,26.52,0,27.85,0s2.41,.47,3.33,1.4c.92,.93,1.38,2.05,1.38,3.35s-.46,2.36-1.38,3.27c-.92,.92-2.02,1.37-3.33,1.38Zm9.85,9c-1.33,0-2.45-.46-3.35-1.38-.9-.92-1.35-2.04-1.35-3.38,0-1.33,.45-2.45,1.35-3.35,.9-.9,2.02-1.35,3.35-1.35,1.3,0,2.41,.45,3.33,1.35,.92,.9,1.38,2.02,1.38,3.35s-.46,2.42-1.38,3.35c-.92,.93-2.03,1.4-3.33,1.4ZM10.15,40.2c-1.5,0-2.73-.57-3.7-1.7-.97-1.13-1.45-2.48-1.45-4.05,0-1.47,.46-2.76,1.38-3.88s1.87-2.21,2.88-3.28c.7-.83,1.37-1.65,2.02-2.45,.65-.8,1.29-1.68,1.92-2.65,1-1.5,2.13-2.9,3.4-4.2s2.8-1.95,4.6-1.95,3.34,.66,4.62,1.98c1.28,1.32,2.44,2.73,3.47,4.23,.6,.83,1.23,1.68,1.88,2.55,.65,.87,1.31,1.7,1.97,2.5,.97,1.07,1.92,2.17,2.85,3.3,.93,1.13,1.4,2.42,1.4,3.85,0,1.57-.48,2.92-1.45,4.05-.97,1.13-2.2,1.7-3.7,1.7-1.9,0-3.74-.16-5.52-.47-1.78-.32-3.62-.47-5.52-.47s-3.74,.16-5.52,.47c-1.78,.32-3.62,.47-5.52,.47Z"/></g></svg>