<?xml version="1.0" encoding="utf-8"?>
<!-- Generator: Adobe Illustrator 26.3.1, SVG Export Plug-In . SVG Version: 6.00 Build 0)  -->
<svg version="1.1" id="レイヤー_1" xmlns="http://www.w3.org/2000/svg" xmlns:xlink="http://www.w3.org/1999/xlink" x="0px"
	 y="0px" viewBox="0 0 42.2 45.1" style="enable-background:new 0 0 42.2 45.1;" xml:space="preserve">
<style type="text/css">
	.st0{fill:#F2C62F;}
</style>
<path class="st0" d="M31.9,5.9h-4.6c-0.4,0-0.7-0.3-0.7-0.7c0,0,0,0,0,0l0,0V1.5c0-0.4,0.3-0.7,0.7-0.7h4.6c0.4,0,0.7,0.3,0.7,0.7
	v3.7C32.6,5.6,32.3,5.9,31.9,5.9L31.9,5.9"/>
<path class="st0" d="M33.5,45.1h-8c-1.5,0-2.7-1.2-2.7-2.7V22.6c0-1.6,0.8-3.1,2.1-4c0.9-0.6,1.5-1.7,1.5-2.8V7.8
	c0-0.4,0.3-0.7,0.7-0.7c0,0,0,0,0,0h4.6c0.4,0,0.7,0.3,0.7,0.7c0,0,0,0,0,0l0,0v8c0,1.1,0.6,2.2,1.5,2.8c1.3,0.9,2.1,2.4,2.1,4v19.8
	C36.2,43.9,35,45.1,33.5,45.1 M24.3,38h10.4V27.2H24.3L24.3,38z"/>
<path class="st0" d="M41.5,45.1H0.7c-0.4,0-0.7-0.3-0.7-0.7c0-0.4,0.3-0.7,0.7-0.7h40.8c0.4,0,0.7,0.3,0.7,0.7
	C42.2,44.8,41.9,45.1,41.5,45.1"/>
<path class="st0" d="M18.2,9.2H6.7C6.4,9.2,6.1,9,6.1,8.6c0,0,0,0,0,0V8.5l0.6-7.9C6.7,0.3,6.9,0,7.3,0h10.4c0.3,0,0.6,0.3,0.6,0.6
	l0.6,7.9C18.9,8.9,18.7,9.2,18.2,9.2C18.3,9.2,18.3,9.2,18.2,9.2L18.2,9.2"/>
<path class="st0" d="M18.9,10.9c0-0.3-0.3-0.6-0.6-0.6H6.6c-0.3,0-0.6,0.3-0.6,0.6L5.3,44l0,0c0,0.4,0.3,0.6,0.6,0.6h13
	c0.4,0,0.6-0.3,0.6-0.6c0,0,0,0,0,0L18.9,10.9z M15.9,39.4H9c-0.4,0-0.6-0.3-0.6-0.6l0,0l0.3-19.3c0-0.1,0-0.2,0-0.3
	c0-0.2,0-0.4,0-0.5l0,0c0-0.1,0-0.1,0-0.2c0.4-2.1,2.4-3.4,4.5-3c1.5,0.3,2.7,1.5,3,3c0,0.1,0,0.1,0,0.2v0.1c0,0.2,0,0.3,0,0.5v0.4
	l0.3,19.3C16.5,39.1,16.3,39.4,15.9,39.4C15.9,39.4,15.9,39.4,15.9,39.4L15.9,39.4"/>
</svg>
