<?xml version="1.0" encoding="UTF-8"?><svg id="b" xmlns="http://www.w3.org/2000/svg" viewBox="0 0 39.34 39.95"><defs><style>.d{fill:#e84f3a;}</style></defs><g id="c"><path class="d" d="M11.8,39.95c-1,0-1.85-.35-2.55-1.05-.7-.7-1.05-1.55-1.05-2.55s.35-1.85,1.05-2.55c.7-.7,1.55-1.05,2.55-1.05s1.81,.35,2.52,1.05,1.08,1.55,1.08,2.55-.35,1.85-1.05,2.55-1.55,1.05-2.55,1.05Zm20,0c-1,0-1.85-.35-2.55-1.05-.7-.7-1.05-1.55-1.05-2.55s.35-1.85,1.05-2.55c.7-.7,1.55-1.05,2.55-1.05s1.81,.35,2.53,1.05,1.08,1.55,1.08,2.55-.35,1.85-1.05,2.55-1.55,1.05-2.55,1.05ZM9.2,6.95l5.5,11.4h14.4l6.25-11.4H9.2Zm-1.5-3h29.45c1.07,0,1.74,.32,2.03,.98,.28,.65,.19,1.38-.28,2.18l-6.75,12.15c-.33,.57-.8,1.06-1.4,1.48-.6,.42-1.25,.62-1.95,.62H13.65l-2.8,5.2h24.55v3H11.3c-1.4,0-2.41-.47-3.02-1.4-.62-.93-.61-1.98,.02-3.15l3.2-5.9L3.9,3H0V0H5.85l1.85,3.95Zm7,14.4L9.2,6.95h26.15l-6.25,11.4H14.7Z"/></g></svg>