<?xml version="1.0" encoding="UTF-8"?><svg id="b" xmlns="http://www.w3.org/2000/svg" viewBox="0 0 40 36"><defs><style>.d{fill:#e84f3a;}</style></defs><g id="c"><path class="d" d="M28.9,9.6V3H11.1v6.6h-3V0H31.9V9.6h-3ZM3,12.6h0Zm29.95,4.75c.4,0,.75-.15,1.05-.45,.3-.3,.45-.65,.45-1.05s-.15-.75-.45-1.05c-.3-.3-.65-.45-1.05-.45s-.75,.15-1.05,.45c-.3,.3-.45,.65-.45,1.05s.15,.75,.45,1.05,.65,.45,1.05,.45Zm-4.05,15.65v-9.6H11.1v9.6H28.9Zm3,3H8.1v-8.8H0V14.9c0-1.5,.51-2.76,1.53-3.77,1.02-1.02,2.28-1.52,3.78-1.52h29.4c1.5,0,2.76,.51,3.78,1.52,1.02,1.02,1.52,2.27,1.52,3.77v12.3h-8.1v8.8Zm5.1-11.8V14.9c0-.67-.22-1.22-.65-1.65-.43-.43-.98-.65-1.65-.65H5.3c-.67,0-1.22,.22-1.65,.65-.43,.43-.65,.98-.65,1.65v9.3h5.1v-3.8H31.9v3.8h5.1Z"/></g></svg>