<svg xmlns="http://www.w3.org/2000/svg" width="45.419" height="32.049" viewBox="0 0 45.419 32.049"><path d="M45.385,88.73a8.657,8.657,0,0,0-3.758-6.364c-7.428-5.04-13.264-.8-18.039-1.857s-9.36-3.933-12.2-4.775a8.82,8.82,0,0,0-11.329,9.4v3.3a9.677,9.677,0,0,0,.982,5.333c4.333,8.978,21.409,14.459,32.1,13.529,7.605-.662,11.911-6.163,12.282-11.437C45.419,95.866,45.385,88.91,45.385,88.73Zm-2.61,3.254c-.874,3.352-3.918,7.119-9.844,7.635-.712.063-1.47.093-2.254.093A44.274,44.274,0,0,1,14.292,96.2C8.72,93.837,4.776,90.72,3.188,87.43a6.682,6.682,0,0,1,.161-6.653,6.5,6.5,0,0,1,5.461-3.033,6.7,6.7,0,0,1,1.9.279,32.821,32.821,0,0,1,3.718,1.568,43.363,43.363,0,0,0,8.646,3.25,10.445,10.445,0,0,0,2.279.235,26.7,26.7,0,0,0,4.037-.417,27.452,27.452,0,0,1,4.2-.43,11.453,11.453,0,0,1,6.7,2.115A6.887,6.887,0,0,1,42.775,91.984Z" transform="translate(0 -75.356)" fill="#fc8905"/><path d="M72.644,134.4a52.65,52.65,0,0,1-7.58-3.02,32.1,32.1,0,0,0-3.354-1.43,4.038,4.038,0,0,0-1.143-.171,3.832,3.832,0,0,0-3.214,1.79,4.133,4.133,0,0,0-.018,4.09c1.289,2.672,4.844,5.4,9.752,7.487,2.156.753,5.6.753,5.6-1.634C72.692,139.141,71.1,137.134,72.644,134.4Z" transform="translate(-51.757 -124.951)" fill="#fc8905"/><path d="M271.983,181.984a8.8,8.8,0,0,0-5.211-1.656,24.91,24.91,0,0,0-3.793.4,29.143,29.143,0,0,1-4.444.448,13.438,13.438,0,0,1-2.279-.187c-.544,1.339-.512,4.038.253,6.588.8,2.652.8,3.581,3.051,4.51a16.28,16.28,0,0,0,4.3.42c.706,0,1.387-.028,2.024-.083,5.727-.5,7.194-4.459,7.507-5.662C273.593,186,274.076,183.405,271.983,181.984Zm-7.649,5.858c-2.785.265-3.316-3.05-.663-3.582C266.069,183.78,268.33,187.462,264.334,187.842Z" transform="translate(-233.186 -171.016)" fill="#fc8905"/></svg>