<svg xmlns="http://www.w3.org/2000/svg" width="41.314" height="31.924" viewBox="0 0 41.314 31.924"><path d="M38.558,5.439A22.168,22.168,0,0,0,31.985,4.5c-3.662,0-7.606.751-10.328,2.817C18.934,5.251,14.99,4.5,11.328,4.5S3.723,5.251,1,7.317V34.828a1.01,1.01,0,0,0,.939.939c.188,0,.282-.094.469-.094a22.921,22.921,0,0,1,8.92-2.066c3.662,0,7.606.751,10.328,2.817a22.62,22.62,0,0,1,10.328-2.817,19.114,19.114,0,0,1,8.92,1.972.846.846,0,0,0,.469.094,1.01,1.01,0,0,0,.939-.939V7.317A12.809,12.809,0,0,0,38.558,5.439Zm0,25.352a21.822,21.822,0,0,0-6.573-.939,22.62,22.62,0,0,0-10.328,2.817v-21.6A22.62,22.62,0,0,1,31.985,8.256a21.822,21.822,0,0,1,6.573.939Z" transform="translate(-1 -4.5)" fill="#f2a246"/><g transform="translate(22.535 8.451)"><path d="M21.451,11.817a21.96,21.96,0,0,1,4.695.488V9.451A25.358,25.358,0,0,0,21.451,9,21.609,21.609,0,0,0,13,10.559v3.117A17.433,17.433,0,0,1,21.451,11.817Z" transform="translate(-13 -9)" fill="#f2a246"/><path d="M13,13.219v3.117a17.433,17.433,0,0,1,8.451-1.859,21.96,21.96,0,0,1,4.695.488V12.111a25.358,25.358,0,0,0-4.695-.451A21.955,21.955,0,0,0,13,13.219Z" transform="translate(-13 -6.665)" fill="#f2a246"/><path d="M21.451,14.33A21.609,21.609,0,0,0,13,15.889v3.117a17.433,17.433,0,0,1,8.451-1.859,21.96,21.96,0,0,1,4.695.488V14.781A23.844,23.844,0,0,0,21.451,14.33Z" transform="translate(-13 -4.321)" fill="#f2a246"/></g></svg>