<?xml version="1.0" encoding="UTF-8"?><svg id="b" xmlns="http://www.w3.org/2000/svg" viewBox="0 0 32 36.5"><g id="c"><path d="M0,22c0,3.17,.82,6.02,2.45,8.58,1.63,2.55,3.78,4.47,6.45,5.77-.77-.87-1.36-1.83-1.77-2.9-.42-1.07-.62-2.18-.62-3.35,0-1.27,.23-2.46,.7-3.58,.47-1.12,1.17-2.12,2.1-3.02l6.7-6.6,6.75,6.6c.9,.9,1.58,1.91,2.05,3.02,.47,1.12,.7,2.31,.7,3.58,0,1.17-.21,2.28-.62,3.35s-1.01,2.03-1.77,2.9c2.67-1.3,4.82-3.23,6.45-5.78,1.63-2.55,2.45-5.41,2.45-8.57,0-2.97-.73-5.69-2.2-8.17s-3.4-4.43-5.8-5.83l-.9,1.1c-.43,.53-.91,.92-1.42,1.15-.52,.23-1.06,.35-1.62,.35-1.03,0-1.97-.36-2.8-1.07-.83-.72-1.25-1.69-1.25-2.93V0l-2.5,1.47c-1.67,.98-3.5,2.41-5.5,4.28-2,1.87-3.83,4.17-5.5,6.9C.83,15.38,0,18.5,0,22Zm16-.9l-4.6,4.5c-.63,.6-1.11,1.28-1.42,2.05-.32,.77-.48,1.58-.48,2.45,0,1.77,.63,3.28,1.9,4.53,1.27,1.25,2.8,1.87,4.6,1.87s3.33-.62,4.6-1.88,1.9-2.76,1.9-4.53c0-.87-.17-1.68-.5-2.45-.33-.77-.8-1.45-1.4-2.05l-4.6-4.5Z"/></g></svg>