<?xml version="1.0" encoding="UTF-8"?><svg id="b" xmlns="http://www.w3.org/2000/svg" viewBox="0 0 41.45 41.45"><g id="c"><path d="M27.75,30.5l2.7-2.65-7.8-7.9V10.2h-3.6v11.25l8.7,9.05Zm-7.05,10.95c-2.83,0-5.51-.54-8.02-1.62-2.52-1.08-4.72-2.57-6.6-4.45-1.88-1.88-3.37-4.08-4.45-6.58C.54,26.3,0,23.62,0,20.75c0-2.83,.54-5.51,1.63-8.02,1.08-2.52,2.57-4.72,4.45-6.6,1.88-1.88,4.08-3.38,6.6-4.47,2.52-1.1,5.19-1.65,8.02-1.65s5.51,.55,8.03,1.65c2.52,1.1,4.72,2.59,6.6,4.47,1.88,1.88,3.38,4.08,4.47,6.6,1.1,2.52,1.65,5.19,1.65,8.02s-.55,5.51-1.65,8.03c-1.1,2.52-2.59,4.72-4.47,6.6s-4.08,3.37-6.58,4.45c-2.5,1.08-5.18,1.62-8.05,1.62Zm0-3.95c4.6,0,8.54-1.63,11.83-4.9s4.92-7.22,4.92-11.85-1.64-8.54-4.92-11.82c-3.28-3.28-7.23-4.93-11.83-4.93s-8.54,1.64-11.82,4.93c-3.28,3.28-4.93,7.22-4.93,11.82s1.64,8.58,4.93,11.85c3.28,3.27,7.22,4.9,11.82,4.9Z"/></g></svg>