<svg xmlns="http://www.w3.org/2000/svg" width="50.568" height="32.883" viewBox="0 0 50.568 32.883"><g transform="translate(0 -89.531)"><path d="M177.54,108.79a66.179,66.179,0,0,1-4.973-8.458,95.312,95.312,0,0,1-4.021-9.262,58.094,58.094,0,0,1-7.309.476,54.293,54.293,0,0,1-14.914-2.014A76.688,76.688,0,0,0,162.6,122.415l19.843-7.975A33.57,33.57,0,0,1,177.54,108.79Z" transform="translate(-131.871 0)" fill="#fc8905"/><path d="M10.512,121.138A97.138,97.138,0,0,1,0,139.95l8.6,1.488,3.338-11.39s1.817,7.471,5.654,7.875l.119,5.092,10.2,1.765a79.121,79.121,0,0,1-14.883-30.037C12.412,116.456,11.579,118.645,10.512,121.138Z" transform="translate(0 -22.722)" fill="#fc8905"/></g></svg>