<?xml version="1.0" encoding="UTF-8"?><svg id="b" xmlns="http://www.w3.org/2000/svg" viewBox="0 0 40 40"><defs><style>.d{fill:#505050;}</style></defs><g id="c"><path class="d" d="M20,40c-2.8,0-5.42-.52-7.85-1.58-2.43-1.05-4.55-2.47-6.35-4.27-1.8-1.8-3.22-3.92-4.25-6.38-1.03-2.45-1.55-5.08-1.55-7.88s.52-5.41,1.55-7.82c1.03-2.42,2.45-4.53,4.25-6.33,1.8-1.8,3.92-3.21,6.35-4.22,2.43-1.02,5.05-1.53,7.85-1.53s5.42,.51,7.85,1.53c2.43,1.02,4.55,2.43,6.35,4.22,1.8,1.8,3.22,3.91,4.25,6.33,1.03,2.42,1.55,5.02,1.55,7.82s-.52,5.42-1.55,7.88c-1.03,2.45-2.45,4.58-4.25,6.38-1.8,1.8-3.92,3.23-6.35,4.28-2.43,1.05-5.05,1.57-7.85,1.57Zm0-2.9c1.17-1.2,2.14-2.58,2.92-4.12,.78-1.55,1.43-3.39,1.93-5.52H15.2c.47,2,1.09,3.8,1.88,5.4,.78,1.6,1.76,3.02,2.92,4.25Zm-4.25-.6c-.83-1.27-1.55-2.63-2.15-4.1-.6-1.47-1.1-3.12-1.5-4.95H4.6c1.27,2.37,2.73,4.22,4.4,5.58s3.92,2.51,6.75,3.47Zm8.55-.05c2.4-.77,4.56-1.92,6.47-3.45,1.92-1.53,3.46-3.38,4.62-5.55h-7.45c-.43,1.8-.94,3.43-1.52,4.9-.58,1.47-1.29,2.83-2.12,4.1ZM3.6,24.45h7.95c-.1-.9-.16-1.71-.18-2.42-.02-.72-.02-1.43-.02-2.12,0-.83,.02-1.57,.05-2.23,.03-.65,.1-1.38,.2-2.17H3.6c-.23,.8-.39,1.52-.47,2.15-.08,.63-.12,1.38-.12,2.25,0,.87,.04,1.64,.12,2.33,.08,.68,.24,1.42,.47,2.23Zm11.05,0h10.75c.13-1.03,.22-1.87,.25-2.52,.03-.65,.05-1.33,.05-2.02s-.02-1.31-.05-1.92c-.03-.62-.12-1.44-.25-2.48H14.65c-.13,1.03-.22,1.86-.25,2.48-.03,.62-.05,1.26-.05,1.92,0,.7,.02,1.38,.05,2.02s.12,1.49,.25,2.53Zm13.75,0h8c.23-.8,.39-1.54,.47-2.23,.08-.68,.13-1.46,.13-2.33s-.04-1.62-.12-2.25c-.08-.63-.24-1.35-.47-2.15h-7.95c.1,1.17,.17,2.06,.2,2.67,.03,.62,.05,1.19,.05,1.73,0,.73-.03,1.42-.08,2.08-.05,.65-.12,1.48-.23,2.48Zm-.5-11.95h7.5c-1.1-2.3-2.61-4.22-4.53-5.75-1.92-1.53-4.12-2.62-6.62-3.25,.83,1.23,1.54,2.57,2.12,4s1.09,3.1,1.52,5Zm-12.7,0h9.7c-.37-1.77-.98-3.47-1.85-5.12-.87-1.65-1.88-3.11-3.05-4.38-1.07,.9-1.97,2.08-2.7,3.55-.73,1.47-1.43,3.45-2.1,5.95Zm-10.6,0h7.55c.37-1.8,.83-3.41,1.4-4.82,.57-1.42,1.28-2.79,2.15-4.12-2.5,.63-4.68,1.7-6.55,3.2s-3.38,3.42-4.55,5.75Z"/></g></svg>