<?xml version="1.0" encoding="UTF-8"?><svg id="b" xmlns="http://www.w3.org/2000/svg" viewBox="0 0 96.25 14.09"><defs><style>.d{fill:#fff;}.e{fill:#d71618;}</style></defs><g id="c"><g><rect class="e" width="96.25" height="14.09"/><g><path class="d" d="M5.21,5.11c0,.06-.05,.12-.11,.12,0,0,0,0-.02,0-.63-.15-1.07-.52-1.31-.96h-.18c-.13,.1-.28,.19-.42,.26v.43c.23-.03,.47-.06,.71-.11,.01,0,.02,0,.02,0,.06,0,.08,.04,.08,.09,0,.04-.02,.09-.06,.1-.41,.1-.92,.16-1.36,.18h0c-.06,0-.1-.07-.1-.13,0-.04,.02-.08,.08-.08,.14,0,.28-.01,.42-.02v-.35c-.2,.08-.4,.13-.58,.17,0,0-.02,0-.03,0-.07,0-.12-.07-.12-.13,0-.04,.02-.07,.07-.08,.41-.07,.74-.15,1.05-.32h-.93c-.12,0-.12-.19,0-.19h1.23v-.14c0-.06,.06-.09,.12-.09s.12,.03,.12,.09v.14h1.15c.12,0,.12,.19,0,.19h-1.06c.09,.16,.24,.3,.39,.42,.15-.09,.29-.21,.41-.32,.02-.02,.04-.02,.05-.02,.06,0,.11,.06,.11,.11,0,.03,0,.05-.03,.07-.12,.1-.24,.18-.38,.26,.18,.1,.39,.19,.62,.24,.05,.01,.08,.05,.08,.08Zm-1.93-2.1v.2h.42c.21,0,.29,.07,.29,.22v.15c0,.16-.07,.24-.3,.24-.05,0-.12,0-.19-.01-.06,0-.09-.05-.09-.1s.03-.09,.07-.09h0c.09,0,.15,.02,.19,.02,.07,0,.09-.02,.09-.08v-.11c0-.06-.03-.08-.08-.08h-.42v.51c0,.13-.2,.13-.2,0v-.51h-.39c-.05,0-.08,.02-.08,.08v.35c0,.06-.05,.09-.1,.09-.05,0-.11-.03-.11-.09v-.34c0-.16,.09-.25,.3-.25h.37v-.2h-.74c-.1,0-.1-.18,0-.18h.74v-.21h-.44c-.05,.06-.11,.12-.16,.16-.02,.02-.04,.02-.06,.02-.05,0-.09-.04-.09-.08,0-.02,0-.04,.03-.06,.09-.08,.22-.24,.28-.33,.02-.03,.05-.05,.08-.05,.04,0,.08,.03,.08,.08,0,.01,0,.03-.01,.05,0,.02-.02,.03-.03,.05h.31v-.13c0-.1,.2-.1,.2,0v.13h.65s.07,.04,.07,.09-.02,.09-.07,.09h-.65v.21h.79c.1,0,.1,.18,0,.18h-.79Zm1.36,.91c-.1,0-.22-.01-.37-.03-.05,0-.08-.06-.08-.11s.03-.11,.08-.11h.02c.15,.03,.25,.04,.33,.04,.16,0,.18-.08,.18-.28v-1.09c0-.13,.21-.13,.21,0v1.08c0,.37-.06,.49-.37,.49Zm-.39-.53v-.96c0-.13,.21-.13,.21,0v.96c0,.13-.21,.13-.21,0Z"/><path class="d" d="M8.44,4.89c.05,0,.08,.04,.08,.08,0,.06-.05,.14-.13,.14-.36,.02-.67,.03-.94,.03-.66,0-1.09-.08-1.35-.37-.1,.15-.24,.31-.38,.43-.02,.01-.04,.02-.05,.02-.06,0-.11-.06-.11-.13,0-.03,.01-.07,.05-.1,.13-.1,.26-.24,.35-.36v-.93c0-.06-.03-.09-.09-.09h-.21c-.06,0-.09-.05-.09-.1,0-.05,.03-.11,.09-.11h.25c.18,0,.26,.12,.26,.25v.9c.2,.28,.57,.39,1.23,.39,.29,0,.64-.02,1.05-.06h0Zm-2.31-2.05c0,.06-.06,.12-.12,.12-.03,0-.07-.02-.09-.06-.06-.09-.15-.24-.27-.39-.02-.03-.03-.05-.03-.07,0-.06,.05-.1,.11-.1,.03,0,.07,.02,.1,.05,.11,.14,.22,.3,.29,.41,.01,.02,.02,.04,.02,.05Zm.25,.6c-.13,0-.13-.19,0-.19h.98v-.45h-.63c-.06,.11-.12,.22-.19,.3-.02,.02-.05,.03-.07,.03-.06,0-.13-.05-.13-.11,0-.02,0-.04,.02-.06,.18-.21,.27-.4,.33-.6,.01-.04,.05-.06,.09-.06,.05,0,.11,.04,.11,.09,0,0,0,.02,0,.03-.02,.06-.04,.12-.07,.19h.54v-.26c0-.13,.21-.13,.21,0v.26h.75c.13,0,.13,.18,0,.18h-.75v.45h.85c.13,0,.13,.19,0,.19h-2.04Zm1.66,1.24h-1.23c-.25,0-.34-.09-.34-.34v-.28c0-.25,.1-.34,.34-.34h1.23c.25,0,.34,.09,.34,.34v.28c0,.25-.09,.34-.34,.34Zm.13-.63c0-.08-.04-.13-.13-.13h-1.25c-.09,0-.13,.04-.13,.13v.3c0,.09,.03,.13,.13,.13h1.25c.09,0,.13-.05,.13-.13v-.3Z"/><path class="d" d="M9.51,3.96c-.11,0-.19-.09-.19-.21s.09-.21,.19-.21,.2,.1,.2,.21-.09,.21-.2,.21Z"/><path class="d" d="M13.49,3.45c0,.07-.05,.14-.12,.14,0,0-.02,0-.03,0-.53-.16-1.02-.45-1.38-1-.34,.59-.79,.86-1.32,1-.01,0-.02,0-.03,0-.06,0-.11-.07-.11-.13,0-.04,.02-.08,.07-.09,.2-.05,.4-.11,.55-.2-.14-.1-.36-.22-.48-.3-.03-.02-.04-.04-.04-.06,0-.05,.06-.1,.12-.1,.02,0,.04,0,.06,.02,.18,.11,.33,.22,.49,.34,.17-.13,.33-.29,.46-.5h-.86c-.07,0-.1-.05-.1-.11s.03-.1,.09-.1h1.01c.09,0,.2,.04,.26,.13,.06,.09,.13,.19,.19,.26,.14-.13,.25-.29,.35-.44,.02-.03,.04-.04,.07-.04,.06,0,.12,.05,.12,.11,0,.02,0,.04-.02,.05-.12,.16-.26,.31-.41,.43,.1,.1,.21,.18,.32,.25,.19-.16,.33-.35,.43-.49,.02-.03,.04-.04,.07-.04,.06,0,.12,.06,.12,.12,0,.02,0,.04-.02,.06-.08,.11-.29,.32-.44,.44,.15,.07,.32,.12,.49,.16,.05,.01,.07,.05,.07,.09Zm-.5,1.73h-.24c-.33,0-.44-.1-.44-.43v-.44h-.68c-.08,.48-.31,.75-.95,.92,0,0-.02,0-.03,0-.07,0-.13-.07-.13-.14,0-.04,.02-.07,.07-.08,.57-.15,.77-.34,.83-.71h-.72c-.13,0-.13-.2,0-.2h.74c0-.15,0-.33,0-.53h-.25c-.13,0-.13-.19,0-.19h1.58c.13,0,.13,.19,0,.19h-.27v.53h.78c.13,0,.13,.2,0,.2h-.78v.45c0,.16,.05,.21,.22,.21h.25c.2,0,.22-.03,.26-.35,0-.07,.06-.11,.12-.11,.06,0,.12,.04,.12,.12,0,0,0,.01,0,.02-.06,.44-.16,.52-.49,.52Zm-.68-1.6h-.64c0,.19,0,.37-.02,.53h.65v-.53Z"/><path class="d" d="M13.96,5.23s-.01,0-.02,0c-.07,0-.11-.07-.11-.13,0-.04,.02-.08,.07-.09,.65-.11,.89-.52,.89-1.06,0-.06,.05-.08,.1-.08,.06,0,.11,.03,.11,.09,0,.66-.29,1.12-1.04,1.26Zm1.46-2.54v.35h1.16c.12,0,.12,.2,0,.2h-2.53c-.12,0-.12-.2,0-.2h1.14v-.35h-1.27c-.12,0-.12-.2,0-.2h1.27v-.14c0-.07,.06-.1,.12-.1,.06,0,.12,.03,.12,.1v.14h1.29c.12,0,.12,.2,0,.2h-1.29Zm1.1,1.43v-.26c0-.11-.03-.11-.15-.11h-2.11c-.12,0-.15,0-.15,.11v.3c0,.13-.22,.13-.22,0v-.28c0-.27,.13-.34,.38-.34h2.1c.25,0,.38,.07,.38,.34v.25c0,.13-.22,.13-.22,0Zm-.2,1.04h-.29c-.36,0-.46-.1-.46-.45v-.74c0-.12,.22-.12,.22,0v.76c0,.17,.04,.22,.23,.22h.29c.19,0,.23-.03,.29-.35,0-.04,.05-.06,.09-.06,.05,0,.11,.03,.11,.09,0,0,0,0,0,.02-.08,.44-.21,.52-.48,.52Z"/><path class="d" d="M19.6,5.15h-.24c-.38,0-.47-.11-.47-.45v-1.17h-.65c0,.84-.28,1.31-.94,1.69-.02,0-.03,.01-.05,.01-.06,0-.11-.06-.11-.12,0-.04,.02-.07,.05-.09,.62-.38,.82-.73,.83-1.5h-.74c-.13,0-.13-.22,0-.22h2.69c.13,0,.13,.22,0,.22h-.85v1.19c0,.18,.02,.22,.24,.22h.24c.18,0,.25-.06,.31-.5,0-.05,.05-.08,.1-.08,.05,0,.12,.04,.12,.1,0,0,0,.01,0,.02-.1,.61-.22,.68-.51,.68Zm-2.14-2.52c-.13,0-.13-.21,0-.21h2.34c.13,0,.13,.21,0,.21h-2.34Z"/></g><g><path class="d" d="M73.45,9.55c0,.12-.09,.2-.18,.2-.05,0-.09-.02-.12-.09-.1-.26-.2-.54-.34-.93v3.29c0,.23-.34,.23-.34,0v-3.11c-.16,.67-.26,1.14-.43,1.54-.03,.06-.08,.09-.13,.09-.1,0-.2-.09-.2-.21,0-.04,.01-.08,.03-.12,.26-.46,.54-1.23,.7-1.83h-.51c-.23,0-.23-.36,0-.36h.54v-.87c0-.23,.34-.23,.34,0v.87h.49c.23,0,.23,.36,0,.36h-.49c.23,.38,.44,.75,.61,1.06,.02,.03,.03,.07,.03,.1Zm3.48,1.92c0,.11-.1,.23-.22,.23-.04,0-.08-.02-.12-.06-.41-.41-.85-.96-1.21-1.66v2.04c0,.12-.09,.18-.18,.18s-.19-.06-.19-.18v-1.99c-.4,.73-.82,1.21-1.39,1.65-.04,.03-.08,.05-.12,.05-.12,0-.21-.12-.21-.23,0-.05,.02-.1,.08-.14,.52-.37,1.16-.89,1.63-1.68h-1.31c-.23,0-.23-.35,0-.35h1.32v-1.09h-.81c-.1,.24-.21,.48-.35,.71-.03,.06-.09,.08-.14,.08-.11,0-.22-.09-.22-.2,0-.03,0-.06,.03-.09,.32-.5,.48-.95,.58-1.48,.02-.09,.09-.12,.16-.12,.09,0,.2,.06,.2,.16,0,.01,0,.02,0,.03-.05,.24-.08,.38-.13,.56h.68v-.7c0-.12,.09-.19,.19-.19,.09,0,.18,.06,.18,.19v.7h1.18c.22,0,.22,.35,0,.35h-1.18v1.09h1.32c.23,0,.23,.35,0,.35h-1.3c.57,.9,1.04,1.34,1.48,1.68,.04,.03,.06,.08,.06,.12Z"/><path class="d" d="M77.72,12.04h-.03c-.12,0-.18-.11-.18-.21,0-.08,.04-.16,.13-.16,.35-.03,.72-.09,1.08-.14v-2.38h-.92c-.22,0-.22-.35,0-.35h2.29c.22,0,.22,.35,0,.35h-1v2.31c.48-.08,.9-.17,1.11-.23,.02,0,.03,0,.05,0,.11,0,.19,.09,.19,.19,0,.08-.05,.15-.16,.17-.98,.22-1.6,.32-2.57,.46Zm4.17,.15c-.8,0-1.26-1.5-1.34-4.24h-2.86c-.22,0-.22-.35,0-.35h2.86c0-.13,0-.27,0-.41,0-.24,.39-.24,.39,0v.41h1.05c-.08-.1-.16-.2-.24-.3-.02-.03-.03-.06-.03-.09,0-.08,.09-.15,.18-.15,.05,0,.1,.02,.14,.07,.21,.28,.45,.63,.6,.93,.02,.03,.02,.06,.02,.09,0,.1-.09,.18-.19,.18-.06,0-.11-.03-.14-.09-.05-.09-.09-.2-.14-.3h-1.25c.08,2.83,.59,3.85,.98,3.85,.22,0,.34-.39,.45-1.07,.02-.1,.09-.14,.17-.14,.1,0,.21,.06,.21,.17,0,.01,0,.02,0,.03-.16,.92-.34,1.39-.84,1.39Z"/><path class="d" d="M88.52,8.43c0,.11-.08,.23-.2,.23-.02,0-.04,0-.06-.01-.91-.32-1.46-.67-2.23-1.22-.03-.02-.06-.03-.1-.03s-.06,.01-.09,.03c-.68,.52-1.27,.87-2.27,1.21-.03,.01-.06,.01-.08,.01-.12,0-.19-.1-.19-.2,0-.08,.04-.16,.13-.19,.9-.29,1.46-.6,2.16-1.15,.2-.16,.47-.16,.67,0,.67,.53,1.2,.82,2.14,1.15,.09,.03,.12,.1,.12,.17Zm-.06,3.59c0,.11-.11,.19-.21,.19-.06,0-.12-.03-.16-.09-.09-.16-.19-.3-.28-.43-1.29,.23-2.38,.32-4.24,.39h-.01c-.13,0-.2-.1-.2-.2s.06-.2,.19-.2c.16,0,.32,0,.47,0,.38-.52,.57-.93,.83-1.54h-1.3c-.23,0-.23-.37,0-.37h4.73c.23,0,.23,.37,0,.37h-2.99c-.26,.6-.48,1.02-.85,1.53,1.24-.04,2.17-.13,3.15-.3-.2-.24-.43-.49-.64-.71-.03-.03-.05-.07-.05-.1,0-.09,.09-.17,.2-.17,.05,0,.1,.02,.16,.07,.39,.42,.8,.89,1.16,1.47,.02,.03,.03,.07,.03,.1Zm-4.39-3.07c-.23,0-.23-.37,0-.37h3.69c.23,0,.23,.37,0,.37h-3.69Z"/><path class="d" d="M91.42,10.03c0,.11-.08,.23-.17,.23-.03,0-.06-.01-.1-.05-.21-.21-.47-.44-.7-.63v2.47c0,.21-.37,.21-.37,0v-2.2c-.22,.18-.46,.35-.72,.49-.02,.01-.04,.02-.06,.02-.1,0-.19-.13-.19-.24,0-.06,.03-.12,.09-.14,.76-.39,1.36-.91,1.7-1.62,.01-.02,.02-.05,.02-.08,0-.04-.03-.07-.13-.07h-1.37c-.2,0-.2-.33,0-.33h.65v-.72c0-.21,.38-.21,.38,0v.72h.42c.26,0,.41,.15,.41,.37,0,.1-.03,.22-.1,.35-.13,.23-.31,.47-.53,.72,.24,.19,.5,.39,.71,.58,.04,.03,.06,.09,.06,.13Zm.05,1.94c-.21,0-.21-.35,0-.35h1.23v-3.07h-.94c-.21,0-.21-.35,0-.35h.94v-1.04c0-.23,.39-.23,.39,0v1.04h.93c.21,0,.21,.35,0,.35h-.93v3.07h1.06c.2,0,.2,.35,0,.35h-2.69Z"/></g><path class="d" d="M42.81,2.38c.37,0,.18,.48,.18,.73-.91,2.18-1.82,4.36-2.73,6.54-1.51,3.03-5.21,2.36-8.12,2.48-.18-.06-.18-.24-.12-.42l.97-2.18,.18-.18c1.39-.12,2.85,.12,4.18-.12,1.09-.6,1.45-1.82,2-2.84l1.57-3.75c.12-.12,.14-.24,.45-.24h1.44Z"/><path class="d" d="M52.17,2.38c.47,0,.44,.3,.38,.42-1.21,2.6-1.94,5.33-3.57,7.69-.73,1.03-1.82,1.69-3.15,1.63h-2.85c-.12-.12-.06-.36,0-.48,.18-.37,.24-.85,.61-1.09,.91-.18,2.24,.36,2.91-.55,1.09-1.39,1.45-3.09,2.18-4.6,.06-.12-.12-.12-.18-.18h-4.06c-.18-.06-.12-.3-.06-.36l.91-2.12c.06-.12,.22-.36,.74-.36h6.14Z"/><path class="d" d="M67.2,2.38c.31,0,.18,.55,.12,.79l-2.18,5.15c-.06,.24-.06,.55,.06,.73,.79,.79,2.12,.55,3.21,.73l-.06,.3c-.24,.67-.49,1.33-.85,1.94-.48,.12-1.03,.06-1.51,.06-.97-.18-1.64-.97-1.94-1.82-.79,1.15-2.06,1.94-3.57,1.82h-2.06c-.3-.24,.06-.55,.12-.73,.18-.3,.12-.85,.61-.85,.85-.06,1.94,.18,2.48-.61,1.03-1.39,1.46-3.03,2.12-4.54,0-.06,0-.12-.12-.18h-2.6c-.18-.06-.12-.24-.12-.36l.94-2.23c.12-.12,.29-.19,.63-.19h4.73Z"/><path class="d" d="M69.2,2.62c-.3,.91-.73,1.76-1.09,2.6-.24,.3-.73,.12-1.03,.12-.06-.36,.18-.67,.3-1.03l.73-1.7c.24-.3,.67-.18,.97-.18l.12,.18Z"/><path class="d" d="M70.83,2.5c-.3,.91-.73,1.76-1.09,2.66-.18,.36-.67,.18-1.03,.18-.12-.06-.06-.24,0-.3l1.03-2.49c.3-.24,.67-.12,.97-.12l.12,.06Z"/><path class="d" d="M38.76,3.23c.21,0,.29,.42,.23,.55l-.67,1.51-.24,.18h-3.57c-.06-.06-.18,0-.18-.18,.24-.61,.48-1.21,.79-1.82,.24-.37,.46-.24,1.21-.24,.34,0,2.23,0,2.44,0Z"/><path class="d" d="M59.57,6.26c.18,.12,.06,.3,0,.42l-.79,1.82c-.12,.24-.36,.24-.55,.24l-6.18-.06c-.12,0-.18-.12-.18-.18l.85-2.06c.12-.06,.18-.18,.3-.18h6.54Z"/><path class="d" d="M25.24,3.23c.25-.49,.19-.84,.74-.84h1.52c.34,0,.15,.44-.14,1.15-.1,.24,.05,.29,.29,.29,.78,0,1.23,.23,1.47-.55,.34-.82,.47-.91,.83-.91h1.91c.34,0,.26,.38-.08,1.33,.24,.24,.79,.06,1.15,.12,.18,.12,.12,.3,.06,.42l-.73,1.63c-.42,.49-1.21-.06-1.64,.42-1.03,2.3-2.06,5.75-5.27,5.75h-2c-.12-.06-.12-.3-.06-.36l.67-1.58c.61-.3,1.33,0,1.88-.3,1.21-.91,1.39-2.3,2-3.51,.06-.12-.06-.18-.12-.24-.54,.06-1.15-.12-1.51,.18-.3,.48-.3,1.15-.85,1.45-.54,0-1.27,.06-1.88-.06-.06-.24,.12-.55,.24-.85,0-.24,.43-.61,.06-.73-.36-.06-.79,0-1.09-.06l-.06-.24,.73-1.76c.55-.48,1.7,.24,1.88-.79Z"/></g></g></svg>