<?xml version="1.0" encoding="UTF-8"?><svg id="b" xmlns="http://www.w3.org/2000/svg" xmlns:xlink="http://www.w3.org/1999/xlink" viewBox="0 0 62.76 62.76"><defs><style>.g{fill:url(#f);}.h{fill:url(#e);}.i{fill:none;}.j{fill:#231815;}.k{clip-path:url(#d);}</style><clipPath id="d"><path class="i" d="M26.54,29.36l-2.87-1.5V15.53l2.87,1.49v12.34Zm4.18-.93l-2.87-1.5V14.59l2.87,1.49v12.34Zm4.18-.93l-2.87-1.49V13.66l2.87,1.49v12.34Zm4.18-.93l-2.87-1.49V12.72l2.87,1.49v12.34Z"/></clipPath><radialGradient id="e" cx="23.07" cy="10.08" fx="23.07" fy="10.08" r="24.53" gradientTransform="translate(.07 -.15) rotate(.37)" gradientUnits="userSpaceOnUse"><stop offset=".65" stop-color="#eb6120"/><stop offset=".75" stop-color="#e60012"/></radialGradient><radialGradient id="f" cx="23.77" cy="8.63" fx="23.77" fy="8.63" r="16.29" gradientTransform="matrix(1, 0, 0, 1, 0, 0)" gradientUnits="userSpaceOnUse"><stop offset=".6" stop-color="#e60012"/><stop offset=".71" stop-color="#bb000b"/><stop offset=".84" stop-color="#940005"/><stop offset=".94" stop-color="#7b0001"/><stop offset="1" stop-color="#730000"/></radialGradient></defs><g id="c"><g><g><path class="j" d="M31.38,62.76C14.08,62.76,0,48.68,0,31.38S14.08,0,31.38,0s31.38,14.08,31.38,31.38-14.08,31.38-31.38,31.38ZM31.38,.5C14.35,.5,.5,14.35,.5,31.38s13.85,30.88,30.88,30.88,30.88-13.85,30.88-30.88S48.4,.5,31.38,.5Z"/><path class="j" d="M31.38,53.42c-12.15,0-22.04-9.89-22.04-22.04S19.23,9.34,31.38,9.34s22.04,9.89,22.04,22.04-9.89,22.04-22.04,22.04Zm0-43.58c-11.88,0-21.54,9.66-21.54,21.54s9.66,21.54,21.54,21.54,21.54-9.66,21.54-21.54S43.26,9.84,31.38,9.84Z"/></g><g><path class="j" d="M12.26,10.91l-1.63,1.84,.3,.26,1.36-1.53,1.61,1.43-1.12,1.27c.87-.02,1.84-.39,2.43-.74l.16,.51c-.27,.13-1.37,.64-2.67,.63l1.27,1.13-.31,.35-1.27-1.13c.15,.83,0,1.86-.3,2.74l-.52-.09c.33-.84,.51-1.72,.44-2.51l-1.12,1.26-1.61-1.43,1.35-1.52-.29-.26-1.63,1.83-.33-.29,1.63-1.84-.37-.33,.31-.35,.37,.33,1.63-1.84,.33,.29Zm-2.4,3.9l.36,.32,1.05-1.19-.36-.32-1.05,1.19Zm.65,.57l.37,.33,1.05-1.19-.37-.33-1.05,1.19Zm1.78-3.31l-1.07,1.2,.36,.32,1.07-1.2-.36-.32Zm.65,.57l-1.07,1.2,.37,.33,1.07-1.2-.37-.33Z"/><path class="j" d="M14.95,7.94l.23,.34-1.54,1.03-.23-.34,1.54-1.03Zm.61,.54l.23,.35-1.87,1.24-.23-.35,1.87-1.24Zm.28,.79l.23,.34-1.54,1.03-.23-.34,1.54-1.03Zm.48,.71l.23,.35-1.54,1.03-.23-.35,1.54-1.03Zm.28-1.53l1.75,2.64,.59-.39-2.25-3.38-1.24,.83-.25-.37,2.48-1.65,.25,.37-.85,.56,.91,1.37,.77-.51,.25,.38-.77,.51,1.09,1.63,.92-.62,.25,.37-2.64,1.76-.25-.37,.33-.22-1.76-2.64,.4-.26Zm.18,2.22l.99,1.48-1.54,1.03-.98-1.48,1.54-1.03Zm-.16,.59l-.77,.51,.54,.8,.77-.51-.54-.8Z"/><path class="j" d="M23.11,4.49l.85,.48c.14,.92,.19,1.62-.12,2.45-.15,.41-.6,1.42-1.9,2.12l-.4-.38c1.67-.88,2.3-2.17,1.85-4.23l-3.4,1.19-.17-.48,3.29-1.15Zm1.71-.76c.15,.42-.07,.88-.49,1.03-.42,.15-.88-.07-1.03-.49-.15-.43,.08-.88,.49-1.03,.42-.15,.88,.07,1.03,.49Zm-1.18,.41c.08,.23,.34,.35,.57,.27,.23-.08,.35-.34,.27-.57-.08-.24-.34-.36-.57-.27-.23,.08-.36,.33-.27,.57Z"/><path class="j" d="M30.43,4.29c-.02,2.36-1.06,3.21-3.29,3.72l-.2-.49c1.47-.29,2.83-.82,2.95-2.68l-3.94,.46-.06-.48,4.54-.53Zm-.51-1.31l.06,.48-3.78,.44-.06-.48,3.78-.44Z"/><path class="j" d="M34.65,7.93l-.55-.06,.3-2.69c-.85,.46-1.63,.72-2.4,.9l-.2-.51c1.7-.33,3.24-1.22,4.46-2.45l.45,.37c-.29,.27-.83,.78-1.71,1.34l-.34,3.1Z"/><path class="j" d="M36.9,7.42s.45,.14,.5,.16c.19-.21,1.25-1.46,2.5-3.44l.51,.28c-1.02,1.56-1.9,2.64-2.52,3.32,.89,.27,1.92,.55,2.81,.74-.09-.56-.15-.94-.43-1.84l.49-.07c.36,1.08,.52,1.85,.59,2.9l-.57,.06c0-.21,0-.33-.03-.58-1.19-.25-2.07-.42-4-.99l.12-.53Z"/><path class="j" d="M46.26,8.79l1.8,1.17-.27,.41-1.8-1.17-1.31,2.02,2.11,1.37-.26,.4-4.51-2.92,.26-.41,1.97,1.28,2.54-3.93,.42,.27-.97,1.5Z"/><path class="j" d="M49.25,13.42c-.52-.14-1.2-.44-1.71-.73l.32-.38c.16,.1,.35,.21,.64,.36l1.37-1.28-.44-.47,.33-.3,.44,.47,.9-.84,.31,.33-.9,.84,.36,.39-.33,.31-.36-.39-1.24,1.16c.29,.12,.45,.18,.6,.23l-.29,.31Zm2.63,2.29c-.42,.4-1.21,1.06-1.48,1.15-.17,.05-.37,.09-.61-.17l-.51-.55,.29-.36,.49,.53c.11,.12,.23,.07,.32,.02,.16-.1,.4-.27,.91-.71l-.27-.28c-.85,.35-1.69,.35-2.54,.03l.06-.46c.86,.34,1.6,.33,2.19,.13l-.34-.36c-1.16,.24-2.05-.19-2.39-.37l.12-.4c.34,.18,.97,.5,1.95,.43l-.38-.4c-.57-.01-.94-.15-1.15-.23l.1-.39c.63,.27,1.05,.31,1.7,.18l-.62-.67,.28-.26,2.56,2.74-.28,.26-1.64-1.75c-.18,.04-.29,.07-.46,.09l1.69,1.8Zm2.04-2.19l-1.36,1.28-2.06-2.2,1.36-1.28,2.06,2.2Zm-1.11,.43l-1.47-1.57-.31,.29,1.47,1.57,.31-.29Zm.54-.51l-1.47-1.57-.31,.29,1.47,1.57,.31-.29Z"/></g><g><path class="j" d="M57.82,22.06l.54-.16,.81,2.68-.54,.16-.34-1.12-4.25,1.29-.14-.44,4.25-1.29-.34-1.12Z"/><path class="j" d="M57.97,26.08c.32,.02,.61,.09,.87,.19,.26,.1,.48,.25,.65,.43,.17,.19,.28,.42,.32,.69,.04,.28,0,.53-.11,.75-.11,.23-.28,.43-.5,.6s-.48,.32-.78,.43c-.3,.12-.62,.2-.96,.25-.34,.05-.67,.06-.99,.04-.32-.02-.61-.09-.87-.19-.26-.1-.48-.25-.65-.44-.17-.19-.28-.42-.32-.69-.04-.27,0-.53,.11-.75,.11-.23,.28-.43,.5-.6,.22-.17,.48-.32,.78-.43,.3-.11,.62-.2,.96-.25s.67-.06,.99-.04Zm-1.65,.67c-.24,.08-.44,.18-.62,.31-.18,.12-.32,.27-.41,.44-.1,.17-.13,.36-.1,.57,.03,.21,.12,.38,.26,.52,.14,.13,.31,.24,.52,.3,.21,.07,.44,.11,.69,.12,.25,.01,.5,0,.75-.04,.25-.04,.49-.1,.73-.18,.24-.08,.45-.18,.62-.31,.18-.12,.32-.27,.41-.44,.1-.17,.13-.36,.1-.57-.03-.21-.12-.38-.26-.52s-.31-.24-.52-.3-.44-.11-.69-.12-.5,0-.75,.04c-.25,.04-.49,.1-.73,.18Z"/><path class="j" d="M60.01,31.2l-2.49-.04,2.47,1.81v.6l-2-1.5-3,1.49v-.59l2.55-1.23-.77-.59-1.75-.03v-.46l5,.07v.47Z"/><path class="j" d="M54.65,35.65l.08-.46,2.02,.33,3.13-.86-.09,.55-2.52,.65,2.18,1.4-.09,.52-2.7-1.8-2.02-.33Z"/><path class="j" d="M57.59,38.65c.28,.17,.51,.35,.69,.56,.19,.21,.31,.44,.39,.68,.07,.24,.06,.5-.03,.76-.09,.26-.23,.47-.44,.62-.2,.15-.44,.26-.72,.31-.28,.06-.57,.07-.89,.04-.32-.03-.64-.1-.97-.21-.32-.11-.62-.24-.9-.41-.28-.17-.51-.36-.69-.56-.19-.21-.31-.44-.38-.68s-.06-.5,.03-.76c.09-.26,.23-.47,.43-.63,.2-.15,.44-.26,.71-.31s.57-.07,.89-.03c.32,.03,.64,.1,.97,.21,.32,.11,.62,.24,.9,.41Zm-1.78-.14c-.25-.03-.48-.04-.7,0-.22,.03-.41,.1-.57,.21-.16,.11-.28,.26-.34,.46s-.07,.39,0,.58c.06,.18,.17,.35,.33,.51,.16,.16,.34,.29,.56,.41,.22,.12,.45,.22,.69,.3,.24,.08,.48,.14,.73,.17,.25,.03,.48,.04,.7,0,.22-.03,.41-.1,.57-.21,.16-.11,.28-.26,.34-.46,.07-.2,.07-.39,0-.58-.06-.18-.17-.35-.33-.51-.16-.16-.34-.29-.56-.41-.22-.12-.45-.22-.69-.3s-.48-.14-.73-.17Z"/><path class="j" d="M54.33,47.49c.22-.04,.4-.16,.53-.36,.05-.08,.1-.17,.12-.26,.03-.09,.04-.19,.02-.29-.01-.1-.05-.2-.12-.29-.07-.1-.17-.19-.3-.28-.13-.08-.25-.13-.36-.13-.12,0-.23,.03-.34,.08-.11,.06-.22,.13-.32,.22-.11,.09-.22,.18-.34,.27-.12,.09-.24,.17-.36,.25s-.26,.13-.41,.16c-.15,.03-.31,.03-.48-.01-.17-.04-.36-.12-.57-.26-.22-.15-.39-.31-.5-.48-.11-.18-.18-.35-.21-.52-.03-.17-.02-.35,.03-.51,.04-.16,.11-.31,.2-.45,.11-.16,.24-.3,.4-.4,.16-.11,.33-.18,.52-.21s.4-.02,.63,.04c.23,.06,.47,.17,.72,.34l-.24,.37c-.17-.12-.34-.19-.5-.23-.16-.04-.3-.04-.44-.02-.13,.02-.25,.07-.36,.15s-.2,.17-.27,.28c-.06,.09-.11,.18-.14,.29-.04,.1-.05,.21-.04,.32,0,.11,.05,.22,.12,.33,.07,.11,.18,.21,.33,.31,.14,.1,.28,.15,.4,.15,.12,0,.25-.02,.36-.07,.11-.05,.23-.12,.34-.21,.11-.09,.22-.18,.33-.27,.12-.09,.23-.18,.36-.25,.12-.08,.25-.14,.39-.17s.29-.04,.45,0c.16,.03,.34,.11,.53,.24,.21,.14,.37,.29,.49,.45,.11,.16,.19,.33,.22,.49,.03,.17,.03,.33,0,.49-.04,.16-.1,.3-.19,.44-.1,.15-.22,.27-.35,.37-.14,.09-.29,.15-.46,.18-.17,.02-.36,0-.56-.04-.2-.05-.42-.16-.65-.3l.24-.37c.31,.18,.58,.25,.8,.21Z"/><path class="j" d="M53.31,49.11l.42,.37-1.85,2.1-.42-.37,.77-.87-3.32-2.94,.31-.35,3.32,2.94,.77-.87Z"/><path class="j" d="M49.95,51.36c.15,.29,.25,.57,.29,.84,.05,.28,.04,.54-.03,.78-.07,.25-.21,.46-.42,.63-.21,.18-.45,.28-.7,.3-.25,.02-.51-.01-.78-.11-.26-.1-.52-.24-.78-.44-.26-.2-.49-.43-.71-.69s-.4-.54-.55-.82-.25-.57-.29-.84c-.05-.28-.04-.54,.03-.78,.07-.24,.21-.45,.42-.63,.21-.18,.45-.28,.7-.3s.51,.01,.77,.11c.26,.1,.52,.24,.78,.44,.26,.2,.49,.43,.71,.69,.22,.26,.4,.54,.55,.82Zm-1.44-1.05c-.19-.16-.39-.28-.59-.37-.2-.09-.4-.13-.59-.12-.19,0-.37,.08-.54,.21-.16,.14-.26,.3-.31,.49-.04,.19-.04,.39,.01,.6,.05,.21,.14,.43,.26,.65,.12,.22,.26,.42,.43,.62,.16,.19,.34,.37,.53,.53,.19,.16,.39,.28,.59,.37,.2,.09,.4,.13,.59,.12,.19,0,.37-.08,.54-.21,.16-.14,.27-.3,.31-.49,.04-.19,.04-.39-.01-.6-.05-.21-.14-.43-.26-.65-.12-.22-.26-.42-.42-.62-.16-.19-.34-.37-.53-.53Z"/><path class="j" d="M44.85,56.01c.24,.06,.47,.03,.68-.09,.18-.11,.31-.24,.38-.42,.07-.17,.1-.36,.09-.58-.01-.21-.06-.43-.14-.67-.08-.23-.19-.46-.32-.69-.14-.25-.3-.47-.47-.66-.17-.2-.34-.35-.52-.47-.18-.12-.36-.18-.55-.2-.19-.02-.37,.02-.55,.13-.13,.08-.23,.18-.3,.3-.07,.12-.1,.26-.11,.42,0,.15,0,.32,.05,.5s.12,.36,.21,.54l-.4,.23c-.28-.57-.39-1.07-.35-1.5,.05-.43,.26-.76,.65-.99,.23-.14,.47-.2,.71-.19,.24,.01,.48,.09,.71,.22,.23,.13,.46,.32,.68,.56,.22,.24,.42,.52,.6,.83,.18,.31,.33,.63,.42,.94s.15,.61,.15,.88c0,.28-.06,.52-.17,.75-.11,.22-.28,.4-.51,.54-.16,.09-.33,.15-.5,.17-.18,.02-.35,0-.53-.05-.18-.05-.36-.15-.53-.28-.17-.13-.34-.31-.5-.52l.4-.24c.22,.28,.46,.45,.7,.52Z"/><path class="j" d="M42.51,57.93l-.9-2.32-.75,2.96-.56,.22,.65-2.41-2.51-2.22,.55-.21,2.09,1.9,.26-.94-.63-1.63,.43-.17,1.81,4.66-.43,.17Z"/><path class="j" d="M33.56,60.1l-.07-.56,1.94-.23-.19-1.58-1.8,.22-.07-.55,1.81-.22-.21-1.72-1.95,.24-.07-.56,2.41-.29,.6,4.96-2.4,.29Z"/><path class="j" d="M31.72,60.19l-.56-.02-.8-1.98-.99,1.92-.52-.02,1.25-2.38-1.13-2.62,.57,.02,.86,2.1,1.05-2.03,.52,.02-1.31,2.52,1.06,2.47Z"/><path class="j" d="M25.2,58.76c.14,.21,.33,.34,.57,.39,.21,.04,.39,.02,.56-.06,.17-.08,.32-.2,.45-.37,.13-.17,.24-.36,.34-.59s.17-.47,.22-.73c.06-.28,.09-.55,.09-.81,0-.26-.02-.49-.08-.69-.06-.21-.15-.38-.27-.52s-.29-.23-.5-.27c-.15-.03-.29-.02-.42,.03s-.25,.13-.36,.23c-.11,.11-.21,.25-.29,.41s-.15,.35-.2,.54l-.46-.09c.17-.61,.41-1.06,.74-1.35,.32-.29,.7-.39,1.14-.3,.27,.05,.49,.16,.66,.33,.17,.17,.3,.38,.39,.64,.09,.25,.13,.54,.13,.87,0,.32-.03,.67-.1,1.02-.07,.36-.17,.69-.31,.98-.13,.3-.29,.55-.47,.76-.18,.21-.39,.36-.62,.45-.23,.09-.48,.11-.74,.06-.18-.04-.34-.11-.49-.21-.15-.1-.27-.23-.37-.39-.1-.16-.17-.34-.21-.56-.04-.22-.05-.46-.02-.72l.46,.09c-.02,.36,.04,.64,.18,.85Z"/><path class="j" d="M21.94,58.56l.78-2-1.72-.67-.78,2-.43-.17,1.81-4.66,.43,.17-.83,2.13,1.72,.67,.83-2.13,.43,.17-1.81,4.66-.43-.17Z"/><path class="j" d="M16.76,56.12l1.35-5,.44,.26-.43,1.49,1.28,.75,1.1-1.1,.41,.24-3.7,3.62-.44-.26Zm1.2-2.69l-.67,2.31h0l1.69-1.71-1.02-.6Z"/><path class="j" d="M13.98,54.24l1.14-4.3h0l-2.57,3.13-.34-.28,3.17-3.87,.39,.32-1.13,4.26h0l2.54-3.1,.34,.28-3.17,3.87-.38-.31Z"/><path class="j" d="M13.3,46.79c.22,.08,.4,.19,.54,.34,.17,.2,.28,.42,.31,.66,.03,.25,.01,.5-.07,.76s-.21,.52-.38,.78c-.18,.26-.39,.5-.63,.71-.27,.24-.55,.45-.85,.61-.29,.17-.58,.28-.85,.34-.28,.06-.54,.06-.79,0-.25-.06-.46-.19-.65-.4-.13-.14-.22-.3-.29-.46-.06-.17-.09-.35-.08-.54s.07-.39,.16-.59c.1-.21,.24-.42,.44-.64l.31,.35c-.13,.14-.22,.29-.28,.42-.06,.14-.1,.27-.1,.4,0,.13,.01,.25,.06,.36,.04,.12,.11,.22,.2,.32,.14,.16,.31,.25,.5,.29,.19,.03,.39,.02,.61-.04,.21-.06,.43-.16,.65-.29,.22-.14,.43-.29,.63-.47,.2-.17,.37-.36,.51-.56,.15-.2,.25-.4,.32-.6,.07-.2,.1-.39,.08-.57-.02-.18-.09-.35-.22-.5-.12-.14-.26-.23-.42-.28-.16-.05-.32-.06-.5-.04-.17,.03-.35,.09-.53,.18-.18,.1-.36,.22-.52,.38l.74,.83-.42,.37-1.02-1.15,1.97-1.75,.2,.22-.38,.51c.29-.07,.54-.07,.76,0Z"/><path class="j" d="M6.66,45.94l.47-.3,1.05,1.64,1.34-.86-.98-1.53,.47-.3,.98,1.53,1.46-.93-1.06-1.65,.47-.3,1.31,2.04-4.21,2.7-1.3-2.03Z"/><path class="j" d="M4.81,42.05l4.16-1.55-.65-1.74,.52-.2,.81,2.17-4.68,1.75-.16-.44Z"/><path class="j" d="M3.72,38.64l4.83-1.27,.12,.45-4.83,1.27-.12-.45Z"/><path class="j" d="M3.7,34.83c-.14,.18-.19,.38-.16,.62,.01,.1,.04,.19,.08,.28,.04,.09,.1,.17,.17,.23,.08,.06,.17,.11,.29,.14,.11,.03,.25,.03,.41,0,.15-.02,.27-.07,.36-.15,.09-.08,.15-.17,.2-.28,.04-.11,.08-.24,.1-.38,.02-.14,.04-.28,.07-.42,.03-.14,.06-.29,.11-.43,.04-.14,.11-.27,.2-.39,.09-.12,.21-.22,.37-.31,.15-.09,.35-.15,.6-.18,.26-.04,.49-.03,.69,.03s.37,.14,.5,.25c.14,.11,.24,.25,.32,.4,.07,.15,.12,.31,.14,.47,.03,.19,.02,.38-.03,.56-.05,.18-.13,.35-.25,.5-.12,.15-.29,.28-.5,.39-.21,.11-.46,.18-.76,.22l-.06-.44c.21-.03,.38-.08,.53-.16,.14-.08,.26-.17,.34-.28,.08-.1,.14-.22,.17-.35s.04-.26,.02-.39c-.02-.1-.04-.21-.08-.31s-.1-.19-.18-.26c-.08-.08-.18-.13-.3-.17s-.27-.04-.46-.02c-.17,.02-.3,.07-.4,.15-.1,.08-.17,.17-.23,.29-.05,.12-.09,.24-.11,.38-.02,.14-.05,.28-.07,.42-.02,.14-.06,.29-.1,.43-.04,.14-.1,.27-.18,.39-.08,.12-.19,.22-.33,.3-.14,.08-.33,.14-.55,.17-.25,.03-.47,.03-.66-.02-.19-.05-.36-.12-.49-.22-.13-.1-.24-.22-.32-.37-.08-.14-.13-.29-.15-.45-.03-.18-.02-.35,.02-.51,.04-.16,.12-.31,.23-.44s.26-.25,.45-.34c.19-.09,.42-.16,.69-.21l.06,.44c-.35,.08-.6,.2-.74,.38Z"/><path class="j" d="M3.38,32.9h-.56v-2.8h.57v1.17H7.83v.47H3.39v1.16Z"/><path class="j" d="M3.29,26.26l.55,.08-.27,1.93,1.57,.22,.25-1.8,.56,.08-.26,1.8,1.71,.24,.27-1.95,.56,.08-.34,2.41-4.95-.7,.34-2.39Z"/><path class="j" d="M4.05,23.28c.16-.51,.47-.85,.93-1.02,.46-.16,1.07-.12,1.84,.11,.4,.12,.75,.26,1.04,.42,.29,.16,.52,.33,.69,.53,.17,.2,.28,.41,.33,.65,.05,.24,.03,.49-.06,.77l-.35,1.15-4.78-1.47,.35-1.15Zm4.25,1.27c.02-.05,.03-.12,.04-.19s.01-.17,0-.26c-.02-.1-.05-.2-.11-.31s-.14-.22-.26-.32c-.12-.11-.27-.21-.47-.32-.2-.11-.44-.21-.73-.3-.29-.09-.55-.15-.78-.18-.24-.03-.45-.02-.63,.02-.19,.04-.34,.12-.47,.23-.13,.12-.22,.28-.29,.48l-.23,.75,3.71,1.14,.23-.74Z"/></g><g><rect class="j" x="17.52" y="39.63" width="27.71" height=".26"/><g><g><path class="j" d="M25.3,37.31c-.69,0-1.12-.16-1.6-.64l.95-.94c.18,.18,.33,.3,.65,.3,.44,0,.76-.25,.76-.81v-3.82h1.44v3.85c0,1.39-1.11,2.06-2.21,2.06Z"/><path class="j" d="M31.42,35.17h-.88v2.09h-1.44v-5.86h2.32c1.3,0,2,.92,2,1.89s-.7,1.88-2,1.88Zm-.07-2.48h-.82v1.19h.82c.39,0,.63-.29,.63-.59s-.23-.59-.63-.59Z"/><path class="j" d="M37.41,37.26l-.96-1.8-.96,1.8h-1.65l1.83-3.01-1.71-2.86h1.64l.86,1.65,.86-1.65h1.64l-1.71,2.86,1.83,3.01h-1.65Z"/></g><g class="k"><circle class="h" cx="23.07" cy="10.08" r="24.53" transform="translate(-.06 .15) rotate(-.37)"/><path class="g" d="M40.07,8.63c0,9-7.25,16.29-16.29,16.29S7.48,17.62,7.48,8.63,14.77-7.67,23.77-7.67,40.07-.37,40.07,8.63Z"/></g></g><g><g><path class="j" d="M26.68,47.61v2.4h-.28v-2.4h-.77v-.25h1.82v.25h-.77Z"/><path class="j" d="M29.38,49.76c-.18,.18-.41,.28-.68,.28s-.5-.1-.68-.28c-.25-.25-.25-.51-.25-1.07s0-.82,.25-1.07c.18-.18,.41-.28,.68-.28s.5,.1,.68,.28c.25,.25,.25,.51,.25,1.07s0,.82-.25,1.07Zm-.22-1.98c-.12-.12-.28-.19-.46-.19s-.34,.07-.46,.19c-.17,.17-.19,.35-.19,.91s.02,.73,.19,.91c.12,.12,.28,.19,.46,.19s.34-.07,.46-.19c.17-.17,.19-.35,.19-.91s-.02-.73-.19-.91Z"/><path class="j" d="M31.9,50.01l-.81-1.41-.56,.67v.74h-.28v-2.65h.28v1.52l1.24-1.52h.35l-.83,1.03,.95,1.63h-.34Z"/><path class="j" d="M33.52,48.91v1.1h-.28v-1.1l-.79-1.56h.31l.63,1.27,.62-1.27h.31l-.78,1.56Z"/><path class="j" d="M36.18,49.76c-.18,.18-.41,.28-.68,.28s-.5-.1-.68-.28c-.25-.25-.25-.51-.25-1.07s0-.82,.25-1.07c.18-.18,.41-.28,.68-.28s.5,.1,.68,.28c.25,.25,.25,.51,.25,1.07s0,.82-.25,1.07Zm-.22-1.98c-.12-.12-.28-.19-.46-.19s-.34,.07-.46,.19c-.17,.17-.19,.35-.19,.91s.02,.73,.19,.91c.12,.12,.28,.19,.46,.19s.34-.07,.46-.19c.17-.17,.19-.35,.19-.91s-.02-.73-.19-.91Z"/></g><g><g><path class="j" d="M22.12,42.5h1.55c.77,0,1.45,.3,1.45,1.03,0,.45-.24,.72-.34,.82-.24,.23-.59,.34-1.18,.34-.13,0-.24,0-.37-.02v1c0,.42,.09,.5,.52,.51v.11h-1.64v-.11c.47-.03,.47-.17,.47-.58v-2.48c0-.41-.06-.47-.47-.51v-.11Zm1.12,1.85c.11,.01,.17,.02,.29,.02,.21,0,.91,.04,.91-.83,0-.82-.72-.83-.97-.83-.17,0-.23,0-.23,.19v1.44Z"/><path class="j" d="M29.21,46.28h-.98l-1.32-1.76h-.23v1.14c0,.38,.06,.49,.5,.51v.11h-1.62v-.11c.45-.03,.47-.15,.47-.58v-2.48c0-.42-.08-.47-.47-.51v-.11h1.62c.49,0,1.41,.12,1.41,1,0,.77-.72,.9-1,.96l1.14,1.45c.12,.15,.26,.26,.48,.27v.11Zm-2.53-1.96c.47,0,1.21-.02,1.21-.84,0-.76-.64-.78-.87-.78-.29,0-.34,.04-.34,.21v1.41Z"/><path class="j" d="M29.47,46.18c.47-.01,.54-.11,.54-.51v-2.54c0-.42-.08-.49-.54-.51v-.11h1.73v.11c-.41,.02-.54,.06-.54,.51v2.54c0,.45,.13,.5,.54,.51v.11h-1.73v-.11Z"/><path class="j" d="M40.38,46.28h-2.91v-.11c.36-.02,.48-.17,.48-.61v-2.35c0-.45-.13-.58-.48-.61v-.11h2.86l.02,.91h-.14c-.08-.51-.23-.6-.84-.6h-.58c-.12,0-.18,0-.18,.19v1.14h.55c.49,0,.55-.14,.61-.54h.13v1.42h-.13c-.07-.46-.15-.54-.61-.54h-.55v1.28c0,.23-.17,.24,.66,.24,.69,0,.97-.17,1.22-.75h.16l-.25,1.06Z"/></g><path class="j" d="M36.9,42.14v-.11h-1.19l-1.34,3.26-1.4-2.8h-1.18v.11c.41,.02,.53,.07,.53,.51v2.32c0,.62-.12,.7-.54,.73v.11h1.39v-.11c-.41-.02-.52-.14-.52-.73v-2.13l1.47,2.97h.16l1.48-3.54v2.86c0,.47-.07,.56-.51,.58v.11h1.64v-.11c-.36-.02-.48-.07-.48-.51v-3.01c0-.45,.13-.49,.48-.51Z"/></g></g></g></g></g></svg>