<svg xmlns="http://www.w3.org/2000/svg" width="49.968" height="57.15" viewBox="0 0 49.968 57.15"><g transform="translate(1.707 0)"><path d="M735.083,824.417a22.262,22.262,0,1,1,22.262-22.262,22.287,22.287,0,0,1-22.262,22.262" transform="translate(-712.82 -779.893)" fill="#fff"/><path d="M716.095,804.371a21.2,21.2,0,1,1,21.2,21.2,21.2,21.2,0,0,1-21.2-21.2m21.113,20.288a20.339,20.339,0,1,0-20.339-20.338,20.339,20.339,0,0,0,20.339,20.338" transform="translate(-715.034 -782.108)" fill="#ab0029"/><path d="M721.813,808.231a19.382,19.382,0,1,1,19.381,19.384,19.382,19.382,0,0,1-19.381-19.384m19.3,18.548a18.593,18.593,0,1,0-18.6-18.593,18.593,18.593,0,0,0,18.6,18.593" transform="translate(-718.901 -785.95)" fill="#ab0029"/><path d="M740.717,810.543c-1.264.139-1.873-.328-1.59-1.45,0,0,.281-2.246.233-2.527a8.977,8.977,0,0,1,.749-2.011c.185-.421.656-.608,1.121-1.03s2.48-2.386,3.37-1.263a4.1,4.1,0,0,0,.934.562,3.836,3.836,0,0,1,3.883-1.262,7.279,7.279,0,0,1,3.416-.281c.279.094.7-.7,2.993.234.187.093,3.555-2.761,5.846-.7a2.862,2.862,0,0,0,.654.609,4.009,4.009,0,0,1,1.686,2.011,5.821,5.821,0,0,0,1.822,2.479,1.006,1.006,0,0,1-.655,1.825,2.567,2.567,0,0,0-.654.513c.327,0,.327-.046.563.234s.279.516.654-.093.7-.513,1.122-.093.515.561.842.186c0,0,.094-.047.516.094l2.337-.279c5.239,14.265-4.864,27.13-18.522,26.895l-.047-.935c-2.432-1.59-1.215-5.052.422-5.474a12.958,12.958,0,0,1-1.264-1.87.489.489,0,0,0-.7-.374,3.612,3.612,0,0,1-1.917-.374,2.818,2.818,0,0,0-1.964-.422c-.8.189-1.216.374-2.058-.327.094.795-1.029,1.872-2.338.516a.534.534,0,0,0-.328-.189,1.547,1.547,0,0,1-.887-.982s-.236-.467-.423-.561a3.759,3.759,0,0,1-1.076-2.1s-.094-.187-.233-.421a3.608,3.608,0,0,1,.42-2.76c.187-.234.422-.422.047-1.03a1.793,1.793,0,0,1,.421-1.73,1.124,1.124,0,0,0,.328-.983s.7-.795.89-1.076a1.456,1.456,0,0,1-.374-1.59l-.7-.655a1.779,1.779,0,0,0,.469-.8Zm-.8-1.777s-.327.888.327.982.936.094.889-.935l.282-2.013s-.189-.185.7-1.074l.935-1.03c.374-.561,1.264-.514.468.281s-2.154,2.713-1.826,4.024c.187.467.469.794,0,1.122s-.421,1.45-.372,1.591.186.094.325,0a1.392,1.392,0,0,1,1.5.374s.513.515.795.468,0-.046.281.094a.4.4,0,0,0,.466-.046l-.514-.748c-.233-.234-.095-.656.328-.141a2.85,2.85,0,0,0,.326.467c.235.328.8.422.422-.187a1.947,1.947,0,0,1-.373-.607c-.049-.234.233-.936.468-.094.374.935.795,1.029,1.4.935a1.015,1.015,0,0,1,.794-.187s1.078-.655,1.216-1.358c.095-.467.842-.327.514.047,0,0-.8,1.169-1.5,1.4s.092.514.374.374c1.591.046,2.29-.141,2.2-2.058.842-1.076,1.076-.889.748-.421,0,0-.281.842.42.234a3.719,3.719,0,0,1,1.827-.7c.139-.047.512,0,.42.234a1.111,1.111,0,0,1-.514.142,1.381,1.381,0,0,0-1.264.372l-.327.469H751.2a.661.661,0,0,0-.233.466c-.187.328-.374.843.28.142a3.058,3.058,0,0,1,3.6-.188c.188.188.188.468.656.047s.934-.466.515-.047-.89.75-.234.889c.747.327.654.468.047.281a.753.753,0,0,0-.889.281,2.763,2.763,0,0,1-2.713.515,2.027,2.027,0,0,0,1.917.374c.423-.093.982.046.562.281s-1.264.375-2.62-.422a2.249,2.249,0,0,0,2.48.937c.421-.187.608.14.28.234a3.484,3.484,0,0,1-3.322-1.076c-1.45-1.45-.7.514-.187.655a4.967,4.967,0,0,0,2.34,1.168,1.862,1.862,0,0,1,1.777,1.825s.515.843-.094.843c.374.092.468.326.749.281a1.491,1.491,0,0,1,1.028,1.682s.795.7.328,1.4-.608.514-.282.982a4.112,4.112,0,0,1-1.216-.888,2.664,2.664,0,0,0-1.309-.7c-1.592-.8-.235-.56.14-.326s.842.513,1.168.748c.375.327.795.514,1.077-.141a1.167,1.167,0,0,0-.33-1.216c.048-.188.094-1.31-1.5-1.5a2.216,2.216,0,0,1-.749-.141c-.328-.14-.655-.467-.513.234.467.562,1.4,1.917-.049.468a2.79,2.79,0,0,0-1.121-1.216,5.346,5.346,0,0,1-1.4-1.217c-.14-.235-.7-.235-.7-.235a1.946,1.946,0,0,1-.513-.233.823.823,0,0,0-.794.093,1.029,1.029,0,0,1-1.216-.046,4.055,4.055,0,0,0-3.555.842c-.186.187-.517.561-.8.046,0,0-.327-.467-1.263-.046,0,0-3.744,3.18-2.1,4.91a2.249,2.249,0,0,0,.56,1.544c.608.609,1.124.561.843-1.683-.093-.983-.046-1.638,1.123-2.152s1.121-.749,1.121-.983.095-.608.374.046c0,0,.048.563,1.03.423.982.186,3.508.42,4.491,2.057s.467,1.4-.327.8-4.725-1.544-6.6-.468c-.562.14-1.263.842-.046,1.075.841.281,1.964.843,2.1,1.871,0,0,.374.748.843.748s.747-.092-.047-.7l-.561-.747a1.533,1.533,0,0,0-.282-.607c-.186-.187-.186-.609.234-.142s.656,1.264,1.03,1.45a2.013,2.013,0,0,0,1.4.421c.7-.092.794.094,1.308.515a1.959,1.959,0,0,0,1.545.093c.325,0,1.355,0,.28-1.543-.328-.515-.422-1.825.234-.469,0,0,.7.983.842,1.17a1.876,1.876,0,0,0,1.964,1.4c1.732.093,4.164.047,4.82-2.012,0,0,.606-.935.981-1.029a1.859,1.859,0,0,0,1.077-2.245,4.324,4.324,0,0,1,.092-1.824s.422-.982.328,0-.234,1.45-.048,1.824.375.843.844-.281a3.527,3.527,0,0,0,.325-2.852c-.325-1.545,0-3.181.188-1.638,0,0,.328.561.468-.7a17.364,17.364,0,0,0-.468-4.913c-.188-.7,0-1.449.281-.046,0,0,.234,1.123.422,1.871s.842,3.179-.235,4.77a2.4,2.4,0,0,1,.654,1.076s.562.608.281-.141a2.969,2.969,0,0,1-.513-.935c-.142-.374-.048-1.028.326-.046.515.841.843.654.422-.047a2.29,2.29,0,0,0-.374-.561c-.281-.328-.327-.889.235-.187,0,0,.186.187.371.42s.562.375.095-.327l-.607-.7s-.561-.984.281-.189l.373.376s.937.653.282-.282a3.99,3.99,0,0,0-.515-.561.977.977,0,0,1-.421-.513c-.141-.375-.141-.328.327.046a1.263,1.263,0,0,0,.421.327c.281.14.7-.141.095-.607a5,5,0,0,1-.89-.843c-.373-.374-.468-.607.189-.139s1.307.889.794.047a6.8,6.8,0,0,0-.843-1.17c-.7-.561-.654-1.076.141-.188s1.029.421.373-.468c-1.4-1.075-2.058-1.683.094-.56,0,0,.373,0-.328-.655s-1.123-.8-.14-.515c0,0,.841.374-.188-.328-.561-.092-.747-.655-.842-.841s-.14-.281.235-.421a1.407,1.407,0,0,0,.513-.328c.14-.187,0-.141.328-.141s.28-.187.28-.187a.8.8,0,0,0,.374-.094.676.676,0,0,0-.093-1.122,4.005,4.005,0,0,1-1.5-1.917,2.265,2.265,0,0,0-1.5-2.058c-.7-.748-1.917-2.433-5.426.421a1.374,1.374,0,0,1-1.356-.188c-.561-.514-1.778-.093-1.872-.093,0,0-2.62-.14-3.413.467a.805.805,0,0,1-.609-.187c-.233-.234-2.433.141-2.758.888,0,0-1.078,1.637-1.264.656,0,0-.374-.656-.794-.7,0,0-.375-.795-1.5.047a5.942,5.942,0,0,1-1.216,1.123,3.139,3.139,0,0,0-1.357,2.385,15.65,15.65,0,0,1-.235,1.919m.8,9.215,1.5-1.4c-.374-.515.235-1.449.609-1.731,0,0,.14-.842,1.684-1.077,0,0,.561-.045.795-.092s1.5-.141,1.919.375a3.271,3.271,0,0,0,.468.327c.186.093,1.541,1.543,1.122,1.543,0,0,.186.141.467-.139s.655-.095.983-.046,1.45.185.14-.282a1.409,1.409,0,0,0-.889-.187,2.4,2.4,0,0,1-.8-.655c-.372-.467.142-.374.281-.234s-.047.467.8.608,1.4.047,2.012,1.122,1.309,1.591,1.964,1.546c1.123.419,1.731.186,1.355-.516a1.2,1.2,0,0,1-.28-.609c0-.279,0-.513-.983-.747,0,0-.7-.375-1.074-.233a1.981,1.981,0,0,1-.421-.376,2.361,2.361,0,0,0-.844-.467,7.19,7.19,0,0,1-1.5-1.263,6.82,6.82,0,0,0-2.947-.7,6.552,6.552,0,0,0-3.836.8,1.556,1.556,0,0,0-.842.889,3.292,3.292,0,0,1-.842,1.075c-.232.141-1.264,2.386-.842,2.481m.748-5.193s-.046.748.421.14a.806.806,0,0,1,.186-.28c.141-.14,0-.842-.42-.421,0,0-.14.421-.187.561m1.4-.093s-.047.748.282.14c0,0-.282-.468-.282-.14m9.028-.561s.374.936.656-.047c.185-.328.281-1.028-.375-.607a.663.663,0,0,0-.281.655m2.432-.7a2.085,2.085,0,0,1-.234,1.263s.374.093.889-.8c0,0-.236-.187-.656-.467m-5.7,9.4c.514.233.091-.42.091-.42-.7-.515-.28.186-.28.186Zm-.984-.047c.515.189.141-.655.141-.655-.609-.607-.469.141-.469.141a.842.842,0,0,0,.327.514m-.936-.234s.656-.139.049-.747-.563.281-.563.281c.187.466.514.466.514.466m-1.355-.047c.234.234.7-.046.327-.748s-.7-.141-.562.234a1.266,1.266,0,0,0,.235.514m-1.122.047c.7.468.374-.7.374-.7-.468-.8-.609.094-.609.094a1.047,1.047,0,0,0,.235.608m-.61.234c.421-.14-.092-.794-.092-.794-.562-.562-.608.281-.608.281,0,.561.279.655.7.514m-1.075.375c.468.093.256-.049.046-.467-.232-.469-.328.233-.328.233.1.327.282.234.282.234m1.5-5.707a7.673,7.673,0,0,0-.187.843c.469.7.233-.281.375-1.03s.374-.139.374-.139c.139-.375,1.028-.562,1.028-.562,1.169-.234-.094-.234-.094-.234s-.7-.14-.934.093a.9.9,0,0,1-.7.141c-.8.328-.094.28-.094.28.187-.046.374.094.234.608m21.8.282a11.673,11.673,0,0,1-1.451,6.313,4.335,4.335,0,0,0,1.124.469c1.45.7,2.059-2.1,2.059-2.1,1.029-3.368.42-8.28-.093-10.759-1.779-1.217-2.059-.187-2.059-.187a31.976,31.976,0,0,1,.42,6.269m-.514.233a13.484,13.484,0,0,1-.747,4.162,9.616,9.616,0,0,1-2.714,4.07,15.007,15.007,0,0,1-5.752,3.742c-1.03.656.42.188.42.188a13.835,13.835,0,0,0,5.613-3.7,8.94,8.94,0,0,0,2.712-4.022,11.636,11.636,0,0,0,.749-3.976,39.058,39.058,0,0,0-.514-7.39c-.047-.7-.515-.609-.374.092a24.421,24.421,0,0,1,.606,6.829m2.995-1.824a16.9,16.9,0,0,1-.7,6.921c-1.826,4.211-3.23,4.912-3.23,4.912a14.064,14.064,0,0,1-5.19,3.6c-1.077.655-.141.607.138.328a14.43,14.43,0,0,0,5.333-3.6,10.305,10.305,0,0,0,3.275-5.1c1.122-2.292.748-7.015.748-7.015a20.793,20.793,0,0,0-.655-5.145c-.094-.656-.328-.563-.328,0a30.167,30.167,0,0,1,.609,5.1m.888-2.48c.748.889.515,1.123.515,1.123,0,1.123,1.31,2.058,1.31,2.058.375-1.4-1.031-5.425-1.031-5.425a3.708,3.708,0,0,0-.981-.048c-.935.328-.562,1.4.187,2.292m.281,2.48a3.11,3.11,0,0,1,.513.935,8.762,8.762,0,0,0,.75,2.245c.562,1.263.232.047.232.047a.545.545,0,0,0-.092-.795l-.562-.795c-.093-.42.094-.375.422,0,.794.747.14-.375.14-.375a3.116,3.116,0,0,1-1.262-1.638c-.281-.467.233-.746-.281-1.168-.609-.7-.282.14-.282.14.095.469.421,1.4.421,1.4m-10.8,14.687c.28.327.374.092.374.092a10.639,10.639,0,0,0,2.525-1.636c.562-.281.095-.656,0-.8a.329.329,0,0,0-.513,0,25.878,25.878,0,0,1-2.48,1.684c-.28.139-.187.326-.187.326Zm-2.2.983h.374l-.142-.8h-.42Zm-5.518,1.869a2.666,2.666,0,0,0,5.331-.139,2.655,2.655,0,0,0-1.729-2.432l-.188.889a1.408,1.408,0,0,1,.889,1.5c0,1.17-.467,1.683-1.683,1.683a1.588,1.588,0,0,1-1.592-1.59,1.739,1.739,0,0,1,.937-1.5l-.189-.935c-.795,0-1.776,1.168-1.776,2.525m2.571-1.589c.655.607.655-1.029.655-1.029-.7-.889-1.029.094-1.029.094a1.61,1.61,0,0,0,.374.935m-10.2-14.408-.141.375.374-.046a.279.279,0,0,1-.234-.329m2.619-.187c.7-.138.654-.327.28-.561ZM754,832.761l-.047-.608c-.656-.187-.608-.7-.469-1.076l-.375-.514a1.19,1.19,0,0,0,.89,2.2m9.716-7.2a.731.731,0,1,0-.73-.731.733.733,0,0,0,.73.731m-.683-7.847c.438.3.157-.088.157-.088l-.088-.246c-.1-.544-.157.035-.157.035.14.508.088.3.088.3m.578,1.175c.1.105.3.123.157-.088a1.343,1.343,0,0,1-.28-.438c-.141-.317-.228-.123-.141.088a2.275,2.275,0,0,0,.263.438m-.3.755c.125.315.386.175.264-.02a1.374,1.374,0,0,1-.228-.455c-.122-.333-.262-.089-.157.088a1.628,1.628,0,0,0,.121.387m-.454,1.123c.07.419.228.017.228.017a4.061,4.061,0,0,0,.017-.86c-.052-.263-.245-.16-.245,0a2.861,2.861,0,0,0,0,.843m-21.1,3.4a2.47,2.47,0,0,0,.474.737.855.855,0,0,1,.3.089Zm.913.93a.669.669,0,0,1,.209.3c.054.175.439.087.439.087v-.157s-.1-.209-.648-.228m-.105-.912a1.2,1.2,0,0,1,.157.385l.316.28.349.1c0-.174-.3-.543-.823-.77m.034-.966.317.72.471.369c-.1-.281-.123-.386-.368-.491Zm1.052,1.509a.286.286,0,0,1-.159.4l.072.387a.881.881,0,0,0,.262-1.124c.035.176,0,.245-.175.334m26.358-5.846s.129.432.34,1.063.34.152.28-.058a2.888,2.888,0,0,0-.444-.994,1.486,1.486,0,0,0-.163-.76c-.2-.364-.282-.071-.153.105m-3.005-9.425-.467-.467c.094.514.281.7.467.467m-.9,14.125c-.106.175-.017.29.054.184a.514.514,0,0,0,.227-.323c.079-.255-.148-.044-.148-.044Zm-.991.94c-.122.182.08.139.08.139a8.062,8.062,0,0,0,.771-1.009c.114-.254-.044-.237-.149-.079a4.273,4.273,0,0,1-.7.949m-.28-.071c-.133.22.1.132.1.132a6.674,6.674,0,0,0,.729-.975c.174-.35-.061-.2-.133-.07a5.427,5.427,0,0,1-.692.913m-.268-.123c-.131.219.1.133.1.133a6.724,6.724,0,0,0,.728-.973c.177-.352-.062-.2-.131-.072a5.518,5.518,0,0,1-.694.912m-.254-.132c-.132.221.1.132.1.132a11.075,11.075,0,0,0,.8-1.175c.07-.144-.062-.2-.132-.07a7.547,7.547,0,0,1-.766,1.113m-.259-.17c-.131.219.1.132.1.132a9.381,9.381,0,0,0,.815-1.1c.07-.136-.062-.2-.131-.071a6.98,6.98,0,0,1-.78,1.04m-.268-.079c-.131.22.1.132.1.132a10.215,10.215,0,0,0,.83-1.119c.093-.176-.063-.2-.131-.071a7.294,7.294,0,0,1-.8,1.058m2,.548c-.351.422.164.163.164.163a5.816,5.816,0,0,0,.888-1.45c.351-.842-.211,0-.211,0a4.833,4.833,0,0,1-.842,1.287" transform="translate(-730.564 -793.535)" fill="#ab0029"/><path d="M784.036,889.214a.73.73,0,0,1-.175.878s.035.351.35.018a.777.777,0,0,0,.123-.79c0-.035-.193-.35-.3-.107" transform="translate(-760.862 -853.761)" fill="#ab0029"/><path d="M825.2,853.149c-.022-.257.211-.3.211-.023a1.239,1.239,0,0,1-1.241,1.31c-.491,0-.42-.164.048-.164s.888-.139.982-1.123" transform="translate(-787.89 -829.288)" fill="#ab0029"/><path d="M826.359,840.263s-.163-.281.163-.094.515,1.707-.42,1.847c0,0-.491.047-.164-.117a.972.972,0,0,0,.421-1.637" transform="translate(-789.241 -820.612)" fill="#ab0029"/><path d="M825.747,830.408s-.259-.233.068-.094.7,1.894-.537,1.918c0,0-.069-.07.118-.094.6-.076.819-.958.352-1.731" transform="translate(-788.862 -813.961)" fill="#ab0029"/><path d="M821.566,831.212a.86.86,0,1,1,.861.86.859.859,0,0,1-.861-.86m.861.719a.731.731,0,1,0-.733-.731.731.731,0,0,0,.733.731" transform="translate(-786.36 -814.017)" fill="#ab0029"/><path d="M822.621,840.92a.86.86,0,1,1,.861.859.862.862,0,0,1-.861-.859m.861.717a.731.731,0,1,0-.731-.731.731.731,0,0,0,.731.731" transform="translate(-787.073 -820.58)" fill="#ab0029"/><path d="M822.3,852.019a.86.86,0,1,1,.861.859.859.859,0,0,1-.861-.859m.861.717a.731.731,0,1,0-.731-.731.73.73,0,0,0,.731.731" transform="translate(-786.854 -828.087)" fill="#ab0029"/><path d="M819.294,864.762a.859.859,0,1,1,.859.86.859.859,0,0,1-.859-.86m.859.719a.731.731,0,1,0-.731-.732.732.732,0,0,0,.731.732" transform="translate(-784.823 -836.705)" fill="#ab0029"/><path d="M786.877,891.976c.072.123.317.089.16-.157s-.528-.352-.614-.457l-.07.3a3.26,3.26,0,0,1,.525.316" transform="translate(-762.546 -855.275)" fill="#ab0029"/><path d="M788.726,893.788l.1.281c.053.14.3.211.228-.086a1.016,1.016,0,0,0-.139-.334c-.09-.105-.369-.123-.193.14" transform="translate(-764.114 -856.772)" fill="#ab0029"/><path d="M778.966,891.632a2.116,2.116,0,0,0-1.227,1.982s.192.667.211-.018a1.89,1.89,0,0,1,1.087-1.769Z" transform="translate(-756.722 -855.457)" fill="#ab0029"/><path d="M778.3,899.706c-.071-.086.106-.316.21-.07a.733.733,0,0,0,.316.421c.175.123.16.37-.036.282a1.173,1.173,0,0,1-.489-.632" transform="translate(-757.09 -860.796)" fill="#ab0029"/><path d="M779.17,903.234c-.16-.1,0-.334.193-.175a1.074,1.074,0,0,0,.4.246c.123.034.194.263-.121.208a.757.757,0,0,1-.475-.279" transform="translate(-757.646 -863.148)" fill="#ab0029"/><path d="M784.771,891.837c-.139-.142.106-.264.211-.194a2.591,2.591,0,0,1-2.1,4.35c-.317-.035-.4-.21.05-.21a2.34,2.34,0,0,0,1.842-3.946" transform="translate(-760.019 -855.451)" fill="#ab0029"/><path d="M773.2,858.052c-.654-.327-.7-.608.142-.374a8.038,8.038,0,0,1,1.309.8c.279.28.748.888.89.982s.747.7-.05.376a5.057,5.057,0,0,1-.841-.8,2.546,2.546,0,0,0-1.451-.982" transform="translate(-753.323 -832.437)" fill="#ab0029"/><path d="M787.26,868.856c-.2-.3-.184-.608.236-.233a5.142,5.142,0,0,0,1.73,1.028c.468.095,1.4.935,0,.327a3.671,3.671,0,0,1-1.966-1.122" transform="translate(-763.075 -839.78)" fill="#ab0029"/><path d="M790.514,859.846a.3.3,0,1,0-.3-.3.3.3,0,0,0,.3.3" transform="translate(-765.159 -833.559)" fill="#ab0029"/><path d="M790.228,849.444a.3.3,0,1,0-.3-.3.3.3,0,0,0,.3.3" transform="translate(-764.967 -826.526)" fill="#ab0029"/><path d="M793.262,850.888a.3.3,0,1,0-.3-.3.3.3,0,0,0,.3.3" transform="translate(-767.018 -827.501)" fill="#ab0029"/><path d="M791.7,853.2a.3.3,0,1,0-.3-.3.3.3,0,0,0,.3.3" transform="translate(-765.964 -829.065)" fill="#ab0029"/><path d="M794.3,854.794a.3.3,0,1,0-.3-.3.3.3,0,0,0,.3.3" transform="translate(-767.723 -830.143)" fill="#ab0029"/><path d="M748.791,853.52a.215.215,0,1,0-.215-.215.215.215,0,0,0,.215.215" transform="translate(-737 -829.393)" fill="#ab0029"/><path d="M746.512,855.867a.242.242,0,0,0,0-.477.243.243,0,0,0,0,.477" transform="translate(-735.471 -830.948)" fill="#ab0029"/><path d="M799.349,807.733s-.234-2.386,1.451-2.2c0,0,1.074-.094,1.777,1.59.748.935,2.9,2.432,1.357,3.415,0,0,.234-.374-.749-.936-.28-.14-.514-.094-.094.187s.7.562.048.421c-.373-.187-.842-.28-.467,0s.608.375-.142.375c-.42-.516-.98-.561-.466.093,0,0,0,.374-.608.047a2.251,2.251,0,0,1-.888-1.075s-.561-.469.326-.422c0,0,1.264-.561,1.4-.888s.14-.187-.047-.515-.187-.093-.233.141-.142.234-.33,0-.279-.281-.092.329c0,0,.092.42-.328.231,0,0,.188.515-.328.235,0,0,.282.421-.513.047s-1.029-.8-1.076-1.076" transform="translate(-771.328 -797.226)" fill="#ab0029"/><path d="M794.332,806.5c-.14.326-.047.513.328.186l.326-.373c.282-.234.188-.655-.374-.188Z" transform="translate(-767.901 -797.491)" fill="#ab0029"/><path d="M787.851,812.437c-.188.28-.188.514.235.28a2.031,2.031,0,0,1,2.665.188l.654.562c.328.42.842.561.281-.375l-.748-.514a2.341,2.341,0,0,0-3.087-.14" transform="translate(-763.479 -801.556)" fill="#ab0029"/><path d="M799.919,821.054c-.467-.561.282-.749.422-.234s.608,1.589,1.31,1.45a.93.93,0,0,1,.513.936l.095.8c.094.512-.283.84-.468,0,.094-.609.048-1.265-.655-1.5s-.7-.42-.748-.748a1.572,1.572,0,0,0-.468-.7" transform="translate(-771.619 -807.366)" fill="#ab0029"/><path d="M786.259,824.95c-.657-.046-.188-.328.139-.468h.936c.374,0,1.216,1.217,1.824,1.4s.8.655.047.421-1.683-1.357-2.105-1.4Z" transform="translate(-762.26 -810.047)" fill="#ab0029"/><path d="M776.61,824.266c-.374.282-.327.562.187.282a3.081,3.081,0,0,1,1.779-.563c.608.094.655-.515-.095-.515a3.45,3.45,0,0,0-1.871.8" transform="translate(-755.793 -809.363)" fill="#ab0029"/><path d="M789.349,828.339c-.609-.188-.423-.514.186-.421s.513.843,1.121,1.029.469.515-.138.28-.515-.748-1.169-.888" transform="translate(-764.32 -812.359)" fill="#ab0029"/><path d="M786.9,829.813c-.608-.046-.515.141-.14.281a3.37,3.37,0,0,1,.7.328c.234.141.468,0,.234-.328s-.8-.281-.8-.281" transform="translate(-762.619 -813.647)" fill="#ab0029"/><path d="M765.638,820.1c-.374.187-.514.936.187.234s.889-1.263,3.508-1.122c.891.141,1.122-.515,0-.421s-.993.261-1.449.047c-.8-.375-1.918.794-2.246,1.262" transform="translate(-748.329 -806.183)" fill="#ab0029"/><path d="M759.083,818.812c-.374-.187-.515.047,0,.328s1.123.794,2.433-.28c0,0,.795-.516-.233-.28a1.683,1.683,0,0,1-2.2.233" transform="translate(-743.879 -806.013)" fill="#ab0029"/><path d="M755.238,821.776c-.56-.468-.841.046-.279.28a.984.984,0,0,1,.746.233,1.679,1.679,0,0,0,.7.421c.374.188.936-.139.048-.374-.327-.187-.749-.561-.983-.561Z" transform="translate(-741.109 -808.088)" fill="#ab0029"/><path d="M750,826.4c-.515.187-.657-.092-.141-.374a1.906,1.906,0,0,1,1.87-.281c.235.235.328,1.17-.374.42,0,0-.328-.42-1.356.235" transform="translate(-737.652 -810.792)" fill="#ab0029"/><path d="M749.6,828.907c-.421.094-.749.421,0,.234a3.518,3.518,0,0,1,1.309-.187c.141.046.748.328.047-.234,0,0-.28-.188-1.355.187" transform="translate(-737.394 -812.881)" fill="#ab0029"/><path d="M748.857,833.4c-.515,0-.7.326,0,.234a.893.893,0,0,1,.983.655c0,.561.373.982.559.42a1.38,1.38,0,0,1-.326-.841c0-.329-.843-.562-1.217-.468" transform="translate(-736.879 -816.062)" fill="#ab0029"/><path d="M791.281,838.881c-.469.376-.514.8.187.282a3.055,3.055,0,0,0,1.169-1.216c.188-.42.468-.515.421.234a1.982,1.982,0,0,0-.094,1.451,6.881,6.881,0,0,1-.092,2.385,1.83,1.83,0,0,0,.559,1.543c.376.376,1.684,1.5.983,2.526a1.118,1.118,0,0,0-.235.8c.1.374,0,.655.235-.094s.234-.607.469-.841.468-1.03-.7-2.106a2.582,2.582,0,0,1-.794-3.087l.046-2.526c.141-.653,0-.607-.234-.982s-.747.282-.747.282-.8,1.263-1.169,1.355" transform="translate(-765.645 -818.6)" fill="#ab0029"/><path d="M800.364,836.572c-.094-.468.56-.515.374,0a2.747,2.747,0,0,0,.142.514c.092.234.326,1.217-.142,1.5s-.281-.048-.281-.376a3.836,3.836,0,0,0,.095-1.075,2.558,2.558,0,0,1-.188-.561" transform="translate(-772.016 -817.973)" fill="#ab0029"/><path d="M802.242,836.641c-.092-.468.562-.514.375,0a.947.947,0,0,0,0,.539,1.345,1.345,0,0,1,.094,1.451c-.215.358-.374-.025-.374-.352s.187-.491.094-.911a5.254,5.254,0,0,1-.188-.726" transform="translate(-773.286 -818.02)" fill="#ab0029"/><path d="M804.182,836.641c-.093-.468.563-.514.374,0a2.825,2.825,0,0,0,.142.514c.092.234.492.821.025,1.1s-.233.047-.233-.279a2.6,2.6,0,0,0-.12-.774,2.561,2.561,0,0,1-.188-.561" transform="translate(-774.598 -818.02)" fill="#ab0029"/><path d="M751.7,866.889s.326-.42.279.047c0,0-.187.233-.279-.047" transform="translate(-739.111 -838.607)" fill="#ab0029"/><path d="M753.281,866.539s.047-.422.235-.047c0,0,0,.328-.235.047" transform="translate(-740.182 -838.351)" fill="#ab0029"/><path d="M754.581,866.235s.095-.282.282-.047c0,0,0,.421-.282.047" transform="translate(-741.061 -838.188)" fill="#ab0029"/><path d="M755.884,866.012s.14-.328.28-.093c0,0,.046.514-.28.093" transform="translate(-741.942 -838.011)" fill="#ab0029"/><path d="M757.617,865.862s.139-.281.282.047c0,0-.143.467-.282-.047" transform="translate(-743.114 -837.954)" fill="#ab0029"/><path d="M759.209,865.936s.047-.328.233,0c0,0,0,.279-.233,0" transform="translate(-744.19 -837.982)" fill="#ab0029"/><path d="M760.653,865.736s.186-.235.281,0-.187.232-.281,0" transform="translate(-745.167 -837.874)" fill="#ab0029"/><path d="M762.242,865.819s.234-.327.28.047-.232.233-.28-.047" transform="translate(-746.242 -837.912)" fill="#ab0029"/><path d="M763.831,866.006s.187-.28.233.046-.139.281-.233-.046" transform="translate(-747.316 -838.052)" fill="#ab0029"/><path d="M765.131,866.122s.188-.281.281,0-.187.233-.281,0" transform="translate(-748.195 -838.121)" fill="#ab0029"/><path d="M767.009,866.171s.281-.281.327.094-.14.187-.327-.094" transform="translate(-749.465 -838.171)" fill="#ab0029"/><path d="M768.915,875.211c-.093-.233-.093-.42.187-.093s.235.61-.187.093" transform="translate(-750.718 -844.171)" fill="#ab0029"/><path d="M770.629,875.156s-.233-.513.187-.185c0,0,.329.841-.187.185" transform="translate(-751.871 -844.116)" fill="#ab0029"/><path d="M772.222,875.275s-.236-.466.186-.093.234.515-.186.093" transform="translate(-752.946 -844.235)" fill="#ab0029"/><path d="M774.143,875.5c-.186-.28-.328-.7.094-.328s.374.8-.094.328" transform="translate(-754.167 -844.23)" fill="#ab0029"/><path d="M770.618,829.707c-.1.187-.376.561.279.373s.235-1.076-.279-.373" transform="translate(-751.81 -813.4)" fill="#ab0029"/><path d="M756.555,828.928c-.094-.281.093-.422.374-.141a1.3,1.3,0,0,0,.095.514c.093.14.186.843-.281.281,0,0-.187-.047-.187-.654" transform="translate(-742.379 -812.854)" fill="#ab0029"/><path d="M787.048,857.535a.3.3,0,1,0-.3-.3.3.3,0,0,0,.3.3" transform="translate(-762.815 -831.997)" fill="#ab0029"/><path d="M824.6,830.841l-.373.468.795.374a.636.636,0,0,0-.422-.842" transform="translate(-788.158 -814.347)" fill="#ab0029"/><path d="M824.225,832.288l.138.935s.188.187.422-.189Z" transform="translate(-788.158 -815.325)" fill="#ab0029"/><path d="M825.659,840.521l-.281.374.561-.093s.094-.122-.28-.281" transform="translate(-788.938 -820.893)" fill="#ab0029"/><path d="M826.18,842.111h-.655l.188.842s.559.281.466-.842" transform="translate(-789.037 -821.968)" fill="#ab0029"/><path d="M824.225,851.226l.233.561.234-.561s-.141-.142-.467,0" transform="translate(-788.158 -828.09)" fill="#ab0029"/><path d="M825.744,854l-.748-.188-.046.748s.56.234.794-.56" transform="translate(-788.649 -829.883)" fill="#ab0029"/><path d="M822.619,864.939l-.56.375.812.14s.076-.234-.252-.515" transform="translate(-786.693 -837.406)" fill="#ab0029"/><path d="M822.026,866.61l-.654-.514-.329.888s.609.468.982-.374" transform="translate(-786.007 -838.188)" fill="#ab0029"/><path d="M815.966,875.05l-.7.421.843-.139s.093-.049-.141-.282" transform="translate(-782.098 -844.244)" fill="#ab0029"/><path d="M812.664,876.538l.842-.187-.654.468a.39.39,0,0,1-.187-.281" transform="translate(-780.34 -845.123)" fill="#ab0029"/><path d="M813.819,877.006l.469-.655.748.187s-.187,1.077-1.217.468" transform="translate(-781.121 -845.123)" fill="#ab0029"/></g><g transform="translate(0 46.645)"><path d="M868.677,816.2h2.247c4.194.225,3.483,4.233,1.5,4.419,3.3.375,2.432,4.72-.675,4.907h-3.595c-.938,0-1.5-1.162-1.424-1.986v-5.318a1.953,1.953,0,0,1,1.948-2.023m2.209,1.948h-1.761v1.76h1.8a.881.881,0,1,0-.038-1.76m.187,3.445h-1.909v2.062h1.947a1.032,1.032,0,1,0-.037-2.062" transform="translate(-866.722 -816.107)" fill="#ab0029"/><path d="M921.425,836.451v-4.456h2.135v4.119a1.061,1.061,0,1,0,2.1-.075v-4.044h2.1v6.778H925.77V838.1c-.262.936-3.784,1.91-4.345-1.648" transform="translate(-912.73 -829.391)" fill="#ab0029"/><rect width="2.21" height="9.401" transform="translate(16.298 0.018)" fill="#ab0029"/><rect width="2.209" height="9.4" transform="translate(19.613)" fill="#ab0029"/><rect width="2.322" height="2.059" transform="translate(22.741 3.764)" fill="#ab0029"/><path d="M1032.249,815.733h2.1c5.955.6,5.619,8.914.3,9.4h-2.471c-.638,0-1.425-.263-1.425-1.237V817.27a1.583,1.583,0,0,1,1.5-1.537m.6,1.984v5.431h1.2a2.728,2.728,0,0,0-.076-5.431Z" transform="translate(-1004.676 -815.714)" fill="#ab0029"/><path d="M1086.026,834.447a3.763,3.763,0,1,1,3.761,3.634,3.7,3.7,0,0,1-3.761-3.634m3.761,1.8a1.8,1.8,0,1,0-1.8-1.8,1.8,1.8,0,0,0,1.8,1.8" transform="translate(-1051.166 -828.399)" fill="#ab0029"/><path d="M1143.184,817.209v1.535h-.748c.674,1.311-.638,3.146-2.323,3.146-1.423-.151-1.648.524-.3.6,1.133.063,3.409.413,3.409,2.286,0,3.332-7.154,3.071-7.154.26,0-.672.675-1.5.974-1.5-.636-.149-.374-1.648.487-2.059-1.349-.751-2.061-3.858,1.722-4.571a3.485,3.485,0,0,1,1.461.3Zm-3.67,3.46a1.139,1.139,0,1,0-1.139-1.139,1.138,1.138,0,0,0,1.139,1.139M1138.5,825.6a3.423,3.423,0,0,0,1.947,0c.824-.187.488-1.01.039-1.16l-1.949-.263c-.562.375-.636,1.161-.038,1.423" transform="translate(-1093.254 -816.702)" fill="#ab0029"/></g></svg>