<?xml version="1.0" encoding="utf-8"?>
<!-- Generator: Adobe Illustrator 26.3.1, SVG Export Plug-In . SVG Version: 6.00 Build 0)  -->
<svg version="1.1" id="b" xmlns="http://www.w3.org/2000/svg" xmlns:xlink="http://www.w3.org/1999/xlink" x="0px" y="0px"
	 viewBox="0 0 28.2 40.4" style="enable-background:new 0 0 28.2 40.4;" xml:space="preserve">
<style type="text/css">
	.st0{fill:#B01B2D;}
</style>
<g id="c">
	<g>
		<g>
			<path class="st0" d="M0,14.1C0,6.3,6.3,0,14.1,0s14.1,6.3,14.1,14.1s-6.3,14.1-14.1,14.1S0,21.9,0,14.1z M14.1,27.6
				c7.5,0,13.5-6.1,13.5-13.5S21.5,0.5,14.1,0.5S0.5,6.6,0.5,14.1S6.6,27.6,14.1,27.6L14.1,27.6z"/>
			<path class="st0" d="M1.2,14.1C1.2,7,7,1.2,14.1,1.2S27,7,27,14.1S21.3,27,14.1,27S1.2,21.3,1.2,14.1z M14.1,26.5
				c6.8,0,12.4-5.5,12.4-12.4S20.9,1.7,14.1,1.7S1.7,7.3,1.7,14.1S7.2,26.5,14.1,26.5L14.1,26.5z"/>
			<path class="st0" d="M6.1,10.6c-0.8,0.1-1.2-0.2-1.1-1c0,0,0.2-1.5,0.2-1.7c0-0.2,0.4-1.1,0.5-1.3c0.1-0.3,0.4-0.4,0.8-0.7
				s1.6-1.6,2.2-0.8c0,0,0.5,0.4,0.6,0.4c0.4-0.5,1.2-1.1,2.6-0.8c0,0,0.9-0.4,2.3-0.2c0.2,0.1,0.5-0.5,2,0.2
				c0.1,0.1,2.4-1.8,3.9-0.5c0,0,0.2,0.3,0.4,0.4c0.2,0.1,0.8,0.5,1.1,1.3c0.3,0.8,0.9,1.4,1.2,1.7c0.3,0.2,0.5,1.1-0.4,1.2
				c0,0-0.4,0.2-0.4,0.3c0.2,0,0.2,0,0.4,0.2c0.1,0.2,0.2,0.3,0.4-0.1c0.2-0.4,0.5-0.3,0.8-0.1s0.3,0.4,0.6,0.1c0,0,0.1,0,0.3,0.1
				l1.6-0.2c3.5,9.5-3.2,18.1-12.3,17.9l0-0.6c-1.6-1.1-0.8-3.4,0.3-3.6c-0.4-0.5-0.8-1-0.8-1.2s-0.2-0.3-0.5-0.2s-1-0.1-1.3-0.2
				s-0.8-0.4-1.3-0.3c-0.5,0.1-0.8,0.2-1.4-0.2C8.6,21,7.9,21.8,7,20.9c0,0-0.1-0.1-0.2-0.1c-0.2,0-0.5-0.3-0.6-0.6
				c0,0-0.2-0.3-0.3-0.4c-0.1-0.1-0.7-0.8-0.7-1.4c0,0-0.1-0.1-0.2-0.3c-0.1-0.2-0.2-1.1,0.3-1.8c0.1-0.2,0.3-0.3,0-0.7
				c0,0-0.2-0.5,0.3-1.1c0,0,0.2-0.2,0.2-0.6c0,0,0.5-0.5,0.6-0.7c-0.2-0.1-0.4-0.6-0.2-1.1l-0.5-0.4c0,0,0.3-0.3,0.3-0.5L6.1,10.6
				L6.1,10.6z M5.5,9.4c0,0-0.2,0.6,0.2,0.6c0.4,0.1,0.6,0.1,0.6-0.6l0.2-1.3c0,0-0.1-0.1,0.5-0.7l0.6-0.7c0.2-0.4,0.8-0.3,0.3,0.2
				S6.5,8.7,6.7,9.6c0.1,0.3,0.3,0.5,0,0.8s-0.3,1-0.2,1.1s0.1,0.1,0.2,0c0.1-0.1,0.6-0.2,1,0.2c0,0,0.3,0.3,0.5,0.3
				c0.2,0,0,0,0.2,0.1s0.3,0,0.3,0l-0.3-0.5c-0.2-0.2-0.1-0.4,0.2-0.1c0,0,0.1,0.1,0.2,0.3C9,11.9,9.3,12,9.1,11.6
				c0,0-0.2-0.2-0.2-0.4c0-0.2,0.2-0.6,0.3-0.1c0.2,0.6,0.5,0.7,0.9,0.6c0,0,0.2-0.2,0.5-0.1c0,0,0.7-0.4,0.8-0.9
				c0.1-0.3,0.6-0.2,0.3,0c0,0-0.5,0.8-1,0.9c-0.5,0.2,0.1,0.3,0.2,0.2c1.1,0,1.5-0.1,1.5-1.4C13,9.9,13.2,10,13,10.3
				c0,0-0.2,0.6,0.3,0.2c0.5-0.4,1.1-0.4,1.2-0.5c0.1,0,0.3,0,0.3,0.2c0,0-0.2,0.1-0.3,0.1s-0.5-0.1-0.8,0.2l-0.2,0.3H13
				c0,0-0.2,0.1-0.2,0.3c-0.1,0.2-0.2,0.6,0.2,0.1c0.5-0.4,1.3-0.7,2.4-0.1c0.1,0.1,0.1,0.3,0.4,0c0.3-0.3,0.6-0.3,0.3,0
				c-0.3,0.3-0.6,0.5-0.2,0.6c0.5,0.2,0.4,0.3,0,0.2c-0.4-0.1-0.6,0.2-0.6,0.2s-0.7,0.7-1.8,0.3c0.4,0.2,0.8,0.4,1.3,0.2
				c0.3-0.1,0.6,0,0.4,0.2s-0.8,0.2-1.7-0.3c0.2,0.5,1.2,0.8,1.6,0.6c0.3-0.1,0.4,0.1,0.2,0.2c-0.2,0.1-1.2,0.2-2.2-0.7
				c-1-1-0.5,0.3-0.1,0.4c0,0,0.8,0.7,1.6,0.8s1.2,0.7,1.2,1.2c0,0,0.3,0.6-0.1,0.6c0.3,0.1,0.3,0.2,0.5,0.2c0.2,0,0.8,0.5,0.7,1.1
				c0,0,0.5,0.5,0.2,0.9c-0.3,0.5-0.4,0.3-0.2,0.6c0,0-0.5-0.2-0.8-0.6c-0.3-0.3-0.9-0.5-0.9-0.5c-1.1-0.5-0.2-0.4,0.1-0.2
				c0.2,0.2,0.6,0.3,0.8,0.5c0.2,0.2,0.5,0.3,0.7-0.1c0.2-0.4-0.2-0.8-0.2-0.8c0-0.1,0.1-0.9-1-1c0,0-0.3,0-0.5-0.1
				s-0.4-0.3-0.3,0.2c0.3,0.4,0.9,1.3,0,0.3c-0.1-0.3-0.4-0.6-0.8-0.8c-0.3-0.2-0.8-0.6-0.9-0.8c-0.1-0.2-0.5-0.2-0.5-0.2
				s-0.2-0.1-0.3-0.2c-0.1-0.1-0.4,0-0.5,0.1s-0.4,0.2-0.8,0c-0.6-0.2-1.6-0.1-2.4,0.6c-0.1,0.1-0.3,0.4-0.5,0c0,0-0.2-0.3-0.8,0
				c0,0-2.5,2.1-1.4,3.3c0,0,0,0.6,0.4,1S7,19.5,6.8,18c-0.1-0.6,0-1.1,0.8-1.4s0.8-0.5,0.8-0.6s0.1-0.4,0.2,0c0,0,0,0.4,0.7,0.3
				c0.6,0.1,2.3,0.3,3,1.4s0.3,0.9-0.2,0.5c-0.5-0.4-3.1-1-4.4-0.3c-0.4,0.1-0.8,0.6,0,0.7c0.6,0.2,1.3,0.6,1.4,1.2
				c0,0,0.2,0.5,0.6,0.5s0.5-0.1,0-0.5l-0.4-0.5c0,0-0.1-0.3-0.2-0.4c-0.1-0.1-0.1-0.4,0.2-0.1c0.3,0.3,0.4,0.8,0.7,1
				c0.2,0.1,0.5,0.3,0.9,0.3c0.5-0.1,0.5,0.1,0.9,0.3c0.2,0.2,0.8,0.2,1,0.1c0.2,0,0.9,0,0.2-1c-0.2-0.3-0.3-1.2,0.2-0.3
				c0,0,0.5,0.6,0.6,0.8c0.1,0.1,0.3,1,1.3,0.9c1.1,0.1,2.8,0,3.2-1.3c0,0,0.4-0.6,0.6-0.7s0.9-0.6,0.7-1.5
				c-0.1-0.6,0.1-1.2,0.1-1.2s0.3-0.6,0.2,0c-0.1,0.6-0.2,1,0,1.2c0.1,0.2,0.2,0.6,0.6-0.2c0.2-0.3,0.4-0.9,0.2-1.9
				c-0.2-1,0-2.1,0.1-1.1c0,0,0.2,0.4,0.3-0.5s-0.1-2.8-0.3-3.3c-0.1-0.5,0-1,0.2,0c0,0,0.2,0.8,0.3,1.2s0.6,2.1-0.2,3.2
				c0,0,0.3,0.3,0.4,0.7c0,0,0.4,0.4,0.2-0.1c-0.3-0.4-0.3-0.6-0.3-0.6c-0.1-0.2,0-0.7,0.2,0c0.3,0.6,0.6,0.4,0.3,0
				c0,0-0.1-0.2-0.2-0.4c-0.2-0.2-0.2-0.6,0.2-0.1c0,0,0.1,0.1,0.2,0.3s0.4,0.2,0.1-0.2l-0.4-0.5c0,0-0.4-0.6,0.2-0.1L22,14
				c0,0,0.6,0.4,0.2-0.2c0,0-0.2-0.2-0.3-0.4c0,0-0.2-0.1-0.3-0.3s-0.1-0.2,0.2,0c0,0,0.1,0.1,0.3,0.2c0.2,0.1,0.5-0.1,0.1-0.4
				c-0.4-0.3-0.6-0.6-0.6-0.6c-0.2-0.2-0.3-0.4,0.1-0.1c0.4,0.3,0.9,0.6,0.5,0s-0.6-0.8-0.6-0.8c-0.5-0.4-0.4-0.7,0.1-0.1
				c0.5,0.6,0.7,0.3,0.2-0.3C21,10.4,20.6,10,22,10.7c0,0,0.2,0-0.2-0.4S21,9.8,21.7,10c0,0,0.6,0.2-0.1-0.2
				c-0.4-0.1-0.5-0.4-0.6-0.6c-0.1-0.1-0.1-0.2,0.2-0.3c0,0,0.2-0.1,0.3-0.2c0.1-0.1,0-0.1,0.2-0.1s0.2-0.1,0.2-0.1s0.2,0,0.2-0.1
				s0.4-0.5-0.1-0.8c-0.4-0.3-0.9-0.9-1-1.3C21,6,21,5.4,20.1,5c-0.5-0.5-1.3-1.6-3.6,0.3c0,0-0.5,0.2-0.9-0.1
				c-0.4-0.3-1.2-0.1-1.2-0.1c0,0-1.7-0.1-2.3,0.3c0,0-0.2,0-0.4-0.1C11.5,5.1,10,5.4,9.8,5.9c0,0-0.7,1.1-0.8,0.4
				c0,0-0.2-0.4-0.5-0.5c0,0-0.2-0.5-1,0c0,0-0.6,0.7-0.8,0.8C6.4,6.7,5.8,7.4,5.7,8.2S5.6,9.5,5.5,9.4L5.5,9.4z M6.1,15.6l1-0.9
				c-0.2-0.3,0.2-1,0.4-1.1c0,0,0.1-0.6,1.1-0.7c0,0,0.4,0,0.5-0.1c0.2,0,1-0.1,1.3,0.2c0,0,0.2,0.2,0.3,0.2c0.1,0.1,1,1,0.8,1
				c0,0,0.1,0.1,0.3-0.1c0.2-0.2,0.4-0.1,0.6,0c0.2,0,1,0.1,0.1-0.2c0,0-0.2-0.2-0.6-0.1c0,0-0.3-0.1-0.5-0.4
				c-0.2-0.3,0.1-0.2,0.2-0.2c0.1,0.1,0,0.3,0.5,0.4c0.6,0.1,0.9,0,1.3,0.8c0.4,0.7,0.9,1.1,1.3,1c0.8,0.3,1.1,0.1,0.9-0.3
				c0,0-0.2-0.2-0.2-0.4s0-0.3-0.6-0.5c0,0-0.5-0.2-0.7-0.2c0,0-0.2-0.1-0.3-0.2c-0.1-0.1-0.3-0.2-0.6-0.3s-0.8-0.6-1-0.8
				s-1.4-0.4-2-0.5c0,0-0.9-0.2-2.6,0.5c-0.3,0.1-0.5,0.4-0.6,0.6s-0.4,0.6-0.6,0.7C6.5,14,5.8,15.5,6.1,15.6L6.1,15.6z M6.6,12.1
				c0,0,0,0.5,0.3,0.1c0,0,0-0.1,0.1-0.2c0.1-0.1,0-0.6-0.3-0.3C6.7,11.7,6.6,12,6.6,12.1L6.6,12.1z M7.5,12.1c0,0,0,0.5,0.2,0.1
				C7.7,12.1,7.5,11.8,7.5,12.1z M13.5,11.7c0,0,0.2,0.6,0.4,0c0.1-0.2,0.2-0.7-0.2-0.4C13.7,11.3,13.5,11.4,13.5,11.7L13.5,11.7z
				 M15.1,11.2c0,0,0.1,0.6-0.2,0.8c0,0,0.2,0.1,0.6-0.5C15.6,11.5,15.4,11.4,15.1,11.2L15.1,11.2z M11.3,17.5
				c0.3,0.2,0.1-0.3,0.1-0.3c-0.5-0.3-0.2,0.1-0.2,0.1S11.3,17.5,11.3,17.5z M10.7,17.4c0.3,0.1,0.1-0.4,0.1-0.4
				c-0.4-0.4-0.3,0.1-0.3,0.1C10.5,17.3,10.7,17.4,10.7,17.4L10.7,17.4z M10.1,17.3c0,0,0.4-0.1,0-0.5C9.7,16.4,9.7,17,9.7,17
				C9.8,17.3,10.1,17.3,10.1,17.3z M9.2,17.3c0.2,0.2,0.5,0,0.2-0.5S8.9,16.7,9,16.9C9,17.1,9.2,17.3,9.2,17.3L9.2,17.3z M8.4,17.3
				c0.5,0.3,0.2-0.5,0.2-0.5c-0.3-0.5-0.4,0.1-0.4,0.1C8.3,17.2,8.4,17.3,8.4,17.3L8.4,17.3z M8,17.4c0.3-0.1-0.1-0.5-0.1-0.5
				c-0.4-0.4-0.4,0.2-0.4,0.2C7.5,17.5,7.7,17.5,8,17.4z M7.3,17.7c0.3,0.1,0.2,0,0-0.3c-0.2-0.3-0.2,0.2-0.2,0.2
				C7.2,17.8,7.3,17.7,7.3,17.7L7.3,17.7z M8.3,13.9c-0.1,0.3-0.1,0.6-0.1,0.6c0.3,0.5,0.2-0.2,0.2-0.7s0.2-0.1,0.2-0.1
				c0.1-0.2,0.7-0.4,0.7-0.4c0.8-0.2-0.1-0.2-0.1-0.2s-0.5-0.1-0.6,0.1c-0.2,0.2-0.5,0.1-0.5,0.1c-0.5,0.2-0.1,0.2-0.1,0.2
				C8.3,13.5,8.4,13.6,8.3,13.9L8.3,13.9z M22.8,14.1c0.1,1.7-0.4,3.1-1,4.2c0.2,0.2,0.8,0.3,0.8,0.3c1,0.5,1.4-1.4,1.4-1.4
				c0.7-2.2,0.3-5.5-0.1-7.2c-1.2-0.8-1.4-0.1-1.4-0.1C22.9,11.1,22.8,14.1,22.8,14.1z M22.5,14.2c0,1.3-0.5,2.8-0.5,2.8
				c-0.4,1.5-1.8,2.7-1.8,2.7c-1.3,1.5-2.9,2.1-3.8,2.5c-0.7,0.4,0.3,0.1,0.3,0.1c2.4-0.9,3.7-2.5,3.7-2.5c1.5-1.4,1.8-2.7,1.8-2.7
				c0.6-1.7,0.5-2.6,0.5-2.6c0.1-1.4-0.1-3.5-0.3-4.9c0-0.5-0.3-0.4-0.2,0.1C22.3,10.4,22.5,12.4,22.5,14.2z M24.4,13
				c0.3,2.2-0.5,4.6-0.5,4.6c-1.2,2.8-2.1,3.3-2.1,3.3c-1,1.2-2.7,2.1-3.5,2.4c-0.7,0.4-0.1,0.4,0.1,0.2c2.2-0.8,3.5-2.4,3.5-2.4
				c1.8-1.6,2.2-3.4,2.2-3.4c0.8-1.5,0.5-4.7,0.5-4.7c0.1-0.5-0.1-1.9-0.4-3.4c-0.1-0.4-0.2-0.4-0.2,0C24.4,11.4,24.4,13,24.4,13
				L24.4,13z M25,11.4c0.5,0.6,0.3,0.8,0.3,0.8c0,0.8,0.9,1.4,0.9,1.4c0.2-0.9-0.7-3.6-0.7-3.6c-0.1-0.1-0.6,0-0.6,0
				C24.3,10.1,24.5,10.8,25,11.4L25,11.4z M25.2,13c0,0,0.3,0.4,0.3,0.6s0.1,0.6,0.5,1.5s0.1,0,0.1,0c0.2-0.3-0.1-0.5-0.1-0.5
				l-0.4-0.5c-0.1-0.3,0.1-0.2,0.3,0c0.5,0.5,0.1-0.2,0.1-0.2c-0.8-0.6-0.6-0.8-0.8-1.1s0.2-0.5-0.2-0.8c-0.4-0.5-0.2,0.1-0.2,0.1
				C25,12.4,25.2,13,25.2,13L25.2,13z M18,22.8c0.2,0.2,0.2,0.1,0.2,0.1c0.4-0.1,1.7-1.1,1.7-1.1c0.4-0.2,0.1-0.4,0-0.5
				s-0.2-0.1-0.3,0s-1.5,1-1.6,1.1c-0.2,0.1-0.1,0.2-0.1,0.2L18,22.8L18,22.8z M16.6,23.5h0.2l-0.1-0.5h-0.3L16.6,23.5L16.6,23.5z
				 M12.9,24.7c0,0.9,0.7,1.7,1.8,1.7s1.7-0.9,1.7-1.8s-0.8-1.5-1.1-1.6l-0.1,0.6c0.1,0.1,0.6,0.2,0.6,1s-0.3,1.1-1.1,1.1
				s-1-0.7-1.1-1.1c0-0.4,0.2-0.8,0.6-1L14.1,23C13.5,23,12.9,23.8,12.9,24.7L12.9,24.7z M14.6,23.6C15,24,15,23,15,23
				c-0.5-0.6-0.7,0.1-0.7,0.1C14.3,23.3,14.6,23.6,14.6,23.6L14.6,23.6z M7.8,14l-0.1,0.2l0.2,0C8,14.3,7.8,14.2,7.8,14z M9.5,13.9
				c0.5-0.1,0.4-0.2,0.2-0.4L9.5,13.9z M14.9,25.4l0-0.4c-0.4-0.1-0.4-0.5-0.3-0.7L14.3,24C13.3,24.6,14.1,25.7,14.9,25.4z
				 M21.4,20.6c0.3,0,0.5-0.2,0.5-0.5s-0.2-0.5-0.5-0.5s-0.5,0.2-0.5,0.5S21.1,20.6,21.4,20.6z M20.9,15.4c0.3,0.2,0.1-0.1,0.1-0.1
				L21,15.2c-0.1-0.4-0.1,0-0.1,0C20.9,15.5,20.9,15.4,20.9,15.4z M21.3,16.2c0.1,0.1,0.2,0.1,0.1-0.1c0,0-0.1-0.1-0.2-0.3
				c-0.1-0.2-0.1-0.1-0.1,0.1C21.1,15.9,21.2,16.1,21.3,16.2z M21.1,16.7c0.1,0.2,0.3,0.1,0.2,0c-0.1-0.1-0.1-0.1-0.1-0.3
				s-0.2-0.1-0.1,0.1C21,16.4,21,16.5,21.1,16.7L21.1,16.7z M20.8,17.4c0,0.3,0.1,0,0.1,0s0-0.4,0-0.6c0-0.2-0.2-0.1-0.2,0
				C20.8,16.9,20.7,17.1,20.8,17.4z M6.7,19.7c0,0,0.1,0.3,0.3,0.5c0,0,0.1,0,0.2,0.1L6.7,19.7L6.7,19.7z M7.3,20.3
				c0,0,0.1,0.1,0.1,0.2s0.3,0.1,0.3,0.1v-0.1C7.8,20.5,7.7,20.3,7.3,20.3L7.3,20.3z M7.3,19.7c0,0,0.1,0.2,0.1,0.3l0.2,0.2l0.2,0.1
				C7.8,20.1,7.6,19.9,7.3,19.7L7.3,19.7z M7.3,19.1l0.2,0.5l0.3,0.2c-0.1-0.2-0.1-0.3-0.2-0.3L7.3,19.1z M8,20.1
				c0,0,0.1,0.2-0.1,0.3l0.1,0.3c0.2-0.2,0.4-0.4,0.2-0.8C8.1,20,8.1,20,8,20.1z M25.5,16.2c0,0,0.1,0.3,0.2,0.7
				c0.1,0.4,0.2,0.1,0.2,0c0-0.1-0.1-0.5-0.3-0.7c0,0,0-0.3-0.1-0.5c-0.1-0.2-0.2-0.1-0.1,0.1 M23.5,9.5l-0.3-0.3
				C23.2,9.5,23.3,9.6,23.5,9.5z M22.9,18.9c-0.1,0.1,0,0.2,0,0.1c0,0,0.1,0,0.1-0.2s-0.1,0-0.1,0L22.9,18.9L22.9,18.9z M22.2,19.5
				C22.1,19.6,22.2,19.6,22.2,19.5c0,0.1,0.5-0.4,0.6-0.6c0.1-0.2,0-0.2-0.1,0C22.6,19,22.3,19.3,22.2,19.5L22.2,19.5z M22,19.4
				C21.9,19.6,22.1,19.5,22,19.4c0.1,0.1,0.4-0.3,0.5-0.6c0.1-0.2,0-0.1-0.1,0C22.4,18.9,22.1,19.4,22,19.4L22,19.4z M21.8,19.4
				C21.7,19.5,21.9,19.5,21.8,19.4c0.1,0.1,0.4-0.3,0.5-0.6c0.1-0.2,0-0.1-0.1,0C22.3,18.8,21.9,19.3,21.8,19.4L21.8,19.4z
				 M21.7,19.3C21.6,19.4,21.7,19.4,21.7,19.3c0.1,0.1,0.5-0.5,0.6-0.7c0-0.1,0-0.1-0.1,0C22.1,18.6,21.7,19.2,21.7,19.3L21.7,19.3z
				 M21.5,19.2C21.4,19.3,21.5,19.2,21.5,19.2c0.1,0.1,0.5-0.4,0.6-0.6c0-0.1,0-0.1-0.1,0C22,18.6,21.5,19.1,21.5,19.2L21.5,19.2z
				 M21.3,19.1C21.2,19.3,21.4,19.2,21.3,19.1c0.1,0.1,0.5-0.4,0.6-0.6c0.1-0.1,0-0.1-0.1,0C21.8,18.5,21.4,19.1,21.3,19.1
				L21.3,19.1z M22.6,19.5c-0.2,0.3,0.1,0.1,0.1,0.1s0.4-0.4,0.6-1c0.2-0.6-0.1,0-0.1,0C23.1,18.9,22.6,19.5,22.6,19.5z"/>
			<g>
				<path class="st0" d="M14.7,22.9c0,0,0.2,0.4-0.1,0.6c0,0,0,0.2,0.2,0c0.2-0.2,0.1-0.5,0.1-0.5S14.8,22.7,14.7,22.9L14.7,22.9z"
					/>
				<path class="st0" d="M24.1,15.2c0-0.2,0.1-0.2,0.1,0S24.2,16,23.4,16c-0.3,0-0.3-0.1,0-0.1S24.1,15.8,24.1,15.2L24.1,15.2z"/>
				<path class="st0" d="M24,12.4c0,0-0.1-0.2,0.1-0.1c0.2,0.1,0.3,1.1-0.3,1.2c0,0-0.3,0-0.1-0.1C24.3,13.3,24.3,12.7,24,12.4z"/>
				<path class="st0" d="M23.9,10.2C23.9,10.2,23.7,10.1,23.9,10.2c0.3,0,0.5,1.2-0.3,1.2c0,0,0-0.1,0.1-0.1
					C24,11.4,24.2,10.8,23.9,10.2L23.9,10.2z"/>
				<path class="st0" d="M22.7,10.7c0-0.3,0.3-0.6,0.6-0.6s0.6,0.3,0.6,0.6s-0.3,0.6-0.6,0.6S22.7,11,22.7,10.7z M23.3,11.2
					c0.3,0,0.5-0.2,0.5-0.5s-0.2-0.5-0.5-0.5s-0.5,0.2-0.5,0.5S23,11.2,23.3,11.2z"/>
				<path class="st0" d="M23,12.8c0-0.3,0.3-0.6,0.6-0.6s0.6,0.3,0.6,0.6s-0.3,0.6-0.6,0.6S23,13.1,23,12.8z M23.5,13.3
					c0.3,0,0.5-0.2,0.5-0.5s-0.2-0.5-0.5-0.5S23,12.6,23,12.8S23.3,13.3,23.5,13.3z"/>
				<path class="st0" d="M22.9,15.2c0-0.3,0.3-0.6,0.6-0.6s0.6,0.3,0.6,0.6s-0.3,0.6-0.6,0.6S22.9,15.5,22.9,15.2z M23.5,15.7
					c0.3,0,0.5-0.2,0.5-0.5s-0.2-0.5-0.5-0.5S23,14.9,23,15.2S23.2,15.7,23.5,15.7z"/>
				<path class="st0" d="M22.2,18c0-0.3,0.3-0.6,0.6-0.6s0.6,0.3,0.6,0.6s-0.3,0.6-0.6,0.6S22.2,18.3,22.2,18z M22.8,18.5
					c0.3,0,0.5-0.2,0.5-0.5s-0.2-0.5-0.5-0.5s-0.5,0.2-0.5,0.5S22.5,18.5,22.8,18.5z"/>
				<path class="st0" d="M15.5,23.7c0.1,0.1,0.2,0.1,0.1-0.1c-0.1-0.2-0.4-0.2-0.4-0.3l-0.1,0.2C15.1,23.5,15.4,23.7,15.5,23.7
					L15.5,23.7z"/>
				<path class="st0" d="M15.7,23.9c0,0,0,0.1,0.1,0.2c0,0.1,0.2,0.1,0.1-0.1c0,0,0-0.1-0.1-0.2S15.6,23.8,15.7,23.9z"/>
				<path class="st0" d="M14.1,23.4c-0.8,0.4-0.8,1-0.8,1.3c0,0,0.1,0.4,0.1,0c0-0.5,0.2-1,0.7-1.2L14.1,23.4L14.1,23.4z"/>
				<path class="st0" d="M13.4,25.2c-0.1-0.1,0.1-0.2,0.1,0c0.1,0.2,0.1,0.2,0.2,0.3s0.1,0.2,0,0.2S13.4,25.3,13.4,25.2z"/>
				<path class="st0" d="M13.6,26c-0.1-0.1,0-0.2,0.1-0.1C13.9,26,13.9,26,14,26c0.1,0,0.1,0.2-0.1,0.1S13.6,26,13.6,26L13.6,26z"/>
				<path class="st0" d="M15.8,23.5c-0.1-0.1,0.1-0.2,0.1-0.1c0.8,0.9,0.6,2.9-1.4,2.9c-0.2,0-0.3-0.1,0-0.1
					C15.7,26.4,16.9,24.8,15.8,23.5z"/>
				<path class="st0" d="M12.5,16.4c-0.4-0.2-0.5-0.4,0.1-0.2c0,0,0.7,0.3,0.9,0.5s0.5,0.6,0.6,0.6s0.5,0.5,0,0.2
					c0,0-0.4-0.3-0.6-0.5C13.3,16.8,12.9,16.4,12.5,16.4L12.5,16.4z"/>
				<path class="st0" d="M15.4,18.6c-0.1-0.2-0.1-0.4,0.2-0.2s0.8,0.6,1.1,0.7c0.3,0.1,0.9,0.6,0,0.2C16.4,19.3,15.6,19,15.4,18.6z"
					/>
				<path class="st0" d="M16.2,16.8c0.1,0,0.2-0.1,0.2-0.2s-0.1-0.2-0.2-0.2S16,16.5,16,16.6S16.1,16.8,16.2,16.8z"/>
				<path class="st0" d="M16.1,14.6c0.1,0,0.2-0.1,0.2-0.2s-0.1-0.2-0.2-0.2s-0.2,0.1-0.2,0.2S16,14.6,16.1,14.6z"/>
				<path class="st0" d="M16.8,14.9c0.1,0,0.2-0.1,0.2-0.2s-0.1-0.2-0.2-0.2s-0.2,0.1-0.2,0.2S16.7,14.9,16.8,14.9z"/>
				<path class="st0" d="M16.4,15.4c0.1,0,0.2-0.1,0.2-0.2S16.6,15,16.4,15s-0.2,0.1-0.2,0.2S16.3,15.4,16.4,15.4z"/>
				<path class="st0" d="M17,15.7c0.1,0,0.2-0.1,0.2-0.2s-0.1-0.2-0.2-0.2s-0.2,0.1-0.2,0.2S16.9,15.7,17,15.7z"/>
				<path class="st0" d="M7.2,15.4c0.1,0,0.1-0.1,0.1-0.1s-0.1-0.1-0.1-0.1S7,15.1,7,15.2S7.1,15.4,7.2,15.4z"/>
				<path class="st0" d="M6.7,15.9c0.1,0,0.1-0.1,0.1-0.2s-0.1-0.2-0.1-0.2s-0.1,0.1-0.1,0.2S6.6,15.9,6.7,15.9z"/>
				<path class="st0" d="M18,6.3c0,0-0.2-1.6,1-1.5c0,0,0.7-0.1,1.2,1.1C20.6,6.5,22,7.5,21,8.2c0,0,0.2-0.2-0.5-0.6
					c-0.2-0.1-0.3-0.1-0.1,0.1c0.3,0.2,0.5,0.4,0,0.3c-0.2-0.1-0.6-0.2-0.3,0s0.4,0.3-0.1,0.3c-0.3-0.3-0.6-0.4-0.3,0.1
					c0,0,0,0.2-0.4,0c-0.4-0.2-0.6-0.7-0.6-0.7S18.4,7.3,19,7.3c0,0,0.8-0.4,0.9-0.6c0.1-0.2,0.1-0.1,0-0.3
					c-0.1-0.2-0.1-0.1-0.2,0.1c0,0.2-0.1,0.2-0.2,0c-0.1-0.2-0.2-0.2-0.1,0.2c0,0,0.1,0.3-0.2,0.2c0,0,0.1,0.3-0.2,0.2
					c0,0,0.2,0.3-0.3,0S18,6.5,18,6.3L18,6.3z"/>
				<path class="st0" d="M16.9,5.3c-0.1,0.2,0,0.3,0.2,0.1l0.2-0.2C17.5,5,17.5,4.7,17.1,5C17.1,5,16.9,5.3,16.9,5.3z"/>
				<path class="st0" d="M15.5,6.5c-0.1,0.2-0.1,0.3,0.2,0.2c0.3-0.2,0.9-0.6,1.8,0.1l0.4,0.4c0.2,0.3,0.6,0.4,0.2-0.2l-0.5-0.3
					C17.1,6.2,16.4,5.9,15.5,6.5z"/>
				<path class="st0" d="M18.1,8.4c-0.3-0.4,0.2-0.5,0.3-0.2s0.4,1.1,0.9,1c0.1,0.1,0.4,0.2,0.3,0.6l0.1,0.5c0.1,0.3-0.2,0.6-0.3,0
					c0.1-0.4,0-0.8-0.4-1c-0.5-0.2-0.5-0.3-0.5-0.5S18.1,8.4,18.1,8.4L18.1,8.4z"/>
				<path class="st0" d="M15.3,9.2c-0.4,0-0.1-0.2,0.1-0.3H16c0.2,0,0.8,0.8,1.2,0.9c0.4,0.1,0.5,0.4,0,0.3s-1.1-0.9-1.4-0.9
					L15.3,9.2L15.3,9.2z"/>
				<path class="st0" d="M13.2,9.2c-0.2,0.2-0.2,0.4,0.1,0.2C13.6,9.2,14.1,9,14.5,9c0.4,0.1,0.4-0.3-0.1-0.3S13.4,9,13.2,9.2
					L13.2,9.2z"/>
				<path class="st0" d="M16,9.9c-0.4-0.1-0.3-0.3,0.1-0.3c0.4,0.1,0.3,0.6,0.8,0.7c0.4,0.1,0.3,0.3-0.1,0.2
					C16.3,10.4,16.4,10,16,9.9L16,9.9z"/>
				<path class="st0" d="M15.5,10.1c-0.4,0-0.3,0.1-0.1,0.2c0.2,0.1,0.3,0.1,0.5,0.2c0.2,0.1,0.3,0,0.2-0.2
					C15.8,10,15.5,10.1,15.5,10.1L15.5,10.1z"/>
				<path class="st0" d="M10.8,8.6c-0.2,0.1-0.3,0.6,0.1,0.2c0.5-0.5,0.6-0.8,2.3-0.8c0.6,0.1,0.8-0.3,0-0.3s-0.7,0.2-1,0
					C11.8,7.5,11,8.2,10.8,8.6z"/>
				<path class="st0" d="M9.4,7.8c-0.2-0.1-0.3,0,0,0.2s0.8,0.5,1.6-0.2c0,0,0.5-0.3-0.2-0.2C10.6,7.9,10.1,8.2,9.4,7.8z"/>
				<path class="st0" d="M8.7,8.4c-0.4-0.3-0.6,0-0.2,0.2c0,0,0.3,0,0.5,0.2S9.5,9,9.5,9c0.2,0.1,0.6-0.1,0-0.2
					C9.3,8.7,9,8.4,8.9,8.4L8.7,8.4L8.7,8.4z"/>
				<path class="st0" d="M7.5,9.7C7.2,9.8,7.1,9.6,7.4,9.4C7.8,9.2,8.2,9,8.7,9.2C8.8,9.4,8.9,10,8.4,9.5C8.4,9.5,8.2,9.2,7.5,9.7
					L7.5,9.7z"/>
				<path class="st0" d="M7.4,10c-0.3,0.1-0.5,0.3,0,0.2S8.2,10,8.3,10c0.1,0,0.5,0.2,0-0.2C8.3,9.9,8.1,9.7,7.4,10z"/>
				<path class="st0" d="M7.3,10.8c-0.3,0-0.5,0.2,0,0.2s0.7,0.4,0.7,0.4c0,0.4,0.2,0.6,0.4,0.3c-0.2-0.2-0.2-0.3-0.2-0.6
					S7.5,10.8,7.3,10.8L7.3,10.8z"/>
				<path class="st0" d="M16.4,12.8c-0.3,0.2-0.3,0.5,0.1,0.2c0.5-0.3,0.6-0.5,0.8-0.8c0.1-0.3,0.3-0.3,0.3,0.2
					c-0.2,0.3-0.2,0.7-0.1,1c0.1,0.3,0,1.3-0.1,1.6s0.1,0.8,0.4,1c0.2,0.3,1.1,1,0.6,1.7c0,0-0.2,0.3-0.2,0.5s0,0.4,0.2-0.1
					s0.2-0.4,0.3-0.6c0.2-0.2,0.3-0.7-0.5-1.4c-0.8-0.7-0.8-1.3-0.5-2.1l0-1.7c0.1-0.4,0-0.4-0.2-0.6s-0.5,0.2-0.5,0.2
					S16.6,12.8,16.4,12.8L16.4,12.8z"/>
				<path class="st0" d="M18.2,11.7c-0.1-0.3,0.4-0.3,0.2,0c0,0,0,0.2,0.1,0.3c0.1,0.2,0.2,0.8-0.1,1s-0.2,0-0.2-0.2
					s0.1-0.4,0.1-0.7C18.3,12.1,18.2,11.8,18.2,11.7z"/>
				<path class="st0" d="M18.6,11.7c-0.1-0.3,0.4-0.3,0.2,0c0,0-0.1,0.2,0,0.4s0.3,0.5,0.1,1c-0.1,0.2-0.2,0-0.2-0.2
					s0.1-0.3,0.1-0.6C18.7,12.2,18.6,11.8,18.6,11.7L18.6,11.7z"/>
				<path class="st0" d="M19,11.7c-0.1-0.3,0.4-0.3,0.2,0c0,0,0,0.2,0.1,0.3c0.1,0.2,0.3,0.6,0,0.7c-0.3,0.2-0.2,0-0.2-0.2
					s0-0.2-0.1-0.5C19.1,12.1,19,11.8,19,11.7L19,11.7z"/>
				<path class="st0" d="M7.7,18.1c0,0,0.2-0.3,0.2,0C7.9,18.2,7.8,18.3,7.7,18.1z"/>
				<path class="st0" d="M8,18.1c0,0,0-0.3,0.2,0C8.2,18,8.2,18.2,8,18.1z"/>
				<path class="st0" d="M8.3,18c0,0,0.1-0.2,0.2,0C8.5,17.9,8.5,18.2,8.3,18z"/>
				<path class="st0" d="M8.6,17.9c0,0,0.1-0.2,0.2-0.1C8.8,17.9,8.8,18.2,8.6,17.9z"/>
				<path class="st0" d="M8.9,17.9c0,0,0.1-0.2,0.2,0C9.1,17.9,9,18.2,8.9,17.9z"/>
				<path class="st0" d="M9.3,17.9c0,0,0-0.2,0.1,0C9.4,17.9,9.4,18.1,9.3,17.9z"/>
				<path class="st0" d="M9.6,17.9c0,0,0.1-0.2,0.2,0C9.9,18,9.7,18,9.6,17.9z"/>
				<path class="st0" d="M9.9,17.9c0,0,0.2-0.2,0.2,0S10,18.1,9.9,17.9z"/>
				<path class="st0" d="M10.3,17.9c0,0,0.1-0.2,0.2,0C10.5,18.2,10.4,18.1,10.3,17.9z"/>
				<path class="st0" d="M10.6,17.9c0,0,0.1-0.2,0.2,0C10.8,18.1,10.6,18.1,10.6,17.9z"/>
				<path class="st0" d="M11,17.9c0,0,0.2-0.2,0.2,0.1C11.2,18.2,11.1,18.1,11,17.9z"/>
				<path class="st0" d="M11.4,20c-0.1-0.2-0.1-0.3,0.1-0.1C11.7,20.1,11.7,20.3,11.4,20z"/>
				<path class="st0" d="M11.8,20c0,0-0.2-0.3,0.1-0.1C11.9,19.8,12.1,20.4,11.8,20z"/>
				<path class="st0" d="M12.1,20c0,0-0.2-0.3,0.1-0.1S12.4,20.2,12.1,20z"/>
				<path class="st0" d="M12.6,20.1c-0.1-0.2-0.2-0.5,0.1-0.2C12.9,20.2,12.9,20.4,12.6,20.1z"/>
				<path class="st0" d="M11.8,10.1c-0.1,0.1-0.2,0.4,0.2,0.2S12.2,9.7,11.8,10.1z"/>
				<path class="st0" d="M8.7,10C8.7,9.8,8.8,9.7,9,9.9c0,0,0,0.2,0.1,0.3s0.1,0.6-0.2,0.2C8.9,10.4,8.7,10.4,8.7,10z"/>
				<path class="st0" d="M15.4,16.3c0.1,0,0.2-0.1,0.2-0.2s-0.1-0.2-0.2-0.2s-0.2,0.1-0.2,0.2C15.2,16.2,15.3,16.3,15.4,16.3z"/>
				<path class="st0" d="M23.6,10.3l-0.2,0.3l0.5,0.2C23.9,10.6,23.8,10.4,23.6,10.3z"/>
				<path class="st0" d="M23.3,10.6l0.1,0.6c0,0,0.1,0.1,0.3-0.1L23.3,10.6L23.3,10.6z"/>
				<path class="st0" d="M23.8,12.4l-0.2,0.2l0.4-0.1C23.9,12.5,24,12.5,23.8,12.4L23.8,12.4z"/>
				<path class="st0" d="M24,12.7h-0.4l0.1,0.6C23.7,13.3,24.1,13.5,24,12.7L24,12.7z"/>
				<path class="st0" d="M23.3,14.7l0.2,0.4l0.2-0.4C23.6,14.7,23.5,14.6,23.3,14.7L23.3,14.7z"/>
				<path class="st0" d="M24,15.4l-0.5-0.1l0,0.5C23.5,15.7,23.8,15.9,24,15.4L24,15.4z"/>
				<path class="st0" d="M23.2,17.6l-0.4,0.2l0.5,0.1C23.4,18,23.4,17.8,23.2,17.6z"/>
				<path class="st0" d="M23.3,18.2l-0.4-0.3l-0.2,0.6C22.6,18.5,23,18.8,23.3,18.2L23.3,18.2z"/>
				<path class="st0" d="M21.9,19.8l-0.5,0.3l0.6-0.1C21.9,20,22,20,21.9,19.8z"/>
				<path class="st0" d="M20.8,20.2l0.6-0.1l-0.4,0.3C20.9,20.4,20.8,20.3,20.8,20.2z"/>
				<path class="st0" d="M21.1,20.5l0.3-0.4l0.5,0.1C21.9,20.2,21.8,20.9,21.1,20.5L21.1,20.5z"/>
			</g>
		</g>
		<g>
			<path class="st0" d="M19.6,38.4L19.6,38.4l-0.3,0l-0.7,0.1c0,0,0,0,0,0c0,0,0,0,0,0v-1.9c0-0.2-0.1-0.3-0.3-0.3h-0.4v2.3
				c0,0,0,0.1-0.1,0.1l-2.7,0.3v0.4c0,0.1,0,0.2,0.1,0.2c0.1,0,0.1,0.1,0.2,0.1l2.4-0.3c0,0,0,0,0,0c0,0,0,0,0,0v1.1h0.4
				c0.2,0,0.3-0.1,0.3-0.3v-0.9c0,0,0-0.1,0.1-0.1l0.7-0.1c0.2,0,0.3-0.2,0.3-0.3v-0.1C19.6,38.6,19.6,38.4,19.6,38.4L19.6,38.4z"/>
			<path class="st0" d="M15.7,37.9l1.7,0.4v-0.4c0-0.1,0-0.1-0.1-0.2s-0.1-0.1-0.2-0.1l-1.3-0.3l-0.3-0.1v0.5
				C15.6,37.8,15.6,37.9,15.7,37.9L15.7,37.9z"/>
			<path class="st0" d="M15.7,36.9l1.7,0.4V37c0-0.1-0.1-0.3-0.3-0.3l-1.6-0.4v0.5l0,0C15.6,36.8,15.6,36.9,15.7,36.9
				C15.6,36.9,15.6,36.9,15.7,36.9L15.7,36.9z"/>
			<path class="st0" d="M9.4,37h0.7c0,0,0.1,0,0.1,0.1v0.2h0.5c0.1,0,0.1,0,0.1-0.1v-0.1c0,0,0-0.1,0.1-0.1h1.2c0,0,0.1,0,0.1,0.1
				v0.2h0.5c0.1,0,0.1,0,0.1-0.1v-0.1c0,0,0-0.1,0.1-0.1h0.7c0.1,0,0.1,0,0.1-0.1v-0.5h-0.8c0,0-0.1,0-0.1-0.1v-0.2h-0.6v0.2
				c0,0,0,0.1-0.1,0.1h-1.2c0,0-0.1,0-0.1-0.1v-0.2h-0.6v0.2c0,0,0,0.1-0.1,0.1H9.3v0.5C9.3,37,9.4,37,9.4,37L9.4,37z"/>
			<path class="st0" d="M13.4,38.6C13.4,38.6,13.3,38.6,13.4,38.6l-0.1-0.4c0,0,0,0,0,0l0,0v0c0-0.3-0.3-0.6-0.6-0.6h-0.9v-0.3h-0.6
				v0.3H9.7v1c0,0,0,0.1-0.1,0.1H9.2v0.5c0,0.1,0.1,0.1,0.1,0.1h1.5c-0.2,0.2-0.8,0.5-1.3,0.6l-0.1,0v0.5c0,0,0,0.1,0,0.1
				c0,0,0,0,0.1,0c0,0,0.1,0,0.1,0c0.9-0.2,1.7-0.6,2.1-1.2h0c0.3,0.6,1.1,1,1.9,1.2h0c0,0,0.1,0,0.1,0c0,0,0,0,0-0.1v-0.5l-0.1,0
				c-0.4-0.1-1-0.3-1.3-0.6h1.4c0.1,0,0.1,0,0.1-0.1v-0.5L13.4,38.6L13.4,38.6z M12.7,38.4v0.2h-0.9c0-0.2,0-0.5,0-0.5h0.6
				c0.1,0,0.2,0,0.3,0.1C12.7,38.3,12.7,38.3,12.7,38.4L12.7,38.4z M11.2,38.2L11.2,38.2c0,0,0,0.3-0.1,0.5h-0.8v-0.5H11.2
				L11.2,38.2z"/>
		</g>
		<g>
			<path class="st0" d="M27,40v-0.9c0.1,0,0.2,0,0.4,0c0.2,0,0.4,0,0.4,0.3c0,0.1-0.1,0.2-0.2,0.2l0,0c0.1,0,0.1,0.1,0.2,0.2
				c0,0.1,0,0.2,0.1,0.2h-0.2c0,0,0-0.1-0.1-0.2c0-0.1-0.1-0.1-0.3-0.1V40L27,40L27,40z M27.2,39.5c0.1,0,0.3,0,0.3-0.1
				c0-0.1-0.1-0.1-0.2-0.1c0,0-0.1,0-0.1,0V39.5L27.2,39.5z"/>
			<path class="st0" d="M27.4,40.4c-0.5,0-0.9-0.4-0.9-0.9s0.4-0.9,0.9-0.9s0.9,0.4,0.9,0.9S27.9,40.4,27.4,40.4z M28.1,39.5
				c0-0.4-0.3-0.7-0.7-0.7s-0.7,0.3-0.7,0.7s0.3,0.7,0.7,0.7S28.1,39.9,28.1,39.5z"/>
		</g>
		<g>
			<path class="st0" d="M0,14.1C0,6.3,6.3,0,14.1,0s14.1,6.3,14.1,14.1s-6.3,14.1-14.1,14.1S0,21.9,0,14.1z M14.1,27.6
				c7.5,0,13.5-6.1,13.5-13.5S21.5,0.5,14.1,0.5S0.5,6.6,0.5,14.1S6.6,27.6,14.1,27.6L14.1,27.6z"/>
			<path class="st0" d="M1.2,14.1C1.2,7,7,1.2,14.1,1.2S27,7,27,14.1S21.3,27,14.1,27S1.2,21.3,1.2,14.1z M14.1,26.5
				c6.8,0,12.4-5.5,12.4-12.4S20.9,1.7,14.1,1.7S1.7,7.3,1.7,14.1S7.2,26.5,14.1,26.5z"/>
			<path class="st0" d="M6.1,10.6c-0.8,0.1-1.2-0.2-1.1-1c0,0,0.2-1.5,0.2-1.7c0-0.2,0.4-1.1,0.5-1.3c0.1-0.3,0.4-0.4,0.8-0.7
				s1.7-1.6,2.2-0.8c0,0,0.5,0.4,0.6,0.4c0.4-0.5,1.2-1.1,2.6-0.8c0,0,0.9-0.4,2.3-0.2c0.2,0.1,0.5-0.5,2,0.2
				c0.1,0.1,2.4-1.8,3.9-0.5c0,0,0.2,0.3,0.4,0.4c0.2,0.1,0.8,0.5,1.1,1.3c0.3,0.8,0.9,1.4,1.2,1.7c0.3,0.2,0.5,1.1-0.4,1.2
				c0,0-0.4,0.2-0.4,0.3c0.2,0,0.2,0,0.4,0.2c0.1,0.2,0.2,0.3,0.4-0.1c0.2-0.4,0.5-0.3,0.8-0.1s0.3,0.4,0.6,0.1c0,0,0.1,0,0.3,0.1
				l1.6-0.2c3.5,9.5-3.2,18.1-12.3,17.9l0-0.6c-1.6-1.1-0.8-3.4,0.3-3.6c-0.4-0.5-0.8-1-0.8-1.2s-0.2-0.3-0.5-0.2s-1-0.1-1.3-0.2
				s-0.8-0.4-1.3-0.3c-0.5,0.1-0.8,0.2-1.4-0.2C8.6,21,7.9,21.8,7,20.9c0,0-0.1-0.1-0.2-0.1c-0.2,0-0.5-0.3-0.6-0.6
				c0,0-0.2-0.3-0.3-0.4c-0.1-0.1-0.7-0.8-0.7-1.4c0,0-0.1-0.1-0.2-0.3c-0.1-0.2-0.2-1.1,0.3-1.8c0.1-0.2,0.3-0.3,0-0.7
				c0,0-0.2-0.5,0.3-1.1c0,0,0.2-0.2,0.2-0.6c0,0,0.5-0.5,0.6-0.7c-0.2-0.1-0.4-0.6-0.2-1.1l-0.5-0.4c0,0,0.3-0.3,0.3-0.5L6.1,10.6
				L6.1,10.6z M5.5,9.4c0,0-0.2,0.6,0.2,0.6c0.4,0.1,0.6,0.1,0.6-0.6l0.2-1.3c0,0-0.1-0.1,0.5-0.7l0.6-0.7c0.2-0.4,0.8-0.3,0.3,0.2
				S6.5,8.7,6.7,9.6c0.1,0.3,0.3,0.5,0,0.8s-0.3,1-0.2,1.1s0.1,0.1,0.2,0c0.1-0.1,0.6-0.2,1,0.2c0,0,0.3,0.3,0.5,0.3
				c0.2,0,0,0,0.2,0.1s0.3,0,0.3,0l-0.3-0.5c-0.2-0.2-0.1-0.4,0.2-0.1c0,0,0.1,0.1,0.2,0.3C9,11.9,9.3,12,9.1,11.6
				c0,0-0.2-0.2-0.2-0.4c0-0.2,0.2-0.6,0.3-0.1c0.2,0.6,0.5,0.7,0.9,0.6c0,0,0.2-0.2,0.5-0.1c0,0,0.7-0.4,0.8-0.9
				c0.1-0.3,0.6-0.2,0.3,0c0,0-0.5,0.8-1,0.9c-0.5,0.2,0.1,0.3,0.2,0.2c1.1,0,1.5-0.1,1.5-1.4C13,9.9,13.2,10,13,10.3
				c0,0-0.2,0.6,0.3,0.2c0.5-0.4,1.1-0.4,1.2-0.5c0.1,0,0.3,0,0.3,0.2c0,0-0.2,0.1-0.3,0.1s-0.5-0.1-0.8,0.2l-0.2,0.3H13
				c0,0-0.2,0.1-0.2,0.3c-0.1,0.2-0.2,0.6,0.2,0.1c0.5-0.4,1.3-0.7,2.4-0.1c0.1,0.1,0.1,0.3,0.4,0c0.3-0.3,0.6-0.3,0.3,0
				c-0.3,0.3-0.6,0.5-0.2,0.6c0.5,0.2,0.4,0.3,0,0.2c-0.4-0.1-0.6,0.2-0.6,0.2s-0.7,0.7-1.8,0.3c0.4,0.2,0.8,0.4,1.3,0.2
				c0.3-0.1,0.6,0,0.4,0.2s-0.8,0.2-1.7-0.3c0.2,0.5,1.2,0.8,1.6,0.6c0.3-0.1,0.4,0.1,0.2,0.2c-0.2,0.1-1.2,0.2-2.2-0.7
				c-1-1-0.5,0.3-0.1,0.4c0,0,0.8,0.7,1.6,0.8s1.2,0.7,1.2,1.2c0,0,0.3,0.6-0.1,0.6c0.3,0.1,0.3,0.2,0.5,0.2c0.2,0,0.8,0.5,0.7,1.1
				c0,0,0.5,0.5,0.2,0.9c-0.3,0.5-0.4,0.3-0.2,0.6c0,0-0.5-0.2-0.8-0.6c-0.3-0.3-0.9-0.5-0.9-0.5c-1.1-0.5-0.2-0.4,0.1-0.2
				c0.2,0.2,0.6,0.3,0.8,0.5c0.2,0.2,0.5,0.3,0.7-0.1c0.2-0.4-0.2-0.8-0.2-0.8c0-0.1,0.1-0.9-1-1c0,0-0.3,0-0.5-0.1
				s-0.4-0.3-0.3,0.2c0.3,0.4,0.9,1.3,0,0.3c-0.1-0.3-0.4-0.6-0.8-0.8c-0.3-0.2-0.8-0.6-0.9-0.8c-0.1-0.2-0.5-0.2-0.5-0.2
				s-0.2-0.1-0.3-0.2c-0.1-0.1-0.4,0-0.5,0.1s-0.4,0.2-0.8,0c-0.6-0.2-1.6-0.1-2.4,0.6c-0.1,0.1-0.3,0.4-0.5,0c0,0-0.2-0.3-0.8,0
				c0,0-2.5,2.1-1.4,3.3c0,0,0,0.6,0.4,1S7,19.5,6.8,18c-0.1-0.6,0-1.1,0.8-1.4s0.8-0.5,0.8-0.6s0.1-0.4,0.2,0c0,0,0,0.4,0.7,0.3
				c0.6,0.1,2.3,0.3,3,1.4s0.3,0.9-0.2,0.5c-0.5-0.4-3.1-1-4.4-0.3c-0.4,0.1-0.8,0.6,0,0.7c0.6,0.2,1.3,0.6,1.4,1.2
				c0,0,0.2,0.5,0.6,0.5s0.5-0.1,0-0.5l-0.4-0.5c0,0-0.1-0.3-0.2-0.4c-0.1-0.1-0.1-0.4,0.2-0.1c0.3,0.3,0.4,0.8,0.7,1
				c0.2,0.1,0.5,0.3,0.9,0.3c0.5-0.1,0.5,0.1,0.9,0.3c0.2,0.2,0.8,0.2,1,0.1c0.2,0,0.9,0,0.2-1c-0.2-0.3-0.3-1.2,0.2-0.3
				c0,0,0.5,0.6,0.6,0.8c0.1,0.1,0.3,1,1.3,0.9c1.1,0.1,2.8,0,3.2-1.3c0,0,0.4-0.6,0.6-0.7s0.9-0.6,0.7-1.5
				c-0.1-0.6,0.1-1.2,0.1-1.2s0.3-0.6,0.2,0c-0.1,0.6-0.2,1,0,1.2c0.1,0.2,0.2,0.6,0.6-0.2c0.2-0.3,0.4-0.9,0.2-1.9
				c-0.2-1,0-2.1,0.1-1.1c0,0,0.2,0.4,0.3-0.5s-0.1-2.8-0.3-3.3c-0.1-0.5,0-1,0.2,0c0,0,0.2,0.8,0.3,1.2s0.6,2.1-0.2,3.2
				c0,0,0.3,0.3,0.4,0.7c0,0,0.4,0.4,0.2-0.1c-0.3-0.4-0.3-0.6-0.3-0.6c-0.1-0.2,0-0.7,0.2,0c0.3,0.6,0.6,0.4,0.3,0
				c0,0-0.1-0.2-0.2-0.4c-0.2-0.2-0.2-0.6,0.2-0.1c0,0,0.1,0.1,0.2,0.3s0.4,0.2,0.1-0.2l-0.4-0.5c0,0-0.4-0.6,0.2-0.1l0.2,0.2
				c0,0,0.6,0.4,0.2-0.2c0,0-0.2-0.2-0.3-0.4c0,0-0.2-0.1-0.3-0.3s-0.1-0.2,0.2,0c0,0,0.1,0.1,0.3,0.2c0.2,0.1,0.5-0.1,0.1-0.4
				c-0.4-0.3-0.6-0.6-0.6-0.6c-0.2-0.2-0.3-0.4,0.1-0.1c0.4,0.3,0.9,0.6,0.5,0s-0.6-0.8-0.6-0.8c-0.5-0.4-0.4-0.7,0.1-0.1
				c0.5,0.6,0.7,0.3,0.2-0.3C21,10.4,20.6,10,22,10.7c0,0,0.2,0-0.2-0.4S21,9.8,21.7,10c0,0,0.6,0.2-0.1-0.2C21.2,9.7,21,9.3,21,9.2
				c-0.1-0.1-0.1-0.2,0.2-0.3c0,0,0.2-0.1,0.3-0.2c0.1-0.1,0-0.1,0.2-0.1s0.2-0.1,0.2-0.1s0.2,0,0.2-0.1s0.4-0.5-0.1-0.8
				c-0.4-0.3-0.9-0.9-1-1.3C21,6,21,5.4,20.1,5c-0.5-0.5-1.3-1.6-3.6,0.3c0,0-0.5,0.2-0.9-0.1c-0.4-0.3-1.2-0.1-1.2-0.1
				c0,0-1.7-0.1-2.3,0.3c0,0-0.2,0-0.4-0.1C11.5,5.1,10,5.4,9.8,5.9c0,0-0.7,1.1-0.8,0.4c0,0-0.2-0.4-0.5-0.5c0,0-0.2-0.5-1,0
				c0,0-0.6,0.7-0.8,0.8C6.4,6.7,5.8,7.4,5.7,8.2S5.6,9.5,5.5,9.4L5.5,9.4z M6.1,15.6l1-0.9c-0.2-0.3,0.2-1,0.4-1.1
				c0,0,0.1-0.6,1.1-0.7c0,0,0.4,0,0.5-0.1c0.2,0,1-0.1,1.3,0.2c0,0,0.2,0.2,0.3,0.2c0.1,0.1,1,1,0.8,1c0,0,0.1,0.1,0.3-0.1
				c0.2-0.2,0.4-0.1,0.6,0c0.2,0,1,0.1,0.1-0.2c0,0-0.2-0.2-0.6-0.1c0,0-0.3-0.1-0.5-0.4c-0.2-0.3,0.1-0.2,0.2-0.2
				c0.1,0.1,0,0.3,0.5,0.4c0.6,0.1,0.9,0,1.3,0.8c0.4,0.7,0.9,1.1,1.3,1c0.8,0.3,1.1,0.1,0.9-0.3c0,0-0.2-0.2-0.2-0.4s0-0.3-0.6-0.5
				c0,0-0.5-0.2-0.7-0.2c0,0-0.2-0.1-0.3-0.2c-0.1-0.1-0.3-0.2-0.6-0.3s-0.8-0.6-1-0.8s-1.4-0.4-2-0.5c0,0-0.9-0.2-2.6,0.5
				c-0.3,0.1-0.5,0.4-0.6,0.6s-0.4,0.6-0.6,0.7C6.5,14,5.8,15.5,6.1,15.6L6.1,15.6z M6.6,12.1c0,0,0,0.5,0.3,0.1c0,0,0-0.1,0.1-0.2
				c0.1-0.1,0-0.6-0.3-0.3C6.7,11.7,6.6,12,6.6,12.1L6.6,12.1z M7.5,12.1c0,0,0,0.5,0.2,0.1C7.7,12.1,7.5,11.8,7.5,12.1z M13.5,11.7
				c0,0,0.2,0.6,0.4,0c0.1-0.2,0.2-0.7-0.2-0.4C13.7,11.3,13.5,11.4,13.5,11.7L13.5,11.7z M15.1,11.2c0,0,0.1,0.6-0.2,0.8
				c0,0,0.2,0.1,0.6-0.5C15.6,11.5,15.4,11.4,15.1,11.2L15.1,11.2z M11.3,17.5c0.3,0.2,0.1-0.3,0.1-0.3c-0.5-0.3-0.2,0.1-0.2,0.1
				S11.3,17.5,11.3,17.5z M10.7,17.4c0.3,0.1,0.1-0.4,0.1-0.4c-0.4-0.4-0.3,0.1-0.3,0.1C10.5,17.3,10.7,17.4,10.7,17.4L10.7,17.4z
				 M10.1,17.3c0,0,0.4-0.1,0-0.5C9.7,16.4,9.7,17,9.7,17C9.8,17.3,10.1,17.3,10.1,17.3z M9.2,17.3c0.2,0.2,0.5,0,0.2-0.5
				S8.9,16.7,9,16.9C9,17.1,9.2,17.3,9.2,17.3L9.2,17.3z M8.4,17.3c0.5,0.3,0.2-0.5,0.2-0.5c-0.3-0.5-0.4,0.1-0.4,0.1
				C8.3,17.2,8.4,17.3,8.4,17.3L8.4,17.3z M8,17.4c0.3-0.1-0.1-0.5-0.1-0.5c-0.4-0.4-0.4,0.2-0.4,0.2C7.5,17.5,7.7,17.5,8,17.4z
				 M7.3,17.7c0.3,0.1,0.2,0,0-0.3c-0.2-0.3-0.2,0.2-0.2,0.2C7.1,17.8,7.3,17.7,7.3,17.7L7.3,17.7z M8.3,13.9
				c-0.1,0.3-0.1,0.6-0.1,0.6c0.3,0.5,0.2-0.2,0.2-0.7s0.2-0.1,0.2-0.1c0.1-0.2,0.7-0.4,0.7-0.4c0.8-0.2-0.1-0.2-0.1-0.2
				s-0.5-0.1-0.6,0.1c-0.2,0.2-0.5,0.1-0.5,0.1c-0.5,0.2-0.1,0.2-0.1,0.2C8.3,13.5,8.4,13.6,8.3,13.9L8.3,13.9z M22.8,14.1
				c0.1,1.7-0.4,3.1-1,4.2c0.2,0.2,0.8,0.3,0.8,0.3c1,0.5,1.4-1.4,1.4-1.4c0.7-2.2,0.3-5.5-0.1-7.2c-1.2-0.8-1.4-0.1-1.4-0.1
				C22.8,11.1,22.8,14.1,22.8,14.1z M22.4,14.2c0,1.3-0.5,2.8-0.5,2.8c-0.4,1.5-1.8,2.7-1.8,2.7c-1.3,1.5-2.9,2.1-3.8,2.5
				c-0.7,0.4,0.3,0.1,0.3,0.1c2.4-0.9,3.7-2.5,3.7-2.5c1.5-1.4,1.8-2.7,1.8-2.7c0.6-1.7,0.5-2.6,0.5-2.6c0.1-1.4-0.1-3.5-0.3-4.9
				c0-0.5-0.3-0.4-0.2,0.1C22.3,10.4,22.5,12.4,22.4,14.2z M24.4,13c0.3,2.2-0.5,4.6-0.5,4.6c-1.2,2.8-2.1,3.3-2.1,3.3
				c-1,1.2-2.7,2.1-3.5,2.4c-0.7,0.4-0.1,0.4,0.1,0.2c2.2-0.8,3.5-2.4,3.5-2.4c1.8-1.6,2.2-3.4,2.2-3.4c0.8-1.5,0.5-4.7,0.5-4.7
				c0.1-0.5-0.1-1.9-0.4-3.4c-0.1-0.4-0.2-0.4-0.2,0C24.4,11.4,24.4,13,24.4,13L24.4,13z M25,11.4c0.5,0.6,0.3,0.8,0.3,0.8
				c0,0.8,0.9,1.4,0.9,1.4c0.2-0.9-0.7-3.6-0.7-3.6c-0.1-0.1-0.6,0-0.6,0C24.3,10.1,24.5,10.8,25,11.4L25,11.4z M25.2,13
				c0,0,0.3,0.4,0.3,0.6s0.1,0.6,0.5,1.5s0.1,0,0.1,0c0.2-0.3-0.1-0.5-0.1-0.5l-0.4-0.5c-0.1-0.3,0.1-0.2,0.3,0
				c0.5,0.5,0.1-0.2,0.1-0.2c-0.8-0.6-0.6-0.8-0.8-1.1s0.2-0.5-0.2-0.8c-0.4-0.5-0.2,0.1-0.2,0.1C25,12.4,25.2,13,25.2,13L25.2,13z
				 M18,22.8c0.2,0.2,0.2,0.1,0.2,0.1c0.4-0.1,1.7-1.1,1.7-1.1c0.4-0.2,0.1-0.4,0-0.5s-0.2-0.1-0.3,0s-1.5,1-1.6,1.1
				s-0.1,0.2-0.1,0.2L18,22.8L18,22.8z M16.6,23.5h0.2l-0.1-0.5h-0.3L16.6,23.5L16.6,23.5z M12.9,24.7c0,0.9,0.7,1.7,1.8,1.7
				s1.7-0.9,1.7-1.8s-0.8-1.5-1.1-1.6l-0.1,0.6c0.1,0.1,0.6,0.2,0.6,1s-0.3,1.1-1.1,1.1s-1-0.7-1.1-1.1c0-0.4,0.2-0.8,0.6-1L14.1,23
				C13.5,23,12.9,23.8,12.9,24.7L12.9,24.7z M14.6,23.6C15,24,15,23,15,23c-0.5-0.6-0.7,0.1-0.7,0.1C14.3,23.3,14.6,23.6,14.6,23.6
				L14.6,23.6z M7.8,14l-0.1,0.2l0.2,0C8,14.3,7.8,14.2,7.8,14z M9.5,13.9c0.5-0.1,0.4-0.2,0.2-0.4L9.5,13.9z M14.9,25.4l0-0.4
				c-0.4-0.1-0.4-0.5-0.3-0.7L14.3,24C13.3,24.6,14.1,25.7,14.9,25.4z M21.4,20.6c0.3,0,0.5-0.2,0.5-0.5s-0.2-0.5-0.5-0.5
				s-0.5,0.2-0.5,0.5S21.1,20.6,21.4,20.6z M20.9,15.4c0.3,0.2,0.1-0.1,0.1-0.1L21,15.2c-0.1-0.4-0.1,0-0.1,0
				C20.9,15.5,20.9,15.4,20.9,15.4z M21.3,16.2c0.1,0.1,0.2,0.1,0.1-0.1c0,0-0.1-0.1-0.2-0.3c-0.1-0.2-0.1-0.1-0.1,0.1
				C21.1,15.9,21.2,16.1,21.3,16.2z M21.1,16.7c0.1,0.2,0.3,0.1,0.2,0c-0.1-0.1-0.1-0.1-0.1-0.3s-0.2-0.1-0.1,0.1
				C21,16.4,21,16.5,21.1,16.7L21.1,16.7z M20.8,17.4c0,0.3,0.1,0,0.1,0s0-0.4,0-0.6c0-0.2-0.2-0.1-0.2,0
				C20.8,16.9,20.7,17.1,20.8,17.4z M6.7,19.7c0,0,0.1,0.3,0.3,0.5c0,0,0.1,0,0.2,0.1L6.7,19.7L6.7,19.7z M7.3,20.3
				c0,0,0.1,0.1,0.1,0.2s0.3,0.1,0.3,0.1v-0.1C7.8,20.5,7.7,20.3,7.3,20.3L7.3,20.3z M7.3,19.7c0,0,0.1,0.2,0.1,0.3l0.2,0.2l0.2,0.1
				C7.8,20.1,7.6,19.9,7.3,19.7L7.3,19.7z M7.3,19.1l0.2,0.5l0.3,0.2c-0.1-0.2-0.1-0.3-0.2-0.3L7.3,19.1z M8,20.1
				c0,0,0.1,0.2-0.1,0.3l0.1,0.3c0.2-0.2,0.4-0.4,0.2-0.8C8.1,20,8.1,20,8,20.1z M25.5,16.2c0,0,0.1,0.3,0.2,0.7
				c0.1,0.4,0.2,0.1,0.2,0c0-0.1-0.1-0.5-0.3-0.7c0,0,0-0.3-0.1-0.5c-0.1-0.2-0.2-0.1-0.1,0.1 M23.5,9.5l-0.3-0.3
				C23.2,9.5,23.3,9.6,23.5,9.5z M22.9,18.9c-0.1,0.1,0,0.2,0,0.1c0,0,0.1,0,0.1-0.2s-0.1,0-0.1,0L22.9,18.9L22.9,18.9z M22.2,19.5
				C22.1,19.6,22.2,19.6,22.2,19.5c0,0.1,0.5-0.4,0.6-0.6c0.1-0.2,0-0.2-0.1,0C22.6,19,22.3,19.3,22.2,19.5L22.2,19.5z M22,19.4
				C21.9,19.6,22.1,19.5,22,19.4c0.1,0.1,0.4-0.3,0.5-0.6c0.1-0.2,0-0.1-0.1,0C22.4,18.9,22.1,19.4,22,19.4L22,19.4z M21.8,19.4
				C21.7,19.5,21.9,19.5,21.8,19.4c0.1,0.1,0.4-0.3,0.5-0.6c0.1-0.2,0-0.1-0.1,0C22.3,18.8,21.9,19.3,21.8,19.4L21.8,19.4z
				 M21.7,19.3C21.6,19.4,21.7,19.4,21.7,19.3c0.1,0.1,0.5-0.5,0.6-0.7c0-0.1,0-0.1-0.1,0C22.1,18.6,21.7,19.2,21.7,19.3L21.7,19.3z
				 M21.5,19.2C21.4,19.3,21.5,19.2,21.5,19.2c0.1,0.1,0.5-0.4,0.6-0.6c0-0.1,0-0.1-0.1,0C22,18.6,21.5,19.1,21.5,19.2L21.5,19.2z
				 M21.3,19.1C21.2,19.3,21.4,19.2,21.3,19.1c0.1,0.1,0.5-0.4,0.6-0.6c0.1-0.1,0-0.1-0.1,0C21.8,18.5,21.4,19.1,21.3,19.1
				L21.3,19.1z M22.6,19.5c-0.2,0.3,0.1,0.1,0.1,0.1s0.4-0.4,0.6-1c0.2-0.6-0.1,0-0.1,0C23.1,18.9,22.6,19.5,22.6,19.5z"/>
			<g>
				<path class="st0" d="M14.7,22.9c0,0,0.2,0.4-0.1,0.6c0,0,0,0.2,0.2,0c0.2-0.2,0.1-0.5,0.1-0.5S14.8,22.7,14.7,22.9L14.7,22.9z"
					/>
				<path class="st0" d="M24.1,15.2c0-0.2,0.1-0.2,0.1,0S24.2,16,23.4,16c-0.3,0-0.3-0.1,0-0.1S24.1,15.8,24.1,15.2L24.1,15.2z"/>
				<path class="st0" d="M24,12.4c0,0-0.1-0.2,0.1-0.1c0.2,0.1,0.3,1.1-0.3,1.2c0,0-0.3,0-0.1-0.1C24.3,13.3,24.3,12.7,24,12.4z"/>
				<path class="st0" d="M23.9,10.2C23.9,10.2,23.7,10.1,23.9,10.2c0.3,0,0.5,1.2-0.3,1.2c0,0,0-0.1,0.1-0.1
					C24,11.4,24.2,10.8,23.9,10.2L23.9,10.2z"/>
				<path class="st0" d="M22.7,10.7c0-0.3,0.3-0.6,0.6-0.6s0.6,0.3,0.6,0.6s-0.3,0.6-0.6,0.6S22.7,11,22.7,10.7z M23.3,11.2
					c0.3,0,0.5-0.2,0.5-0.5s-0.2-0.5-0.5-0.5s-0.5,0.2-0.5,0.5S23,11.2,23.3,11.2z"/>
				<path class="st0" d="M23,12.8c0-0.3,0.3-0.6,0.6-0.6s0.6,0.3,0.6,0.6s-0.3,0.6-0.6,0.6S23,13.1,23,12.8z M23.5,13.3
					c0.3,0,0.5-0.2,0.5-0.5s-0.2-0.5-0.5-0.5S23,12.6,23,12.8S23.3,13.3,23.5,13.3z"/>
				<path class="st0" d="M22.9,15.2c0-0.3,0.3-0.6,0.6-0.6s0.6,0.3,0.6,0.6s-0.3,0.6-0.6,0.6S22.9,15.5,22.9,15.2z M23.5,15.7
					c0.3,0,0.5-0.2,0.5-0.5s-0.2-0.5-0.5-0.5S23,14.9,23,15.2S23.2,15.7,23.5,15.7z"/>
				<path class="st0" d="M22.2,18c0-0.3,0.3-0.6,0.6-0.6s0.6,0.3,0.6,0.6s-0.3,0.6-0.6,0.6S22.2,18.3,22.2,18z M22.8,18.5
					c0.3,0,0.5-0.2,0.5-0.5s-0.2-0.5-0.5-0.5s-0.5,0.2-0.5,0.5S22.5,18.5,22.8,18.5z"/>
				<path class="st0" d="M15.5,23.7c0.1,0.1,0.2,0.1,0.1-0.1c-0.1-0.2-0.4-0.2-0.4-0.3l-0.1,0.2C15.1,23.5,15.4,23.7,15.5,23.7
					L15.5,23.7z"/>
				<path class="st0" d="M15.7,23.9c0,0,0,0.1,0.1,0.2c0,0.1,0.2,0.1,0.1-0.1c0,0,0-0.1-0.1-0.2S15.6,23.8,15.7,23.9z"/>
				<path class="st0" d="M14.1,23.4c-0.8,0.4-0.8,1-0.8,1.3c0,0,0.1,0.4,0.1,0c0-0.5,0.2-1,0.7-1.2L14.1,23.4L14.1,23.4z"/>
				<path class="st0" d="M13.4,25.2c-0.1-0.1,0.1-0.2,0.1,0c0.1,0.2,0.1,0.2,0.2,0.3s0.1,0.2,0,0.2S13.4,25.3,13.4,25.2z"/>
				<path class="st0" d="M13.6,26c-0.1-0.1,0-0.2,0.1-0.1C13.9,26,13.9,26,14,26c0.1,0,0.1,0.2-0.1,0.1S13.6,26,13.6,26L13.6,26z"/>
				<path class="st0" d="M15.8,23.5c-0.1-0.1,0.1-0.2,0.1-0.1c0.8,0.9,0.6,2.9-1.4,2.9c-0.2,0-0.3-0.1,0-0.1
					C15.7,26.4,16.9,24.8,15.8,23.5z"/>
				<path class="st0" d="M12.5,16.4c-0.4-0.2-0.5-0.4,0.1-0.2c0,0,0.7,0.3,0.9,0.5s0.5,0.6,0.6,0.6s0.5,0.5,0,0.2
					c0,0-0.4-0.3-0.6-0.5C13.3,16.8,12.9,16.4,12.5,16.4L12.5,16.4z"/>
				<path class="st0" d="M15.4,18.6c-0.1-0.2-0.1-0.4,0.2-0.2s0.8,0.6,1.1,0.7c0.3,0.1,0.9,0.6,0,0.2C16.4,19.3,15.6,19,15.4,18.6z"
					/>
				<path class="st0" d="M16.2,16.8c0.1,0,0.2-0.1,0.2-0.2s-0.1-0.2-0.2-0.2S16,16.5,16,16.6S16.1,16.8,16.2,16.8z"/>
				<path class="st0" d="M16.1,14.6c0.1,0,0.2-0.1,0.2-0.2s-0.1-0.2-0.2-0.2s-0.2,0.1-0.2,0.2S16,14.6,16.1,14.6z"/>
				<path class="st0" d="M16.8,14.9c0.1,0,0.2-0.1,0.2-0.2s-0.1-0.2-0.2-0.2s-0.2,0.1-0.2,0.2S16.7,14.9,16.8,14.9z"/>
				<path class="st0" d="M16.4,15.4c0.1,0,0.2-0.1,0.2-0.2S16.5,15,16.4,15s-0.2,0.1-0.2,0.2S16.3,15.4,16.4,15.4z"/>
				<path class="st0" d="M17,15.7c0.1,0,0.2-0.1,0.2-0.2s-0.1-0.2-0.2-0.2s-0.2,0.1-0.2,0.2S16.9,15.7,17,15.7z"/>
				<path class="st0" d="M7.1,15.4c0.1,0,0.1-0.1,0.1-0.1s-0.1-0.1-0.1-0.1S7,15.1,7,15.2S7.1,15.4,7.1,15.4z"/>
				<path class="st0" d="M6.7,15.9c0.1,0,0.1-0.1,0.1-0.2s-0.1-0.2-0.1-0.2s-0.1,0.1-0.1,0.2S6.6,15.9,6.7,15.9z"/>
				<path class="st0" d="M18,6.3c0,0-0.2-1.6,1-1.5c0,0,0.7-0.1,1.2,1.1C20.6,6.5,22,7.5,21,8.2c0,0,0.2-0.2-0.5-0.6
					c-0.2-0.1-0.3-0.1-0.1,0.1c0.3,0.2,0.5,0.4,0,0.3c-0.2-0.1-0.6-0.2-0.3,0s0.4,0.3-0.1,0.3c-0.3-0.3-0.6-0.4-0.3,0.1
					c0,0,0,0.2-0.4,0c-0.4-0.2-0.6-0.7-0.6-0.7S18.4,7.3,19,7.3c0,0,0.8-0.4,0.9-0.6c0.1-0.2,0.1-0.1,0-0.3
					c-0.1-0.2-0.1-0.1-0.2,0.1c0,0.2-0.1,0.2-0.2,0c-0.1-0.2-0.2-0.2-0.1,0.2c0,0,0.1,0.3-0.2,0.2c0,0,0.1,0.3-0.2,0.2
					c0,0,0.2,0.3-0.3,0S18,6.5,18,6.3L18,6.3z"/>
				<path class="st0" d="M16.9,5.3c-0.1,0.2,0,0.3,0.2,0.1l0.2-0.2C17.5,5,17.4,4.7,17.1,5C17.1,5,16.9,5.3,16.9,5.3z"/>
				<path class="st0" d="M15.5,6.5c-0.1,0.2-0.1,0.3,0.2,0.2c0.3-0.2,0.9-0.6,1.8,0.1l0.4,0.4c0.2,0.3,0.6,0.4,0.2-0.2l-0.5-0.3
					C17.1,6.2,16.4,5.9,15.5,6.5z"/>
				<path class="st0" d="M18.1,8.4c-0.3-0.4,0.2-0.5,0.3-0.2s0.4,1.1,0.9,1c0.1,0.1,0.4,0.2,0.3,0.6l0.1,0.5c0.1,0.3-0.2,0.6-0.3,0
					c0.1-0.4,0-0.8-0.4-1c-0.5-0.2-0.5-0.3-0.5-0.5S18.1,8.4,18.1,8.4L18.1,8.4z"/>
				<path class="st0" d="M15.3,9.2c-0.4,0-0.1-0.2,0.1-0.3H16c0.2,0,0.8,0.8,1.2,0.9c0.4,0.1,0.5,0.4,0,0.3s-1.1-0.9-1.4-0.9
					L15.3,9.2L15.3,9.2z"/>
				<path class="st0" d="M13.2,9.2c-0.2,0.2-0.2,0.4,0.1,0.2C13.6,9.2,14.1,9,14.5,9c0.4,0.1,0.4-0.3-0.1-0.3S13.4,9,13.2,9.2
					L13.2,9.2z"/>
				<path class="st0" d="M16,9.9c-0.4-0.1-0.3-0.3,0.1-0.3c0.4,0.1,0.3,0.6,0.8,0.7c0.4,0.1,0.3,0.3-0.1,0.2
					C16.3,10.4,16.4,10,16,9.9L16,9.9z"/>
				<path class="st0" d="M15.5,10.1c-0.4,0-0.3,0.1-0.1,0.2c0.2,0.1,0.3,0.1,0.5,0.2c0.2,0.1,0.3,0,0.2-0.2
					C15.8,10,15.5,10.1,15.5,10.1L15.5,10.1z"/>
				<path class="st0" d="M10.8,8.6c-0.2,0.1-0.3,0.6,0.1,0.2c0.5-0.5,0.6-0.8,2.3-0.8c0.6,0.1,0.8-0.3,0-0.3s-0.7,0.2-1,0
					C11.8,7.5,11,8.2,10.8,8.6z"/>
				<path class="st0" d="M9.4,7.8c-0.2-0.1-0.3,0,0,0.2s0.8,0.5,1.6-0.2c0,0,0.5-0.3-0.2-0.2C10.6,7.9,10.1,8.2,9.4,7.8z"/>
				<path class="st0" d="M8.7,8.4c-0.4-0.3-0.6,0-0.2,0.2c0,0,0.3,0,0.5,0.2S9.5,9,9.5,9c0.2,0.1,0.6-0.1,0-0.2
					C9.3,8.7,9,8.4,8.9,8.4L8.7,8.4L8.7,8.4z"/>
				<path class="st0" d="M7.5,9.7C7.2,9.8,7.1,9.6,7.4,9.4C7.8,9.2,8.2,9,8.7,9.2C8.8,9.4,8.9,10,8.4,9.5C8.4,9.5,8.2,9.2,7.5,9.7
					L7.5,9.7z"/>
				<path class="st0" d="M7.4,10c-0.3,0.1-0.5,0.3,0,0.2S8.2,10,8.3,10c0.1,0,0.5,0.2,0-0.2C8.3,9.9,8.1,9.7,7.4,10z"/>
				<path class="st0" d="M7.3,10.8c-0.3,0-0.5,0.2,0,0.2s0.7,0.4,0.7,0.4c0,0.4,0.2,0.6,0.4,0.3c-0.2-0.2-0.2-0.3-0.2-0.6
					S7.5,10.8,7.3,10.8L7.3,10.8z"/>
				<path class="st0" d="M16.4,12.8c-0.3,0.2-0.3,0.5,0.1,0.2c0.5-0.3,0.6-0.5,0.8-0.8c0.1-0.3,0.3-0.3,0.3,0.2
					c-0.2,0.3-0.2,0.7-0.1,1c0.1,0.3,0,1.3-0.1,1.6s0.1,0.8,0.4,1c0.2,0.3,1.1,1,0.6,1.7c0,0-0.2,0.3-0.2,0.5s0,0.4,0.2-0.1
					s0.2-0.4,0.3-0.6c0.2-0.2,0.3-0.7-0.5-1.4c-0.8-0.7-0.8-1.3-0.5-2.1l0-1.7c0.1-0.4,0-0.4-0.2-0.6s-0.5,0.2-0.5,0.2
					S16.6,12.8,16.4,12.8L16.4,12.8z"/>
				<path class="st0" d="M18.2,11.7c-0.1-0.3,0.4-0.3,0.2,0c0,0,0,0.2,0.1,0.3c0.1,0.2,0.2,0.8-0.1,1s-0.2,0-0.2-0.2
					s0.1-0.4,0.1-0.7C18.3,12.1,18.2,11.8,18.2,11.7z"/>
				<path class="st0" d="M18.6,11.7c-0.1-0.3,0.4-0.3,0.2,0c0,0-0.1,0.2,0,0.4s0.3,0.5,0.1,1c-0.1,0.2-0.2,0-0.2-0.2
					s0.1-0.3,0.1-0.6C18.7,12.2,18.6,11.8,18.6,11.7L18.6,11.7z"/>
				<path class="st0" d="M19,11.7c-0.1-0.3,0.4-0.3,0.2,0c0,0,0,0.2,0.1,0.3c0.1,0.2,0.3,0.6,0,0.7c-0.3,0.2-0.2,0-0.2-0.2
					s0-0.2-0.1-0.5C19.1,12.1,19,11.8,19,11.7L19,11.7z"/>
				<path class="st0" d="M7.7,18.1c0,0,0.2-0.3,0.2,0C7.9,18.2,7.7,18.3,7.7,18.1z"/>
				<path class="st0" d="M8,18.1c0,0,0-0.3,0.2,0C8.2,18,8.2,18.2,8,18.1z"/>
				<path class="st0" d="M8.3,18c0,0,0.1-0.2,0.2,0C8.5,17.9,8.5,18.2,8.3,18z"/>
				<path class="st0" d="M8.6,17.9c0,0,0.1-0.2,0.2-0.1C8.8,17.9,8.8,18.2,8.6,17.9z"/>
				<path class="st0" d="M8.9,17.9c0,0,0.1-0.2,0.2,0C9.1,17.9,9,18.2,8.9,17.9z"/>
				<path class="st0" d="M9.3,17.9c0,0,0-0.2,0.1,0C9.4,17.9,9.4,18.1,9.3,17.9z"/>
				<path class="st0" d="M9.6,17.9c0,0,0.1-0.2,0.2,0C9.9,18,9.7,18,9.6,17.9z"/>
				<path class="st0" d="M9.9,17.9c0,0,0.2-0.2,0.2,0S10,18.1,9.9,17.9z"/>
				<path class="st0" d="M10.3,17.9c0,0,0.1-0.2,0.2,0C10.5,18.2,10.4,18.1,10.3,17.9z"/>
				<path class="st0" d="M10.6,17.9c0,0,0.1-0.2,0.2,0C10.8,18.1,10.6,18.1,10.6,17.9z"/>
				<path class="st0" d="M11,17.9c0,0,0.2-0.2,0.2,0.1C11.2,18.2,11.1,18.1,11,17.9z"/>
				<path class="st0" d="M11.4,20c-0.1-0.2-0.1-0.3,0.1-0.1C11.7,20.1,11.7,20.3,11.4,20z"/>
				<path class="st0" d="M11.8,20c0,0-0.2-0.3,0.1-0.1C11.9,19.8,12.1,20.4,11.8,20z"/>
				<path class="st0" d="M12.1,20c0,0-0.2-0.3,0.1-0.1S12.4,20.2,12.1,20z"/>
				<path class="st0" d="M12.6,20.1c-0.1-0.2-0.2-0.5,0.1-0.2C12.9,20.2,12.9,20.4,12.6,20.1z"/>
				<path class="st0" d="M11.8,10.1c-0.1,0.1-0.2,0.4,0.2,0.2S12.2,9.7,11.8,10.1z"/>
				<path class="st0" d="M8.7,10C8.7,9.8,8.8,9.7,9,9.9c0,0,0,0.2,0.1,0.3s0.1,0.6-0.2,0.2C8.9,10.4,8.7,10.4,8.7,10z"/>
				<path class="st0" d="M15.4,16.3c0.1,0,0.2-0.1,0.2-0.2s-0.1-0.2-0.2-0.2s-0.2,0.1-0.2,0.2C15.2,16.2,15.3,16.3,15.4,16.3z"/>
				<path class="st0" d="M23.6,10.3l-0.2,0.3l0.5,0.2C23.9,10.6,23.8,10.4,23.6,10.3z"/>
				<path class="st0" d="M23.3,10.6l0.1,0.6c0,0,0.1,0.1,0.3-0.1L23.3,10.6L23.3,10.6z"/>
				<path class="st0" d="M23.8,12.4l-0.2,0.2l0.4-0.1C23.9,12.5,24,12.5,23.8,12.4L23.8,12.4z"/>
				<path class="st0" d="M24,12.7h-0.4l0.1,0.6C23.7,13.3,24.1,13.5,24,12.7L24,12.7z"/>
				<path class="st0" d="M23.3,14.7l0.2,0.4l0.2-0.4C23.6,14.7,23.5,14.6,23.3,14.7L23.3,14.7z"/>
				<path class="st0" d="M24,15.4l-0.5-0.1l0,0.5C23.5,15.7,23.8,15.9,24,15.4L24,15.4z"/>
				<path class="st0" d="M23.2,17.6l-0.4,0.2l0.5,0.1C23.4,18,23.4,17.8,23.2,17.6z"/>
				<path class="st0" d="M23.3,18.2l-0.4-0.3l-0.2,0.6C22.6,18.5,23,18.8,23.3,18.2L23.3,18.2z"/>
				<path class="st0" d="M21.8,19.8l-0.5,0.3l0.6-0.1C21.9,20,22,20,21.8,19.8z"/>
				<path class="st0" d="M20.8,20.2l0.6-0.1l-0.4,0.3C20.9,20.4,20.8,20.3,20.8,20.2z"/>
				<path class="st0" d="M21.1,20.5l0.3-0.4l0.5,0.1C21.9,20.2,21.8,20.9,21.1,20.5L21.1,20.5z"/>
			</g>
		</g>
		<g>
			<g>
				<path class="st0" d="M0,14.1C0,6.3,6.3,0,14.1,0s14.1,6.3,14.1,14.1s-6.3,14.1-14.1,14.1S0,21.9,0,14.1z M14.1,27.6
					c7.5,0,13.5-6.1,13.5-13.5S21.5,0.5,14.1,0.5S0.5,6.6,0.5,14.1S6.6,27.6,14.1,27.6L14.1,27.6z"/>
				<path class="st0" d="M1.2,14.1C1.2,7,7,1.2,14.1,1.2S27,7,27,14.1S21.3,27,14.1,27S1.2,21.3,1.2,14.1z M14.1,26.5
					c6.8,0,12.4-5.5,12.4-12.4S20.9,1.7,14.1,1.7S1.7,7.3,1.7,14.1S7.2,26.5,14.1,26.5z"/>
				<path class="st0" d="M6.1,10.6c-0.8,0.1-1.2-0.2-1.1-1c0,0,0.2-1.5,0.2-1.7c0-0.2,0.4-1.1,0.5-1.3c0.1-0.3,0.4-0.4,0.8-0.7
					s1.7-1.6,2.2-0.8c0,0,0.5,0.4,0.6,0.4c0.4-0.5,1.2-1.1,2.6-0.8c0,0,0.9-0.4,2.3-0.2c0.2,0.1,0.5-0.5,2,0.2
					c0.1,0.1,2.4-1.8,3.9-0.5c0,0,0.2,0.3,0.4,0.4c0.2,0.1,0.8,0.5,1.1,1.3c0.3,0.8,0.9,1.4,1.2,1.7c0.3,0.2,0.5,1.1-0.4,1.2
					c0,0-0.4,0.2-0.4,0.3c0.2,0,0.2,0,0.4,0.2c0.1,0.2,0.2,0.3,0.4-0.1c0.2-0.4,0.5-0.3,0.8-0.1s0.3,0.4,0.6,0.1c0,0,0.1,0,0.3,0.1
					l1.6-0.2c3.5,9.5-3.2,18.1-12.3,17.9l0-0.6c-1.6-1.1-0.8-3.4,0.3-3.6c-0.4-0.5-0.8-1-0.8-1.2s-0.2-0.3-0.5-0.2s-1-0.1-1.3-0.2
					s-0.8-0.4-1.3-0.3c-0.5,0.1-0.8,0.2-1.4-0.2C8.6,21,7.9,21.8,7,20.9c0,0-0.1-0.1-0.2-0.1c-0.2,0-0.5-0.3-0.6-0.6
					c0,0-0.2-0.3-0.3-0.4c-0.1-0.1-0.7-0.8-0.7-1.4c0,0-0.1-0.1-0.2-0.3c-0.1-0.2-0.2-1.1,0.3-1.8c0.1-0.2,0.3-0.3,0-0.7
					c0,0-0.2-0.5,0.3-1.1c0,0,0.2-0.2,0.2-0.6c0,0,0.5-0.5,0.6-0.7c-0.2-0.1-0.4-0.6-0.2-1.1l-0.5-0.4c0,0,0.3-0.3,0.3-0.5L6.1,10.6
					L6.1,10.6z M5.5,9.4c0,0-0.2,0.6,0.2,0.6c0.4,0.1,0.6,0.1,0.6-0.6l0.2-1.3c0,0-0.1-0.1,0.5-0.7l0.6-0.7c0.2-0.4,0.8-0.3,0.3,0.2
					S6.5,8.7,6.7,9.6c0.1,0.3,0.3,0.5,0,0.8s-0.3,1-0.2,1.1s0.1,0.1,0.2,0c0.1-0.1,0.6-0.2,1,0.2c0,0,0.3,0.3,0.5,0.3
					c0.2,0,0,0,0.2,0.1s0.3,0,0.3,0l-0.3-0.5c-0.2-0.2-0.1-0.4,0.2-0.1c0,0,0.1,0.1,0.2,0.3C9,11.9,9.3,12,9.1,11.6
					c0,0-0.2-0.2-0.2-0.4c0-0.2,0.2-0.6,0.3-0.1c0.2,0.6,0.5,0.7,0.9,0.6c0,0,0.2-0.2,0.5-0.1c0,0,0.7-0.4,0.8-0.9
					c0.1-0.3,0.6-0.2,0.3,0c0,0-0.5,0.8-1,0.9c-0.5,0.2,0.1,0.3,0.2,0.2c1.1,0,1.5-0.1,1.5-1.4C13,9.9,13.2,10,13,10.3
					c0,0-0.2,0.6,0.3,0.2c0.5-0.4,1.1-0.4,1.2-0.5c0.1,0,0.3,0,0.3,0.2c0,0-0.2,0.1-0.3,0.1s-0.5-0.1-0.8,0.2l-0.2,0.3H13
					c0,0-0.2,0.1-0.2,0.3c-0.1,0.2-0.2,0.6,0.2,0.1c0.5-0.4,1.3-0.7,2.4-0.1c0.1,0.1,0.1,0.3,0.4,0c0.3-0.3,0.6-0.3,0.3,0
					c-0.3,0.3-0.6,0.5-0.2,0.6c0.5,0.2,0.4,0.3,0,0.2c-0.4-0.1-0.6,0.2-0.6,0.2s-0.7,0.7-1.8,0.3c0.4,0.2,0.8,0.4,1.3,0.2
					c0.3-0.1,0.6,0,0.4,0.2s-0.8,0.2-1.7-0.3c0.2,0.5,1.2,0.8,1.6,0.6c0.3-0.1,0.4,0.1,0.2,0.2c-0.2,0.1-1.2,0.2-2.2-0.7
					c-1-1-0.5,0.3-0.1,0.4c0,0,0.8,0.7,1.6,0.8s1.2,0.7,1.2,1.2c0,0,0.3,0.6-0.1,0.6c0.3,0.1,0.3,0.2,0.5,0.2c0.2,0,0.8,0.5,0.7,1.1
					c0,0,0.5,0.5,0.2,0.9c-0.3,0.5-0.4,0.3-0.2,0.6c0,0-0.5-0.2-0.8-0.6c-0.3-0.3-0.9-0.5-0.9-0.5c-1.1-0.5-0.2-0.4,0.1-0.2
					c0.2,0.2,0.6,0.3,0.8,0.5c0.2,0.2,0.5,0.3,0.7-0.1c0.2-0.4-0.2-0.8-0.2-0.8c0-0.1,0.1-0.9-1-1c0,0-0.3,0-0.5-0.1
					s-0.4-0.3-0.3,0.2c0.3,0.4,0.9,1.3,0,0.3c-0.1-0.3-0.4-0.6-0.8-0.8c-0.3-0.2-0.8-0.6-0.9-0.8c-0.1-0.2-0.5-0.2-0.5-0.2
					s-0.2-0.1-0.3-0.2c-0.1-0.1-0.4,0-0.5,0.1s-0.4,0.2-0.8,0c-0.6-0.2-1.6-0.1-2.4,0.6c-0.1,0.1-0.3,0.4-0.5,0c0,0-0.2-0.3-0.8,0
					c0,0-2.5,2.1-1.4,3.3c0,0,0,0.6,0.4,1S7,19.5,6.8,18c-0.1-0.6,0-1.1,0.8-1.4s0.8-0.5,0.8-0.6s0.1-0.4,0.2,0c0,0,0,0.4,0.7,0.3
					c0.6,0.1,2.3,0.3,3,1.4s0.3,0.9-0.2,0.5c-0.5-0.4-3.1-1-4.4-0.3c-0.4,0.1-0.8,0.6,0,0.7c0.6,0.2,1.3,0.6,1.4,1.2
					c0,0,0.2,0.5,0.6,0.5s0.5-0.1,0-0.5l-0.4-0.5c0,0-0.1-0.3-0.2-0.4c-0.1-0.1-0.1-0.4,0.2-0.1c0.3,0.3,0.4,0.8,0.7,1
					c0.2,0.1,0.5,0.3,0.9,0.3c0.5-0.1,0.5,0.1,0.9,0.3c0.2,0.2,0.8,0.2,1,0.1c0.2,0,0.9,0,0.2-1c-0.2-0.3-0.3-1.2,0.2-0.3
					c0,0,0.5,0.6,0.6,0.8c0.1,0.1,0.3,1,1.3,0.9c1.1,0.1,2.8,0,3.2-1.3c0,0,0.4-0.6,0.6-0.7s0.9-0.6,0.7-1.5
					c-0.1-0.6,0.1-1.2,0.1-1.2s0.3-0.6,0.2,0c-0.1,0.6-0.2,1,0,1.2c0.1,0.2,0.2,0.6,0.6-0.2c0.2-0.3,0.4-0.9,0.2-1.9
					c-0.2-1,0-2.1,0.1-1.1c0,0,0.2,0.4,0.3-0.5s-0.1-2.8-0.3-3.3c-0.1-0.5,0-1,0.2,0c0,0,0.2,0.8,0.3,1.2s0.6,2.1-0.2,3.2
					c0,0,0.3,0.3,0.4,0.7c0,0,0.4,0.4,0.2-0.1c-0.3-0.4-0.3-0.6-0.3-0.6c-0.1-0.2,0-0.7,0.2,0c0.3,0.6,0.6,0.4,0.3,0
					c0,0-0.1-0.2-0.2-0.4c-0.2-0.2-0.2-0.6,0.2-0.1c0,0,0.1,0.1,0.2,0.3s0.4,0.2,0.1-0.2l-0.4-0.5c0,0-0.4-0.6,0.2-0.1l0.2,0.2
					c0,0,0.6,0.4,0.2-0.2c0,0-0.2-0.2-0.3-0.4c0,0-0.2-0.1-0.3-0.3s-0.1-0.2,0.2,0c0,0,0.1,0.1,0.3,0.2c0.2,0.1,0.5-0.1,0.1-0.4
					c-0.4-0.3-0.6-0.6-0.6-0.6c-0.2-0.2-0.3-0.4,0.1-0.1c0.4,0.3,0.9,0.6,0.5,0s-0.6-0.8-0.6-0.8c-0.5-0.4-0.4-0.7,0.1-0.1
					c0.5,0.6,0.7,0.3,0.2-0.3C21,10.4,20.6,10,22,10.7c0,0,0.2,0-0.2-0.4S21,9.8,21.7,10c0,0,0.6,0.2-0.1-0.2
					C21.2,9.7,21,9.3,21,9.2c-0.1-0.1-0.1-0.2,0.2-0.3c0,0,0.2-0.1,0.3-0.2c0.1-0.1,0-0.1,0.2-0.1s0.2-0.1,0.2-0.1s0.2,0,0.2-0.1
					s0.4-0.5-0.1-0.8c-0.4-0.3-0.9-0.9-1-1.3C21,6,21,5.4,20.1,5c-0.5-0.5-1.3-1.6-3.6,0.3c0,0-0.5,0.2-0.9-0.1
					c-0.4-0.3-1.2-0.1-1.2-0.1c0,0-1.7-0.1-2.3,0.3c0,0-0.2,0-0.4-0.1C11.5,5.1,10,5.4,9.8,5.9c0,0-0.7,1.1-0.8,0.4
					c0,0-0.2-0.4-0.5-0.5c0,0-0.2-0.5-1,0c0,0-0.6,0.7-0.8,0.8C6.4,6.7,5.8,7.4,5.7,8.2S5.6,9.5,5.5,9.4L5.5,9.4z M6.1,15.6l1-0.9
					c-0.2-0.3,0.2-1,0.4-1.1c0,0,0.1-0.6,1.1-0.7c0,0,0.4,0,0.5-0.1c0.2,0,1-0.1,1.3,0.2c0,0,0.2,0.2,0.3,0.2c0.1,0.1,1,1,0.8,1
					c0,0,0.1,0.1,0.3-0.1c0.2-0.2,0.4-0.1,0.6,0c0.2,0,1,0.1,0.1-0.2c0,0-0.2-0.2-0.6-0.1c0,0-0.3-0.1-0.5-0.4
					c-0.2-0.3,0.1-0.2,0.2-0.2c0.1,0.1,0,0.3,0.5,0.4c0.6,0.1,0.9,0,1.3,0.8c0.4,0.7,0.9,1.1,1.3,1c0.8,0.3,1.1,0.1,0.9-0.3
					c0,0-0.2-0.2-0.2-0.4s0-0.3-0.6-0.5c0,0-0.5-0.2-0.7-0.2c0,0-0.2-0.1-0.3-0.2c-0.1-0.1-0.3-0.2-0.6-0.3s-0.8-0.6-1-0.8
					s-1.4-0.4-2-0.5c0,0-0.9-0.2-2.6,0.5c-0.3,0.1-0.5,0.4-0.6,0.6s-0.4,0.6-0.6,0.7C6.5,14,5.8,15.5,6.1,15.6L6.1,15.6z M6.6,12.1
					c0,0,0,0.5,0.3,0.1c0,0,0-0.1,0.1-0.2c0.1-0.1,0-0.6-0.3-0.3C6.7,11.7,6.6,12,6.6,12.1L6.6,12.1z M7.5,12.1c0,0,0,0.5,0.2,0.1
					C7.7,12.1,7.5,11.8,7.5,12.1z M13.5,11.7c0,0,0.2,0.6,0.4,0c0.1-0.2,0.2-0.7-0.2-0.4C13.7,11.3,13.5,11.4,13.5,11.7L13.5,11.7z
					 M15.1,11.2c0,0,0.1,0.6-0.2,0.8c0,0,0.2,0.1,0.6-0.5C15.6,11.5,15.4,11.4,15.1,11.2L15.1,11.2z M11.3,17.5
					c0.3,0.2,0.1-0.3,0.1-0.3c-0.5-0.3-0.2,0.1-0.2,0.1S11.3,17.5,11.3,17.5z M10.7,17.4c0.3,0.1,0.1-0.4,0.1-0.4
					c-0.4-0.4-0.3,0.1-0.3,0.1C10.5,17.3,10.7,17.4,10.7,17.4L10.7,17.4z M10.1,17.3c0,0,0.4-0.1,0-0.5C9.7,16.4,9.7,17,9.7,17
					C9.8,17.3,10.1,17.3,10.1,17.3z M9.2,17.3c0.2,0.2,0.5,0,0.2-0.5S8.9,16.7,9,16.9C9,17.1,9.2,17.3,9.2,17.3L9.2,17.3z M8.4,17.3
					c0.5,0.3,0.2-0.5,0.2-0.5c-0.3-0.5-0.4,0.1-0.4,0.1C8.3,17.2,8.4,17.3,8.4,17.3L8.4,17.3z M8,17.4c0.3-0.1-0.1-0.5-0.1-0.5
					c-0.4-0.4-0.4,0.2-0.4,0.2C7.5,17.5,7.7,17.5,8,17.4z M7.3,17.7c0.3,0.1,0.2,0,0-0.3c-0.2-0.3-0.2,0.2-0.2,0.2
					C7.1,17.8,7.3,17.7,7.3,17.7L7.3,17.7z M8.3,13.9c-0.1,0.3-0.1,0.6-0.1,0.6c0.3,0.5,0.2-0.2,0.2-0.7s0.2-0.1,0.2-0.1
					c0.1-0.2,0.7-0.4,0.7-0.4c0.8-0.2-0.1-0.2-0.1-0.2s-0.5-0.1-0.6,0.1c-0.2,0.2-0.5,0.1-0.5,0.1c-0.5,0.2-0.1,0.2-0.1,0.2
					C8.3,13.5,8.4,13.6,8.3,13.9L8.3,13.9z M22.8,14.1c0.1,1.7-0.4,3.1-1,4.2c0.2,0.2,0.8,0.3,0.8,0.3c1,0.5,1.4-1.4,1.4-1.4
					c0.7-2.2,0.3-5.5-0.1-7.2c-1.2-0.8-1.4-0.1-1.4-0.1C22.8,11.1,22.8,14.1,22.8,14.1z M22.4,14.2c0,1.3-0.5,2.8-0.5,2.8
					c-0.4,1.5-1.8,2.7-1.8,2.7c-1.3,1.5-2.9,2.1-3.8,2.5c-0.7,0.4,0.3,0.1,0.3,0.1c2.4-0.9,3.7-2.5,3.7-2.5c1.5-1.4,1.8-2.7,1.8-2.7
					c0.6-1.7,0.5-2.6,0.5-2.6c0.1-1.4-0.1-3.5-0.3-4.9c0-0.5-0.3-0.4-0.2,0.1C22.3,10.4,22.5,12.4,22.4,14.2z M24.4,13
					c0.3,2.2-0.5,4.6-0.5,4.6c-1.2,2.8-2.1,3.3-2.1,3.3c-1,1.2-2.7,2.1-3.5,2.4c-0.7,0.4-0.1,0.4,0.1,0.2c2.2-0.8,3.5-2.4,3.5-2.4
					c1.8-1.6,2.2-3.4,2.2-3.4c0.8-1.5,0.5-4.7,0.5-4.7c0.1-0.5-0.1-1.9-0.4-3.4c-0.1-0.4-0.2-0.4-0.2,0C24.4,11.4,24.4,13,24.4,13
					L24.4,13z M25,11.4c0.5,0.6,0.3,0.8,0.3,0.8c0,0.8,0.9,1.4,0.9,1.4c0.2-0.9-0.7-3.6-0.7-3.6c-0.1-0.1-0.6,0-0.6,0
					C24.3,10.1,24.5,10.8,25,11.4L25,11.4z M25.2,13c0,0,0.3,0.4,0.3,0.6s0.1,0.6,0.5,1.5s0.1,0,0.1,0c0.2-0.3-0.1-0.5-0.1-0.5
					l-0.4-0.5c-0.1-0.3,0.1-0.2,0.3,0c0.5,0.5,0.1-0.2,0.1-0.2c-0.8-0.6-0.6-0.8-0.8-1.1s0.2-0.5-0.2-0.8c-0.4-0.5-0.2,0.1-0.2,0.1
					C25,12.4,25.2,13,25.2,13L25.2,13z M18,22.8c0.2,0.2,0.2,0.1,0.2,0.1c0.4-0.1,1.7-1.1,1.7-1.1c0.4-0.2,0.1-0.4,0-0.5
					s-0.2-0.1-0.3,0s-1.5,1-1.6,1.1s-0.1,0.2-0.1,0.2L18,22.8L18,22.8z M16.6,23.5h0.2l-0.1-0.5h-0.3L16.6,23.5L16.6,23.5z
					 M12.9,24.7c0,0.9,0.7,1.7,1.8,1.7s1.7-0.9,1.7-1.8s-0.8-1.5-1.1-1.6l-0.1,0.6c0.1,0.1,0.6,0.2,0.6,1s-0.3,1.1-1.1,1.1
					s-1-0.7-1.1-1.1c0-0.4,0.2-0.8,0.6-1L14.1,23C13.5,23,12.9,23.8,12.9,24.7L12.9,24.7z M14.6,23.6C15,24,15,23,15,23
					c-0.5-0.6-0.7,0.1-0.7,0.1C14.3,23.3,14.6,23.6,14.6,23.6L14.6,23.6z M7.8,14l-0.1,0.2l0.2,0C8,14.3,7.8,14.2,7.8,14z M9.5,13.9
					c0.5-0.1,0.4-0.2,0.2-0.4L9.5,13.9z M14.9,25.4l0-0.4c-0.4-0.1-0.4-0.5-0.3-0.7L14.3,24C13.3,24.6,14.1,25.7,14.9,25.4z
					 M21.4,20.6c0.3,0,0.5-0.2,0.5-0.5s-0.2-0.5-0.5-0.5s-0.5,0.2-0.5,0.5S21.1,20.6,21.4,20.6z M20.9,15.4c0.3,0.2,0.1-0.1,0.1-0.1
					L21,15.2c-0.1-0.4-0.1,0-0.1,0C20.9,15.5,20.9,15.4,20.9,15.4z M21.3,16.2c0.1,0.1,0.2,0.1,0.1-0.1c0,0-0.1-0.1-0.2-0.3
					c-0.1-0.2-0.1-0.1-0.1,0.1C21.1,15.9,21.2,16.1,21.3,16.2z M21.1,16.7c0.1,0.2,0.3,0.1,0.2,0c-0.1-0.1-0.1-0.1-0.1-0.3
					s-0.2-0.1-0.1,0.1C21,16.4,21,16.5,21.1,16.7L21.1,16.7z M20.8,17.4c0,0.3,0.1,0,0.1,0s0-0.4,0-0.6c0-0.2-0.2-0.1-0.2,0
					C20.8,16.9,20.7,17.1,20.8,17.4z M6.7,19.7c0,0,0.1,0.3,0.3,0.5c0,0,0.1,0,0.2,0.1L6.7,19.7L6.7,19.7z M7.3,20.3
					c0,0,0.1,0.1,0.1,0.2s0.3,0.1,0.3,0.1v-0.1C7.8,20.5,7.7,20.3,7.3,20.3L7.3,20.3z M7.3,19.7c0,0,0.1,0.2,0.1,0.3l0.2,0.2
					l0.2,0.1C7.8,20.1,7.6,19.9,7.3,19.7L7.3,19.7z M7.3,19.1l0.2,0.5l0.3,0.2c-0.1-0.2-0.1-0.3-0.2-0.3L7.3,19.1z M8,20.1
					c0,0,0.1,0.2-0.1,0.3l0.1,0.3c0.2-0.2,0.4-0.4,0.2-0.8C8.1,20,8.1,20,8,20.1z M25.5,16.2c0,0,0.1,0.3,0.2,0.7
					c0.1,0.4,0.2,0.1,0.2,0c0-0.1-0.1-0.5-0.3-0.7c0,0,0-0.3-0.1-0.5c-0.1-0.2-0.2-0.1-0.1,0.1 M23.5,9.5l-0.3-0.3
					C23.2,9.5,23.3,9.6,23.5,9.5z M22.9,18.9c-0.1,0.1,0,0.2,0,0.1c0,0,0.1,0,0.1-0.2s-0.1,0-0.1,0L22.9,18.9L22.9,18.9z M22.2,19.5
					C22.1,19.6,22.2,19.6,22.2,19.5c0,0.1,0.5-0.4,0.6-0.6c0.1-0.2,0-0.2-0.1,0C22.6,19,22.3,19.3,22.2,19.5L22.2,19.5z M22,19.4
					C21.9,19.6,22.1,19.5,22,19.4c0.1,0.1,0.4-0.3,0.5-0.6c0.1-0.2,0-0.1-0.1,0C22.4,18.9,22.1,19.4,22,19.4L22,19.4z M21.8,19.4
					C21.7,19.5,21.9,19.5,21.8,19.4c0.1,0.1,0.4-0.3,0.5-0.6c0.1-0.2,0-0.1-0.1,0C22.3,18.8,21.9,19.3,21.8,19.4L21.8,19.4z
					 M21.7,19.3C21.6,19.4,21.7,19.4,21.7,19.3c0.1,0.1,0.5-0.5,0.6-0.7c0-0.1,0-0.1-0.1,0C22.1,18.6,21.7,19.2,21.7,19.3L21.7,19.3
					z M21.5,19.2C21.4,19.3,21.5,19.2,21.5,19.2c0.1,0.1,0.5-0.4,0.6-0.6c0-0.1,0-0.1-0.1,0C22,18.6,21.5,19.1,21.5,19.2L21.5,19.2z
					 M21.3,19.1C21.2,19.3,21.4,19.2,21.3,19.1c0.1,0.1,0.5-0.4,0.6-0.6c0.1-0.1,0-0.1-0.1,0C21.8,18.5,21.4,19.1,21.3,19.1
					L21.3,19.1z M22.6,19.5c-0.2,0.3,0.1,0.1,0.1,0.1s0.4-0.4,0.6-1c0.2-0.6-0.1,0-0.1,0C23.1,18.9,22.6,19.5,22.6,19.5z"/>
				<g>
					<path class="st0" d="M14.7,22.9c0,0,0.2,0.4-0.1,0.6c0,0,0,0.2,0.2,0c0.2-0.2,0.1-0.5,0.1-0.5S14.8,22.7,14.7,22.9L14.7,22.9z"
						/>
					<path class="st0" d="M24.1,15.2c0-0.2,0.1-0.2,0.1,0S24.2,16,23.4,16c-0.3,0-0.3-0.1,0-0.1S24.1,15.8,24.1,15.2L24.1,15.2z"/>
					<path class="st0" d="M24,12.4c0,0-0.1-0.2,0.1-0.1c0.2,0.1,0.3,1.1-0.3,1.2c0,0-0.3,0-0.1-0.1C24.3,13.3,24.3,12.7,24,12.4z"/>
					<path class="st0" d="M23.9,10.2C23.9,10.2,23.7,10.1,23.9,10.2c0.3,0,0.5,1.2-0.3,1.2c0,0,0-0.1,0.1-0.1
						C24,11.4,24.2,10.8,23.9,10.2L23.9,10.2z"/>
					<path class="st0" d="M22.7,10.7c0-0.3,0.3-0.6,0.6-0.6s0.6,0.3,0.6,0.6s-0.3,0.6-0.6,0.6S22.7,11,22.7,10.7z M23.3,11.2
						c0.3,0,0.5-0.2,0.5-0.5s-0.2-0.5-0.5-0.5s-0.5,0.2-0.5,0.5S23,11.2,23.3,11.2z"/>
					<path class="st0" d="M23,12.8c0-0.3,0.3-0.6,0.6-0.6s0.6,0.3,0.6,0.6s-0.3,0.6-0.6,0.6S23,13.1,23,12.8z M23.5,13.3
						c0.3,0,0.5-0.2,0.5-0.5s-0.2-0.5-0.5-0.5S23,12.6,23,12.8S23.3,13.3,23.5,13.3z"/>
					<path class="st0" d="M22.9,15.2c0-0.3,0.3-0.6,0.6-0.6s0.6,0.3,0.6,0.6s-0.3,0.6-0.6,0.6S22.9,15.5,22.9,15.2z M23.5,15.7
						c0.3,0,0.5-0.2,0.5-0.5s-0.2-0.5-0.5-0.5S23,14.9,23,15.2S23.2,15.7,23.5,15.7z"/>
					<path class="st0" d="M22.2,18c0-0.3,0.3-0.6,0.6-0.6s0.6,0.3,0.6,0.6s-0.3,0.6-0.6,0.6S22.2,18.3,22.2,18z M22.8,18.5
						c0.3,0,0.5-0.2,0.5-0.5s-0.2-0.5-0.5-0.5s-0.5,0.2-0.5,0.5S22.5,18.5,22.8,18.5z"/>
					<path class="st0" d="M15.5,23.7c0.1,0.1,0.2,0.1,0.1-0.1c-0.1-0.2-0.4-0.2-0.4-0.3l-0.1,0.2C15.1,23.5,15.4,23.7,15.5,23.7
						L15.5,23.7z"/>
					<path class="st0" d="M15.7,23.9c0,0,0,0.1,0.1,0.2c0,0.1,0.2,0.1,0.1-0.1c0,0,0-0.1-0.1-0.2S15.6,23.8,15.7,23.9z"/>
					<path class="st0" d="M14.1,23.4c-0.8,0.4-0.8,1-0.8,1.3c0,0,0.1,0.4,0.1,0c0-0.5,0.2-1,0.7-1.2L14.1,23.4L14.1,23.4z"/>
					<path class="st0" d="M13.4,25.2c-0.1-0.1,0.1-0.2,0.1,0c0.1,0.2,0.1,0.2,0.2,0.3s0.1,0.2,0,0.2S13.4,25.3,13.4,25.2z"/>
					<path class="st0" d="M13.6,26c-0.1-0.1,0-0.2,0.1-0.1C13.9,26,13.9,26,14,26c0.1,0,0.1,0.2-0.1,0.1S13.6,26,13.6,26L13.6,26z"
						/>
					<path class="st0" d="M15.8,23.5c-0.1-0.1,0.1-0.2,0.1-0.1c0.8,0.9,0.6,2.9-1.4,2.9c-0.2,0-0.3-0.1,0-0.1
						C15.7,26.4,16.9,24.8,15.8,23.5z"/>
					<path class="st0" d="M12.5,16.4c-0.4-0.2-0.5-0.4,0.1-0.2c0,0,0.7,0.3,0.9,0.5s0.5,0.6,0.6,0.6s0.5,0.5,0,0.2
						c0,0-0.4-0.3-0.6-0.5C13.3,16.8,12.9,16.4,12.5,16.4L12.5,16.4z"/>
					<path class="st0" d="M15.4,18.6c-0.1-0.2-0.1-0.4,0.2-0.2s0.8,0.6,1.1,0.7c0.3,0.1,0.9,0.6,0,0.2C16.4,19.3,15.6,19,15.4,18.6z
						"/>
					<path class="st0" d="M16.2,16.8c0.1,0,0.2-0.1,0.2-0.2s-0.1-0.2-0.2-0.2S16,16.5,16,16.6S16.1,16.8,16.2,16.8z"/>
					<path class="st0" d="M16.1,14.6c0.1,0,0.2-0.1,0.2-0.2s-0.1-0.2-0.2-0.2s-0.2,0.1-0.2,0.2S16,14.6,16.1,14.6z"/>
					<path class="st0" d="M16.8,14.9c0.1,0,0.2-0.1,0.2-0.2s-0.1-0.2-0.2-0.2s-0.2,0.1-0.2,0.2S16.7,14.9,16.8,14.9z"/>
					<path class="st0" d="M16.4,15.4c0.1,0,0.2-0.1,0.2-0.2S16.5,15,16.4,15s-0.2,0.1-0.2,0.2S16.3,15.4,16.4,15.4z"/>
					<path class="st0" d="M17,15.7c0.1,0,0.2-0.1,0.2-0.2s-0.1-0.2-0.2-0.2s-0.2,0.1-0.2,0.2S16.9,15.7,17,15.7z"/>
					<path class="st0" d="M7.1,15.4c0.1,0,0.1-0.1,0.1-0.1s-0.1-0.1-0.1-0.1S7,15.1,7,15.2S7.1,15.4,7.1,15.4z"/>
					<path class="st0" d="M6.7,15.9c0.1,0,0.1-0.1,0.1-0.2s-0.1-0.2-0.1-0.2s-0.1,0.1-0.1,0.2S6.6,15.9,6.7,15.9z"/>
					<path class="st0" d="M18,6.3c0,0-0.2-1.6,1-1.5c0,0,0.7-0.1,1.2,1.1C20.6,6.5,22,7.5,21,8.2c0,0,0.2-0.2-0.5-0.6
						c-0.2-0.1-0.3-0.1-0.1,0.1c0.3,0.2,0.5,0.4,0,0.3c-0.2-0.1-0.6-0.2-0.3,0s0.4,0.3-0.1,0.3c-0.3-0.3-0.6-0.4-0.3,0.1
						c0,0,0,0.2-0.4,0c-0.4-0.2-0.6-0.7-0.6-0.7S18.4,7.3,19,7.3c0,0,0.8-0.4,0.9-0.6c0.1-0.2,0.1-0.1,0-0.3
						c-0.1-0.2-0.1-0.1-0.2,0.1c0,0.2-0.1,0.2-0.2,0c-0.1-0.2-0.2-0.2-0.1,0.2c0,0,0.1,0.3-0.2,0.2c0,0,0.1,0.3-0.2,0.2
						c0,0,0.2,0.3-0.3,0S18,6.5,18,6.3L18,6.3z"/>
					<path class="st0" d="M16.9,5.3c-0.1,0.2,0,0.3,0.2,0.1l0.2-0.2C17.5,5,17.4,4.7,17.1,5C17.1,5,16.9,5.3,16.9,5.3z"/>
					<path class="st0" d="M15.5,6.5c-0.1,0.2-0.1,0.3,0.2,0.2c0.3-0.2,0.9-0.6,1.8,0.1l0.4,0.4c0.2,0.3,0.6,0.4,0.2-0.2l-0.5-0.3
						C17.1,6.2,16.4,5.9,15.5,6.5z"/>
					<path class="st0" d="M18.1,8.4c-0.3-0.4,0.2-0.5,0.3-0.2s0.4,1.1,0.9,1c0.1,0.1,0.4,0.2,0.3,0.6l0.1,0.5c0.1,0.3-0.2,0.6-0.3,0
						c0.1-0.4,0-0.8-0.4-1c-0.5-0.2-0.5-0.3-0.5-0.5S18.1,8.4,18.1,8.4L18.1,8.4z"/>
					<path class="st0" d="M15.3,9.2c-0.4,0-0.1-0.2,0.1-0.3H16c0.2,0,0.8,0.8,1.2,0.9c0.4,0.1,0.5,0.4,0,0.3s-1.1-0.9-1.4-0.9
						L15.3,9.2L15.3,9.2z"/>
					<path class="st0" d="M13.2,9.2c-0.2,0.2-0.2,0.4,0.1,0.2C13.6,9.2,14.1,9,14.5,9c0.4,0.1,0.4-0.3-0.1-0.3S13.4,9,13.2,9.2
						L13.2,9.2z"/>
					<path class="st0" d="M16,9.9c-0.4-0.1-0.3-0.3,0.1-0.3c0.4,0.1,0.3,0.6,0.8,0.7c0.4,0.1,0.3,0.3-0.1,0.2
						C16.3,10.4,16.4,10,16,9.9L16,9.9z"/>
					<path class="st0" d="M15.5,10.1c-0.4,0-0.3,0.1-0.1,0.2c0.2,0.1,0.3,0.1,0.5,0.2c0.2,0.1,0.3,0,0.2-0.2
						C15.8,10,15.5,10.1,15.5,10.1L15.5,10.1z"/>
					<path class="st0" d="M10.8,8.6c-0.2,0.1-0.3,0.6,0.1,0.2c0.5-0.5,0.6-0.8,2.3-0.8c0.6,0.1,0.8-0.3,0-0.3s-0.7,0.2-1,0
						C11.8,7.5,11,8.2,10.8,8.6z"/>
					<path class="st0" d="M9.4,7.8c-0.2-0.1-0.3,0,0,0.2s0.8,0.5,1.6-0.2c0,0,0.5-0.3-0.2-0.2C10.6,7.9,10.1,8.2,9.4,7.8z"/>
					<path class="st0" d="M8.7,8.4c-0.4-0.3-0.6,0-0.2,0.2c0,0,0.3,0,0.5,0.2S9.5,9,9.5,9c0.2,0.1,0.6-0.1,0-0.2
						C9.3,8.7,9,8.4,8.9,8.4L8.7,8.4L8.7,8.4z"/>
					<path class="st0" d="M7.5,9.7C7.2,9.8,7.1,9.6,7.4,9.4C7.8,9.2,8.2,9,8.7,9.2C8.8,9.4,8.9,10,8.4,9.5C8.4,9.5,8.2,9.2,7.5,9.7
						L7.5,9.7z"/>
					<path class="st0" d="M7.4,10c-0.3,0.1-0.5,0.3,0,0.2S8.2,10,8.3,10c0.1,0,0.5,0.2,0-0.2C8.3,9.9,8.1,9.7,7.4,10z"/>
					<path class="st0" d="M7.3,10.8c-0.3,0-0.5,0.2,0,0.2s0.7,0.4,0.7,0.4c0,0.4,0.2,0.6,0.4,0.3c-0.2-0.2-0.2-0.3-0.2-0.6
						S7.5,10.8,7.3,10.8L7.3,10.8z"/>
					<path class="st0" d="M16.4,12.8c-0.3,0.2-0.3,0.5,0.1,0.2c0.5-0.3,0.6-0.5,0.8-0.8c0.1-0.3,0.3-0.3,0.3,0.2
						c-0.2,0.3-0.2,0.7-0.1,1c0.1,0.3,0,1.3-0.1,1.6s0.1,0.8,0.4,1c0.2,0.3,1.1,1,0.6,1.7c0,0-0.2,0.3-0.2,0.5s0,0.4,0.2-0.1
						s0.2-0.4,0.3-0.6c0.2-0.2,0.3-0.7-0.5-1.4c-0.8-0.7-0.8-1.3-0.5-2.1l0-1.7c0.1-0.4,0-0.4-0.2-0.6s-0.5,0.2-0.5,0.2
						S16.6,12.8,16.4,12.8L16.4,12.8z"/>
					<path class="st0" d="M18.2,11.7c-0.1-0.3,0.4-0.3,0.2,0c0,0,0,0.2,0.1,0.3c0.1,0.2,0.2,0.8-0.1,1s-0.2,0-0.2-0.2
						s0.1-0.4,0.1-0.7C18.3,12.1,18.2,11.8,18.2,11.7z"/>
					<path class="st0" d="M18.6,11.7c-0.1-0.3,0.4-0.3,0.2,0c0,0-0.1,0.2,0,0.4s0.3,0.5,0.1,1c-0.1,0.2-0.2,0-0.2-0.2
						s0.1-0.3,0.1-0.6C18.7,12.2,18.6,11.8,18.6,11.7L18.6,11.7z"/>
					<path class="st0" d="M19,11.7c-0.1-0.3,0.4-0.3,0.2,0c0,0,0,0.2,0.1,0.3c0.1,0.2,0.3,0.6,0,0.7c-0.3,0.2-0.2,0-0.2-0.2
						s0-0.2-0.1-0.5C19.1,12.1,19,11.8,19,11.7L19,11.7z"/>
					<path class="st0" d="M7.7,18.1c0,0,0.2-0.3,0.2,0C7.9,18.2,7.7,18.3,7.7,18.1z"/>
					<path class="st0" d="M8,18.1c0,0,0-0.3,0.2,0C8.2,18,8.2,18.2,8,18.1z"/>
					<path class="st0" d="M8.3,18c0,0,0.1-0.2,0.2,0C8.5,17.9,8.5,18.2,8.3,18z"/>
					<path class="st0" d="M8.6,17.9c0,0,0.1-0.2,0.2-0.1C8.8,17.9,8.8,18.2,8.6,17.9z"/>
					<path class="st0" d="M8.9,17.9c0,0,0.1-0.2,0.2,0C9.1,17.9,9,18.2,8.9,17.9z"/>
					<path class="st0" d="M9.3,17.9c0,0,0-0.2,0.1,0C9.4,17.9,9.4,18.1,9.3,17.9z"/>
					<path class="st0" d="M9.6,17.9c0,0,0.1-0.2,0.2,0C9.9,18,9.7,18,9.6,17.9z"/>
					<path class="st0" d="M9.9,17.9c0,0,0.2-0.2,0.2,0S10,18.1,9.9,17.9z"/>
					<path class="st0" d="M10.3,17.9c0,0,0.1-0.2,0.2,0C10.5,18.2,10.4,18.1,10.3,17.9z"/>
					<path class="st0" d="M10.6,17.9c0,0,0.1-0.2,0.2,0C10.8,18.1,10.6,18.1,10.6,17.9z"/>
					<path class="st0" d="M11,17.9c0,0,0.2-0.2,0.2,0.1C11.2,18.2,11.1,18.1,11,17.9z"/>
					<path class="st0" d="M11.4,20c-0.1-0.2-0.1-0.3,0.1-0.1C11.7,20.1,11.7,20.3,11.4,20z"/>
					<path class="st0" d="M11.8,20c0,0-0.2-0.3,0.1-0.1C11.9,19.8,12.1,20.4,11.8,20z"/>
					<path class="st0" d="M12.1,20c0,0-0.2-0.3,0.1-0.1S12.4,20.2,12.1,20z"/>
					<path class="st0" d="M12.6,20.1c-0.1-0.2-0.2-0.5,0.1-0.2C12.9,20.2,12.9,20.4,12.6,20.1z"/>
					<path class="st0" d="M11.8,10.1c-0.1,0.1-0.2,0.4,0.2,0.2S12.2,9.7,11.8,10.1z"/>
					<path class="st0" d="M8.7,10C8.7,9.8,8.8,9.7,9,9.9c0,0,0,0.2,0.1,0.3s0.1,0.6-0.2,0.2C8.9,10.4,8.7,10.4,8.7,10z"/>
					<path class="st0" d="M15.4,16.3c0.1,0,0.2-0.1,0.2-0.2s-0.1-0.2-0.2-0.2s-0.2,0.1-0.2,0.2C15.2,16.2,15.3,16.3,15.4,16.3z"/>
					<path class="st0" d="M23.6,10.3l-0.2,0.3l0.5,0.2C23.9,10.6,23.8,10.4,23.6,10.3z"/>
					<path class="st0" d="M23.3,10.6l0.1,0.6c0,0,0.1,0.1,0.3-0.1L23.3,10.6L23.3,10.6z"/>
					<path class="st0" d="M23.8,12.4l-0.2,0.2l0.4-0.1C23.9,12.5,24,12.5,23.8,12.4L23.8,12.4z"/>
					<path class="st0" d="M24,12.7h-0.4l0.1,0.6C23.7,13.3,24.1,13.5,24,12.7L24,12.7z"/>
					<path class="st0" d="M23.3,14.7l0.2,0.4l0.2-0.4C23.6,14.7,23.5,14.6,23.3,14.7L23.3,14.7z"/>
					<path class="st0" d="M24,15.4l-0.5-0.1l0,0.5C23.5,15.7,23.8,15.9,24,15.4L24,15.4z"/>
					<path class="st0" d="M23.2,17.6l-0.4,0.2l0.5,0.1C23.4,18,23.4,17.8,23.2,17.6z"/>
					<path class="st0" d="M23.3,18.2l-0.4-0.3l-0.2,0.6C22.6,18.5,23,18.8,23.3,18.2L23.3,18.2z"/>
					<path class="st0" d="M21.8,19.8l-0.5,0.3l0.6-0.1C21.9,20,22,20,21.8,19.8z"/>
					<path class="st0" d="M20.8,20.2l0.6-0.1l-0.4,0.3C20.9,20.4,20.8,20.3,20.8,20.2z"/>
					<path class="st0" d="M21.1,20.5l0.3-0.4l0.5,0.1C21.9,20.2,21.8,20.9,21.1,20.5L21.1,20.5z"/>
				</g>
			</g>
			<g>
				<path class="st0" d="M3.1,30.3h1.1c2.1,0.1,1.7,2.1,0.7,2.2c1.6,0.2,1.2,2.3-0.3,2.4H2.8c-0.5,0-0.7-0.6-0.7-1v-2.6
					C2.1,30.7,2.5,30.3,3.1,30.3z M4.2,31.2H3.3v0.9h0.9C4.8,32.1,4.8,31.2,4.2,31.2L4.2,31.2z M4.3,32.9H3.3v1h1
					C5,33.9,5,32.9,4.3,32.9z"/>
				<path class="st0" d="M6.4,33.7v-2.2h1v2c0,0.8,1.1,0.8,1,0v-2h1v3.3h-1v-0.3C8.4,34.9,6.7,35.4,6.4,33.7L6.4,33.7z"/>
				<rect x="10.1" y="30.2" class="st0" width="1.1" height="4.6"/>
				<rect x="11.8" y="30.2" class="st0" width="1.1" height="4.6"/>
				<rect x="13.3" y="32.1" class="st0" width="1.1" height="1"/>
				<path class="st0" d="M15.7,30.2h1c2.9,0.3,2.8,4.4,0.1,4.6h-1.2c-0.3,0-0.7-0.1-0.7-0.6V31C14.9,30.7,15.2,30.2,15.7,30.2
					L15.7,30.2z M16,31.2v2.7h0.6c1.6-0.2,1.6-2.5,0-2.7C16.5,31.2,16,31.2,16,31.2z"/>
				<path class="st0" d="M19.2,33.2c0-1,0.8-1.8,1.9-1.8s1.9,0.8,1.9,1.8S22.1,35,21.1,35S19.2,34.2,19.2,33.2z M21.1,34.1
					c0.5,0,0.9-0.4,0.9-0.9s-0.4-0.9-0.9-0.9s-0.9,0.4-0.9,0.9S20.6,34.1,21.1,34.1z"/>
				<path class="st0" d="M26.7,30.5v0.8h-0.4c0.3,0.6-0.3,1.5-1.1,1.5C24.4,32.7,24.3,33,25,33c0.6,0,1.7,0.2,1.7,1.1
					c0,1.6-3.5,1.5-3.5,0.1c0-0.3,0.3-0.7,0.5-0.7c-0.3-0.1-0.2-0.8,0.2-1c-0.7-0.4-1-1.9,0.9-2.2c0.2,0,0.6,0.1,0.7,0.1L26.7,30.5
					L26.7,30.5z M24.9,32.2c0.3,0,0.6-0.2,0.6-0.6S25.2,31,24.9,31s-0.6,0.2-0.6,0.6S24.6,32.2,24.9,32.2z M24.4,34.6
					c0.3,0.1,0.5,0.1,1,0s0.2-0.5,0-0.6l-1-0.1C24.1,34.1,24.1,34.5,24.4,34.6z"/>
			</g>
		</g>
	</g>
</g>
</svg>
