<?xml version="1.0" encoding="UTF-8"?><svg id="b" xmlns="http://www.w3.org/2000/svg" viewBox="0 0 101.49 13.32"><defs><style>.d{fill:#d71618;}</style></defs><g id="c"><g><path class="d" d="M23.67,3.95s.01,3.01,0,3.01c-1,.2-1.57,.45-2.35,.84,0,0,0,5.17,0,5.18h-3.01s-.03-4.29,0-4.28c-.95,.09-1.98,.26-2.95,.24v-2.43c1.59-.06,2.75-.49,3.8-.93,.81-.38,2.25-1.46,4.52-1.63Z"/><polygon class="d" points="99.82 4.08 99.82 6.23 101.12 6.25 101.1 7.57 99.82 7.55 99.82 11.24 101.49 11.24 101.48 12.97 96.59 12.97 96.58 11.24 98.1 11.25 98.09 7.56 96.73 7.55 96.75 6.22 98.09 6.21 98.09 4.08 99.82 4.08"/><path class="d" d="M67.83,4.1h1.09l.02,1.09h.63v-1.1h1.38l.02,1.11h1.85v1.38h-1.85v.59h1.8v1.46s-1.71-.02-1.71-.02c0,.45,.97,1.97,1.8,2.59,0,0-.01,1.52,0,1.52-.56-.19-1.33-.9-1.84-1.33,.02,.02,0,1.62,0,1.62h-1.34s.01-1.59,0-1.6c-.37,.44-1.39,1.29-1.81,1.27v-1.36c.71-.79,1.69-1.94,1.65-2.69-.5-.02-1.64,0-1.64,0l.02-1.43h1.62v-.6h-1.69v-2.46Z"/><path class="d" d="M78.16,4.08h1.56v1.01l2.44-.02v1.49h-2.43c0,.39,.03,.71,.03,.91,0,2.8,2.18,3.84,2.52,4.15,0,0-.02,1.36,0,1.35-.96-.17-1.95-.95-2.65-1.75-1.06-1.22-1.32-2.92-1.35-3.7,0-.21-.02-.7-.03-.94h-4.6v-1.48h4.55l-.02-1.01Z"/><polygon class="d" points="80.85 4.1 82.13 4.1 82.13 4.87 80.85 4.89 80.85 4.1"/><path class="d" d="M93.78,4.08h1.35v.97h.59c.48,.02,.51,.39,.51,.68,0,1.14-.68,2.52-.87,2.84,.03,.34,.35,.59,.68,.8,0,0,0,1.39,0,1.38-.29-.06-.7-.27-.97-.49,.02,.02,0,2.71,0,2.71h-1.26s.02-2.67,.01-2.7c-.31,.26-.65,.46-1.17,.6,0-.41,0-1.48,0-1.47,.61-.48,1.67-1.84,1.69-2.85h-1.68v-1.49l1.12-.02v-.97Z"/><path class="d" d="M25.95,4.09h2.85v.83s2.64,.02,3.09,.02c.64,0,.79,.29,.81,.79v4.78c0,1.86-1.68,2.5-3.61,2.47,0-.02-.02-2.2,0-2.2,.31,0,.83-.05,.93-.48,0-.02-.02-2.74-.02-2.74,0,0-1.24-.02-1.24,0-.02,2.26-1.32,4.96-1.73,5.41,0,0-2.9,0-2.9,0,.27-.45,1.73-2.56,1.73-5.41,0-.02-1.29,0-1.29,0v-2.62l1.37-.02v-.83Z"/><path class="d" d="M33.51,4.09h2.71l.02,5.2h-2.01c-.4,0-.73-.33-.73-.78l.02-4.41Z"/><path class="d" d="M38.07,4.09l2.74,.02s-.01,4.92-.01,4.94c.02,2.57-2.35,3.93-3.65,3.92h-1.55v-2.2s1.12,0,1.14,0c.66,0,1.33-.97,1.33-1.49V4.09Z"/><path class="d" d="M41.28,4.1l2.94-.02,1.2,3.81s-2.18,.02-2.2,.01c-.42-.02-.64-.31-.75-.54,.01,0-1.18-3.27-1.18-3.27Z"/><path class="d" d="M50.53,4.08c-.22,6.53-4.53,8.89-6.47,8.89-.04,0,0-2.17,0-2.17,2.6-.75,3.37-4.08,3.36-6.72,0,0,3.12,.03,3.11,0Z"/><path class="d" d="M55.76,4.08h5.81c.62,0,.84,.44,.77,.99-.04,.44-.12,2.15-.98,3.53-.02,.32,1.61,1.74,2.14,1.72,0,.02,.02,2.65,0,2.65-1.2,0-2.93-1.19-3.72-2.21-1.2,1.04-2.77,2.19-4.41,2.22-.01-.02-.04-2.08,0-2.09,.47-.16,3.37-1.29,3.37-4.18h-2.99v-2.63Z"/><path class="d" d="M65.12,4.09h1.42v1.05h.81v1.43h-.76c0,.49,.49,1.28,.74,1.51-.01,0,0,1.88,0,1.88,0,0-.74-.54-.74-.54v3.57h-1.41s-.01-3.14,0-3.14c-.23,.15-.58,.52-1.02,.62,0-.48,.01-1.68,.02-1.69,.16-.13,.62-.79,.86-1.37,.08-.19,.05-.54,.06-.49-.01-.07,0-.34,0-.34h-.97v-1.46h.98v-1.02Z"/><rect class="d" x="50.58" y="7.14" width="4.71" height="2.33"/><polygon class="d" points="73.96 7.99 77.75 7.97 77.73 9.34 76.62 9.34 76.64 11.24 78.38 11.24 78.4 12.74 73.6 12.74 73.58 11.25 74.98 11.26 74.98 9.35 73.95 9.34 73.96 7.99"/><g><path class="d" d="M84.56,7.92h5.89s.02-.66,0-.71c.3,.07,.96,.24,1.43,.28,0,0-.02-1.3-.01-1.31-1.11-.2-3.02-1.75-3.33-2.34,0-.01-2.05-.01-2.08-.01-.61,.88-2.23,2.14-3.33,2.33v1.33c.5-.03,1.05-.18,1.41-.36,.03,0,.02,.79,.02,.79Zm2.92-2.81c.55,.44,1.13,.97,1.79,1.44,.02,.01-3.55,0-3.54,0,.4-.29,1.19-.97,1.75-1.44Z"/><path class="d" d="M83.23,10.02l2.3,.02c-.27,.6-.77,1.66-.92,2.04-.2,.48,.03,.89,.58,.9,.06,0,5.22-.02,5.2,0,.3-.03,.54-.29,.31-.74,0-.02-.85-1.52-.85-1.52h-1.47l.27,.65h-1.83l.7-1.3h4.21v-1.38h-8.51v1.34Z"/></g><path class="d" d="M11.43,6.23l-1.83,2.23s.58,.44,.62,.45c-.07,.26-.59,.86-1,1.12-.46,.29-1.17,.23-1.33-.33,0-.02-.02-2.35-.02-2.99,.77,0,1.62,.15,2.21,.52,.02-.02,.02-2,0-2.01-.79-.69-1.56-.71-2.2-.79v-.62c.53-.38,.84-1,.84-1.71,0-1.16-.94-2.1-2.1-2.1s-2.1,.94-2.1,2.1c0,.73,.37,1.36,.93,1.74v.6c-.98,.14-1.87-.22-2.34-.44,0,0-.02,2.08-.02,2.07,0,0,.63,.38,2.35,.59,0,.02,0,2.99,0,3.02,0,.3-.45,.62-1.05,.48-.41-.1-1.19-.9-1.19-1.28,0-.02,.55-.41,.55-.41l-1.92-2.23-1.81,2.23,.56,.42s.8,3.01,3.81,3.89c.87,.02,1.73,.34,2.23,.55,.47-.19,1.38-.53,2.39-.54,3.03-.96,3.79-3.94,3.77-3.92l.58-.4-1.91-2.23ZM6.61,2.84c-.41,0-.74-.33-.74-.74s.33-.74,.74-.74,.73,.33,.73,.74-.33,.74-.73,.74Z"/></g></g></svg>