<svg xmlns="http://www.w3.org/2000/svg" xmlns:xlink="http://www.w3.org/1999/xlink" width="57.874" height="55.983" viewBox="0 0 57.874 55.983"><defs><clipPath id="a"><rect width="42.233" height="42.231" fill="none"/></clipPath><clipPath id="b"><rect width="57.874" height="12.24" fill="none"/></clipPath></defs><g transform="translate(7.821 0)"><g clip-path="url(#a)"><path d="M42.427,22.386A20.038,20.038,0,1,1,22.388,2.347,20.039,20.039,0,0,1,42.427,22.386" transform="translate(-1.272 -1.27)" fill="#fff"/><path d="M55.563,15.265c.107-.057.107-.219.273-.219a.21.21,0,0,1,.05-.165c.159,0,.05-.109.159-.163,0-.112.055-.218-.05-.276-.16-.054-.272.111-.433.163-.158.167-.266.383-.431.6a.3.3,0,0,0,.109.218c.105-.054.213-.109.322-.161" transform="translate(-29.842 -7.812)" fill="#00593f"/><path d="M62.725,37.063l-.052-.056a.235.235,0,0,0-.112-.381c-.267.217-.1.6-.158.876a1.146,1.146,0,0,1,.217.436c.053.326-.163.6,0,.928,0,.054.053.054.105.054.056-.054.218-.054.161-.162.381-.438.106-1.1-.212-1.478,0-.052-.053-.161.052-.217" transform="translate(-33.777 -19.825)" fill="#00593f"/><path d="M59.536,17.312a1.268,1.268,0,0,0,.589.329c.108.054.108.167.158.222a.275.275,0,0,0,.217-.111c.054-.056-.051-.164.054-.164a.2.2,0,0,0,.324-.058c0-.053,0-.109-.056-.109.111-.162.266-.109.378-.162.053-.275-.217-.493-.053-.714.161.114.106.274.217.386.263.111.322-.165.263-.386,0-.053.058-.053.111-.053.107.109.165.167.264.273,0,.11,0,.276-.1.329,0,.051-.058.109-.11.164h-.107a5.649,5.649,0,0,1-1.185.821,1.8,1.8,0,0,0-.539.056V18.3a.3.3,0,0,1,.165.273c.051.054.108.109.158.163v.109a6.273,6.273,0,0,0,.864.823.928.928,0,0,0,.539,0V19.5c-.109-.109-.322-.332-.166-.493.273.273.755.657,1.081.384-.057-.056-.057-.167-.162-.223H62.33c-.1-.105-.161-.161-.271-.271,0-.056,0-.11.054-.11.161.162.378.11.487.276a1.571,1.571,0,0,0,.484.05c.052,0,.052-.05.052-.106-.159-.275-.43-.383-.644-.6a.2.2,0,0,1,.164-.052c.322.273.64.546.965.817,0,.113-.109.113-.109.167s0,.111.055.111h.105a1.509,1.509,0,0,0,.382-.439.976.976,0,0,1,.108-.383c0-.054,0-.111-.056-.111l.056-.056a1.5,1.5,0,0,1-.108-.489c-.594-.767-1.295-1.425-1.884-2.189a2.512,2.512,0,0,0-1.347-1.529c-.322,0-.7-.165-1.02,0-.266.053-.431.329-.648.493a.3.3,0,0,1-.159.275,2.348,2.348,0,0,0,.375,2.239c.053-.056.109.111.165.053" transform="translate(-31.875 -7.674)" fill="#00593f"/><path d="M59.632,39.245c.272.221.355-.279.431-.491a1.591,1.591,0,0,0-.113-1.312c.057-.218-.046-.439,0-.657-.046-.163-.158-.221-.318-.109,0,.055,0,.109-.056.109a2.492,2.492,0,0,0,.216,1.091,2.031,2.031,0,0,0-.16,1.369" transform="translate(-32.243 -19.821)" fill="#00593f"/><path d="M61.61,27.958a.2.2,0,0,0,.05-.163l-.05-.052c-.055-.164.1-.275-.055-.333V27.3c-.217-.111-.431-.327-.647-.436-.326,0-.483-.273-.7-.492A2.091,2.091,0,0,0,59.4,25.06c0,.056-.053.056-.1.056a.2.2,0,0,1-.058.167c0,.055,0,.109.058.109l-.058.052a3.647,3.647,0,0,1,.7,1.368.554.554,0,0,0,.216.272h.108c.056.053.056.053.107.108.215,0,.324.163.541.163a.521.521,0,0,0,.216.277v.11c.05,0,.107,0,.107.052.048.163,0,.384.106.548l-.058.057c.164.272-.106.822.331.928.05-.056.05-.056.1-.106a3.458,3.458,0,0,1,0-.716c-.155-.163.057-.381-.1-.547" transform="translate(-32.065 -13.565)" fill="#00593f"/><path d="M52.329,45.927a.454.454,0,0,0-.378.11.379.379,0,0,0,.217.437c.059-.111.214-.054.214-.164a.272.272,0,0,0-.053-.382" transform="translate(-28.114 -24.86)" fill="#00593f"/><path d="M53.078,48.786c-.108.108,0,.272-.054.383a.227.227,0,0,0,.269.11c.269-.056.162-.329.1-.493Z" transform="translate(-28.701 -26.407)" fill="#00593f"/><path d="M61.19,37.178l-.051-.056.051-.054c-.051-.11-.051-.272-.264-.218-.167.162-.06.385-.167.545a3.241,3.241,0,0,0,.215.768c0,.109.054.216-.048.272l.048.054c-.048.112,0,.22-.108.326l.06.058-.06.055c.108.219.108.6.431.382v-.163a3.444,3.444,0,0,0,.107-1.04c-.214-.218-.157-.545-.265-.819,0-.053,0-.11.051-.11" transform="translate(-32.888 -19.941)" fill="#00593f"/><path d="M50.6,19.668c.108-.056.162-.164.216-.217a.292.292,0,0,0,.266-.167,1.612,1.612,0,0,1,1.128-.109c.059-.107.167-.054.214-.054a.452.452,0,0,0,.276.106,12.831,12.831,0,0,1,1.345,1.044c.05.162.321.162.321.379.158.056.428.111.428-.162a3.4,3.4,0,0,0-.805-.934c-.162-.051-.266-.215-.433-.271h-.108c-.05,0-.05-.056-.05-.109h-.109a2,2,0,0,0-1.453-.545c0,.109-.16,0-.16.109a2.308,2.308,0,0,0-.861.329H50.7c-.161.107-.378.272-.378.487.054.113.163.113.27.113" transform="translate(-27.241 -10.084)" fill="#00593f"/><path d="M53.484,31.8a3.533,3.533,0,0,0-.54-.329c-.214-.33-.54-.544-.754-.873-.109-.055-.263-.055-.377-.161a.6.6,0,0,0-.43.161V30.7a2.653,2.653,0,0,1,1.126.934c.268.161.759.542.975.161" transform="translate(-27.814 -16.473)" fill="#00593f"/><path d="M49.679,28.37c.052,0,.109,0,.109.052.806-.275,1.292.606,1.829,1.038a.32.32,0,0,1,.273.166h.1a.764.764,0,0,0,.108.106h.108a.639.639,0,0,0,.7.112v-.112c-.058-.051-.111-.106-.166-.162a4.462,4.462,0,0,1-1.934-1.529.274.274,0,0,0-.214-.111c-.484-.217-.915,0-1.4.054-.056.057-.11.113-.166.163,0,.11.11.167.166.223.16-.056.323.109.483,0" transform="translate(-26.54 -15.067)" fill="#00593f"/><path d="M54.512,47.118a.449.449,0,0,0-.432.162c.11.166.11.437.372.326a.3.3,0,0,0,.06-.489" transform="translate(-29.273 -25.504)" fill="#00593f"/><path d="M50.633,32.131c-.267-.273-.646-.222-.968-.273,0,.11-.162,0-.162.11v.111c.272.219.594.219.914.378.056,0,.056.059.056.112a.911.911,0,0,0,.377.054c.1-.054.059-.167.059-.272-.113-.054-.167-.166-.276-.219" transform="translate(-26.795 -17.244)" fill="#00593f"/><path d="M50.61,78.632a.144.144,0,0,0-.061-.061.116.116,0,0,0,.061.061" transform="translate(-27.362 -42.53)" fill="#00593f"/><path d="M24.631,30.933a5.106,5.106,0,0,0-.589-.276c-.377-.054-.647.162-1.022.162a1.44,1.44,0,0,0-.107.113c-.161-.057-.269.05-.379.108,0,.108,0,.272.16.215.219-.215.54-.162.808-.272.27.058.591-.107.863.111.108,0,.267.056.375-.053a.215.215,0,0,0-.05-.165Z" transform="translate(-12.197 -16.589)" fill="#00593f"/><path d="M50.915,80.064l.056-.05c-.039,0-.044.022-.056.05" transform="translate(-27.56 -43.311)" fill="#00593f"/><path d="M54.891,50.1v.272c.06.111.219.111.324.111.059-.055.108-.111.167-.162v-.114a.287.287,0,0,0-.492-.108" transform="translate(-29.712 -27.069)" fill="#00593f"/><path d="M50.1,86.58l.049.051a.047.047,0,0,0-.049-.051" transform="translate(-27.121 -46.865)" fill="#00593f"/><path d="M50.967,86.026l-.052-.052c0,.036.016.046.052.052" transform="translate(-27.56 -46.537)" fill="#00593f"/><path d="M44.819,86.871l.046-.047a.1.1,0,0,0-.046.047" transform="translate(-24.26 -46.997)" fill="#00593f"/><path d="M23.4,34.32c-.158,0-.265-.111-.375-.168-.162,0-.273-.163-.43,0l-.057-.049-.049.049-.055-.049c-.161.106-.375,0-.487.159,0,.058,0,.108.058.108a.176.176,0,0,1,.156.058l.055-.058c.379.114.92.114,1.132.552a.95.95,0,0,0,.322.819c.055,0,.106,0,.106-.057l.056.057c.267-.331-.217-.711-.162-1.1a1.487,1.487,0,0,1-.269-.325" transform="translate(-11.88 -18.447)" fill="#00593f"/><path d="M50.861,79.777c-.037,0-.045.025-.045.055a.052.052,0,0,0,.045-.055" transform="translate(-27.506 -43.182)" fill="#00593f"/><path d="M43.9,27.326a1.265,1.265,0,0,0-.968.327c-.108-.054-.164.057-.215.057-.216.215-.59.381-.59.765.05,0,.106,0,.106.052a12.108,12.108,0,0,0,1.077-.652.77.77,0,0,0,.319-.109h1.128c.115-.113,0-.275.058-.44a1.077,1.077,0,0,0-.915,0" transform="translate(-22.801 -14.735)" fill="#00593f"/><path d="M31.815,23.99a.274.274,0,0,1,.214-.114c.161-.162.375-.217.537-.379v-.113c0-.106-.162,0-.162-.106l-.054.052-.055-.052c-.05,0-.105,0-.105.052-.161-.052-.161.054-.218.11h-.1c-.164.166-.381.22-.54.384-.219.052-.431,0-.591.111l-.053-.058a.187.187,0,0,0-.161.058c-.324-.166-.647-.22-.968-.383-.056,0-.161-.054-.216.055.16.384.592.435.916.656l.053-.054a1.2,1.2,0,0,0,1.343-.057c0-.111.164-.056.164-.161" transform="translate(-15.881 -12.6)" fill="#00593f"/><path d="M38.189,24.182l.05.05a.794.794,0,0,0,.866-.435,2.356,2.356,0,0,0-1.508,0,.186.186,0,0,1-.158-.055l-.057.055c-.054,0-.107,0-.107-.055-.16.163-.376,0-.541-.111l-.05.057-.057-.057-.049.057-.059-.057c-.051,0-.1,0-.1.057a.976.976,0,0,0-.917.327c-.213,0-.322.271-.431.438-.211.217-.428.383-.642.6h-.111a.26.26,0,0,0-.054.439.658.658,0,0,0,.322-.055c.218-.328.543-.494.7-.819a3.1,3.1,0,0,1,2.849-.387Z" transform="translate(-18.492 -12.792)" fill="#00593f"/><path d="M38.526,31.377c0,.058-.054.058-.109.058s-.106-.058-.161-.058c-.053.058-.053.221-.161.166-.05.218-.271.494,0,.653.054,0,.108,0,.108-.049l.053.049c.107-.106.27-.106.38-.272.048-.217.156-.437-.11-.547" transform="translate(-20.549 -16.984)" fill="#00593f"/><path d="M27.415,25.744a.532.532,0,0,1-.591-.215c-.163,0-.267-.056-.434.055-.046.272.167.379.385.489a.713.713,0,0,1,.75.276c.051-.057.107.108.16.052a.3.3,0,0,0,.27.164c.054.056.1.109.162.162.215,0,.482.163.647-.053v-.109a.493.493,0,0,0-.38-.164,9.907,9.907,0,0,1-.968-.657" transform="translate(-14.281 -13.811)" fill="#00593f"/><path d="M25.193,29.384c.268-.169.107-.494-.053-.657-.212-.056-.43-.222-.643-.222a1.586,1.586,0,0,0-1.08.332h-.11a1.255,1.255,0,0,1-.108.107h-.107c-.049.165-.212.272-.049.441.537,0,.966-.605,1.559-.387a1.4,1.4,0,0,0,.647.441,1.1,1.1,0,0,0,.107.927v.112c.106.111.267.326.43.218-.056-.494-.056-1.149-.593-1.311" transform="translate(-12.435 -15.424)" fill="#00593f"/><path d="M51.992,61.857c.108.111.267.111.431.166,0-.054.049-.054.109-.054v-.111a16.092,16.092,0,0,1-1.671-.928c-.054.056-.105-.111-.163-.057-.374-.274-.646-.655-1.074-.764a.954.954,0,0,0,.053.383,4.162,4.162,0,0,0,2.314,1.366" transform="translate(-26.862 -32.536)" fill="#00593f"/><path d="M21.609,65.287l.05-.053a.049.049,0,0,0-.05.053" transform="translate(-11.697 -35.31)" fill="#00593f"/><path d="M84.537,53.2a.058.058,0,0,0-.03.035.154.154,0,0,1,.035-.025.106.106,0,0,0-.006-.011" transform="translate(-45.743 -28.795)" fill="#00593f"/><path d="M75.783,60.949l.048.049c0-.031-.021-.044-.048-.049" transform="translate(-41.021 -32.991)" fill="#00593f"/><path d="M37.437,64.826a.566.566,0,0,0,.428.492c.161-.055.106-.111.106-.164-.106-.165-.322-.491-.534-.328" transform="translate(-20.264 -35.065)" fill="#00593f"/><path d="M39.143,65.083c-.106-.109-.216-.217-.324-.329-.054,0-.106,0-.106.057-.055.272.215.438.431.546.108.055.108-.108.156-.164.165.056.212.272.434.272.053,0,.053-.054.107-.054v-.163c-.215-.166-.377-.438-.648-.438,0,.112.058.217-.05.272" transform="translate(-20.951 -35.051)" fill="#00593f"/><path d="M69.39,51.659a.456.456,0,0,0-.039.046c.027-.006.034-.022.039-.046" transform="translate(-37.539 -27.962)" fill="#00593f"/><path d="M71.25,62.554,71.2,62.5c.007.03.02.054.05.054" transform="translate(-38.54 -33.831)" fill="#00593f"/><path d="M41.986,54.354c.155.163.317.163.48.272a.3.3,0,0,0,.1-.22c-.163-.108-.213-.325-.43-.378a4.309,4.309,0,0,0-2.255-1.808c-.11-.162-.323-.109-.488-.218,0,.11-.158,0-.108.11.059.056.059.164.165.22.05-.056.108.112.156.056.058.056.112.107.164.164a2.327,2.327,0,0,1,.97.491c.43.437.808.872,1.241,1.313" transform="translate(-21.262 -28.148)" fill="#00593f"/><path d="M74.659,64.339l-.057-.052a.051.051,0,0,0,.057.052" transform="translate(-40.381 -34.798)" fill="#00593f"/><path d="M72.492,62.852c.006.03.013.054.051.054,0-.031-.013-.054-.051-.054" transform="translate(-39.239 -34.021)" fill="#00593f"/><path d="M73.286,63.806a.118.118,0,0,0-.069.017.133.133,0,0,0-.011.066v.029l.051.053a.2.2,0,0,0,.053-.162.106.106,0,0,0-.024,0" transform="translate(-39.626 -34.537)" fill="#00593f"/><path d="M72.266,63.207a.055.055,0,0,0,.049.057c0-.033-.017-.055-.049-.057" transform="translate(-39.117 -34.213)" fill="#00593f"/><path d="M72.482,61.657l.056.052c-.006-.032-.017-.052-.056-.052" transform="translate(-39.234 -33.374)" fill="#00593f"/><path d="M54.588,37.759c.22.161.167.378.167.6,0,.057-.058.057-.111.057a3.391,3.391,0,0,0,0,1.641,14.713,14.713,0,0,1-.214,2.624c.109.11,0,.274.05.385.108.105.108.274.164.382.542.819,1.612,1.42,1.669,2.46-.162.27-.162.6-.431.82-.056.381-.375.928,0,1.149a3.3,3.3,0,0,0,.165-.768c.046-.11.1-.217.159-.326a1.41,1.41,0,0,0,.481-1.259l-.107-.109V45.3c-.054-.052-.054-.166-.157-.217v-.111a1,1,0,0,1-.111-.11v-.107c-.056,0-.056,0-.106-.054-.38-.55-.8-.934-1.186-1.423a4.381,4.381,0,0,1,0-2.354c.057-.164-.053-.383.057-.545.052-.656-.057-1.26-.057-1.915a.824.824,0,0,0,.109-.709c-.052-.056-.052-.056-.109-.112-.053-.217-.265-.546-.481-.546a7.381,7.381,0,0,0-.591.82c-.383.275-.539.658-.866.932-.212.218-.428.326-.642.549.161.377.594-.112.862-.167,0-.056,0-.11.048-.11.325-.108.434-.38.647-.6v-.107c0-.057.059-.057.109-.057v-.108c.161-.159.273-.385.483-.49" transform="translate(-28.385 -20.082)" fill="#00593f"/><path d="M72.022,63.449l.053.052c-.005-.032-.015-.052-.053-.052" transform="translate(-38.985 -34.344)" fill="#00593f"/><path d="M71.73,63.982l-.051-.051a.049.049,0,0,0,.051.051" transform="translate(-38.799 -34.605)" fill="#00593f"/><path d="M73.014,64.456V64.4h-.051Z" transform="translate(-39.494 -34.859)" fill="#00593f"/><path d="M25.217,58.2a.241.241,0,0,0,.056.437c.16,0,.16-.164.16-.275-.055-.052-.111-.162-.216-.162" transform="translate(-13.588 -31.505)" fill="#00593f"/><path d="M24.092,58.674c-.158.111,0,.278,0,.381h.216c.058-.052.058-.16.058-.271-.058-.111-.164-.111-.273-.111" transform="translate(-13.003 -31.76)" fill="#00593f"/><path d="M26.056,58.117a.757.757,0,0,0,.049.326c.061,0,.107,0,.107.055l.059-.055c.051,0,.051-.054.108-.054,0-.163-.108-.494-.323-.272" transform="translate(-14.104 -31.418)" fill="#00593f"/><path d="M52.183,54.044h.268c0-.162.054-.272-.055-.433a.27.27,0,0,0-.431.161.42.42,0,0,0,.109.272Z" transform="translate(-28.129 -28.989)" fill="#00593f"/><path d="M22.11,48.551l-.051.052c-.023,0-.04,0-.054,0h0a.669.669,0,0,0-.057.328c.162.111.268.164.429,0,.057-.217-.1-.328-.267-.38" transform="translate(-11.88 -26.28)" fill="#00593f"/><path d="M27.151,57.943c-.114.112-.059.222-.059.328,0,.056.059.056.108.056a.2.2,0,0,0,.162-.056c0-.054,0-.106.053-.106,0-.165-.111-.274-.265-.222" transform="translate(-14.658 -31.357)" fill="#00593f"/><path d="M50.014,52.314c.052,0,.052-.056.109-.056a.364.364,0,0,0-.163-.494.323.323,0,0,0-.268.494.652.652,0,0,0,.322.056" transform="translate(-26.875 -28.019)" fill="#00593f"/><path d="M31.572,58.071a.748.748,0,0,0,.106.326l.053-.054.053.054c.161-.11.053-.272.053-.439-.106,0-.216,0-.266.112" transform="translate(-17.09 -31.373)" fill="#00593f"/><path d="M28.421,57.826c-.161-.056-.216.052-.267.165s.106.162.106.272a.191.191,0,0,0,.161-.056c0-.054,0-.106.056-.106,0-.055,0-.109-.056-.109l.056-.055c-.056,0-.056-.058-.056-.11" transform="translate(-15.233 -31.292)" fill="#00593f"/><path d="M33.945,58.2a.4.4,0,0,0-.27.11c0,.106,0,.217.108.271h.106c.056,0,.056-.108.162-.108,0-.111,0-.218-.106-.272" transform="translate(-18.228 -31.505)" fill="#00593f"/><path d="M35.239,58.321c-.109.108-.052.218-.052.327a.189.189,0,0,0,.161.056c.159,0,.159-.165.159-.275-.055-.108-.159-.108-.268-.108" transform="translate(-19.038 -31.568)" fill="#00593f"/><path d="M32.777,58.073c-.11.109-.056.217-.056.328,0,.054.056.054.106.054a.207.207,0,0,0,.166-.054c0-.163,0-.385-.216-.328" transform="translate(-17.704 -31.429)" fill="#00593f"/><path d="M36.476,64.575c-.054,0-.109,0-.109-.054-.27.219.055.491.158.71h.216a1.034,1.034,0,0,0-.265-.545Z" transform="translate(-19.629 -34.924)" fill="#00593f"/><path d="M29.555,57.844h-.106c-.11.052-.11.165-.11.274.054.053.056.133.16.106.217-.054.056-.162.16-.216-.1,0,0-.165-.1-.165" transform="translate(-15.881 -31.31)" fill="#00593f"/><path d="M30.561,57.834a.266.266,0,0,0,.051.381.21.21,0,0,0,.165-.054c0-.162,0-.383-.216-.327" transform="translate(-16.511 -31.3)" fill="#00593f"/><path d="M21.116,0A21.115,21.115,0,1,0,42.232,21.115,21.116,21.116,0,0,0,21.116,0m-.721,39.713.055.054h-.108Zm-.1.054v-.111l.051.057Zm.214,0c.054,0,.109,0,.109.053.046-.015.117.028.161-.053,0-.329-.484-.329-.647-.546-.108,0-.055.16-.164.16l.109.109c0,.056-.053.056-.109.056l-.48-.493c-.161-.217-.217-.489-.378-.707,0-.328-.158-.655-.158-1.039.1-.325.1-.656.214-.986l.1-.108c-.055-.052.106-.109.056-.165a.3.3,0,0,0,.161-.271,9.234,9.234,0,0,1,.808-.769h.1a.262.262,0,0,1,.38-.052c0,.161.1.271,0,.439a3.171,3.171,0,0,0-.913.818v.108c-.165.167-.165.384-.273.549,0,.054,0,.112.054.112-.159.109.055.325-.105.434l.051.054-.051.055c.051.108.051.274.21.274,0-.056.055-.056.114-.056a.188.188,0,0,0-.059-.162l.059-.056a1.518,1.518,0,0,1,.374-1.255c.056,0,.056.052.056.108-.163.111-.109.328-.271.493a2.509,2.509,0,0,0,.108,1.255c.055.055.055.165.163.222a.2.2,0,0,1-.056.165c-.163-.112-.163-.387-.322-.494H19.8l-.106.107a4.105,4.105,0,0,0,.485.823c.053,0,.109-.111.212-.054,0-.057.055-.167-.053-.223,0-.052.053-.052.108-.052.109.218.375.218.539.382a.713.713,0,0,1,.32.109c.433-.056.92.112,1.238-.216h.11a1.954,1.954,0,0,0,.7-2.081v-.059L23.3,36.7a.126.126,0,0,1,.007-.054l-.061-.055c0-.054.054-.054.054-.109l.053.055v.054c0,.055.055.055.055.108l.053.051h.158a.2.2,0,0,0-.051-.325v-.111c-.053-.108-.16-.272-.322-.217-.056,0-.056.057-.056.109s.056.108.056.164v.111l-.056-.056c-.106-.111-.159-.218-.268-.328l.056-.056c.078,0,.148-.028.208-.005a.689.689,0,0,1,0-.211c-.159-.222-.428-.277-.59-.491a.2.2,0,0,0-.055-.166l.055-.057-.055-.052c.27-.383.7.161.971.329-.107.055-.107.161-.162.216a5.024,5.024,0,0,1,.482.659c0,.108,0,.219.109.274a3.91,3.91,0,0,1,0,1.582,1.548,1.548,0,0,0-.212.44,2.32,2.32,0,0,1-2.426,1.15c-.056,0-.1,0-.1.054-.059.162.048.216.158.272a1.049,1.049,0,0,1-.8-.165c-.054,0-.054-.055-.109-.055Zm-.323-.169h-.055v.058l-.055-.058h.055v-.052ZM18.675,28.062a.749.749,0,0,0,.108.822v.11c.165.165.268.384.428.548a.6.6,0,0,0,.217.491c0,.274.055.657-.323.657L19,30.8a4.484,4.484,0,0,1-1.452.056,3.056,3.056,0,0,1-.97-.6c-.211-.055-.484-.275-.753-.111-.053,0-.106,0-.106-.054l-.056.054c-.214-.11-.372.056-.589,0a3.186,3.186,0,0,1-.918-.545c-.377-.546-.7-1.147-1.128-1.7-.054,0-.161.054-.212-.054l-.056.054a.822.822,0,0,0,.215.492V28.5c0,.109.161,0,.161.109a3.864,3.864,0,0,0,1.132,1.642c0,.054,0,.108-.057.108a.564.564,0,0,1-.591,0A10.79,10.79,0,0,1,12.434,28.5c-.1.057-.1-.108-.159-.166-.59-.274-1.239-.543-1.83-.82-.378-.272-.216-.655.163-.817h.156a8.842,8.842,0,0,1,2.049-.549l.052.056a.189.189,0,0,0,.161-.056c.432.056.86-.11,1.291.056a10.656,10.656,0,0,1,2.317.437,6.821,6.821,0,0,1,1.714,1.038c.216,0,.216-.219.216-.386-.429-.762-.858-1.745-1.667-2.127l-.1-.113c-.218,0-.325-.162-.541-.162-.052,0-.052-.054-.052-.11a.4.4,0,0,1-.267-.107l-.055.055c0-.108-.161,0-.161-.108a17.588,17.588,0,0,0-2.313-.5c-.16-.108-.377,0-.589-.055-.166-.109-.321-.162-.38-.328v-.11l-.1-.108v-.109c-.111-.111-.163-.218-.329-.162-.049.433-.1.816-.48,1.039h-.107c0,.051,0,.108-.051.108h-.106l-.111.109c-.273,0-.487.272-.7.383h-.11c-.157.162-.427.328-.537.546a9.669,9.669,0,0,0-.16,1.146,7.289,7.289,0,0,1,.109,1.533c-.052.164-.109.383-.161.546a.563.563,0,0,1-.484.275c-.111-.165-.324-.275-.377-.491-.056,0-.11,0-.11-.056a2.316,2.316,0,0,1-.323-1.314,2.279,2.279,0,0,1-.538-1.146,2.937,2.937,0,0,1,.268-.764v-.223a18.734,18.734,0,0,1,1.187-1.69c.05.108.162.162.213.216.107,0,.216,0,.272-.108,0-.108.052-.221-.056-.329-.108,0-.216.052-.267-.053a4.322,4.322,0,0,0,.644-.711h.052a5.72,5.72,0,0,1,.59-.495,5.006,5.006,0,0,1,.917.056c.216.11.27.329.426.439.108.052.167-.11.275-.057.372-.326.806-.546,1.183-.82.11,0,.215-.11.319-.055.217-.161.54-.106.755-.271a7.53,7.53,0,0,1,2.205.216.648.648,0,0,0,.7-.051h.107c.268-.386.7-.165,1.019,0,.059,0,.059.051.059.106a2.563,2.563,0,0,1,.914.275,9.742,9.742,0,0,1,1.022,1.094h.108a1.21,1.21,0,0,0,.429.275,8.667,8.667,0,0,1,1.236,1.584c.16.11.27.328.485.273v-.109l-.16-.165c-.11-.164-.166-.383-.325-.494-.054-.219-.264-.438-.213-.708.053-.108.159-.056.268-.056a.84.84,0,0,0,.483.165l.11.112a2.051,2.051,0,0,1,1.938.982,1.411,1.411,0,0,0,.047.655c.325.274.274.658.385,1.037a1.023,1.023,0,0,1-.654.6c-.047-.108-.212-.108-.264-.217A1.246,1.246,0,0,1,24,26.369h-.106l-.161-.163a2.108,2.108,0,0,1-.543-.383c-.212,0-.375-.22-.59-.167a1.994,1.994,0,0,0-.483-.217v.217c.538.493,1.237.6,1.776,1.1H24c.113.162.322.162.377.383h.107c.107.109.269.22.322.38h.111c.107.166.322.166.433.332h.105c-.105-.166-.056-.332-.165-.492.165-.163.214-.384.431-.494.107-.162.057-.327.161-.491a2.057,2.057,0,0,0-.532-1.255l.049-.059a1.44,1.44,0,0,0-.645-1.367h-.1a2.049,2.049,0,0,0-.863-.325c-.052,0-.052-.056-.052-.108.052-.056.052-.221.161-.169-.161-.49-.057-1.039-.377-1.42a1.15,1.15,0,0,0-.378-.712,1.865,1.865,0,0,1-.648-.324h-.16c0-.114-.16,0-.16-.114h-.161c0-.108-.165,0-.165-.108a.6.6,0,0,1-.428-.164c-.213,0-.429-.163-.643-.163l-.108-.109c-.053.051-.108-.111-.161-.055a.3.3,0,0,0-.27-.166c-.053,0-.053-.057-.053-.108h-.11a.291.291,0,0,0-.27-.166c-.16-.161-.319-.273-.48-.438a5.965,5.965,0,0,0-.433-.6v-.107l-.107-.11v-.11c.053-.106.165-.058.215-.058.164.168.485.278.59.494H19.7a4.76,4.76,0,0,0,1.344.985l.054-.055c.05.111.157.111.213.166a11.5,11.5,0,0,0,1.348.163c.213-.112.535,0,.7-.217V19.48c0-.11-.164,0-.164-.11a5.144,5.144,0,0,1-1.289.11,2.994,2.994,0,0,1-1.561-.874c0-.056.053-.056.108-.056a4.534,4.534,0,0,0,1.669.546,1.321,1.321,0,0,0,.914-.162c0-.058,0-.108.053-.108.054-.111-.053-.164-.053-.22-.216-.056-.431-.11-.588.056l-.057-.056-.056.056a.194.194,0,0,1-.16-.056,1.615,1.615,0,0,1-1.4-.219c.05-.111.156-.053.267-.053a3.053,3.053,0,0,0,2.636-.985c.322.056.754.329,1.018.056v-.108H24.54a1.64,1.64,0,0,0-.485-.167c-.108-.11-.268-.164-.377-.273.16-.219.435-.379.59-.6h.109c.163-.106.107-.216.107-.38-.107-.058-.161.109-.268.05a1.793,1.793,0,0,1-.805.5,1.57,1.57,0,0,1-.325-.273.3.3,0,0,1-.268-.164,1.085,1.085,0,0,1-.43-.221,1.076,1.076,0,0,1-.376-.106l-.058.049c-.59-.327-1.178,0-1.77.11a3.33,3.33,0,0,0-1.077.877c-.054,0-.108,0-.108-.056a1.562,1.562,0,0,1,.325-.875,1.768,1.768,0,0,0,.539-.056,3.9,3.9,0,0,1,.862-.818c.481-.11.911,0,1.394-.11l.11-.112c-.161-.436-.759-.272-1.083-.106L21.1,14.5a5.128,5.128,0,0,0-1.723.875c-.267-.215,0-.544.165-.713,0-.106,0-.215-.109-.272a2.027,2.027,0,0,0-.915,1.094l.051.055c0,.114.059.219-.051.273.11.108,0,.276.051.383-.1.164-.1.385-.264.494V16.8c-.166.163-.323.382-.487.547-.591.056-1.129.329-1.722.056l-.052.052c-.053-.107-.216,0-.269-.107l-.053.056-.111-.108a7.964,7.964,0,0,0,1.89-1.639.885.885,0,0,0-.058-.386c-.216,0-.375-.107-.483.108v.109c0,.055-.058.055-.108.055v.114c-.433.542-.808,1.2-1.508,1.308l-.051-.054c-.106,0-.166.108-.272.054-.053.108-.16.054-.268.164-.053,0-.106,0-.106-.056-.214.165-.375-.054-.591,0a5.6,5.6,0,0,1-.755-1.2l.056-.058a.325.325,0,0,0-.43-.054,2.253,2.253,0,0,0,.482,1.421c0,.055,0,.112-.052.112-.537,0-.756-.658-.972-1.042a.2.2,0,0,1-.16-.055c-.111.111-.267.164-.218.328a2.983,2.983,0,0,0,.7.928c-.057.11-.162.11-.212.166l-.059-.056-.055.056c-.16-.11-.427-.326-.589-.11a10.348,10.348,0,0,1-.807-.768.282.282,0,0,1-.267-.159,1.958,1.958,0,0,1-.59-.164l-.057.056-.052-.056c-.268-.058-.538.272-.755.056a3.2,3.2,0,0,1,.27-1.423,4.492,4.492,0,0,0,.485-.549c-.161-.274-.217-.6-.377-.82,0-.111.056-.218-.053-.272l.053-.057L9.586,13.3c.109-.164.053-.329.161-.493L9.7,12.755a4.7,4.7,0,0,1,.641-1.64c0-.055.057-.055.11-.055v-.109l.212-.221c.057-.27.325-.38.431-.6a5.106,5.106,0,0,0,.863-.989c0-.106-.107-.217-.107-.327-.808.109-1.291.984-1.777,1.533a1.365,1.365,0,0,0-.7.764l.051.054a24.587,24.587,0,0,0-.375,2.791c-.107,0,0,.161-.107.161l.05.056c0,.273-.321.216-.481.326l-.056-.053c-.32.215-.643-.221-.7-.491.105-.93.325-1.861.38-2.791.108,0,0-.163.108-.163l-.058-.055c.163-.273.217-.6.377-.931.165-.108.165-.326.272-.492a1.59,1.59,0,0,1,.428-.384h.111a3.019,3.019,0,0,1,.644-.489c.052-.108.214-.163.214-.274a4.218,4.218,0,0,0,.7-.655c.106,0,.158-.111.267-.111L11.3,7.5c.27,0,.54-.109.757.109.046.111.213.167.268.274.1-.05.163.054.213.054a4.127,4.127,0,0,1,.645.713c0,.054-.054.163.056.216.16.056.16,0,.324,0a9.049,9.049,0,0,0,.915-1.033,3.285,3.285,0,0,0,.64-.55,11.358,11.358,0,0,0,1.292-.327,2.236,2.236,0,0,1,1.186.274,1.133,1.133,0,0,0,.807-.274l.053.056a3.8,3.8,0,0,1,1.934-.164c.111,0,.219.054.272-.058l.057.058a13.9,13.9,0,0,0,1.447-.222l.057.057a.178.178,0,0,1,.158-.057,2.217,2.217,0,0,0,.593.163,1.539,1.539,0,0,0,.538.222.96.96,0,0,0,1.073.108l.058.053c.212-.107.316-.325.53-.489.492-.332.974-.49,1.455-.822H26.8a2.29,2.29,0,0,1,2.366-.053,5.84,5.84,0,0,0,1.615,1.2,7,7,0,0,1,.64.709c0,.217.215.33.163.549.107.106.052.218.161.325a2.756,2.756,0,0,0,.484,1.314l1.29,1.312a.731.731,0,0,0,.111.327c-.111.057-.058.167-.058.276a.737.737,0,0,1-.536.272c-.271.271-.7.271-.916.6-.159.054-.268.162-.431.109-.27.164-.212.437,0,.655v.107a3.445,3.445,0,0,0,1.239.931c0,.056,0,.111-.057.111-.322-.111-.643-.328-1.019-.437v.109c.268.217.433.491.756.6a2.884,2.884,0,0,1,.533.6c0,.111,0,.274-.159.218-.433-.218-.806-.493-1.239-.71-.055.111.108.168.108.275.158.108.268.328.483.386a2.47,2.47,0,0,1,1.078,1.581c0,.057-.052.057-.11.057-.32-.385-.861-.439-1.075-.933-.052-.109-.161-.109-.218-.164-.1.055-.05.164-.05.278,0,.05.05.05.106.05.053.166.218.274.268.438a7.674,7.674,0,0,1,1.133,1.476c0,.056.051.166-.055.222-.11-.112-.217-.056-.271-.166h-.106a.3.3,0,0,0-.271-.163,6.636,6.636,0,0,1-.644-.6c-.11.052-.053.164-.053.278.268.378.541.926,1.022,1.034.158.218.541.492.379.82a3.427,3.427,0,0,0-.646-.272c-.163-.167-.322-.384-.487-.549a.194.194,0,0,0-.158.054,2.385,2.385,0,0,0,.322.657,5.415,5.415,0,0,1,.8.764.3.3,0,0,0,.164.274v.11c0,.054-.055.054-.107.054a1.236,1.236,0,0,0-.432-.272c-.27-.22-.43-.549-.7-.764a.192.192,0,0,1-.161-.057,5.451,5.451,0,0,0-.158-1.587c0-.052,0-.108.052-.108-.109-.712-.378-1.424-.433-2.129-.109,0,0-.164-.109-.164a4.594,4.594,0,0,0-.211-1.208l.052-.051c-.106-.111-.052-.221-.106-.328-.216-.056-.106.165-.216.273.054.275-.057.6.054.872a7.865,7.865,0,0,0,.268,1.533.207.207,0,0,0-.052.164c.161.109.052.327.161.493l-.056.056c.106.161,0,.378.163.546l-.058.052c.163.165-.05.439.109.6a.212.212,0,0,1-.051.167,5.973,5.973,0,0,1,.051.983c-.051.109-.051.221-.109.276l.058.057c0,.051-.058.051-.108.051a2.706,2.706,0,0,1-.322.822c-.166-.277-.056-.549-.217-.822-.051,0-.106,0-.106.054-.057.168-.057.274-.109.438,0,.054,0,.109.052.109-.16.273,0,.6-.052.878A10.159,10.159,0,0,1,30.726,25l.055.051c-.055.059-.055.166-.164.22a2.56,2.56,0,0,1-.754,1.2h-.111a4.951,4.951,0,0,1-.32-.712A1.687,1.687,0,0,1,29.545,25c-.056-.382.1-.822.05-1.26-.106-.161-.27-.056-.323.109a7.05,7.05,0,0,0-.214,2.132,1.708,1.708,0,0,1,.107.876,2.731,2.731,0,0,1-.218.6c-.215.219-.432.493-.646.713-.107-.057-.161.107-.264.056-.217.327-.705.492-.864.873,0,.054-.053.054-.11.054a4.122,4.122,0,0,1-.533,1.094l-.328.328c-.05-.056-.108.108-.158.053a3.921,3.921,0,0,1-1.183.544l-.107.114c-.431.108-.807.052-1.236.162-.27-.054-.594.056-.861-.054-.056,0-.11,0-.11.054l-.056-.054-.047.054c-.377-.162-.866.056-1.239-.219l-.059.057a.281.281,0,0,0-.267-.166,4.072,4.072,0,0,1-.484-.437c-.375-.547-.647-1.2-1.072-1.749-.161-.217-.217-.491-.375-.709-.058-.056-.216-.056-.165-.17Zm-7.638,2.244a2.943,2.943,0,0,1-.591-.546A.207.207,0,0,1,10.5,29.6a4.543,4.543,0,0,1,.76.656c0,.054,0,.108-.058.108a.2.2,0,0,0-.161-.055m.161.494a.5.5,0,0,1-.7-.275v-.111l.057.057a.921.921,0,0,1,.644.328m-.644-1.97c0-.056,0-.107.055-.107s.049.051.049.107Zm.644.82-.053-.054-.109-.11-.272-.274c0-.054.057-.054.107-.054.111.11.273.163.326.328,0,.055,0,.11-.053.11h.111l-.058.054H11.3l-.049.052Zm-.483-.546c0-.054,0-.111.05-.111s.057.057.057.111Zm.43-.221h.111l-.058.056Zm.111.167c0-.057.049-.057.049-.111l.058.053c0,.057,0,.111-.058.111Zm.264,1.422c.054-.166-.14-.384.054-.384.055,0,.055-.055.111-.055.105.055.105.22.105.328a.411.411,0,0,0-.105.273c-.111.055-.165.167-.217.222-.106-.056,0-.167-.106-.222-.058-.108.106-.053.158-.161m-1.611-.494-.054-.054-.056-.05-.051-.058h.108l-.056.058h.11l-.054.05h.107a.554.554,0,0,1,.217.274l-.054.055a.117.117,0,0,1-.109-.055c-.054-.056-.054-.11-.107-.166a.327.327,0,0,1,0-.056Zm.216-3.828a.481.481,0,0,1,.105-.384c.267.058.379.328.535.552-.05.051-.156.051-.268.105-.161-.054-.318-.105-.372-.273m.64-.764A.891.891,0,0,1,10.983,25c.273-.058.431.217.538.382v.11c.109.055.109.161.165.218v.11c-.111.056-.111.161-.165.216-.107,0-.158.11-.264.11l-.111-.11c-.323,0-.273-.326-.38-.544l.057-.056Zm1.83.054a.2.2,0,0,1-.052.164l.052.053-.1.109c-.114.114-.163.114-.218.114l-.167-.166a.294.294,0,0,0-.156-.274L12,25.386a.458.458,0,0,1,.061-.655c.317-.055.431.325.533.6l-.052.056Zm.539.111c-.053-.111-.053-.22-.108-.275,0-.054,0-.106.055-.106a.423.423,0,0,1,.213-.6c.163.056.217.217.323.38.055.275.159.657-.106.878l-.054-.058-.055.058c-.052,0-.109-.058-.16-.11V25.6c-.056,0-.109,0-.109-.053m1.132-.711a.427.427,0,0,1,.482.217v.113a.437.437,0,0,1,.108.6c-.373.219-.589-.216-.7-.49l.055-.054c-.055-.166-.055-.275.057-.382m1.126.33a2.121,2.121,0,0,1,.378.217c.108.164.053.328.164.494-.055.16-.164.16-.328.214l-.051-.054c-.108-.274-.432-.6-.162-.871m.861.381a.2.2,0,0,1,.161-.055.709.709,0,0,1,.433.711c-.162.112-.109-.056-.213,0a4.428,4.428,0,0,1-.382-.656M9.531,20.409c.325-.327.594-.656.863-.985-.057-.164.1-.273.161-.382v-.109a1.1,1.1,0,0,1,.318-.219,6.858,6.858,0,0,1,2.262-.877c0-.109.161,0,.161-.109a7.541,7.541,0,0,1,1.561-.052,18.729,18.729,0,0,0,2.367.331c.273.106.484.216.755.325a2.346,2.346,0,0,0,.536.492c.11.163.323.217.377.435.108.109.272.164.376.274,0,.056,0,.111.056.111.32.108.59.328.913.437a4.247,4.247,0,0,0,.753.6,5.012,5.012,0,0,1,1.719.438.8.8,0,0,1,.378.711c.106,0,0,.166.106.166l-.052.052c.109.274.431.6.163.933a1.2,1.2,0,0,1-.858.053,1.613,1.613,0,0,0-.866-.163,5.289,5.289,0,0,0-.589-.329,9.882,9.882,0,0,0-.753-.767v-.108a.557.557,0,0,0-.216-.274c.053-.055-.107-.11-.056-.161a.315.315,0,0,1-.161-.277c-.106-.109-.214-.164-.214-.324-.051-.056-.216-.056-.16-.168-.592-.329-1.294-.217-1.883-.489a3.843,3.843,0,0,1-.649-.655h-.212c0,.051,0,.105-.05.105.05.056.05.167.1.272s.217.112.269.278c.166.161.431.215.593.384a2.875,2.875,0,0,1,1.505.488c-.158.109-.373,0-.592.055,0-.11-.165,0-.165-.11a.448.448,0,0,1-.372-.108c-.054,0-.109,0-.109.054l-.054-.054a1.093,1.093,0,0,0-.43.218c-.161,0-.211.109-.377.109-.11-.055-.052-.164-.052-.219-.432-.433-.7-.983-1.185-1.422h-.109a10.434,10.434,0,0,0-1.019-.708,1.775,1.775,0,0,1-.755-.112,13.53,13.53,0,0,0-1.99.326l-.051-.05a3.047,3.047,0,0,0-.914.544c0,.165-.166.221-.166.383-.484.436-1.07,1.2-.64,1.861l-.486.489c-.378.221-.648.66-1.023.88-.106,0,0-.167-.106-.167a5.63,5.63,0,0,1,1.021-2.405m0-3.281c.108-.056.217-.218.378-.164.216.273.053.6-.11.874l-.268.275a1.064,1.064,0,0,1,0-.985m1.292.383c0-.056.05-.056.109-.056a.582.582,0,0,1,.214.274v.109c-.056.055-.056.111-.162.111h-.111a1.316,1.316,0,0,1-.05-.438m1.453,2.351c-.056.111-.056.22-.108.272A12.847,12.847,0,0,1,12,21.5c-.049-.109-.211-.053-.266-.164a2.184,2.184,0,0,0,.266-1.2l-.156-.326c-.11,0-.27.054-.377-.055.322-.329.807-.162,1.18-.329.11-.105.273,0,.378-.105.055.105.161.051.217.051.215-.109.484,0,.7-.051,0,.105.156,0,.156.105-.051.11-.156.11-.215.167a1.625,1.625,0,0,0-1.393.544c-.114-.052-.059-.161-.059-.272Zm1.879.22c.055-.057.065-.144.163-.109a.305.305,0,0,1,.215.384c-.159.105-.378.325-.588.159a1.1,1.1,0,0,0,.209-.435m-2.686.873c0,.055,0,.112-.055.112-.216.054-.324-.166-.157-.33.049,0,.065.016.106.054.051.055.051.11.106.164m8.767-4.429c.106-.05.106-.05.159-.164.111,0,.219-.109.329-.052a.517.517,0,0,1,.155.383c-.1,0,0,.163-.1.163a1.353,1.353,0,0,1-.216.6c-.109.11-.217,0-.323-.052v-.108c-.322-.167-.108-.494,0-.768m2.209.985a2.168,2.168,0,0,0,.157-.985c0-.05.056-.05.106-.05.162.161.432.267.54.488a2.214,2.214,0,0,1-.757.657.069.069,0,0,1-.047-.11M33.951,15.6l-.055.057c.163.49.055.98.213,1.472v1.039c.169.273-.05.6.111.875a5.613,5.613,0,0,0,0,1.367c-.161.165.057.382-.111.546l.059.055-.059.057.059.054c-.163.217.053.547-.109.767l.05.054c-.158.329,0,.709-.158,1.041a.2.2,0,0,0,.054.161,3.229,3.229,0,0,0-.214,1.04,16.373,16.373,0,0,0-.486,1.7c-.107.054-.107.16-.161.214a1.717,1.717,0,0,1-.32.714c.05.271-.213.383-.272.654,0,.053-.051.053-.108.053v.113c0,.053-.051.053-.107.053-.05.111-.05.22-.106.274-.161.106-.218.328-.376.438.057.056-.108.108-.058.165a4.493,4.493,0,0,1-.694.763c-.271.382-.647.711-.917,1.094a.271.271,0,0,1-.215.111,8.342,8.342,0,0,1-2.309,1.8l-.165.167h-.107c-.158.22-.431.272-.646.437-.374.11-.7.385-1.132.492a1.885,1.885,0,0,1-.75.328c0,.107-.165,0-.165.107-.212,0-.373.166-.583.166-.113-.11-.218-.216-.059-.329h.1c.057-.053.164-.053.218-.163a10.24,10.24,0,0,0,1.185-.438c.049-.105.158-.105.216-.163h.1a1.084,1.084,0,0,1,.429-.217A19.5,19.5,0,0,0,31.1,28.884a9.8,9.8,0,0,0,2.041-3.662c.105,0,0-.166.105-.166.166-.49.221-.984.383-1.472,0-.057,0-.112-.058-.112.111-.165.058-.385.164-.548,0-.053,0-.11-.052-.11a25.627,25.627,0,0,0-.436-9.076c.114-.111.221-.22.325-.055a3.792,3.792,0,0,0,.164.709c0,.058,0,.111-.052.111.212.331.052.767.267,1.1m.054-.985a1.233,1.233,0,0,1,.322-.271h.109a.121.121,0,0,1,.214-.113l.055-.052c.161.166.378-.056.537.109-.053,0-.053.057-.053.107h.11a1.283,1.283,0,0,1,.965.384c0,.057.053.163-.053.218l-.052-.055a.2.2,0,0,0-.165.055.218.218,0,0,0,.051.168l-.051.049c-.107.058-.107-.106-.16-.16A.89.89,0,0,0,34.867,15h-.107a2.215,2.215,0,0,0-.379.547,1.112,1.112,0,0,0,.539,1.094,1.059,1.059,0,0,0,.808-.053c.053,0,.107,0,.107.053l-.107.106a.767.767,0,0,0-.323.112v.109a1.336,1.336,0,0,0,.86-.438V16.42c.108-.058.108-.167.161-.222a7.337,7.337,0,0,1,.216,1.1l-.053.053a2.27,2.27,0,0,1,.053,1.2c-.105-.163-.162-.326-.377-.326a.282.282,0,0,1-.106.217,1.04,1.04,0,0,0-1.184-.054,1.13,1.13,0,0,0-.269,1.148,1.651,1.651,0,0,0,.594.491h.481l.323-.163c.108-.054.055-.217.214-.217a.831.831,0,0,0,0-.931c0-.053,0-.109.056-.109.106.056.106.22.215.328l-.052.055c.214.331-.111.6-.219.874a1.66,1.66,0,0,1-.7.327V20.3c.483.162.915-.276,1.073-.711.164.105-.053.328.11.434l-.054.057a.206.206,0,0,0,.054.163c-.11.822,0,1.586-.163,2.405l-.053-.053c-.052,0-.162-.055-.215.053-.214-.272-.327-.6-.645-.709a1.182,1.182,0,0,0-.968.219.939.939,0,0,0,1.286,1.366c.058,0,.058.057.058.108a1.009,1.009,0,0,1-1.019.219.2.2,0,0,0-.056.166,1.266,1.266,0,0,0,1.508-.655l.052.054a6.972,6.972,0,0,1-.271,1.476l.056.053a7.56,7.56,0,0,1-.378,1.2v.219c-.16.165-.107.383-.267.545v.165c-.107.056-.107.165-.161.217-.054-.1-.161-.161-.267-.052l-.057-.052c0-.056,0-.112.057-.112a1.884,1.884,0,0,0-.38-.71H34.81c-.051,0-.051-.051-.051-.111-.267-.108-.481,0-.754,0a.291.291,0,0,1-.268.165.97.97,0,0,0,.109,1.478c.263.161.591.054.859.161l-.055-.056.055-.051a.437.437,0,0,1,.057,0l.1-.111c.052,0,.052.054.052.108-.052,0-.052.051-.109.051s-.051.056-.105.056c-.212.17-.427,0-.646.057-.108-.057-.213-.057-.268-.163a.583.583,0,0,0-.594,0c-.107,0,0-.163-.107-.163-.053,0-.106,0-.106.055-.054-.166-.161-.166-.274-.219a12.074,12.074,0,0,0,.921-1.862V25.6c.106,0,0-.164.106-.164a3.052,3.052,0,0,1,.268-.984l.322-2.133-.05-.052c.159-.383,0-.768.159-1.15.056-1.2-.056-2.351-.056-3.556-.16-.11.056-.327-.1-.436l.05-.056c-.107-.762-.16-1.585-.322-2.349l.054-.058Zm1.022-1.095c0-.053.056-.053.1-.053l.38.379-.055.057a.186.186,0,0,1-.158.058.764.764,0,0,1-.272-.441m.321,2.679v.278a.653.653,0,0,1-.749-.384c0-.168-.163-.276,0-.435L34.54,15.6a.779.779,0,0,1,.971-.492c.054,0,.054.057.054.106a.78.78,0,0,0-.217.986m.163-.493c.109.11.322.11.43.277v.109a.534.534,0,0,0-.214.271c-.055,0-.055-.052-.055-.109-.161-.106-.107-.329-.268-.491,0-.056.053-.056.107-.056m1.613.771-.052.05a22.283,22.283,0,0,1,.212,5.687c0,.109-.054.22.054.274-.156.11.06.328-.108.437l.054.058c-.1.053,0,.161-.1.217.049.218-.057.489,0,.71a17,17,0,0,1-.542,2.3v.163a3.152,3.152,0,0,0-.216.656,15.783,15.783,0,0,1-1.077,2.188c-.265.274-.374.6-.643.875v.11a17.227,17.227,0,0,1-6.884,5.41l-.114.11a2.113,2.113,0,0,0-.586.217c-.1-.051-.217-.051-.271-.159a.951.951,0,0,1,.483-.328.818.818,0,0,1,.488-.222c.43-.326,1.075-.381,1.393-.818h.111l.107-.111h.112a20.3,20.3,0,0,1,1.827-1.255c.425-.385.859-.818,1.289-1.149.27-.329.588-.6.913-.931.273-.381.536-.709.807-1.038a5.112,5.112,0,0,1,.751-1.093c0-.107.167-.22.11-.329.324-.27.378-.655.592-.986v-.161c.107-.059.107-.163.16-.22a7,7,0,0,0,.27-.985c.108,0,0-.165.108-.165a14.2,14.2,0,0,0,.268-1.474c.109,0,0-.166.109-.166a33.2,33.2,0,0,0-.433-10.555l.108-.107h.111c.105.055.105.161.158.218a10.131,10.131,0,0,0,.319,1.7l-.05.057c.109.267.05.542.161.82m.057-1.642a1.227,1.227,0,0,1,1.447-.331,10.534,10.534,0,0,1,.808,2.625c.109.765.218,1.586.322,2.351-.053.216.053.439-.053.655a4.6,4.6,0,0,1-.753-.71c-.054-.164-.27-.273-.217-.436l-.107-.112V18.77l-.1-.109v-.112c-.057-.054-.057-.163-.164-.217s-.107.107-.159.163a.214.214,0,0,0,.052.166c0,.053,0,.109-.052.109a.465.465,0,0,1,.106.381c.11.109.11.273.16.383l.81.983a1.068,1.068,0,0,1,.482.493c-.053.167.053.328-.053.439-.215-.218-.378-.439-.592-.659h-.161v.33c.324.382.539.821.806,1.2-.1.275,0,.6-.16.877a1.734,1.734,0,0,1-.322-.877c-.109,0,0-.162-.109-.162a.641.641,0,0,0-.161-.441v-.16c-.108-.167-.054-.383-.214-.493.054-.276-.11-.436-.11-.709-.055-.057-.055-.169-.159-.224v-.109c-.271-.272-.271-.655-.485-.983v-.167a1.448,1.448,0,0,0-.214-.38,4.575,4.575,0,0,0-.218-.819.2.2,0,0,1,.057-.166,3.68,3.68,0,0,1,.589.712h.107c.107-.168,0-.33.057-.494-.11-.108-.11-.274-.164-.382a6.069,6.069,0,0,0-.916-1.094c0-.106-.108-.161-.156-.271a5.261,5.261,0,0,0-.057-.876c.106-.054.057-.167.057-.272m2.042,10.88c-.055,0-.055.052-.109.052a8.315,8.315,0,0,1-.379-1.035c0-.1-.039-.194.028-.294-.135-.255-.135-.528-.3-.8,0-.05-.05-.162.057-.217.159.166.1.383.268.545,0,.109-.057.219.054.275.032.107,0,.149-.048.174.26.327.265.7.478,1.028,0,.111-.109.164-.054.274M26.581,33.97c.054-.055.162-.055.219-.161a15.045,15.045,0,0,0,2.8-1.753H29.7c.216.216.483.491.426.819a1.6,1.6,0,0,0-.426.385H29.6c-.05.057-.074.039-.106.111-.056.107-.217.107-.275.217h-.106c-.105.222-.325.222-.483.383h-.11c0,.055,0,.109-.05.109-.488.218-.917.438-1.345.659-.217.052-.271-.221-.43-.329.052-.164-.11-.274-.11-.438m6.129-3.937c0,.055,0,.11-.05.11h-.268c0,.056-.055.111-.105.164,0-.054-.056-.054-.108-.054a.194.194,0,0,1-.056.162c-.053,0-.11,0-.11-.054a2.19,2.19,0,0,0-.533.22l-.058-.056a.86.86,0,0,1,.489-.822.793.793,0,0,1,.8.329m-.642-1.039c0-.053,0-.11.053-.11s.056.056.056.11Zm.218-.163-.056-.056v.109l-.052-.053.052-.056.056-.051Zm.05.22v.108l-.05-.054Zm1.832,0v.108l-.059-.054Zm-.059-.492c0-.057.059-.057.111-.057a.2.2,0,0,1-.053.163c-.059,0-.059-.054-.059-.106m.111.928v-.054l.16-.165.056.053a.2.2,0,0,1-.056.165c-.053,0-.1,0-.1.055s-.057.11-.11.162c-.059,0-.059-.052-.059-.106Zm-.216-.218.054-.056.05.056Zm.054-.438-.054-.056.054-.051Zm-.428.22c-.111.054-.078.078-.162.162l-.107.109c-.057,0-.057-.053-.057-.109.11-.108.164-.272.327-.382a1.3,1.3,0,0,1,.32-.495c.054,0,.054.058.054.114a2.2,2.2,0,0,0-.374.6m.32.327.054.056H33.9Zm-.105-.327h.05v-.057l.055.057H33.9V29.1Zm-.109.271-.106.111c-.037,0-.05-.023-.051-.053l-.007-.059a.043.043,0,0,1,.018-.036.042.042,0,0,1,.04-.017h.053c.028.005.052.019.052.053m-.164.22-.053.056-.051.054-.055-.054.055-.056.051-.055v.055Zm-.053-.93c-.051,0-.106.054-.106-.052.106-.057.106-.223.217-.276.053,0,.053.053.053.111-.053.056-.053.165-.165.217m-.158-.328c-.057,0-.057-.051-.057-.107l.11-.114c.055,0,.055.057.055.114Zm0,.382c.052,0,.052.059.052.11l-.11.109v.056l-.107.111V29.1c-.054,0-.054.054-.107.054v.054l-.16.165h-.107l.05-.056v-.053l.164-.164.106-.111V28.94l.105-.11v-.056Zm-.057.6v.109c0,.056-.056.056-.056.109l-.051-.054v.108l-.054-.055v.11l-.053-.056.053-.055.054-.054c0-.056,0-.111.051-.111Zm0-.933h0v.058H33.2c.051,0,.051.056.051.108a1.617,1.617,0,0,1-.375.492c-.05,0-.107.057-.107-.053.164-.165.271-.382.431-.547,0-.058,0-.111.051-.111l.056-.051Zm-.482,2.138c0,.053-.057.053-.057.109-.056-.056-.156-.056-.215-.166.058-.109.159-.054.215-.054s.057.054.057.111m0-2.023c0-.056,0-.114.05-.114s.057.058.057.114Zm.107-.163.054.05a.052.052,0,0,1-.054-.05m0-.014v-.04l.107-.113a.316.316,0,0,0-.107.153m0-.371-.057-.054.057-.055Zm0,.054h-.107v.106l-.057-.056.057-.051.05-.054Zm-.107.655-.113.113h-.1l.05-.059v-.054l.106-.109c0,.057.057.057.057.109m-.163.548v.11l-.05-.056Zm-.109-.765v.056l-.051-.056h.051v-.058l.058.058Zm0,.49c0,.056-.051.11-.108.167-.051,0-.051-.057-.051-.111l.109-.11Zm-.641,1.805c0,.111-.032.22-.115.22-.05,0-.05.053-.105.053l-.107-.106.212-.222c.058,0,.115,0,.115.055m2.582-1.531V29.1H34.6c-.011-.03-.026-.054-.059-.054l.059-.057v.124a.131.131,0,0,1-.031.041H34.6c-.011.03-.026.054-.059.054s-.045-.02-.048-.049v0l.048.052c0-.026.017-.039.028-.054Zm.158-.709h-.11l.059-.056.051-.058Zm.055.381c0-.056,0-.107.054-.107,0,.051.051.051.051.107l-.051.053-.054-.053v.11l-.055-.056Zm.105-.22.056-.052v.106Zm.056-.109.052-.052v.109Zm-.056-1.477c.109.054.217-.054.273.054s0,.165-.056.276c0,.051-.053.051-.108.051-.16-.162-.378-.162-.482-.327.1-.108.268,0,.373-.054m-.43.054-.053-.054a.27.27,0,0,1-.107.219c-.053.162,0,.384-.161.494-.268,0-.322-.276-.428-.494a.937.937,0,0,1,.589-.875.643.643,0,0,1,.7.329,1.8,1.8,0,0,1-.482.216.2.2,0,0,1-.056.165m.594.713.053-.054.056-.057.048.057h-.1v.109l-.053-.055V27.9l-.056-.054Zm.215.163c.053,0,.11,0,.11.051l-.11.112-.057-.057c0-.056,0-.106.057-.106m-.057-.384c0-.056,0-.109.057-.109l.053.053c0,.056-.053.056-.053.113Zm-.048.6v.107l-.056-.051Zm-.056.107v.111l-.053-.058Zm.272-.49H35.4l-.056.055Zm.373-9.023c0,.055,0,.106-.052.106,0,.112-.055.22.052.276-.052.218.214.439.055.657-.107,0-.216-.055-.27.054-.053-.109-.158-.054-.268-.054a.79.79,0,0,1-.27-1.038c.108-.109.165-.274.323-.33.162,0,.431-.165.538.056l-.16.166c0,.053,0,.109.052.109m.055.055c0-.055,0-.111.053-.111.107.056.161-.109.265-.053.058.053.058.164.166.214a.208.208,0,0,1-.052.167c0-.054-.055-.054-.113-.054-.1-.055-.211-.055-.318-.163m-.27,4.375c0,.056.055.164-.053.218l.053.054c-.109.162-.268-.054-.43,0a.822.822,0,0,1-.322-.822.9.9,0,0,1,.537-.549,2.337,2.337,0,0,1,.162.549h.107c.109-.163,0-.328.054-.49,0-.059.055-.059.107-.059a1.136,1.136,0,0,1,.43.44c0,.165.108.329-.058.44-.158-.111-.318-.111-.479-.221-.161.11-.109.273-.109.438M24.216,38.178a.211.211,0,0,1,.052.167c-.052.109-.052.218-.155.272l-.059-.054a.8.8,0,0,1,.161-.385m-.057-1.692.057-.056v.111Zm.057,1.637.052-.052v.106Zm0-1.42h.107l-.055.051Zm.161.219c0,.058-.054.058-.054.108l-.055-.05a.21.21,0,0,1,.055-.169c.054,0,.054.057.054.111m0,1.039-.054.056-.055-.056Zm-.054-.382h.109l-.055.052Zm.161-2.842c.165-.056.269-.056.377.052,0,.275.163.437.163.713,0,.052-.06.052-.107.052a.2.2,0,0,1-.326-.052,1.854,1.854,0,0,0-.159-.495c0-.107-.055-.218.052-.27m6.832-9.407c0-.055.056-.055.106-.055,0,.055.058.164-.05.22.108.108,0,.27.05.384,0,.105.058.27-.05.378a.925.925,0,0,1,0-.762.2.2,0,0,1-.056-.166M31.8,22a5.15,5.15,0,0,0,.54,1.038c.055.165.215.329.055.492l-.214-.219a4.642,4.642,0,0,0-.7-1.205c.212-.161.157-.382.267-.6.108.165,0,.329.05.494m.54-1.48v.114a1.353,1.353,0,0,1,.537.707c.057,0,.111,0,.111.055V21.5c.159.111.159.273.264.385,0,.054,0,.109-.051.109a9.877,9.877,0,0,1-1.019-1.151h-.11a.2.2,0,0,0-.056.164,9.714,9.714,0,0,0,.7,1.2l-.05.057c.05.108.163.327.05.436a2.18,2.18,0,0,1-.748-1.2.217.217,0,0,1-.167-.053c.115-.383.167-.819.272-1.261.053,0,.11,0,.11.057s.108.112.052.217c.056,0,.106,0,.106.054m-.7,4.105-.052-.056a.2.2,0,0,1,.052-.164.2.2,0,0,1,.055.164c.105.056.105.217.22.273v.107c.158.11.1.168.1.275,0,.054-.05.054-.1.054-.115-.22-.327-.492-.22-.71Zm0-1.366-.052-.056h.107Zm.16.271-.05.057-.055-.057Zm.216.656c-.1-.1-.274-.283-.2-.44-.067,0-.067-.054-.067-.108h.108a.455.455,0,0,1,0,.062.278.278,0,0,1,.161.267,1.053,1.053,0,0,1,.218.331l-.052.051c-.11.057-.11-.107-.166-.163m-.376-1.148c0,.052,0,.108-.052.108-.163-.161-.322-.436-.163-.655.163.11.109.384.215.548m-7.9,12.574v.11l-.056-.055ZM22.6,35.83c-.055,0-.11,0-.11-.054.056,0,.056-.058.11-.058l.056.058Zm.162,0,.053.054-.053.051c-.056,0-.107,0-.107-.051.051,0,.051-.054.107-.054m-.811-1.256h-.107a1.8,1.8,0,0,0-.16.765c-.108.054-.108.163-.108.27.163.167.374,0,.489-.161.161.106-.056.271-.115.383-.05,0-.05.054-.107.054l-.05-.054-.054.054a.553.553,0,0,1-.272-.22v-.11c-.161-.106-.107-.328-.217-.489l.056-.057c-.163-.218.054-.491.221-.654.267,0,.538,0,.7.221,0,.107.049.215-.057.326l-.1-.111v-.108Zm-1.394,2.349a.308.308,0,0,0,.165-.273c.155-.163.265-.33.481-.382a3.083,3.083,0,0,0,.373.544,2.148,2.148,0,0,1-.161.6.9.9,0,0,0,.593.489c-.058.274.218.494.056.714a.2.2,0,0,0-.164.052c0-.052-.057-.052-.107-.052,0,.052-.054.052-.11.052,0-.052-.051-.061-.108-.052-.433.052-.7-.329-.964-.6a2.107,2.107,0,0,1-.109-.819c.109-.056.054-.167.054-.275M23.895,39l-.109.109c-.052,0-.052-.056-.052-.109l.1-.107c.057,0,.057.054.057.107m-.161.164c0,.057-.056.057-.056.109-.056,0-.107,0-.107-.052l.107-.112Zm-.217.217c0,.056-.054.056-.054.109H23.3l.053-.052.108-.108Zm-.326.275-.052.057c-.054,0-.054.054-.107.054-.053.108-.163.108-.216.162a2.294,2.294,0,0,1-1.347.166c0-.055,0-.111.059-.111l.049.056.056-.056a1.2,1.2,0,0,0,.966-.163.762.762,0,0,0,.322-.107.526.526,0,0,1,.061,0l.1-.118c.054,0,.106,0,.106.058M1.692,21.115a19.425,19.425,0,0,1,37.181-7.878l-.618.118c0,.054,0,.111-.052.111-.11,0-.272-.054-.377.053-.055,0-.109,0-.109-.053a.986.986,0,0,0-.378.107l-.054-.054-.054.054-.049-.054c-.11.109-.273.054-.378.109-.054-.109-.163-.109-.217-.162-.215-.054-.377.107-.484.273h-.269a6.206,6.206,0,0,0-.86-.822.2.2,0,0,1-.164-.054c-.27.275-.483.6-.751.875-.108,0-.213.106-.268-.055v-.111c-.16-.218-.377-.383-.648-.218-.053,0-.053-.052-.053-.107a4.91,4.91,0,0,1,.594-.493h.106l.105-.109c.382-.108.809-.219.97-.654,0-.059,0-.113-.056-.113l.056-.052c0-.054,0-.109-.056-.109l.056-.056a.411.411,0,0,1-.107-.328l-.322-.494a6.407,6.407,0,0,1-1.936-3c-.109-.056-.109-.167-.164-.224V7.5a5.516,5.516,0,0,1-.483-.653,4.95,4.95,0,0,1-.538-.552,2,2,0,0,1-.59-.378h-.109c-.053-.11-.161-.22-.265-.22a1.986,1.986,0,0,0-.65-.658c-.488-.106-.97-.491-1.451-.323l-.056-.061-.055.061-.054-.061a4.643,4.643,0,0,0-.806.109l-.048-.049a3.439,3.439,0,0,0-.809.323.59.59,0,0,0-.486.219h-.109l-.107.112a.483.483,0,0,0-.371.163h-.111c-.06.052-.162.052-.215.164h-.107l-.649.5h-.11c-.045-.057-.158-.057-.212-.167a2.606,2.606,0,0,1-.807-.328l-.054.054c-.216-.165-.428-.054-.641-.165-.113,0-.273-.052-.377.059l-.056-.059a.951.951,0,0,1-.541.111c-.107.11-.265.054-.374.163l-.054-.053-.053.053-.057-.053-.053.053c-.155-.163-.373.057-.537-.11a.191.191,0,0,0-.16.056c-.162-.163-.435.053-.594-.11-.105,0-.216-.053-.266.054L19.266,5.7l-.055.054L19.162,5.7c-.111.054-.214,0-.326.11l-.053-.056a13.255,13.255,0,0,1-1.4.385.947.947,0,0,0-.537-.111c-.213-.108-.483,0-.7-.057a5.5,5.5,0,0,1-.92.224,6.3,6.3,0,0,0-1.555,1.146,5.126,5.126,0,0,1-1.454-.932,1.344,1.344,0,0,0-.805.053,8.941,8.941,0,0,0-2.366,1.7c-.057-.057-.107.11-.161.052a.906.906,0,0,1-.485.276,8.744,8.744,0,0,0-1.129,2.514.2.2,0,0,0,.056.163c-.166.222.05.439-.111.659l.056.052c-.16.113,0,.273-.111.383l.055.056A11.139,11.139,0,0,1,7,13.628l.054.056a2.822,2.822,0,0,0-.163.659,1.59,1.59,0,0,0,.593.869c.372.058.7.219,1.073.058.055,0,.109,0,.109.054a.2.2,0,0,1-.054.163l.054.055c-.109.219,0,.495-.109.711-.16.167-.318.273-.377.49.108.112.27.167.326.329h.106c.054.11.217.11.271.222a8.5,8.5,0,0,0-.054,1.2,3.02,3.02,0,0,0,.322.438V19.1c-.268.274-.485.6-.754.878v.109l-.109.106c.055.657-.433,1.094-.7,1.643a.776.776,0,0,1-.108.329,2.475,2.475,0,0,0,.267,1.366c-.107.108-.107.274-.267.383v.162a3.063,3.063,0,0,0-.539,1.2L7,25.33a2.015,2.015,0,0,0,.268,1.914,1.838,1.838,0,0,1,.056.549c.11.269.216.6.32.872.212.275.322.548.537.822a2.4,2.4,0,0,1,.541.491l-.056.055c.163.22.163.44.378.6-.057.055.107.109.054.167a3.917,3.917,0,0,0,.807.434c.159.166.321.384.484.548.322.11.589.11.911.22.163-.11.38-.055.54-.11.107-.056.217-.164.322-.22.052-.272.163-.494.212-.763,0-.053.055-.053.114-.053a4.458,4.458,0,0,0,1.125.544l.055-.056.054.056c.267-.108.59-.108.861-.222a2.9,2.9,0,0,0,.7,0c.159.056.318.166.482.114l.108.108a3.97,3.97,0,0,1,1.185.547c.109,0,.212-.055.321.055l.054-.055c.162.164.376-.055.539.108A2.592,2.592,0,0,0,18.89,32a22.441,22.441,0,0,0,1.5,2.405,3.187,3.187,0,0,1-.7.492c-.055.055-.109.055-.109.165-.266.161-.377.438-.59.654v.112a5.765,5.765,0,0,0-.433,1.311c0,.056,0,.107.059.107l-.059.057a2.486,2.486,0,0,0,.168.872l-.057.055a3.6,3.6,0,0,0,1.439,1.9,7.032,7.032,0,0,0,.781.405,19.423,19.423,0,0,1-19.2-19.421" transform="translate(0 0)" fill="#00593f"/></g></g><g transform="translate(0 43.743)"><g transform="translate(0 0)" clip-path="url(#b)"><path d="M9.2,3.124H6.056a.182.182,0,0,0-.182.182V3.69a.182.182,0,0,0,.151.18c.733.127.834.387.834.65a3.468,3.468,0,0,1-.742,1.567,7.656,7.656,0,0,0-1.624-2A2.6,2.6,0,0,0,5.95,1.972,2.011,2.011,0,0,0,3.738,0a2.342,2.342,0,0,0-2.5,2.333,2.537,2.537,0,0,0,.827,1.813C.657,5.018,0,5.95,0,7.066A2.7,2.7,0,0,0,2.825,9.747,4.372,4.372,0,0,0,5.617,8.52c.576,1.031,1.346,1.226,2.6,1.226.262,0,.56,0,.89-.025a.182.182,0,0,0,.169-.182V8.652A.182.182,0,0,0,9.1,8.47c-.065,0-.129,0-.192.006s-.106.006-.156.006A1.812,1.812,0,0,1,6.722,7.251,14.532,14.532,0,0,0,7.851,5.225,6.439,6.439,0,0,1,8.169,4.6a1.494,1.494,0,0,1,1.075-.737.181.181,0,0,0,.142-.178V3.306A.182.182,0,0,0,9.2,3.124M3.666,1.133A.828.828,0,0,1,4.6,2c0,.5-.351.967-1.041,1.374-.655-.408-.974-.827-.974-1.278a.97.97,0,0,1,1.08-.96M2.908,4.879a7.118,7.118,0,0,1,2.11,2.551,2.467,2.467,0,0,1-1.712.884A1.6,1.6,0,0,1,1.7,6.682a2.061,2.061,0,0,1,1.21-1.8" transform="translate(0 0)" fill="#00593f"/><path d="M36.589,8.181a1.824,1.824,0,0,0,1.085-1.739c0-.7-.287-2.313-2.94-2.313H30.691a.255.255,0,0,0-.255.255v.345a.256.256,0,0,0,.229.254c.789.078.847.2.847.958v4.607c0,.753-.057.879-.847.958a.255.255,0,0,0-.229.253v.366a.255.255,0,0,0,.255.255h4.2c2,0,3.013-.729,3.013-2.166a2.251,2.251,0,0,0-1.315-2.033M34.6,7.618H33.067V5.47c0-.265,0-.3.8-.3h.146a2.718,2.718,0,0,1,1.509.249,1.133,1.133,0,0,1,.472,1c0,.989-.76,1.2-1.4,1.2M33.067,8.8H34.6c1.013,0,1.6.482,1.6,1.323,0,1.046-.838,1.187-1.657,1.187h-.742c-.727,0-.727-.052-.727-.3Z" transform="translate(-18.21 -2.47)" fill="#00593f"/><path d="M56.108,15.583c-.491-.028-.491-.109-.491-.352V11.147a.255.255,0,0,0-.255-.255H55.1a.25.25,0,0,0-.078.012l-1.275.407a.256.256,0,0,0-.178.243v.313a.255.255,0,0,0,.255.255c.363,0,.44.036.456.05a.352.352,0,0,1,.02.165v2.678a2.494,2.494,0,0,1-1.344.442c-.331,0-.476-.058-.476-.612v-3.7a.255.255,0,0,0-.255-.255h-.261a.256.256,0,0,0-.078.012l-1.275.407a.255.255,0,0,0-.177.243v.313a.255.255,0,0,0,.25.255,1.242,1.242,0,0,1,.461.051.352.352,0,0,1,.02.164v2.341c0,.858.176,1.843,1.55,1.843a3.016,3.016,0,0,0,1.584-.484v.229a.255.255,0,0,0,.255.255h.016l1.536-.094a.255.255,0,0,0,.239-.254v-.334a.255.255,0,0,0-.241-.255" transform="translate(-30.177 -6.517)" fill="#00593f"/><path d="M69.875,11.55c-.492-.075-.526-.131-.526-.866v-6.3a.254.254,0,0,0-.254-.255h-.282a.254.254,0,0,0-.135.039l-1.265.783a.255.255,0,0,0-.121.217V5.46a.255.255,0,0,0,.255.255h.114c.277,0,.339.027.351.037s.031.045.031.262v4.671c0,.762-.041.827-.546.864a.256.256,0,0,0-.238.254v.324a.255.255,0,0,0,.255.255h2.32a.254.254,0,0,0,.255-.255V11.8a.254.254,0,0,0-.216-.252" transform="translate(-40.243 -2.47)" fill="#00593f"/><path d="M78.458,11.55c-.492-.075-.526-.131-.526-.866v-6.3a.254.254,0,0,0-.254-.255H77.4a.254.254,0,0,0-.135.039L76,4.951a.255.255,0,0,0-.12.217V5.46a.255.255,0,0,0,.255.255h.114c.278,0,.338.027.351.037s.032.045.032.262v4.671c0,.762-.042.827-.548.864a.255.255,0,0,0-.237.254v.324a.255.255,0,0,0,.255.255h2.32a.254.254,0,0,0,.255-.255V11.8a.255.255,0,0,0-.216-.252" transform="translate(-45.378 -2.47)" fill="#00593f"/><path d="M86.2,13.233H84.891a.255.255,0,0,0-.255.255v.721a.255.255,0,0,0,.255.255H86.2a.256.256,0,0,0,.255-.255v-.721a.255.255,0,0,0-.255-.255" transform="translate(-50.638 -7.917)" fill="#00593f"/><path d="M96.61,4.671a5.751,5.751,0,0,0-2.9-.542H90.418a.255.255,0,0,0-.255.255v.345a.256.256,0,0,0,.23.254c.789.078.846.2.846.958v4.607c0,.753-.057.879-.846.958a.255.255,0,0,0-.23.254v.366a.255.255,0,0,0,.255.255h3.2c1.492,0,2.629-.073,3.672-1.017a4.242,4.242,0,0,0,1.348-3.1A3.933,3.933,0,0,0,96.61,4.671m-.964,6.3a4.659,4.659,0,0,1-2.021.288c-.832,0-.832-.039-.832-.3V5.522c0-.241,0-.3.832-.3h.544c1.82,0,2.744,1.022,2.744,3.036a2.825,2.825,0,0,1-1.267,2.706" transform="translate(-53.945 -2.47)" fill="#00593f"/><path d="M115.693,10.891a2.724,2.724,0,0,0-2.826,2.867,2.7,2.7,0,0,0,2.826,2.867,2.728,2.728,0,0,0,2.835-2.867,2.7,2.7,0,0,0-2.835-2.867m1.354,2.909c0,1.144-.519,1.855-1.354,1.855-1.179,0-1.354-1.221-1.354-1.95,0-.7.184-1.876,1.417-1.876.809,0,1.291.737,1.291,1.971" transform="translate(-67.528 -6.516)" fill="#00593f"/><path d="M133.588,11.022a2.177,2.177,0,0,0-1.265.573,2.083,2.083,0,0,0-1.682-.73,1.985,1.985,0,0,0-2.125,2.021A1.812,1.812,0,0,0,129,14.224a1.36,1.36,0,0,0-.8,1.148.912.912,0,0,0,.527.813,1.365,1.365,0,0,0-.673,1.109c0,.905.966,1.446,2.585,1.446,1.835,0,2.93-.657,2.93-1.759,0-.527-.244-1.215-1.408-1.5-.378-.089-.907-.165-1.56-.255a4.323,4.323,0,0,1-.988-.21.481.481,0,0,1,.347-.234,1.115,1.115,0,0,1,.176.031,2.51,2.51,0,0,0,.566.073,1.96,1.96,0,0,0,2.052-2,2.752,2.752,0,0,0-.036-.346c0-.024-.007-.049-.01-.074.217-.157.309-.171.332-.172a.825.825,0,0,1,.165.074,1.112,1.112,0,0,0,.526.166.747.747,0,0,0,.756-.736.81.81,0,0,0-.9-.777m-3.736,1.863c0-.651.3-1.072.769-1.072.2,0,.79,0,.79,1.031,0,.664-.291,1.061-.78,1.061-.644,0-.779-.554-.779-1.02m.02,3.61c.237.032.457.059.66.085,1.367.17,1.714.253,1.714.611,0,.619-1.05.685-1.5.685-.891,0-1.49-.267-1.49-.664,0-.194.168-.392.615-.716" transform="translate(-76.617 -6.501)" fill="#00593f"/></g></g></svg>