<svg xmlns="http://www.w3.org/2000/svg" width="84.474" height="84.606" viewBox="0 0 84.474 84.606"><g transform="translate(-4.333 -1181.894)"><path d="M1,40H-1V0H1Z" transform="translate(41 1226.5)" fill="#fff"/><path d="M-32.737-25.118a8.067,8.067,0,0,0-5.624,1.862,6.243,6.243,0,0,0-2.09,4.636c0,3.23,2.28,5.434,5.51,7.524,3.99,2.546,4.75,4.256,4.75,5.852a4.43,4.43,0,0,1-4.6,4.6,5.893,5.893,0,0,1-4.94-3.04c-.532-1.178-1.1-2.166-1.406-2.166-.152,0-.532.57-.532.722,0,.608.38,2.28.57,3.572a2.824,2.824,0,0,0,.874,1.216,15.26,15.26,0,0,0,4.978.988A10.764,10.764,0,0,0-30.077-.722,6.578,6.578,0,0,0-26.961-6.08c0-3.42-2.318-5.4-5.244-7.372-3.344-2.242-5.282-3.42-5.282-6.118a4.273,4.273,0,0,1,4.37-4.446,4.326,4.326,0,0,1,2.7.874,6.115,6.115,0,0,1,1.862,2.736,1.055,1.055,0,0,0,.912.8c.266,0,.266-.38.266-1.026,0-.152-.3-2.356-.38-3.078,0-.076-.228-.646-.456-.722A23.337,23.337,0,0,0-32.737-25.118Zm18.582,9.88a10.467,10.467,0,0,0-4.978,1.6,7.892,7.892,0,0,0-3.686,6.574,9.383,9.383,0,0,0,1.178,4.446A6.789,6.789,0,0,0-16.017.418a7.621,7.621,0,0,0,5.472-2.356,1.561,1.561,0,0,0,.494-1.1c0-.19-.3-.3-.722,0A5.571,5.571,0,0,1-14.155-1.9a5.536,5.536,0,0,1-4.788-2.546,7.109,7.109,0,0,1-.988-3.8,6.506,6.506,0,0,1,1.6-4.37,3.7,3.7,0,0,1,2.356-1.292c1.292,0,1.938.57,3.192,1.482a4.124,4.124,0,0,0,1.482.722c.152,0,1.254-.912,1.254-1.52a1.715,1.715,0,0,0-.57-1.14A6.861,6.861,0,0,0-14.155-15.238Zm7.334,1.862c0,.152.38.3,1.292,1.026a1.219,1.219,0,0,1,.418,1.14v7.258c-.038,2.28-.152,2.66-1.634,3.154-.3.114-.76.266-.76.494,0,.3.38.456.8.456C-5.8.152-5.339,0-4.2,0-2,0-.665.19.285.19.855.19,1.2.038,1.2-.152,1.2-.3,1.121-.57.513-.76-.057-.912-.741-1.1-1.235-1.216c-.684-.114-.912-.836-.988-1.938-.038-.57-.228-7.448-.228-8.208a1.436,1.436,0,0,1,.38-.836A2.227,2.227,0,0,1-.4-12.73a3.6,3.6,0,0,1,2.09.836.966.966,0,0,0,.532.114,9.572,9.572,0,0,0,1.558-1.748,1.807,1.807,0,0,0,.228-.532c0-.342-.342-1.292-1.9-1.292-1.178,0-2.85.95-4.332,2.356-.076.038-.266,0-.266-.152,0-.722.076-1.406.076-2.09,0-.114-.19-.456-.342-.456-.114,0-.3.152-.76.456a17.335,17.335,0,0,1-2.812,1.216A.73.73,0,0,0-6.821-13.376Zm20.862-1.976a8.508,8.508,0,0,0-5.624,2.09,7.331,7.331,0,0,0-2.66,5.928A8.406,8.406,0,0,0,8.569-1.52,8.262,8.262,0,0,0,13.623.456a7.584,7.584,0,0,0,4.712-1.52A8.177,8.177,0,0,0,21.641-7.6,7.625,7.625,0,0,0,14.041-15.352Zm-.722,1.14a4.788,4.788,0,0,1,3.192,1.482,8.773,8.773,0,0,1,1.9,5.814A8.74,8.74,0,0,1,16.7-1.9,3.481,3.481,0,0,1,14.383-.646c-1.824,0-3.99-1.368-4.94-4.218a11.381,11.381,0,0,1-.456-3.382,7.128,7.128,0,0,1,1.862-4.864A4,4,0,0,1,13.319-14.212ZM25.251-25.08c0,.152.114.266.76.722.874.532.874.76.912,1.064.114,1.026.114,5.13.114,7.942,0,6-.114,9.994-.228,11.552-.152,1.9-.228,2.584-1.976,2.964C24.415-.76,24-.57,24-.3c0,.3.3.418,1.064.418.8,0,2.47-.114,3.344-.114.684,0,2.318.114,3.23.114.456,0,.988-.152.988-.418,0-.228-.3-.418-.874-.57-1.634-.456-1.786-.912-1.938-1.672-.19-1.026-.114-8.284-.114-13.832,0-5.092.228-9.386.342-10.336,0-.152-.228-.456-.342-.38a19.824,19.824,0,0,1-3.914,1.482C25.365-25.5,25.251-25.232,25.251-25.08Zm10.184,0c0,.152.114.266.76.722.874.532.874.76.912,1.064.114,1.026.114,5.13.114,7.942,0,6-.114,9.994-.228,11.552-.152,1.9-.228,2.584-1.976,2.964-.418.076-.836.266-.836.532,0,.3.3.418,1.064.418.8,0,2.47-.114,3.344-.114.684,0,2.318.114,3.23.114.456,0,.988-.152.988-.418,0-.228-.3-.418-.874-.57-1.634-.456-1.786-.912-1.938-1.672-.19-1.026-.114-8.284-.114-13.832,0-5.092.228-9.386.342-10.336,0-.152-.228-.456-.342-.38a19.824,19.824,0,0,1-3.914,1.482C35.549-25.5,35.435-25.232,35.435-25.08Z" transform="translate(46 1209)" fill="#fff"/></g></svg>