<svg xmlns="http://www.w3.org/2000/svg" width="84" height="112"><g transform="translate(-403 -6917)"><circle cx="42" cy="42" r="42" transform="translate(403 6917)" fill="#fff"/><g fill="#7e5b52"><path d="m449.845 6973.475-2.121-2.121L460.078 6959l-12.354-12.354 2.121-2.121 14.476 14.476Z"/><path d="M462.199 6960.5h-34.4v-3h34.4Z"/></g></g><path d="M11.712 88.712c0 .256.352.416.7.512 1.44.384 1.792.416 2.688 1.472.064.1.224.384.224 1.536 0 2.656-.448 10.336-.608 12.928-.128 2.368-.736 2.5-2.24 3.008-.32.1-.64.288-.64.544 0 .32.384.352.832.352.544 0 1.376-.064 2.08-.064 1.152 0 2.5.16 3.424.16.608 0 1.024-.1 1.024-.416 0-.192-.128-.416-.8-.576-1.536-.448-1.888-.928-2.016-2.4-.064-.992.032-5.92.032-8.8.032-2.5.128-3.392.16-4.256 0-.16.224-.224.352-.064 2.88 3.456 8.416 9.7 11.424 13.28.864 1.056 1.44 1.888 1.984 2.56.288.384.992 1.024 1.44 1.024.288 0 .448-.352.448-.672 0-.512-.224-2.912-.224-4.256 0-5.5.288-11.808.352-12.96.1-1.728.672-2.016 2.048-2.336.576-.16.768-.448.768-.64 0-.256-.192-.352-.736-.352-.832 0-1.856.128-3.008.128-1.024 0-1.92-.032-2.752-.032-.384 0-.832.064-.832.288 0 .256.224.512.864.7 1.76.512 1.984 1.28 2.016 1.952.1.992.16 2.112.16 3.2 0 4.608.1 8.064-.064 9.088 0 .1-.128.416-.32.224-2.144-2.336-9.184-10.016-10.624-11.84a88.368 88.368 0 0 0-2.528-3.168 1.3 1.3 0 0 0-.672-.416c-1.632 0-3.2-.1-3.9-.1-.736.008-1.056.136-1.056.392Zm31.04 7.388a6.752 6.752 0 0 0-2.432.576 6.831 6.831 0 0 0-3.84 6.276c0 3.748 2.304 6.368 5.76 6.368a5.462 5.462 0 0 0 4.64-2.4 1.808 1.808 0 0 0 .22-.768c0-.16-.064-.384-.256-.384-.128 0-.288.192-.416.384a3.238 3.238 0 0 1-2.908 1.148 4.542 4.542 0 0 1-3.584-1.76 6.552 6.552 0 0 1-1.216-3.64 4.114 4.114 0 0 1 .16-1.12c.032-.1.16-.256.256-.256 1.472.032 6.944.032 7.3.032a.651.651 0 0 0 .608-.544 3.588 3.588 0 0 0-1.124-2.692 4.617 4.617 0 0 0-3.168-1.22Zm-.32.832a2.152 2.152 0 0 1 2.112 1.92c0 .64-.32.8-1.088.8-1.6.032-3.3.032-4.128 0-.064 0-.192-.192-.128-.352a3.467 3.467 0 0 1 3.232-2.364Zm6.592-.32c0 .224.224.416.832.576a4.159 4.159 0 0 1 2.24 1.92c.928 1.408 2.08 3.52 2.208 3.808a.289.289 0 0 1 0 .32c-.96 1.248-2.016 2.816-2.656 3.552a4.466 4.466 0 0 1-2.4 1.472c-.384.1-.8.288-.8.512 0 .256.512.352.928.352.608.004 1.536-.124 2.592-.124.512 0 .7.064 1.376.064.224 0 .672-.064.672-.32 0-.192-.256-.416-.448-.48-.64-.256-.832-.512-.832-.9a12.7 12.7 0 0 1 2.016-3.164.134.134 0 0 1 .224 0 27.059 27.059 0 0 1 1.568 2.752c.608.96.224 1.088-.32 1.28-.448.128-.608.288-.608.416 0 .224.224.416.672.416.64 0 .992-.064 1.632-.064 1.216 0 2.368.16 3.456.16.512 0 .768-.16.768-.384 0-.16-.192-.352-.736-.48a3.645 3.645 0 0 1-2.432-1.76 40.354 40.354 0 0 1-2.656-4.544.463.463 0 0 1 .032-.352 53.765 53.765 0 0 1 2.24-2.944 4.759 4.759 0 0 1 2.784-1.536c.16-.064.608-.192.608-.448s-.32-.352-.672-.352c-.512 0-2.016.16-2.784.16-.576 0-1.056-.064-1.376-.064-.352 0-.64.128-.64.352s.16.32.864.608c.384.16.544.32.224.832a25.708 25.708 0 0 1-1.7 2.624c-.064.064-.192.1-.224.032a22.988 22.988 0 0 1-1.7-2.944c0-.16-.064-.448.64-.672.352-.1.608-.32.608-.544 0-.192-.32-.288-.7-.288-.544 0-1.216.064-1.888.064-.768 0-2.4-.192-2.784-.192-.444 0-.828.096-.828.288Zm18.688-.1a.305.305 0 0 1-.256-.256v-1.5a.745.745 0 0 0-.448-.352c-.128 0-.352.256-.736.7a21.544 21.544 0 0 1-2.56 2.208.556.556 0 0 0-.192.352c0 .1.192.256.448.352.64.192 1.216.416 1.216.64 0 1.12-.128 5.92-.128 7.1a3.78 3.78 0 0 0 .416 2.112 3.372 3.372 0 0 0 2.816 1.5 4.8 4.8 0 0 0 3.424-1.408 1.362 1.362 0 0 0 .448-.8c0-.288-.16-.352-.192-.352-.128 0-.192.032-.48.192a3.526 3.526 0 0 1-1.568.48 2.685 2.685 0 0 1-1.952-.608 1.971 1.971 0 0 1-.544-1.568c0-1.536.032-6.24.064-6.88a.318.318 0 0 1 .288-.224h3.488c.224 0 .832-.064.832-.352a11.105 11.105 0 0 0-.1-1.216c0-.1-.32-.256-.352-.256-.124.016-3.228.144-3.932.144Z" fill="#fff"/><path fill="none" opacity=".5" d="M0 0h84v112H0z"/></svg>