<svg xmlns="http://www.w3.org/2000/svg" width="40.014" height="61.84" viewBox="0 0 40.014 61.84"><g transform="translate(-153.263 -776.16)"><path d="M.5,40h-1V0h1Z" transform="translate(173 798)" fill="#6a4137"/><path d="M-15.507-11.9a3.821,3.821,0,0,0-2.664.882,2.957,2.957,0,0,0-.99,2.2c0,1.53,1.08,2.574,2.61,3.564,1.89,1.206,2.25,2.016,2.25,2.772A2.1,2.1,0,0,1-16.479-.306a2.791,2.791,0,0,1-2.34-1.44c-.252-.558-.522-1.026-.666-1.026-.072,0-.252.27-.252.342,0,.288.18,1.08.27,1.692a1.338,1.338,0,0,0,.414.576,7.228,7.228,0,0,0,2.358.468,5.1,5.1,0,0,0,2.448-.648A3.116,3.116,0,0,0-12.771-2.88c0-1.62-1.1-2.556-2.484-3.492-1.584-1.062-2.5-1.62-2.5-2.9a2.024,2.024,0,0,1,2.07-2.106,2.049,2.049,0,0,1,1.278.414,2.9,2.9,0,0,1,.882,1.3.5.5,0,0,0,.432.378c.126,0,.126-.18.126-.486,0-.072-.144-1.116-.18-1.458,0-.036-.108-.306-.216-.342A11.054,11.054,0,0,0-15.507-11.9Zm8.8,4.68a4.958,4.958,0,0,0-2.358.756,3.738,3.738,0,0,0-1.746,3.114,4.445,4.445,0,0,0,.558,2.106A3.216,3.216,0,0,0-7.587.2,3.61,3.61,0,0,0-4.995-.918a.739.739,0,0,0,.234-.522c0-.09-.144-.144-.342,0A2.639,2.639,0,0,1-6.7-.9,2.623,2.623,0,0,1-8.973-2.106a3.367,3.367,0,0,1-.468-1.8,3.082,3.082,0,0,1,.756-2.07,1.753,1.753,0,0,1,1.116-.612c.612,0,.918.27,1.512.7a1.954,1.954,0,0,0,.7.342c.072,0,.594-.432.594-.72a.812.812,0,0,0-.27-.54A3.25,3.25,0,0,0-6.7-7.218Zm3.474.882c0,.072.18.144.612.486a.577.577,0,0,1,.2.54v3.438c-.018,1.08-.072,1.26-.774,1.494-.144.054-.36.126-.36.234,0,.144.18.216.378.216C-2.745.072-2.529,0-1.989,0-.945,0-.315.09.135.09.405.09.567.018.567-.072c0-.072-.036-.2-.324-.288-.27-.072-.594-.162-.828-.216-.324-.054-.432-.4-.468-.918-.018-.27-.108-3.528-.108-3.888a.68.68,0,0,1,.18-.4A1.055,1.055,0,0,1-.189-6.03a1.7,1.7,0,0,1,.99.4.458.458,0,0,0,.252.054,4.534,4.534,0,0,0,.738-.828A.856.856,0,0,0,1.9-6.66c0-.162-.162-.612-.9-.612A3.552,3.552,0,0,0-1.053-6.156c-.036.018-.126,0-.126-.072,0-.342.036-.666.036-.99,0-.054-.09-.216-.162-.216-.054,0-.144.072-.36.216A8.211,8.211,0,0,1-3-6.642.346.346,0,0,0-3.231-6.336Zm9.882-.936a4.03,4.03,0,0,0-2.664.99,3.473,3.473,0,0,0-1.26,2.808A3.982,3.982,0,0,0,4.059-.72,3.914,3.914,0,0,0,6.453.216,3.593,3.593,0,0,0,8.685-.5a3.873,3.873,0,0,0,1.566-3.1A3.612,3.612,0,0,0,6.651-7.272Zm-.342.54a2.268,2.268,0,0,1,1.512.7,4.156,4.156,0,0,1,.9,2.754A4.14,4.14,0,0,1,7.911-.9a1.649,1.649,0,0,1-1.1.594,2.642,2.642,0,0,1-2.34-2,5.391,5.391,0,0,1-.216-1.6,3.376,3.376,0,0,1,.882-2.3A1.894,1.894,0,0,1,6.309-6.732Zm5.652-5.148c0,.072.054.126.36.342.414.252.414.36.432.5.054.486.054,2.43.054,3.762,0,2.844-.054,4.734-.108,5.472-.072.9-.108,1.224-.936,1.4-.2.036-.4.126-.4.252,0,.144.144.2.5.2.378,0,1.17-.054,1.584-.054.324,0,1.1.054,1.53.054.216,0,.468-.072.468-.2,0-.108-.144-.2-.414-.27-.774-.216-.846-.432-.918-.792-.09-.486-.054-3.924-.054-6.552,0-2.412.108-4.446.162-4.9,0-.072-.108-.216-.162-.18a9.39,9.39,0,0,1-1.854.7C12.015-12.078,11.961-11.952,11.961-11.88Zm4.824,0c0,.072.054.126.36.342.414.252.414.36.432.5.054.486.054,2.43.054,3.762,0,2.844-.054,4.734-.108,5.472-.072.9-.108,1.224-.936,1.4-.2.036-.4.126-.4.252,0,.144.144.2.5.2.378,0,1.17-.054,1.584-.054.324,0,1.1.054,1.53.054.216,0,.468-.072.468-.2,0-.108-.144-.2-.414-.27-.774-.216-.846-.432-.918-.792-.09-.486-.054-3.924-.054-6.552,0-2.412.108-4.446.162-4.9,0-.072-.108-.216-.162-.18a9.39,9.39,0,0,1-1.854.7C16.839-12.078,16.785-11.952,16.785-11.88Z" transform="translate(173 789)" fill="#6a4137"/></g></svg>