<svg xmlns="http://www.w3.org/2000/svg" width="95" height="128.537"><g transform="rotate(90 47.28 47.72)"><circle cx="47.5" cy="47.5" r="47.5" transform="translate(-.44)" fill="#f4ebde"/><path d="M47.06 1a46.513 46.513 0 0 0-18.1 89.346 46.512 46.512 0 0 0 36.2-85.692A46.208 46.208 0 0 0 47.06 1m0-1A47.5 47.5 0 1 1-.44 47.5 47.5 47.5 0 0 1 47.06 0Z" fill="#6a4137"/><g fill="#7e5b52"><path d="M41.959 63.442 25.797 47.28l16.162-16.162 2.121 2.121L30.039 47.28 44.08 61.321Z"/><path d="M66.641 48.78H27.918v-3h38.723Z"/></g></g><path d="M22.995 109.668c-.96 0-.69 0-1.92-.06a2.184 2.184 0 0 1-1.65-.54.822.822 0 0 0-.45-.27c-.12 0-.66.27-.63.54a25.074 25.074 0 0 1-.21 3.66c-.03.72.09 1.14.57 1.14.24 0 .51-.33.69-.84.69-1.86 1.5-2.22 1.95-2.22.39 0 3.54.03 4.29.03.09 0 .3.33.3.69v3.93c0 4.74-.09 7.86-.09 8.49 0 2.04-.51 2.13-2.64 2.7-.54.15-.84.36-.84.6 0 .33.3.57.93.57.81 0 1.56-.09 3.33-.09 1.8 0 3.99.15 4.29.15.6 0 .9-.27.9-.51 0-.36-.33-.48-.87-.69-1.5-.6-2.01-.66-2.16-2.82-.12-1.71-.12-4.47-.12-6.3 0-1.89.06-5.52.15-6.33a.563.563 0 0 1 .39-.39c2.52 0 3.93.06 4.38.12.81.09 1.41.39 1.83 2.28.06.27.24.69.57.69s.63-.42.63-.84a28.682 28.682 0 0 1 .36-3.96c0-.21-.48-.57-.57-.57-.18 0-.39.21-.72.48-.27.27-.81.36-2.49.36Zm26.79-.54a10.717 10.717 0 0 0-7.26 3.12 9.683 9.683 0 0 0-2.7 6.66 9.755 9.755 0 0 0 9.96 9.63 10.562 10.562 0 0 0 5.015-1.26 9.882 9.882 0 0 0 4.98-8.52c-.005-5.61-4.445-9.63-9.995-9.63Zm-.54 1.26c4.44 0 7.23 4.23 7.23 8.49 0 3.66-1.11 5.85-2.31 6.99a5.375 5.375 0 0 1-3.69 1.38c-4.59 0-7.38-4.5-7.38-8.7a8.949 8.949 0 0 1 2.22-6.42 6.258 6.258 0 0 1 3.93-1.74Zm25.32 5.16c0 2.94-2.01 4.23-3.54 4.26a5.758 5.758 0 0 1-.66.09.421.421 0 0 0-.33.39c0 .15.33.45.48.54a1.821 1.821 0 0 0 1.05.21 6.581 6.581 0 0 0 4.17-1.65 5.584 5.584 0 0 0 1.71-4.08 6.233 6.233 0 0 0-1.47-3.96 7.407 7.407 0 0 0-5.43-1.86c-1.47 0-2.73.18-3.75.18-.39 0-2.25-.09-2.94-.09-.51 0-.75.09-.75.45 0 .3.33.6.81.72 1.11.3 1.77.48 1.83 1.17a40.665 40.665 0 0 1 .09 4.11c0 5.34-.18 8.01-.27 8.7-.24 1.59-.24 1.86-1.86 2.31-.66.18-.87.33-.87.66 0 .3.51.48.93.48.99 0 3.03-.18 4.11-.18 1.23 0 1.86.12 2.76.12.36 0 .81-.18.81-.48 0-.33-.24-.51-.66-.6-2.07-.48-2.25-.75-2.25-2.82v-6.18c0-4.05.09-6.12.12-6.72a.7.7 0 0 1 .21-.42 1.277 1.277 0 0 1 .78-.21 5 5 0 0 1 3.9 1.53 5.432 5.432 0 0 1 1.02 3.33Z" fill="#573830"/></svg>