<svg xmlns="http://www.w3.org/2000/svg" width="84" height="112" viewBox="0 0 84 112"><g transform="translate(-260 -7972)"><g transform="translate(0 1055)"><g transform="translate(260 6917)"><circle cx="42" cy="42" r="42" fill="#fff"/><g transform="translate(24.801 28.585)"><path d="M-1321.151,971.96l-14.476-14.475,14.476-14.476,2.121,2.121-12.354,12.354,12.354,12.354Z" transform="translate(1333.505 -944.07)" fill="#7e5b52"/><path d="M59.914,43.752h-34.4v-3h34.4Z" transform="translate(-25.515 -28.837)" fill="#7e5b52"/></g></g><path d="M-14.4-14.464c0,3.68-2.368,5.184-4.064,5.184h-.8c-.256,0-.384.16-.384.288,0,.192.16.352.544.512a5.754,5.754,0,0,0,1.7.224,6.221,6.221,0,0,0,3.68-1.408,5.945,5.945,0,0,0,2.24-4.96,6.071,6.071,0,0,0-1.856-4.352c-1.184-1.12-3.072-1.888-5.984-1.888-1.6,0-4.064.256-5.344.256-.288,0-.832-.032-1.056,0-.416.032-.736.192-.736.448,0,.192.352.384.992.48,1.792.256,1.76.7,1.792,1.856.032,1.024.1,7.808.1,8.864,0,1.6-.064,4.224-.16,5.792-.1,1.312-.448,1.952-2.24,2.336-.32.1-.64.288-.64.512,0,.288.352.448.9.448.992,0,2.3-.128,3.232-.128,1.408,0,2.56.128,3.36.128.48,0,1.056-.1,1.056-.384s-.256-.448-.864-.608c-1.632-.48-1.888-.736-1.92-2.816,0-.8-.064-3.456-.064-6.368.032-3.68.032-7.648.064-8.32.032-.768.192-1.152.32-1.248a1.768,1.768,0,0,1,.928-.288A5.307,5.307,0,0,1-14.4-14.464Zm5.44,3.2c0,.128.32.256,1.088.864a1.026,1.026,0,0,1,.352.96v6.112c-.032,1.92-.128,2.24-1.376,2.656-.256.1-.64.224-.64.416,0,.256.32.384.672.384C-8.1.128-7.712,0-6.752,0-4.9,0-3.776.16-2.976.16c.48,0,.768-.128.768-.288,0-.128-.064-.352-.576-.512-.48-.128-1.056-.288-1.472-.384-.576-.1-.768-.7-.832-1.632-.032-.48-.192-6.272-.192-6.912a1.21,1.21,0,0,1,.32-.7,1.875,1.875,0,0,1,1.408-.448,3.03,3.03,0,0,1,1.76.7.814.814,0,0,0,.448.1A8.06,8.06,0,0,0-.032-11.392,1.522,1.522,0,0,0,.16-11.84c0-.288-.288-1.088-1.6-1.088a6.314,6.314,0,0,0-3.648,1.984c-.064.032-.224,0-.224-.128,0-.608.064-1.184.064-1.76,0-.1-.16-.384-.288-.384-.1,0-.256.128-.64.384a14.6,14.6,0,0,1-2.368,1.024A.615.615,0,0,0-8.96-11.264ZM7.936-12.9A6.752,6.752,0,0,0,5.5-12.32a6.831,6.831,0,0,0-3.84,6.272C1.664-2.3,3.968.32,7.424.32a5.462,5.462,0,0,0,4.64-2.4,1.808,1.808,0,0,0,.224-.768c0-.16-.064-.384-.256-.384-.128,0-.288.192-.416.384A3.238,3.238,0,0,1,8.7-1.7,4.542,4.542,0,0,1,5.12-3.456,6.552,6.552,0,0,1,3.9-7.1a4.114,4.114,0,0,1,.16-1.12c.032-.1.16-.256.256-.256,1.472.032,6.944.032,7.3.032a.651.651,0,0,0,.608-.544A3.588,3.588,0,0,0,11.1-11.68,4.617,4.617,0,0,0,7.936-12.9Zm-.32.832a2.152,2.152,0,0,1,2.112,1.92c0,.64-.32.8-1.088.8-1.6.032-3.3.032-4.128,0-.064,0-.192-.192-.128-.352A3.467,3.467,0,0,1,7.616-12.064Zm6.336-.224c0,.192.128.32.608.48A1.979,1.979,0,0,1,15.9-10.752a76.354,76.354,0,0,1,3.328,7.52c.736,1.856.8,2.208,1.152,3.264.1.352.288.576.416.576.256,0,.608-.32.768-.832a44.86,44.86,0,0,1,1.44-4.288c.96-2.24,2.176-5.344,2.624-6.048a3.47,3.47,0,0,1,1.6-1.248c.48-.192.672-.288.672-.48s-.32-.352-.64-.352c-.608,0-1.6.16-2.176.16-.8,0-1.088-.1-1.728-.1-.416,0-.64.16-.64.352s.256.32.512.416c.96.352,1.248.544.992,1.376-.288.992-2.016,5.44-2.432,6.432-.064.128-.192.224-.256.128a48.018,48.018,0,0,1-2.848-6.752c-.128-.384-.224-.832.7-1.088.416-.128.7-.256.7-.48s-.256-.352-.736-.352c-.352,0-1.152.064-1.984.064-.352,0-2.08-.16-2.656-.16C14.432-12.64,13.952-12.512,13.952-12.288Z" transform="translate(302 7028)" fill="#fff"/></g><rect width="84" height="112" transform="translate(260 7972)" fill="none" opacity="0.5"/></g></svg>