<svg xmlns="http://www.w3.org/2000/svg" width="114.664" height="131.145"><path d="M55.005 102.173A51.1 51.1 0 0 1 35.138 4.021a51.087 51.087 0 0 1 39.733 94.131 50.806 50.806 0 0 1-19.866 4.021" fill="#fff"/><path d="M6.35 51.088a48.5 48.5 0 1 1 3.824 18.937A48.5 48.5 0 0 1 6.35 51.088m48.449 46.556a46.526 46.526 0 1 0-18.166-3.668 46.535 46.535 0 0 0 18.166 3.668" fill="#ab0029"/><path d="M10.598 51.129a44.345 44.345 0 1 1 3.5 17.315 44.333 44.333 0 0 1-3.5-17.315m44.289 42.564a42.539 42.539 0 1 0-16.609-3.353 42.538 42.538 0 0 0 16.609 3.353" fill="#ab0029"/><path d="M27.216 39.031a6.642 6.642 0 0 1-1.885-.023 2.6 2.6 0 0 1-1.27-.556 1.861 1.861 0 0 1-.6-1.1 3.908 3.908 0 0 1 .111-1.651s.04-.322.1-.815.136-1.158.209-1.842.139-1.388.183-1.958a7.26 7.26 0 0 0 .037-1.181 2.341 2.341 0 0 1 .163-.857c.123-.387.3-.854.5-1.33s.406-.963.6-1.39.358-.8.465-1.037a2.294 2.294 0 0 1 .431-.641 4.855 4.855 0 0 1 .614-.54c.228-.175.477-.349.735-.54s.526-.4.793-.641.759-.7 1.375-1.222a17 17 0 0 1 2.121-1.556 5.911 5.911 0 0 1 2.313-.891 2.033 2.033 0 0 1 1.918.77s.107.081.275.2.4.282.637.443.5.322.717.443a1.392 1.392 0 0 0 .515.2 7.054 7.054 0 0 1 1.287-1.3 8.206 8.206 0 0 1 1.921-1.117 9.013 9.013 0 0 1 2.544-.633 11.055 11.055 0 0 1 3.158.152s.2-.08.575-.191a14.551 14.551 0 0 1 1.612-.372 17.71 17.71 0 0 1 2.478-.251 18.715 18.715 0 0 1 3.173.17c.16.054.34-.02.6-.127a4.747 4.747 0 0 1 1.1-.329 6.09 6.09 0 0 1 1.964.033 14.741 14.741 0 0 1 3.2.959 6.244 6.244 0 0 0 1.54-.824 23.067 23.067 0 0 1 3.359-1.669 10.92 10.92 0 0 1 4.264-.826 6.54 6.54 0 0 1 4.254 1.711s.047.06.129.158.2.232.341.38.305.309.481.46a3.683 3.683 0 0 0 .549.4 7.535 7.535 0 0 1 .771.51 9.166 9.166 0 0 1 1.042.912 9.337 9.337 0 0 1 2.056 3.192 13.19 13.19 0 0 0 .94 1.945 14.18 14.18 0 0 0 1.11 1.624 13.337 13.337 0 0 0 1.131 1.261 9.227 9.227 0 0 0 1 .858 2.358 2.358 0 0 1 .732.972 2.627 2.627 0 0 1 .209 1.324 1.883 1.883 0 0 1-.637 1.223 3.134 3.134 0 0 1-1.807.669s-.08.047-.2.124-.291.184-.466.305a6.169 6.169 0 0 0-.506.385 1.406 1.406 0 0 0-.326.364c.188 0 .329-.007.443-.007a.879.879 0 0 1 .282.034.668.668 0 0 1 .243.155 3.953 3.953 0 0 1 .324.355c.133.161.24.316.338.435a.566.566 0 0 0 .289.224c.1.02.211-.023.351-.159a3.9 3.9 0 0 0 .523-.713 2.826 2.826 0 0 1 .628-.758.988.988 0 0 1 .619-.234 1.235 1.235 0 0 1 .639.209 3.889 3.889 0 0 1 .689.571c.242.241.437.443.6.6a1.4 1.4 0 0 0 .443.3.471.471 0 0 0 .4-.039 1.9 1.9 0 0 0 .482-.432.179.179 0 0 1 .049-.012.841.841 0 0 1 .18 0 2.559 2.559 0 0 1 .362.059c.157.035.352.089.595.17l5.363-.641a49.256 49.256 0 0 1 2.838 23.529 43.559 43.559 0 0 1-23.786 33.372 46.159 46.159 0 0 1-21.554 4.811l-.108-2.147a6.752 6.752 0 0 1-2.731-3.364 7.507 7.507 0 0 1-.286-3.92 8.252 8.252 0 0 1 1.464-3.417 4.787 4.787 0 0 1 2.521-1.863c-.322-.456-.651-.906-.967-1.335s-.617-.838-.885-1.214-.5-.717-.684-1.012a3.31 3.31 0 0 1-.363-.73 1.755 1.755 0 0 0-.22-.5 1.083 1.083 0 0 0-.342-.335.96.96 0 0 0-.464-.134 1.508 1.508 0 0 0-.585.108 2.377 2.377 0 0 1-.914.077 8.655 8.655 0 0 1-1.246-.185 12.091 12.091 0 0 1-1.27-.34 6.1 6.1 0 0 1-.974-.406c-.241-.134-.53-.288-.855-.438a7.988 7.988 0 0 0-1.071-.406 5.769 5.769 0 0 0-1.237-.227 4.527 4.527 0 0 0-1.338.1c-.457.108-.859.216-1.237.292a4.244 4.244 0 0 1-1.085.1 3 3 0 0 1-1.105-.284 5.949 5.949 0 0 1-1.3-.857 2.268 2.268 0 0 1-.324 1.392 2.614 2.614 0 0 1-1.15 1.051 2.546 2.546 0 0 1-1.754.125 4.77 4.77 0 0 1-2.136-1.385.542.542 0 0 0-.043-.052 1.044 1.044 0 0 0-.134-.123 1.282 1.282 0 0 0-.234-.144 1.488 1.488 0 0 0-.343-.114 1.549 1.549 0 0 1-.5-.23 3.741 3.741 0 0 1-.6-.493 4.079 4.079 0 0 1-.558-.694 3.049 3.049 0 0 1-.375-.836s-.034-.067-.091-.171-.138-.245-.233-.392a4.082 4.082 0 0 0-.313-.433 1.177 1.177 0 0 0-.333-.292 2.433 2.433 0 0 1-.552-.557 10.483 10.483 0 0 1-.8-1.172 9.981 9.981 0 0 1-.744-1.515 5.327 5.327 0 0 1-.371-1.586l-.043-.073-.109-.206c-.047-.087-.1-.191-.169-.307s-.138-.243-.218-.377a2.436 2.436 0 0 1-.213-.838 8.145 8.145 0 0 1-.03-1.523 9.538 9.538 0 0 1 .333-1.929 8.451 8.451 0 0 1 .874-2.046c.107-.134.221-.262.319-.4a1.3 1.3 0 0 0 .219-.46 1.278 1.278 0 0 0-.023-.621 3.315 3.315 0 0 0-.407-.882 1.81 1.81 0 0 1-.091-.3 3.293 3.293 0 0 1-.07-.836 4.2 4.2 0 0 1 .251-1.255 5.859 5.859 0 0 1 .876-1.572 1.108 1.108 0 0 0 .132-.126 2.072 2.072 0 0 0 .283-.4 2.654 2.654 0 0 0 .263-.7 3.574 3.574 0 0 0 .073-1.032l.258-.3c.158-.181.372-.429.6-.7s.47-.557.682-.818.394-.5.5-.658a1.447 1.447 0 0 1-.557-.54 2.958 2.958 0 0 1-.356-.882 4.335 4.335 0 0 1-.11-1.072 4.45 4.45 0 0 1 .169-1.144l-1.616-1.506s.06-.06.153-.164.217-.252.344-.426a4.187 4.187 0 0 0 .365-.587 2.049 2.049 0 0 0 .213-.647Zm-1.826-4.079a3.447 3.447 0 0 0-.187 1.046 1.425 1.425 0 0 0 .188.764 1 1 0 0 0 .751.443 6.189 6.189 0 0 0 .968.087 1.056 1.056 0 0 0 .656-.194 1.112 1.112 0 0 0 .354-.677 5.67 5.67 0 0 0 .062-1.361l.646-4.62a.171.171 0 0 1-.036-.1.765.765 0 0 1 .074-.369 3.48 3.48 0 0 1 .457-.752 12.209 12.209 0 0 1 1.113-1.246l2.146-2.363a2.079 2.079 0 0 1 .787-.7 1.187 1.187 0 0 1 .757-.146.33.33 0 0 1 .254.437 2.43 2.43 0 0 1-.722 1.051 17.053 17.053 0 0 0-1.531 1.789 18.949 18.949 0 0 0-1.531 2.384 11.525 11.525 0 0 0-1.047 2.606 5.106 5.106 0 0 0-.08 2.455c.107.268.228.516.332.749a3.14 3.14 0 0 1 .232.659.983.983 0 0 1-.05.6 1.4 1.4 0 0 1-.514.568 1.815 1.815 0 0 0-.6.842 4.685 4.685 0 0 0-.269 1.144 7.279 7.279 0 0 0-.047 1.063 2.69 2.69 0 0 0 .065.6.29.29 0 0 0 .114.167.27.27 0 0 0 .177.035.711.711 0 0 0 .218-.066 1.725 1.725 0 0 0 .238-.136 1.411 1.411 0 0 1 .492-.152 3.407 3.407 0 0 1 1.909.258 3.227 3.227 0 0 1 1.037.752s.074.074.194.183.288.253.476.394a3.624 3.624 0 0 0 .6.374.988.988 0 0 0 .557.122c.161-.027.242-.046.282-.056s.04-.01.04 0a.113.113 0 0 0 .04.084 1 1 0 0 0 .282.184 1.065 1.065 0 0 0 .438.119.9.9 0 0 0 .338-.052.922.922 0 0 0 .217-.112.626.626 0 0 0 .077-.062l-1.18-1.717a.9.9 0 0 1-.244-.444.439.439 0 0 1 .056-.363.27.27 0 0 1 .335-.037 1.766 1.766 0 0 1 .6.524s.014.027.042.077.072.124.133.218.137.208.232.339.208.278.341.439a1.593 1.593 0 0 0 .5.447.929.929 0 0 0 .509.145.25.25 0 0 0 .247-.259 1.485 1.485 0 0 0-.287-.762s-.047-.054-.119-.142-.169-.213-.27-.354a4.617 4.617 0 0 1-.289-.454 1.64 1.64 0 0 1-.178-.444 1.257 1.257 0 0 1 .045-.531 1.239 1.239 0 0 1 .248-.5.245.245 0 0 1 .37-.039 1.784 1.784 0 0 1 .411.857 5.8 5.8 0 0 0 .669 1.271 2.363 2.363 0 0 0 .74.687 1.991 1.991 0 0 0 .841.245 4.276 4.276 0 0 0 .972-.057.813.813 0 0 1 .1-.082 1.71 1.71 0 0 1 .325-.173 2.462 2.462 0 0 1 .566-.152 3.517 3.517 0 0 1 .827-.02s.155-.094.391-.26a10.527 10.527 0 0 0 .885-.693 6.809 6.809 0 0 0 .944-1 2.955 2.955 0 0 0 .57-1.167.814.814 0 0 1 .382-.556.883.883 0 0 1 .572-.114.484.484 0 0 1 .39.249c.059.134.025.315-.163.53 0 0-.114.168-.31.428s-.474.612-.8.981a10.249 10.249 0 0 1-1.1 1.082 4.013 4.013 0 0 1-1.214.73c-.4.134-.591.275-.637.405s.051.251.219.345a1.73 1.73 0 0 0 .642.185 1.225 1.225 0 0 0 .633-.077 14.374 14.374 0 0 0 2.358-.074 3.34 3.34 0 0 0 1.612-.6 2.586 2.586 0 0 0 .888-1.442 8.64 8.64 0 0 0 .185-2.609 12 12 0 0 1 1.189-1.344 1.858 1.858 0 0 1 .676-.468c.141-.034.2.044.173.2a1.8 1.8 0 0 1-.321.649s-.04.121-.075.28a1.622 1.622 0 0 0-.046.512c.02.154.09.265.256.25a1.808 1.808 0 0 0 .829-.5 5.583 5.583 0 0 1 1.289-.825 7.706 7.706 0 0 1 1.289-.463c.4-.107.766-.174 1.048-.221s.484-.074.566-.1a.966.966 0 0 1 .315-.037 1.228 1.228 0 0 1 .366.064.518.518 0 0 1 .266.184.337.337 0 0 1 .016.325s-.034.02-.094.051a2.716 2.716 0 0 1-.631.224 2.157 2.157 0 0 1-.455.051c-.161 0-.349-.02-.559-.032a3.6 3.6 0 0 0-.69.017 2.54 2.54 0 0 0-.791.238 3.216 3.216 0 0 0-.86.631l-.751 1.077h-1.079s-.033.027-.083.077a1.748 1.748 0 0 0-.184.217 1.532 1.532 0 0 0-.184.337 1.215 1.215 0 0 0-.083.437 5.124 5.124 0 0 0-.292.594 1.094 1.094 0 0 0-.111.453c.013.094.087.115.251.011a4.833 4.833 0 0 0 .795-.734 6.979 6.979 0 0 1 1.543-.978 6.341 6.341 0 0 1 1.9-.531 6.97 6.97 0 0 1 2.242.113 9.785 9.785 0 0 1 2.574.958 2.72 2.72 0 0 1 .266.335.75.75 0 0 0 .245.243.411.411 0 0 0 .373-.018 2.565 2.565 0 0 0 .627-.452 4.268 4.268 0 0 1 .772-.558 1.661 1.661 0 0 1 .581-.217c.141-.013.218.033.2.143a1.226 1.226 0 0 1-.373.524c-.241.242-.489.471-.7.682a3.12 3.12 0 0 0-.492.581.4.4 0 0 0-.029.46 1.137 1.137 0 0 0 .687.318 6.882 6.882 0 0 1 .936.478c.2.129.29.226.283.287s-.111.084-.3.066a4.42 4.42 0 0 1-.812-.186 2.006 2.006 0 0 0-.908-.081 1.647 1.647 0 0 0-.636.242 1.765 1.765 0 0 0-.374.322 1.255 1.255 0 0 0-.122.161 3.817 3.817 0 0 1-.43.351 6.118 6.118 0 0 1-1.235.683 6.324 6.324 0 0 1-1.959.461 7.1 7.1 0 0 1-2.6-.314c.35.215.693.416 1.037.587a5.529 5.529 0 0 0 1.045.406 3.658 3.658 0 0 0 1.1.124 3.919 3.919 0 0 0 1.214-.258 3.059 3.059 0 0 1 .746-.065 2.063 2.063 0 0 1 .624.105c.161.06.261.144.261.246s-.1.223-.341.358a3.227 3.227 0 0 1-.908.333 4.474 4.474 0 0 1-1.292.071 6.933 6.933 0 0 1-1.702-.37 11.775 11.775 0 0 1-2.117-1 3.386 3.386 0 0 0 1.045 1.212 6.129 6.129 0 0 0 3.246 1.175 2.906 2.906 0 0 0 1.4-.238 1.282 1.282 0 0 1 .614-.127.5.5 0 0 1 .352.154.237.237 0 0 1 .03.275.555.555 0 0 1-.353.235 5.482 5.482 0 0 1-1.039.173 7.554 7.554 0 0 1-1.8-.079 8.038 8.038 0 0 1-2.289-.743 9.539 9.539 0 0 1-2.489-1.818c-.832-.832-1.348-1.174-1.636-1.214s-.348.221-.268.6a4.113 4.113 0 0 0 .577 1.281 1.965 1.965 0 0 0 .9.839s.161.147.447.374a14.1 14.1 0 0 0 1.193.846 11.719 11.719 0 0 0 1.715.906 7.461 7.461 0 0 0 2.015.554 5.239 5.239 0 0 1 1.815.534 4.226 4.226 0 0 1 1.271 1 4.1 4.1 0 0 1 .992 2.657s.074.121.163.3a3.5 3.5 0 0 1 .253.665 1.028 1.028 0 0 1-.008.665.612.612 0 0 1-.622.3 2.388 2.388 0 0 1 .54.2c.151.078.279.162.4.236a1.639 1.639 0 0 0 .36.177.885.885 0 0 0 .42.027 1.192 1.192 0 0 1 .716.255 4 4 0 0 1 .907.829 3.792 3.792 0 0 1 .685 1.252 2.8 2.8 0 0 1 .051 1.524 3.327 3.327 0 0 1 .268.277 3.952 3.952 0 0 1 .51.73 2.5 2.5 0 0 1 .309 1.032 1.907 1.907 0 0 1-.334 1.183 9.757 9.757 0 0 1-.659.88 3.281 3.281 0 0 0-.347.448.359.359 0 0 0-.006.347 3.952 3.952 0 0 0 .366.579s-.114-.054-.3-.153-.444-.243-.732-.424a9.791 9.791 0 0 1-.914-.645 5.752 5.752 0 0 1-.844-.816 3.628 3.628 0 0 0-.877-.751 6.26 6.26 0 0 0-.987-.5 8.051 8.051 0 0 0-.806-.277c-.206-.059-.333-.086-.333-.086a7.722 7.722 0 0 1-1.612-.962c-.208-.2-.135-.285.08-.3a3.315 3.315 0 0 1 .927.145 3.844 3.844 0 0 1 .927.366l.676.418c.233.144.471.291.706.439s.466.3.685.439.427.285.614.42a3.9 3.9 0 0 0 .658.478 1.477 1.477 0 0 0 .658.206.9.9 0 0 0 .618-.217 2.249 2.249 0 0 0 .691-1.86 2.591 2.591 0 0 0-.291-.889 3.5 3.5 0 0 0-.411-.607 2.65 2.65 0 0 0-.209-.225 2.1 2.1 0 0 0 .023-.659 2.78 2.78 0 0 0-.33-1.06 2.874 2.874 0 0 0-1.034-1.06 5.073 5.073 0 0 0-2.091-.657s-.06 0-.162-.005-.246-.015-.414-.035a5.29 5.29 0 0 1-.555-.1 3.508 3.508 0 0 1-.586-.187c-.188-.08-.376-.188-.547-.278a1.438 1.438 0 0 0-.446-.178.2.2 0 0 0-.244.185 2.108 2.108 0 0 0 .059.809c.268.322.6.759.9 1.18a9.058 9.058 0 0 1 .692 1.088c.127.262.117.379-.133.223a12.006 12.006 0 0 1-1.573-1.416 5.234 5.234 0 0 0-.432-.768 7.262 7.262 0 0 0-.613-.789 6.586 6.586 0 0 0-.733-.708 4.288 4.288 0 0 0-.794-.525 6.43 6.43 0 0 1-.912-.589c-.327-.245-.667-.527-.982-.809s-.607-.563-.84-.808a3.985 3.985 0 0 1-.487-.587.841.841 0 0 0-.387-.312 2.364 2.364 0 0 0-.539-.16 4.208 4.208 0 0 0-.479-.059c-.126-.008-.207-.008-.207-.008s-.047-.013-.124-.039-.184-.062-.3-.109-.254-.1-.385-.169a2.445 2.445 0 0 1-.365-.219.829.829 0 0 0-.391-.148 1.666 1.666 0 0 0-.481.013 2.64 2.64 0 0 0-.5.134 2.67 2.67 0 0 0-.449.216 3.657 3.657 0 0 1-.451.239 1.92 1.92 0 0 1-.582.149 2.22 2.22 0 0 1-.764-.071 4.1 4.1 0 0 1-.995-.423 8.713 8.713 0 0 0-1.833-.242 10.153 10.153 0 0 0-2.125.161 9.176 9.176 0 0 0-2.185.684 7.843 7.843 0 0 0-2.014 1.328c-.107.107-.234.241-.375.364a1.567 1.567 0 0 1-.458.293.62.62 0 0 1-.5-.009 1.187 1.187 0 0 1-.5-.542.873.873 0 0 0-.151-.152 1.5 1.5 0 0 0-.493-.263 2.212 2.212 0 0 0-.9-.082 4.336 4.336 0 0 0-1.358.391s-.537.456-1.284 1.2a24.983 24.983 0 0 0-2.542 2.959 10.567 10.567 0 0 0-1.836 3.687 3.589 3.589 0 0 0 .832 3.433s-.007.134 0 .357a5.98 5.98 0 0 0 .115.891 5.237 5.237 0 0 0 .381 1.152 4.005 4.005 0 0 0 .788 1.142 2.922 2.922 0 0 0 .981.71.611.611 0 0 0 .751-.186 2.62 2.62 0 0 0 .368-1.414 16.932 16.932 0 0 0-.166-2.972 11.316 11.316 0 0 1-.064-1.557 3.839 3.839 0 0 1 .267-1.315 3.038 3.038 0 0 1 .81-1.114 5.9 5.9 0 0 1 1.564-.952 12.984 12.984 0 0 0 1.535-.774 3.3 3.3 0 0 0 .759-.595 1.038 1.038 0 0 0 .255-.474 1.852 1.852 0 0 0 .025-.413 1.962 1.962 0 0 1 .044-.419.5.5 0 0 1 .145-.29c.067-.047.154-.031.265.091a2.746 2.746 0 0 1 .4.725.779.779 0 0 0 .052.2 1.1 1.1 0 0 0 .284.409 1.537 1.537 0 0 0 .707.349 3.618 3.618 0 0 0 1.32.016c.563.107 1.348.22 2.244.39a23.365 23.365 0 0 1 2.908.722 12.311 12.311 0 0 1 2.909 1.346 7.073 7.073 0 0 1 2.245 2.262 15.092 15.092 0 0 1 1.091 2.066c.178.456.184.7.063.778s-.369 0-.7-.187a11.361 11.361 0 0 1-1.2-.831 8.965 8.965 0 0 0-2.531-1.1 26.073 26.073 0 0 0-4.111-.882 21.6 21.6 0 0 0-4.574-.157 9.536 9.536 0 0 0-3.919 1.07 2.933 2.933 0 0 0-.953.446 1.8 1.8 0 0 0-.63.708.648.648 0 0 0 .135.748 2.521 2.521 0 0 0 1.343.566 13.215 13.215 0 0 1 1.523.611 8.819 8.819 0 0 1 1.494.893 5.28 5.28 0 0 1 1.192 1.214 3.627 3.627 0 0 1 .618 1.576s.054.107.151.268a5.274 5.274 0 0 0 .413.59 3.1 3.1 0 0 0 .614.59 1.337 1.337 0 0 0 .756.268 3.3 3.3 0 0 0 .691-.055c.183-.042.306-.112.34-.226s-.023-.272-.2-.488a5.986 5.986 0 0 0-.936-.842l-1.291-1.721s-.014-.06-.041-.157-.068-.231-.122-.378a3.621 3.621 0 0 0-.2-.458 1.7 1.7 0 0 0-.282-.4 1.013 1.013 0 0 1-.232-.383.53.53 0 0 1-.021-.343c.034-.081.111-.115.239-.061a1.782 1.782 0 0 1 .55.462 6.064 6.064 0 0 1 .657.913c.2.329.384.671.566.993a8.12 8.12 0 0 0 .545.872 1.793 1.793 0 0 0 .6.55c.214.107.422.235.638.362a6.172 6.172 0 0 0 .69.362 3.325 3.325 0 0 0 .831.242 3.743 3.743 0 0 0 1.063 0 4.4 4.4 0 0 1 .981-.041 1.871 1.871 0 0 1 .68.189 3.271 3.271 0 0 1 .6.41c.211.173.446.381.741.622a1.53 1.53 0 0 0 .7.35 4.429 4.429 0 0 0 .987.118 6.638 6.638 0 0 0 1.028-.062 4.094 4.094 0 0 0 .826-.192 4.037 4.037 0 0 0 .762-.055 1.3 1.3 0 0 0 .764-.387 1.147 1.147 0 0 0 .161-1.051 6.306 6.306 0 0 0-1.044-2.045 4.013 4.013 0 0 1-.445-1.1 3.549 3.549 0 0 1-.133-1.044c.02-.255.111-.376.29-.239a4.166 4.166 0 0 1 .824 1.311l.257.359.589.822.649.9c.2.272.357.493.437.6a7.139 7.139 0 0 1 .342.73 5.476 5.476 0 0 0 .7 1.163 3.56 3.56 0 0 0 1.308 1.022 4.222 4.222 0 0 0 2.152.306 31.43 31.43 0 0 0 3.194.033 14.644 14.644 0 0 0 3.263-.49 7.451 7.451 0 0 0 2.8-1.416 5.8 5.8 0 0 0 1.8-2.745s.087-.134.231-.339.344-.48.572-.761a7.637 7.637 0 0 1 .733-.8 1.853 1.853 0 0 1 .715-.459 2.678 2.678 0 0 0 .853-.442 4.368 4.368 0 0 0 .985-1.006 4.228 4.228 0 0 0 .684-1.57 4.905 4.905 0 0 0-.049-2.134 6.819 6.819 0 0 1-.149-1.469 10.287 10.287 0 0 1 .098-1.354c.053-.4.12-.745.173-.986s.094-.382.094-.382.061-.141.148-.317a3.552 3.552 0 0 1 .309-.528c.108-.141.208-.211.269-.106a2.1 2.1 0 0 1 .027.951c-.054.564-.115 1.053-.169 1.484s-.1.8-.127 1.132a4.756 4.756 0 0 0-.007.87 2 2 0 0 0 .194.7 6.765 6.765 0 0 0 .333.626.682.682 0 0 0 .393.343c.148.027.316-.054.514-.3a5.744 5.744 0 0 0 .7-1.31 6.78 6.78 0 0 0 .538-1.022 6.478 6.478 0 0 0 .4-1.365 8.546 8.546 0 0 0 .117-1.807 13.558 13.558 0 0 0-.306-2.351 15.39 15.39 0 0 1-.308-2.581 10.923 10.923 0 0 1 .082-1.956c.074-.47.184-.718.3-.627s.246.52.354 1.405a.866.866 0 0 0 .123.156.35.35 0 0 0 .294.126c.114-.02.238-.13.354-.417a5.88 5.88 0 0 0 .3-1.472 20.283 20.283 0 0 0 .059-2.742c-.035-1.058-.119-2.216-.233-3.336s-.258-2.2-.414-3.115a12.984 12.984 0 0 0-.485-2.08 5.168 5.168 0 0 1-.172-1.148 1.6 1.6 0 0 1 .091-.715c.067-.114.168-.077.292.19a7.718 7.718 0 0 1 .433 1.568s.034.161.091.429.138.644.232 1.074.2.913.313 1.4.225.966.333 1.4.282 1.1.444 1.921a20.937 20.937 0 0 1 .374 2.827 13.224 13.224 0 0 1-.17 3.19 7.941 7.941 0 0 1-1.187 2.997s.074.067.19.19a6.339 6.339 0 0 1 .441.522 5.686 5.686 0 0 1 .5.783 4.067 4.067 0 0 1 .37.974s.081.087.191.191a2.123 2.123 0 0 0 .373.292c.121.067.222.08.252-.03a1.609 1.609 0 0 0-.172-.775 9.992 9.992 0 0 1-.591-.878 7.466 7.466 0 0 1-.36-.677c-.087-.188-.144-.335-.179-.436s-.049-.154-.049-.154a2.407 2.407 0 0 1-.141-.7 1.044 1.044 0 0 1 .071-.525c.06-.1.157-.1.293.059a4.039 4.039 0 0 1 .525 1.055 4.962 4.962 0 0 0 .786 1.024c.222.206.4.283.5.25s.148-.178.1-.414a3.253 3.253 0 0 0-.422-.968s-.013-.033-.044-.1-.077-.152-.144-.266-.154-.251-.265-.407-.245-.331-.406-.519a2.252 2.252 0 0 1-.369-.611.915.915 0 0 1-.087-.49c.027-.107.114-.141.276-.047a3.12 3.12 0 0 1 .719.718l.073.075a13.74 13.74 0 0 1 .778.888 1.65 1.65 0 0 0 .368.336.4.4 0 0 0 .306.095c.067-.027.087-.12.023-.308a4.186 4.186 0 0 0-.48-.872l-1.389-1.601s-.08-.141-.171-.324a3.128 3.128 0 0 1-.231-.576c-.04-.168-.02-.279.131-.234a3.2 3.2 0 0 1 .916.7l.856.862s.134.094.313.2a2.916 2.916 0 0 0 .575.28c.175.053.3.039.293-.122a2.641 2.641 0 0 0-.534-1.006s-.04-.053-.109-.14a11.458 11.458 0 0 0-.662-.763 4.657 4.657 0 0 0-.41-.384 1.1 1.1 0 0 1-.105-.064 2.038 2.038 0 0 1-.256-.2 2.331 2.331 0 0 1-.317-.365 2.463 2.463 0 0 1-.288-.545c-.081-.215-.142-.37-.17-.468s-.026-.138.021-.124a1.28 1.28 0 0 1 .284.2c.146.118.348.285.617.5 0 0 .02.027.06.072a2.514 2.514 0 0 0 .181.182 3.078 3.078 0 0 0 .3.243 3.235 3.235 0 0 0 .423.253.789.789 0 0 0 .5.069.54.54 0 0 0 .37-.243.532.532 0 0 0-.011-.5 2.077 2.077 0 0 0-.643-.715c-.349-.269-.652-.524-.909-.756s-.469-.44-.637-.615-.292-.316-.375-.414-.123-.151-.123-.151a5.953 5.953 0 0 1-.505-.563c-.117-.154-.178-.268-.164-.321s.1-.046.279.041a6.6 6.6 0 0 1 .824.524c.375.268.749.529 1.083.741a4.218 4.218 0 0 0 .832.44c.208.067.332.041.33-.123a2.409 2.409 0 0 0-.423-.948c-.3-.484-.564-.894-.8-1.236s-.441-.618-.609-.832-.3-.369-.388-.469-.136-.147-.136-.147a4.8 4.8 0 0 1-.885-.9c-.188-.26-.268-.465-.241-.565s.162-.1.4.058a5.787 5.787 0 0 1 1.046.973 4.664 4.664 0 0 0 1.115.98c.283.154.474.148.562.013a.934.934 0 0 0-.063-.752 5.676 5.676 0 0 0-.757-1.316c-.8-.617-1.5-1.167-2.019-1.6a4.571 4.571 0 0 1-.932-.93c-.08-.167.094-.177.6.016a28.5 28.5 0 0 1 2.57 1.233.309.309 0 0 0 .109-.023.183.183 0 0 0 .118-.164.771.771 0 0 0-.183-.446 5.754 5.754 0 0 0-.8-.869c-.4-.376-.765-.678-1.047-.909a6.334 6.334 0 0 1-.564-.486c-.08-.094-.04-.121.161-.084s.564.137 1.128.3c0 0 .121.054.265.109a1.812 1.812 0 0 0 .405.119c.094.007.114-.037-.037-.183a9.333 9.333 0 0 0-1.063-.8 1.952 1.952 0 0 1-.815-.331 2.4 2.4 0 0 1-.553-.553 3.948 3.948 0 0 1-.352-.594c-.091-.184-.158-.345-.212-.452a2.11 2.11 0 0 1-.127-.288.358.358 0 0 1-.006-.236.467.467 0 0 1 .2-.215 2.393 2.393 0 0 1 .477-.226s.054-.02.139-.057.2-.091.33-.158a3.332 3.332 0 0 0 .39-.239 1.481 1.481 0 0 0 .319-.3 1.646 1.646 0 0 0 .148-.232c.027-.05.04-.077.067-.091a.338.338 0 0 1 .148-.01c.081 0 .2.01.39.01a1.079 1.079 0 0 0 .42-.076.387.387 0 0 0 .186-.147.3.3 0 0 0 .046-.147.259.259 0 0 0 0-.067s.033 0 .089 0 .132-.01.219-.024a1.885 1.885 0 0 0 .28-.064 1.075 1.075 0 0 0 .271-.126 1.3 1.3 0 0 0 .312-.357 1.886 1.886 0 0 0 .263-.649 1.347 1.347 0 0 0-.078-.79 1.775 1.775 0 0 0-.71-.779 7.505 7.505 0 0 1-1.141-.929 11.508 11.508 0 0 1-1.06-1.19 9.507 9.507 0 0 1-.818-1.231 3.716 3.716 0 0 1-.416-1.051c-.054-.3-.1-.657-.191-1.055a5.354 5.354 0 0 0-.452-1.269 4.448 4.448 0 0 0-.984-1.286 6.157 6.157 0 0 0-1.816-1.115 15.054 15.054 0 0 0-1.492-1.494 5.141 5.141 0 0 0-2.318-1.122 6.492 6.492 0 0 0-3.526.427 18.913 18.913 0 0 0-5.116 3.154 2.832 2.832 0 0 1-.3.1 3.928 3.928 0 0 1-.767.129 3.092 3.092 0 0 1-1.009-.093 2.463 2.463 0 0 1-1.03-.566 2.282 2.282 0 0 0-1.184-.53 5.112 5.112 0 0 0-1.366-.018 9.821 9.821 0 0 0-1.164.2c-.312.072-.527.132-.581.132 0 0-.376-.02-.968-.028s-1.4 0-2.266.042a18.638 18.638 0 0 0-2.607.3 5.06 5.06 0 0 0-1.993.756s-.054.007-.143.009a2.235 2.235 0 0 1-.354-.021 1.861 1.861 0 0 1-.455-.122 1.374 1.374 0 0 1-.445-.294 1.8 1.8 0 0 0-1.116-.145 10.862 10.862 0 0 0-1.976.324 9.225 9.225 0 0 0-2.015.746 2.636 2.636 0 0 0-1.229 1.118s-.155.235-.393.552a9.568 9.568 0 0 1-.9 1.045 2.014 2.014 0 0 1-.977.623c-.292.036-.527-.152-.633-.714 0 0-.054-.094-.149-.237a5.6 5.6 0 0 0-.4-.529 3.483 3.483 0 0 0-.581-.549 1.488 1.488 0 0 0-.691-.3 1.271 1.271 0 0 0-.175-.255 1.493 1.493 0 0 0-.577-.416 1.755 1.755 0 0 0-1.06-.054 4.415 4.415 0 0 0-1.623.831s-.121.141-.316.357-.463.509-.758.811-.617.614-.919.871a3.145 3.145 0 0 1-.8.539 2.736 2.736 0 0 0-.819.584 7.158 7.158 0 0 0-.98 1.187 8.277 8.277 0 0 0-.859 1.669 7.29 7.29 0 0 0-.455 2.032c-.054.725-.114 1.362-.175 1.911s-.121 1.008-.175 1.378-.1.648-.135.834l-.054.28m1.829 21.15 3.433-3.222a1.542 1.542 0 0 1-.264-1.028 3.364 3.364 0 0 1 .319-1.163 5.583 5.583 0 0 1 .641-1.058 3.926 3.926 0 0 1 .7-.727 1.4 1.4 0 0 1 .106-.31 2.626 2.626 0 0 1 .5-.723 3.985 3.985 0 0 1 1.162-.824 7.283 7.283 0 0 1 2.1-.614l.21-.018a29.308 29.308 0 0 0 1.1-.116c.194-.025.377-.052.511-.078a6.021 6.021 0 0 1 .778-.077 9.584 9.584 0 0 1 1.262.023 5.7 5.7 0 0 1 1.343.265 2.243 2.243 0 0 1 1.021.648l.107.087a9.757 9.757 0 0 0 .617.455 3.4 3.4 0 0 0 .35.208 4.645 4.645 0 0 1 .717.643c.337.342.735.778 1.09 1.207a7.476 7.476 0 0 1 .83 1.167c.163.315.177.523-.063.523a.364.364 0 0 0 .077.041.582.582 0 0 0 .217.041.8.8 0 0 0 .338-.08 1.549 1.549 0 0 0 .439-.321 1.135 1.135 0 0 1 .519-.3 1.564 1.564 0 0 1 .568-.032 4.829 4.829 0 0 1 .589.11c.2.046.391.093.579.121s.49.066.791.095a4.466 4.466 0 0 0 .78.024c.181-.02.244-.078.075-.2a6.766 6.766 0 0 0-1.323-.568 1.405 1.405 0 0 0-.138-.082 2.751 2.751 0 0 0-.4-.173 3.4 3.4 0 0 0-.641-.153 3.87 3.87 0 0 0-.862-.021s-.06-.027-.164-.084a4.892 4.892 0 0 1-.426-.265 5.835 5.835 0 0 1-.587-.466 5.953 5.953 0 0 1-.649-.687 1.151 1.151 0 0 1-.3-.581.2.2 0 0 1 .187-.209.879.879 0 0 1 .407.052.962.962 0 0 1 .356.2.675.675 0 0 1 .151.308 1.385 1.385 0 0 0 .159.389 1.139 1.139 0 0 0 .461.389 3.666 3.666 0 0 0 1.055.309c.483.081.926.128 1.34.192a5.276 5.276 0 0 1 1.169.292 3.278 3.278 0 0 1 1.069.693 5.97 5.97 0 0 1 1.039 1.4 11.636 11.636 0 0 0 1.081 1.611 6.961 6.961 0 0 0 1.131 1.128 4.133 4.133 0 0 0 1.152.645 2.84 2.84 0 0 0 1.143.163 7.692 7.692 0 0 0 1.695.447 2.462 2.462 0 0 0 1.15-.074.735.735 0 0 0 .505-.557 1.575 1.575 0 0 0-.24-1s-.04-.047-.1-.128a3.909 3.909 0 0 1-.221-.329 2.812 2.812 0 0 1-.221-.45 1.427 1.427 0 0 1-.1-.49 2 2 0 0 0-.035-.463.879.879 0 0 0-.247-.434 2.111 2.111 0 0 0-.67-.414 8.2 8.2 0 0 0-1.3-.4s-.1-.054-.265-.129-.392-.173-.647-.26a4.216 4.216 0 0 0-.807-.2 1.572 1.572 0 0 0-.746.054s-.041-.027-.106-.074-.157-.114-.258-.195-.212-.175-.317-.276a2.508 2.508 0 0 1-.285-.317 1.455 1.455 0 0 0-.334-.3 3.9 3.9 0 0 0-.474-.273c-.175-.087-.363-.171-.554-.253s-.386-.163-.575-.243a4.3 4.3 0 0 1-.746-.468c-.3-.22-.633-.491-.968-.78s-.67-.594-.969-.88-.56-.555-.748-.769a2.774 2.774 0 0 0-1.088-.6 14.23 14.23 0 0 0-1.811-.488 28.2 28.2 0 0 0-3.865-.525 4.113 4.113 0 0 0-.575-.077 10.1 10.1 0 0 0-1.692.023 16.421 16.421 0 0 0-2.759.506 24.549 24.549 0 0 0-3.784 1.367 3.168 3.168 0 0 0-.708.395 3.242 3.242 0 0 0-.538.5 3.9 3.9 0 0 0-.4.565 5.288 5.288 0 0 0-.288.575 4.907 4.907 0 0 1-.363.658c-.154.242-.335.5-.523.738a8.232 8.232 0 0 1-.563.657 2.565 2.565 0 0 1-.483.414 3.494 3.494 0 0 0-.663 1 19.824 19.824 0 0 0-.866 1.891 10.684 10.684 0 0 0-.585 1.871c-.094.519-.06.882.182.936m1.72-11.913s-.007.107 0 .246a1.377 1.377 0 0 0 .081.438c.054.127.141.211.282.176s.335-.19.6-.539l.022-.055a1.614 1.614 0 0 1 .072-.146 1.968 1.968 0 0 1 .132-.206 2.056 2.056 0 0 1 .2-.236.62.62 0 0 0 .122-.422 1.259 1.259 0 0 0-.121-.543.493.493 0 0 0-.362-.3.771.771 0 0 0-.6.3l-.052.156-.122.367-.142.427-.113.337m3.221-.214s-.007.107 0 .247a1.96 1.96 0 0 0 .046.438c.034.127.091.211.187.176s.23-.19.419-.539c0 0-.04-.067-.1-.156a2.577 2.577 0 0 0-.222-.287c-.081-.087-.162-.151-.222-.146s-.1.079-.1.267m20.71-1.292a3.114 3.114 0 0 0 .144.3 1.83 1.83 0 0 0 .366.492.376.376 0 0 0 .487.068 1.753 1.753 0 0 0 .507-.969 2.644 2.644 0 0 0 .256-.671 1.613 1.613 0 0 0 .037-.67.391.391 0 0 0-.325-.348 1.338 1.338 0 0 0-.829.3.911.911 0 0 0-.116.084 1.437 1.437 0 0 0-.247.264 1.5 1.5 0 0 0-.227.466 1.8 1.8 0 0 0-.055.688m5.58-1.609s.013.127.022.332a7.612 7.612 0 0 1-.008.795 4.879 4.879 0 0 1-.149.956 2.067 2.067 0 0 1-.4.815.466.466 0 0 0 .153 0 1.167 1.167 0 0 0 .424-.15 2.664 2.664 0 0 0 .646-.532 6.436 6.436 0 0 0 .818-1.146l-.1-.077-.291-.218a29.594 29.594 0 0 0-1.114-.776M45.359 62.643c.3.134.456.141.531.075s.064-.2.016-.356a2.643 2.643 0 0 0-.2-.457c-.073-.132-.133-.226-.133-.226a2.087 2.087 0 0 0-.778-.432c-.135-.015-.166.075-.145.2a1.679 1.679 0 0 0 .156.424c.065.132.125.233.125.233Zm-2.258-.108c.3.108.464.069.55-.052a.771.771 0 0 0 .056-.537 3.588 3.588 0 0 0-.166-.618 5.304 5.304 0 0 0-.116-.3 1.817 1.817 0 0 0-.758-.537.243.243 0 0 0-.3.176 1.155 1.155 0 0 0-.042.438 2.2 2.2 0 0 0 .028.246 2.383 2.383 0 0 0 .208.546 2.019 2.019 0 0 0 .248.365 1.63 1.63 0 0 0 .208.2.844.844 0 0 0 .087.064m-2.149-.536a1.246 1.246 0 0 0 .213-.072.947.947 0 0 0 .365-.262.581.581 0 0 0 .1-.524 1.965 1.965 0 0 0-.57-.857 1.342 1.342 0 0 0-.791-.488.4.4 0 0 0-.379.287 1.725 1.725 0 0 0-.117.549 2.7 2.7 0 0 0-.005.3 2.155 2.155 0 0 0 .365.619 1.43 1.43 0 0 0 .386.318 1.125 1.125 0 0 0 .305.117.65.65 0 0 0 .124.017m-3.109-.107a.6.6 0 0 0 .464.185.593.593 0 0 0 .434-.238.962.962 0 0 0 .173-.64 2.441 2.441 0 0 0-.32-1.023 1.617 1.617 0 0 0-.61-.717.4.4 0 0 0-.478.058.922.922 0 0 0-.257.522 1.307 1.307 0 0 0 .054.673 2.268 2.268 0 0 0 .13.456 3.02 3.02 0 0 0 .18.375 3.563 3.563 0 0 0 .229.349m-2.576.107c.4.269.656.3.812.2a.724.724 0 0 0 .22-.6 3.97 3.97 0 0 0-.081-.8c-.045-.235-.092-.4-.092-.4-.268-.456-.49-.671-.671-.736a.361.361 0 0 0-.43.159 1.593 1.593 0 0 0-.229.5 2.658 2.658 0 0 0-.067.29 3.272 3.272 0 0 0 .129.626 2.562 2.562 0 0 0 .18.434 1.855 1.855 0 0 0 .16.253.866.866 0 0 0 .069.082m-1.4.536a.5.5 0 0 0 .375-.42 1.234 1.234 0 0 0-.118-.612 3.535 3.535 0 0 0-.3-.551c-.1-.146-.169-.24-.169-.24a1.2 1.2 0 0 0-.762-.443.487.487 0 0 0-.419.282 1.7 1.7 0 0 0-.177.524 2.431 2.431 0 0 0-.037.282 2.183 2.183 0 0 0 .115.773.817.817 0 0 0 .326.421.9.9 0 0 0 .507.119 2.307 2.307 0 0 0 .658-.133m-2.466.861a1.83 1.83 0 0 0 .538.057c.1-.016.123-.066.1-.154a1.889 1.889 0 0 0-.193-.373 8.264 8.264 0 0 1-.338-.6c-.133-.269-.247-.37-.342-.371s-.173.1-.234.234a2.279 2.279 0 0 0-.134.436c-.029.134-.043.235-.043.235a1.112 1.112 0 0 0 .194.4.444.444 0 0 0 .212.15.359.359 0 0 0 .171.009.3.3 0 0 0 .07-.021m3.434-13.1c-.08.3-.147.564-.2.8s-.1.441-.132.609-.057.3-.072.388l-.022.136c.269.4.437.563.542.551s.149-.2.169-.485.017-.681.029-1.109a8.491 8.491 0 0 1 .121-1.321 1.767 1.767 0 0 1 .27-.774.183.183 0 0 1 .28-.029.946.946 0 0 1 .22.293 1.934 1.934 0 0 1 .089.191 1.274 1.274 0 0 1 .5-.564 4.065 4.065 0 0 1 .8-.4 7.5 7.5 0 0 1 .736-.242c.2-.054.324-.081.324-.081a3.884 3.884 0 0 0 1.1-.31c.105-.075-.005-.126-.2-.159a5.928 5.928 0 0 0-.7-.059c-.23-.008-.411-.008-.411-.008s-.1-.02-.26-.042a5.86 5.86 0 0 0-.612-.052 3.26 3.26 0 0 0-.712.049 1.08 1.08 0 0 0-.559.259 1.157 1.157 0 0 1-.479.277 2.056 2.056 0 0 1-.529.086 2.956 2.956 0 0 1-.428-.015c-.109-.012-.176-.025-.176-.025a3.16 3.16 0 0 0-.8.419c-.106.1-.075.152.012.186a1.181 1.181 0 0 0 .354.044c.123 0 .223-.006.223-.006a.542.542 0 0 1 .31.007.44.44 0 0 1 .24.208.929.929 0 0 1 .1.449 2.743 2.743 0 0 1-.113.731m50.016.646a27.24 27.24 0 0 1-.1 4.256A25.513 25.513 0 0 1 84.082 59a27.073 27.073 0 0 1-1.124 3.39 33.062 33.062 0 0 1-1.428 3.049 3.2 3.2 0 0 0 .676.4c.272.126.574.244.856.344s.544.184.735.243.312.092.312.092a2.084 2.084 0 0 0 2.142-.076 4.644 4.644 0 0 0 1.46-1.745 11.871 11.871 0 0 0 .844-2.037c.183-.578.27-.981.27-.981a30.308 30.308 0 0 0 1.128-6.318 54.305 54.305 0 0 0 .092-6.791c-.1-2.247-.312-4.431-.571-6.409s-.563-3.748-.863-5.175a8.413 8.413 0 0 0-2.461-1.245 2.371 2.371 0 0 0-1.433-.017 1.366 1.366 0 0 0-.668.507 1.173 1.173 0 0 0-.164.326 24.083 24.083 0 0 1 .649 4.014c.146 1.545.229 3.212.276 4.749s.056 2.942.054 3.964-.016 1.659-.016 1.659m-1.18.535a21.069 21.069 0 0 1-.223 3.4c-.156 1.107-.373 2.16-.594 3.072s-.44 1.681-.61 2.224-.283.858-.283.858a14.3 14.3 0 0 1-1.516 3.588 22.717 22.717 0 0 1-2.081 2.974c-.7.852-1.356 1.546-1.84 2.028s-.792.75-.792.75a24.813 24.813 0 0 1-3.45 3.26 29.254 29.254 0 0 1-3.551 2.363c-1.167.664-2.3 1.217-3.35 1.7s-2.016.89-2.847 1.265c-.591.376-.826.592-.846.7s.174.118.442.078a7.961 7.961 0 0 0 .885-.2c.275-.077.483-.144.483-.144a33.477 33.477 0 0 0 9.58-5.368 29.02 29.02 0 0 0 2.466-2.211c.554-.56.835-.9.835-.9a26 26 0 0 0 3.144-3.434 21.87 21.87 0 0 0 1.9-2.951 16.524 16.524 0 0 0 .933-2.066 7.854 7.854 0 0 0 .248-.778 39.445 39.445 0 0 0 1.084-3.872c.252-1.127.406-2.087.5-2.865s.128-1.375.138-1.777 0-.61 0-.61c.081-1.235.094-2.61.057-4.054s-.124-2.957-.244-4.466-.275-3.015-.446-4.445-.358-2.785-.546-3.992a1.964 1.964 0 0 0-.226-.873c-.111-.181-.245-.256-.366-.229s-.228.154-.284.375a2.17 2.17 0 0 0 .018.939 13.944 13.944 0 0 1 .639 2.569c.184 1.073.338 2.341.458 3.737s.207 2.918.257 4.5.063 3.227.037 4.864m6.872-4.185a28 28 0 0 1 .248 5.7 40.283 40.283 0 0 1-.608 5.1c-.275 1.509-.587 2.78-.83 3.673s-.418 1.41-.418 1.41a52.907 52.907 0 0 1-2.93 5.831 26.677 26.677 0 0 1-2.352 3.422 11.787 11.787 0 0 1-1.566 1.61 3.512 3.512 0 0 1-.569.4 18.908 18.908 0 0 1-2.913 2.954 30.458 30.458 0 0 1-3.36 2.388c-1.127.7-2.227 1.295-3.2 1.784s-1.818.872-2.435 1.14a3.921 3.921 0 0 0-1.084.842c-.136.191-.079.3.075.338a1.363 1.363 0 0 0 .658-.064 1.662 1.662 0 0 0 .668-.364 31.648 31.648 0 0 0 5.129-2.514 34.775 34.775 0 0 0 3.849-2.7 32.01 32.01 0 0 0 2.42-2.162c.552-.548.84-.884.84-.884a26.148 26.148 0 0 0 3.8-4.138 24.817 24.817 0 0 0 2.291-3.766 21.1 21.1 0 0 0 1.124-2.739c.218-.669.3-1.059.3-1.059a17.254 17.254 0 0 0 1.355-4.734 42.566 42.566 0 0 0 .47-5.284 62.965 62.965 0 0 0-.108-6.076 8.269 8.269 0 0 0 .053-1.831c-.042-.777-.139-1.706-.28-2.746s-.326-2.19-.542-3.409-.465-2.507-.733-3.822a3.007 3.007 0 0 0-.208-.816c-.081-.171-.168-.245-.249-.232s-.155.114-.209.292a2.719 2.719 0 0 0-.088.756c.322 1.5.571 2.984.762 4.362a73.612 73.612 0 0 1 .598 6.353c.03.627.037.983.037.983m2.039-5.691a8.62 8.62 0 0 1 .909 1.263 2.8 2.8 0 0 1 .326.79.86.86 0 0 1 0 .408.281.281 0 0 1-.057.116 4.1 4.1 0 0 0 .47 1.825 7.248 7.248 0 0 0 1.033 1.5 10.271 10.271 0 0 0 1.033 1.019c.282.241.47.376.47.376a9.147 9.147 0 0 0-.007-3.3 37.739 37.739 0 0 0-.853-4.128c-.349-1.355-.726-2.609-1.015-3.524s-.491-1.492-.491-1.492a1.674 1.674 0 0 0-.533-.109c-.231-.021-.5-.027-.754-.028s-.5.006-.673.013l-.291.013a1.839 1.839 0 0 0-1.08.853 2.028 2.028 0 0 0-.155 1.3 5.017 5.017 0 0 0 .57 1.536 9.61 9.61 0 0 0 1.094 1.575m.644 5.691s.067.087.169.23.24.34.38.561a7.408 7.408 0 0 1 .4.7 2.339 2.339 0 0 1 .229.652c.028.188.069.422.134.714s.157.641.284 1.057.292.9.505 1.459.475 1.2.8 1.922a7.977 7.977 0 0 0 .627 1.24c.11.146.137.069.122-.1a5.208 5.208 0 0 0-.119-.642c-.051-.216-.1-.391-.1-.391a1.668 1.668 0 0 0 .287-.783 1.128 1.128 0 0 0-.108-.572 1.28 1.28 0 0 0-.25-.35 1.026 1.026 0 0 0-.139-.119l-1.29-1.824a1.416 1.416 0 0 1-.045-.528c.022-.112.079-.163.166-.157a.724.724 0 0 1 .348.186 4.289 4.289 0 0 1 .5.5c.455.429.7.589.819.589s.1-.162.025-.376a5.579 5.579 0 0 0-.316-.7c-.112-.215-.206-.376-.206-.376a14.475 14.475 0 0 1-1.494-1.341 5 5 0 0 1-.719-.939 5.114 5.114 0 0 1-.336-.738 4.667 4.667 0 0 0-.346-.74 1.356 1.356 0 0 1-.207-.735 4.128 4.128 0 0 1 .085-.644 1.338 1.338 0 0 0-.017-.631 1.44 1.44 0 0 0-.508-.677 2.316 2.316 0 0 0-.691-.63c-.126-.045-.163.045-.157.186a2.2 2.2 0 0 0 .105.488c.049.156.1.277.1.277.054.269.142.6.242.957s.215.722.322 1.057.207.637.281.855l.12.352m-24.795 33.7a1.377 1.377 0 0 0 .405.35.353.353 0 0 0 .265.037.3.3 0 0 0 .145-.1.335.335 0 0 0 .044-.073 4.947 4.947 0 0 0 1.539-.675c.614-.362 1.291-.824 1.921-1.28s1.214-.905 1.64-1.241.694-.557.694-.557a1.135 1.135 0 0 0 .575-.512.655.655 0 0 0-.01-.522 1.842 1.842 0 0 0-.292-.461c-.111-.136-.219-.249-.273-.329a.593.593 0 0 0-.228-.2.814.814 0 0 0-.319-.086.769.769 0 0 0-.34.055.69.69 0 0 0-.29.226 6.933 6.933 0 0 1-.937.74c-.5.357-1.139.8-1.79 1.233s-1.311.869-1.849 1.212-.953.6-1.114.679a1.017 1.017 0 0 0-.339.252.527.527 0 0 0-.117.242.461.461 0 0 0 0 .182.341.341 0 0 0 .023.072Zm-5.043 2.255h.859l-.326-1.83h-.964Zm-12.662 4.294a5.993 5.993 0 0 0 .429 2.238 5.711 5.711 0 0 0 1.233 1.884 5.8 5.8 0 0 0 1.958 1.3 6.89 6.89 0 0 0 2.6.484 6.255 6.255 0 0 0 2.569-.52 5.485 5.485 0 0 0 1.885-1.386 6.073 6.073 0 0 0 1.16-1.989 6.958 6.958 0 0 0 .4-2.33 5.629 5.629 0 0 0-.44-2.187 6.259 6.259 0 0 0-1.063-1.693 6.58 6.58 0 0 0-1.3-1.149 3.965 3.965 0 0 0-1.162-.554l-.436 2.044c.108.054.289.128.5.25a2.864 2.864 0 0 1 .681.541 2.967 2.967 0 0 1 .6 1 4.744 4.744 0 0 1 .258 1.639 6.169 6.169 0 0 1-.211 1.736 2.816 2.816 0 0 1-.674 1.2 2.782 2.782 0 0 1-1.2.7 6.067 6.067 0 0 1-1.781.226 3.7 3.7 0 0 1-1.733-.389 3.168 3.168 0 0 1-1.1-.952 4.188 4.188 0 0 1-.6-1.194 5.076 5.076 0 0 1-.224-1.113 2.653 2.653 0 0 1 .11-.974 3.68 3.68 0 0 1 .442-.944 4.638 4.638 0 0 1 .7-.843 4.848 4.848 0 0 1 .9-.672l-.434-2.147a2.65 2.65 0 0 0-1.406.468 5.166 5.166 0 0 0-1.315 1.262 6.875 6.875 0 0 0-.973 1.846 6.77 6.77 0 0 0-.38 2.218m5.9-3.647c.375.348.657.375.868.219a1.578 1.578 0 0 0 .446-.877 7.084 7.084 0 0 0 .164-1.138c.023-.33.023-.565.023-.565a2.123 2.123 0 0 0-1.047-.827.816.816 0 0 0-.736.169 1.778 1.778 0 0 0-.435.552 2.32 2.32 0 0 0-.143.32 1.864 1.864 0 0 0 .089.742 3.761 3.761 0 0 0 .3.693 5.411 5.411 0 0 0 .32.512c.089.126.149.2.149.2M33.228 50.835l-.323.86.859-.106a.686.686 0 0 1-.1-.027.8.8 0 0 1-.21-.108.575.575 0 0 1-.189-.229.667.667 0 0 1-.038-.39m6.011-.429a4.153 4.153 0 0 0 .9-.259c.2-.094.313-.194.346-.3a.363.363 0 0 0-.116-.343 2.241 2.241 0 0 0-.488-.383Zm18.464 39.608-.107-1.4a2.022 2.022 0 0 1-.848-.445 1.3 1.3 0 0 1-.374-.626 1.829 1.829 0 0 1-.032-.708 3.246 3.246 0 0 1 .178-.69l-.86-1.18a3.145 3.145 0 0 0-1.448 1.834 2.556 2.556 0 0 0 .254 1.86 2.968 2.968 0 0 0 1.361 1.276 2.422 2.422 0 0 0 1.874.079m22.297-16.528a1.668 1.668 0 1 0-.653-.132 1.676 1.676 0 0 0 .653.132M78.43 55.48a1.536 1.536 0 0 0 .48.256c.081.013.095-.033.077-.1a.969.969 0 0 0-.111-.229c-.045-.072-.085-.127-.085-.127l-.2-.564a1.371 1.371 0 0 0-.158-.514c-.045-.051-.083 0-.113.086a1.957 1.957 0 0 0-.068.32c-.015.105-.023.188-.023.188a68.35 68.35 0 0 0 .221.781c.005.013 0-.011-.006-.038l-.014-.057m1.327 2.7a.66.66 0 0 0 .2.139.34.34 0 0 0 .189.033.1.1 0 0 0 .083-.1.544.544 0 0 0-.115-.269s-.02-.018-.055-.055a2.164 2.164 0 0 1-.145-.176 3.381 3.381 0 0 1-.206-.312 4.619 4.619 0 0 1-.236-.462 1.016 1.016 0 0 0-.215-.343c-.061-.053-.11-.05-.143-.01a.34.34 0 0 0-.045.217 1.02 1.02 0 0 0 .08.338s.023.048.06.123.091.178.151.289.128.229.2.334a1.619 1.619 0 0 0 .2.259m-.687 1.733a.778.778 0 0 0 .255.361.3.3 0 0 0 .261.055.227.227 0 0 0 .154-.164.382.382 0 0 0-.064-.3c-.07-.111-.12-.184-.16-.243s-.07-.1-.1-.159a2.1 2.1 0 0 1-.1-.219 15.64 15.64 0 0 1-.162-.422.763.763 0 0 0-.208-.348.114.114 0 0 0-.167.01.356.356 0 0 0-.07.23.608.608 0 0 0 .085.311.259.259 0 0 0 0 .036c0 .026.013.069.03.134s.044.153.083.271.091.264.161.447m-1.045 2.566a.738.738 0 0 0 .15.412c.057.049.117.024.172-.032a.882.882 0 0 0 .142-.212c.037-.071.059-.129.059-.129s.01-.086.023-.224.029-.328.042-.537.021-.437.019-.65a3.207 3.207 0 0 0-.045-.563.58.58 0 0 0-.139-.306.2.2 0 0 0-.188-.058.287.287 0 0 0-.165.124.43.43 0 0 0-.071.239s-.01.06-.023.166-.028.257-.039.438-.015.393-.008.62a5.342 5.342 0 0 0 .069.71m-48.421 7.807s.028.068.079.179.127.266.223.439a5.877 5.877 0 0 0 .344.553 3.441 3.441 0 0 0 .442.524h.067c.042.006.1.016.169.032a2.04 2.04 0 0 1 .222.063 1.29 1.29 0 0 1 .226.1Zm2.1 2.135s.023.017.058.05a1.738 1.738 0 0 1 .137.14 1.584 1.584 0 0 1 .159.216 1.171 1.171 0 0 1 .125.277.319.319 0 0 0 .21.2 1 1 0 0 0 .34.05 2.214 2.214 0 0 0 .317-.026c.085-.013.14-.025.14-.025v-.36a.378.378 0 0 0-.057-.076.927.927 0 0 0-.219-.17 1.787 1.787 0 0 0-.453-.177 3.529 3.529 0 0 0-.758-.1m-.241-2.094s.023.038.056.1.079.145.124.238a2.865 2.865 0 0 1 .124.291.837.837 0 0 1 .056.257l.725.643.8.239a.793.793 0 0 0-.126-.371 2.394 2.394 0 0 0-.367-.467 3.97 3.97 0 0 0-.593-.489 4.869 4.869 0 0 0-.8-.44m.079-2.216.727 1.652 1.082.846c-.06-.161-.107-.3-.154-.414a1.7 1.7 0 0 0-.147-.3.877.877 0 0 0-.208-.225 1.547 1.547 0 0 0-.336-.187Zm2.415 3.463a.57.57 0 0 1 .039.094.686.686 0 0 1 .035.233.583.583 0 0 1-.094.3.886.886 0 0 1-.346.3l.164.889a4.227 4.227 0 0 0 .451-.522 2.331 2.331 0 0 0 .319-.6 1.643 1.643 0 0 0 .085-.685 1.948 1.948 0 0 0-.251-.771 1.162 1.162 0 0 1 .028.262.447.447 0 0 1-.048.2.5.5 0 0 1-.138.159 1.439 1.439 0 0 1-.243.148m60.481-13.422.054.178a61.9 61.9 0 0 0 .399 1.271c.096.297.2.63.326.992a1.788 1.788 0 0 0 .322.659c.093.093.172.076.231 0a.781.781 0 0 0 .115-.363 1.181 1.181 0 0 0-.026-.428c-.033-.12-.079-.284-.139-.472s-.133-.4-.219-.616a6.123 6.123 0 0 0-.295-.642 3.045 3.045 0 0 0-.367-.549s.005-.057.006-.156a3.615 3.615 0 0 0-.129-.965 2.924 2.924 0 0 0-.251-.622 1.016 1.016 0 0 0-.29-.371c-.077-.048-.135-.03-.168.028a.414.414 0 0 0-.027.26.759.759 0 0 0 .134.325m-6.901-21.634-1.068-1.073a4.075 4.075 0 0 0 .2.741 1.285 1.285 0 0 0 .259.439.34.34 0 0 0 .3.117.545.545 0 0 0 .318-.225m-2.07 32.415a.768.768 0 0 0-.106.27.317.317 0 0 0 .016.183.094.094 0 0 0 .091.06.18.18 0 0 0 .122-.093.443.443 0 0 0 .056-.034.908.908 0 0 0 .137-.119 1.243 1.243 0 0 0 .171-.228 1.664 1.664 0 0 0 .156-.361c.046-.146.047-.226.024-.263s-.071-.032-.125-.008a.821.821 0 0 0-.159.1c-.046.036-.079.066-.079.066Zm-2.275 2.157a.392.392 0 0 0-.09.226.1.1 0 0 0 .076.09.344.344 0 0 0 .129.012.544.544 0 0 0 .068-.009s.094-.108.24-.279.342-.406.547-.658.418-.524.6-.768a3.948 3.948 0 0 0 .386-.609.836.836 0 0 0 .09-.325c0-.073-.029-.111-.073-.12a.235.235 0 0 0-.167.057.8.8 0 0 0-.192.206 2.465 2.465 0 0 1-.255.481c-.119.184-.265.387-.423.591s-.325.409-.487.6-.316.364-.447.505m-.642-.164a.467.467 0 0 0-.094.261.091.091 0 0 0 .09.081.417.417 0 0 0 .147-.014.721.721 0 0 0 .077-.024s.079-.089.2-.236.3-.35.48-.579.38-.483.556-.731a5.625 5.625 0 0 0 .432-.691 1.174 1.174 0 0 0 .144-.406c0-.076-.032-.1-.085-.088a.482.482 0 0 0-.191.119.884.884 0 0 0-.173.214 2.17 2.17 0 0 1-.251.425 19.945 19.945 0 0 1-1.008 1.315 2.99 2.99 0 0 1-.329.355m-.615-.282a.459.459 0 0 0-.092.26.093.093 0 0 0 .09.081.415.415 0 0 0 .146-.013.712.712 0 0 0 .077-.023s.079-.089.2-.236.3-.351.48-.58.38-.483.556-.73a5.6 5.6 0 0 0 .43-.687 1.178 1.178 0 0 0 .146-.409c0-.077-.032-.1-.085-.089a.474.474 0 0 0-.191.119.841.841 0 0 0-.17.215 2.25 2.25 0 0 1-.253.423 19.945 19.945 0 0 1-1.008 1.315 2.925 2.925 0 0 1-.331.355m-.582-.3a.467.467 0 0 0-.093.261.091.091 0 0 0 .09.08.417.417 0 0 0 .147-.015.721.721 0 0 0 .077-.024s.091-.118.233-.307.336-.45.541-.737.424-.6.615-.889a7.4 7.4 0 0 0 .453-.763.36.36 0 0 0 .043-.207.141.141 0 0 0-.074-.111.149.149 0 0 0-.134.008.344.344 0 0 0-.138.149 3.176 3.176 0 0 1-.278.5 25.361 25.361 0 0 1-1.124 1.628 2.95 2.95 0 0 1-.356.426m-.593-.39a.462.462 0 0 0-.092.26.091.091 0 0 0 .09.08.416.416 0 0 0 .146-.014.716.716 0 0 0 .077-.024s.091-.108.234-.282.338-.415.547-.681.429-.557.624-.831a6.61 6.61 0 0 0 .466-.733.331.331 0 0 0 .044-.2.145.145 0 0 0-.074-.112.148.148 0 0 0-.134 0 .32.32 0 0 0-.136.146 2.55 2.55 0 0 1-.282.469 26.819 26.819 0 0 1-1.147 1.515 3.438 3.438 0 0 1-.362.4m-.616-.18a.464.464 0 0 0-.093.26.091.091 0 0 0 .09.081.414.414 0 0 0 .146-.014.714.714 0 0 0 .077-.023s.093-.111.239-.289.345-.425.557-.7.437-.567.635-.845a7.024 7.024 0 0 0 .474-.737.438.438 0 0 0 .065-.238.118.118 0 0 0-.077-.108.18.18 0 0 0-.146.024.384.384 0 0 0-.142.158 2.659 2.659 0 0 1-.288.476c-.158.228-.363.508-.572.783s-.423.547-.6.76a3.534 3.534 0 0 1-.366.408m4.6 1.258a1.031 1.031 0 0 0-.281.467c0 .08.07.1.167.083a1.461 1.461 0 0 0 .318-.1c.1-.04.172-.078.172-.078s.077-.087.2-.248.307-.4.511-.69.434-.651.663-1.053a12.3 12.3 0 0 0 .659-1.336 2.7 2.7 0 0 0 .265-.815c-.008-.091-.093-.03-.2.091a5.354 5.354 0 0 0-.355.453c-.108.151-.189.272-.189.272a2.838 2.838 0 0 1-.369.846 11.589 11.589 0 0 1-.656.972c-.231.312-.458.6-.626.8l-.279.333" fill="#ab0029"/><path d="M57.093 81.358a1.828 1.828 0 0 1 .08.213 2.266 2.266 0 0 1 .1.523 1.577 1.577 0 0 1-.091.659 1.343 1.343 0 0 1-.489.621.684.684 0 0 0 .024.114.445.445 0 0 0 .107.193.233.233 0 0 0 .242.05 1.072 1.072 0 0 0 .427-.316 1.481 1.481 0 0 0 .35-.595 1.63 1.63 0 0 0 .067-.572 2.22 2.22 0 0 0-.073-.44c-.03-.114-.058-.189-.058-.21a.459.459 0 0 0-.073-.15 1 1 0 0 0-.178-.207.3.3 0 0 0-.224-.093c-.076.011-.149.07-.211.21M89.524 54.755a.64.64 0 0 1 .054-.347.245.245 0 0 1 .169-.144.181.181 0 0 1 .178.09.611.611 0 0 1 .083.346 3.565 3.565 0 0 1-.09.742 3.47 3.47 0 0 1-.387 1 2.485 2.485 0 0 1-.86.882 2.874 2.874 0 0 1-1.51.379 2.425 2.425 0 0 1-.61-.059c-.126-.031-.178-.08-.164-.125s.1-.094.252-.129a2.828 2.828 0 0 1 .628-.059 3.012 3.012 0 0 0 .774-.085 1.6 1.6 0 0 0 .674-.357 2.022 2.022 0 0 0 .513-.78 4.979 4.979 0 0 0 .296-1.354M89.093 45.095a1.014 1.014 0 0 1-.046-.094.485.485 0 0 1-.047-.175.083.083 0 0 1 .094-.094.889.889 0 0 1 .376.148 1.368 1.368 0 0 1 .468.8 4.073 4.073 0 0 1 .132 1.36 2.8 2.8 0 0 1-.4 1.342 1.628 1.628 0 0 1-1.162.737s-.074.007-.168.013a2.182 2.182 0 0 1-.305 0c-.095-.016-.165-.038-.165-.08s.071-.107.258-.2a2.278 2.278 0 0 0 1.11-.654 1.989 1.989 0 0 0 .48-1 2.449 2.449 0 0 0-.074-1.116 2.578 2.578 0 0 0-.551-.987M88.56 37.742s-.038-.034-.081-.079a.888.888 0 0 1-.125-.149c-.025-.046-.029-.083.021-.089a.9.9 0 0 1 .34.1 1.384 1.384 0 0 1 .528.816 4.222 4.222 0 0 1 .211 1.484 2.481 2.481 0 0 1-.47 1.438 1.85 1.85 0 0 1-1.5.665.116.116 0 0 1-.02-.026.083.083 0 0 1-.01-.061.126.126 0 0 1 .073-.071.708.708 0 0 1 .227-.057 1.389 1.389 0 0 0 .86-.444 2 2 0 0 0 .462-.944 3.154 3.154 0 0 0 0-1.241 4.048 4.048 0 0 0-.516-1.342" fill="#ab0029"/><path d="M84.706 39.459a1.974 1.974 0 1 1 3.949 0 1.975 1.975 0 0 1-3.794.767 1.964 1.964 0 0 1-.155-.767m1.975 1.649A1.677 1.677 0 1 0 85 39.431a1.664 1.664 0 0 0 .132.656 1.682 1.682 0 0 0 1.55 1.025M85.489 46.675a1.962 1.962 0 1 1 .155.768 1.973 1.973 0 0 1-.155-.768m1.975 1.646a1.673 1.673 0 1 0-.653-.132 1.671 1.671 0 0 0 .653.132M85.249 54.917a1.963 1.963 0 1 1 .155.767 1.97 1.97 0 0 1-.155-.767m1.975 1.646a1.672 1.672 0 1 0-.654-.132 1.672 1.672 0 0 0 .654.132M83.018 64.383a1.969 1.969 0 1 1 .155.77 1.968 1.968 0 0 1-.155-.77m1.971 1.651a1.676 1.676 0 1 0-1.546-2.332 1.676 1.676 0 0 0 0 1.305 1.678 1.678 0 0 0 1.546 1.027M59.744 84.219a.323.323 0 0 0 .177.142.278.278 0 0 0 .2 0 .181.181 0 0 0 .1-.163.591.591 0 0 0-.118-.333 1.559 1.559 0 0 0-.335-.375 3.365 3.365 0 0 0-.424-.278c-.138-.079-.274-.15-.386-.215a.964.964 0 0 1-.252-.185l-.162.682.155.079c.094.049.223.117.359.193s.279.159.4.238a1.777 1.777 0 0 1 .288.216M60.397 84.942l.02.056.054.146.076.211.087.236a.459.459 0 0 0 .157.2.357.357 0 0 0 .213.077.17.17 0 0 0 .162-.113.607.607 0 0 0-.008-.367s-.008-.033-.022-.086-.035-.126-.063-.207a2.415 2.415 0 0 0-.1-.253 1.065 1.065 0 0 0-.134-.222.5.5 0 0 0-.212-.136.432.432 0 0 0-.238-.02.15.15 0 0 0-.123.139.582.582 0 0 0 .131.339M54.962 83.012a4.861 4.861 0 0 0-1.539 1.09 4.422 4.422 0 0 0-.836 1.29 5.336 5.336 0 0 0-.352 1.237 7.63 7.63 0 0 0-.089.931s.027.1.069.215a2.008 2.008 0 0 0 .156.354c.058.093.117.137.164.059a1.7 1.7 0 0 0 .094-.67 5.422 5.422 0 0 1 .175-1.218 5.182 5.182 0 0 1 .468-1.188 3.943 3.943 0 0 1 .771-1 3.017 3.017 0 0 1 1.081-.654ZM52.588 89.29a.207.207 0 0 1-.026-.188.35.35 0 0 1 .117-.178.193.193 0 0 1 .192-.036.407.407 0 0 1 .2.241c.06.141.11.254.158.347a1.609 1.609 0 0 0 .144.24 1.187 1.187 0 0 0 .178.188 2.921 2.921 0 0 0 .248.19.7.7 0 0 1 .219.248.476.476 0 0 1 .058.256.194.194 0 0 1-.1.166.309.309 0 0 1-.259-.023 1.419 1.419 0 0 1-.35-.25 3.113 3.113 0 0 1-.352-.385 3.173 3.173 0 0 1-.279-.43 1.414 1.414 0 0 1-.148-.386M53.311 91.987a.308.308 0 0 1-.15-.216.27.27 0 0 1 .068-.211.292.292 0 0 1 .217-.1.474.474 0 0 1 .307.125c.108.09.208.165.292.229s.162.116.233.159a1.657 1.657 0 0 0 .2.106 1.556 1.556 0 0 0 .2.071.343.343 0 0 1 .183.125.275.275 0 0 1 .056.185.185.185 0 0 1-.128.152.738.738 0 0 1-.388.011 1.723 1.723 0 0 1-.476-.149 1.783 1.783 0 0 1-.341-.214 1.708 1.708 0 0 1-.205-.19.993.993 0 0 1-.068-.083" fill="#ab0029"/><path d="M60.716 83.496a.266.266 0 0 1-.093-.23.277.277 0 0 1 .125-.175.507.507 0 0 1 .23-.086.337.337 0 0 1 .222.044 6.05 6.05 0 0 1 1.367 2.803 6.663 6.663 0 0 1-.129 3.293 5.174 5.174 0 0 1-1.95 2.742 6.944 6.944 0 0 1-4.114 1.147 1.425 1.425 0 0 1-.436-.109c-.105-.049-.165-.107-.171-.162s.045-.108.161-.147a1.873 1.873 0 0 1 .561-.064 4.324 4.324 0 0 0 2.846-.527 5.628 5.628 0 0 0 2.132-2.145 5.4 5.4 0 0 0 .7-3.073 5.692 5.692 0 0 0-1.451-3.311M49.541 58.779a4.661 4.661 0 0 1-.854-.526c-.191-.157-.285-.291-.273-.385s.136-.145.374-.145a4.608 4.608 0 0 1 1.079.2s.147.074.379.195.546.288.881.476.691.4 1 .6a4.869 4.869 0 0 1 .742.557c.16.161.347.369.543.593s.4.466.6.694.38.443.537.614a2.554 2.554 0 0 0 .367.352 3.044 3.044 0 0 1 .375.332 2.521 2.521 0 0 1 .375.462c.08.141.093.252-.028.28a1.769 1.769 0 0 1-.834-.212s-.081-.06-.211-.164-.312-.252-.513-.426-.422-.376-.633-.588a6.134 6.134 0 0 1-.571-.649 6.671 6.671 0 0 0-.6-.683 7.082 7.082 0 0 0-.788-.683 5.533 5.533 0 0 0-.928-.563 3.749 3.749 0 0 0-1.018-.323M59.415 66.722a2 2 0 0 1-.247-.5.528.528 0 0 1-.018-.351c.036-.082.117-.105.249-.061a1.822 1.822 0 0 1 .557.379c.241.214.543.455.877.7s.7.493 1.068.721a11.381 11.381 0 0 0 1.088.6 4.269 4.269 0 0 0 .937.339 2.991 2.991 0 0 1 .9.4 3.069 3.069 0 0 1 .7.575c.134.167.134.284-.1.272a5.5 5.5 0 0 1-1.508-.5 6.77 6.77 0 0 1-1.073-.307 11.034 11.034 0 0 1-1.294-.573 8.535 8.535 0 0 1-1.234-.778 4.042 4.042 0 0 1-.9-.916M62.098 60.323a.684.684 0 0 0 .267-1.314.68.68 0 0 0-.532 0 .692.692 0 0 0-.364.365.682.682 0 0 0 .146.749.682.682 0 0 0 .483.2M61.885 52.593a.679.679 0 0 0 .265-.054.689.689 0 0 0 .365-.363.679.679 0 0 0 .054-.267.672.672 0 0 0-.054-.265.685.685 0 0 0-1.112-.215.677.677 0 0 0-.2.48.681.681 0 0 0 .682.684M64.14 53.666a.681.681 0 0 0 .68-.682.682.682 0 0 0-.415-.629.685.685 0 0 0-.531 0 .683.683 0 0 0 .266 1.311M62.984 55.388a.675.675 0 0 0 .265-.054.692.692 0 0 0 .364-.364.673.673 0 0 0 .054-.265.682.682 0 0 0-.054-.266.695.695 0 0 0-.365-.367.671.671 0 0 0-.264-.054.679.679 0 0 0-.484.2.688.688 0 0 0-.2.487.683.683 0 0 0 .684.682M64.912 56.568a.683.683 0 1 0 0-1.366.675.675 0 0 0-.264.054.687.687 0 0 0-.363.363.677.677 0 0 0-.054.265.685.685 0 0 0 .417.631.675.675 0 0 0 .264.054M30.972 55.365a.484.484 0 0 0 .19-.039.5.5 0 0 0 .262-.262.491.491 0 0 0 0-.386.5.5 0 0 0-.262-.261.481.481 0 0 0-.19-.039.494.494 0 0 0-.192.039.491.491 0 0 0-.262.261.5.5 0 0 0 0 .384.489.489 0 0 0 .262.264.5.5 0 0 0 .192.039M29.253 57.182a.388.388 0 0 0 .178-.044.468.468 0 0 0 .145-.118.572.572 0 0 0 .1-.175.645.645 0 0 0 0-.425.561.561 0 0 0-.1-.173.463.463 0 0 0-.146-.117.394.394 0 0 0-.177-.043.388.388 0 0 0-.177.043.453.453 0 0 0-.144.116.56.56 0 0 0-.1.173.661.661 0 0 0 0 .425.571.571 0 0 0 .1.175.459.459 0 0 0 .143.118.382.382 0 0 0 .177.044M68.217 24.111a8 8 0 0 1-.025-.849 7.938 7.938 0 0 1 .24-1.835 3.6 3.6 0 0 1 .96-1.754 2.594 2.594 0 0 1 2.154-.607 1.879 1.879 0 0 1 .41.027 3.323 3.323 0 0 1 1.024.349 4.631 4.631 0 0 1 1.327 1.073 7.953 7.953 0 0 1 1.317 2.2c.429.536 1.06 1.153 1.709 1.812a18.126 18.126 0 0 1 1.821 2.064 3.7 3.7 0 0 1 .838 2.086 2.257 2.257 0 0 1-1.249 1.875.434.434 0 0 0 .049-.154.845.845 0 0 0-.062-.436 2.009 2.009 0 0 0-.485-.678 5.972 5.972 0 0 0-1.221-.88 1.827 1.827 0 0 0-.446-.162.388.388 0 0 0-.27.012c-.047.033-.044.1.031.193a2.1 2.1 0 0 0 .463.384 7.2 7.2 0 0 1 .635.468 1.366 1.366 0 0 1 .344.378c.047.1.017.172-.118.2a2.213 2.213 0 0 1-.752-.076 5.223 5.223 0 0 0-.649-.271 2.605 2.605 0 0 0-.53-.131c-.134-.013-.215.007-.208.07s.1.171.315.331.409.295.553.406.238.2.251.265-.054.114-.232.145a6.041 6.041 0 0 1-.9.044 3.246 3.246 0 0 0-.739-.677 1.146 1.146 0 0 0-.6-.223c-.147.007-.228.1-.2.28a2.125 2.125 0 0 0 .465.834.448.448 0 0 1-.022.122.4.4 0 0 1-.153.213.578.578 0 0 1-.414.072 2.432 2.432 0 0 1-.807-.3 3.712 3.712 0 0 1-.908-.7 5.289 5.289 0 0 1-.635-.813 6.148 6.148 0 0 1-.373-.672c-.082-.173-.122-.28-.122-.28a1.835 1.835 0 0 1-.163-.174.961.961 0 0 1-.22-.358.272.272 0 0 1 .162-.338 2.052 2.052 0 0 1 .977-.104s.181-.08.458-.213.649-.317 1.032-.525a10.953 10.953 0 0 0 1.092-.662 1.916 1.916 0 0 0 .639-.635c.08-.188.141-.308.179-.4a.371.371 0 0 0 .049-.194.512.512 0 0 0-.092-.195c-.055-.087-.136-.208-.243-.4a1.213 1.213 0 0 0-.25-.341c-.062-.047-.106-.033-.139.02a.852.852 0 0 0-.078.261c-.022.114-.041.248-.068.382a.928.928 0 0 1-.1.3.182.182 0 0 1-.154.1.366.366 0 0 1-.215-.1 2.045 2.045 0 0 1-.285-.3 2.48 2.48 0 0 0-.277-.298c-.073-.064-.127-.084-.153-.043a.547.547 0 0 0 .007.32 7.837 7.837 0 0 0 .209.784 1.01 1.01 0 0 1 .022.139.738.738 0 0 1-.033.284.3.3 0 0 1-.214.2.834.834 0 0 1-.524-.1 1.488 1.488 0 0 1 .049.175.9.9 0 0 1 .019.336.239.239 0 0 1-.2.215 1.072 1.072 0 0 1-.616-.187.892.892 0 0 1 .073.138.309.309 0 0 1 .023.238c-.033.067-.124.108-.32.078a3.846 3.846 0 0 1-.957-.339 7.233 7.233 0 0 1-1.147-.658 4.3 4.3 0 0 1-.738-.658 2.774 2.774 0 0 1-.415-.616 2.013 2.013 0 0 1-.175-.536M64.57 20.677a1.66 1.66 0 0 0-.142.488.337.337 0 0 0 .072.287c.06.053.158.06.294.006a1.965 1.965 0 0 0 .525-.356l.751-.854a1.027 1.027 0 0 0 .32-.445.406.406 0 0 0-.023-.371c-.067-.091-.195-.128-.386-.076a2.211 2.211 0 0 0-.769.46ZM59.845 24.969a2.012 2.012 0 0 0-.234.447.453.453 0 0 0-.022.317c.034.074.111.111.241.1a1.642 1.642 0 0 0 .554-.217c.242-.134.551-.328.927-.505a4.453 4.453 0 0 1 1.327-.413 4.029 4.029 0 0 1 1.73.158 6.576 6.576 0 0 1 2.132 1.186l1.5 1.289a2.737 2.737 0 0 0 .6.574.675.675 0 0 0 .488.163c.114-.033.164-.164.106-.421a4.487 4.487 0 0 0-.548-1.176l-1.716-1.18a6.841 6.841 0 0 0-1.348-.926 5.05 5.05 0 0 0-1.631-.524 4.96 4.96 0 0 0-1.912.121 7.317 7.317 0 0 0-2.194 1.007M68.86 31.41a1.175 1.175 0 0 1-.348-.793.449.449 0 0 1 .308-.4.7.7 0 0 1 .57.064.939.939 0 0 1 .438.6 8.178 8.178 0 0 0 .384 1.055 6.723 6.723 0 0 0 .641 1.163 3.153 3.153 0 0 0 .881.882 1.5 1.5 0 0 0 1.1.219 2.265 2.265 0 0 1 .792.672 2.024 2.024 0 0 1 .309.627 2.3 2.3 0 0 1 .077.848l.217 1.828a1.745 1.745 0 0 1-.017.767.563.563 0 0 1-.28.4c-.121.047-.262 0-.4-.185a2.609 2.609 0 0 1-.378-.978 6.384 6.384 0 0 0 .083-1.052 3.358 3.358 0 0 0-.148-.991 2.09 2.09 0 0 0-.492-.83 2.319 2.319 0 0 0-.946-.568 5.484 5.484 0 0 1-.931-.388 1.616 1.616 0 0 1-.489-.388 1.114 1.114 0 0 1-.208-.429 4.785 4.785 0 0 1-.089-.51 1.657 1.657 0 0 0-.213-.568 3.7 3.7 0 0 0-.365-.518c-.127-.156-.251-.289-.344-.381s-.152-.146-.152-.146M58.989 34.199a1.353 1.353 0 0 1-.691-.168c-.1-.08-.083-.181 0-.289a1.658 1.658 0 0 1 .432-.328 5.3 5.3 0 0 1 .579-.289h2.149a1.556 1.556 0 0 1 .82.443c.324.269.689.631 1.071 1.007s.781.765 1.172 1.087a3.565 3.565 0 0 0 1.122.684 2.911 2.911 0 0 1 .847.408.936.936 0 0 1 .374.438c.034.127-.03.225-.21.257a2.113 2.113 0 0 1-.9-.136 5.175 5.175 0 0 1-1.342-.715c-.458-.319-.917-.694-1.353-1.057s-.854-.716-1.219-.976a2.263 2.263 0 0 0-.922-.473ZM51.689 34.198a1.956 1.956 0 0 0-.463.465.4.4 0 0 0-.089.343c.034.081.131.121.293.1a2.07 2.07 0 0 0 .685-.261c.3-.162.61-.337.939-.5a10.7 10.7 0 0 1 1.023-.471 5.59 5.59 0 0 1 1.061-.3 3.341 3.341 0 0 1 1.062-.021 1.248 1.248 0 0 0 .8-.094.459.459 0 0 0 .259-.414.587.587 0 0 0-.321-.456 1.848 1.848 0 0 0-.955-.215 4.6 4.6 0 0 0-1.277.195 7.135 7.135 0 0 0-1.194.476 10.471 10.471 0 0 0-1.032.6c-.308.2-.576.4-.791.557M61.353 36.666a1.861 1.861 0 0 1-.72-.359c-.139-.128-.168-.255-.115-.362a.571.571 0 0 1 .409-.241 2.4 2.4 0 0 1 .853 0 1.371 1.371 0 0 1 .795.4 3.313 3.313 0 0 1 .491.7 4.475 4.475 0 0 0 .491.741 1.681 1.681 0 0 0 .795.518 2.124 2.124 0 0 1 .736.357c.145.122.192.24.152.327s-.167.144-.371.146a2.366 2.366 0 0 1-.834-.187 2.319 2.319 0 0 1-.8-.5 4.929 4.929 0 0 1-.5-.6 2.9 2.9 0 0 0-.524-.56 2.056 2.056 0 0 0-.858-.38M59.631 37.097a3.136 3.136 0 0 0-.76.011c-.163.031-.24.084-.247.151s.058.148.177.232a2.337 2.337 0 0 0 .508.251c.215.08.389.148.538.208a7.02 7.02 0 0 1 .716.337c.11.06.223.127.357.208a.809.809 0 0 0 .386.125.378.378 0 0 0 .285-.1.345.345 0 0 0 .084-.3 1.108 1.108 0 0 0-.218-.478 1.336 1.336 0 0 0-.512-.417 2.27 2.27 0 0 0-.6-.186 3.252 3.252 0 0 0-.5-.046h-.21M43.637 31.945a1.388 1.388 0 0 0-.521.492 1.035 1.035 0 0 0-.19.545c.007.141.091.218.273.159a2.618 2.618 0 0 0 .868-.659c.4-.4.731-.784 1.092-1.126a4.551 4.551 0 0 1 1.283-.885 6.836 6.836 0 0 1 2.108-.523 22.278 22.278 0 0 1 3.567-.04 2.76 2.76 0 0 0 1.224-.045c.3-.092.475-.243.508-.4s-.078-.312-.358-.418a3.3 3.3 0 0 0-1.374-.104c-.644.054-1.109.118-1.46.177s-.588.111-.777.142a1.349 1.349 0 0 1-.49.01 2.563 2.563 0 0 1-.6-.22 2.047 2.047 0 0 0-1.469-.062 5.076 5.076 0 0 0-1.51.784 10.009 10.009 0 0 0-1.308 1.147 9.107 9.107 0 0 0-.866 1.026M38.806 29.37a1.247 1.247 0 0 0-.528-.154c-.132 0-.216.047-.241.128s.028.194.151.328a2.4 2.4 0 0 0 .619.449c.3.161.605.355.949.518a3.265 3.265 0 0 0 1.159.327 3.333 3.333 0 0 0 1.5-.256 7.585 7.585 0 0 0 1.974-1.232s.114-.074.248-.176a1.9 1.9 0 0 0 .369-.348c.08-.114.087-.211-.069-.246a3.031 3.031 0 0 0-1.083.128 4.588 4.588 0 0 1-.879.687 3.881 3.881 0 0 1-1.16.466 3.562 3.562 0 0 1-1.4.023 4.6 4.6 0 0 1-1.609-.642M36.339 31.41a1.743 1.743 0 0 0-.824-.428.458.458 0 0 0-.462.146.4.4 0 0 0 .021.446 1.276 1.276 0 0 0 .621.479s.078-.006.2-.006a3.186 3.186 0 0 1 .463.033 2.261 2.261 0 0 1 .563.154 1.309 1.309 0 0 1 .494.356 2.338 2.338 0 0 0 .478.424 3.964 3.964 0 0 0 .528.3 5.215 5.215 0 0 0 .603.24 1.265 1.265 0 0 0 .666.124.728.728 0 0 0 .475-.189c.087-.1.084-.231-.068-.371a2.394 2.394 0 0 0-.964-.422c-.188-.107-.389-.242-.594-.382s-.413-.288-.614-.423a5.256 5.256 0 0 0-.576-.34 1.145 1.145 0 0 0-.473-.141ZM32.261 35.809a1.891 1.891 0 0 1-.716.136c-.178-.01-.293-.07-.333-.163s-.007-.221.111-.365a2.087 2.087 0 0 1 .616-.466c.294-.16.616-.335.957-.493a6.2 6.2 0 0 1 1.068-.393 3.46 3.46 0 0 1 1.132-.111 2.693 2.693 0 0 1 1.136.353 1.491 1.491 0 0 1 .32.62 1.6 1.6 0 0 1 .057.709c-.04.194-.148.318-.346.286a1.918 1.918 0 0 1-.89-.651.629.629 0 0 0-.154-.126 1.218 1.218 0 0 0-.517-.167 2.42 2.42 0 0 0-.959.115 6.061 6.061 0 0 0-1.482.718M31.939 36.776a2.7 2.7 0 0 0-.649.235.947.947 0 0 0-.358.275c-.047.08-.01.141.146.154a3 3 0 0 0 .861-.127q.645-.161 1.149-.263c.337-.069.625-.119.877-.152a5.1 5.1 0 0 1 .614-.052 1.163 1.163 0 0 1 .363.039c.081.027.229.087.38.142a1.813 1.813 0 0 0 .4.113c.094.007.127-.03.036-.149a4.745 4.745 0 0 0-.709-.644.52.52 0 0 0-.136-.054 1.887 1.887 0 0 0-.494-.054 4.952 4.952 0 0 0-.953.107 11.407 11.407 0 0 0-1.526.43M31.402 39.782a2.141 2.141 0 0 0-.726.114c-.182.067-.296.154-.323.238s.034.15.202.19a2.509 2.509 0 0 0 .847-.005 2.02 2.02 0 0 1 1.03.115 2 2 0 0 1 .7.476 2.358 2.358 0 0 1 .4.557 1.041 1.041 0 0 1 .126.358 2.71 2.71 0 0 0 .141.875 1.393 1.393 0 0 0 .341.573.363.363 0 0 0 .421.09.94.94 0 0 0 .381-.574c-.134-.215-.247-.4-.342-.558a4 4 0 0 1-.232-.448 2.047 2.047 0 0 1-.131-.427 2.636 2.636 0 0 1-.042-.5.691.691 0 0 0-.316-.516 2.623 2.623 0 0 0-.759-.385 4.316 4.316 0 0 0-.92-.2 2.408 2.408 0 0 0-.8.029" fill="#ab0029"/><path d="M62.749 46.541a3.213 3.213 0 0 0-.613.631.712.712 0 0 0-.187.459c.02.1.124.138.324.076a3.42 3.42 0 0 0 .9-.518c.4-.3.744-.557 1.038-.8a8.981 8.981 0 0 0 .746-.678 4.755 4.755 0 0 0 .525-.638 4.287 4.287 0 0 0 .374-.678 2.135 2.135 0 0 1 .348-.564c.119-.129.236-.193.337-.173s.184.124.236.33a3.255 3.255 0 0 1 .045.944 4.027 4.027 0 0 0-.3.838 4.559 4.559 0 0 0-.124.868 4.758 4.758 0 0 0 .036.847 4.3 4.3 0 0 0 .175.776 4.527 4.527 0 0 1 .149 1.112c.02.475.014 1.028-.013 1.585s-.076 1.118-.136 1.606a7.908 7.908 0 0 1-.213 1.172 2.165 2.165 0 0 0-.058.886 3.95 3.95 0 0 0 .256.966 5.352 5.352 0 0 0 .477.925 4.655 4.655 0 0 0 .607.763c.216.215.565.538.943.937a9.237 9.237 0 0 1 1.112 1.4 4.119 4.119 0 0 1 .649 1.68 2.543 2.543 0 0 1-.448 1.78s-.047.061-.114.165a3.542 3.542 0 0 0-.235.427 2.587 2.587 0 0 0-.2.588 1.511 1.511 0 0 0 .005.648 4.436 4.436 0 0 1 .1.57 1.142 1.142 0 0 0 .049.288c.02.027.05-.027.109-.2s.146-.45.281-.88.235-.731.319-.95a2.3 2.3 0 0 1 .218-.457 1.09 1.09 0 0 1 .219-.236c.084-.072.185-.152.32-.286a1.5 1.5 0 0 0 .351-.635 2.394 2.394 0 0 0 .05-1.058 3.985 3.985 0 0 0-.554-1.42 8.038 8.038 0 0 0-1.457-1.715 8.524 8.524 0 0 1-1.521-1.785 5.014 5.014 0 0 1-.676-1.715 5.576 5.576 0 0 1-.033-1.736 11.941 11.941 0 0 1 .409-1.847l.1-5.8a5.015 5.015 0 0 0 .128-.863 1.205 1.205 0 0 0-.074-.5 1.694 1.694 0 0 0-.23-.385c-.1-.135-.221-.289-.355-.5a.49.49 0 0 0-.494-.269 1.239 1.239 0 0 0-.564.262 3.568 3.568 0 0 0-.464.423c-.119.128-.192.222-.192.222s-.114.181-.3.456-.439.644-.721 1.019a11.486 11.486 0 0 1-.882 1.059 2.007 2.007 0 0 1-.777.578M68.969 42.68a.771.771 0 0 1 .1-.62.538.538 0 0 1 .409-.227.385.385 0 0 1 .37.2.79.79 0 0 1-.02.647s.006.04.02.108.033.165.06.279.061.244.1.38.089.277.144.412a4.669 4.669 0 0 1 .189.673 6 6 0 0 1 .131 1.001 3.112 3.112 0 0 1-.111 1.03 1.253 1.253 0 0 1-.533.733 1.5 1.5 0 0 1-.553.242c-.111.008-.158-.049-.171-.15a1.754 1.754 0 0 1 .03-.412 3.9 3.9 0 0 0 .05-.543 2.967 2.967 0 0 1 .064-.565c.037-.191.084-.385.125-.587a4.151 4.151 0 0 0 .085-.627 2.578 2.578 0 0 0-.057-.688s-.027-.06-.067-.156-.095-.226-.149-.367-.108-.291-.148-.427a1.344 1.344 0 0 1-.068-.336M70.363 42.73a.772.772 0 0 1 .106-.619.541.541 0 0 1 .407-.227.385.385 0 0 1 .367.2.789.789 0 0 1-.019.646s-.013.044-.03.118a2.746 2.746 0 0 0-.05.3 2.227 2.227 0 0 0-.01.4 1.391 1.391 0 0 0 .091.419c.054.134.154.309.26.52a3.826 3.826 0 0 1 .29.742 2.505 2.505 0 0 1 .069.943 2.837 2.837 0 0 1-.4 1.124c-.123.205-.239.3-.342.325a.272.272 0 0 1-.277-.137 1.265 1.265 0 0 1-.182-.438 2.451 2.451 0 0 1-.063-.562 2.16 2.16 0 0 1 .063-.505c.037-.156.084-.3.124-.457a2.46 2.46 0 0 0 .084-.5 2.28 2.28 0 0 0-.057-.628s-.026-.082-.067-.21-.094-.312-.148-.5-.108-.387-.148-.558a2.118 2.118 0 0 1-.068-.396M71.805 42.73a.77.77 0 0 1 .105-.619.541.541 0 0 1 .407-.227.384.384 0 0 1 .367.2.788.788 0 0 1-.021.646s.007.04.021.109.034.166.061.279.061.244.1.38.089.277.144.411.15.319.249.531a3.947 3.947 0 0 1 .261.692 1.408 1.408 0 0 1 .02.712.977.977 0 0 1-.474.589 2.765 2.765 0 0 1-.535.278c-.1.029-.134 0-.133-.075a2.048 2.048 0 0 1 .067-.337 2.251 2.251 0 0 0 .067-.506c0-.189 0-.333-.013-.459a3.066 3.066 0 0 0-.044-.35c-.021-.113-.049-.234-.085-.387s-.08-.338-.134-.58c0 0-.027-.06-.067-.156s-.094-.226-.148-.367-.108-.292-.148-.427a1.347 1.347 0 0 1-.067-.337M32.8 64.901s.047-.062.115-.136a1.3 1.3 0 0 1 .246-.214c.087-.05.17-.073.225-.013s.082.2.055.469a.749.749 0 0 1-.07.074.583.583 0 0 1-.171.113.233.233 0 0 1-.21-.007.491.491 0 0 1-.19-.286M33.976 64.684s.007-.064.024-.138a.84.84 0 0 1 .084-.239c.041-.067.092-.107.165-.077s.158.132.266.347a.865.865 0 0 1-.009.107.5.5 0 0 1-.059.188.134.134 0 0 1-.16.067.722.722 0 0 1-.311-.255M34.942 64.362a.725.725 0 0 1 .041-.092.565.565 0 0 1 .121-.164.234.234 0 0 1 .203-.066.514.514 0 0 1 .283.21 1.176 1.176 0 0 1-.01.138.65.65 0 0 1-.071.242.152.152 0 0 1-.193.077.938.938 0 0 1-.374-.345M35.909 64.254a1.217 1.217 0 0 1 .055-.108.957.957 0 0 1 .145-.2.277.277 0 0 1 .207-.1c.075.006.156.06.236.194 0 0 .007.074 0 .169a.942.942 0 0 1-.043.3c-.031.087-.088.144-.184.119s-.229-.133-.416-.374M37.198 64.041a.709.709 0 0 1 .055-.089.482.482 0 0 1 .145-.14.2.2 0 0 1 .207 0 .7.7 0 0 1 .239.335 1.561 1.561 0 0 1-.056.149.809.809 0 0 1-.147.24.138.138 0 0 1-.207.019 1.091 1.091 0 0 1-.236-.514M38.38 64.148a.887.887 0 0 1 .023-.106.49.49 0 0 1 .084-.176.124.124 0 0 1 .164-.035.778.778 0 0 1 .263.317.611.611 0 0 1-.008.09.326.326 0 0 1-.058.15.126.126 0 0 1-.159.026.9.9 0 0 1-.309-.266M39.452 63.936a.876.876 0 0 1 .07-.076.726.726 0 0 1 .171-.127.267.267 0 0 1 .211-.025.36.36 0 0 1 .192.228.37.37 0 0 1 .019.3.191.191 0 0 1-.181.1.444.444 0 0 1-.261-.1.706.706 0 0 1-.221-.3M40.633 64.037a1.259 1.259 0 0 1 .085-.1.819.819 0 0 1 .2-.164.188.188 0 0 1 .215-.004.559.559 0 0 1 .142.379.727.727 0 0 1-.042.435.156.156 0 0 1-.2.074.525.525 0 0 1-.238-.208 1.029 1.029 0 0 1-.162-.412M41.814 64.148a1.015 1.015 0 0 1 .069-.089.641.641 0 0 1 .159-.139.15.15 0 0 1 .179 0 .525.525 0 0 1 .127.334.935.935 0 0 1-.007.406c-.027.084-.078.118-.138.104a.382.382 0 0 1-.2-.173 1.61 1.61 0 0 1-.189-.443M42.78 64.254a1.014 1.014 0 0 1 .071-.087.759.759 0 0 1 .172-.155.23.23 0 0 1 .212-.03.412.412 0 0 1 .191.272.49.49 0 0 1 .019.347.17.17 0 0 1-.181.1.484.484 0 0 1-.262-.134.832.832 0 0 1-.222-.313M44.175 64.254a1.087 1.087 0 0 1 .1-.087.8.8 0 0 1 .236-.128.263.263 0 0 1 .253.034.585.585 0 0 1 .162.4.889.889 0 0 1-.012.416c-.031.071-.088.077-.162.033a1.083 1.083 0 0 1-.263-.241 4.937 4.937 0 0 1-.314-.427M45.676 71.229a2.1 2.1 0 0 1-.113-.365.339.339 0 0 1 .007-.224c.027-.04.08-.04.167.017a2 2 0 0 1 .368.355 2.212 2.212 0 0 1 .344.521c.065.148.082.262.049.316s-.117.047-.253-.047a3.13 3.13 0 0 1-.569-.573M46.964 71.229s-.034-.076-.069-.176a1.315 1.315 0 0 1-.079-.318c-.006-.101.018-.182.1-.182s.236.063.477.252c0 0 .047.121.1.278a3.134 3.134 0 0 1 .13.5c.02.147 0 .247-.092.217s-.271-.194-.567-.571M48.149 71.229s-.034-.067-.07-.154a1.072 1.072 0 0 1-.081-.274c-.006-.08.017-.134.1-.118a1.437 1.437 0 0 1 .478.333 2.469 2.469 0 0 1 .475.532c.08.136.087.226.034.26s-.167.01-.327-.083a3.1 3.1 0 0 1-.609-.5M49.755 71.768a3.7 3.7 0 0 1-.282-.509 1.4 1.4 0 0 1-.134-.429c-.006-.108.03-.168.129-.152a1.374 1.374 0 0 1 .5.335 2.521 2.521 0 0 1 .528.635.781.781 0 0 1 .132.47c-.02.107-.1.154-.25.107a1.8 1.8 0 0 1-.623-.457M47.076 37.421c-.055.107-.136.241-.204.375a.934.934 0 0 0-.122.375c0 .107.053.187.2.214a1.878 1.878 0 0 0 .764-.108 1.033 1.033 0 0 0 .7-.541.734.734 0 0 0-.014-.652.5.5 0 0 0-.516-.274 1.3 1.3 0 0 0-.808.611M36.446 36.885a.859.859 0 0 1-.047-.413.305.305 0 0 1 .154-.233.383.383 0 0 1 .315.01 1.353 1.353 0 0 1 .436.313s0 .054 0 .139.01.2.024.33a3.078 3.078 0 0 0 .064.391 1.022 1.022 0 0 0 .125.32 1.284 1.284 0 0 1 .141.418 1.471 1.471 0 0 1 .019.509c-.027.141-.094.232-.222.207s-.311-.166-.579-.49a.2.2 0 0 1-.067-.039.593.593 0 0 1-.148-.19 1.616 1.616 0 0 1-.148-.447 4.325 4.325 0 0 1-.067-.825M59.523 58.604a.682.682 0 1 0-.629-.949.681.681 0 0 0 .146.749.682.682 0 0 0 .483.2M87.537 37.849l-.857 1.074 1.824.859a1.552 1.552 0 0 0 .1-.613 1.264 1.264 0 0 0-.142-.539 1.5 1.5 0 0 0-.367-.446 2.194 2.194 0 0 0-.558-.335M86.68 38.924l.317 2.146a.364.364 0 0 0 .076.054.428.428 0 0 0 .207.052.537.537 0 0 0 .308-.108 1.445 1.445 0 0 0 .378-.431ZM88.183 45.041l-.646.858 1.288-.213a.132.132 0 0 0 .02-.045.214.214 0 0 0-.019-.141.576.576 0 0 0-.18-.2 2.114 2.114 0 0 0-.463-.259M89.147 46.222h-1.5l.432 1.932a.776.776 0 0 0 .2.06.638.638 0 0 0 .418-.06.854.854 0 0 0 .378-.543 3.873 3.873 0 0 0 .072-1.389M86.68 53.092l.534 1.287.537-1.287a.349.349 0 0 0-.062-.045.66.66 0 0 0-.193-.077.976.976 0 0 0-.333-.016 1.69 1.69 0 0 0-.483.138M89.041 55.347l-1.717-.431-.105 1.716a1.051 1.051 0 0 0 .209.055 1.253 1.253 0 0 0 .5-.015 1.214 1.214 0 0 0 .6-.356 2.333 2.333 0 0 0 .513-.969M86.357 63.181l-1.285.86 1.863.322a.443.443 0 0 0 .016-.094.839.839 0 0 0-.022-.256 1.223 1.223 0 0 0-.164-.376 2.064 2.064 0 0 0-.408-.456M86.571 65.22l-1.5-1.179-.754 2.038a1.483 1.483 0 0 0 .232.138 1.534 1.534 0 0 0 .574.158 1.156 1.156 0 0 0 .735-.2 2.163 2.163 0 0 0 .714-.95M81.634 70.693l-1.611.967 1.934-.32a.074.074 0 0 0 .025-.026.143.143 0 0 0 .015-.1.516.516 0 0 0-.086-.2 2.057 2.057 0 0 0-.277-.321M78.092 72.088l1.932-.429-1.503 1.073a.653.653 0 0 1-.061-.04 1 1 0 0 1-.137-.119.9.9 0 0 1-.146-.2.773.773 0 0 1-.085-.285" fill="#ab0029"/><path d="m78.95 73.159 1.076-1.5 1.716.429a2.326 2.326 0 0 1-.1.364 2.147 2.147 0 0 1-.406.7 1.286 1.286 0 0 1-.849.435 2.42 2.42 0 0 1-1.437-.428" fill="#ab0029"/><g fill="#ab0029"><path d="M4.485 107.252h5.157a8.734 8.734 0 0 1 5.238 1.743 4.922 4.922 0 0 1 1.8 3.362 5.11 5.11 0 0 1-.86 3.345 3.77 3.77 0 0 1-2.737 1.692 5.4 5.4 0 0 1 3.95 2.058 4.937 4.937 0 0 1 .784 3.73 6.543 6.543 0 0 1-1.971 3.649 6.792 6.792 0 0 1-4.314 1.82H3.283a2.575 2.575 0 0 1-1.443-.446 3.715 3.715 0 0 1-1.062-1.121 5.166 5.166 0 0 1-.627-1.478 4.574 4.574 0 0 1-.136-1.509v-12.203a4.963 4.963 0 0 1 .336-1.813 4.548 4.548 0 0 1 .932-1.475 4.31 4.31 0 0 1 1.417-.991 4.473 4.473 0 0 1 1.785-.363m5.07 4.47H5.514v4.039h4.128a2.068 2.068 0 0 0 1.582-.631 1.99 1.99 0 0 0 .5-1.388 2.069 2.069 0 0 0-.558-1.39 2.16 2.16 0 0 0-1.611-.63m.43 7.905H5.6v4.732h4.468a2.263 2.263 0 0 0 2.407-2.366 2.362 2.362 0 0 0-2.493-2.366M19.953 123.238v-10.224h4.9v9.451a2.771 2.771 0 0 0 .764 2.015 2.4 2.4 0 0 0 1.674.7 2.225 2.225 0 0 0 1.662-.696 3.008 3.008 0 0 0 .715-2.191v-9.279h4.814v15.553h-4.558v-1.546a2.773 2.773 0 0 1-1.631 1.463 6.433 6.433 0 0 1-3.1.513 5.244 5.244 0 0 1-3.226-1.421 7.383 7.383 0 0 1-2.014-4.338M37.4 107.081h5.072v21.573H37.4ZM45.006 107.039h5.069v21.57h-5.069ZM52.184 115.677h5.328v4.724h-5.328ZM63.272 107.082h4.811a10.952 10.952 0 0 1 7.588 3.793 11.055 11.055 0 0 1 2.46 7.089 11.347 11.347 0 0 1-2.4 7.041 9.834 9.834 0 0 1-6.96 3.649h-5.67a4.8 4.8 0 0 1-1.128-.129 3.246 3.246 0 0 1-1.055-.452 2.35 2.35 0 0 1-.781-.871 2.972 2.972 0 0 1-.306-1.387v-15.207a3.282 3.282 0 0 1 .236-1.168 4.047 4.047 0 0 1 .68-1.143 3.536 3.536 0 0 1 1.084-.87 3.142 3.142 0 0 1 1.441-.345m1.374 4.553v12.463h2.751a6.151 6.151 0 0 0 4.226-2.216 6.539 6.539 0 0 0-.118-8.132 6.191 6.191 0 0 0-4.283-2.115ZM79.994 120.917a8.058 8.058 0 0 1 .678-3.243 8.344 8.344 0 0 1 1.85-2.649 8.672 8.672 0 0 1 2.743-1.787 8.933 8.933 0 0 1 6.717 0 8.667 8.667 0 0 1 2.742 1.787 8.342 8.342 0 0 1 1.85 2.649 8.1 8.1 0 0 1 0 6.488 8.346 8.346 0 0 1-1.849 2.651 8.666 8.666 0 0 1-2.742 1.788 8.93 8.93 0 0 1-6.717 0 8.67 8.67 0 0 1-2.743-1.788 8.347 8.347 0 0 1-1.851-2.65 8.068 8.068 0 0 1-.678-3.246m8.63 4.135a4.116 4.116 0 1 0-1.608-.325 4.11 4.11 0 0 0 1.608.325M114.576 108.202v3.521h-1.717a3.894 3.894 0 0 1 .364 2.4 5.405 5.405 0 0 1-1 2.341 6.236 6.236 0 0 1-2.013 1.777 5.548 5.548 0 0 1-2.681.705 6.254 6.254 0 0 0-1.92.044c-.459.1-.733.266-.808.448s.048.382.384.545a4.521 4.521 0 0 0 1.656.335 17.839 17.839 0 0 1 2.319.276 11.093 11.093 0 0 1 2.567.789 5.534 5.534 0 0 1 2.08 1.568 4.129 4.129 0 0 1 .857 2.612 4.792 4.792 0 0 1-2.565 4.226 11.264 11.264 0 0 1-5.644 1.358 12.081 12.081 0 0 1-5.644-1.286 4.286 4.286 0 0 1-2.565-3.703 3.284 3.284 0 0 1 .253-1.187 5.328 5.328 0 0 1 .608-1.108 4.4 4.4 0 0 1 .737-.819 1.145 1.145 0 0 1 .639-.319 1 1 0 0 1-.719-.75 2.862 2.862 0 0 1-.01-1.387 4.3 4.3 0 0 1 .634-1.5 3.119 3.119 0 0 1 1.213-1.088 4.846 4.846 0 0 1-1.91-2.137 5.6 5.6 0 0 1-.531-3.141 5.058 5.058 0 0 1 1.677-3.125 9.486 9.486 0 0 1 4.715-2.086c.258 0 .554.016.862.047s.631.077.942.136a7.609 7.609 0 0 1 .879.217 3.034 3.034 0 0 1 .67.29Zm-8.422 7.939a2.605 2.605 0 1 0-1.016-.205 2.609 2.609 0 0 0 1.016.205m-2.32 11.309a9.54 9.54 0 0 0 1.086.243 6.51 6.51 0 0 0 1.021.081 7.794 7.794 0 0 0 1.085-.081c.387-.054.805-.135 1.278-.243a1.558 1.558 0 0 0 .957-.548 1.079 1.079 0 0 0 .184-.814 1.7 1.7 0 0 0-.364-.8 1.542 1.542 0 0 0-.686-.5l-4.472-.6a2.43 2.43 0 0 0-.75.789 2.08 2.08 0 0 0-.291.942 1.533 1.533 0 0 0 .955 1.536"/></g></svg>