<svg xmlns="http://www.w3.org/2000/svg" width="114.664" height="131.145" viewBox="0 0 114.664 131.145"><g transform="translate(-119.668 -181.957)"><g transform="translate(123.585 181.957)"><path d="M51.088,102.173A51.1,51.1,0,0,1,31.221,4.021,51.087,51.087,0,0,1,70.954,98.152a50.806,50.806,0,0,1-19.866,4.021" fill="#fff"/><path d="M0,48.654A48.5,48.5,0,1,1,3.824,67.591,48.5,48.5,0,0,1,0,48.654M48.449,95.21a46.526,46.526,0,1,0-18.166-3.668A46.535,46.535,0,0,0,48.449,95.21" transform="translate(2.433 2.434)" fill="#ab0029"/><path d="M0,44.475A44.345,44.345,0,1,1,3.5,61.79,44.333,44.333,0,0,1,0,44.475M44.289,87.039A42.539,42.539,0,1,0,27.68,83.686a42.538,42.538,0,0,0,16.609,3.353" transform="translate(6.681 6.654)" fill="#ab0029"/><path d="M3.805,24.045a6.642,6.642,0,0,1-1.885-.023,2.6,2.6,0,0,1-1.27-.556,1.861,1.861,0,0,1-.6-1.1,3.908,3.908,0,0,1,.111-1.651s.04-.322.1-.815.136-1.158.209-1.842S.609,16.67.653,16.1A7.26,7.26,0,0,0,.69,14.919a2.341,2.341,0,0,1,.163-.857c.123-.387.3-.854.5-1.33s.406-.963.6-1.39.358-.8.465-1.037a2.294,2.294,0,0,1,.431-.641,4.855,4.855,0,0,1,.614-.54c.228-.175.477-.349.735-.54s.526-.4.793-.641.759-.7,1.375-1.222A17,17,0,0,1,8.487,5.165,5.911,5.911,0,0,1,10.8,4.274a2.033,2.033,0,0,1,1.918.77s.107.081.275.2.4.282.637.443.5.322.717.443a1.392,1.392,0,0,0,.515.2,7.054,7.054,0,0,1,1.287-1.3,8.206,8.206,0,0,1,1.921-1.117,9.013,9.013,0,0,1,2.544-.633,11.055,11.055,0,0,1,3.158.152s.2-.08.575-.191a14.551,14.551,0,0,1,1.612-.372,17.71,17.71,0,0,1,2.478-.251,18.715,18.715,0,0,1,3.173.17c.16.054.34-.02.6-.127a4.747,4.747,0,0,1,1.1-.329,6.09,6.09,0,0,1,1.964.033,14.741,14.741,0,0,1,3.2.959A6.244,6.244,0,0,0,40.014,2.5,23.067,23.067,0,0,1,43.373.831,10.92,10.92,0,0,1,47.637.005a6.54,6.54,0,0,1,4.254,1.711s.047.06.129.158.2.232.341.38.305.309.481.46a3.683,3.683,0,0,0,.549.4,7.535,7.535,0,0,1,.771.51,9.166,9.166,0,0,1,1.042.912,9.337,9.337,0,0,1,2.056,3.192A13.19,13.19,0,0,0,58.2,9.673a14.18,14.18,0,0,0,1.11,1.624,13.337,13.337,0,0,0,1.131,1.261,9.227,9.227,0,0,0,1,.858,2.358,2.358,0,0,1,.732.972,2.627,2.627,0,0,1,.209,1.324,1.883,1.883,0,0,1-.637,1.223,3.134,3.134,0,0,1-1.807.669s-.08.047-.2.124-.291.184-.466.305a6.169,6.169,0,0,0-.506.385,1.406,1.406,0,0,0-.326.364c.188,0,.329-.007.443-.007a.879.879,0,0,1,.282.034.668.668,0,0,1,.243.155,3.953,3.953,0,0,1,.324.355c.133.161.24.316.338.435a.566.566,0,0,0,.289.224c.1.02.211-.023.351-.159a3.9,3.9,0,0,0,.523-.713,2.826,2.826,0,0,1,.628-.758.988.988,0,0,1,.619-.234,1.235,1.235,0,0,1,.639.209,3.889,3.889,0,0,1,.689.571c.242.241.437.443.6.6a1.4,1.4,0,0,0,.443.3.471.471,0,0,0,.4-.039,1.9,1.9,0,0,0,.482-.432.179.179,0,0,1,.049-.012.841.841,0,0,1,.18,0,2.559,2.559,0,0,1,.362.059c.157.035.352.089.595.17l5.363-.641a49.256,49.256,0,0,1,2.838,23.529A43.559,43.559,0,0,1,51.334,75.8,46.159,46.159,0,0,1,29.78,80.611l-.108-2.147A6.752,6.752,0,0,1,26.941,75.1a7.507,7.507,0,0,1-.286-3.92,8.252,8.252,0,0,1,1.464-3.417A4.787,4.787,0,0,1,30.64,65.9c-.322-.456-.651-.906-.967-1.335s-.617-.838-.885-1.214-.5-.717-.684-1.012a3.31,3.31,0,0,1-.363-.73,1.755,1.755,0,0,0-.22-.5,1.083,1.083,0,0,0-.342-.335.96.96,0,0,0-.464-.134,1.508,1.508,0,0,0-.585.108,2.377,2.377,0,0,1-.914.077,8.655,8.655,0,0,1-1.246-.185A12.091,12.091,0,0,1,22.7,60.3a6.1,6.1,0,0,1-.974-.406c-.241-.134-.53-.288-.855-.438A7.988,7.988,0,0,0,19.8,59.05a5.769,5.769,0,0,0-1.237-.227,4.527,4.527,0,0,0-1.338.1c-.457.108-.859.216-1.237.292a4.244,4.244,0,0,1-1.085.1,3,3,0,0,1-1.105-.284,5.949,5.949,0,0,1-1.3-.857,2.268,2.268,0,0,1-.324,1.392,2.614,2.614,0,0,1-1.15,1.051,2.546,2.546,0,0,1-1.754.125,4.77,4.77,0,0,1-2.136-1.385.542.542,0,0,0-.043-.052,1.044,1.044,0,0,0-.134-.123,1.282,1.282,0,0,0-.234-.144,1.488,1.488,0,0,0-.343-.114,1.549,1.549,0,0,1-.5-.23,3.741,3.741,0,0,1-.6-.493,4.079,4.079,0,0,1-.558-.694,3.049,3.049,0,0,1-.375-.836s-.034-.067-.091-.171-.138-.245-.233-.392a4.082,4.082,0,0,0-.313-.433,1.177,1.177,0,0,0-.333-.292,2.433,2.433,0,0,1-.552-.557,10.483,10.483,0,0,1-.8-1.172,9.981,9.981,0,0,1-.744-1.515,5.327,5.327,0,0,1-.371-1.586L.867,50.48c-.025-.049-.062-.119-.109-.206s-.1-.191-.169-.307-.138-.243-.218-.377a2.436,2.436,0,0,1-.213-.838,8.145,8.145,0,0,1-.03-1.523A9.538,9.538,0,0,1,.461,45.3a8.451,8.451,0,0,1,.874-2.046c.107-.134.221-.262.319-.4a1.3,1.3,0,0,0,.219-.46,1.278,1.278,0,0,0-.023-.621,3.315,3.315,0,0,0-.407-.882,1.81,1.81,0,0,1-.091-.3,3.293,3.293,0,0,1-.07-.836A4.2,4.2,0,0,1,1.533,38.5a5.859,5.859,0,0,1,.876-1.572,1.108,1.108,0,0,0,.132-.126,2.072,2.072,0,0,0,.283-.4,2.654,2.654,0,0,0,.263-.7,3.574,3.574,0,0,0,.073-1.032l.258-.3c.158-.181.372-.429.6-.7s.47-.557.682-.818.394-.5.5-.658a1.447,1.447,0,0,1-.557-.54,2.958,2.958,0,0,1-.356-.882A4.335,4.335,0,0,1,4.177,29.7a4.45,4.45,0,0,1,.169-1.144L2.73,27.05s.06-.06.153-.164.217-.252.344-.426a4.187,4.187,0,0,0,.365-.587,2.049,2.049,0,0,0,.213-.647ZM1.979,19.966a3.447,3.447,0,0,0-.187,1.046,1.425,1.425,0,0,0,.188.764,1,1,0,0,0,.751.443,6.189,6.189,0,0,0,.968.087,1.056,1.056,0,0,0,.656-.194,1.112,1.112,0,0,0,.354-.677,5.67,5.67,0,0,0,.062-1.361l.646-4.62a.171.171,0,0,1-.036-.1.765.765,0,0,1,.074-.369,3.48,3.48,0,0,1,.457-.752,12.209,12.209,0,0,1,1.113-1.246l2.146-2.363a2.079,2.079,0,0,1,.787-.7,1.187,1.187,0,0,1,.757-.146.33.33,0,0,1,.254.437,2.43,2.43,0,0,1-.722,1.051,17.053,17.053,0,0,0-1.531,1.789,18.949,18.949,0,0,0-1.531,2.384,11.525,11.525,0,0,0-1.047,2.606,5.106,5.106,0,0,0-.08,2.455c.107.268.228.516.332.749a3.14,3.14,0,0,1,.232.659.983.983,0,0,1-.05.6,1.4,1.4,0,0,1-.514.568,1.815,1.815,0,0,0-.6.842,4.685,4.685,0,0,0-.269,1.144,7.279,7.279,0,0,0-.047,1.063,2.69,2.69,0,0,0,.065.6.29.29,0,0,0,.114.167.27.27,0,0,0,.177.035.711.711,0,0,0,.218-.066,1.725,1.725,0,0,0,.238-.136,1.411,1.411,0,0,1,.492-.152,3.407,3.407,0,0,1,1.909.258,3.227,3.227,0,0,1,1.037.752s.074.074.194.183.288.253.476.394a3.624,3.624,0,0,0,.6.374.988.988,0,0,0,.557.122c.161-.027.242-.046.282-.056s.04-.01.04,0a.113.113,0,0,0,.04.084,1,1,0,0,0,.282.184,1.065,1.065,0,0,0,.438.119.9.9,0,0,0,.338-.052.922.922,0,0,0,.217-.112.626.626,0,0,0,.077-.062l-1.18-1.717a.9.9,0,0,1-.244-.444.439.439,0,0,1,.056-.363A.27.27,0,0,1,11.9,26.2a1.766,1.766,0,0,1,.6.524s.014.027.042.077.072.124.133.218.137.208.232.339.208.278.341.439a1.593,1.593,0,0,0,.5.447.929.929,0,0,0,.509.145.25.25,0,0,0,.247-.259,1.485,1.485,0,0,0-.287-.762s-.047-.054-.119-.142-.169-.213-.27-.354a4.617,4.617,0,0,1-.289-.454,1.64,1.64,0,0,1-.178-.444,1.257,1.257,0,0,1,.045-.531,1.239,1.239,0,0,1,.248-.5.245.245,0,0,1,.37-.039,1.784,1.784,0,0,1,.411.857,5.8,5.8,0,0,0,.669,1.271,2.363,2.363,0,0,0,.74.687,1.991,1.991,0,0,0,.841.245,4.276,4.276,0,0,0,.972-.057.813.813,0,0,1,.1-.082,1.71,1.71,0,0,1,.325-.173,2.462,2.462,0,0,1,.566-.152,3.517,3.517,0,0,1,.827-.02s.155-.094.391-.26a10.527,10.527,0,0,0,.885-.693,6.809,6.809,0,0,0,.944-1,2.955,2.955,0,0,0,.57-1.167.814.814,0,0,1,.382-.556.883.883,0,0,1,.572-.114.484.484,0,0,1,.39.249c.059.134.025.315-.163.53,0,0-.114.168-.31.428s-.474.612-.8.981a10.249,10.249,0,0,1-1.1,1.082,4.013,4.013,0,0,1-1.214.73c-.4.134-.591.275-.637.405s.051.251.219.345a1.73,1.73,0,0,0,.642.185,1.225,1.225,0,0,0,.633-.077,14.374,14.374,0,0,0,2.358-.074,3.34,3.34,0,0,0,1.612-.6,2.586,2.586,0,0,0,.888-1.442,8.64,8.64,0,0,0,.185-2.609,12,12,0,0,1,1.189-1.344,1.858,1.858,0,0,1,.676-.468c.141-.034.2.044.173.2a1.8,1.8,0,0,1-.321.649s-.04.121-.075.28a1.622,1.622,0,0,0-.046.512c.02.154.09.265.256.25a1.808,1.808,0,0,0,.829-.5,5.583,5.583,0,0,1,1.289-.825,7.706,7.706,0,0,1,1.289-.463c.4-.107.766-.174,1.048-.221s.484-.074.566-.1a.966.966,0,0,1,.315-.037,1.228,1.228,0,0,1,.366.064.518.518,0,0,1,.266.184.337.337,0,0,1,.016.325s-.034.02-.094.051a2.716,2.716,0,0,1-.631.224,2.157,2.157,0,0,1-.455.051c-.161,0-.349-.02-.559-.032a3.6,3.6,0,0,0-.69.017,2.54,2.54,0,0,0-.791.238,3.216,3.216,0,0,0-.86.631l-.751,1.077H27.848s-.033.027-.083.077a1.748,1.748,0,0,0-.184.217,1.532,1.532,0,0,0-.184.337,1.215,1.215,0,0,0-.083.437,5.124,5.124,0,0,0-.292.594,1.094,1.094,0,0,0-.111.453c.013.094.087.115.251.011a4.833,4.833,0,0,0,.795-.734A6.979,6.979,0,0,1,29.5,25a6.341,6.341,0,0,1,1.9-.531,6.97,6.97,0,0,1,2.242.113,9.785,9.785,0,0,1,2.574.958,2.72,2.72,0,0,1,.266.335.75.75,0,0,0,.245.243A.411.411,0,0,0,37.1,26.1a2.565,2.565,0,0,0,.627-.452,4.268,4.268,0,0,1,.772-.558,1.661,1.661,0,0,1,.581-.217c.141-.013.218.033.2.143a1.226,1.226,0,0,1-.373.524c-.241.242-.489.471-.7.682a3.12,3.12,0,0,0-.492.581.4.4,0,0,0-.029.46,1.137,1.137,0,0,0,.687.318,6.882,6.882,0,0,1,.936.478c.2.129.29.226.283.287s-.111.084-.3.066a4.42,4.42,0,0,1-.812-.186,2.006,2.006,0,0,0-.908-.081,1.647,1.647,0,0,0-.636.242,1.765,1.765,0,0,0-.374.322,1.255,1.255,0,0,0-.122.161,3.817,3.817,0,0,1-.43.351,6.118,6.118,0,0,1-1.235.683,6.324,6.324,0,0,1-1.959.461,7.1,7.1,0,0,1-2.6-.314c.35.215.693.416,1.037.587a5.529,5.529,0,0,0,1.045.406,3.658,3.658,0,0,0,1.1.124,3.919,3.919,0,0,0,1.214-.258,3.059,3.059,0,0,1,.746-.065,2.063,2.063,0,0,1,.624.105c.161.06.261.144.261.246s-.1.223-.341.358a3.227,3.227,0,0,1-.908.333,4.474,4.474,0,0,1-1.292.071A6.933,6.933,0,0,1,32,31.588a11.775,11.775,0,0,1-2.117-1A3.386,3.386,0,0,0,30.928,31.8a6.129,6.129,0,0,0,3.246,1.175,2.906,2.906,0,0,0,1.4-.238,1.282,1.282,0,0,1,.614-.127.5.5,0,0,1,.352.154.237.237,0,0,1,.03.275.555.555,0,0,1-.353.235,5.482,5.482,0,0,1-1.039.173,7.554,7.554,0,0,1-1.8-.079,8.038,8.038,0,0,1-2.289-.743A9.539,9.539,0,0,1,28.6,30.807c-.832-.832-1.348-1.174-1.636-1.214s-.348.221-.268.6a4.113,4.113,0,0,0,.577,1.281,1.965,1.965,0,0,0,.9.839s.161.147.447.374a14.1,14.1,0,0,0,1.193.846,11.719,11.719,0,0,0,1.715.906,7.461,7.461,0,0,0,2.015.554,5.239,5.239,0,0,1,1.815.534,4.226,4.226,0,0,1,1.271,1,4.1,4.1,0,0,1,.992,2.657s.074.121.163.3a3.5,3.5,0,0,1,.253.665,1.028,1.028,0,0,1-.008.665.612.612,0,0,1-.622.3,2.388,2.388,0,0,1,.54.2c.151.078.279.162.4.236a1.639,1.639,0,0,0,.36.177.885.885,0,0,0,.42.027,1.192,1.192,0,0,1,.716.255,4,4,0,0,1,.907.829,3.792,3.792,0,0,1,.685,1.252,2.8,2.8,0,0,1,.051,1.524,3.327,3.327,0,0,1,.268.277,3.952,3.952,0,0,1,.51.73,2.5,2.5,0,0,1,.309,1.032,1.907,1.907,0,0,1-.334,1.183,9.757,9.757,0,0,1-.659.88,3.281,3.281,0,0,0-.347.448.359.359,0,0,0-.006.347,3.952,3.952,0,0,0,.366.579s-.114-.054-.3-.153-.444-.243-.732-.424a9.791,9.791,0,0,1-.914-.645,5.752,5.752,0,0,1-.844-.816,3.628,3.628,0,0,0-.877-.751,6.26,6.26,0,0,0-.987-.5,8.051,8.051,0,0,0-.806-.277c-.206-.059-.333-.086-.333-.086a7.722,7.722,0,0,1-1.612-.962c-.208-.2-.135-.285.08-.3a3.315,3.315,0,0,1,.927.145,3.844,3.844,0,0,1,.927.366l.676.418c.233.144.471.291.706.439s.466.3.685.439.427.285.614.42a3.9,3.9,0,0,0,.658.478,1.477,1.477,0,0,0,.658.206.9.9,0,0,0,.618-.217,2.249,2.249,0,0,0,.691-1.86,2.591,2.591,0,0,0-.291-.889,3.5,3.5,0,0,0-.411-.607,2.65,2.65,0,0,0-.209-.225,2.1,2.1,0,0,0,.023-.659,2.78,2.78,0,0,0-.33-1.06,2.874,2.874,0,0,0-1.034-1.06,5.073,5.073,0,0,0-2.091-.657s-.06,0-.162-.005-.246-.015-.414-.035a5.29,5.29,0,0,1-.555-.1,3.508,3.508,0,0,1-.586-.187c-.188-.08-.376-.188-.547-.278a1.438,1.438,0,0,0-.446-.178.2.2,0,0,0-.244.185,2.108,2.108,0,0,0,.059.809c.268.322.6.759.9,1.18a9.058,9.058,0,0,1,.692,1.088c.127.262.117.379-.133.223a12.006,12.006,0,0,1-1.573-1.416,5.234,5.234,0,0,0-.432-.768,7.262,7.262,0,0,0-.613-.789,6.586,6.586,0,0,0-.733-.708,4.288,4.288,0,0,0-.794-.525,6.43,6.43,0,0,1-.912-.589c-.327-.245-.667-.527-.982-.809s-.607-.563-.84-.808a3.985,3.985,0,0,1-.487-.587.841.841,0,0,0-.387-.312,2.364,2.364,0,0,0-.539-.16,4.208,4.208,0,0,0-.479-.059c-.126-.008-.207-.008-.207-.008s-.047-.013-.124-.039-.184-.062-.3-.109-.254-.1-.385-.169a2.445,2.445,0,0,1-.365-.219.829.829,0,0,0-.391-.148,1.666,1.666,0,0,0-.481.013,2.64,2.64,0,0,0-.5.134,2.67,2.67,0,0,0-.449.216,3.657,3.657,0,0,1-.451.239,1.92,1.92,0,0,1-.582.149,2.22,2.22,0,0,1-.764-.071,4.1,4.1,0,0,1-.995-.423,8.713,8.713,0,0,0-1.833-.242,10.153,10.153,0,0,0-2.125.161,9.176,9.176,0,0,0-2.185.684,7.843,7.843,0,0,0-2.014,1.328c-.107.107-.234.241-.375.364a1.567,1.567,0,0,1-.458.293.62.62,0,0,1-.5-.009,1.187,1.187,0,0,1-.5-.542.873.873,0,0,0-.151-.152,1.5,1.5,0,0,0-.493-.263,2.212,2.212,0,0,0-.9-.082,4.336,4.336,0,0,0-1.358.391s-.537.456-1.284,1.2A24.983,24.983,0,0,0,4.166,42.68,10.567,10.567,0,0,0,2.33,46.367,3.589,3.589,0,0,0,3.162,49.8s-.007.134,0,.357a5.98,5.98,0,0,0,.115.891A5.237,5.237,0,0,0,3.658,52.2a4.005,4.005,0,0,0,.788,1.142,2.922,2.922,0,0,0,.981.71.611.611,0,0,0,.751-.186,2.62,2.62,0,0,0,.368-1.414,16.932,16.932,0,0,0-.166-2.972,11.316,11.316,0,0,1-.064-1.557,3.839,3.839,0,0,1,.267-1.315,3.038,3.038,0,0,1,.81-1.114,5.9,5.9,0,0,1,1.564-.952,12.984,12.984,0,0,0,1.535-.774,3.3,3.3,0,0,0,.759-.595,1.038,1.038,0,0,0,.255-.474,1.852,1.852,0,0,0,.025-.413,1.962,1.962,0,0,1,.044-.419.5.5,0,0,1,.145-.29c.067-.047.154-.031.265.091a2.746,2.746,0,0,1,.4.725.779.779,0,0,0,.052.2,1.1,1.1,0,0,0,.284.409,1.537,1.537,0,0,0,.707.349,3.618,3.618,0,0,0,1.32.016c.563.107,1.348.22,2.244.39a23.365,23.365,0,0,1,2.908.722,12.311,12.311,0,0,1,2.909,1.346,7.073,7.073,0,0,1,2.245,2.262,15.092,15.092,0,0,1,1.091,2.066c.178.456.184.7.063.778s-.369,0-.7-.187a11.361,11.361,0,0,1-1.2-.831,8.965,8.965,0,0,0-2.531-1.1,26.073,26.073,0,0,0-4.111-.882,21.6,21.6,0,0,0-4.574-.157,9.536,9.536,0,0,0-3.919,1.07,2.933,2.933,0,0,0-.953.446,1.8,1.8,0,0,0-.63.708.648.648,0,0,0,.135.748,2.521,2.521,0,0,0,1.343.566,13.215,13.215,0,0,1,1.523.611,8.819,8.819,0,0,1,1.494.893,5.28,5.28,0,0,1,1.192,1.214,3.627,3.627,0,0,1,.618,1.576s.054.107.151.268a5.274,5.274,0,0,0,.413.59,3.1,3.1,0,0,0,.614.59,1.337,1.337,0,0,0,.756.268,3.3,3.3,0,0,0,.691-.055c.183-.042.306-.112.34-.226s-.023-.272-.2-.488a5.986,5.986,0,0,0-.936-.842L14.433,53.99s-.014-.06-.041-.157-.068-.231-.122-.378a3.621,3.621,0,0,0-.2-.458,1.7,1.7,0,0,0-.282-.4,1.013,1.013,0,0,1-.232-.383.53.53,0,0,1-.021-.343c.034-.081.111-.115.239-.061a1.782,1.782,0,0,1,.55.462,6.064,6.064,0,0,1,.657.913c.2.329.384.671.566.993a8.12,8.12,0,0,0,.545.872,1.793,1.793,0,0,0,.6.55c.214.107.422.235.638.362a6.172,6.172,0,0,0,.69.362,3.325,3.325,0,0,0,.831.242,3.743,3.743,0,0,0,1.063,0,4.4,4.4,0,0,1,.981-.041,1.871,1.871,0,0,1,.68.189,3.271,3.271,0,0,1,.6.41c.211.173.446.381.741.622a1.53,1.53,0,0,0,.7.35,4.429,4.429,0,0,0,.987.118,6.638,6.638,0,0,0,1.028-.062,4.094,4.094,0,0,0,.826-.192,4.037,4.037,0,0,0,.762-.055,1.3,1.3,0,0,0,.764-.387,1.147,1.147,0,0,0,.161-1.051A6.306,6.306,0,0,0,27.1,54.422a4.013,4.013,0,0,1-.445-1.1,3.549,3.549,0,0,1-.133-1.044c.02-.255.111-.376.29-.239a4.166,4.166,0,0,1,.824,1.311l.257.359.589.822.649.9c.2.272.357.493.437.6a7.139,7.139,0,0,1,.342.73,5.476,5.476,0,0,0,.7,1.163,3.56,3.56,0,0,0,1.308,1.022,4.222,4.222,0,0,0,2.152.306,31.43,31.43,0,0,0,3.194.033,14.644,14.644,0,0,0,3.263-.49,7.451,7.451,0,0,0,2.8-1.416,5.8,5.8,0,0,0,1.8-2.745s.087-.134.231-.339.344-.48.572-.761a7.637,7.637,0,0,1,.733-.8,1.853,1.853,0,0,1,.715-.459,2.678,2.678,0,0,0,.853-.442,4.368,4.368,0,0,0,.985-1.006,4.228,4.228,0,0,0,.684-1.57,4.905,4.905,0,0,0-.049-2.134,6.819,6.819,0,0,1-.149-1.469A10.287,10.287,0,0,1,49.8,44.3c.053-.4.12-.745.173-.986s.094-.382.094-.382.061-.141.148-.317a3.552,3.552,0,0,1,.309-.528c.108-.141.208-.211.269-.106a2.1,2.1,0,0,1,.027.951c-.054.564-.115,1.053-.169,1.484s-.1.8-.127,1.132a4.756,4.756,0,0,0-.007.87,2,2,0,0,0,.194.7,6.765,6.765,0,0,0,.333.626.682.682,0,0,0,.393.343c.148.027.316-.054.514-.3a5.744,5.744,0,0,0,.7-1.31,6.78,6.78,0,0,0,.538-1.022,6.478,6.478,0,0,0,.4-1.365,8.546,8.546,0,0,0,.117-1.807,13.558,13.558,0,0,0-.306-2.351,15.39,15.39,0,0,1-.308-2.581,10.923,10.923,0,0,1,.082-1.956c.074-.47.184-.718.3-.627s.246.52.354,1.405a.866.866,0,0,0,.123.156.35.35,0,0,0,.294.126c.114-.02.238-.13.354-.417a5.88,5.88,0,0,0,.3-1.472,20.283,20.283,0,0,0,.059-2.742c-.035-1.058-.119-2.216-.233-3.336s-.258-2.2-.414-3.115a12.984,12.984,0,0,0-.485-2.08,5.168,5.168,0,0,1-.172-1.148,1.6,1.6,0,0,1,.091-.715c.067-.114.168-.077.292.19a7.718,7.718,0,0,1,.433,1.568s.034.161.091.429.138.644.232,1.074.2.913.313,1.4.225.966.333,1.4.282,1.1.444,1.921a20.937,20.937,0,0,1,.374,2.827,13.224,13.224,0,0,1-.17,3.19A7.941,7.941,0,0,1,54.9,38.426s.074.067.19.19a6.339,6.339,0,0,1,.441.522,5.686,5.686,0,0,1,.5.783,4.067,4.067,0,0,1,.37.974s.081.087.191.191a2.123,2.123,0,0,0,.373.292c.121.067.222.08.252-.03a1.609,1.609,0,0,0-.172-.775,9.992,9.992,0,0,1-.591-.878,7.466,7.466,0,0,1-.36-.677c-.087-.188-.144-.335-.179-.436s-.049-.154-.049-.154a2.407,2.407,0,0,1-.141-.7,1.044,1.044,0,0,1,.071-.525c.06-.1.157-.1.293.059a4.039,4.039,0,0,1,.525,1.055,4.962,4.962,0,0,0,.786,1.024c.222.206.4.283.5.25s.148-.178.1-.414a3.253,3.253,0,0,0-.422-.968s-.013-.033-.044-.1-.077-.152-.144-.266-.154-.251-.265-.407-.245-.331-.406-.519a2.252,2.252,0,0,1-.369-.611.915.915,0,0,1-.087-.49c.027-.107.114-.141.276-.047a3.12,3.12,0,0,1,.719.718l.073.075c.047.049.113.119.193.206s.173.191.273.306.206.243.312.376a1.65,1.65,0,0,0,.368.336.4.4,0,0,0,.306.095c.067-.027.087-.12.023-.308a4.186,4.186,0,0,0-.48-.872L56.937,35.1s-.08-.141-.171-.324a3.128,3.128,0,0,1-.231-.576c-.04-.168-.02-.279.131-.234a3.2,3.2,0,0,1,.916.7l.856.862s.134.094.313.2a2.916,2.916,0,0,0,.575.28c.175.053.3.039.293-.122a2.641,2.641,0,0,0-.534-1.006s-.04-.053-.109-.14-.166-.207-.281-.341-.245-.281-.381-.422a4.657,4.657,0,0,0-.41-.384,1.1,1.1,0,0,1-.105-.064,2.038,2.038,0,0,1-.256-.2,2.331,2.331,0,0,1-.317-.365,2.463,2.463,0,0,1-.288-.545c-.081-.215-.142-.37-.17-.468s-.026-.138.021-.124a1.28,1.28,0,0,1,.284.2c.146.118.348.285.617.5,0,0,.02.027.06.072a2.514,2.514,0,0,0,.181.182,3.078,3.078,0,0,0,.3.243,3.235,3.235,0,0,0,.423.253.789.789,0,0,0,.5.069.54.54,0,0,0,.37-.243.532.532,0,0,0-.011-.5,2.077,2.077,0,0,0-.643-.715c-.349-.269-.652-.524-.909-.756s-.469-.44-.637-.615-.292-.316-.375-.414-.123-.151-.123-.151a5.953,5.953,0,0,1-.505-.563c-.117-.154-.178-.268-.164-.321s.1-.046.279.041a6.6,6.6,0,0,1,.824.524c.375.268.749.529,1.083.741a4.218,4.218,0,0,0,.832.44c.208.067.332.041.33-.123a2.409,2.409,0,0,0-.423-.948c-.3-.484-.564-.894-.8-1.236s-.441-.618-.609-.832-.3-.369-.388-.469-.136-.147-.136-.147a4.8,4.8,0,0,1-.885-.9c-.188-.26-.268-.465-.241-.565s.162-.1.4.058a5.787,5.787,0,0,1,1.046.973,4.664,4.664,0,0,0,1.115.98c.283.154.474.148.562.013a.934.934,0,0,0-.063-.752,5.676,5.676,0,0,0-.757-1.316c-.8-.617-1.5-1.167-2.019-1.6a4.571,4.571,0,0,1-.932-.93c-.08-.167.094-.177.6.016a28.5,28.5,0,0,1,2.57,1.233.309.309,0,0,0,.109-.023.183.183,0,0,0,.118-.164.771.771,0,0,0-.183-.446,5.754,5.754,0,0,0-.8-.869c-.4-.376-.765-.678-1.047-.909a6.334,6.334,0,0,1-.564-.486c-.08-.094-.04-.121.161-.084s.564.137,1.128.3c0,0,.121.054.265.109a1.812,1.812,0,0,0,.405.119c.094.007.114-.037-.037-.183a9.333,9.333,0,0,0-1.063-.8,1.952,1.952,0,0,1-.815-.331,2.4,2.4,0,0,1-.553-.553,3.948,3.948,0,0,1-.352-.594c-.091-.184-.158-.345-.212-.452a2.11,2.11,0,0,1-.127-.288.358.358,0,0,1-.006-.236.467.467,0,0,1,.2-.215,2.393,2.393,0,0,1,.477-.226s.054-.02.139-.057.2-.091.33-.158a3.332,3.332,0,0,0,.39-.239,1.481,1.481,0,0,0,.319-.3,1.646,1.646,0,0,0,.148-.232c.027-.05.04-.077.067-.091a.338.338,0,0,1,.148-.01c.081,0,.2.01.39.01A1.079,1.079,0,0,0,58,16.785a.387.387,0,0,0,.186-.147.3.3,0,0,0,.046-.147.259.259,0,0,0,0-.067s.033,0,.089,0,.132-.01.219-.024a1.885,1.885,0,0,0,.28-.064,1.075,1.075,0,0,0,.271-.126,1.3,1.3,0,0,0,.312-.357,1.886,1.886,0,0,0,.263-.649,1.347,1.347,0,0,0-.078-.79,1.775,1.775,0,0,0-.71-.779,7.505,7.505,0,0,1-1.141-.929,11.508,11.508,0,0,1-1.06-1.19,9.507,9.507,0,0,1-.818-1.231,3.716,3.716,0,0,1-.416-1.051c-.054-.3-.1-.657-.191-1.055A5.354,5.354,0,0,0,54.8,6.91a4.448,4.448,0,0,0-.984-1.286A6.157,6.157,0,0,0,52,4.509a15.054,15.054,0,0,0-1.492-1.494,5.141,5.141,0,0,0-2.318-1.122,6.492,6.492,0,0,0-3.526.427,18.913,18.913,0,0,0-5.116,3.154,2.832,2.832,0,0,1-.3.1,3.928,3.928,0,0,1-.767.129,3.092,3.092,0,0,1-1.009-.093,2.463,2.463,0,0,1-1.03-.566,2.282,2.282,0,0,0-1.184-.53,5.112,5.112,0,0,0-1.366-.018,9.821,9.821,0,0,0-1.164.2c-.312.072-.527.132-.581.132,0,0-.376-.02-.968-.028s-1.4,0-2.266.042a18.638,18.638,0,0,0-2.607.3,5.06,5.06,0,0,0-1.993.756s-.054.007-.143.009a2.235,2.235,0,0,1-.354-.021,1.861,1.861,0,0,1-.455-.122,1.374,1.374,0,0,1-.445-.294A1.8,1.8,0,0,0,21.8,5.325a10.862,10.862,0,0,0-1.976.324,9.225,9.225,0,0,0-2.015.746,2.636,2.636,0,0,0-1.229,1.118s-.155.235-.393.552a9.568,9.568,0,0,1-.9,1.045,2.014,2.014,0,0,1-.977.623c-.292.036-.527-.152-.633-.714,0,0-.054-.094-.149-.237a5.6,5.6,0,0,0-.4-.529,3.483,3.483,0,0,0-.581-.549,1.488,1.488,0,0,0-.691-.3,1.271,1.271,0,0,0-.175-.255,1.493,1.493,0,0,0-.577-.416,1.755,1.755,0,0,0-1.06-.054,4.415,4.415,0,0,0-1.623.831s-.121.141-.316.357-.463.509-.758.811-.617.614-.919.871a3.145,3.145,0,0,1-.8.539,2.736,2.736,0,0,0-.819.584,7.158,7.158,0,0,0-.98,1.187,8.277,8.277,0,0,0-.859,1.669,7.29,7.29,0,0,0-.455,2.032c-.054.725-.114,1.362-.175,1.911s-.121,1.008-.175,1.378-.1.648-.135.834-.054.28-.054.28M3.805,41.113l3.433-3.222a1.542,1.542,0,0,1-.264-1.028A3.364,3.364,0,0,1,7.293,35.7a5.583,5.583,0,0,1,.641-1.058,3.926,3.926,0,0,1,.7-.727,1.4,1.4,0,0,1,.106-.31,2.626,2.626,0,0,1,.5-.723,3.985,3.985,0,0,1,1.162-.824,7.283,7.283,0,0,1,2.1-.614l.21-.018c.129-.011.307-.028.5-.048s.406-.043.6-.068.377-.052.511-.078a6.021,6.021,0,0,1,.778-.077,9.584,9.584,0,0,1,1.262.023,5.7,5.7,0,0,1,1.343.265,2.243,2.243,0,0,1,1.021.648l.107.087c.067.054.161.127.268.207s.228.167.349.248a3.4,3.4,0,0,0,.35.208,4.645,4.645,0,0,1,.717.643c.337.342.735.778,1.09,1.207a7.476,7.476,0,0,1,.83,1.167c.163.315.177.523-.063.523a.364.364,0,0,0,.077.041.582.582,0,0,0,.217.041.8.8,0,0,0,.338-.08,1.549,1.549,0,0,0,.439-.321,1.135,1.135,0,0,1,.519-.3,1.564,1.564,0,0,1,.568-.032,4.829,4.829,0,0,1,.589.11c.2.046.391.093.579.121s.49.066.791.095a4.466,4.466,0,0,0,.78.024c.181-.02.244-.078.075-.2a6.766,6.766,0,0,0-1.323-.568,1.405,1.405,0,0,0-.138-.082,2.751,2.751,0,0,0-.4-.173,3.4,3.4,0,0,0-.641-.153,3.87,3.87,0,0,0-.862-.021s-.06-.027-.164-.084a4.892,4.892,0,0,1-.426-.265,5.835,5.835,0,0,1-.587-.466,5.953,5.953,0,0,1-.649-.687,1.151,1.151,0,0,1-.3-.581.2.2,0,0,1,.187-.209.879.879,0,0,1,.407.052.962.962,0,0,1,.356.2.675.675,0,0,1,.151.308,1.385,1.385,0,0,0,.159.389,1.139,1.139,0,0,0,.461.389,3.666,3.666,0,0,0,1.055.309c.483.081.926.128,1.34.192a5.276,5.276,0,0,1,1.169.292,3.278,3.278,0,0,1,1.069.693,5.97,5.97,0,0,1,1.039,1.4,11.636,11.636,0,0,0,1.081,1.611,6.961,6.961,0,0,0,1.131,1.128,4.133,4.133,0,0,0,1.152.645,2.84,2.84,0,0,0,1.143.163,7.692,7.692,0,0,0,1.695.447,2.462,2.462,0,0,0,1.15-.074.735.735,0,0,0,.505-.557,1.575,1.575,0,0,0-.24-1s-.04-.047-.1-.128a3.909,3.909,0,0,1-.221-.329,2.812,2.812,0,0,1-.221-.45,1.427,1.427,0,0,1-.1-.49,2,2,0,0,0-.035-.463.879.879,0,0,0-.247-.434,2.111,2.111,0,0,0-.67-.414,8.2,8.2,0,0,0-1.3-.4s-.1-.054-.265-.129-.392-.173-.647-.26a4.216,4.216,0,0,0-.807-.2,1.572,1.572,0,0,0-.746.054s-.041-.027-.106-.074-.157-.114-.258-.195-.212-.175-.317-.276a2.508,2.508,0,0,1-.285-.317,1.455,1.455,0,0,0-.334-.3,3.9,3.9,0,0,0-.474-.273c-.175-.087-.363-.171-.554-.253s-.386-.163-.575-.243a4.3,4.3,0,0,1-.746-.468c-.3-.22-.633-.491-.968-.78s-.67-.594-.969-.88-.56-.555-.748-.769a2.774,2.774,0,0,0-1.088-.6,14.23,14.23,0,0,0-1.811-.488c-.671-.141-1.382-.259-2.053-.348s-1.3-.15-1.812-.177a4.113,4.113,0,0,0-.575-.077,10.1,10.1,0,0,0-1.692.023,16.421,16.421,0,0,0-2.759.506A24.549,24.549,0,0,0,9.6,30.913a3.168,3.168,0,0,0-.708.395,3.242,3.242,0,0,0-.538.5,3.9,3.9,0,0,0-.4.565,5.288,5.288,0,0,0-.288.575,4.907,4.907,0,0,1-.363.658c-.154.242-.335.5-.523.738a8.232,8.232,0,0,1-.563.657,2.565,2.565,0,0,1-.483.414,3.494,3.494,0,0,0-.663,1,19.824,19.824,0,0,0-.866,1.891,10.684,10.684,0,0,0-.585,1.871c-.094.519-.06.882.182.936M5.522,29.2s-.007.107,0,.246a1.377,1.377,0,0,0,.081.438c.054.127.141.211.282.176s.335-.19.6-.539c0,0,.007-.02.022-.055a1.614,1.614,0,0,1,.072-.146,1.968,1.968,0,0,1,.132-.206,2.056,2.056,0,0,1,.2-.236.62.62,0,0,0,.122-.422,1.259,1.259,0,0,0-.121-.543.493.493,0,0,0-.362-.3.771.771,0,0,0-.6.3l-.052.156-.122.367-.142.427-.113.337m3.221-.214s-.007.107,0,.247a1.96,1.96,0,0,0,.046.438c.034.127.091.211.187.176s.23-.19.419-.539c0,0-.04-.067-.1-.156a2.577,2.577,0,0,0-.222-.287c-.081-.087-.162-.151-.222-.146s-.1.079-.1.267M29.46,27.694a3.114,3.114,0,0,0,.144.3,1.83,1.83,0,0,0,.366.492.376.376,0,0,0,.487.068,1.753,1.753,0,0,0,.507-.969,2.644,2.644,0,0,0,.256-.671,1.613,1.613,0,0,0,.037-.67.391.391,0,0,0-.325-.348,1.338,1.338,0,0,0-.829.3.911.911,0,0,0-.116.084,1.437,1.437,0,0,0-.247.264,1.5,1.5,0,0,0-.227.466,1.8,1.8,0,0,0-.055.688m5.58-1.609s.013.127.022.332a7.612,7.612,0,0,1-.008.795,4.879,4.879,0,0,1-.149.956,2.067,2.067,0,0,1-.4.815.466.466,0,0,0,.153,0,1.167,1.167,0,0,0,.424-.15,2.664,2.664,0,0,0,.646-.532,6.436,6.436,0,0,0,.818-1.146l-.1-.077c-.066-.05-.164-.124-.291-.218s-.286-.208-.472-.338-.4-.278-.642-.438M21.948,47.657c.3.134.456.141.531.075s.064-.2.016-.356a2.643,2.643,0,0,0-.2-.457c-.073-.132-.133-.226-.133-.226a2.087,2.087,0,0,0-.778-.432c-.135-.015-.166.075-.145.2a1.679,1.679,0,0,0,.156.424c.065.132.125.233.125.233Zm-2.258-.108c.3.108.464.069.55-.052a.771.771,0,0,0,.056-.537,3.588,3.588,0,0,0-.166-.618c-.062-.175-.116-.3-.116-.3a1.817,1.817,0,0,0-.758-.537.243.243,0,0,0-.3.176,1.155,1.155,0,0,0-.042.438,2.2,2.2,0,0,0,.028.246,2.383,2.383,0,0,0,.208.546,2.019,2.019,0,0,0,.248.365,1.63,1.63,0,0,0,.208.2.844.844,0,0,0,.087.064m-2.149-.536a1.246,1.246,0,0,0,.213-.072.947.947,0,0,0,.365-.262.581.581,0,0,0,.1-.524,1.965,1.965,0,0,0-.57-.857,1.342,1.342,0,0,0-.791-.488.4.4,0,0,0-.379.287,1.725,1.725,0,0,0-.117.549,2.7,2.7,0,0,0-.005.3,2.155,2.155,0,0,0,.365.619,1.43,1.43,0,0,0,.386.318,1.125,1.125,0,0,0,.305.117.65.65,0,0,0,.124.017m-3.109-.107a.6.6,0,0,0,.464.185.593.593,0,0,0,.434-.238.962.962,0,0,0,.173-.64,2.441,2.441,0,0,0-.32-1.023,1.617,1.617,0,0,0-.61-.717.4.4,0,0,0-.478.058.922.922,0,0,0-.257.522,1.307,1.307,0,0,0,.054.673,2.268,2.268,0,0,0,.13.456,3.02,3.02,0,0,0,.18.375c.061.107.118.194.16.255s.069.094.069.094m-2.576.107c.4.269.656.3.812.2a.724.724,0,0,0,.22-.6,3.97,3.97,0,0,0-.081-.8c-.045-.235-.092-.4-.092-.4-.268-.456-.49-.671-.671-.736a.361.361,0,0,0-.43.159,1.593,1.593,0,0,0-.229.5,2.658,2.658,0,0,0-.067.29,3.272,3.272,0,0,0,.129.626,2.562,2.562,0,0,0,.18.434,1.855,1.855,0,0,0,.16.253.866.866,0,0,0,.069.082m-1.4.536a.5.5,0,0,0,.375-.42,1.234,1.234,0,0,0-.118-.612,3.535,3.535,0,0,0-.3-.551c-.1-.146-.169-.24-.169-.24a1.2,1.2,0,0,0-.762-.443.487.487,0,0,0-.419.282,1.7,1.7,0,0,0-.177.524,2.431,2.431,0,0,0-.037.282,2.183,2.183,0,0,0,.115.773.817.817,0,0,0,.326.421.9.9,0,0,0,.507.119,2.307,2.307,0,0,0,.658-.133m-2.466.861a1.83,1.83,0,0,0,.538.057c.1-.016.123-.066.1-.154a1.889,1.889,0,0,0-.193-.373c-.1-.162-.217-.362-.338-.6-.133-.269-.247-.37-.342-.371s-.173.1-.234.234a2.279,2.279,0,0,0-.134.436c-.029.134-.043.235-.043.235a1.112,1.112,0,0,0,.194.4.444.444,0,0,0,.212.15.359.359,0,0,0,.171.009.3.3,0,0,0,.07-.021m3.434-13.1c-.08.3-.147.564-.2.8s-.1.441-.132.609-.057.3-.072.388-.022.136-.022.136c.269.4.437.563.542.551s.149-.2.169-.485.017-.681.029-1.109a8.491,8.491,0,0,1,.121-1.321,1.767,1.767,0,0,1,.27-.774.183.183,0,0,1,.28-.029.946.946,0,0,1,.22.293,1.934,1.934,0,0,1,.089.191,1.274,1.274,0,0,1,.5-.564,4.065,4.065,0,0,1,.8-.4,7.5,7.5,0,0,1,.736-.242c.2-.054.324-.081.324-.081a3.884,3.884,0,0,0,1.1-.31c.105-.075-.005-.126-.2-.159a5.928,5.928,0,0,0-.7-.059c-.23-.008-.411-.008-.411-.008s-.1-.02-.26-.042a5.86,5.86,0,0,0-.612-.052,3.26,3.26,0,0,0-.712.049,1.08,1.08,0,0,0-.559.259,1.157,1.157,0,0,1-.479.277,2.056,2.056,0,0,1-.529.086,2.956,2.956,0,0,1-.428-.015c-.109-.012-.176-.025-.176-.025a3.16,3.16,0,0,0-.8.419c-.106.1-.075.152.012.186a1.181,1.181,0,0,0,.354.044c.123,0,.223-.006.223-.006a.542.542,0,0,1,.31.007.44.44,0,0,1,.24.208.929.929,0,0,1,.1.449,2.743,2.743,0,0,1-.113.731m50.016.646a27.24,27.24,0,0,1-.1,4.256,25.513,25.513,0,0,1-.681,3.793,27.073,27.073,0,0,1-1.124,3.39,33.062,33.062,0,0,1-1.428,3.049,3.2,3.2,0,0,0,.676.4c.272.126.574.244.856.344s.544.184.735.243.312.092.312.092a2.084,2.084,0,0,0,2.142-.076A4.644,4.644,0,0,0,64.3,49.711a11.871,11.871,0,0,0,.844-2.037c.183-.578.27-.981.27-.981a30.308,30.308,0,0,0,1.128-6.318,54.305,54.305,0,0,0,.092-6.791c-.1-2.247-.312-4.431-.571-6.409S65.5,23.427,65.2,22a8.413,8.413,0,0,0-2.461-1.245,2.371,2.371,0,0,0-1.433-.017,1.366,1.366,0,0,0-.668.507,1.173,1.173,0,0,0-.164.326,24.083,24.083,0,0,1,.649,4.014c.146,1.545.229,3.212.276,4.749s.056,2.942.054,3.964-.016,1.659-.016,1.659m-1.18.535a21.069,21.069,0,0,1-.223,3.4c-.156,1.107-.373,2.16-.594,3.072S59,44.645,58.83,45.188s-.283.858-.283.858a14.3,14.3,0,0,1-1.516,3.588,22.717,22.717,0,0,1-2.081,2.974c-.7.852-1.356,1.546-1.84,2.028s-.792.75-.792.75a24.813,24.813,0,0,1-3.45,3.26,29.254,29.254,0,0,1-3.551,2.363c-1.167.664-2.3,1.217-3.35,1.7s-2.016.89-2.847,1.265c-.591.376-.826.592-.846.7s.174.118.442.078a7.961,7.961,0,0,0,.885-.2c.275-.077.483-.144.483-.144a33.477,33.477,0,0,0,9.58-5.368,29.02,29.02,0,0,0,2.466-2.211c.554-.56.835-.9.835-.9a26,26,0,0,0,3.144-3.434,21.87,21.87,0,0,0,1.9-2.951,16.524,16.524,0,0,0,.933-2.066,7.854,7.854,0,0,0,.248-.778,39.445,39.445,0,0,0,1.084-3.872c.252-1.127.406-2.087.5-2.865s.128-1.375.138-1.777,0-.61,0-.61c.081-1.235.094-2.61.057-4.054s-.124-2.957-.244-4.466-.275-3.015-.446-4.445-.358-2.785-.546-3.992a1.964,1.964,0,0,0-.226-.873c-.111-.181-.245-.256-.366-.229s-.228.154-.284.375a2.17,2.17,0,0,0,.018.939,13.944,13.944,0,0,1,.639,2.569c.184,1.073.338,2.341.458,3.737s.207,2.918.257,4.5.063,3.227.037,4.864m6.872-4.185a28,28,0,0,1,.248,5.7,40.283,40.283,0,0,1-.608,5.1c-.275,1.509-.587,2.78-.83,3.673s-.418,1.41-.418,1.41A52.907,52.907,0,0,1,62.6,54.03a26.677,26.677,0,0,1-2.352,3.422,11.787,11.787,0,0,1-1.566,1.61,3.512,3.512,0,0,1-.569.4A18.908,18.908,0,0,1,55.2,62.416a30.458,30.458,0,0,1-3.36,2.388c-1.127.7-2.227,1.295-3.2,1.784s-1.818.872-2.435,1.14a3.921,3.921,0,0,0-1.084.842c-.136.191-.079.3.075.338a1.363,1.363,0,0,0,.658-.064,1.662,1.662,0,0,0,.668-.364,31.648,31.648,0,0,0,5.129-2.514,34.775,34.775,0,0,0,3.849-2.7,32.01,32.01,0,0,0,2.42-2.162c.552-.548.84-.884.84-.884a26.148,26.148,0,0,0,3.8-4.138,24.817,24.817,0,0,0,2.291-3.766,21.1,21.1,0,0,0,1.124-2.739c.218-.669.3-1.059.3-1.059a17.254,17.254,0,0,0,1.355-4.734A42.566,42.566,0,0,0,68.1,38.5c.054-1.684.027-3.2-.014-4.3s-.094-1.776-.094-1.776a8.269,8.269,0,0,0,.053-1.831c-.042-.777-.139-1.706-.28-2.746s-.326-2.19-.542-3.409-.465-2.507-.733-3.822a3.007,3.007,0,0,0-.208-.816c-.081-.171-.168-.245-.249-.232s-.155.114-.209.292a2.719,2.719,0,0,0-.088.756c.322,1.5.571,2.984.762,4.362s.326,2.653.42,3.74.148,1.986.178,2.613.037.983.037.983m2.039-5.691a8.62,8.62,0,0,1,.909,1.263,2.8,2.8,0,0,1,.326.79.86.86,0,0,1,0,.408.281.281,0,0,1-.057.116,4.1,4.1,0,0,0,.47,1.825,7.248,7.248,0,0,0,1.033,1.5,10.271,10.271,0,0,0,1.033,1.019c.282.241.47.376.47.376a9.147,9.147,0,0,0-.007-3.3,37.739,37.739,0,0,0-.853-4.128c-.349-1.355-.726-2.609-1.015-3.524s-.491-1.492-.491-1.492a1.674,1.674,0,0,0-.533-.109c-.231-.021-.5-.027-.754-.028s-.5.006-.673.013-.291.013-.291.013a1.839,1.839,0,0,0-1.08.853,2.028,2.028,0,0,0-.155,1.3,5.017,5.017,0,0,0,.57,1.536,9.61,9.61,0,0,0,1.094,1.575m.644,5.691s.067.087.169.23.24.34.38.561a7.408,7.408,0,0,1,.4.7,2.339,2.339,0,0,1,.229.652c.028.188.069.422.134.714s.157.641.284,1.057.292.9.505,1.459.475,1.2.8,1.922a7.977,7.977,0,0,0,.627,1.24c.11.146.137.069.122-.1a5.208,5.208,0,0,0-.119-.642c-.051-.216-.1-.391-.1-.391a1.668,1.668,0,0,0,.287-.783,1.128,1.128,0,0,0-.108-.572,1.28,1.28,0,0,0-.25-.35,1.026,1.026,0,0,0-.139-.119l-1.29-1.824a1.416,1.416,0,0,1-.045-.528c.022-.112.079-.163.166-.157a.724.724,0,0,1,.348.186,4.289,4.289,0,0,1,.5.5c.455.429.7.589.819.589s.1-.162.025-.376a5.579,5.579,0,0,0-.316-.7c-.112-.215-.206-.376-.206-.376a14.475,14.475,0,0,1-1.494-1.341,5,5,0,0,1-.719-.939,5.114,5.114,0,0,1-.336-.738,4.667,4.667,0,0,0-.346-.74,1.356,1.356,0,0,1-.207-.735,4.128,4.128,0,0,1,.085-.644A1.338,1.338,0,0,0,70,29.444a1.44,1.44,0,0,0-.508-.677,2.316,2.316,0,0,0-.691-.63c-.126-.045-.163.045-.157.186a2.2,2.2,0,0,0,.105.488c.049.156.1.277.1.277.054.269.142.6.242.957s.215.722.322,1.057.207.637.281.855.12.352.12.352m-24.795,33.7a1.377,1.377,0,0,0,.405.35.353.353,0,0,0,.265.037.3.3,0,0,0,.145-.1.335.335,0,0,0,.044-.073,4.947,4.947,0,0,0,1.539-.675c.614-.362,1.291-.824,1.921-1.28s1.214-.905,1.64-1.241.694-.557.694-.557a1.135,1.135,0,0,0,.575-.512.655.655,0,0,0-.01-.522,1.842,1.842,0,0,0-.292-.461c-.111-.136-.219-.249-.273-.329a.593.593,0,0,0-.228-.2.814.814,0,0,0-.319-.086.769.769,0,0,0-.34.055.69.69,0,0,0-.29.226,6.933,6.933,0,0,1-.937.74c-.5.357-1.139.8-1.79,1.233s-1.311.869-1.849,1.212-.953.6-1.114.679a1.017,1.017,0,0,0-.339.252.527.527,0,0,0-.117.242.461.461,0,0,0,0,.182.341.341,0,0,0,.023.072Zm-5.043,2.255h.859l-.326-1.83h-.964ZM27.314,72.558a5.993,5.993,0,0,0,.429,2.238,5.711,5.711,0,0,0,1.233,1.884,5.8,5.8,0,0,0,1.958,1.3,6.89,6.89,0,0,0,2.6.484,6.255,6.255,0,0,0,2.569-.52,5.485,5.485,0,0,0,1.885-1.386,6.073,6.073,0,0,0,1.16-1.989,6.958,6.958,0,0,0,.4-2.33,5.629,5.629,0,0,0-.44-2.187,6.259,6.259,0,0,0-1.063-1.693,6.58,6.58,0,0,0-1.3-1.149,3.965,3.965,0,0,0-1.162-.554L35.147,68.7c.108.054.289.128.5.25a2.864,2.864,0,0,1,.681.541,2.967,2.967,0,0,1,.6,1,4.744,4.744,0,0,1,.258,1.639,6.169,6.169,0,0,1-.211,1.736,2.816,2.816,0,0,1-.674,1.2,2.782,2.782,0,0,1-1.2.7,6.067,6.067,0,0,1-1.781.226,3.7,3.7,0,0,1-1.733-.389,3.168,3.168,0,0,1-1.1-.952,4.188,4.188,0,0,1-.6-1.194,5.076,5.076,0,0,1-.224-1.113,2.653,2.653,0,0,1,.11-.974,3.68,3.68,0,0,1,.442-.944,4.638,4.638,0,0,1,.7-.843,4.848,4.848,0,0,1,.9-.672l-.434-2.147a2.65,2.65,0,0,0-1.406.468,5.166,5.166,0,0,0-1.315,1.262,6.875,6.875,0,0,0-.973,1.846,6.77,6.77,0,0,0-.38,2.218m5.9-3.647c.375.348.657.375.868.219a1.578,1.578,0,0,0,.446-.877,7.084,7.084,0,0,0,.164-1.138c.023-.33.023-.565.023-.565a2.123,2.123,0,0,0-1.047-.827.816.816,0,0,0-.736.169,1.778,1.778,0,0,0-.435.552,2.32,2.32,0,0,0-.143.32,1.864,1.864,0,0,0,.089.742,3.761,3.761,0,0,0,.3.693,5.411,5.411,0,0,0,.32.512c.089.126.149.2.149.2M9.817,35.849l-.323.86.859-.106a.686.686,0,0,1-.1-.027.8.8,0,0,1-.21-.108.575.575,0,0,1-.189-.229.667.667,0,0,1-.038-.39m6.011-.429a4.153,4.153,0,0,0,.9-.259c.2-.094.313-.194.346-.3a.363.363,0,0,0-.116-.343,2.241,2.241,0,0,0-.488-.383ZM34.291,75.028l-.107-1.4a2.022,2.022,0,0,1-.848-.445,1.3,1.3,0,0,1-.374-.626,1.829,1.829,0,0,1-.032-.708,3.246,3.246,0,0,1,.178-.69l-.86-1.18A3.145,3.145,0,0,0,30.8,71.813a2.556,2.556,0,0,0,.254,1.86,2.968,2.968,0,0,0,1.361,1.276,2.422,2.422,0,0,0,1.874.079M56.586,58.5a1.668,1.668,0,1,0-.653-.132,1.676,1.676,0,0,0,.653.132M55.019,40.494a1.536,1.536,0,0,0,.48.256c.081.013.095-.033.077-.1a.969.969,0,0,0-.111-.229c-.045-.072-.085-.127-.085-.127l-.2-.564a1.371,1.371,0,0,0-.158-.514c-.045-.051-.083,0-.113.086a1.957,1.957,0,0,0-.068.32c-.015.105-.023.188-.023.188.08.292.133.48.167.6s.049.168.054.181,0-.011-.006-.038-.014-.057-.014-.057m1.327,2.7a.66.66,0,0,0,.2.139.34.34,0,0,0,.189.033.1.1,0,0,0,.083-.1.544.544,0,0,0-.115-.269s-.02-.018-.055-.055a2.164,2.164,0,0,1-.145-.176,3.381,3.381,0,0,1-.206-.312,4.619,4.619,0,0,1-.236-.462,1.016,1.016,0,0,0-.215-.343c-.061-.053-.11-.05-.143-.01a.34.34,0,0,0-.045.217,1.02,1.02,0,0,0,.08.338s.023.048.06.123.091.178.151.289.128.229.2.334a1.619,1.619,0,0,0,.2.259m-.687,1.733a.778.778,0,0,0,.255.361.3.3,0,0,0,.261.055.227.227,0,0,0,.154-.164.382.382,0,0,0-.064-.3c-.07-.111-.12-.184-.16-.243s-.07-.1-.1-.159a2.1,2.1,0,0,1-.1-.219c-.041-.1-.091-.232-.162-.422a.763.763,0,0,0-.208-.348.114.114,0,0,0-.167.01.356.356,0,0,0-.07.23.608.608,0,0,0,.085.311.259.259,0,0,0,0,.036c0,.026.013.069.03.134s.044.153.083.271.091.264.161.447M54.615,47.5a.738.738,0,0,0,.15.412c.057.049.117.024.172-.032a.882.882,0,0,0,.142-.212c.037-.071.059-.129.059-.129s.01-.086.023-.224.029-.328.042-.537.021-.437.019-.65a3.207,3.207,0,0,0-.045-.563.58.58,0,0,0-.139-.306.2.2,0,0,0-.188-.058.287.287,0,0,0-.165.124.43.43,0,0,0-.071.239s-.01.06-.023.166-.028.257-.039.438-.015.393-.008.62a5.342,5.342,0,0,0,.069.71M6.192,55.305s.028.068.079.179.127.266.223.439a5.877,5.877,0,0,0,.344.553A3.441,3.441,0,0,0,7.28,57L7.347,57c.042.006.1.016.169.032a2.04,2.04,0,0,1,.222.063,1.29,1.29,0,0,1,.226.1Zm2.1,2.135s.023.017.058.05a1.738,1.738,0,0,1,.137.14,1.584,1.584,0,0,1,.159.216,1.171,1.171,0,0,1,.125.277.319.319,0,0,0,.21.2,1,1,0,0,0,.34.05,2.214,2.214,0,0,0,.317-.026c.085-.013.14-.025.14-.025v-.36a.378.378,0,0,0-.057-.076.927.927,0,0,0-.219-.17,1.787,1.787,0,0,0-.453-.177,3.529,3.529,0,0,0-.758-.1m-.241-2.094s.023.038.056.1.079.145.124.238a2.865,2.865,0,0,1,.124.291.837.837,0,0,1,.056.257l.725.643.8.239a.793.793,0,0,0-.126-.371,2.394,2.394,0,0,0-.367-.467,3.97,3.97,0,0,0-.593-.489,4.869,4.869,0,0,0-.8-.44m.079-2.216.727,1.652,1.082.846c-.06-.161-.107-.3-.154-.414a1.7,1.7,0,0,0-.147-.3.877.877,0,0,0-.208-.225,1.547,1.547,0,0,0-.336-.187Zm2.415,3.463a.57.57,0,0,1,.039.094.686.686,0,0,1,.035.233.583.583,0,0,1-.094.3.886.886,0,0,1-.346.3l.164.889a4.227,4.227,0,0,0,.451-.522,2.331,2.331,0,0,0,.319-.6,1.643,1.643,0,0,0,.085-.685,1.948,1.948,0,0,0-.251-.771,1.162,1.162,0,0,1,.028.262.447.447,0,0,1-.048.2.5.5,0,0,1-.138.159,1.439,1.439,0,0,1-.243.148M71.025,43.178l.054.178c.035.116.087.285.154.5s.149.474.245.771.2.63.326.992a1.788,1.788,0,0,0,.322.659c.093.093.172.076.231,0a.781.781,0,0,0,.115-.363,1.181,1.181,0,0,0-.026-.428c-.033-.12-.079-.284-.139-.472s-.133-.4-.219-.616a6.123,6.123,0,0,0-.295-.642,3.045,3.045,0,0,0-.367-.549s.005-.057.006-.156a3.615,3.615,0,0,0-.129-.965,2.924,2.924,0,0,0-.251-.622,1.016,1.016,0,0,0-.29-.371c-.077-.048-.135-.03-.168.028a.414.414,0,0,0-.027.26.759.759,0,0,0,.134.325M63.8,20.073,62.732,19a4.075,4.075,0,0,0,.2.741,1.285,1.285,0,0,0,.259.439.34.34,0,0,0,.3.117.545.545,0,0,0,.318-.225M61.739,52.487a.768.768,0,0,0-.106.27.317.317,0,0,0,.016.183A.094.094,0,0,0,61.74,53a.18.18,0,0,0,.122-.093.443.443,0,0,0,.056-.034.908.908,0,0,0,.137-.119,1.243,1.243,0,0,0,.171-.228,1.664,1.664,0,0,0,.156-.361c.046-.146.047-.226.024-.263s-.071-.032-.125-.008a.821.821,0,0,0-.159.1c-.046.036-.079.066-.079.066Zm-2.275,2.157a.392.392,0,0,0-.09.226.1.1,0,0,0,.076.09.344.344,0,0,0,.129.012.544.544,0,0,0,.068-.009s.094-.108.24-.279.342-.406.547-.658.418-.524.6-.768a3.948,3.948,0,0,0,.386-.609.836.836,0,0,0,.09-.325c0-.073-.029-.111-.073-.12a.235.235,0,0,0-.167.057.8.8,0,0,0-.192.206,2.465,2.465,0,0,1-.255.481c-.119.184-.265.387-.423.591s-.325.409-.487.6-.316.364-.447.505m-.642-.164a.467.467,0,0,0-.094.261.091.091,0,0,0,.09.081.417.417,0,0,0,.147-.014.721.721,0,0,0,.077-.024s.079-.089.2-.236.3-.35.48-.579.38-.483.556-.731a5.625,5.625,0,0,0,.432-.691,1.174,1.174,0,0,0,.144-.406c0-.076-.032-.1-.085-.088a.482.482,0,0,0-.191.119.884.884,0,0,0-.173.214,2.17,2.17,0,0,1-.251.425c-.136.2-.311.435-.491.669s-.364.464-.517.646a2.99,2.99,0,0,1-.329.355m-.615-.282a.459.459,0,0,0-.092.26.093.093,0,0,0,.09.081.415.415,0,0,0,.146-.013.712.712,0,0,0,.077-.023s.079-.089.2-.236.3-.351.48-.58.38-.483.556-.73a5.6,5.6,0,0,0,.43-.687,1.178,1.178,0,0,0,.146-.409c0-.077-.032-.1-.085-.089a.474.474,0,0,0-.191.119.841.841,0,0,0-.17.215,2.25,2.25,0,0,1-.253.423c-.136.2-.311.435-.491.669s-.364.464-.517.646a2.925,2.925,0,0,1-.331.355m-.582-.3a.467.467,0,0,0-.093.261.091.091,0,0,0,.09.08.417.417,0,0,0,.147-.015.721.721,0,0,0,.077-.024s.091-.118.233-.307.336-.45.541-.737.424-.6.615-.889a7.4,7.4,0,0,0,.453-.763.36.36,0,0,0,.043-.207.141.141,0,0,0-.074-.111.149.149,0,0,0-.134.008.344.344,0,0,0-.138.149,3.176,3.176,0,0,1-.278.5c-.151.24-.348.536-.549.828s-.406.58-.575.8a2.95,2.95,0,0,1-.356.426m-.593-.39a.462.462,0,0,0-.092.26.091.091,0,0,0,.09.08.416.416,0,0,0,.146-.014.716.716,0,0,0,.077-.024s.091-.108.234-.282.338-.415.547-.681.429-.557.624-.831a6.61,6.61,0,0,0,.466-.733.331.331,0,0,0,.044-.2.145.145,0,0,0-.074-.112.148.148,0,0,0-.134,0,.32.32,0,0,0-.136.146,2.55,2.55,0,0,1-.282.469c-.154.224-.355.5-.56.769s-.415.537-.587.746a3.438,3.438,0,0,1-.362.4m-.616-.18a.464.464,0,0,0-.093.26.091.091,0,0,0,.09.081.414.414,0,0,0,.146-.014.714.714,0,0,0,.077-.023s.093-.111.239-.289.345-.425.557-.7.437-.567.635-.845a7.024,7.024,0,0,0,.474-.737.438.438,0,0,0,.065-.238.118.118,0,0,0-.077-.108.18.18,0,0,0-.146.024.384.384,0,0,0-.142.158,2.659,2.659,0,0,1-.288.476c-.158.228-.363.508-.572.783s-.423.547-.6.76a3.534,3.534,0,0,1-.366.408m4.6,1.258a1.031,1.031,0,0,0-.281.467c0,.08.07.1.167.083a1.461,1.461,0,0,0,.318-.1c.1-.04.172-.078.172-.078s.077-.087.2-.248.307-.4.511-.69.434-.651.663-1.053a12.3,12.3,0,0,0,.659-1.336,2.7,2.7,0,0,0,.265-.815c-.008-.091-.093-.03-.2.091a5.354,5.354,0,0,0-.355.453c-.108.151-.189.272-.189.272a2.838,2.838,0,0,1-.369.846,11.589,11.589,0,0,1-.656.972c-.231.312-.458.6-.626.8s-.279.333-.279.333" transform="translate(19.494 14.986)" fill="#ab0029"/><path d="M.4.21A1.828,1.828,0,0,1,.48.423a2.266,2.266,0,0,1,.1.523,1.577,1.577,0,0,1-.091.659A1.343,1.343,0,0,1,0,2.226a.684.684,0,0,0,.024.114.445.445,0,0,0,.107.193.233.233,0,0,0,.242.05A1.072,1.072,0,0,0,.8,2.267a1.481,1.481,0,0,0,.35-.595A1.63,1.63,0,0,0,1.217,1.1a2.22,2.22,0,0,0-.073-.44c-.03-.114-.058-.189-.058-.21A.459.459,0,0,0,1.013.3,1,1,0,0,0,.835.093.3.3,0,0,0,.611,0C.535.011.462.07.4.21" transform="translate(52.776 81.148)" fill="#ab0029"/><path d="M3.137.491A.64.64,0,0,1,3.191.144.245.245,0,0,1,3.36,0a.181.181,0,0,1,.178.09.611.611,0,0,1,.083.346,3.565,3.565,0,0,1-.09.742,3.47,3.47,0,0,1-.387,1,2.485,2.485,0,0,1-.86.882,2.874,2.874,0,0,1-1.51.379,2.425,2.425,0,0,1-.61-.059C.038,3.349-.014,3.3,0,3.255s.1-.094.252-.129a2.828,2.828,0,0,1,.628-.059,3.012,3.012,0,0,0,.774-.085,1.6,1.6,0,0,0,.674-.357,2.022,2.022,0,0,0,.513-.78A4.979,4.979,0,0,0,3.137.491" transform="translate(82.47 54.264)" fill="#ab0029"/><path d="M1.223.363A1.014,1.014,0,0,1,1.177.269.485.485,0,0,1,1.13.094.083.083,0,0,1,1.224,0,.889.889,0,0,1,1.6.148a1.368,1.368,0,0,1,.468.8A4.073,4.073,0,0,1,2.2,2.308,2.8,2.8,0,0,1,1.8,3.65a1.628,1.628,0,0,1-1.162.737S.564,4.394.47,4.4a2.182,2.182,0,0,1-.305,0C.07,4.384,0,4.362,0,4.32s.071-.107.258-.2a2.278,2.278,0,0,0,1.11-.654,1.989,1.989,0,0,0,.48-1A2.449,2.449,0,0,0,1.774,1.35,2.578,2.578,0,0,0,1.223.363" transform="translate(83.953 44.732)" fill="#ab0029"/><path d="M1.106.317S1.068.283,1.025.238A.888.888,0,0,1,.9.089C.875.043.871.006.921,0a.9.9,0,0,1,.34.1,1.384,1.384,0,0,1,.528.816A4.222,4.222,0,0,1,2,2.4,2.481,2.481,0,0,1,1.53,3.838a1.85,1.85,0,0,1-1.5.665A.116.116,0,0,1,.01,4.477.083.083,0,0,1,0,4.416a.126.126,0,0,1,.073-.071A.708.708,0,0,1,.3,4.288a1.389,1.389,0,0,0,.86-.444A2,2,0,0,0,1.622,2.9a3.154,3.154,0,0,0,0-1.241A4.048,4.048,0,0,0,1.106.317" transform="translate(83.537 37.425)" fill="#ab0029"/><path d="M0,1.972a1.974,1.974,0,1,1,3.949,0,1.975,1.975,0,0,1-3.794.767A1.964,1.964,0,0,1,0,1.972M1.975,3.621A1.677,1.677,0,1,0,.294,1.944,1.664,1.664,0,0,0,.426,2.6a1.682,1.682,0,0,0,1.55,1.025" transform="translate(80.789 37.487)" fill="#ab0029"/><path d="M0,1.978a1.962,1.962,0,1,1,.155.768A1.973,1.973,0,0,1,0,1.978M1.975,3.624a1.673,1.673,0,1,0-.653-.132,1.671,1.671,0,0,0,.653.132" transform="translate(81.572 44.697)" fill="#ab0029"/><path d="M0,1.973a1.963,1.963,0,1,1,.155.767A1.97,1.97,0,0,1,0,1.973M1.975,3.619a1.672,1.672,0,1,0-.654-.132,1.672,1.672,0,0,0,.654.132" transform="translate(81.332 52.944)" fill="#ab0029"/><path d="M0,1.971a1.969,1.969,0,1,1,.155.77A1.968,1.968,0,0,1,0,1.971M1.971,3.622A1.676,1.676,0,1,0,.425,1.29a1.676,1.676,0,0,0,0,1.305A1.678,1.678,0,0,0,1.971,3.622" transform="translate(79.101 62.412)" fill="#ab0029"/><path d="M1.2,1.407a.323.323,0,0,0,.177.142.278.278,0,0,0,.2,0,.181.181,0,0,0,.1-.163.591.591,0,0,0-.118-.333A1.559,1.559,0,0,0,1.224.678,3.365,3.365,0,0,0,.8.4C.662.321.526.25.414.185A.964.964,0,0,1,.162,0L0,.682.155.761C.249.81.378.878.514.954s.279.159.4.238a1.777,1.777,0,0,1,.288.216" transform="translate(54.627 82.812)" fill="#ab0029"/><path d="M.131.487l.02.056L.205.689.281.9l.087.236a.459.459,0,0,0,.157.2.357.357,0,0,0,.213.077A.17.17,0,0,0,.9,1.3.607.607,0,0,0,.892.933S.884.9.87.847.835.721.807.64a2.415,2.415,0,0,0-.1-.253A1.065,1.065,0,0,0,.573.165.5.5,0,0,0,.361.029.432.432,0,0,0,.123.009.15.15,0,0,0,0,.148.582.582,0,0,0,.131.487" transform="translate(56.349 84.455)" fill="#ab0029"/><path d="M2.816,0A4.861,4.861,0,0,0,1.277,1.09,4.422,4.422,0,0,0,.441,2.38,5.336,5.336,0,0,0,.089,3.617,7.63,7.63,0,0,0,0,4.548s.027.1.069.215a2.008,2.008,0,0,0,.156.354c.058.093.117.137.164.059a1.7,1.7,0,0,0,.094-.67A5.422,5.422,0,0,1,.658,3.288,5.182,5.182,0,0,1,1.126,2.1a3.943,3.943,0,0,1,.771-1A3.017,3.017,0,0,1,2.978.446Z" transform="translate(48.229 83.012)" fill="#ab0029"/><path d="M.037.414A.207.207,0,0,1,.011.226.35.35,0,0,1,.128.048.193.193,0,0,1,.32.012a.407.407,0,0,1,.2.241C.58.394.63.507.678.6a1.609,1.609,0,0,0,.144.24A1.187,1.187,0,0,0,1,1.028a2.921,2.921,0,0,0,.248.19.7.7,0,0,1,.219.248.476.476,0,0,1,.058.256.194.194,0,0,1-.1.166.309.309,0,0,1-.259-.023,1.419,1.419,0,0,1-.35-.25A3.113,3.113,0,0,1,.464,1.23,3.173,3.173,0,0,1,.185.8,1.414,1.414,0,0,1,.037.414" transform="translate(48.634 88.876)" fill="#ab0029"/><path d="M.15.527A.308.308,0,0,1,0,.311.27.27,0,0,1,.068.1.292.292,0,0,1,.285,0,.474.474,0,0,1,.592.125C.7.215.8.29.884.354s.162.116.233.159a1.657,1.657,0,0,0,.2.106,1.556,1.556,0,0,0,.2.071A.343.343,0,0,1,1.7.815.275.275,0,0,1,1.756,1a.185.185,0,0,1-.128.152.738.738,0,0,1-.388.011,1.723,1.723,0,0,1-.476-.149A1.783,1.783,0,0,1,.423.8,1.708,1.708,0,0,1,.218.61.993.993,0,0,1,.15.527" transform="translate(49.244 91.46)" fill="#ab0029"/><path d="M4.949.491a.266.266,0,0,1-.093-.23A.277.277,0,0,1,4.981.086.507.507,0,0,1,5.211,0a.337.337,0,0,1,.222.044A6.05,6.05,0,0,1,6.8,2.847,6.663,6.663,0,0,1,6.671,6.14a5.174,5.174,0,0,1-1.95,2.742A6.944,6.944,0,0,1,.607,10.029,1.425,1.425,0,0,1,.171,9.92C.066,9.871.006,9.813,0,9.758s.045-.108.161-.147a1.873,1.873,0,0,1,.561-.064A4.324,4.324,0,0,0,3.568,9.02,5.628,5.628,0,0,0,5.7,6.875a5.4,5.4,0,0,0,.7-3.073A5.692,5.692,0,0,0,4.949.491" transform="translate(51.85 83.005)" fill="#ab0029"/><path d="M1.127,1.056A4.661,4.661,0,0,1,.273.53C.082.373-.012.239,0,.145S.136,0,.374,0A4.608,4.608,0,0,1,1.453.2s.147.074.379.195.546.288.881.476.691.4,1,.6a4.869,4.869,0,0,1,.742.557c.16.161.347.369.543.593s.4.466.6.694.38.443.537.614a2.554,2.554,0,0,0,.367.352,3.044,3.044,0,0,1,.375.332,2.521,2.521,0,0,1,.375.462c.08.141.093.252-.028.28a1.769,1.769,0,0,1-.834-.212s-.081-.06-.211-.164-.312-.252-.513-.426-.422-.376-.633-.588a6.134,6.134,0,0,1-.571-.649,6.671,6.671,0,0,0-.6-.683,7.082,7.082,0,0,0-.788-.683,5.533,5.533,0,0,0-.928-.563,3.749,3.749,0,0,0-1.018-.323" transform="translate(44.497 57.723)" fill="#ab0029"/><path d="M.288.933a2,2,0,0,1-.247-.5A.528.528,0,0,1,.023.082C.059,0,.14-.023.272.021A1.822,1.822,0,0,1,.829.4c.241.214.543.455.877.7s.7.493,1.068.721a11.381,11.381,0,0,0,1.088.6,4.269,4.269,0,0,0,.937.339,2.991,2.991,0,0,1,.9.4,3.069,3.069,0,0,1,.7.575c.134.167.134.284-.1.272a5.5,5.5,0,0,1-1.508-.5A6.77,6.77,0,0,1,3.718,3.2a11.034,11.034,0,0,1-1.294-.573A8.535,8.535,0,0,1,1.19,1.849a4.042,4.042,0,0,1-.9-.916" transform="translate(55.21 65.789)" fill="#ab0029"/><path d="M.683,1.368A.684.684,0,0,0,.95.054a.68.68,0,0,0-.532,0A.692.692,0,0,0,.054.419.682.682,0,0,0,.2,1.168a.682.682,0,0,0,.483.2" transform="translate(57.498 58.955)" fill="#ab0029"/><path d="M.682,1.364A.679.679,0,0,0,.947,1.31.689.689,0,0,0,1.312.947.679.679,0,0,0,1.366.68.672.672,0,0,0,1.312.415.685.685,0,0,0,.2.2.677.677,0,0,0,0,.68a.681.681,0,0,0,.682.684" transform="translate(57.286 51.229)" fill="#ab0029"/><path d="M.684,1.365a.681.681,0,0,0,.68-.682A.682.682,0,0,0,.949.054a.685.685,0,0,0-.531,0A.683.683,0,0,0,.684,1.365" transform="translate(59.539 52.301)" fill="#ab0029"/><path d="M.684,1.37a.675.675,0,0,0,.265-.054A.692.692,0,0,0,1.313.952.673.673,0,0,0,1.367.687.682.682,0,0,0,1.313.421.695.695,0,0,0,.948.054.671.671,0,0,0,.684,0,.679.679,0,0,0,.2.2.688.688,0,0,0,0,.687a.683.683,0,0,0,.684.682" transform="translate(58.383 54.018)" fill="#ab0029"/><path d="M.681,1.366A.683.683,0,1,0,.681,0,.675.675,0,0,0,.417.054.687.687,0,0,0,.054.417.677.677,0,0,0,0,.682a.685.685,0,0,0,.417.631.675.675,0,0,0,.264.054" transform="translate(60.314 55.202)" fill="#ab0029"/><path d="M.492.987A.484.484,0,0,0,.682.948.5.5,0,0,0,.944.686.491.491,0,0,0,.944.3.5.5,0,0,0,.682.039.481.481,0,0,0,.492,0,.494.494,0,0,0,.3.039.491.491,0,0,0,.038.3a.5.5,0,0,0,0,.384A.489.489,0,0,0,.3.948.5.5,0,0,0,.492.987" transform="translate(26.563 54.378)" fill="#ab0029"/><path d="M.452,1.095a.388.388,0,0,0,.178-.044A.468.468,0,0,0,.775.933a.572.572,0,0,0,.1-.175.645.645,0,0,0,0-.425.561.561,0,0,0-.1-.173A.463.463,0,0,0,.629.043.394.394,0,0,0,.452,0,.388.388,0,0,0,.275.043.453.453,0,0,0,.131.159a.56.56,0,0,0-.1.173.661.661,0,0,0,0,.425.571.571,0,0,0,.1.175.459.459,0,0,0,.143.118.382.382,0,0,0,.177.044" transform="translate(24.884 56.087)" fill="#ab0029"/><path d="M.025,5.069A8,8,0,0,1,0,4.22,7.938,7.938,0,0,1,.24,2.385,3.6,3.6,0,0,1,1.2.631,2.594,2.594,0,0,1,3.354.024a1.879,1.879,0,0,1,.41.027A3.323,3.323,0,0,1,4.788.4,4.631,4.631,0,0,1,6.115,1.473a7.953,7.953,0,0,1,1.317,2.2c.429.536,1.06,1.153,1.709,1.812a18.126,18.126,0,0,1,1.821,2.064A3.7,3.7,0,0,1,11.8,9.635a2.257,2.257,0,0,1-1.249,1.875.434.434,0,0,0,.049-.154.845.845,0,0,0-.062-.436,2.009,2.009,0,0,0-.485-.678,5.972,5.972,0,0,0-1.221-.88A1.827,1.827,0,0,0,8.386,9.2a.388.388,0,0,0-.27.012c-.047.033-.044.1.031.193a2.1,2.1,0,0,0,.463.384,7.2,7.2,0,0,1,.635.468,1.366,1.366,0,0,1,.344.378c.047.1.017.172-.118.2a2.213,2.213,0,0,1-.752-.076,5.223,5.223,0,0,0-.649-.271,2.605,2.605,0,0,0-.53-.131c-.134-.013-.215.007-.208.07s.1.171.315.331.409.295.553.406.238.2.251.265-.054.114-.232.145a6.041,6.041,0,0,1-.9.044,3.246,3.246,0,0,0-.739-.677,1.146,1.146,0,0,0-.6-.223c-.147.007-.228.1-.2.28a2.125,2.125,0,0,0,.465.834.448.448,0,0,1-.022.122.4.4,0,0,1-.153.213.578.578,0,0,1-.414.072,2.432,2.432,0,0,1-.807-.3,3.712,3.712,0,0,1-.908-.7,5.289,5.289,0,0,1-.635-.813,6.148,6.148,0,0,1-.373-.672c-.082-.173-.122-.28-.122-.28A1.835,1.835,0,0,1,2.648,9.3a.961.961,0,0,1-.22-.358.272.272,0,0,1,.162-.338A2.052,2.052,0,0,1,3.567,8.5s.181-.08.458-.213.649-.317,1.032-.525A10.953,10.953,0,0,0,6.149,7.1a1.916,1.916,0,0,0,.639-.635c.08-.188.141-.308.179-.4a.371.371,0,0,0,.049-.194.512.512,0,0,0-.092-.195c-.055-.087-.136-.208-.243-.4a1.213,1.213,0,0,0-.25-.341c-.062-.047-.106-.033-.139.02a.852.852,0,0,0-.078.261c-.022.114-.041.248-.068.382a.928.928,0,0,1-.1.3.182.182,0,0,1-.154.1.366.366,0,0,1-.215-.1,2.045,2.045,0,0,1-.285-.3A2.48,2.48,0,0,0,5.115,5.3c-.073-.064-.127-.084-.153-.043a.547.547,0,0,0,.007.32,7.837,7.837,0,0,0,.209.784A1.01,1.01,0,0,1,5.2,6.5a.738.738,0,0,1-.033.284.3.3,0,0,1-.214.2.834.834,0,0,1-.524-.1,1.488,1.488,0,0,1,.049.175.9.9,0,0,1,.019.336.239.239,0,0,1-.2.215,1.072,1.072,0,0,1-.616-.187.892.892,0,0,1,.073.138.309.309,0,0,1,.023.238c-.033.067-.124.108-.32.078A3.846,3.846,0,0,1,2.5,7.538,7.233,7.233,0,0,1,1.353,6.88a4.3,4.3,0,0,1-.738-.658A2.774,2.774,0,0,1,.2,5.606a2.013,2.013,0,0,1-.175-.536" transform="translate(64.275 19.042)" fill="#ab0029"/><path d="M.142,1.345A1.66,1.66,0,0,0,0,1.833a.337.337,0,0,0,.072.287c.06.053.158.06.294.006a1.965,1.965,0,0,0,.525-.356L1.642.916a1.027,1.027,0,0,0,.32-.445A.406.406,0,0,0,1.939.1C1.872.009,1.744-.028,1.553.024a2.211,2.211,0,0,0-.769.46Z" transform="translate(60.511 19.332)" fill="#ab0029"/><path d="M.276,1.171a2.012,2.012,0,0,0-.234.447.453.453,0,0,0-.022.317c.034.074.111.111.241.1a1.642,1.642,0,0,0,.554-.217c.242-.134.551-.328.927-.505A4.453,4.453,0,0,1,3.069.9a4.029,4.029,0,0,1,1.73.158A6.576,6.576,0,0,1,6.931,2.244l1.5,1.289a2.737,2.737,0,0,0,.6.574.675.675,0,0,0,.488.163c.114-.033.164-.164.106-.421a4.487,4.487,0,0,0-.548-1.176L7.361,1.493A6.841,6.841,0,0,0,6.013.567,5.05,5.05,0,0,0,4.382.043,4.96,4.96,0,0,0,2.47.164,7.317,7.317,0,0,0,.276,1.171" transform="translate(55.652 23.798)" fill="#ab0029"/><path d="M.348,1.229A1.175,1.175,0,0,1,0,.436a.449.449,0,0,1,.308-.4A.7.7,0,0,1,.878.1a.939.939,0,0,1,.438.6A8.178,8.178,0,0,0,1.7,1.755a6.723,6.723,0,0,0,.641,1.163,3.153,3.153,0,0,0,.881.882,1.5,1.5,0,0,0,1.1.219,2.265,2.265,0,0,1,.792.672,2.024,2.024,0,0,1,.309.627,2.3,2.3,0,0,1,.077.848l.217,1.828a1.745,1.745,0,0,1-.017.767.563.563,0,0,1-.28.4c-.121.047-.262,0-.4-.185a2.609,2.609,0,0,1-.378-.978,6.384,6.384,0,0,0,.083-1.052,3.358,3.358,0,0,0-.148-.991,2.09,2.09,0,0,0-.492-.83,2.319,2.319,0,0,0-.946-.568,5.484,5.484,0,0,1-.931-.388,1.616,1.616,0,0,1-.489-.388,1.114,1.114,0,0,1-.208-.429,4.785,4.785,0,0,1-.089-.51,1.657,1.657,0,0,0-.213-.568,3.7,3.7,0,0,0-.365-.518C.717,1.6.593,1.467.5,1.375S.348,1.229.348,1.229" transform="translate(64.595 30.181)" fill="#ab0029"/><path d="M.759,1.074A1.353,1.353,0,0,1,.068.906c-.1-.08-.083-.181,0-.289A1.658,1.658,0,0,1,.5.289,5.3,5.3,0,0,1,1.079,0H3.228a1.556,1.556,0,0,1,.82.443c.324.269.689.631,1.071,1.007s.781.765,1.172,1.087a3.565,3.565,0,0,0,1.122.684,2.911,2.911,0,0,1,.847.408.936.936,0,0,1,.374.438c.034.127-.03.225-.21.257a2.113,2.113,0,0,1-.9-.136,5.175,5.175,0,0,1-1.342-.715c-.458-.319-.917-.694-1.353-1.057S3.975,1.7,3.61,1.44A2.263,2.263,0,0,0,2.688.967Z" transform="translate(54.313 33.125)" fill="#ab0029"/><path d="M.563,1.824A1.956,1.956,0,0,0,.1,2.289a.4.4,0,0,0-.089.343c.034.081.131.121.293.1a2.07,2.07,0,0,0,.685-.261c.3-.162.61-.337.939-.5A10.7,10.7,0,0,1,2.951,1.5a5.59,5.59,0,0,1,1.061-.3,3.341,3.341,0,0,1,1.062-.021,1.248,1.248,0,0,0,.8-.094A.459.459,0,0,0,6.133.671.587.587,0,0,0,5.812.215,1.848,1.848,0,0,0,4.857,0,4.6,4.6,0,0,0,3.58.195,7.135,7.135,0,0,0,2.386.671a10.471,10.471,0,0,0-1.032.6c-.308.2-.576.4-.791.557" transform="translate(47.209 32.374)" fill="#ab0029"/><path d="M.859,1A1.861,1.861,0,0,1,.139.641C0,.513-.029.386.024.279A.571.571,0,0,1,.433.038a2.4,2.4,0,0,1,.853,0,1.371,1.371,0,0,1,.795.4,3.313,3.313,0,0,1,.491.7,4.475,4.475,0,0,0,.491.741,1.681,1.681,0,0,0,.795.518,2.124,2.124,0,0,1,.736.357c.145.122.192.24.152.327s-.167.144-.371.146a2.366,2.366,0,0,1-.834-.187,2.319,2.319,0,0,1-.8-.5,4.929,4.929,0,0,1-.5-.6,2.9,2.9,0,0,0-.524-.56A2.056,2.056,0,0,0,.859,1" transform="translate(56.577 35.666)" fill="#ab0029"/><path d="M1.007.016a3.136,3.136,0,0,0-.76.011C.084.058.007.111,0,.178S.058.326.177.41A2.337,2.337,0,0,0,.685.661c.215.08.389.148.538.208s.274.115.388.169.218.108.328.168.223.127.357.208a.809.809,0,0,0,.386.125.378.378,0,0,0,.285-.1.345.345,0,0,0,.084-.3A1.108,1.108,0,0,0,2.833.661,1.336,1.336,0,0,0,2.321.244a2.27,2.27,0,0,0-.6-.186,3.252,3.252,0,0,0-.5-.046c-.129,0-.21,0-.21,0" transform="translate(54.707 37.081)" fill="#ab0029"/><path d="M.711,3.063a1.388,1.388,0,0,0-.521.492A1.035,1.035,0,0,0,0,4.1c.007.141.091.218.273.159A2.618,2.618,0,0,0,1.141,3.6c.4-.4.731-.784,1.092-1.126a4.551,4.551,0,0,1,1.283-.885,6.836,6.836,0,0,1,2.108-.523,22.278,22.278,0,0,1,3.567-.04A2.76,2.76,0,0,0,10.415.981c.3-.092.475-.243.508-.4s-.078-.312-.358-.418A3.3,3.3,0,0,0,9.191.059c-.644.054-1.109.118-1.46.177s-.588.111-.777.142a1.349,1.349,0,0,1-.49.01,2.563,2.563,0,0,1-.6-.22A2.047,2.047,0,0,0,4.395.106,5.076,5.076,0,0,0,2.885.89,10.009,10.009,0,0,0,1.577,2.037,9.107,9.107,0,0,0,.711,3.063" transform="translate(39.009 28.882)" fill="#ab0029"/><path d="M.769.676A1.247,1.247,0,0,0,.241.522C.109.522.025.569,0,.65S.028.844.151.978a2.4,2.4,0,0,0,.619.449c.3.161.605.355.949.518a3.265,3.265,0,0,0,1.159.327,3.333,3.333,0,0,0,1.5-.256A7.585,7.585,0,0,0,6.352.784S6.466.71,6.6.608A1.9,1.9,0,0,0,6.969.26C7.049.146,7.056.049,6.9.014A3.031,3.031,0,0,0,5.817.142a4.588,4.588,0,0,1-.879.687,3.881,3.881,0,0,1-1.16.466,3.562,3.562,0,0,1-1.4.023A4.6,4.6,0,0,1,.769.676" transform="translate(34.12 28.694)" fill="#ab0029"/><path d="M1.344.436A1.743,1.743,0,0,0,.52.008.458.458,0,0,0,.058.154.4.4,0,0,0,.079.6,1.276,1.276,0,0,0,.7,1.079S.778,1.073.9,1.073a3.186,3.186,0,0,1,.463.033,2.261,2.261,0,0,1,.563.154,1.309,1.309,0,0,1,.494.356,2.338,2.338,0,0,0,.478.424,3.964,3.964,0,0,0,.528.3c.168.08.319.14.427.18s.176.06.176.06a1.265,1.265,0,0,0,.666.124.728.728,0,0,0,.475-.189c.087-.1.084-.231-.068-.371a2.394,2.394,0,0,0-.964-.422c-.188-.107-.389-.242-.594-.382s-.413-.288-.614-.423A5.256,5.256,0,0,0,2.354.577,1.145,1.145,0,0,0,1.881.436Z" transform="translate(31.078 30.974)" fill="#ab0029"/><path d="M1.065,1.864A1.891,1.891,0,0,1,.349,2c-.178-.01-.293-.07-.333-.163s-.007-.221.111-.365a2.087,2.087,0,0,1,.616-.466C1.037.846,1.359.671,1.7.513A6.2,6.2,0,0,1,2.768.12,3.46,3.46,0,0,1,3.9.009,2.693,2.693,0,0,1,5.036.362a1.491,1.491,0,0,1,.32.62,1.6,1.6,0,0,1,.057.709c-.04.194-.148.318-.346.286a1.918,1.918,0,0,1-.89-.651A.629.629,0,0,0,4.023,1.2a1.218,1.218,0,0,0-.517-.167,2.42,2.42,0,0,0-.959.115,6.061,6.061,0,0,0-1.482.718" transform="translate(27.279 33.945)" fill="#ab0029"/><path d="M1.026.537A2.7,2.7,0,0,0,.377.772a.947.947,0,0,0-.358.275c-.047.08-.01.141.146.154a3,3,0,0,0,.861-.127Q1.671.913,2.175.811C2.512.742,2.8.692,3.052.659A5.1,5.1,0,0,1,3.666.607a1.163,1.163,0,0,1,.363.039c.081.027.229.087.38.142a1.813,1.813,0,0,0,.4.113c.094.007.127-.03.036-.149A4.745,4.745,0,0,0,4.136.108.52.52,0,0,0,4,.054,1.887,1.887,0,0,0,3.506,0a4.952,4.952,0,0,0-.953.107,11.407,11.407,0,0,0-1.526.43" transform="translate(26.996 36.239)" fill="#ab0029"/><path d="M1.055.048A2.141,2.141,0,0,0,.329.162C.147.229.033.316.006.4S.04.55.208.59A2.509,2.509,0,0,0,1.055.585,2.02,2.02,0,0,1,2.085.7a2,2,0,0,1,.7.476,2.358,2.358,0,0,1,.4.557,1.041,1.041,0,0,1,.126.358,2.71,2.71,0,0,0,.141.875,1.393,1.393,0,0,0,.341.573.363.363,0,0,0,.421.09.94.94,0,0,0,.381-.574c-.134-.215-.247-.4-.342-.558a4,4,0,0,1-.232-.448,2.047,2.047,0,0,1-.131-.427,2.636,2.636,0,0,1-.042-.5A.691.691,0,0,0,3.532.606,2.623,2.623,0,0,0,2.773.221a4.316,4.316,0,0,0-.92-.2,2.408,2.408,0,0,0-.8.029" transform="translate(26.43 39.734)" fill="#ab0029"/><path d="M.8,4.019a3.213,3.213,0,0,0-.613.631A.712.712,0,0,0,0,5.109c.02.1.124.138.324.076a3.42,3.42,0,0,0,.9-.518c.4-.3.744-.557,1.038-.8a8.981,8.981,0,0,0,.746-.678,4.755,4.755,0,0,0,.525-.638,4.287,4.287,0,0,0,.374-.678,2.135,2.135,0,0,1,.348-.564c.119-.129.236-.193.337-.173s.184.124.236.33a3.255,3.255,0,0,1,.045.944,4.027,4.027,0,0,0-.3.838,4.559,4.559,0,0,0-.124.868,4.758,4.758,0,0,0,.036.847,4.3,4.3,0,0,0,.175.776,4.527,4.527,0,0,1,.149,1.112c.02.475.014,1.028-.013,1.585S4.72,9.554,4.66,10.042a7.908,7.908,0,0,1-.213,1.172,2.165,2.165,0,0,0-.058.886,3.95,3.95,0,0,0,.256.966,5.352,5.352,0,0,0,.477.925,4.655,4.655,0,0,0,.607.763c.216.215.565.538.943.937a9.237,9.237,0,0,1,1.112,1.4,4.119,4.119,0,0,1,.649,1.68,2.543,2.543,0,0,1-.448,1.78s-.047.061-.114.165a3.542,3.542,0,0,0-.235.427,2.587,2.587,0,0,0-.2.588,1.511,1.511,0,0,0,.005.648,4.436,4.436,0,0,1,.1.57,1.142,1.142,0,0,0,.049.288c.02.027.05-.027.109-.2s.146-.45.281-.88.235-.731.319-.95a2.3,2.3,0,0,1,.218-.457,1.09,1.09,0,0,1,.219-.236c.084-.072.185-.152.32-.286a1.5,1.5,0,0,0,.351-.635,2.394,2.394,0,0,0,.05-1.058,3.985,3.985,0,0,0-.554-1.42A8.038,8.038,0,0,0,7.446,15.4a8.524,8.524,0,0,1-1.521-1.785A5.014,5.014,0,0,1,5.249,11.9a5.576,5.576,0,0,1-.033-1.736,11.941,11.941,0,0,1,.409-1.847l.1-5.8a5.015,5.015,0,0,0,.128-.863,1.205,1.205,0,0,0-.074-.5A1.694,1.694,0,0,0,5.549.769c-.1-.135-.221-.289-.355-.5A.49.49,0,0,0,4.7,0a1.239,1.239,0,0,0-.564.262,3.568,3.568,0,0,0-.464.423c-.119.128-.192.222-.192.222s-.114.181-.3.456-.439.644-.721,1.019a11.486,11.486,0,0,1-.882,1.059A2.007,2.007,0,0,1,.8,4.019" transform="translate(58.032 42.522)" fill="#ab0029"/><path d="M.021.847a.771.771,0,0,1,.1-.62A.538.538,0,0,1,.53,0,.385.385,0,0,1,.9.2.79.79,0,0,1,.88.847S.886.887.9.955s.033.165.06.279.061.244.1.38.089.277.144.412a4.669,4.669,0,0,1,.189.673A6,6,0,0,1,1.524,3.7,3.112,3.112,0,0,1,1.413,4.73a1.253,1.253,0,0,1-.533.733,1.5,1.5,0,0,1-.553.242c-.111.008-.158-.049-.171-.15a1.754,1.754,0,0,1,.03-.412A3.9,3.9,0,0,0,.236,4.6,2.967,2.967,0,0,1,.3,4.035c.037-.191.084-.385.125-.587a4.151,4.151,0,0,0,.085-.627,2.578,2.578,0,0,0-.057-.688s-.027-.06-.067-.156S.291,1.751.237,1.61.129,1.319.089,1.183A1.344,1.344,0,0,1,.021.847" transform="translate(65.031 41.833)" fill="#ab0029"/><path d="M.02.846A.772.772,0,0,1,.126.227.541.541,0,0,1,.533,0,.385.385,0,0,1,.9.2.789.789,0,0,1,.881.846S.868.89.851.964a2.746,2.746,0,0,0-.05.3,2.227,2.227,0,0,0-.01.4,1.391,1.391,0,0,0,.091.419c.054.134.154.309.26.52a3.826,3.826,0,0,1,.29.742,2.505,2.505,0,0,1,.069.943,2.837,2.837,0,0,1-.4,1.124c-.123.205-.239.3-.342.325A.272.272,0,0,1,.482,5.6,1.265,1.265,0,0,1,.3,5.162,2.451,2.451,0,0,1,.237,4.6,2.16,2.16,0,0,1,.3,4.095c.037-.156.084-.3.124-.457a2.46,2.46,0,0,0,.084-.5,2.28,2.28,0,0,0-.057-.628S.425,2.428.384,2.3.29,1.988.236,1.8.128,1.413.088,1.242A2.118,2.118,0,0,1,.02.846" transform="translate(66.426 41.884)" fill="#ab0029"/><path d="M.021.846A.77.77,0,0,1,.126.227.541.541,0,0,1,.533,0,.384.384,0,0,1,.9.2.788.788,0,0,1,.879.846S.886.886.9.955s.034.166.061.279.061.244.1.38.089.277.144.411.15.319.249.531a3.947,3.947,0,0,1,.261.692,1.408,1.408,0,0,1,.02.712.977.977,0,0,1-.474.589,2.765,2.765,0,0,1-.535.278c-.1.029-.134,0-.133-.075a2.048,2.048,0,0,1,.067-.337,2.251,2.251,0,0,0,.067-.506c0-.189,0-.333-.013-.459A3.066,3.066,0,0,0,.67,3.1C.649,2.987.621,2.866.585,2.713s-.08-.338-.134-.58c0,0-.027-.06-.067-.156S.29,1.751.236,1.61.128,1.318.088,1.183A1.347,1.347,0,0,1,.021.846" transform="translate(67.867 41.884)" fill="#ab0029"/><path d="M0,.4S.047.338.115.264A1.3,1.3,0,0,1,.361.05C.448,0,.531-.023.586.037s.082.2.055.469A.749.749,0,0,1,.571.58.583.583,0,0,1,.4.693.233.233,0,0,1,.19.686.491.491,0,0,1,0,.4" transform="translate(28.883 64.501)" fill="#ab0029"/><path d="M0,.464S.007.4.024.326A.84.84,0,0,1,.108.087C.149.02.2-.02.273.01S.431.142.539.357A.865.865,0,0,1,.53.464.5.5,0,0,1,.471.652a.134.134,0,0,1-.16.067A.722.722,0,0,1,0,.464" transform="translate(30.059 64.22)" fill="#ab0029"/><path d="M0,.322A.725.725,0,0,1,.041.23.565.565,0,0,1,.162.066.234.234,0,0,1,.365,0a.514.514,0,0,1,.283.21,1.176,1.176,0,0,1-.01.138A.65.65,0,0,1,.567.59.152.152,0,0,1,.374.667.938.938,0,0,1,0,.322" transform="translate(31.025 64.04)" fill="#ab0029"/><path d="M0,.408A1.217,1.217,0,0,1,.055.3.957.957,0,0,1,.2.1.277.277,0,0,1,.407,0C.482.006.563.06.643.194c0,0,.007.074,0,.169A.942.942,0,0,1,.6.663C.569.75.512.807.416.782S.187.649,0,.408" transform="translate(31.992 63.846)" fill="#ab0029"/><path d="M0,.258A.709.709,0,0,1,.055.169.482.482,0,0,1,.2.029a.2.2,0,0,1,.207,0A.7.7,0,0,1,.646.364,1.561,1.561,0,0,1,.59.513a.809.809,0,0,1-.147.24A.138.138,0,0,1,.236.772,1.091,1.091,0,0,1,0,.258" transform="translate(33.281 63.783)" fill="#ab0029"/><path d="M0,.334A.887.887,0,0,1,.023.228.49.49,0,0,1,.107.052.124.124,0,0,1,.271.017.778.778,0,0,1,.534.334a.611.611,0,0,1-.008.09.326.326,0,0,1-.058.15A.126.126,0,0,1,.309.6.9.9,0,0,1,0,.334" transform="translate(34.463 63.814)" fill="#ab0029"/><path d="M0,.24A.876.876,0,0,1,.07.164.726.726,0,0,1,.241.037.267.267,0,0,1,.452.012.36.36,0,0,1,.644.24a.37.37,0,0,1,.019.3.191.191,0,0,1-.181.1.444.444,0,0,1-.261-.1A.706.706,0,0,1,0,.24" transform="translate(35.535 63.696)" fill="#ab0029"/><path d="M0,.3A1.259,1.259,0,0,1,.085.2a.819.819,0,0,1,.2-.164A.188.188,0,0,1,.5.032.559.559,0,0,1,.642.411.727.727,0,0,1,.6.846.156.156,0,0,1,.4.92.525.525,0,0,1,.162.712,1.029,1.029,0,0,1,0,.3" transform="translate(36.716 63.737)" fill="#ab0029"/><path d="M0,.257A1.015,1.015,0,0,1,.069.168.641.641,0,0,1,.228.029a.15.15,0,0,1,.179,0A.525.525,0,0,1,.534.363.935.935,0,0,1,.527.769C.5.853.449.887.389.873A.382.382,0,0,1,.189.7,1.61,1.61,0,0,1,0,.257" transform="translate(37.897 63.891)" fill="#ab0029"/><path d="M0,.287A1.014,1.014,0,0,1,.071.2.759.759,0,0,1,.243.045.23.23,0,0,1,.455.015.412.412,0,0,1,.646.287.49.49,0,0,1,.665.634a.17.17,0,0,1-.181.1A.484.484,0,0,1,.222.6.832.832,0,0,1,0,.287" transform="translate(38.863 63.967)" fill="#ab0029"/><path d="M0,.232A1.087,1.087,0,0,1,.1.145.8.8,0,0,1,.336.017.263.263,0,0,1,.589.051a.585.585,0,0,1,.162.4A.889.889,0,0,1,.739.867C.708.938.651.944.577.9A1.083,1.083,0,0,1,.314.659,4.937,4.937,0,0,1,0,.232" transform="translate(40.258 64.022)" fill="#ab0029"/><path d="M.127.617A2.1,2.1,0,0,1,.014.252.339.339,0,0,1,.021.028c.027-.04.08-.04.167.017A2,2,0,0,1,.556.4,2.212,2.212,0,0,1,.9.921c.065.148.082.262.049.316s-.117.047-.253-.047A3.13,3.13,0,0,1,.127.617" transform="translate(41.632 70.612)" fill="#ab0029"/><path d="M.148.676S.114.6.079.5A1.315,1.315,0,0,1,0,.182C-.006.081.018,0,.1,0S.336.063.577.252c0,0,.047.121.1.278a3.134,3.134,0,0,1,.13.5c.02.147,0,.247-.092.217S.444,1.053.148.676" transform="translate(42.899 70.553)" fill="#ab0029"/><path d="M.151.546S.117.479.081.392A1.072,1.072,0,0,1,0,.118C-.006.038.017-.016.1,0A1.437,1.437,0,0,1,.578.333a2.469,2.469,0,0,1,.475.532c.08.136.087.226.034.26s-.167.01-.327-.083a3.1,3.1,0,0,1-.609-.5" transform="translate(44.081 70.683)" fill="#ab0029"/><path d="M.416,1.09A3.7,3.7,0,0,1,.134.581,1.4,1.4,0,0,1,0,.152C-.006.044.03-.016.129,0a1.374,1.374,0,0,1,.5.335A2.521,2.521,0,0,1,1.157.97a.781.781,0,0,1,.132.47c-.02.107-.1.154-.25.107A1.8,1.8,0,0,1,.416,1.09" transform="translate(45.422 70.678)" fill="#ab0029"/><path d="M.326.611C.271.718.19.852.122.986A.934.934,0,0,0,0,1.361c0,.107.053.187.2.214a1.878,1.878,0,0,0,.764-.108,1.033,1.033,0,0,0,.7-.541A.734.734,0,0,0,1.65.274.5.5,0,0,0,1.134,0,1.3,1.3,0,0,0,.326.611" transform="translate(42.833 36.81)" fill="#ab0029"/><path d="M.056.675A.859.859,0,0,1,.009.262.305.305,0,0,1,.163.029a.383.383,0,0,1,.315.01A1.353,1.353,0,0,1,.914.352s0,.054,0,.139.01.2.024.33a3.078,3.078,0,0,0,.064.391,1.022,1.022,0,0,0,.125.32,1.284,1.284,0,0,1,.141.418,1.471,1.471,0,0,1,.019.509c-.027.141-.094.232-.222.207S.754,2.5.486,2.176a.2.2,0,0,1-.067-.039.593.593,0,0,1-.148-.19A1.616,1.616,0,0,1,.123,1.5,4.325,4.325,0,0,1,.056.675" transform="translate(32.473 36.21)" fill="#ab0029"/><path d="M.683,1.365A.682.682,0,1,0,.054.416.681.681,0,0,0,.2,1.165a.682.682,0,0,0,.483.2" transform="translate(54.923 57.239)" fill="#ab0029"/><path d="M.857,0,0,1.074l1.824.859a1.552,1.552,0,0,0,.1-.613A1.264,1.264,0,0,0,1.782.781,1.5,1.5,0,0,0,1.415.335,2.194,2.194,0,0,0,.857,0" transform="translate(82.763 37.849)" fill="#ab0029"/><path d="M0,0,.317,2.146A.364.364,0,0,0,.393,2.2.428.428,0,0,0,.6,2.252a.537.537,0,0,0,.308-.108,1.445,1.445,0,0,0,.378-.431Z" transform="translate(82.763 38.924)" fill="#ab0029"/><path d="M.646,0,0,.858,1.288.645A.132.132,0,0,0,1.308.6.214.214,0,0,0,1.289.459a.576.576,0,0,0-.18-.2A2.114,2.114,0,0,0,.646,0" transform="translate(83.62 45.041)" fill="#ab0029"/><path d="M1.5,0H0L.432,1.932a.776.776,0,0,0,.2.06.638.638,0,0,0,.418-.06.854.854,0,0,0,.378-.543A3.873,3.873,0,0,0,1.5,0" transform="translate(83.73 46.222)" fill="#ab0029"/><path d="M0,.145.534,1.432,1.071.145A.349.349,0,0,0,1.009.1.66.66,0,0,0,.816.023.976.976,0,0,0,.483.007,1.69,1.69,0,0,0,0,.145" transform="translate(82.763 52.947)" fill="#ab0029"/><path d="M1.822.431.105,0,0,1.716a1.051,1.051,0,0,0,.209.055,1.253,1.253,0,0,0,.5-.015,1.214,1.214,0,0,0,.6-.356A2.333,2.333,0,0,0,1.822.431" transform="translate(83.302 54.916)" fill="#ab0029"/><path d="M1.285,0,0,.86l1.863.322a.443.443,0,0,0,.016-.094A.839.839,0,0,0,1.857.832,1.223,1.223,0,0,0,1.693.456,2.064,2.064,0,0,0,1.285,0" transform="translate(81.155 63.181)" fill="#ab0029"/><path d="M2.254,1.179.754,0,0,2.038a1.483,1.483,0,0,0,.232.138,1.534,1.534,0,0,0,.574.158,1.156,1.156,0,0,0,.735-.2,2.163,2.163,0,0,0,.714-.95" transform="translate(80.4 64.041)" fill="#ab0029"/><path d="M1.611,0,0,.967,1.934.647A.074.074,0,0,0,1.959.621a.143.143,0,0,0,.015-.1.516.516,0,0,0-.086-.2A2.057,2.057,0,0,0,1.611,0" transform="translate(76.106 70.693)" fill="#ab0029"/><path d="M0,.429,1.932,0,.429,1.073a.653.653,0,0,1-.061-.04A1,1,0,0,1,.231.914a.9.9,0,0,1-.146-.2A.773.773,0,0,1,0,.429" transform="translate(74.175 71.659)" fill="#ab0029"/><path d="M0,1.5,1.076,0,2.792.429a2.326,2.326,0,0,1-.1.364,2.147,2.147,0,0,1-.406.7,1.286,1.286,0,0,1-.849.435A2.42,2.42,0,0,1,0,1.5" transform="translate(75.033 71.659)" fill="#ab0029"/></g><g transform="translate(119.668 288.996)"><path d="M4.485,0H9.642A8.734,8.734,0,0,1,14.88,1.743a4.922,4.922,0,0,1,1.8,3.362,5.11,5.11,0,0,1-.86,3.345,3.77,3.77,0,0,1-2.737,1.692A5.4,5.4,0,0,1,17.033,12.2a4.937,4.937,0,0,1,.784,3.73,6.543,6.543,0,0,1-1.971,3.649,6.792,6.792,0,0,1-4.314,1.82H3.283a2.575,2.575,0,0,1-1.443-.446A3.715,3.715,0,0,1,.778,19.832a5.166,5.166,0,0,1-.627-1.478,4.574,4.574,0,0,1-.136-1.509V4.642A4.963,4.963,0,0,1,.351,2.829a4.548,4.548,0,0,1,.932-1.475A4.31,4.31,0,0,1,2.7.363,4.473,4.473,0,0,1,4.485,0m5.07,4.47H5.514V8.509H9.642a2.068,2.068,0,0,0,1.582-.631,1.99,1.99,0,0,0,.5-1.388A2.069,2.069,0,0,0,11.166,5.1,2.16,2.16,0,0,0,9.555,4.47m.43,7.905H5.6v4.732h4.468a2.263,2.263,0,0,0,2.407-2.366,2.362,2.362,0,0,0-2.493-2.366" transform="translate(0 0.213)" fill="#ab0029"/><path d="M0,10.224V0H4.9V9.451a2.771,2.771,0,0,0,.764,2.015,2.4,2.4,0,0,0,1.674.7A2.225,2.225,0,0,0,9,11.47a3.008,3.008,0,0,0,.715-2.191V0h4.814V15.553H9.971V14.007A2.773,2.773,0,0,1,8.34,15.47a6.433,6.433,0,0,1-3.1.513,5.244,5.244,0,0,1-3.226-1.421A7.383,7.383,0,0,1,0,10.224" transform="translate(19.953 5.975)" fill="#ab0029"/><path d="M0,0H5.072V21.573H0Z" transform="translate(37.4 0.042)" fill="#ab0029"/><path d="M0,0H5.069V21.57H0Z" transform="translate(45.006)" fill="#ab0029"/><path d="M0,0H5.328V4.724H0Z" transform="translate(52.184 8.638)" fill="#ab0029"/><path d="M3.441,0H8.252a10.952,10.952,0,0,1,7.588,3.793A11.055,11.055,0,0,1,18.3,10.882,11.347,11.347,0,0,1,15.9,17.923,9.834,9.834,0,0,1,8.94,21.572H3.27a4.8,4.8,0,0,1-1.128-.129,3.246,3.246,0,0,1-1.055-.452,2.35,2.35,0,0,1-.781-.871A2.972,2.972,0,0,1,0,18.733V3.526A3.282,3.282,0,0,1,.236,2.358a4.047,4.047,0,0,1,.68-1.143A3.536,3.536,0,0,1,2,.345,3.142,3.142,0,0,1,3.441,0M4.815,4.553V17.016H7.566A6.151,6.151,0,0,0,11.792,14.8a6.539,6.539,0,0,0-.118-8.132A6.191,6.191,0,0,0,7.391,4.553Z" transform="translate(59.831 0.043)" fill="#ab0029"/><path d="M0,8.334A8.058,8.058,0,0,1,.678,5.091a8.344,8.344,0,0,1,1.85-2.649A8.672,8.672,0,0,1,5.271.655a8.933,8.933,0,0,1,6.717,0,8.667,8.667,0,0,1,2.742,1.787A8.342,8.342,0,0,1,16.58,5.091a8.1,8.1,0,0,1,0,6.488,8.346,8.346,0,0,1-1.849,2.651,8.666,8.666,0,0,1-2.742,1.788,8.93,8.93,0,0,1-6.717,0,8.67,8.67,0,0,1-2.743-1.788A8.347,8.347,0,0,1,.678,11.58,8.068,8.068,0,0,1,0,8.334m8.63,4.135a4.116,4.116,0,1,0-1.608-.325,4.11,4.11,0,0,0,1.608.325" transform="translate(79.994 5.544)" fill="#ab0029"/><path d="M16.33.691V4.212H14.613a3.894,3.894,0,0,1,.364,2.4,5.405,5.405,0,0,1-1,2.341,6.236,6.236,0,0,1-2.013,1.777,5.548,5.548,0,0,1-2.681.705,6.254,6.254,0,0,0-1.92.044c-.459.1-.733.266-.808.448s.048.382.384.545a4.521,4.521,0,0,0,1.656.335,17.839,17.839,0,0,1,2.319.276,11.093,11.093,0,0,1,2.567.789,5.534,5.534,0,0,1,2.08,1.568,4.129,4.129,0,0,1,.857,2.612,4.792,4.792,0,0,1-2.565,4.226,11.264,11.264,0,0,1-5.644,1.358A12.081,12.081,0,0,1,2.565,22.35,4.286,4.286,0,0,1,0,18.647a3.284,3.284,0,0,1,.253-1.187,5.328,5.328,0,0,1,.608-1.108,4.4,4.4,0,0,1,.737-.819,1.145,1.145,0,0,1,.639-.319,1,1,0,0,1-.719-.75,2.862,2.862,0,0,1-.01-1.387,4.3,4.3,0,0,1,.634-1.5,3.119,3.119,0,0,1,1.213-1.088A4.846,4.846,0,0,1,1.445,8.352,5.6,5.6,0,0,1,.914,5.211,5.058,5.058,0,0,1,2.591,2.086,9.486,9.486,0,0,1,7.306,0c.258,0,.554.016.862.047s.631.077.942.136A7.609,7.609,0,0,1,9.989.4a3.034,3.034,0,0,1,.67.29ZM7.908,8.63a2.605,2.605,0,1,0-1.016-.205,2.609,2.609,0,0,0,1.016.205M5.588,19.939a9.54,9.54,0,0,0,1.086.243,6.51,6.51,0,0,0,1.021.081,7.794,7.794,0,0,0,1.085-.081c.387-.054.805-.135,1.278-.243a1.558,1.558,0,0,0,.957-.548,1.079,1.079,0,0,0,.184-.814,1.7,1.7,0,0,0-.364-.8,1.542,1.542,0,0,0-.686-.5l-4.472-.6a2.43,2.43,0,0,0-.75.789,2.08,2.08,0,0,0-.291.942,1.533,1.533,0,0,0,.955,1.536" transform="translate(98.246 0.472)" fill="#ab0029"/></g></g></svg>