<svg xmlns="http://www.w3.org/2000/svg" xmlns:xlink="http://www.w3.org/1999/xlink" width="248.753" height="73.061" viewBox="0 0 248.753 73.061"><defs><clipPath id="a"><rect width="248.753" height="73.061" fill="none"/></clipPath></defs><g clip-path="url(#a)"><path d="M36.531,73.061a36.531,36.531,0,1,1,36.53-36.53,36.531,36.531,0,0,1-36.53,36.53" transform="translate(0 0)" fill="#fff"/><path d="M1.417,36.209A34.791,34.791,0,1,1,36.208,71,34.791,34.791,0,0,1,1.417,36.209M36.063,69.5A33.375,33.375,0,1,0,2.688,36.126,33.375,33.375,0,0,0,36.063,69.5" transform="translate(0.322 0.323)" fill="#ab0029"/><path d="M3.892,35.68A31.8,31.8,0,1,1,35.7,67.489,31.8,31.8,0,0,1,3.892,35.68M35.563,66.116A30.511,30.511,0,1,0,5.052,35.6,30.511,30.511,0,0,0,35.563,66.116" transform="translate(0.885 0.882)" fill="#ab0029"/><path d="M14.078,25.925c-2.072.23-3.072-.537-2.609-2.38,0,0,.461-3.685.383-4.145a14.679,14.679,0,0,1,1.229-3.3c.305-.691,1.075-1,1.841-1.69s4.067-3.915,5.527-2.073a6.706,6.706,0,0,0,1.535.922,6.293,6.293,0,0,1,6.371-2.071,11.928,11.928,0,0,1,5.6-.461c.459.154,1.151-1.151,4.912.384.307.153,5.832-4.531,9.594-1.152a4.653,4.653,0,0,0,1.075,1,6.576,6.576,0,0,1,2.764,3.3,9.557,9.557,0,0,0,2.991,4.067A1.651,1.651,0,0,1,54.22,21.32a4.191,4.191,0,0,0-1.075.844c.537,0,.537-.076.923.384s.459.845,1.075-.154,1.151-.844,1.842-.153.845.921,1.381.305c0,0,.155-.077.846.154l3.836-.459c8.6,23.409-7.981,44.517-30.394,44.133l-.081-1.536c-3.99-2.609-1.995-8.29.692-8.982a21.392,21.392,0,0,1-2.074-3.068.8.8,0,0,0-1.15-.614,5.938,5.938,0,0,1-3.147-.614,4.621,4.621,0,0,0-3.224-.693c-1.3.309-2,.615-3.376-.537.154,1.3-1.687,3.071-3.838.846a.867.867,0,0,0-.537-.309,2.548,2.548,0,0,1-1.457-1.612s-.386-.768-.692-.922a6.153,6.153,0,0,1-1.765-3.454s-.155-.307-.383-.691a5.917,5.917,0,0,1,.69-4.527c.307-.384.691-.692.076-1.689a2.943,2.943,0,0,1,.692-2.84,1.844,1.844,0,0,0,.537-1.612s1.15-1.3,1.458-1.766c-.614-.305-.921-1.535-.614-2.608l-1.152-1.075a2.919,2.919,0,0,0,.767-1.3Zm-1.3-2.917s-.537,1.457.537,1.612,1.535.154,1.458-1.535l.461-3.3s-.308-.305,1.15-1.763l1.536-1.693c.615-.919,2.073-.844.768.461s-3.532,4.451-2.995,6.6c.308.768.768,1.3,0,1.842s-.69,2.378-.613,2.609.307.155.537,0a2.283,2.283,0,0,1,2.456.615s.841.845,1.3.767,0-.076.46.154A.663.663,0,0,0,20.6,29.3l-.845-1.228c-.383-.383-.154-1.075.537-.231a4.54,4.54,0,0,0,.537.767c.386.537,1.307.692.692-.305a3.177,3.177,0,0,1-.613-1c-.08-.384.384-1.536.766-.154.615,1.535,1.306,1.687,2.305,1.535a1.672,1.672,0,0,1,1.3-.305s1.766-1.075,1.993-2.228c.157-.768,1.383-.537.846.076,0,0-1.3,1.919-2.454,2.3s.154.845.614.615c2.609.076,3.761-.232,3.608-3.378,1.381-1.765,1.766-1.458,1.227-.691,0,0-.46,1.381.69.384a6.074,6.074,0,0,1,3-1.151c.23-.077.841,0,.69.383a1.816,1.816,0,0,1-.844.232,2.267,2.267,0,0,0-2.074.613l-.537.768h-.768a1.086,1.086,0,0,0-.381.766c-.308.537-.614,1.383.46.232,1.3-1.075,3.3-1.69,5.91-.308.309.308.309.767,1.075.076s1.531-.766.844-.076-1.459,1.229-.384,1.459c1.228.537,1.075.767.077.459a1.237,1.237,0,0,0-1.459.461,4.532,4.532,0,0,1-4.451.845,3.331,3.331,0,0,0,3.147.614c.692-.154,1.612.076.921.46s-2.072.616-4.3-.691A3.691,3.691,0,0,0,36.8,32.14c.69-.308,1,.228.459.383a5.716,5.716,0,0,1-5.451-1.763c-2.378-2.38-1.15.844-.307,1.075a8.135,8.135,0,0,0,3.84,1.918,3.055,3.055,0,0,1,2.915,2.994s.845,1.382-.154,1.382c.614.15.768.537,1.229.46a2.451,2.451,0,0,1,1.686,2.763s1.3,1.151.537,2.3-1,.845-.461,1.612A6.739,6.739,0,0,1,39.1,43.808a4.374,4.374,0,0,0-2.149-1.152c-2.609-1.3-.384-.921.231-.537s1.382.844,1.918,1.227c.616.537,1.3.844,1.766-.231a1.915,1.915,0,0,0-.537-2c.077-.308.154-2.149-2.454-2.456a3.626,3.626,0,0,1-1.227-.231c-.537-.231-1.075-.767-.845.384.766.922,2.3,3.147-.077.768a4.589,4.589,0,0,0-1.841-1.995,8.741,8.741,0,0,1-2.3-2c-.23-.386-1.152-.386-1.152-.386a3.181,3.181,0,0,1-.844-.383c-.307-.231-.922-.077-1.3.154a1.686,1.686,0,0,1-2-.076,6.654,6.654,0,0,0-5.833,1.381c-.305.307-.845.922-1.306.077,0,0-.537-.767-2.072-.077,0,0-6.142,5.219-3.453,8.06a3.688,3.688,0,0,0,.919,2.533c1,1,1.842.921,1.382-2.763-.154-1.612-.076-2.687,1.842-3.53S19.6,39.354,19.6,38.971s.154-1,.614.077c0,0,.077.922,1.689.692,1.612.305,5.755.691,7.369,3.376s.767,2.3-.537,1.306-7.753-2.534-10.823-.768c-.921.231-2.072,1.381-.076,1.765,1.381.46,3.224,1.382,3.455,3.069,0,0,.613,1.227,1.38,1.227s1.228-.15-.076-1.151l-.922-1.227a2.5,2.5,0,0,0-.46-1c-.305-.308-.305-1,.384-.232s1.075,2.073,1.689,2.378a3.3,3.3,0,0,0,2.3.691c1.149-.15,1.3.154,2.149.846a3.217,3.217,0,0,0,2.534.154c.537,0,2.226,0,.459-2.533-.537-.845-.691-2.994.383-.768,0,0,1.152,1.612,1.383,1.918a3.075,3.075,0,0,0,3.224,2.3c2.84.154,6.83.077,7.9-3.3,0,0,1-1.535,1.612-1.687a3.05,3.05,0,0,0,1.766-3.686,7.068,7.068,0,0,1,.153-2.992s.691-1.612.537,0-.383,2.38-.077,2.992.615,1.384,1.383-.459c.537-.845,1.075-2.149.537-4.681s0-5.222.307-2.687c0,0,.537.921.768-1.15a28.509,28.509,0,0,0-.768-8.06c-.307-1.15,0-2.377.46-.075,0,0,.384,1.842.691,3.071s1.382,5.217-.383,7.828a3.939,3.939,0,0,1,1.075,1.765s.921,1,.46-.231a4.9,4.9,0,0,1-.845-1.535c-.231-.614-.076-1.689.537-.076.845,1.381,1.383,1.075.691-.077a3.761,3.761,0,0,0-.617-.924c-.46-.537-.537-1.458.384-.307,0,0,.305.307.613.69s.922.616.154-.537l-1-1.15s-.922-1.612.46-.308l.613.615s1.537,1.075.46-.461a6.454,6.454,0,0,0-.841-.921,1.6,1.6,0,0,1-.691-.844c-.231-.616-.231-.537.537.075a2.094,2.094,0,0,0,.691.537c.461.231,1.15-.231.155-1a8.177,8.177,0,0,1-1.46-1.382c-.613-.614-.766-1,.309-.228s2.149,1.457,1.3.076a11.11,11.11,0,0,0-1.381-1.919c-1.151-.921-1.075-1.765.232-.308s1.687.692.613-.767c-2.3-1.765-3.376-2.763.156-.921,0,0,.613,0-.537-1.075s-1.842-1.306-.23-.845c0,0,1.381.614-.308-.537-.921-.15-1.226-1.075-1.381-1.38s-.231-.46.383-.691a2.314,2.314,0,0,0,.844-.537c.231-.307,0-.231.537-.231s.46-.307.46-.307a1.3,1.3,0,0,0,.613-.155,1.107,1.107,0,0,0-.15-1.842A6.578,6.578,0,0,1,51,15.33a3.71,3.71,0,0,0-2.456-3.378c-1.151-1.228-3.145-3.992-8.9.69a2.257,2.257,0,0,1-2.226-.308c-.921-.844-2.918-.153-3.069-.153,0,0-4.3-.23-5.6.767a1.324,1.324,0,0,1-1-.307c-.384-.383-3.991.23-4.526,1.458,0,0-1.769,2.687-2.075,1.075,0,0-.614-1.075-1.3-1.152,0,0-.615-1.3-2.457.077a9.687,9.687,0,0,1-2,1.846,5.158,5.158,0,0,0-2.227,3.914,25.83,25.83,0,0,1-.384,3.148m1.3,15.121,2.456-2.3c-.614-.845.384-2.378,1-2.84,0,0,.231-1.381,2.764-1.766,0,0,.921-.075,1.3-.153s2.457-.231,3.147.615a5.518,5.518,0,0,0,.767.537c.308.153,2.531,2.532,1.842,2.532,0,0,.305.231.767-.23s1.075-.155,1.612-.076,2.38.305.231-.461a2.316,2.316,0,0,0-1.459-.307A3.928,3.928,0,0,1,27.2,32.6c-.613-.768.233-.615.46-.384s-.076.767,1.306,1,2.3.078,3.3,1.842,2.149,2.61,3.224,2.536c1.843.688,2.841.305,2.226-.846a1.96,1.96,0,0,1-.46-1c0-.459,0-.844-1.612-1.227,0,0-1.151-.615-1.762-.383a3.345,3.345,0,0,1-.692-.615,3.819,3.819,0,0,0-1.383-.767,11.773,11.773,0,0,1-2.454-2.072c-.537-.614-3.379-1.075-4.836-1.151,0,0-2.227-.537-6.3,1.3a2.548,2.548,0,0,0-1.382,1.458,5.42,5.42,0,0,1-1.377,1.765c-.383.231-2.073,3.915-1.382,4.07m1.228-8.52s-.076,1.227.691.23a1.317,1.317,0,0,1,.305-.46c.231-.23,0-1.381-.689-.691l-.308.922m2.3-.154s-.078,1.227.46.23c0,0-.46-.768-.46-.23m14.813-.922s.614,1.536,1.075-.076c.305-.537.46-1.689-.616-1a1.089,1.089,0,0,0-.459,1.075m3.99-1.151a3.429,3.429,0,0,1-.383,2.073s.615.154,1.458-1.306c0,0-.386-.307-1.075-.767M27.051,42.811c.845.383.15-.69.15-.69-1.149-.846-.46.3-.46.3Zm-1.612-.078c.845.309.231-1.075.231-1.075-1-1-.768.231-.768.231a1.377,1.377,0,0,0,.537.844M23.9,42.35s1.075-.228.078-1.227-.924.461-.924.461c.307.766.846.766.846.766m-2.227-.076c.386.384,1.152-.076.537-1.227s-1.151-.232-.921.383a2.075,2.075,0,0,0,.381.845m-1.841.076c1.15.768.614-1.151.614-1.151-.768-1.3-1,.155-1,.155a1.732,1.732,0,0,0,.384,1m-1,.383c.692-.228-.153-1.3-.153-1.3-.922-.922-1,.46-1,.46,0,.922.46,1.075,1.15.844m-1.765.616c.768.153.421-.081.076-.767-.381-.768-.537.383-.537.383.156.537.461.384.461.384m2.457-9.364a12.663,12.663,0,0,0-.308,1.382c.768,1.151.384-.46.615-1.689s.614-.23.614-.23c.23-.615,1.689-.922,1.689-.922,1.919-.383-.155-.383-.155-.383s-1.152-.23-1.535.153a1.465,1.465,0,0,1-1.151.231c-1.306.537-.155.46-.155.46.308-.077.615.154.386,1m35.765.461a19.175,19.175,0,0,1-2.374,10.362,7.13,7.13,0,0,0,1.842.768c2.38,1.15,3.378-3.454,3.378-3.454,1.687-5.528.69-13.587-.154-17.655-2.917-2-3.376-.305-3.376-.305.846,2.994.689,10.285.689,10.285m-.845.383a22.117,22.117,0,0,1-1.225,6.83c-.922,3.609-4.454,6.678-4.454,6.678-3.145,3.609-7.061,5.067-9.437,6.142-1.69,1.075.69.309.69.309a22.7,22.7,0,0,0,9.21-6.065,14.648,14.648,0,0,0,4.45-6.6,19.083,19.083,0,0,0,1.229-6.524,64.048,64.048,0,0,0-.845-12.125c-.077-1.152-.844-1-.614.15.69,1.765,1.075,6.524,1,11.207m4.914-2.994a27.755,27.755,0,0,1-1.15,11.36c-2.995,6.909-5.3,8.06-5.3,8.06-2.378,3.071-6.753,5.144-8.519,5.91-1.766,1.075-.231,1,.23.537a23.675,23.675,0,0,0,8.75-5.91,16.908,16.908,0,0,0,5.373-8.367c1.84-3.76,1.227-11.514,1.227-11.514.231-1.229-.307-4.683-1.075-8.443-.155-1.075-.537-.923-.537,0a49.553,49.553,0,0,1,1,8.364m1.458-4.069c1.227,1.459.845,1.843.845,1.843,0,1.842,2.149,3.376,2.149,3.376.615-2.3-1.69-8.9-1.69-8.9A6.1,6.1,0,0,0,60.514,24c-1.535.537-.922,2.3.308,3.761m.46,4.069a5.113,5.113,0,0,1,.844,1.536,14.275,14.275,0,0,0,1.229,3.683c.921,2.073.381.077.381.077a.9.9,0,0,0-.15-1.3l-.923-1.3c-.154-.69.155-.615.692,0,1.3,1.227.231-.615.231-.615a5.136,5.136,0,0,1-2.073-2.687c-.46-.768.384-1.226-.46-1.917-1-1.152-.463.23-.463.23.156.768.692,2.3.692,2.3m-17.731,24.1c.459.537.614.15.614.15,1.075-.15,4.145-2.687,4.145-2.687.922-.46.155-1.075,0-1.3a.537.537,0,0,0-.845,0A42.019,42.019,0,0,1,43.4,54.862c-.46.228-.307.537-.307.537ZM39.943,57.55h.615l-.232-1.307h-.691Zm-9.055,3.068A4.375,4.375,0,1,0,36.8,56.4l-.308,1.457a2.313,2.313,0,0,1,1.457,2.456c0,1.918-.767,2.762-2.763,2.762a2.606,2.606,0,0,1-2.61-2.61,2.855,2.855,0,0,1,1.538-2.454L33.8,56.472c-1.3,0-2.914,1.918-2.914,4.144m4.221-2.608c1.075,1,1.075-1.689,1.075-1.689-1.15-1.458-1.689.154-1.689.154a2.638,2.638,0,0,0,.616,1.536M18.378,34.366l-.231.615.614-.076a.458.458,0,0,1-.383-.537m4.3-.307c1.151-.228,1.075-.537.461-.921Zm13.2,28.322-.077-1c-1.075-.305-1-1.149-.768-1.765l-.615-.845a1.953,1.953,0,0,0,1.46,3.608M51.822,50.561a2.152,2.152,0,1,1,.005,0M50.7,37.687c.72.489.259-.144.259-.144l-.144-.4c-.174-.892-.259.058-.259.058.23.835.144.49.144.49m.949,1.928c.174.173.491.2.259-.144a2.216,2.216,0,0,1-.46-.719c-.23-.519-.374-.2-.23.144a3.8,3.8,0,0,0,.43.719m-.49,1.24c.2.516.633.287.43-.032a2.233,2.233,0,0,1-.374-.752c-.2-.546-.43-.145-.259.144a2.635,2.635,0,0,0,.2.636M50.412,42.7c.114.689.373.028.373.028a6.654,6.654,0,0,0,.029-1.411c-.087-.43-.4-.26-.4,0a4.78,4.78,0,0,0,0,1.383M15.784,48.284a4.062,4.062,0,0,0,.778,1.209,1.423,1.423,0,0,1,.489.145Zm1.5,1.526a1.107,1.107,0,0,1,.344.487c.087.288.719.145.719.145v-.263s-.171-.345-1.063-.374m-.173-1.5a1.969,1.969,0,0,1,.259.632l.519.46.573.172c0-.287-.49-.892-1.351-1.264m.058-1.584.518,1.182.776.605c-.171-.461-.2-.633-.6-.806ZM18.9,49.2a.472.472,0,0,1-.261.66l.115.634a1.44,1.44,0,0,0,.43-1.843c.058.288,0,.4-.286.547M62.143,39.6s.215.71.558,1.746.556.249.458-.1a4.7,4.7,0,0,0-.728-1.631,2.457,2.457,0,0,0-.268-1.247c-.329-.6-.461-.115-.25.173m-4.929-15.46-.767-.768c.153.845.46,1.152.767.768M55.507,46.263c-.175.287-.029.475.086.3a.845.845,0,0,0,.373-.532c.13-.418-.243-.072-.243-.072ZM53.881,47.8c-.2.3.129.228.129.228a13.122,13.122,0,0,0,1.266-1.656c.188-.416-.071-.388-.243-.129A7.093,7.093,0,0,1,53.882,47.8m-.46-.118c-.215.361.157.215.157.215a10.912,10.912,0,0,0,1.194-1.59c.286-.575-.1-.329-.215-.115a8.852,8.852,0,0,1-1.137,1.493m-.441-.2c-.215.36.158.215.158.215a10.969,10.969,0,0,0,1.195-1.6c.287-.577-.1-.331-.215-.116a9,9,0,0,1-1.139,1.5m-.417-.215c-.215.361.158.215.158.215a18.376,18.376,0,0,0,1.319-1.934c.114-.235-.1-.331-.215-.115a12.3,12.3,0,0,1-1.259,1.827m-.423-.279c-.215.36.157.215.157.215A15.618,15.618,0,0,0,53.637,45.4c.114-.224-.1-.331-.215-.115a11.589,11.589,0,0,1-1.281,1.7M51.7,46.86c-.215.36.158.215.158.215A16.873,16.873,0,0,0,53.22,45.24c.149-.288-.1-.333-.215-.115a12,12,0,0,1-1.3,1.737m3.289.9c-.577.691.269.268.269.268a9.536,9.536,0,0,0,1.458-2.378c.576-1.382-.346,0-.346,0a7.937,7.937,0,0,1-1.381,2.111" transform="translate(2.582 1.985)" fill="#ab0029"/><path d="M31.036,47.428a1.2,1.2,0,0,1-.288,1.44s.059.576.576.031a1.277,1.277,0,0,0,.2-1.3c0-.058-.316-.575-.489-.174" transform="translate(6.99 10.748)" fill="#ab0029"/><path d="M50.292,31.966c-.038-.422.346-.5.346-.038A2.033,2.033,0,0,1,48.6,34.078c-.806,0-.691-.269.077-.269s1.459-.23,1.612-1.842" transform="translate(10.923 7.188)" fill="#ab0029"/><path d="M49.789,26.318s-.27-.461.269-.154.845,2.8-.692,3.03c0,0-.8.077-.269-.191a1.6,1.6,0,0,0,.692-2.687" transform="translate(11.12 5.924)" fill="#ab0029"/><path d="M49.46,22.031s-.423-.383.113-.154,1.152,3.109-.881,3.147c0,0-.115-.116.191-.155.988-.123,1.344-1.571.577-2.839" transform="translate(11.064 4.956)" fill="#ab0029"/><path d="M47.07,23.249a1.41,1.41,0,1,1,.413,1,1.411,1.411,0,0,1-.413-1m1.411,1.182a1.2,1.2,0,1,0-1.2-1.2,1.2,1.2,0,0,0,1.2,1.2" transform="translate(10.701 4.965)" fill="#ab0029"/><path d="M47.526,27.455a1.411,1.411,0,1,1,1.413,1.41,1.411,1.411,0,0,1-1.413-1.41m1.413,1.182a1.2,1.2,0,1,0-.849-.351,1.2,1.2,0,0,0,.849.351" transform="translate(10.805 5.921)" fill="#ab0029"/><path d="M47.386,32.257a1.411,1.411,0,1,1,1.412,1.41,1.411,1.411,0,0,1-1.412-1.41M48.8,33.44a1.2,1.2,0,1,1,0-.005" transform="translate(10.773 7.012)" fill="#ab0029"/><path d="M46.086,37.772a1.414,1.414,0,1,1,.415,1,1.41,1.41,0,0,1-.415-1M47.5,38.955a1.2,1.2,0,1,0-1.2-1.2,1.2,1.2,0,0,0,1.2,1.2" transform="translate(10.477 8.266)" fill="#ab0029"/><path d="M32.69,49.255c.117.2.519.145.26-.258s-.86-.577-1.009-.752l-.115.489a5.412,5.412,0,0,1,.86.518" transform="translate(7.236 10.968)" fill="#ab0029"/><path d="M32.925,49.553l.17.46c.084.228.492.347.375-.142a1.678,1.678,0,0,0-.23-.549c-.146-.172-.605-.2-.316.231" transform="translate(7.463 11.186)" fill="#ab0029"/><path d="M30.113,48.364A3.474,3.474,0,0,0,28.1,51.617s.316,1.1.346-.029a3.109,3.109,0,0,1,1.783-2.9Z" transform="translate(6.388 10.995)" fill="#ab0029"/><path d="M28.361,52.077c-.113-.141.174-.518.346-.114a1.2,1.2,0,0,0,.518.691c.287.2.26.605-.058.461a1.924,1.924,0,0,1-.806-1.038" transform="translate(6.442 11.772)" fill="#ab0029"/><path d="M28.8,53.663c-.261-.172,0-.547.316-.287a1.741,1.741,0,0,0,.663.4c.2.057.317.43-.2.344a1.242,1.242,0,0,1-.778-.46" transform="translate(6.523 12.114)" fill="#ab0029"/><path d="M33.746,48.711c-.23-.232.173-.43.346-.317,1.9,2.1,1.612,7.137-3.454,7.137-.518-.057-.663-.345.085-.345,2.821.49,5.669-3.424,3.023-6.476" transform="translate(6.868 10.994)" fill="#ab0029"/><path d="M26.731,34.385c-1.075-.537-1.151-1,.232-.614a13.141,13.141,0,0,1,2.149,1.3c.459.46,1.227,1.458,1.46,1.612s1.227,1.151-.078.615A8.342,8.342,0,0,1,29.112,36a4.167,4.167,0,0,0-2.38-1.612" transform="translate(5.894 7.645)" fill="#ab0029"/><path d="M32.372,39c-.331-.5-.3-1,.386-.383A8.425,8.425,0,0,0,35.6,40.3c.767.155,2.3,1.535,0,.537A6.027,6.027,0,0,1,32.373,39" transform="translate(7.313 8.714)" fill="#ab0029"/><path d="M33.99,35.326a.493.493,0,1,0-.347-.145.489.489,0,0,0,.347.145" transform="translate(7.615 7.809)" fill="#ab0029"/><path d="M33.864,30.822a.488.488,0,1,0-.487-.489.488.488,0,0,0,.487.489" transform="translate(7.588 6.785)" fill="#ab0029"/><path d="M35.176,31.448a.489.489,0,1,0-.487-.489.489.489,0,0,0,.487.489" transform="translate(7.886 6.927)" fill="#ab0029"/><path d="M34.5,32.451a.489.489,0,1,0-.487-.489.489.489,0,0,0,.487.489" transform="translate(7.733 7.155)" fill="#ab0029"/><path d="M35.629,33.139A.488.488,0,1,0,35.283,33a.489.489,0,0,0,.346.143" transform="translate(7.989 7.311)" fill="#ab0029"/><path d="M15.825,32.387a.351.351,0,1,0-.25-.1.352.352,0,0,0,.25.1" transform="translate(3.518 7.202)" fill="#ab0029"/><path d="M14.823,33.46a.4.4,0,1,0-.326-.391.4.4,0,0,0,.326.391" transform="translate(3.296 7.429)" fill="#ab0029"/><path d="M37.466,14.719s-.383-3.915,2.38-3.608c0,0,1.765-.154,2.917,2.609,1.228,1.535,4.76,3.99,2.228,5.6,0,0,.383-.614-1.229-1.536-.46-.23-.845-.154-.154.307s1.151.923.077.691c-.614-.307-1.382-.459-.768,0s1,.615-.23.615c-.691-.846-1.612-.922-.768.154,0,0,0,.614-1,.076a3.7,3.7,0,0,1-1.457-1.76s-.922-.768.537-.692c0,0,2.072-.921,2.3-1.458s.231-.307-.076-.845-.308-.154-.384.231-.231.383-.537,0-.46-.461-.15.537c0,0,.15.69-.537.381,0,0,.307.845-.537.384,0,0,.461.691-.844.077s-1.689-1.3-1.766-1.766" transform="translate(8.514 2.523)" fill="#ab0029"/><path d="M35.357,12.225c-.231.537-.077.844.537.305l.537-.613c.461-.386.307-1.075-.614-.308Z" transform="translate(8.015 2.561)" fill="#ab0029"/><path d="M32.622,14.7c-.308.459-.308.844.384.459a3.331,3.331,0,0,1,4.374.308l1.075.922c.537.69,1.382.921.46-.615l-1.227-.844A3.841,3.841,0,0,0,32.62,14.7" transform="translate(7.372 3.151)" fill="#ab0029"/><path d="M37.884,18.461c-.767-.919.461-1.228.691-.383s1,2.608,2.149,2.378a1.529,1.529,0,0,1,.845,1.536l.154,1.306c.154.841-.461,1.38-.767,0,.155-1,.077-2.075-1.075-2.459s-1.151-.69-1.227-1.227a2.594,2.594,0,0,0-.768-1.151" transform="translate(8.556 3.998)" fill="#ab0029"/><path d="M32.187,20.067c-1.075-.076-.308-.537.228-.768h1.537c.614,0,2,2,2.992,2.305s1.306,1.075.077.69-2.763-2.227-3.455-2.3Z" transform="translate(7.194 4.387)" fill="#ab0029"/><path d="M27.908,20.167c-.615.461-.537.922.305.461a5.074,5.074,0,0,1,2.919-.923c1,.155,1.075-.844-.154-.844a5.655,5.655,0,0,0-3.071,1.3" transform="translate(6.252 4.288)" fill="#ab0029"/><path d="M33.576,21.5c-1-.308-.692-.845.305-.691s.844,1.383,1.841,1.689.768.845-.228.46-.845-1.228-1.918-1.458" transform="translate(7.494 4.724)" fill="#ab0029"/><path d="M32.593,21.617c-1-.077-.845.23-.231.46a5.447,5.447,0,0,1,1.151.537c.386.231.768,0,.386-.537a1.625,1.625,0,0,0-1.306-.46" transform="translate(7.246 4.911)" fill="#ab0029"/><path d="M23.235,19.017c-.615.308-.846,1.537.305.386S25,17.33,29.3,17.561c1.46.231,1.843-.845,0-.691s-1.63.43-2.378.077c-1.3-.615-3.145,1.3-3.683,2.071" transform="translate(5.167 3.825)" fill="#ab0029"/><path d="M20.43,17.2c-.614-.307-.845.077,0,.537s1.842,1.3,3.991-.461c0,0,1.3-.846-.384-.46a2.758,2.758,0,0,1-3.608.383" transform="translate(4.519 3.801)" fill="#ab0029"/><path d="M19.067,18.357c-.922-.767-1.382.077-.459.46a1.612,1.612,0,0,1,1.226.384,2.769,2.769,0,0,0,1.152.69c.614.309,1.536-.228.076-.613-.537-.307-1.228-.922-1.612-.922Z" transform="translate(4.116 4.102)" fill="#ab0029"/><path d="M16.653,21.11c-.846.307-1.075-.15-.232-.613s2-1.075,3.071-.463c.386.386.537,1.919-.615.691,0,0-.537-.691-2.223.384" transform="translate(3.613 4.496)" fill="#ab0029"/><path d="M16.462,21.5c-.69.154-1.228.691,0,.383a5.8,5.8,0,0,1,2.149-.307c.231.077,1.227.537.076-.383,0,0-.46-.308-2.226.307" transform="translate(3.576 4.8)" fill="#ab0029"/><path d="M16.152,23.183c-.845,0-1.152.537,0,.384a1.467,1.467,0,0,1,1.612,1.075c0,.922.614,1.612.919.691a2.257,2.257,0,0,1-.537-1.381c0-.537-1.382-.922-2-.768" transform="translate(3.501 5.263)" fill="#ab0029"/><path d="M34.38,27.649c-.768.616-.845,1.306.307.461a5.021,5.021,0,0,0,1.918-2c.308-.69.767-.846.691.383a3.244,3.244,0,0,0-.155,2.38,11.283,11.283,0,0,1-.153,3.915,3.009,3.009,0,0,0,.921,2.532c.615.615,2.763,2.457,1.612,4.145a1.827,1.827,0,0,0-.384,1.306c.155.614,0,1.075.384-.155s.384-1,.768-1.38.767-1.69-1.152-3.456a4.236,4.236,0,0,1-1.3-5.065l.077-4.145c.23-1.075,0-1-.384-1.612s-1.228.461-1.228.461S35,27.5,34.382,27.647" transform="translate(7.687 5.631)" fill="#ab0029"/><path d="M37.9,24.978c-.154-.768.919-.844.613,0a4.767,4.767,0,0,0,.232.845c.153.383.537,2-.232,2.456s-.46-.077-.46-.615a6.3,6.3,0,0,0,.155-1.765,4.191,4.191,0,0,1-.307-.921" transform="translate(8.613 5.541)" fill="#ab0029"/><path d="M38.716,25.007c-.153-.768.922-.845.615,0a1.557,1.557,0,0,0,0,.884,2.2,2.2,0,0,1,.154,2.377c-.354.588-.614-.041-.614-.578s.307-.8.154-1.495A8.6,8.6,0,0,1,38.716,25" transform="translate(8.799 5.548)" fill="#ab0029"/><path d="M39.557,25.007c-.154-.768.923-.845.614,0a4.739,4.739,0,0,0,.232.844c.153.384.81,1.348.042,1.805s-.383.077-.383-.458a4.322,4.322,0,0,0-.2-1.27,4.181,4.181,0,0,1-.308-.921" transform="translate(8.989 5.548)" fill="#ab0029"/><path d="M16.827,37.865s.537-.69.46.077c0,0-.307.381-.46-.077" transform="translate(3.825 8.543)" fill="#ab0029"/><path d="M17.513,37.747s.077-.692.386-.077c0,0,0,.537-.386.077" transform="translate(3.982 8.506)" fill="#ab0029"/><path d="M18.076,37.542s.154-.463.461-.077c0,0,0,.691-.461.077" transform="translate(4.11 8.482)" fill="#ab0029"/><path d="M18.64,37.49s.23-.537.459-.154c0,0,.076.845-.459.154" transform="translate(4.238 8.457)" fill="#ab0029"/><path d="M19.39,37.345s.23-.461.46.076c0,0-.231.767-.46-.076" transform="translate(4.408 8.448)" fill="#ab0029"/><path d="M20.079,37.417s.076-.537.381,0c0,0,0,.459-.381,0" transform="translate(4.564 8.452)" fill="#ab0029"/><path d="M20.7,37.281s.307-.386.46,0-.307.381-.46,0" transform="translate(4.706 8.436)" fill="#ab0029"/><path d="M21.391,37.351s.384-.537.459.076-.381.383-.459-.076" transform="translate(4.863 8.442)" fill="#ab0029"/><path d="M22.08,37.407s.307-.46.383.077-.23.46-.383-.077" transform="translate(5.02 8.463)" fill="#ab0029"/><path d="M22.642,37.474s.308-.461.461,0-.308.383-.461,0" transform="translate(5.147 8.473)" fill="#ab0029"/><path d="M23.455,37.467s.463-.461.537.154-.23.308-.537-.154" transform="translate(5.332 8.48)" fill="#ab0029"/><path d="M24.345,41.582c-.15-.383-.15-.689.308-.154s.384,1-.308.154" transform="translate(5.514 9.353)" fill="#ab0029"/><path d="M25.1,41.59s-.384-.844.305-.3c0,0,.537,1.381-.305.3" transform="translate(5.682 9.345)" fill="#ab0029"/><path d="M25.789,41.572s-.386-.766.307-.154.383.845-.307.154" transform="translate(5.839 9.362)" fill="#ab0029"/><path d="M26.761,41.954c-.305-.46-.537-1.15.154-.537s.615,1.306-.154.537" transform="translate(6.017 9.362)" fill="#ab0029"/><path d="M25.187,21.883c-.155.307-.616.921.459.613s.386-1.765-.459-.613" transform="translate(5.673 4.876)" fill="#ab0029"/><path d="M18.96,21.577c-.154-.46.154-.691.616-.23a2.165,2.165,0,0,0,.153.845c.155.23.307,1.382-.461.46,0,0-.307-.077-.307-1.075" transform="translate(4.302 4.796)" fill="#ab0029"/><path d="M32.489,34.324a.492.492,0,1,0-.346-.145.487.487,0,0,0,.346.145" transform="translate(7.274 7.582)" fill="#ab0029"/><path d="M48.833,22.051l-.613.768,1.3.614a1.041,1.041,0,0,0-.691-1.382" transform="translate(10.962 5.014)" fill="#ab0029"/><path d="M48.22,22.678l.228,1.535s.308.308.692-.308Z" transform="translate(10.962 5.156)" fill="#ab0029"/><path d="M49.18,26.242l-.461.614.921-.154s.155-.2-.459-.46" transform="translate(11.076 5.966)" fill="#ab0029"/><path d="M49.856,26.93H48.781l.307,1.382s.921.459.767-1.382" transform="translate(11.09 6.122)" fill="#ab0029"/><path d="M48.22,30.952l.383.921.383-.921s-.23-.232-.766,0" transform="translate(10.962 7.013)" fill="#ab0029"/><path d="M49.838,32.3,48.605,32l-.076,1.227s.919.386,1.306-.919" transform="translate(11.033 7.274)" fill="#ab0029"/><path d="M48.2,36.81l-.919.615,1.333.23s.124-.383-.414-.845" transform="translate(10.749 8.369)" fill="#ab0029"/><path d="M48.455,38.159l-1.075-.844-.537,1.457s1,.768,1.612-.614" transform="translate(10.65 8.482)" fill="#ab0029"/><path d="M45.493,41.187l-1.151.692,1.383-.23s.15-.08-.232-.463" transform="translate(10.08 9.364)" fill="#ab0029"/><path d="M43.217,42.058,44.6,41.75l-1.075.768a.637.637,0,0,1-.307-.46" transform="translate(9.824 9.492)" fill="#ab0029"/><path d="M43.716,42.825l.768-1.075,1.227.307s-.307,1.766-2,.767" transform="translate(9.938 9.492)" fill="#ab0029"/><path d="M73.146,15.715h7.51c14.019.752,11.643,14.149,5.01,14.77,11.014,1.252,8.13,15.772-2.257,16.4H71.394c-3.133,0-5.008-3.885-4.758-6.635V22.469a6.524,6.524,0,0,1,6.51-6.759m7.385,6.51H74.647V28.1h6.008a2.946,2.946,0,1,0-.124-5.883m.625,11.514H74.774v6.9h6.507c4.76,0,4.63-6.891-.124-6.891" transform="translate(15.144 3.572)" fill="#ab0029"/><path d="M90.292,37.442V22.551h7.136V36.317c0,5.128,7.134,5.51,7.008-.25V22.551h7.01V45.2h-6.637v-2.25c-.879,3.125-12.645,6.383-14.52-5.51" transform="translate(20.527 5.127)" fill="#ab0029"/><rect width="7.386" height="31.419" transform="translate(136.228 19.038)" fill="#ab0029"/><rect width="7.383" height="31.414" transform="translate(147.305 18.977)" fill="#ab0029"/><rect width="7.761" height="6.881" transform="translate(157.757 31.558)" fill="#ab0029"/><path d="M142.621,15.512h7.014c19.9,2,18.776,29.792,1,31.419h-8.257c-2.131,0-4.761-.879-4.761-4.135V20.649a5.289,5.289,0,0,1,5.01-5.137m2,6.633V40.294h4.006c11.012-1.252,10.764-17.145-.253-18.149Z" transform="translate(31.285 3.526)" fill="#ab0029"/><path d="M161.536,34.18a12.573,12.573,0,0,1,25.133,0,12.573,12.573,0,0,1-25.133,0M174.109,40.2a6.018,6.018,0,1,0-6.018-6.018,6.018,6.018,0,0,0,6.018,6.018" transform="translate(36.724 5.008)" fill="#ab0029"/><path d="M206.98,17.026v5.129h-2.5c2.257,4.381-2.13,10.514-7.762,10.514-4.757-.5-5.507,1.754-1,2,3.784.215,11.391,1.381,11.391,7.638,0,11.135-23.909,10.262-23.909.867,0-2.246,2.257-5,3.256-5-2.126-.5-1.25-5.507,1.627-6.878-4.506-2.506-6.885-12.9,5.758-15.273a11.655,11.655,0,0,1,4.881,1ZM194.713,28.591a3.8,3.8,0,1,0-2.693-1.114,3.806,3.806,0,0,0,2.693,1.114m-3.38,16.469a11.432,11.432,0,0,0,6.507,0c2.755-.623,1.63-3.376.131-3.879l-6.512-.878c-1.877,1.252-2.126,3.882-.127,4.757" transform="translate(41.648 3.643)" fill="#ab0029"/></g></svg>